<svg xmlns="http://www.w3.org/2000/svg" xmlns:xlink="http://www.w3.org/1999/xlink" width="1188" height="1122" viewBox="0 0 1188 1122">
  <defs>
    <radialGradient id="radial-gradient" cx="0.226" cy="0.941" r="1.014" gradientTransform="matrix(0.261, -0.965, 1.007, 0.272, -0.78, 0.903)" gradientUnits="objectBoundingBox">
      <stop offset="0" stop-color="#fff"/>
      <stop offset="1" stop-color="#fff" stop-opacity="0"/>
    </radialGradient>
    <linearGradient id="linear-gradient" x1="0.238" y1="0.024" x2="0.774" y2="0.918" gradientUnits="objectBoundingBox">
      <stop offset="0" stop-color="#fff" stop-opacity="0"/>
      <stop offset="1" stop-color="#fff"/>
    </linearGradient>
    <linearGradient id="linear-gradient-2" x1="0.5" y1="0.984" x2="0.5" y2="0.068" gradientUnits="objectBoundingBox">
      <stop offset="0" stop-color="#e8eaff"/>
      <stop offset="0.1" stop-color="#d9e8e6"/>
      <stop offset="1" stop-color="#fff"/>
    </linearGradient>
    <linearGradient id="linear-gradient-3" x1="0.243" y1="0.967" x2="0.751" y2="0.21" gradientUnits="objectBoundingBox">
      <stop offset="0" stop-color="#eaeff4"/>
      <stop offset="0.51" stop-color="#f7f9fb"/>
      <stop offset="1" stop-color="#fff"/>
    </linearGradient>
    <clipPath id="clip-path">
      <path id="Trazado_22190" data-name="Trazado 22190" d="M2690.987,840.511v8.7c0,.856,0,1.76-.042,2.641v1.7c0,.573-.03,1.152-.042,1.73v1.067c0,.488,0,.977-.042,1.471,0,.8-.048,1.61-.078,2.412v.422l-.163,4.1v.211c-.06,1.429-.133,2.87-.205,4.3h0c-.066,1.206-.139,2.412-.205,3.617,0,.362-.048.718-.066,1.079q-.223,3.835-.531,7.681l-.223,1.2c-.054.76-.12,1.519-.181,2.273-.042.446-.084.9-.12,1.339,0,.3-.054.6-.073.9-.066.76-.139,1.507-.2,2.267v.157c-.121,1.284-.247,2.587-.374,3.877-.03.265-.055.543-.085.82-.145,1.435-.3,2.876-.458,4.3v.259c-.03.271-.061.537-.1.808-.121,1.109-.253,2.231-.386,3.334v.181q-.271,2.3-.566,4.582c-.133,1.043-.277,2.08-.416,3.129a3.719,3.719,0,0,1-.066.452c-.079.6-.157,1.206-.248,1.809-.1.711-.2,1.423-.3,2.128q-.187,1.32-.4,2.641a5.187,5.187,0,0,1-.12.874c-.073.482-.151.965-.223,1.447-.043.277-.085.543-.127.814-.205,1.29-.41,2.574-.6,3.865-.163,1.007-.337,2.008-.512,3.015-.042.229-.078.464-.12.705s-.066.374-.1.555a.535.535,0,0,1-.042.253.617.617,0,0,0-.036.253,3.348,3.348,0,0,1-.06.35c-.133.748-.266,1.507-.4,2.255-.1.543-.2,1.085-.3,1.628-.036.2-.073.416-.115.6a.355.355,0,0,1,0,.06c-.181,1.043-.386,2.086-.6,3.135-.277,1.417-.555,2.846-.844,4.269s-.6,2.846-.875,4.269l-.452,2.134c-.126.6-.265,1.236-.4,1.851a1.609,1.609,0,0,1-.066.283c-.066.3-.133.6-.205.9s-.151.7-.235,1.049c-.156.748-.326,1.5-.5,2.243s-.344,1.489-.519,2.237c-.1.422-.193.832-.29,1.26-.078.326-.163.651-.235.989-.338,1.357-.663,2.725-1,4.082l-.091.374c-.319,1.3-.651,2.581-.983,3.877-.362,1.411-.729,2.828-1.109,4.22-.332,1.254-.675,2.508-1.013,3.75-.139.506-.284,1.013-.428,1.525q-.44,1.592-.9,3.2c-.4,1.411-.808,2.822-1.206,4.22q-.542,1.809-1.1,3.684c-.073.229-.138.464-.211.693l-.886,2.852c-.121.4-.247.8-.38,1.206-.428,1.369-.874,2.743-1.314,4.106s-.941,2.876-1.429,4.3-.946,2.8-1.429,4.22c-.452,1.3-.9,2.593-1.369,3.895l-.163.458c-.145.392-.278.784-.422,1.206q-1.067,3.015-2.195,5.975-.5,1.339-1.013,2.677l-.175.446c-.175.482-.362.959-.549,1.435s-.4,1.037-.6,1.549c-.042.1-.078.2-.115.3l-1.151,2.912-.084.2c-.253.651-.512,1.29-.772,1.929-.205.506-.41,1.007-.6,1.507q-.542,1.332-1.091,2.647c-.145.356-.29.705-.446,1.067q-.428,1.031-.868,2.062l-.495,1.206-.814,1.893c-.6,1.387-1.206,2.761-1.809,4.136a.114.114,0,0,0,0,.06h0l-.284.633c-.2.446-.4.9-.6,1.351-.3.687-.6,1.375-.929,2.062q-.747,1.676-1.525,3.352c-.187.4-.362.8-.549,1.206-.38.8-.748,1.6-1.128,2.412l-.6,1.284c-.326.687-.657,1.369-.983,2.05s-.657,1.369-.989,2.044l-.6,1.158c-.139.3-.277.6-.428.892l-.513,1.025-.5,1.013c-.4.8-.79,1.592-1.206,2.412-.259.506-.512,1.019-.772,1.519l-.091.175c-.1.211-.211.422-.319.6s-.241.488-.362.724l-.826,1.592c-.193.38-.392.754-.6,1.14l-.392.748c-.223.422-.452.856-.669,1.278l-.307.573-.772,1.459c-1.447,2.7-2.912,5.426-4.414,8.085h0c-.108.2-.223.41-.337.6s-.265.458-.392.688l-.374.669c-.416.742-.826,1.471-1.248,2.195-.35.6-.693,1.206-1.049,1.809-.488.868-.989,1.724-1.5,2.587a.294.294,0,0,1-.061.09c-.464.8-.934,1.616-1.411,2.412-.536.911-1.085,1.809-1.622,2.731a1.416,1.416,0,0,0-.12.2.632.632,0,0,0-.067.1c-.548.917-1.115,1.809-1.67,2.749l-.88,1.447q-1.158,1.887-2.333,3.768l-.892,1.4q-3.184,5.053-6.518,10.057c-.458.7-.923,1.387-1.38,2.074-.929,1.381-1.857,2.749-2.8,4.13-52.78,76.975-112.982,135.055-177.139,177.067a553.88,553.88,0,0,1-69.336,38.641q-13.349,6.234-26.842,11.655l-.157.06a544.42,544.42,0,0,1-74.22,23.815,560.389,560.389,0,0,1-91.982,14.434q-12.058.886-24.039,1.26a611.8,611.8,0,0,1-160.715-16.58,638.531,638.531,0,0,1-154.4-58.628q-22.447-12.059-43.411-25.7-17.328-11.287-33.486-23.514a527.328,527.328,0,0,1-45.925-39.009l-.464-.471-.09-.09v-.03l-.181-.181a.679.679,0,0,0-.09-.1l-.145-.151c-.156-.157-.326-.338-.512-.536l-.241-.253h-.036l-.036-.036-.181-.187c-.169-.175-.332-.356-.513-.555l-.042-.036-.036-.036-.108-.121c-.386-.4-.79-.85-1.242-1.332-.145-.151-.284-.314-.434-.47l-1.477-1.61c-.277-.314-.6-.6-.886-.977l-.175-.193-1.35-1.513c-.133-.157-.277-.314-.422-.476l-.108-.115-.663-.76c-1.471-1.67-3.087-3.539-4.823-5.589-.133-.151-.271-.313-.4-.476q-1.206-1.435-2.514-3.015l-.784-.935c-.247-.308-.512-.6-.772-.935l-.211-.259-.223-.277-.054-.06-.169-.2c-.181-.235-.38-.464-.567-.705s-.452-.555-.687-.832c-.368-.464-.748-.934-1.14-1.417-.121-.157-.253-.314-.386-.476l-1.013-1.272c-.169-.211-.338-.422-.5-.639q-1.905-2.412-3.883-4.95c-.277-.35-.543-.693-.808-1.049a.925.925,0,0,1-.091-.121v-.036l-1.067-1.393c-.6-.82-1.266-1.658-1.905-2.508h0l-.259-.338-.344-.47c-.066-.078-.139-.169-.2-.259-.338-.452-.675-.9-1.013-1.369-.1-.133-.193-.253-.29-.38s-.193-.259-.283-.392q-1.266-1.7-2.55-3.461c-.947-1.308-1.9-2.635-2.87-3.991l-.971-1.363-.223-.332q-1.694-2.412-3.4-4.872-2.593-3.774-5.239-7.766c-.169-.265-.35-.531-.519-.8l-.06-.09q-.555-.832-1.1-1.682l-.09-.145c-.362-.543-.711-1.1-1.073-1.652s-.742-1.158-1.121-1.736l-.048-.078-1.079-1.688c-1.483-2.339-2.966-4.739-4.456-7.175-.489-.814-.995-1.634-1.483-2.46-.392-.645-.778-1.3-1.17-1.959-1.175-1.954-2.333-3.949-3.5-5.975-1.55-2.7-3.1-5.426-4.625-8.236q-1.152-2.1-2.291-4.22c-.374-.706-.76-1.417-1.133-2.135s-.729-1.369-1.079-2.062-.723-1.381-1.073-2.08c-.193-.362-.392-.742-.6-1.121-.307-.6-.6-1.206-.923-1.809-.6-1.206-1.206-2.412-1.809-3.672a1.724,1.724,0,0,1-.1-.217c-.307-.6-.6-1.242-.917-1.875s-.531-1.079-.8-1.628c-.344-.729-.7-1.471-1.049-2.207-.416-.874-.832-1.755-1.206-2.641-.181-.374-.356-.766-.537-1.146-.283-.6-.6-1.254-.862-1.881s-.549-1.206-.832-1.809-.464-1.055-.7-1.586c-.187-.416-.374-.838-.555-1.254-.054-.109-.1-.223-.151-.338-.4-.91-.79-1.809-1.206-2.725-.464-1.085-.935-2.177-1.393-3.262-.109-.265-.217-.531-.332-.8,0-.066-.054-.12-.078-.187h0l-.9-2.2-.356-.862-.036-.09c-.073-.175-.133-.344-.2-.513s-.1-.259-.157-.392-.168-.422-.253-.6c-.344-.844-.675-1.706-1.013-2.556-.223-.6-.446-1.146-.675-1.724l-.9-2.357c-.193-.519-.392-1.031-.6-1.549-.332-.886-.663-1.773-.983-2.659-.265-.711-.525-1.429-.784-2.146l-.362-1.019-.277-.778q-.38-1.067-.741-2.116c-.145-.4-.277-.8-.416-1.206s-.283-.844-.428-1.26-.332-.977-.495-1.471-.326-.977-.482-1.465c-.289-.868-.6-1.736-.85-2.617l-.362-1.127c-.223-.7-.44-1.4-.657-2.1-.452-1.435-.886-2.882-1.321-4.335l-.181-.6c-.145-.506-.29-1.019-.44-1.525-.248-.868-.5-1.742-.742-2.617q-.434-1.514-.832-3.015c-.265-.971-.531-1.947-.784-2.924s-.452-1.773-.681-2.659c-.157-.6-.3-1.242-.452-1.857-.1-.374-.187-.735-.277-1.115l-.109-.44c-.042-.175-.078-.344-.121-.519a.133.133,0,0,1,0-.066c-.144-.6-.277-1.152-.41-1.742s-.259-1.091-.38-1.64c-.163-.7-.319-1.4-.464-2.11-.048-.181-.084-.356-.12-.537-.091-.386-.169-.76-.253-1.146q-.2-.9-.38-1.809-.326-1.568-.6-3.147v-.084q-.06-.271-.109-.543l-.108-.549c-.151-.76-.284-1.513-.428-2.261q-.271-1.447-.525-2.894c-.06-.35-.12-.7-.175-1.049a2.51,2.51,0,0,0-.054-.307.534.534,0,0,0-.042-.229c-.09-.537-.181-1.061-.265-1.6s-.181-1.061-.265-1.6-.169-1.061-.247-1.6c-.127-.856-.259-1.712-.38-2.574l-.181-1.266q-.084-.561-.163-1.14c-.066-.5-.132-1.007-.2-1.519-.132-1.061-.265-2.122-.392-3.183-.1-.814-.193-1.628-.283-2.412s-.181-1.628-.259-2.412c-.1-.995-.2-1.984-.29-2.978l-.036-.386c-.048-.512-.091-1.037-.133-1.549s-.1-1.1-.139-1.64c-.133-1.64-.253-3.3-.344-4.95-.036-.549-.072-1.1-.1-1.646s-.048-.91-.073-1.369c0-.3-.03-.6-.042-.917v-.332c0-.5-.042-1-.066-1.507s-.042-1.079-.06-1.616v-3.919c0-.657,0-1.32-.03-1.984v-6.059c0-.766,0-1.526.03-2.3v-1.14c0-.784.042-1.574.066-2.363V958.9c0-.693.054-1.381.084-2.074v-1.007c0-.416.036-.82.06-1.206a5.783,5.783,0,0,1,.054-.965c.054-.326.042-.766.066-1.152v-.814c0-.386.048-.772.072-1.146V950.2c0-.428.06-.85.09-1.278a2.016,2.016,0,0,1,.042-.5,6.4,6.4,0,0,0,.054-.657c.024-.217.048-.6.073-.91l.126-1.507c.042-.5.09-1.013.145-1.507,0-.326.06-.657.09-.983.06-.6.115-1.146.181-1.718a.312.312,0,0,1,0-.078,5.387,5.387,0,0,1,.06-.6c.066-.6.127-1.206.2-1.809a4.411,4.411,0,0,1,.066-.561.274.274,0,0,0,0-.066.376.376,0,0,1,0-.042s0-.042,0-.06a.9.9,0,0,0,0-.121.122.122,0,0,0,0-.042v-.217a.856.856,0,0,1,.03-.265c.036-.265.066-.537.1-.79.042-.368.085-.729.133-1.073s.061-.5.1-.736a1.156,1.156,0,0,1,.048-.4c.054-.41.108-.832.163-1.254.121-.91.253-1.809.392-2.725.036-.259.072-.531.121-.8.072-.512.157-1.037.241-1.549a2.04,2.04,0,0,1,.042-.277c.012-.09.042-.247.06-.368.127-.832.265-1.646.41-2.466a2.949,2.949,0,0,1,.054-.32c.12-.742.253-1.477.392-2.213a.424.424,0,0,1,.036-.2c.054-.3.1-.6.163-.929l.09-.5.054-.247c.151-.808.308-1.61.47-2.412l.163-.8c.054-.3.115-.6.181-.922s.1-.476.151-.712l.145-.705a.172.172,0,0,1,.03-.114q.4-1.893.826-3.78c.151-.633.3-1.26.446-1.9.042-.157.078-.313.115-.47.1-.476.223-.947.338-1.423a1.272,1.272,0,0,1,.084-.332c.03-.109.042-.187.072-.277.072-.326.157-.639.241-.959.054-.223.109-.44.163-.645.121-.494.241-.977.368-1.471l.543-2.026c.163-.6.332-1.206.506-1.857.048-.175.1-.356.151-.537.1-.374.211-.73.314-1.1a1.269,1.269,0,0,1,.078-.307c.187-.639.368-1.266.561-1.9.284-.953.567-1.911.862-2.864s.6-1.911.892-2.864c.271-.85.543-1.7.826-2.556.1-.277.187-.555.283-.838q.482-1.453.989-2.894c.211-.639.44-1.272.669-1.905l.115-.332.109-.283.271-.76c.464-1.284.935-2.562,1.429-3.841.073-.2.151-.392.229-.6s.157-.428.241-.645c.338-.862.681-1.73,1.019-2.6h0c.512-1.272,1.031-2.556,1.561-3.841s1.073-2.562,1.64-3.841q2.93-6.759,6.307-13.5a.353.353,0,0,0,.036-.085V851.5a.085.085,0,0,1,.036-.066,1.35,1.35,0,0,1,.1-.187,1.465,1.465,0,0,1,.067-.145l.054-.1c.12-.247.241-.494.368-.736.428-.844.85-1.676,1.29-2.508q1.013-1.953,2.062-3.907c.338-.6.675-1.206,1.013-1.857,0,0,.036-.054.054-.091.356-.651.717-1.3,1.079-1.953s.735-1.3,1.1-1.947.741-1.308,1.121-1.953q1.019-1.773,2.08-3.533,3.014-5.071,6.343-10.141c.422-.657.85-1.3,1.29-1.959q2.87-4.323,5.957-8.664l.416-.6c.277-.392.561-.778.844-1.17q3.672-5.095,7.651-10.177c.35-.458.711-.916,1.073-1.375.784-.995,1.573-1.978,2.412-2.979.368-.47.748-.928,1.127-1.393s.826-1.013,1.242-1.513c.7-.856,1.417-1.706,2.134-2.568q1.971-2.339,4-4.679,2.659-3.069,5.227-6.144,3.816-4.564,7.422-9.158a388.827,388.827,0,0,0,39.745-61.745c.742-1.435,1.477-2.864,2.195-4.3s1.435-2.87,2.14-4.3,1.387-2.876,2.068-4.311c.344-.711.688-1.435,1.013-2.152.422-.9.832-1.809,1.248-2.689l1.206-2.7c.4-.9.8-1.809,1.206-2.7s.79-1.809,1.206-2.689c.307-.711.6-1.435.929-2.152s.687-1.616,1.025-2.412.675-1.61,1.013-2.412.663-1.61.989-2.412l.977-2.412h0c.169-.4.319-.8.482-1.206.4-.983.778-1.966,1.158-2.948l.265-.681c.6-1.61,1.206-3.214,1.845-4.823.265-.724.536-1.435.8-2.159q2.08-5.637,4.009-11.257c.434-1.254.862-2.5,1.272-3.75.482-1.429.953-2.852,1.423-4.275a.174.174,0,0,1,.042-.133l.036-.139c.434-1.332.868-2.665,1.29-3.991,4.076-12.812,7.651-25.558,10.907-38.2q.826-3.141,1.616-6.288h0q.8-3.147,1.568-6.276c.344-1.4.682-2.792,1.019-4.221.675-2.773,1.339-5.553,2-8.314s1.3-5.535,1.947-8.284,1.272-5.5,1.911-8.254q1.206-5.137,2.357-10.25c1.176-5.089,2.339-10.159,3.527-15.188h0q1.116-4.733,2.237-9.412c.036-.151.078-.307.108-.458.41-1.718.832-3.431,1.248-5.143h0c7.169-29.182,15.206-57.115,27.1-83.2,1.573-3.473,3.238-6.915,4.962-10.328a239.811,239.811,0,0,1,16.092-27.282q4.268-6.24,9.044-12.276a220.37,220.37,0,0,1,20.753-22.965c17.485-16.689,39.027-31.889,65.99-45.316q12.059-5.987,25.612-11.528l2.985-1.206q16.767-6.668,35.934-12.583c29.573-9.1,63.645-16.8,103.027-22.911a445.211,445.211,0,0,1,167.058,5.764c98.276,22.109,188.112,76.047,260.577,149.429.778.784,1.555,1.58,2.328,2.369s1.543,1.58,2.309,2.376l1.315,1.363c.554.6,1.115,1.152,1.664,1.742l2.146,2.261q.892.941,1.772,1.887,1.112,1.185,2.219,2.412c.736.82,1.507,1.628,2.255,2.442s1.628,1.779,2.412,2.671q1.031,1.121,2.032,2.255c.741.82,1.483,1.652,2.219,2.478,1.465,1.652,2.936,3.328,4.383,5s2.9,3.352,4.335,5.04c.723.838,1.435,1.7,2.152,2.544.6.748,1.26,1.5,1.881,2.243q2.414,2.912,4.823,5.854c.6.724,1.206,1.453,1.773,2.195q5.221,6.475,10.286,13.114c.675.88,1.344,1.767,2.02,2.659s1.332,1.809,2,2.671l1.809,2.412c.1.139.193.265.289.4q.94,1.266,1.869,2.55c.657.892,1.314,1.809,1.959,2.7l1.905,2.641a2.407,2.407,0,0,0,.139.205c.8,1.127,1.6,2.243,2.412,3.37s1.585,2.267,2.369,3.394,1.574,2.261,2.351,3.4,1.562,2.279,2.328,3.425c1.127,1.664,2.249,3.352,3.358,5.028.736,1.109,1.465,2.213,2.189,3.322q.892,1.363,1.778,2.737c.724,1.133,1.453,2.261,2.17,3.388.488.778.983,1.544,1.465,2.315q.892,1.423,1.778,2.84c1.206,1.893,2.357,3.786,3.515,5.7q2.6,4.287,5.149,8.616c1.139,1.923,2.249,3.859,3.364,5.788q.8,1.393,1.592,2.8c.048.078.09.157.132.235l1.568,2.767a.243.243,0,0,0,0,.042l1.61,2.912c.537.977,1.079,1.947,1.61,2.93q4.221,7.687,8.188,15.5.8,1.556,1.586,3.123l.247.494c.476.941.947,1.887,1.417,2.828.048.1.09.2.138.289.422.85.844,1.694,1.254,2.55.675,1.363,1.333,2.731,1.99,4.094.344.7.675,1.411,1.013,2.116.3.6.6,1.206.868,1.809.476,1,.947,2.008,1.423,3.015q2.973,6.409,5.824,12.878.687,1.568,1.363,3.123,1.206,2.731,2.321,5.426c.422.989.838,1.99,1.248,3.015a1.163,1.163,0,0,1,.078.181c.386.929.772,1.863,1.152,2.792.078.175.139.35.211.531.355.85.7,1.7,1.042,2.55q1.929,4.781,3.762,9.586c.44,1.146.881,2.291,1.308,3.437q1.14,3.015,2.237,6.029c.313.862.6,1.724.947,2.593.072.217.15.434.229.645.338.941.669,1.875,1,2.816.247.7.488,1.387.729,2.086s.543,1.537.8,2.315.6,1.664.862,2.49.6,1.809.911,2.713c.35,1.055.705,2.116,1.049,3.171q2.84,8.634,5.426,17.376c.247.832.494,1.67.735,2.508s.477,1.646.711,2.478.47,1.676.705,2.514c.459,1.586.893,3.171,1.321,4.769.223.79.428,1.58.639,2.37.271,1.019.549,2.026.808,3.015q1.724,6.632,3.3,13.264c.241,1.043.489,2.086.73,3.141.211.892.41,1.809.6,2.7.054.271.121.543.181.82.223.995.452,2,.663,3.015l.6,2.846c.265,1.26.536,2.514.79,3.78.217,1.061.428,2.116.645,3.171q.416,2.044.808,4.094c.157.814.313,1.628.464,2.454.211,1.061.4,2.134.6,3.207.121.6.235,1.266.344,1.9.09.482.181.971.253,1.453q.2,1.067.38,2.134c.259,1.477.512,2.954.748,4.438q.272,1.616.531,3.25c.108.663.2,1.32.3,1.99.127.778.247,1.556.362,2.327s.235,1.543.344,2.315c.126.868.248,1.73.368,2.593.108.705.205,1.423.3,2.134q1.061,7.651,1.893,15.326c.138,1.206.259,2.412.38,3.618s.253,2.412.368,3.618.229,2.412.338,3.618.211,2.412.313,3.66c0,.32.054.645.078.959s.042.549.061.826l.073.9c.03.32.054.645.078.971.042.567.084,1.127.121,1.694.156,2.026.289,4.04.4,6.071.072,1.14.139,2.285.2,3.425v.066c.06,1.121.115,2.237.169,3.364.042.91.084,1.809.12,2.731a3.31,3.31,0,0,0,.031.549,10.556,10.556,0,0,0,.042,1.152v.416c.042,1.013.084,2.038.115,3.063,0,.519.036,1.025.049,1.538s.036,1.019.042,1.531c.042,1.206.067,2.412.1,3.666,0,.91,0,1.809.042,2.731v5.095A9.164,9.164,0,0,1,2690.987,840.511Z" transform="translate(-1587.619 -260.07)" fill="url(#radial-gradient)"/>
    </clipPath>
    <clipPath id="clip-_404">
      <rect width="1188" height="1122"/>
    </clipPath>
  </defs>
  <g id="_404" data-name="404" clip-path="url(#clip-_404)">
    <g id="TDV_M115_07" transform="translate(-1415.827 -264.053)" style="isolation: isolate">
      <g id="_07" data-name="07" transform="translate(1262.34 260.052)">
        <path id="Trazado_19460" data-name="Trazado 19460" d="M2690.987,840.511v8.7c0,.856,0,1.76-.042,2.641v1.7c0,.573-.03,1.152-.042,1.73v1.067c0,.488,0,.977-.042,1.471,0,.8-.048,1.61-.078,2.412v.422l-.163,4.1v.211c-.06,1.429-.133,2.87-.205,4.3h0c-.066,1.206-.139,2.412-.205,3.617,0,.362-.048.718-.066,1.079q-.223,3.835-.531,7.681l-.223,1.2c-.054.76-.12,1.519-.181,2.273-.042.446-.084.9-.12,1.339,0,.3-.054.6-.073.9-.066.76-.139,1.507-.2,2.267v.157c-.121,1.284-.247,2.587-.374,3.877-.03.265-.055.543-.085.82-.145,1.435-.3,2.876-.458,4.3v.259c-.03.271-.061.537-.1.808-.121,1.109-.253,2.231-.386,3.334v.181q-.271,2.3-.566,4.582c-.133,1.043-.277,2.08-.416,3.129a3.719,3.719,0,0,1-.066.452c-.079.6-.157,1.206-.248,1.809-.1.711-.2,1.423-.3,2.128q-.187,1.32-.4,2.641a5.187,5.187,0,0,1-.12.874c-.073.482-.151.965-.223,1.447-.043.277-.085.543-.127.814-.205,1.29-.41,2.574-.6,3.865-.163,1.007-.337,2.008-.512,3.015-.042.229-.078.464-.12.705s-.066.374-.1.555a.535.535,0,0,1-.042.253.617.617,0,0,0-.036.253,3.348,3.348,0,0,1-.06.35c-.133.748-.266,1.507-.4,2.255-.1.543-.2,1.085-.3,1.628-.036.2-.073.416-.115.6a.355.355,0,0,1,0,.06c-.181,1.043-.386,2.086-.6,3.135-.277,1.417-.555,2.846-.844,4.269s-.6,2.846-.875,4.269l-.452,2.134c-.126.6-.265,1.236-.4,1.851a1.609,1.609,0,0,1-.066.283c-.066.3-.133.6-.205.9s-.151.7-.235,1.049c-.156.748-.326,1.5-.5,2.243s-.344,1.489-.519,2.237c-.1.422-.193.832-.29,1.26-.078.326-.163.651-.235.989-.338,1.357-.663,2.725-1,4.082l-.091.374c-.319,1.3-.651,2.581-.983,3.877-.362,1.411-.729,2.828-1.109,4.22-.332,1.254-.675,2.508-1.013,3.75-.139.506-.284,1.013-.428,1.525q-.44,1.592-.9,3.2c-.4,1.411-.808,2.822-1.206,4.22q-.542,1.809-1.1,3.684c-.073.229-.138.464-.211.693l-.886,2.852c-.121.4-.247.8-.38,1.206-.428,1.369-.874,2.743-1.314,4.106s-.941,2.876-1.429,4.3-.946,2.8-1.429,4.22c-.452,1.3-.9,2.593-1.369,3.895l-.163.458c-.145.392-.278.784-.422,1.206q-1.067,3.015-2.195,5.975-.5,1.339-1.013,2.677l-.175.446c-.175.482-.362.959-.549,1.435s-.4,1.037-.6,1.549c-.042.1-.078.2-.115.3l-1.151,2.912-.084.2c-.253.651-.512,1.29-.772,1.929-.205.506-.41,1.007-.6,1.507q-.542,1.332-1.091,2.647c-.145.356-.29.705-.446,1.067q-.428,1.031-.868,2.062l-.495,1.206-.814,1.893c-.6,1.387-1.206,2.761-1.809,4.136a.114.114,0,0,0,0,.06h0l-.284.633c-.2.446-.4.9-.6,1.351-.3.687-.6,1.375-.929,2.062q-.747,1.676-1.525,3.352c-.187.4-.362.8-.549,1.206-.38.8-.748,1.6-1.128,2.412l-.6,1.284c-.326.687-.657,1.369-.983,2.05s-.657,1.369-.989,2.044l-.6,1.158c-.139.3-.277.6-.428.892l-.513,1.025-.5,1.013c-.4.8-.79,1.592-1.206,2.412-.259.506-.512,1.019-.772,1.519l-.091.175c-.1.211-.211.422-.319.6s-.241.488-.362.724l-.826,1.592c-.193.38-.392.754-.6,1.14l-.392.748c-.223.422-.452.856-.669,1.278l-.307.573-.772,1.459c-1.447,2.7-2.912,5.426-4.414,8.085h0c-.108.2-.223.41-.337.6s-.265.458-.392.688l-.374.669c-.416.742-.826,1.471-1.248,2.195-.35.6-.693,1.206-1.049,1.809-.488.868-.989,1.724-1.5,2.587a.294.294,0,0,1-.061.09c-.464.8-.934,1.616-1.411,2.412-.536.911-1.085,1.809-1.622,2.731a1.416,1.416,0,0,0-.12.2.632.632,0,0,0-.067.1c-.548.917-1.115,1.809-1.67,2.749l-.88,1.447q-1.158,1.887-2.333,3.768l-.892,1.4q-3.184,5.053-6.518,10.057c-.458.7-.923,1.387-1.38,2.074-.929,1.381-1.857,2.749-2.8,4.13-52.78,76.975-112.982,135.055-177.139,177.067a553.88,553.88,0,0,1-69.336,38.641q-13.349,6.234-26.842,11.655l-.157.06a544.42,544.42,0,0,1-74.22,23.815,560.389,560.389,0,0,1-91.982,14.434q-12.058.886-24.039,1.26a611.8,611.8,0,0,1-160.715-16.58,638.531,638.531,0,0,1-154.4-58.628q-22.447-12.059-43.411-25.7-17.328-11.287-33.486-23.514a527.328,527.328,0,0,1-45.925-39.009l-.464-.471-.09-.09v-.03l-.181-.181a.679.679,0,0,0-.09-.1l-.145-.151c-.156-.157-.326-.338-.512-.536l-.241-.253h-.036l-.036-.036-.181-.187c-.169-.175-.332-.356-.513-.555l-.042-.036-.036-.036-.108-.121c-.386-.4-.79-.85-1.242-1.332-.145-.151-.284-.314-.434-.47l-1.477-1.61c-.277-.314-.6-.6-.886-.977l-.175-.193-1.35-1.513c-.133-.157-.277-.314-.422-.476l-.108-.115-.663-.76c-1.471-1.67-3.087-3.539-4.823-5.589-.133-.151-.271-.313-.4-.476q-1.206-1.435-2.514-3.015l-.784-.935c-.247-.308-.512-.6-.772-.935l-.211-.259-.223-.277-.054-.06-.169-.2c-.181-.235-.38-.464-.567-.705s-.452-.555-.687-.832c-.368-.464-.748-.934-1.14-1.417-.121-.157-.253-.314-.386-.476l-1.013-1.272c-.169-.211-.338-.422-.5-.639q-1.905-2.412-3.883-4.95c-.277-.35-.543-.693-.808-1.049a.925.925,0,0,1-.091-.121v-.036l-1.067-1.393c-.6-.82-1.266-1.658-1.905-2.508h0l-.259-.338-.344-.47c-.066-.078-.139-.169-.2-.259-.338-.452-.675-.9-1.013-1.369-.1-.133-.193-.253-.29-.38s-.193-.259-.283-.392q-1.266-1.7-2.55-3.461c-.947-1.308-1.9-2.635-2.87-3.991l-.971-1.363-.223-.332q-1.694-2.412-3.4-4.872-2.593-3.774-5.239-7.766c-.169-.265-.35-.531-.519-.8l-.06-.09q-.555-.832-1.1-1.682l-.09-.145c-.362-.543-.711-1.1-1.073-1.652s-.742-1.158-1.121-1.736l-.048-.078-1.079-1.688c-1.483-2.339-2.966-4.739-4.456-7.175-.489-.814-.995-1.634-1.483-2.46-.392-.645-.778-1.3-1.17-1.959-1.175-1.954-2.333-3.949-3.5-5.975-1.55-2.7-3.1-5.426-4.625-8.236q-1.152-2.1-2.291-4.22c-.374-.706-.76-1.417-1.133-2.135s-.729-1.369-1.079-2.062-.723-1.381-1.073-2.08c-.193-.362-.392-.742-.6-1.121-.307-.6-.6-1.206-.923-1.809-.6-1.206-1.206-2.412-1.809-3.672a1.724,1.724,0,0,1-.1-.217c-.307-.6-.6-1.242-.917-1.875s-.531-1.079-.8-1.628c-.344-.729-.7-1.471-1.049-2.207-.416-.874-.832-1.755-1.206-2.641-.181-.374-.356-.766-.537-1.146-.283-.6-.6-1.254-.862-1.881s-.549-1.206-.832-1.809-.464-1.055-.7-1.586c-.187-.416-.374-.838-.555-1.254-.054-.109-.1-.223-.151-.338-.4-.91-.79-1.809-1.206-2.725-.464-1.085-.935-2.177-1.393-3.262-.109-.265-.217-.531-.332-.8,0-.066-.054-.12-.078-.187h0l-.9-2.2-.356-.862-.036-.09c-.073-.175-.133-.344-.2-.513s-.1-.259-.157-.392-.168-.422-.253-.6c-.344-.844-.675-1.706-1.013-2.556-.223-.6-.446-1.146-.675-1.724l-.9-2.357c-.193-.519-.392-1.031-.6-1.549-.332-.886-.663-1.773-.983-2.659-.265-.711-.525-1.429-.784-2.146l-.362-1.019-.277-.778q-.38-1.067-.741-2.116c-.145-.4-.277-.8-.416-1.206s-.283-.844-.428-1.26-.332-.977-.495-1.471-.326-.977-.482-1.465c-.289-.868-.6-1.736-.85-2.617l-.362-1.127c-.223-.7-.44-1.4-.657-2.1-.452-1.435-.886-2.882-1.321-4.335l-.181-.6c-.145-.506-.29-1.019-.44-1.525-.248-.868-.5-1.742-.742-2.617q-.434-1.514-.832-3.015c-.265-.971-.531-1.947-.784-2.924s-.452-1.773-.681-2.659c-.157-.6-.3-1.242-.452-1.857-.1-.374-.187-.735-.277-1.115l-.109-.44c-.042-.175-.078-.344-.121-.519a.133.133,0,0,1,0-.066c-.144-.6-.277-1.152-.41-1.742s-.259-1.091-.38-1.64c-.163-.7-.319-1.4-.464-2.11-.048-.181-.084-.356-.12-.537-.091-.386-.169-.76-.253-1.146q-.2-.9-.38-1.809-.326-1.568-.6-3.147v-.084q-.06-.271-.109-.543l-.108-.549c-.151-.76-.284-1.513-.428-2.261q-.271-1.447-.525-2.894c-.06-.35-.12-.7-.175-1.049a2.51,2.51,0,0,0-.054-.307.534.534,0,0,0-.042-.229c-.09-.537-.181-1.061-.265-1.6s-.181-1.061-.265-1.6-.169-1.061-.247-1.6c-.127-.856-.259-1.712-.38-2.574l-.181-1.266q-.084-.561-.163-1.14c-.066-.5-.132-1.007-.2-1.519-.132-1.061-.265-2.122-.392-3.183-.1-.814-.193-1.628-.283-2.412s-.181-1.628-.259-2.412c-.1-.995-.2-1.984-.29-2.978l-.036-.386c-.048-.512-.091-1.037-.133-1.549s-.1-1.1-.139-1.64c-.133-1.64-.253-3.3-.344-4.95-.036-.549-.072-1.1-.1-1.646s-.048-.91-.073-1.369c0-.3-.03-.6-.042-.917v-.332c0-.5-.042-1-.066-1.507s-.042-1.079-.06-1.616v-3.919c0-.657,0-1.32-.03-1.984v-6.059c0-.766,0-1.526.03-2.3v-1.14c0-.784.042-1.574.066-2.363V958.9c0-.693.054-1.381.084-2.074v-1.007c0-.416.036-.82.06-1.206a5.783,5.783,0,0,1,.054-.965c.054-.326.042-.766.066-1.152v-.814c0-.386.048-.772.072-1.146V950.2c0-.428.06-.85.09-1.278a2.016,2.016,0,0,1,.042-.5,6.4,6.4,0,0,0,.054-.657c.024-.217.048-.6.073-.91l.126-1.507c.042-.5.09-1.013.145-1.507,0-.326.06-.657.09-.983.06-.6.115-1.146.181-1.718a.312.312,0,0,1,0-.078,5.387,5.387,0,0,1,.06-.6c.066-.6.127-1.206.2-1.809a4.411,4.411,0,0,1,.066-.561.274.274,0,0,0,0-.066.376.376,0,0,1,0-.042s0-.042,0-.06a.9.9,0,0,0,0-.121.122.122,0,0,0,0-.042v-.217a.856.856,0,0,1,.03-.265c.036-.265.066-.537.1-.79.042-.368.085-.729.133-1.073s.061-.5.1-.736a1.156,1.156,0,0,1,.048-.4c.054-.41.108-.832.163-1.254.121-.91.253-1.809.392-2.725.036-.259.072-.531.121-.8.072-.512.157-1.037.241-1.549a2.04,2.04,0,0,1,.042-.277c.012-.09.042-.247.06-.368.127-.832.265-1.646.41-2.466a2.949,2.949,0,0,1,.054-.32c.12-.742.253-1.477.392-2.213a.424.424,0,0,1,.036-.2c.054-.3.1-.6.163-.929l.09-.5.054-.247c.151-.808.308-1.61.47-2.412l.163-.8c.054-.3.115-.6.181-.922s.1-.476.151-.712l.145-.705a.172.172,0,0,1,.03-.114q.4-1.893.826-3.78c.151-.633.3-1.26.446-1.9.042-.157.078-.313.115-.47.1-.476.223-.947.338-1.423a1.272,1.272,0,0,1,.084-.332c.03-.109.042-.187.072-.277.072-.326.157-.639.241-.959.054-.223.109-.44.163-.645.121-.494.241-.977.368-1.471l.543-2.026c.163-.6.332-1.206.506-1.857.048-.175.1-.356.151-.537.1-.374.211-.73.314-1.1a1.269,1.269,0,0,1,.078-.307c.187-.639.368-1.266.561-1.9.284-.953.567-1.911.862-2.864s.6-1.911.892-2.864c.271-.85.543-1.7.826-2.556.1-.277.187-.555.283-.838q.482-1.453.989-2.894c.211-.639.44-1.272.669-1.905l.115-.332.109-.283.271-.76c.464-1.284.935-2.562,1.429-3.841.073-.2.151-.392.229-.6s.157-.428.241-.645c.338-.862.681-1.73,1.019-2.6h0c.512-1.272,1.031-2.556,1.561-3.841s1.073-2.562,1.64-3.841q2.93-6.759,6.307-13.5a.353.353,0,0,0,.036-.085V851.5a.085.085,0,0,1,.036-.066,1.35,1.35,0,0,1,.1-.187,1.465,1.465,0,0,1,.067-.145l.054-.1c.12-.247.241-.494.368-.736.428-.844.85-1.676,1.29-2.508q1.013-1.953,2.062-3.907c.338-.6.675-1.206,1.013-1.857,0,0,.036-.054.054-.091.356-.651.717-1.3,1.079-1.953s.735-1.3,1.1-1.947.741-1.308,1.121-1.953q1.019-1.773,2.08-3.533,3.014-5.071,6.343-10.141c.422-.657.85-1.3,1.29-1.959q2.87-4.323,5.957-8.664l.416-.6c.277-.392.561-.778.844-1.17q3.672-5.095,7.651-10.177c.35-.458.711-.916,1.073-1.375.784-.995,1.573-1.978,2.412-2.979.368-.47.748-.928,1.127-1.393s.826-1.013,1.242-1.513c.7-.856,1.417-1.706,2.134-2.568q1.971-2.339,4-4.679,2.659-3.069,5.227-6.144,3.816-4.564,7.422-9.158a388.827,388.827,0,0,0,39.745-61.745c.742-1.435,1.477-2.864,2.195-4.3s1.435-2.87,2.14-4.3,1.387-2.876,2.068-4.311c.344-.711.688-1.435,1.013-2.152.422-.9.832-1.809,1.248-2.689l1.206-2.7c.4-.9.8-1.809,1.206-2.7s.79-1.809,1.206-2.689c.307-.711.6-1.435.929-2.152s.687-1.616,1.025-2.412.675-1.61,1.013-2.412.663-1.61.989-2.412l.977-2.412h0c.169-.4.319-.8.482-1.206.4-.983.778-1.966,1.158-2.948l.265-.681c.6-1.61,1.206-3.214,1.845-4.823.265-.724.536-1.435.8-2.159q2.08-5.637,4.009-11.257c.434-1.254.862-2.5,1.272-3.75.482-1.429.953-2.852,1.423-4.275a.174.174,0,0,1,.042-.133l.036-.139c.434-1.332.868-2.665,1.29-3.991,4.076-12.812,7.651-25.558,10.907-38.2q.826-3.141,1.616-6.288h0q.8-3.147,1.568-6.276c.344-1.4.682-2.792,1.019-4.221.675-2.773,1.339-5.553,2-8.314s1.3-5.535,1.947-8.284,1.272-5.5,1.911-8.254q1.206-5.137,2.357-10.25c1.176-5.089,2.339-10.159,3.527-15.188h0q1.116-4.733,2.237-9.412c.036-.151.078-.307.108-.458.41-1.718.832-3.431,1.248-5.143h0c7.169-29.182,15.206-57.115,27.1-83.2,1.573-3.473,3.238-6.915,4.962-10.328a239.811,239.811,0,0,1,16.092-27.282q4.268-6.24,9.044-12.276a220.37,220.37,0,0,1,20.753-22.965c17.485-16.689,39.027-31.889,65.99-45.316q12.059-5.987,25.612-11.528l2.985-1.206q16.767-6.668,35.934-12.583c29.573-9.1,63.645-16.8,103.027-22.911a445.211,445.211,0,0,1,167.058,5.764c98.276,22.109,188.112,76.047,260.577,149.429.778.784,1.555,1.58,2.328,2.369s1.543,1.58,2.309,2.376l1.315,1.363c.554.6,1.115,1.152,1.664,1.742l2.146,2.261q.892.941,1.772,1.887,1.112,1.185,2.219,2.412c.736.82,1.507,1.628,2.255,2.442s1.628,1.779,2.412,2.671q1.031,1.121,2.032,2.255c.741.82,1.483,1.652,2.219,2.478,1.465,1.652,2.936,3.328,4.383,5s2.9,3.352,4.335,5.04c.723.838,1.435,1.7,2.152,2.544.6.748,1.26,1.5,1.881,2.243q2.414,2.912,4.823,5.854c.6.724,1.206,1.453,1.773,2.195q5.221,6.475,10.286,13.114c.675.88,1.344,1.767,2.02,2.659s1.332,1.809,2,2.671l1.809,2.412c.1.139.193.265.289.4q.94,1.266,1.869,2.55c.657.892,1.314,1.809,1.959,2.7l1.905,2.641a2.407,2.407,0,0,0,.139.205c.8,1.127,1.6,2.243,2.412,3.37s1.585,2.267,2.369,3.394,1.574,2.261,2.351,3.4,1.562,2.279,2.328,3.425c1.127,1.664,2.249,3.352,3.358,5.028.736,1.109,1.465,2.213,2.189,3.322q.892,1.363,1.778,2.737c.724,1.133,1.453,2.261,2.17,3.388.488.778.983,1.544,1.465,2.315q.892,1.423,1.778,2.84c1.206,1.893,2.357,3.786,3.515,5.7q2.6,4.287,5.149,8.616c1.139,1.923,2.249,3.859,3.364,5.788q.8,1.393,1.592,2.8c.048.078.09.157.132.235l1.568,2.767a.243.243,0,0,0,0,.042l1.61,2.912c.537.977,1.079,1.947,1.61,2.93q4.221,7.687,8.188,15.5.8,1.556,1.586,3.123l.247.494c.476.941.947,1.887,1.417,2.828.048.1.09.2.138.289.422.85.844,1.694,1.254,2.55.675,1.363,1.333,2.731,1.99,4.094.344.7.675,1.411,1.013,2.116.3.6.6,1.206.868,1.809.476,1,.947,2.008,1.423,3.015q2.973,6.409,5.824,12.878.687,1.568,1.363,3.123,1.206,2.731,2.321,5.426c.422.989.838,1.99,1.248,3.015a1.163,1.163,0,0,1,.078.181c.386.929.772,1.863,1.152,2.792.078.175.139.35.211.531.355.85.7,1.7,1.042,2.55q1.929,4.781,3.762,9.586c.44,1.146.881,2.291,1.308,3.437q1.14,3.015,2.237,6.029c.313.862.6,1.724.947,2.593.072.217.15.434.229.645.338.941.669,1.875,1,2.816.247.7.488,1.387.729,2.086s.543,1.537.8,2.315.6,1.664.862,2.49.6,1.809.911,2.713c.35,1.055.705,2.116,1.049,3.171q2.84,8.634,5.426,17.376c.247.832.494,1.67.735,2.508s.477,1.646.711,2.478.47,1.676.705,2.514c.459,1.586.893,3.171,1.321,4.769.223.79.428,1.58.639,2.37.271,1.019.549,2.026.808,3.015q1.724,6.632,3.3,13.264c.241,1.043.489,2.086.73,3.141.211.892.41,1.809.6,2.7.054.271.121.543.181.82.223.995.452,2,.663,3.015l.6,2.846c.265,1.26.536,2.514.79,3.78.217,1.061.428,2.116.645,3.171q.416,2.044.808,4.094c.157.814.313,1.628.464,2.454.211,1.061.4,2.134.6,3.207.121.6.235,1.266.344,1.9.09.482.181.971.253,1.453q.2,1.067.38,2.134c.259,1.477.512,2.954.748,4.438q.272,1.616.531,3.25c.108.663.2,1.32.3,1.99.127.778.247,1.556.362,2.327s.235,1.543.344,2.315c.126.868.248,1.73.368,2.593.108.705.205,1.423.3,2.134q1.061,7.651,1.893,15.326c.138,1.206.259,2.412.38,3.618s.253,2.412.368,3.618.229,2.412.338,3.618.211,2.412.313,3.66c0,.32.054.645.078.959s.042.549.061.826l.073.9c.03.32.054.645.078.971.042.567.084,1.127.121,1.694.156,2.026.289,4.04.4,6.071.072,1.14.139,2.285.2,3.425v.066c.06,1.121.115,2.237.169,3.364.042.91.084,1.809.12,2.731a3.31,3.31,0,0,0,.031.549,10.556,10.556,0,0,0,.042,1.152v.416c.042,1.013.084,2.038.115,3.063,0,.519.036,1.025.049,1.538s.036,1.019.042,1.531c.042,1.206.067,2.412.1,3.666,0,.91,0,1.809.042,2.731v5.095A9.164,9.164,0,0,1,2690.987,840.511Z" transform="translate(-1391.501 -260.059)" fill="url(#linear-gradient)"/>
        <path id="Trazado_19465" data-name="Trazado 19465" d="M1931.127,1085.13v558.036q-22.447-12.058-43.411-25.7-17.328-11.286-33.486-23.514V1085.13Z" transform="translate(-1497.366 -587.671)"/>
        <path id="Trazado_19467" data-name="Trazado 19467" d="M2444.1,729.1a170.338,170.338,0,0,1-19.637,23.46c-8.664,8.664-24.78,16.056-46.136,22.368h0c-17.051,5.034-37.442,9.388-60.039,13.144-5,0-16.279.5-31.955,1.357l-3.877.211c-11.956.663-26.2,1.507-42.054,2.484l-8.308.513-2.653.163c-10.25.6-21.1,1.314-32.311,2.026l-25.926,1.64-39.715,2.575h0L2101.77,800.9c-15.779,1.007-31.46,2.008-46.684,2.966q-7.639.482-15.109.935c-11.232.706-22.133,1.381-32.558,2.008h0c-.886.048-1.779.1-2.653.163l-8.266.488c-16.737.995-31.955,1.869-44.942,2.55-19.2,1.013-33.51,1.61-40.577,1.61-4.878,0-7.784-.042-7.784-.042H1673.23l.41-.6c.283-.392.561-.784.844-1.17q3.672-5.095,7.645-10.177l1.079-1.375c.784-.989,1.573-1.984,2.412-2.978.374-.47.748-.934,1.127-1.393s.826-1.013,1.242-1.513c.706-.856,1.417-1.706,2.135-2.569q1.972-2.339,4-4.679,2.659-3.069,5.228-6.138,3.816-4.576,7.422-9.165a388.836,388.836,0,0,0,39.745-61.745c.742-1.435,1.477-2.864,2.195-4.3s1.435-2.87,2.134-4.3,1.4-2.87,2.074-4.3c.344-.718.681-1.441,1.013-2.159q1.26-2.695,2.472-5.384t2.381-5.378c.308-.718.6-1.441.929-2.159s.687-1.616,1.025-2.412c.681-1.61,1.351-3.226,2-4.823q1.484-3.618,2.882-7.235.941-2.412,1.845-4.823.406-1.067.8-2.152c.458-1.248.922-2.5,1.369-3.756q1.351-3.756,2.641-7.5c.434-1.248.856-2.5,1.272-3.75.482-1.423.953-2.852,1.417-4.275l.09-.271,1.29-3.991c4.07-12.812,7.639-25.558,10.907-38.189.549-2.1,1.079-4.221,1.61-6.295h0q.8-3.147,1.568-6.282c.338-1.4.681-2.792,1.019-4.221q1.013-4.16,2-8.314l1.941-8.284q.971-4.136,1.917-8.254,1.206-5.137,2.357-10.25,1.755-7.651,3.527-15.194h0q1.772-7.555,3.617-15.007h0c7.163-29.182,15.2-57.115,27.089-83.2q2.37-5.209,4.962-10.322a238.985,238.985,0,0,1,16.1-27.288q4.262-6.24,9.044-12.275a220.392,220.392,0,0,1,20.764-22.815c17.485-16.689,39.033-31.889,65.99-45.31q12.059-6.029,25.612-11.534l2.984-1.206q16.767-6.674,35.934-12.589c29.573-9.1,63.645-16.8,103.021-22.911a445.076,445.076,0,0,1,167.058,5.758l41.541,45.448,2.629,5.384,7.235,14.784,4.257,8.718,17.786,36.4,12.626,25.841,5.607,11.456,21.349,43.73,9.044,18.5,17.226,35.277,17.78,36.392h0l29.833,57S2484.108,671.4,2444.1,729.1Z" transform="translate(-1425.495 -260.052)" fill="#ecebf3"/>
        <path id="Trazado_19468" data-name="Trazado 19468" d="M2444.136,729.1a170.3,170.3,0,0,1-19.637,23.46c-8.664,8.664-24.78,16.056-46.136,22.368h0c-17.051,5.034-37.442,9.388-60.039,13.144q1.755-8.338,2.822-16.918c.356-2.888.664-5.794.893-8.712a.9.9,0,0,0,0-.121q.331-4.064.494-8.151h0q.169-4.1.169-8.224a203.823,203.823,0,0,0-53.148-137.551.048.048,0,0,0-.03,0,205.31,205.31,0,0,0-51.043-40.727,202.611,202.611,0,0,0-34.264-15.356l-.163-.054a204.54,204.54,0,0,0-270.526,193.725c0,5.794-.44,14.675-.959,24.858v.6c-.639,12.553-1.375,27.041-1.507,40.179v.078c-4.877,0-7.783-.042-7.783-.042H1673.31l.41-.6c.283-.392.561-.784.844-1.17q3.672-5.095,7.645-10.177l1.079-1.375c.784-.989,1.574-1.984,2.412-2.978.374-.47.748-.935,1.127-1.393s.826-1.013,1.242-1.513c.705-.856,1.417-1.706,2.134-2.568q1.972-2.339,4-4.679,2.659-3.069,5.228-6.138,3.816-4.576,7.422-9.164A388.828,388.828,0,0,0,1746.6,708.15c.741-1.435,1.477-2.864,2.195-4.3s1.435-2.87,2.134-4.3,1.4-2.87,2.074-4.3c.344-.717.681-1.441,1.013-2.159q1.26-2.7,2.472-5.384t2.382-5.378c.307-.717.6-1.441.929-2.159s.687-1.616,1.025-2.412c.681-1.61,1.351-3.226,2-4.823q1.483-3.618,2.882-7.235.94-2.412,1.845-4.823c.271-.711.537-1.429.8-2.152.458-1.248.923-2.5,1.369-3.756q1.35-3.756,2.641-7.5c.434-1.248.856-2.5,1.272-3.75.482-1.423.953-2.852,1.417-4.275l.091-.271,1.29-3.991c4.07-12.812,7.639-25.558,10.907-38.189.549-2.1,1.079-4.22,1.61-6.294h0q.8-3.147,1.568-6.282c.338-1.4.681-2.792,1.019-4.221q1.013-4.16,2-8.314l1.941-8.284q.971-4.136,1.917-8.254,1.206-5.137,2.357-10.25,1.755-7.651,3.527-15.194h0q1.772-7.555,3.617-15.007h0c7.163-29.181,15.2-57.115,27.089-83.2q2.37-5.209,4.962-10.322a239.054,239.054,0,0,1,16.1-27.288q4.263-6.24,9.044-12.275a220.4,220.4,0,0,1,20.716-22.887c17.485-16.689,39.033-31.889,65.99-45.31q12.059-6.029,25.612-11.534l2.984-1.206q16.767-6.674,35.934-12.589c29.573-9.1,63.644-16.8,103.021-22.911a445.078,445.078,0,0,1,167.058,5.758l41.542,45.448,2.629,5.384,7.235,14.784,4.257,8.718,17.786,36.4,12.625,25.841,5.607,11.456,21.349,43.73,9.044,18.5,17.226,35.277,17.78,36.392h0l29.833,57S2484.14,671.4,2444.136,729.1Z" transform="translate(-1425.526 -260.052)" fill="#bfd2e1"/>
        <path id="Trazado_19469" data-name="Trazado 19469" d="M2444.136,729.1a170.3,170.3,0,0,1-19.637,23.46c-8.664,8.664-24.78,16.056-46.136,22.368h0c-17.051,5.034-37.442,9.388-60.039,13.144q1.755-8.338,2.822-16.918c.356-2.888.664-5.794.893-8.712a.9.9,0,0,0,0-.121q.331-4.064.494-8.151h0q.169-4.1.169-8.224a203.823,203.823,0,0,0-53.148-137.551.048.048,0,0,0-.03,0,205.31,205.31,0,0,0-51.043-40.727,202.611,202.611,0,0,0-34.264-15.356l-.163-.054a204.54,204.54,0,0,0-270.526,193.725c0,5.794-.44,14.675-.959,24.858v.6c-.639,12.553-1.375,27.041-1.507,40.179v.078c-4.877,0-7.783-.042-7.783-.042H1673.31l.41-.6c.283-.392.561-.784.844-1.17q3.672-5.095,7.645-10.177l1.079-1.375c.784-.989,1.574-1.984,2.412-2.978.374-.47.748-.935,1.127-1.393s.826-1.013,1.242-1.513c.705-.856,1.417-1.706,2.134-2.568q1.972-2.339,4-4.679,2.659-3.069,5.228-6.138,3.816-4.576,7.422-9.164A388.828,388.828,0,0,0,1746.6,708.15c.741-1.435,1.477-2.864,2.195-4.3s1.435-2.87,2.134-4.3,1.4-2.87,2.074-4.3c.344-.717.681-1.441,1.013-2.159q1.26-2.7,2.472-5.384t2.382-5.378c.307-.717.6-1.441.929-2.159s.687-1.616,1.025-2.412c.681-1.61,1.351-3.226,2-4.823q1.483-3.618,2.882-7.235.94-2.412,1.845-4.823c.271-.711.537-1.429.8-2.152.458-1.248.923-2.5,1.369-3.756q1.35-3.756,2.641-7.5c.434-1.248.856-2.5,1.272-3.75.482-1.423.953-2.852,1.417-4.275l.091-.271,1.29-3.991c4.07-12.812,7.639-25.558,10.907-38.189.549-2.1,1.079-4.22,1.61-6.294h0q.8-3.147,1.568-6.282c.338-1.4.681-2.792,1.019-4.221q1.013-4.16,2-8.314l1.941-8.284q.971-4.136,1.917-8.254,1.206-5.137,2.357-10.25,1.755-7.651,3.527-15.194h0q1.772-7.555,3.617-15.007h0c7.163-29.181,15.2-57.115,27.089-83.2q2.37-5.209,4.962-10.322a239.054,239.054,0,0,1,16.1-27.288q4.263-6.24,9.044-12.275a220.4,220.4,0,0,1,20.716-22.887c17.485-16.689,39.033-31.889,65.99-45.31q12.059-6.029,25.612-11.534l2.984-1.206q16.767-6.674,35.934-12.589c29.573-9.1,63.644-16.8,103.021-22.911a445.078,445.078,0,0,1,167.058,5.758l41.542,45.448,2.629,5.384,7.235,14.784,4.257,8.718,17.786,36.4,12.625,25.841,5.607,11.456,21.349,43.73,9.044,18.5,17.226,35.277,17.78,36.392h0l29.833,57S2484.14,671.4,2444.136,729.1Z" transform="translate(-1425.526 -260.052)" fill="#070208"/>
        <path id="Trazado_19470" data-name="Trazado 19470" d="M2007.711,953.609c0-.193-46.926-335.889,240.856-335.889,262.326,0,261.9,294.353,261.452,299.213l-60.063,13.156c.229-5.5,4.22-22.477,4.22-33.836,0-112.988-79.291-212.09-204.319-212.09-112.988,0-204.584,91.59-204.584,204.578,0,13.783-2.6,40.076-2.6,64.9Z" transform="translate(-1557.182 -402.074)" fill="#fff" opacity="0.3"/>
        <path id="Trazado_19471" data-name="Trazado 19471" d="M2320.376,365.9,2141.363,382.03l-2.846.259-9.87.892-104.547,9.43c17.485-16.689,39.033-31.889,65.99-45.31l20.3-1.4,10.075-.693h.054l3.678-.253.753.078Z" transform="translate(-1564.817 -293.763)" fill="#fff" opacity="0.3"/>
        <path id="Trazado_19472" data-name="Trazado 19472" d="M2080.209,513.8h-.079c-1.893.157-37.508,3.376-77.222,27.795l-.2.127h0c-26.4,16.279-54.595,41.945-75.872,82.317h0q-2.894,5.493-5.6,11.347c-.06.121-.12.247-.175.374s-.126.265-.187.392q-.669,1.471-1.332,2.966v.048c-.519,1.164-1.037,2.327-1.531,3.491-.392.916-.772,1.809-1.152,2.743q-3.5,8.411-6.421,16.84c-.127.356-.248.706-.368,1.067-2.719,7.868-5.077,15.712-7.133,23.442-2.743,10.328-4.938,20.457-6.692,30.212a.206.206,0,0,0,0,.03c-1.248,6.964-2.267,13.741-3.105,20.246-5.426,42.452-2.846,73.828-2.719,75.365H1716.52q3.816-4.576,7.422-9.164a388.848,388.848,0,0,0,39.745-61.745c.742-1.435,1.477-2.864,2.195-4.3s1.435-2.87,2.134-4.3,1.4-2.87,2.074-4.3c.344-.718.681-1.441,1.013-2.159q1.26-2.7,2.472-5.384t2.381-5.378c.308-.718.6-1.441.929-2.159s.687-1.616,1.025-2.412c.681-1.61,1.35-3.226,2-4.823q1.483-3.617,2.882-7.235.941-2.412,1.845-4.823c.271-.711.536-1.429.8-2.152.458-1.248.922-2.5,1.369-3.756q1.351-3.756,2.641-7.5c.434-1.248.856-2.5,1.272-3.75.482-1.423.953-2.852,1.417-4.275l.09-.271,1.29-3.991c4.07-12.812,7.639-25.558,10.907-38.189.548-2.1,1.079-4.221,1.61-6.294h0q.8-3.147,1.568-6.283c.338-1.4.681-2.792,1.019-4.22q1.013-4.16,2-8.314l1.941-8.284q.971-4.136,1.917-8.254,1.206-5.137,2.357-10.25,1.755-7.651,3.527-15.194h0q1.772-7.554,3.618-15.007h0c7.163-29.182,15.2-57.115,27.089-83.2q2.369-5.209,4.962-10.322a239,239,0,0,1,16.1-27.288q4.263-6.24,9.044-12.276a220.33,220.33,0,0,1,20.789-22.718c17.485-16.689,39.033-31.889,65.99-45.31l20.3-1.4,10.075-.693h.054l3.678-.253.109.223,17.057,36.869L2076.544,505.9l3.491,7.549.169.368Z" transform="translate(-1442.684 -293.763)" fill="url(#linear-gradient-2)" style="mix-blend-mode: multiply;isolation: isolate"/>
        <path id="Trazado_19473" data-name="Trazado 19473" d="M2080.209,513.8h-.079c-1.893.157-37.508,3.376-77.222,27.795l-.2.127h0c-26.4,16.279-54.595,41.945-75.872,82.317h0q-2.894,5.493-5.6,11.347c-.06.121-.12.247-.175.374s-.126.265-.187.392q-.669,1.471-1.332,2.966v.048c-.519,1.164-1.037,2.327-1.531,3.491-.392.916-.772,1.809-1.152,2.743q-3.5,8.411-6.421,16.84c-.127.356-.248.706-.368,1.067-2.719,7.868-5.077,15.712-7.133,23.442-2.743,10.328-4.938,20.457-6.692,30.212a.206.206,0,0,0,0,.03c-1.248,6.964-2.267,13.741-3.105,20.246-5.426,42.452-2.846,73.828-2.719,75.365H1716.52q3.816-4.576,7.422-9.164a388.848,388.848,0,0,0,39.745-61.745c.742-1.435,1.477-2.864,2.195-4.3s1.435-2.87,2.134-4.3,1.4-2.87,2.074-4.3c.344-.718.681-1.441,1.013-2.159q1.26-2.7,2.472-5.384t2.381-5.378c.308-.718.6-1.441.929-2.159s.687-1.616,1.025-2.412c.681-1.61,1.35-3.226,2-4.823q1.483-3.617,2.882-7.235.941-2.412,1.845-4.823c.271-.711.536-1.429.8-2.152.458-1.248.922-2.5,1.369-3.756q1.351-3.756,2.641-7.5c.434-1.248.856-2.5,1.272-3.75.482-1.423.953-2.852,1.417-4.275l.09-.271,1.29-3.991c4.07-12.812,7.639-25.558,10.907-38.189.548-2.1,1.079-4.221,1.61-6.294h0q.8-3.147,1.568-6.283c.338-1.4.681-2.792,1.019-4.22q1.013-4.16,2-8.314l1.941-8.284q.971-4.136,1.917-8.254,1.206-5.137,2.357-10.25,1.755-7.651,3.527-15.194h0q1.772-7.554,3.618-15.007h0c7.163-29.182,15.2-57.115,27.089-83.2q2.369-5.209,4.962-10.322a239,239,0,0,1,16.1-27.288q4.263-6.24,9.044-12.276a220.33,220.33,0,0,1,20.789-22.718c17.485-16.689,39.033-31.889,65.99-45.31l20.3-1.4,10.075-.693h.054l3.678-.253.109.223,17.057,36.869L2076.544,505.9l3.491,7.549.169.368Z" transform="translate(-1442.684 -293.763)" fill="url(#linear-gradient-3)" style="mix-blend-mode: multiply;isolation: isolate"/>
        <path id="Trazado_19474" data-name="Trazado 19474" d="M1262.34,1105.6h.036l-.036,9.165Z" transform="translate(-1262.34 -595.799)" fill="#bfd2e1" style="mix-blend-mode: multiply;isolation: isolate"/>
        <path id="Trazado_19475" data-name="Trazado 19475" d="M2080.209,513.411h-.175c-4.709.5-103.414,12-152.431,109.045-.265.524-.531,1.055-.79,1.586h0q-2.876,5.806-5.5,12.059a431.565,431.565,0,0,0-17.877,50.947q-1.965,6.958-3.581,13.626-2.062,8.393-3.617,16.279c0,.01,0,.02,0,.03q-1.206,5.915-2.14,11.534c-8.592,50.441-3.841,83.041-3.678,84.12h-173.9q3.816-4.576,7.422-9.164H1879.55c-.259-16.791-2.363-58.176,16.1-120.814q2.816-9.532,6.276-19.71c3.756-11,8.127-22.555,13.216-34.662,39.992-95.159,127.428-116.925,152.154-121.043l-60.781-124.07-18.256-37.291,9.948-.953.126.259,18.052,37.092,60.16,123.6Z" transform="translate(-1442.684 -293.755)" fill="#fff"/>
        <path id="Trazado_19476" data-name="Trazado 19476" d="M1910.486,871.27l-.151.325-.313.748a191.221,191.221,0,0,0-7.748,23.122,299.584,299.584,0,0,0-8.206,42.1q-.524,4.221-.964,8.712v.211a617.312,617.312,0,0,0-2.689,75.227h-173.9q3.816-4.576,7.422-9.164a388.846,388.846,0,0,0,39.745-61.745c.742-1.435,1.477-2.864,2.195-4.3s1.435-2.87,2.134-4.3,1.4-2.876,2.074-4.3c.344-.718.681-1.441,1.013-2.159q2.52-5.39,4.823-10.762c.308-.718.6-1.441.929-2.159q4.13-9.689,7.754-19.348c.271-.711.537-1.429.8-2.152q2.767-7.518,5.281-15.007c.482-1.423.953-2.852,1.417-4.275l.09-.271h0l81.063-7.193,28.633-2.538,8.441-.748h.1Z" transform="translate(-1442.684 -502.753)" fill="#fff" opacity="0.3"/>
        <path id="Trazado_19477" data-name="Trazado 19477" d="M2615.711,389.66c-13.132,23.514.555,103.92,82.546,161.933,67.425,47.709,146.564,109.925,146.564,109.925l-29.832-57.012Z" transform="translate(-1798.008 -311.516)" fill="#fff" opacity="0.3"/>
        <path id="Trazado_19478" data-name="Trazado 19478" d="M2823.624,439.343c5.547,54.938,2.737,152.54-8.025,155.3s-197.029-172.3-197.029-216.926c0-8.308,69.017-18.142,143-18.142C2798.5,359.57,2819.042,394,2823.624,439.343Z" transform="translate(-1800.867 -299.568)" fill="#d5301d"/>
        <path id="Trazado_19479" data-name="Trazado 19479" d="M2680.756,463.88h119.083l-18.317-62.24h-152.7Z" transform="translate(-1804.937 -316.273)" fill="#ff4d40"/>
        <path id="Trazado_19480" data-name="Trazado 19480" d="M2790.541,586.146H2839.4V523.9H2728.44Z" transform="translate(-1844.494 -364.82)" fill="#ff4d40"/>
        <path id="Trazado_19481" data-name="Trazado 19481" d="M2637.272,376.43c11.594,45.6,145.052,175.016,185.218,204.928-1.736,11.624-4.021,19.245-6.892,19.975-10.768,2.749-197.029-172.3-197.029-216.926C2618.57,381.778,2625.5,379,2637.272,376.43Z" transform="translate(-1800.867 -306.263)" fill="#ad2217" opacity="0.62"/>
        <path id="Trazado_19482" data-name="Trazado 19482" d="M2902.488,432.763c4.154,16.677-.5,31.117-8.646,31.117s-11.353-14.271-14.76-31.117c-3.618-17.889-8.152-31.123,0-31.123S2897.4,412.33,2902.488,432.763Z" transform="translate(-1902.497 -316.273)" fill="#ffb8b8"/>
        <path id="Trazado_19483" data-name="Trazado 19483" d="M2917.035,555.023c0,17.189-5.981,31.123-13.361,31.123s-13.355-13.934-13.355-31.123,5.981-31.123,13.355-31.123S2917.035,537.828,2917.035,555.023Z" transform="translate(-1908.772 -364.82)" fill="#ffb8b8"/>
        <circle id="Elipse_1155" data-name="Elipse 1155" cx="174.8" cy="174.8" r="174.8" transform="translate(443.203 490.257) rotate(-45)"/>
        <circle id="Elipse_1156" data-name="Elipse 1156" cx="132.004" cy="132.004" r="132.004" transform="translate(557.789 357.749)" fill="#2d2d2d"/>
        <circle id="Elipse_1157" data-name="Elipse 1157" cx="121.742" cy="121.742" r="121.742" transform="translate(568.05 368.499)" fill="#f2eff2"/>
        <path id="Trazado_19484" data-name="Trazado 19484" d="M2326.4,867.22h-3.286a124.172,124.172,0,1,0,28.464,245.39h0A124.178,124.178,0,0,0,2326.4,867.22Zm80.074,168.686a93.893,93.893,0,0,1-175.7-46.1,95.394,95.394,0,0,1,.826-12.529,93.841,93.841,0,0,1,93.067-81.364,95.228,95.228,0,0,1,16.882,1.5,93.942,93.942,0,0,1,76.312,80.611,96.568,96.568,0,0,1,.729,11.805A93.373,93.373,0,0,1,2406.475,1035.906Z" transform="translate(-1634.871 -501.144)" fill="#f2eff2"/>
        <circle id="Elipse_1158" data-name="Elipse 1158" cx="42.494" cy="42.494" r="42.494" transform="translate(647.299 447.748)" fill="#2d2d2d"/>
        <path id="Trazado_19485" data-name="Trazado 19485" d="M2221.844,1324.513c-4.112,8.278-8.2,14.886-12.058,18.823-23.177,23.514-52.352,68.619-64.682,71.911s-23.833-39.606-23.833-39.606c.554-.181,54.209-52.382,63.15-64.061,1.085-1.417,2.574-3.72,4.365-6.68A213,213,0,0,0,2221.844,1324.513Z" transform="translate(-1603.401 -674.937)" fill="#f0a975"/>
        <path id="Trazado_19486" data-name="Trazado 19486" d="M2215.36,1263.91v78.9a4.666,4.666,0,0,0,4.667,4.673h81.588v-9.152h-72.484a4.673,4.673,0,0,1-4.673-4.673V1265.17Z" transform="translate(-1640.762 -658.66)"/>
        <path id="Trazado_19487" data-name="Trazado 19487" d="M2126.051,1414.28s12.107,22.682,18.757,27.427,17.316,1.845,17.316,1.845-9.478,11.655-13.867,13.469-20.114,4.576-24.684-8.929-2.562-29.019-2.562-29.019Z" transform="translate(-1603.124 -718.369)" fill="#ee9b5e"/>
        <path id="Trazado_19488" data-name="Trazado 19488" d="M2118.181,1479.945c-6.367,6.572-12.661,11.866-15.561,12.016-7.115.368-30.11-54.571-30.11-54.571s6.825-5.36,14.024-10.515c6.734-4.823,13.794-9.466,15.911-9.376,0,0,1.64-2,4.22,4.558s13.916,31.394,20.644,31.575,8.374-3.829,9.1,1.465C2136.818,1458.228,2127.412,1470.425,2118.181,1479.945Z" transform="translate(-1584.04 -719.534)" fill="#fff"/>
        <g id="Grupo_21479" data-name="Grupo 21479" transform="translate(488.471 707.343)" opacity="0.66">
          <path id="Trazado_19489" data-name="Trazado 19489" d="M2118.181,1486.309c-6.367,6.572-12.661,11.866-15.561,12.016-7.115.368-30.11-54.571-30.11-54.571s6.825-5.36,14.024-10.515c1.591,4.86,4.25,9.261,6.891,13.614,6.758,11.112,13.523,22.218,20.614,33.119C2115.414,1482.083,2116.819,1484.187,2118.181,1486.309Z" transform="translate(-2072.51 -1433.24)" fill="#d2d7db"/>
        </g>
        <path id="Trazado_19490" data-name="Trazado 19490" d="M1971.467,1410.511s1.441-14.9.645-26.9c-1.308-12.294-4.462-28.573-12.01-37.984-13.264-16.617-29.368-64.386-12.372-71.844,0,0,13.071-9.213,28.675-8.809h0a35.279,35.279,0,0,1,10.509,1.851c19.758,6.735,18.618,12.945,33.438,8.875,7.687-2.11,8.061,6.572,3.889,12.016s12.2,19.776,10.1,35.573-16.882,30.484-24.171,34.674a145.713,145.713,0,0,0,8.712,22.308c5.426,11.413,9.279,16.713,16.635,22.35s-36.242,36.26-49.138,25.13S1971.467,1410.511,1971.467,1410.511Z" transform="translate(-1531.58 -659.077)" fill="#f0a975"/>
        <path id="Trazado_19491" data-name="Trazado 19491" d="M1984.308,1396.74s17.1,19.414,2.412,25.269l-4.1-19.028Z" transform="translate(-1548.346 -711.404)" fill="#ee9b5e"/>
        <path id="Trazado_19492" data-name="Trazado 19492" d="M1968.473,1355.48s.76-6.379,18.359-5.74c0,0-18.872-11.281-23.122-6.09S1968.473,1355.48,1968.473,1355.48Z" transform="translate(-1540.385 -689.781)" fill="#ee9b5e"/>
        <path id="Trazado_19493" data-name="Trazado 19493" d="M1976.4,1265s-25.052,23.267-23.773,34.969-5.89-27.132-5.89-27.132S1966.365,1265.211,1976.4,1265Z" transform="translate(-1534.099 -659.093)" fill="#ee9b5e"/>
        <path id="Trazado_19494" data-name="Trazado 19494" d="M1946.192,1306.545c4.739-17.419,30.894,1.206,20.795-9.7s-13.463-5.6-22.73-16.574c-8.76-10.37-1.061-18.335-.181-19.185,12.939-12.059,23.43-29.543,19.776-37.93-1.26-2.912-4.221-4.733-9.364-4.866a14.08,14.08,0,0,0-11.823,4.986,25.256,25.256,0,0,0-4.51,7.126c-.278.645-.531,1.3-.754,1.966l-4.968,14.651-.35,1.037s-26.758,29.543-8.35,25.407C1917.107,1291.219,1942.659,1319.514,1946.192,1306.545Z" transform="translate(-1522.397 -640.545)" fill="#72120c"/>
        <path id="Trazado_19495" data-name="Trazado 19495" d="M1960.416,1318.8s6.867,14.47,7.5,19.336c0,0-3.2,1.9-3.111,3.105s-6.795-25.926-6.795-25.926Z" transform="translate(-1538.574 -679.074)" fill="#530905"/>
        <path id="Trazado_19496" data-name="Trazado 19496" d="M1948.041,1279.017l3.015-6.3c10.382-14.47-.229-30.64-2.955-34.367-.277.645-.53,1.3-.753,1.966l-4.968,14.651Z" transform="translate(-1532.368 -648.511)" fill="#530905"/>
        <path id="Trazado_19497" data-name="Trazado 19497" d="M1978.711,1393.42s15.676,12.854,3.672,23.677c0,0-4.407-13.674-7.79-15.4S1978.711,1393.42,1978.711,1393.42Z" transform="translate(-1544.811 -710.086)" fill="#72120c"/>
        <path id="Trazado_19498" data-name="Trazado 19498" d="M1982.78,1394.782s8.091,15.145,1.043,20.089l-1.905-4.914-3.147-18.148A8.918,8.918,0,0,1,1982.78,1394.782Z" transform="translate(-1546.817 -709.446)" fill="#530905"/>
        <path id="Trazado_19499" data-name="Trazado 19499" d="M2043.933,1419.14s-13.144,5.077-17.84,5.324,16.315,7.838,21.639,5.692C2047.731,1430.155,2044.458,1420.991,2043.933,1419.14Z" transform="translate(-1565.339 -720.299)" fill="#ee9b5e"/>
        <path id="Trazado_19500" data-name="Trazado 19500" d="M1978.667,1239.374a.525.525,0,0,0,.3-.253c.193-.35,4.564-8.664,1.314-13.421-1.76-2.574-5.378-3.563-10.762-2.924a.531.531,0,0,0-.458.6.525.525,0,0,0,.6.458c4.962-.6,8.248.247,9.773,2.478,2.894,4.22-1.326,12.257-1.369,12.342a.519.519,0,0,0,.211.706A.542.542,0,0,0,1978.667,1239.374Z" transform="translate(-1542.958 -642.252)" fill="#fff"/>
        <path id="Trazado_19504" data-name="Trazado 19504" d="M1960.338,1466.5s10.153,7.838,27.939,4,21.434-16.327,17.979-21.283c0,0-.868-2.412,1.176-2.412s20.131,18.528,28.132,38.388,22.978,43.585,24.014,47.884,6.97,104.058-3.853,112.361-50.549,50.7-73.671,30.984-69.228-56.18-69.674-67.745,10.081-75.305,20.752-104.655S1956.708,1462.343,1960.338,1466.5Z" transform="translate(-1520.451 -731.282)" fill="#fff"/>
        <g id="Grupo_21480" data-name="Grupo 21480" transform="translate(432.051 825.438)" opacity="0.66">
          <path id="Trazado_19505" data-name="Trazado 19505" d="M2015.462,1629.574s-9.858-4.926,7.663,17.334,37.779,35.042,35.573,52.744-46.9,35.952-58.219,6.753-13.735-45.617-13.735-45.617-16.743,23.9-1.206,54.378,39.069,50.356,59.593,31.569,35.126-32.66,38.044-43.8,0-33.763,0-33.763l-23.725-12.228Z" transform="translate(-1978.933 -1629.111)" fill="#d2d7db"/>
        </g>
        <path id="Trazado_19506" data-name="Trazado 19506" d="M2039.52,1629.88s23.177,20.258,36.682,30.84,21.6,29.489,8.151,59.641c0,0,4.872,4.016,13.2-4.709s9.647-46.172,9.647-46.172S2051.379,1641.2,2039.52,1629.88Z" transform="translate(-1570.94 -803.979)" fill="#aeb6b7"/>
        <path id="Trazado_19507" data-name="Trazado 19507" d="M2104.5,1864.917a638.54,638.54,0,0,1-154.4-58.628q-22.447-12.059-43.411-25.7c-6.928-36.5-4.052-112.511-4.22-135.127,0-1.749-.036-3.171-.091-4.22-.9-17.738,3.617-16.466,3.617-16.466,10.208.675,32.606-66.738,44.056-97.74,1.025-2.767,1.959-5.245,2.792-7.362,7.838-19.938,25.323-22.977,25.323-22.977a42.2,42.2,0,0,1,7.91-.76,36.217,36.217,0,0,1,13.554,2.563s9.526,3.238,25.323,17.292,22.35,21.1,22.35,21.1l1.893,3.467c-.711-.6-46.232-37.2-55.469-37.671-36.175-1.616-40.673,80.219-36.368,125.046,1.809,18.769,6.753,31.816,13.638,40.209,10.593,12.9,25.769,14.8,41.162,9.568a66.544,66.544,0,0,0,8.881-3.786c28.217-14.428,23.188-66.436,23.188-66.436l33.371-12.324s18.63,62.975,23.725,91.982a85.865,85.865,0,0,1,1.206,9.321C2103.765,1716.254,2115.522,1835.018,2104.5,1864.917Z" transform="translate(-1516.343 -750.794)" fill="#004a66"/>
        <path id="Trazado_19508" data-name="Trazado 19508" d="M2570.924,1324.971c-4.884,11.51-8.748,23.562-10.008,36-.982,9.689-.374,19.462.446,29.163a135.224,135.224,0,0,0,3.075,21.446c2.026,8.182,5.613,16.279,11.908,21.88,3.395,3.015,8.194,5.306,12.427,3.617a12.849,12.849,0,0,0,5.179-4.353c4.992-6.457,7.488-14.525,8.833-22.586a32.9,32.9,0,0,0,.3-11.594,22.032,22.032,0,0,0-3.907-8.76,7.888,7.888,0,0,0-3.793-3.129,3.46,3.46,0,0,0-4.22,1.7,48.2,48.2,0,0,1-10.6-16.882,38.181,38.181,0,0,1-1.664-20.295c.5-2.472,1.284-4.89,1.682-7.386a47,47,0,0,0,0-11.082c-.175-2-.4-4.112-1.61-5.716C2577.285,1324.778,2573.65,1324.32,2570.924,1324.971Z" transform="translate(-1777.773 -682.798)" fill="#72120c"/>
        <path id="Trazado_19509" data-name="Trazado 19509" d="M2662.341,1361.26c-1.314,3.015-3.852,5.282-6.072,7.711-10.557,11.606-14.217,28.169-13.439,43.838.265,5.354.965,10.949-1.11,15.9-3.521,8.393-13.6,11.8-22.646,12.758-5.571.6-11.4.6-16.532-1.676s-9.369-7.235-9.285-12.866c.042-2.894,1.17-5.589,2.412-8.254h0c.4-.874.813-1.743,1.205-2.611,3.528-7.97,5.052-14.078,4.329-22.766a30.969,30.969,0,0,1-15.356-3.316,17.677,17.677,0,0,1-3.823-3.015,39.281,39.281,0,0,1-11.4-29.236c.193-4.22,1.085-8.441,1.532-12.662.6-5.523.4-11.13,1.332-16.6a44.644,44.644,0,0,1,1.706-6.723c3.2-9.647,9.345-18.293,15.351-26.631l5.667-2.454.941-.4a58.117,58.117,0,0,1,7.531-.44,19.109,19.109,0,0,1,7.524,1.538c2.092.952,3.931,2.412,5.957,3.491,3.955,2.135,8.483,2.894,12.758,4.269a45.321,45.321,0,0,1,28.2,27.21c2.508,6.9,3.28,14.289,4.028,21.6C2663.51,1353.717,2663.872,1357.739,2662.341,1361.26Z" transform="translate(-1781.819 -669.738)" fill="#f0a975"/>
        <path id="Trazado_19510" data-name="Trazado 19510" d="M2666.15,1349.9c-.748-7.307-1.52-14.7-4.027-21.6a45.322,45.322,0,0,0-28.2-27.21c-4.275-1.375-8.8-2.134-12.758-4.269-2.025-1.091-3.865-2.538-5.957-3.491a19.1,19.1,0,0,0-7.524-1.538c-2.913.314-5.746.6-8.441.844l-5.667,2.454c-6.029,8.339-12.149,16.984-15.351,26.631,0,0,8.128,5.167,15.8,6.958s10.684-2.484,14.765,0,14.259,12.36,24.781,13.662,11.938,9.044,11.2,15.115,3.2,1.314,3.2,1.314,5.884-7.772,11.184-5.041,4.009,11.631,1.1,13.047-9.014-.947-11.57,10.448c-2.261,10.069-5.426,20.144-6.294,31.171h0q-.09,1.1-.145,2.225c-.355,3.226-1.6,9.044-5.98,11.636-6.234,3.708-35.1,17.231-35.271-8.827,0,0-9.1,8.942-4.461,17.985s7.584,14.832,14.054,11.245c.566-.319,1.254-.693,2.032-1.109a44.829,44.829,0,0,0,9.483-.115c9.044-.959,19.125-4.365,22.646-12.758,2.074-4.95,1.375-10.545,1.109-15.9-.778-15.676,2.882-32.232,13.439-43.838,2.219-2.412,4.757-4.7,6.072-7.711C2666.9,1357.736,2666.537,1353.714,2666.15,1349.9Zm-41.457,85.953c-.561.048-1.109.084-1.646.115,7.542-4.118,15.809-8.905,18.757-11.9C2640.942,1430.557,2637.6,1434.765,2624.693,1435.856Z" transform="translate(-1784.845 -669.735)" fill="#ee9b5e"/>
        <path id="Trazado_19511" data-name="Trazado 19511" d="M2690.948,1374.365c-2.852,6.783-7.012,12.9-11.371,18.853q-1.357,1.809-2.719,3.666c-4.22,5.661-8.6,11.455-14.711,15.013-4.914,2.834-10.587,3.991-16.152,5.089a3.908,3.908,0,0,1-2.351,0c-1.29-.6-1.568-2.243-1.646-3.648a112.336,112.336,0,0,1,8.61-49.766,8.915,8.915,0,0,1,2.14-3.43,14.564,14.564,0,0,1,3.846-1.893,10.623,10.623,0,0,0,5.993-6.457,7.864,7.864,0,0,0-2.376-8.23,8.03,8.03,0,0,0-8.363-.681,12.437,12.437,0,0,0-5.818,6.415c1.206-4.317,2.279-9.49-.687-12.86a13.473,13.473,0,0,0-5.125-3.135l-11.889-5.016c-5.867-2.478-11.9-5.058-16.418-9.538s-7.235-11.389-5.052-17.358h0a16.882,16.882,0,0,0-6.156,14.8,45.542,45.542,0,0,1-16.948-3.419h0l-.1-.042h0a44.406,44.406,0,0,1-7.892-4.22,5.655,5.655,0,0,1-1.9-1.809,5.22,5.22,0,0,1-.392-2.87c.723-10.081,7.609-18.9,16.038-24.473a66.053,66.053,0,0,1,26.414-10.461c7.344-1.29,14.078-1.73,21.494.9,3.015,1.079,6.029,1.773,8.616,3.937a20.977,20.977,0,0,1,5.8,7.838,4.559,4.559,0,0,0,1.369,2.128,4.708,4.708,0,0,0,2.647.452c9.646-.115,18.347,6.349,23.647,14.38s7.838,17.485,10.467,26.77c2.225,7.8,4.588,15.676,5.179,23.743A55.31,55.31,0,0,1,2690.948,1374.365Z" transform="translate(-1782.939 -660.233)" fill="#72120c"/>
        <path id="Trazado_19512" data-name="Trazado 19512" d="M2590.52,1342.32Z" transform="translate(-1789.729 -689.795)" fill="#f0a975"/>
        <path id="Trazado_19513" data-name="Trazado 19513" d="M2590.36,1342.25l.1.042Z" transform="translate(-1789.666 -689.768)" fill="#f0a975"/>
        <path id="Trazado_19514" data-name="Trazado 19514" d="M2607.488,1338.252a45.558,45.558,0,0,1-16.948-3.419s8.127-.452,13.6-5.463c5.312-4.859,9.261-5.866,9.5-5.921a16.882,16.882,0,0,0-6.156,14.8Z" transform="translate(-1789.737 -682.302)" fill="#530905"/>
        <path id="Trazado_19515" data-name="Trazado 19515" d="M2701.093,1415.291q-1.357,1.809-2.719,3.666c-4.221,5.662-8.6,11.456-14.712,15.013-4.913,2.834-10.587,3.992-16.152,5.089a3.908,3.908,0,0,1-2.351,0c-1.29-.6-1.568-2.243-1.646-3.648a112.328,112.328,0,0,1,8.61-49.765,8.917,8.917,0,0,1,2.14-3.431,14.573,14.573,0,0,1,3.847-1.893,10.621,10.621,0,0,0,5.993-6.457,7.863,7.863,0,0,0-2.376-8.23,8.03,8.03,0,0,0-8.363-.681,12.437,12.437,0,0,0-5.818,6.415c1.206-4.317,2.279-9.49-.687-12.86a13.471,13.471,0,0,0-5.125-3.135l-11.889-5.016c-5.867-2.478-11.9-5.059-16.418-9.538s-7.235-11.389-5.052-17.358c0,0,.959,16.164,17.533,19.655s46.425,9.219,44.212,26.058C2688.04,1384.91,2683.451,1409.576,2701.093,1415.291Z" transform="translate(-1804.455 -682.306)" fill="#530905"/>
        <path id="Trazado_19516" data-name="Trazado 19516" d="M2812.98,1246.344c-.808,4.166-25.854,46.7-37.574,67.166-3.147,5.511-5.342,9.424-5.824,10.545-2.3,5.324-13.723,22.911-26.854,14.018s-21.066-33.251-21.066-33.251,2.026-2.828,5.173-7.271c11.311-15.99,37.182-52.955,35.844-54.957-1.7-2.557-39.045-44.014-47.74-56.072s-26.257-38.364-29.157-39.9-22.851-5.619-26.088-9.369a51.555,51.555,0,0,1-3.859-5.427c-2.3-3.618-4.323-7.235-4.323-7.235s-9.7-10.093,7.664-22.308h0s5.287-5.631,9.894-4.431,8.525.675,12.788,4.094,13.638,8.35,18.413,14.663c3.581,4.733,5.245,7.929,6.21,10.672.32.91.567,1.773.784,2.623.681,2.75.374,6.717,3.533,10.292a13.813,13.813,0,0,0,2.942,2.5c6.306,4.088,79.453,64.79,89.341,78.6S2814,1241.062,2812.98,1246.344Z" transform="translate(-1812.874 -592.655)" fill="#f0a975"/>
        <path id="Trazado_19517" data-name="Trazado 19517" d="M2509.821,1297.067s-32.389,15.465-36.325,15.616a13.763,13.763,0,0,1-6.939-1.676s-2.274-5.625-5.517-13.825c-8.176-20.7-22.537-57.844-22.115-62.547.6-6.566,4.22-67.527,6.855-85.615s7.15-37.785,7.15-37.785,2.038-8.6,1.453-15.61c-.3-3.684-.651-14.072-.338-23.478.248-7.458.917-14.289,2.345-16.659h0a2.264,2.264,0,0,1,.6-.705c3.943-2.623,6.282-.6,6.282-.6s-.735-3.792,5.1-3.352,6.71,2.773,6.71,2.773,2.334-2.339,7.44-1.459,3.5,3.792,3.5,3.792,5.836-1.17,9.924,3.208,2.768,9.773,2.038,15.32c-.374,2.882-2.5,9.647-4.769,15.881-2.1,5.722-4.323,10.931-5.426,12.125-2.333,2.478-8.441,10.943-9.188,13.71s3.792,100.085,5.541,105.916c1.417,4.709,16.092,39.287,21.705,52.454,1.338,3.147,2.17,5.077,2.17,5.077Z" transform="translate(-1729.531 -574.036)" fill="#f0a975"/>
        <path id="Trazado_19518" data-name="Trazado 19518" d="M2812.188,1446.514c4.576-.44,8.254-.91,11.2-1.375-3.148,5.511-5.342,9.424-5.824,10.545-2.3,5.324-13.723,22.911-26.854,14.018s-21.066-33.251-21.066-33.251,2.026-2.828,5.173-7.271C2779.89,1436.053,2791.562,1448.516,2812.188,1446.514Z" transform="translate(-1860.853 -724.285)" fill="#ee9b5e"/>
        <path id="Trazado_19519" data-name="Trazado 19519" d="M2525.747,1448.409s-32.383,15.459-36.326,15.61a13.687,13.687,0,0,1-6.934-1.67s-2.279-5.625-5.517-13.825a40.171,40.171,0,0,0,4.824-.44,48.284,48.284,0,0,0,7.838-1.857,90.381,90.381,0,0,0,18.938-9.231,56.281,56.281,0,0,0,7.38-5.119,65.051,65.051,0,0,0,5.619-5.7c.079-.1.169-.193.26-.289l2.17,5.083Z" transform="translate(-1744.641 -722.979)" fill="#f59d4e"/>
        <path id="Trazado_19520" data-name="Trazado 19520" d="M2720.99,1462.849c-1.206,3.183-32.835,50.145-33.227,79.194-.187,13.867-.6,41.9-1.315,67.9-.778,28.53-1.905,54.589-3.467,56.675-1.809,2.411-42.337-5.191-80-19.782-25.323-9.828-49.4-22.833-59.424-38.117-24.931-37.984-29.905-50.941-23.743-67.461s36.218-72.821,40.4-72.821,16.5.2,16.611,4.371c0,0-3.877,11.148,2.3,17.117s33.595.778,40.474-12.348c0,0,1.157-1.549,2.412.422s8.236,2.966,14.8.38a18.516,18.516,0,0,0,4.824-3.774l.054-.054c.742-.718,1.531-1.52,2.357-2.412,10.117-10.66,25.431-30.93,25.431-30.93a81.172,81.172,0,0,0,22.646,16.05c13.132,5.969,22.911,9.152,25.275,3.183C2717.408,1460.461,2722.159,1459.666,2720.99,1462.849Z" transform="translate(-1760.701 -729.062)" fill="#fff"/>
        <g id="Grupo_21481" data-name="Grupo 21481" transform="translate(763.288 748.926)" opacity="0.54">
          <path id="Trazado_19521" data-name="Trazado 19521" d="M2626.349,1502.21s-15.266,49.259-23.044,66.213-8.477,19.595-25.015,18.486-41.692-5.282-39.612-16.677,11.4-37.55,11.4-37.55-25.015,39.793-21.4,48.53,63.229,29.881,70.458,19.456,26.125-66.322,28.627-73.376,2.791-23.3,2.791-23.3A8.443,8.443,0,0,1,2626.349,1502.21Z" transform="translate(-2528.319 -1502.21)" fill="#d2d7db"/>
        </g>
        <g id="Grupo_21482" data-name="Grupo 21482" transform="translate(841.449 743.078)" opacity="0.66">
          <path id="Trazado_19522" data-name="Trazado 19522" d="M2742.252,1630.314c-.778,28.53-1.905,54.589-3.467,56.675-1.809,2.412-42.337-5.191-80-19.782-6.077-63.367,23.249-131.667,23.249-131.667l15.284-40.432.187-.187,2.357-2.412c-.09.6-5.945,39.19-9.966,69.493-4.046,30.538,1.869,60.763,20.258,68.245C2721.011,1634.685,2733.685,1632.684,2742.252,1630.314Z" transform="translate(-2657.955 -1492.51)" fill="#d2d7db"/>
        </g>
        <path id="Trazado_19523" data-name="Trazado 19523" d="M2689.5,1625.64c0,.114-.735,53.714,9.044,67.057s32.2,24.388,51.134,21.048c0,0-.917,19.342-2.412,26.094s-57.6-3.768-63.681-30.972-5.064-64.422-1.206-71.862A69.109,69.109,0,0,1,2689.5,1625.64Z" transform="translate(-1824.964 -802.295)" fill="#aeb6b7"/>
        <path id="Trazado_19524" data-name="Trazado 19524" d="M2540.192,1460.8s-2.146,4.588-5.474,11.661c-9.7,20.614-29.411,62.27-35.024,72.447-1.254,2.243-1.809,2.954-1.417,1.531l.145-.47c2.14-6.74-3.732-29.694-8.941-50.085v-.036c-4.932-19.293-9.255-36.3-5.577-35.048,7.567,2.593,34.626-17.907,37.213-23.279s5.969-13.132,7.162-7.561S2540.192,1460.8,2540.192,1460.8Z" transform="translate(-1746.848 -723.831)" fill="#fff"/>
        <g id="Grupo_21483" data-name="Grupo 21483" transform="translate(742.615 743.717)" opacity="0.54">
          <path id="Trazado_19525" data-name="Trazado 19525" d="M2539.406,1501.4c-.681,4.064-18.353,50.579-35.163,69.529-.47.531-.947,1.049-1.417,1.531l.145-.47c2.14-6.741-3.732-29.694-8.942-50.085,6.065,19.209,40.794-28.337,40.794-28.337a8.2,8.2,0,0,1,4.462,4.9A6.736,6.736,0,0,1,2539.406,1501.4Z" transform="translate(-2494.03 -1493.57)" fill="#d2d7db"/>
        </g>
        <path id="Trazado_19545" data-name="Trazado 19545" d="M2836.586,1338s5.119,4.088,11.256,8.181c0,0-4.661,3.581-12.9-4.088Z" transform="translate(-1886.782 -688.08)" fill="#ee9b5e"/>
        <path id="Trazado_19546" data-name="Trazado 19546" d="M2710.792,1143.194c-.175,1.917-.567,3.412-1.206,3.828-1.857,1.242-24.243-5.577-28.168-5.824-2.882-.181-15.821-1.3-25.612-6.367-2.3-3.618-4.323-7.235-4.323-7.235A11.053,11.053,0,0,1,2649,1122.5a11.313,11.313,0,0,1,.289-5.529c1.031-3.413,3.8-7.422,9.858-11.7a82.716,82.716,0,0,0-6.247,12.577,12.885,12.885,0,0,0-.952,4.739,3.828,3.828,0,0,0,.079.645,6.324,6.324,0,0,0,7.12,5.426s-1.121,1.5,1.206,4.347,7.838,3.226,8.929,2.364c0,0,1.736,3.467,6.94,3.714a9.081,9.081,0,0,0,4.956-2.231s2.978,3.841,5.824,1.61c1.146-.9,2.412-3.34,3.563-5.86.85-1.809,1.67-3.714,2.412-5.059s1.387-2.213,1.809-1.809c1.1,1.007,7.235,3.618,11.642,4.528.061.193.127.386.187.6.235.7.428,1.381.6,2.05.277,1.128.392,2.472.651,3.9A12.438,12.438,0,0,0,2710.792,1143.194Z" transform="translate(-1812.864 -595.668)" fill="#ee9b5e"/>
        <path id="Trazado_19547" data-name="Trazado 19547" d="M2702.58,1148.324a18.908,18.908,0,0,1,.826-3.985,28.478,28.478,0,0,1,1.447-3.75,24.226,24.226,0,0,1,2-3.521,13.651,13.651,0,0,1,1.284-1.61,6.1,6.1,0,0,1,1.628-1.309c-.639,1.206-1.043,2.412-1.562,3.654s-1.013,2.412-1.58,3.618-1.151,2.37-1.809,3.527a25.987,25.987,0,0,1-2.231,3.376Z" transform="translate(-1834.225 -607.136)" fill="#ee9b5e"/>
        <path id="Trazado_19548" data-name="Trazado 19548" d="M2682.85,1142.513a35.389,35.389,0,0,1,1.519-5.288,49.744,49.744,0,0,1,2.122-5.034,47.086,47.086,0,0,1,2.653-4.823c.494-.772,1.037-1.526,1.61-2.255a13.947,13.947,0,0,1,.941-1.043,3.224,3.224,0,0,1,1.145-.82,4.47,4.47,0,0,0-.711,1.139c-.193.4-.38.814-.554,1.206-.368.82-.711,1.658-1.073,2.484-.723,1.646-1.459,3.292-2.249,4.92s-1.6,3.232-2.49,4.823a46.6,46.6,0,0,1-2.912,4.691Z" transform="translate(-1826.391 -602.808)" fill="#ee9b5e"/>
        <path id="Trazado_19549" data-name="Trazado 19549" d="M2666,1131.677a36.439,36.439,0,0,1,1.652-5.155c.664-1.664,1.405-3.3,2.219-4.89a47.927,47.927,0,0,1,2.713-4.661c.494-.754,1.043-1.477,1.6-2.195.307-.344.6-.7.916-1.025.163-.163.32-.326.495-.482a5.1,5.1,0,0,1,.561-.41l-.332.6c-.1.2-.187.4-.278.6-.193.392-.368.814-.542,1.206l-1.079,2.412c-.736,1.616-1.5,3.22-2.315,4.823s-1.67,3.141-2.587,4.673a42.611,42.611,0,0,1-3.027,4.5Z" transform="translate(-1819.7 -598.682)" fill="#ee9b5e"/>
        <path id="Trazado_19550" data-name="Trazado 19550" d="M2507.981,1077.432a33.6,33.6,0,0,1-.965,4.22c-.422,1.543-.959,3.3-1.562,5.155-.681,2.11-1.447,4.329-2.243,6.481-2.973,2.159-5.36,3.262-5.3,3.081.1-.3,2.544-5.758,3.973-10.431a17.213,17.213,0,0,0,1-5.287v-.181c-.44-3.792-4.371-7.736-7.151-9.339s-3.786-6.415-6.855-7.88-4.088,2.339-3.617,9.044a19.584,19.584,0,0,0,.729,4.22,12.434,12.434,0,0,0,2.918,5.426s-.325.193-.868.573a33.307,33.307,0,0,0-5.427,4.751c-3.214,3.5-5.258,12.251-5.258,12.251-1.007.061-1.411-.512-1.411-1.489,0-2.828,3.406-8.984,5.516-12.661,0,0,.452-3.093-.874-4.673a2.659,2.659,0,0,0-2.352-.88c-.332,0-.675.048-1.031.06-3.123.175-6.74.042-10.455-2.532a17.587,17.587,0,0,1-2.713-2.333c.042-1.29.1-2.562.163-3.786.338-5.9.995-10.913,2.183-12.872,0,0-.458,8.839,1.206,13.686a5.791,5.791,0,0,0,1.471,2.526c2.225,1.935,4.064.344,5.052-.953a7.933,7.933,0,0,0,.784-1.206,6.452,6.452,0,0,0,.217,1.483,3.516,3.516,0,0,0,3.286,2.894,6.029,6.029,0,0,0,4.052-1.121,3.414,3.414,0,0,0,.729-.735h0a36.739,36.739,0,0,1,.271-4.745c.6-4.98,1.073-6.68,2.966-8.139s5.4-.44,6.56,1.755,7.44,8.164,8.266,9.044,2.532-2.918,2.966-3.8S2507.981,1077.432,2507.981,1077.432Z" transform="translate(-1739.506 -577.037)" fill="#ee9b5e"/>
        <path id="Trazado_19552" data-name="Trazado 19552" d="M2081.778,1608.69l-4.606-2.785c-3.545-2.153-8.767-5.318-14.283-8.7-10.31-6.325-21.651-13.379-25.094-15.887-6.753-4.926,1.519-54.426,2.918-64.79.8-5.915,7.494-8.947,7.494-8.947s9.478,1.272,52.72,35.609c3.774,3.015,6.946,5.674,9.044,7.307.814.6,1.465,1.127,1.905,1.435C2117.369,1555.766,2081.778,1608.69,2081.778,1608.69Z" transform="translate(-1569.215 -755.416)" fill="#fff"/>
        <path id="Trazado_19553" data-name="Trazado 19553" d="M2148.054,1498.649s21.175,19.9,23,20.439c0,0,29.2-84.494,30.478-94.533s-6.2-11.5-8.031-19.529-15.146-14.054-13.867-18.088,9.49-3.28,11.13-.911c0,0-.417-16.423,1.983-20.071s6.777-.917,8.055-2.375,8.4-5.113,12.6-2.737,5.293,4.745,7.482,4.745,7.838-2.008,10.949,1.1,3.1,5.107,4.745,6.385,5.113,2.008,5.293,8.58-8.031,31.02-11.679,42.518-13.144,139.07-25.552,152.757-33.4,9.647-40.7,5.474-51.466-32.3-51.466-32.3Z" transform="translate(-1599.906 -696.84)" fill="#f0a975"/>
        <path id="Trazado_19554" data-name="Trazado 19554" d="M2201.266,1620.019s-8.368,19.559-6.361,31.786c0,0,.561,8.236-3.732-.349-3.413-6.819,4.42-36.175,4.42-36.175Z" transform="translate(-1630.816 -798.181)" fill="#ee9b5e"/>
        <path id="Trazado_19555" data-name="Trazado 19555" d="M2153.24,1594.775s-21.2,44.453-20.765,59.322l-20-12.661,35.572-51.466Z" transform="translate(-1599.907 -788.131)" fill="#ee9b5e"/>
        <path id="Trazado_19556" data-name="Trazado 19556" d="M2236.634,1402.052l1.983,7.838L2228,1400.61S2232.823,1399.5,2236.634,1402.052Z" transform="translate(-1645.781 -712.845)" fill="#ee9b5e"/>
        <path id="Trazado_19560" data-name="Trazado 19560" d="M2595.563,1585.495c-8.043,4.07-59.925-3.762-67.154-12.547s40.534-91.548,40.534-91.548c1.851,1.025,0,3.093,0,3.093s-39.021,78.923-37.321,85.615S2589.6,1586.068,2595.563,1585.495Z" transform="translate(-1764.771 -745.021)" fill="#002533"/>
        <path id="Trazado_19561" data-name="Trazado 19561" d="M2738.995,1676.115c-48.451,8.332-71.6-33.764-68.348-84.638,3.37-52.75,19.293-89.92,19.293-89.92s-14.156-8.23-16.152,5.089c-1.851,12.354-21.1,70.325-30.309,81.9,8.441-12.137,31.069-80.936,30.442-86.218-.681-5.8,1.206-5.426,1.206-5.426s7.675-.512,12.281-2.562,4.148,1.272,4.148,1.272-.4,13.56-8.923,39.142-9.725,61.721-7.331,88.147,22.308,41.776,38.189,47.908,21.41.922,21.41.922C2736.643,1670.966,2737.988,1672.661,2738.995,1676.115Z" transform="translate(-1810.758 -749.894)" fill="#002533"/>
        <path id="Trazado_19562" data-name="Trazado 19562" d="M2621.3,1457.421s9.351-.253,16.586-3.967c0,0,2.726-1.091,0,3.015s-16.448,6.711-16.448,6.711Z" transform="translate(-1801.951 -733.872)" fill="#ee9b5e"/>
        <path id="Trazado_19563" data-name="Trazado 19563" d="M1889.454,1317.4a72.718,72.718,0,0,1-.048-14.844c2.966-29.513,36.579-39.54,36.579-39.54,7.139,11.528,12.764,55.969,14.35,69.589.3,2.52.452,3.991.452,3.991,1.013,2.364,1.966,4.86,2.864,7.428,7.277,20.807,10.889,46.781,11.908,55.011a3.178,3.178,0,0,1-4.552,3.256c-8.254-4.3-12.058-35.681-12.058-35.681h-.362C1907.795,1365.7,1892.107,1342.232,1889.454,1317.4Z" transform="translate(-1511.192 -658.307)" fill="#004a66"/>
        <path id="Trazado_19564" data-name="Trazado 19564" d="M1940.6,1368.422c-32.715.054-50.881-15.212-50.881-15.212h0c2.653,24.828,18.341,48.294,49.108,49.2,5.7-6.24,6.029-15.356,5.088-22.573A51.381,51.381,0,0,0,1940.6,1368.422Z" transform="translate(-1511.458 -694.119)" fill="#fff"/>
        <g id="Grupo_21484" data-name="Grupo 21484" transform="translate(493.674 787.785)" opacity="0.66">
          <path id="Trazado_19565" data-name="Trazado 19565" d="M2128.234,1573.955c-1.369,6.457-4.22,12.661-7.344,18.54a194.077,194.077,0,0,1-25.468,36.869c-3.545-2.153-8.767-5.318-14.283-8.7.223-.193.446-.41.675-.6,3.618-3.551,6.481-8.338,9.5-12.4q4.854-6.53,9.532-13.162c3.479-4.98,6.861-10.027,10.069-15.176,2.659-4.256,5.251-8.634,8.26-12.661C2122.9,1569.7,2126.124,1572.322,2128.234,1573.955Z" transform="translate(-2081.14 -1566.66)" fill="#d2d7db"/>
        </g>
        <path id="Trazado_19566" data-name="Trazado 19566" d="M2100.452,1629.2s-1.905,2.177.736,5.071,9.833,6.174,12.378,3.1c3.979-4.823,32.823-52.69,31.955-56.524s-7.735-9-12.938-8.833S2100.452,1629.2,2100.452,1629.2Z" transform="translate(-1594.871 -781.001)" fill="#fff"/>
        <path id="Trazado_19567" data-name="Trazado 19567" d="M2231.36,1303.52l1.206.675a1.49,1.49,0,0,0-.09.157C2231.824,1303.876,2231.438,1303.58,2231.36,1303.52Z" transform="translate(-1647.115 -674.389)" fill="#f0a975"/>
        <circle id="Elipse_1163" data-name="Elipse 1163" cx="14.325" cy="14.325" r="14.325" transform="translate(676.076 475.428)" fill="#fff" opacity="0.3"/>
        <path id="Trazado_19568" data-name="Trazado 19568" d="M2465.516,1085.367s-.326.193-.868.573l-7.428-1.809-3.382-.82-10.455-2.532-38.153-9.255,2.81-4.823,32.793,7.928,3.371.814a5.792,5.792,0,0,0,1.471,2.526c2.225,1.935,4.064.344,5.052-.953l1,.247a3.516,3.516,0,0,0,3.286,2.894,6.029,6.029,0,0,0,4.052-1.122l3.533.85A12.647,12.647,0,0,0,2465.516,1085.367Z" transform="translate(-1716.154 -580.353)" fill="#4f4f4f"/>
        <path id="Trazado_19569" data-name="Trazado 19569" d="M2604.492,1113.954a12.879,12.879,0,0,0-.952,4.739,3.857,3.857,0,0,0,.078.645l-3.014-.73-70.2-17.033-3.57-.868a17.217,17.217,0,0,0,1-5.288l4.13,1,68.932,16.659Z" transform="translate(-1764.439 -591.757)" fill="#4f4f4f"/>
        <path id="Trazado_19570" data-name="Trazado 19570" d="M2779.28,1156.4v.868l-1.073,4.558-42.753-10.37-17.3-4.221c.85-1.809,1.67-3.714,2.412-5.058l13.668,3.3Z" transform="translate(-1840.408 -610.324)" fill="#4f4f4f"/>
        <path id="Trazado_19571" data-name="Trazado 19571" d="M2480.948,1071.72a36.8,36.8,0,0,1-.657-3.828c-.157-1.278-.3-2.55-.392-3.829s-.187-2.544-.259-3.823-.139-2.538-.289-3.84a12.361,12.361,0,0,1,1.3,3.7,31.23,31.23,0,0,1,.549,3.859,38.038,38.038,0,0,1,.108,3.877A24.761,24.761,0,0,1,2480.948,1071.72Z" transform="translate(-1745.586 -576.263)" fill="#ee9b5e"/>
        <path id="Trazado_19572" data-name="Trazado 19572" d="M2495.579,1073.865a35.522,35.522,0,0,1-.241-4.667c0-1.549.1-3.1.223-4.642a45.684,45.684,0,0,1,.639-4.619,21.426,21.426,0,0,1,1.3-4.5l-.29,4.63c-.1,1.537-.235,3.069-.355,4.6s-.3,3.069-.507,4.6S2495.916,1072.334,2495.579,1073.865Z" transform="translate(-1751.933 -575.882)" fill="#f59d4e"/>
        <g id="Grupo_21489" data-name="Grupo 21489" transform="translate(754.622 851.854) rotate(9)">
          <path id="Trazado_19452" data-name="Trazado 19452" d="M87.381,81.54A27.528,27.528,0,0,1,86.1,77.166c-.3-1.374-.549-2.9-.752-4.527a283.6,283.6,0,0,1-28.839,3.288c-5.317.35-10.59.569-15.675.65-5.194.084-10.1.022-14.578-.184.016,1.654-.032,3.2-.142,4.611a27.832,27.832,0,0,1-.691,4.549c-.812,3.227-2.194,4.926-4.109,5.052-2.083.137-4.037-1.705-5.807-5.474a52.677,52.677,0,0,1-3.239-10.088c-.733-.123-1.448-.255-2.118-.392A4.449,4.449,0,0,1,7.767,73.1,8.433,8.433,0,0,1,6.2,70.32a6.618,6.618,0,0,1-.377-2.307,3.634,3.634,0,0,1,.167-1,2.31,2.31,0,0,1,.439-.8l0,0a27.383,27.383,0,0,1-1.888-5.59A47.267,47.267,0,0,1,3.571,54.7a40.062,40.062,0,0,1-.22-4.883,5.9,5.9,0,0,1,.373-2.46.073.073,0,0,1,.027-.019l8.48-8.5.466-1.194-1.5-1.534a2.158,2.158,0,0,1-1.173.9A15.769,15.769,0,0,1,7,37.455a26.192,26.192,0,0,1-4.116-.042,5.047,5.047,0,0,1-2.693-.777.558.558,0,0,1-.143-.193A.574.574,0,0,1,0,36.209c.024-.741,1.366-2.5,3.121-4.1a17.628,17.628,0,0,1,2.84-2.135,6.638,6.638,0,0,1,2.8-1.019,2.7,2.7,0,0,1,.763.051,2.573,2.573,0,0,1,1.291.714,3.687,3.687,0,0,1,.809,1.3,6.328,6.328,0,0,1,.268,3.292l1.873.609L23.4,10.193a12.251,12.251,0,0,1,4.146-5.42,12.1,12.1,0,0,1,6.381-2.335L70.587.026a12.1,12.1,0,0,1,6.847,1.6,12.254,12.254,0,0,1,4.834,5.149L93.689,29.658l1.777-.849a6.321,6.321,0,0,1-.166-3.3,3.684,3.684,0,0,1,.632-1.39,2.579,2.579,0,0,1,1.186-.877,2.756,2.756,0,0,1,.751-.15,6.646,6.646,0,0,1,2.909.644,17.6,17.6,0,0,1,3.1,1.744c1.949,1.353,3.51,2.925,3.632,3.656a.564.564,0,0,1-.019.238.58.58,0,0,1-.115.209,5.041,5.041,0,0,1-2.57,1.123,26.191,26.191,0,0,1-4.075.58,15.737,15.737,0,0,1-3.053-.037,2.157,2.157,0,0,1-1.28-.743l-1.369,1.824.513,1.027,9.288,6.391a.115.115,0,0,1,.063.043v0a.613.613,0,0,1,.1.3c.109.428.248,1.226.369,2.133.21,1.566.371,3.4.454,5.159a54.415,54.415,0,0,1-.048,6.381,27.452,27.452,0,0,1-1.04,6.1c.052-.04.1-.081.152-.125a2.524,2.524,0,0,1,1.02,1.4,4.578,4.578,0,0,1,.134,1.94,7.481,7.481,0,0,1-.435,1.731,8.312,8.312,0,0,1-.828,1.634,5.191,5.191,0,0,1-2.47,2.145c-1.018.352-2.131.7-3.3,1.04-.17,1.78-.392,3.476-.661,5.038a38.465,38.465,0,0,1-1.25,5.257c-1.256,3.864-2.935,5.891-4.988,6.026C90.19,86.073,88.605,84.59,87.381,81.54Zm-11.6-23.4a2.292,2.292,0,0,0-.09,2.888,2.248,2.248,0,0,0,3.847-.446,2.292,2.292,0,0,0-.744-2.791,2.242,2.242,0,0,0-1.463-.421,2.217,2.217,0,0,0-.851.229A2.241,2.241,0,0,0,75.782,58.135Zm-43.626,2.87a2.292,2.292,0,0,0-.09,2.887,2.248,2.248,0,0,0,3.846-.446,2.291,2.291,0,0,0-.744-2.791,2.242,2.242,0,0,0-3.013.349ZM93.111,44.822a23.363,23.363,0,0,0-4.067,2.273,25.962,25.962,0,0,0-3.437,2.824A13.36,13.36,0,0,0,83.4,52.646l-.014.016-.013.028c-.028.051-.049.1-.071.145v0l0,0,0,.005v0c-.017.037-.034.072-.052.109a4.078,4.078,0,0,0-.227.559,2.038,2.038,0,0,0-.068.274,1.764,1.764,0,0,0-.027.449l0,.064v.006a.555.555,0,0,0,.019.131.89.89,0,0,0,.3.484,3.323,3.323,0,0,0,1.122.5c.13.037.278.07.409.1h0a10.722,10.722,0,0,0,1.252.2c.066.005.128.012.2.021h0c.076.009.158.018.243.023.626.045,1.272.06,1.918.046.123,0,.252-.01.357-.015l.076-.005.094-.006c.326-.01.656-.026.982-.047.2-.013.4-.028.592-.045.266-.021.521-.045.806-.075.493-.052.948-.109,1.39-.174l.276-.037h.019c.139-.019.284-.037.424-.06.549-.09,1.1-.193,1.631-.306l.018-.013a10.8,10.8,0,0,0,3.293-1.1,9.553,9.553,0,0,0,2.52-2.863,8.332,8.332,0,0,0,1.307-3.815,3.423,3.423,0,0,0-.208-1.362,2.513,2.513,0,0,0-.8-1.076,5.61,5.61,0,0,0-3.961-1.071A12.78,12.78,0,0,0,93.111,44.822ZM10.417,49.573a5.132,5.132,0,0,0-2.475,1.38,2.514,2.514,0,0,0-.649,1.171A3.413,3.413,0,0,0,7.267,53.5a8.327,8.327,0,0,0,1.8,3.61,9.535,9.535,0,0,0,2.876,2.5,10.759,10.759,0,0,0,3.4.662l.019.01c.548.04,1.106.072,1.657.089.142,0,.288,0,.428,0h.3c.445.007.9,0,1.4-.01.288-.007.551-.017.8-.03.2-.009.4-.02.593-.033.326-.021.656-.049.98-.082l.165-.013c.106-.007.235-.019.358-.032.64-.071,1.279-.171,1.9-.3.075-.016.144-.033.211-.049h.005l.014,0c.063-.016.132-.033.2-.049a10.515,10.515,0,0,0,1.214-.361h0c.119-.043.266-.1.4-.152a3.317,3.317,0,0,0,1.044-.643.893.893,0,0,0,.23-.518.7.7,0,0,0,0-.167v-.035a1.479,1.479,0,0,0-.085-.442,1.962,1.962,0,0,0-.1-.263,4.008,4.008,0,0,0-.3-.525c-.026-.037-.049-.074-.07-.111v0c-.027-.044-.055-.09-.089-.137l-.016-.025-.02-.014a13.308,13.308,0,0,0-2.548-2.414,25.914,25.914,0,0,0-3.777-2.35,23.253,23.253,0,0,0-4.33-1.719l-.22-.059c-2-.059-3.784-.15-5.3-.271ZM75.746,46.44c-6.008.678-12.457,1.289-19.169,1.816a8.793,8.793,0,0,0-.307,2.088,15.233,15.233,0,0,0,.453,4.338,6.4,6.4,0,0,0,.662,1.659,1.63,1.63,0,0,0,.919.81,5.033,5.033,0,0,0,1.491.08,22.807,22.807,0,0,0,4.427-.883c1.622-.461,3.408-1.074,5.163-1.773a43.937,43.937,0,0,0,4.492-2.054,7.564,7.564,0,0,0,2.412-1.727,3.156,3.156,0,0,0,.436-1.3,4.652,4.652,0,0,0-.054-1.542,3.043,3.043,0,0,0-.321-.875,1.7,1.7,0,0,0-.56-.611ZM33.332,49.906a3.05,3.05,0,0,0-.2.909,4.661,4.661,0,0,0,.148,1.536,3.161,3.161,0,0,0,.6,1.232,7.546,7.546,0,0,0,2.617,1.4,43.719,43.719,0,0,0,4.723,1.448c1.833.462,3.683.836,5.352,1.08a22.758,22.758,0,0,0,4.5.3,5.038,5.038,0,0,0,1.468-.275,1.629,1.629,0,0,0,.805-.923,6.364,6.364,0,0,0,.44-1.729,15.21,15.21,0,0,0-.119-4.356,8.857,8.857,0,0,0-.564-2c-1.538.112-3.086.22-4.6.32-5.241.345-10.3.611-15.035.792A2.1,2.1,0,0,0,33.332,49.906Zm56.7-18.337L78.475,8.461a10.675,10.675,0,0,0-4.212-4.478A10.535,10.535,0,0,0,68.3,2.594L36.353,4.7A10.538,10.538,0,0,0,30.8,6.727a10.67,10.67,0,0,0-3.613,4.715l-9.728,24.9c6.235-.9,11.933-1.619,17.422-2.2,5.242-.56,10.315-1,15.509-1.34,12.015-.79,23.5-1,39.639-1.229Z" transform="translate(0 34.331)" fill="#fff"/>
          <path id="Trazado_19453" data-name="Trazado 19453" d="M17.752,19.653a2.219,2.219,0,0,0,.616,1.141,2.187,2.187,0,0,0,1.143.6l10.074,1.85a.464.464,0,0,1,.38.424.469.469,0,0,1-.076.292.464.464,0,0,1-.239.182l-9.756,3.156a2.18,2.18,0,0,0-1.052.741,2.212,2.212,0,0,0-.458,1.21L17.035,48.871a.462.462,0,0,1-.134.3.455.455,0,0,1-.6.04.466.466,0,0,1-.172-.277L12.217,29.652a2.217,2.217,0,0,0-.612-1.14,2.182,2.182,0,0,0-1.141-.6L.379,26.064A.462.462,0,0,1,0,25.638a.466.466,0,0,1,.079-.291.456.456,0,0,1,.24-.18l9.756-3.158a2.19,2.19,0,0,0,1.053-.741,2.217,2.217,0,0,0,.457-1.21L12.933.433a.466.466,0,0,1,.134-.3A.459.459,0,0,1,13.672.1a.469.469,0,0,1,.172.278C15.059,6.372,17.51,18.465,17.752,19.653Z" transform="translate(12.975 13.547)" fill="#ffc850"/>
          <path id="Trazado_19454" data-name="Trazado 19454" d="M10.069,10.514a1.153,1.153,0,0,1-.606-.306,1.169,1.169,0,0,1-.332-.6C8.757,7.8,7.8,3.164,7.208.284A.343.343,0,0,0,6.845,0a.345.345,0,0,0-.317.335L5.845,9.829a1.164,1.164,0,0,1-.248.634,1.145,1.145,0,0,1-.559.382L.245,12.365a.341.341,0,0,0-.183.134.347.347,0,0,0,.228.54l4.949.875a1.149,1.149,0,0,1,.6.306,1.164,1.164,0,0,1,.329.6l1.922,9.321a.35.35,0,0,0,.125.216.343.343,0,0,0,.556-.261L9.46,14.6a1.16,1.16,0,0,1,.248-.634,1.147,1.147,0,0,1,.559-.383l4.793-1.519a.34.34,0,0,0,.184-.134.349.349,0,0,0-.031-.432.345.345,0,0,0-.2-.107Z" transform="translate(45.635 31.114)" fill="#fff082"/>
          <path id="Trazado_19455" data-name="Trazado 19455" d="M17.035,31.192,18.221,13.9A101.667,101.667,0,0,1,11.75,0l-.163,2.38a2.223,2.223,0,0,1-.457,1.21,2.187,2.187,0,0,1-1.053.741L.32,7.488a.465.465,0,0,0-.2.751.459.459,0,0,0,.262.148l10.085,1.851a2.179,2.179,0,0,1,1.141.6,2.212,2.212,0,0,1,.612,1.14l3.907,19.277a.471.471,0,0,0,.171.277.458.458,0,0,0,.6-.039A.467.467,0,0,0,17.035,31.192Z" transform="translate(12.975 31.224)" fill="#f0ad19"/>
          <path id="Trazado_19456" data-name="Trazado 19456" d="M12.841,13.456a1.434,1.434,0,0,1-1.17-1.109C11.18,9.986,9.88,3.746,9.157.28A.352.352,0,0,0,9.028.072.34.34,0,0,0,8.8,0a.344.344,0,0,0-.222.1.354.354,0,0,0-.1.224L7.561,12.616a1.427,1.427,0,0,1-1.009,1.252L.244,15.843a.343.343,0,0,0-.183.134.347.347,0,0,0,.228.54L6.8,17.649a1.417,1.417,0,0,1,.752.373,1.44,1.44,0,0,1,.413.736l2.508,12.03a.351.351,0,0,0,.366.282.35.35,0,0,0,.224-.1.356.356,0,0,0,.1-.226l.909-12.255a1.437,1.437,0,0,1,.314-.783,1.419,1.419,0,0,1,.7-.468l6.3-1.973a.343.343,0,0,0,.182-.137.348.348,0,0,0,.058-.221.353.353,0,0,0-.089-.21.345.345,0,0,0-.2-.109Z" transform="translate(33.946 0)" fill="#ffdc64"/>
          <path id="Trazado_19457" data-name="Trazado 19457" d="M7.642,0l-.08,1.1a1.436,1.436,0,0,1-.313.783,1.419,1.419,0,0,1-.7.468L.245,4.331a.344.344,0,0,0-.184.134.348.348,0,0,0,.028.43A.343.343,0,0,0,.289,5L6.8,6.135a1.419,1.419,0,0,1,.753.373,1.442,1.442,0,0,1,.414.735l2.507,12.031a.35.35,0,0,0,.59.178.354.354,0,0,0,.1-.224l.814-10.967A27.1,27.1,0,0,1,7.642,0Z" transform="translate(33.948 11.514)" fill="#ffc850"/>
          <path id="Trazado_19458" data-name="Trazado 19458" d="M6.173,5.59l1.922,9.321a.348.348,0,0,0,.129.207.343.343,0,0,0,.452-.03.349.349,0,0,0,.1-.222l.641-8.9A14.559,14.559,0,0,1,5.888,0L5.845.6a1.165,1.165,0,0,1-.248.634,1.147,1.147,0,0,1-.559.383L.245,3.139a.341.341,0,0,0-.184.135.346.346,0,0,0,.228.539l4.951.878a1.142,1.142,0,0,1,.6.3A1.167,1.167,0,0,1,6.173,5.59Z" transform="translate(45.635 40.343)" fill="#ffdc64"/>
        </g>
        <g id="Enmascarar_grupo_1" data-name="Enmascarar grupo 1" transform="translate(196.118 0.011)" clip-path="url(#clip-path)">
          <path id="Trazado_19542" data-name="Trazado 19542" d="M2723.864,2161.521c-21.379,28.506-79.905,21.1-79.905,21.1s-1.031-1.556-7.03-25.323h0c-1.169-4.636-2.526-10.117-4.112-16.6-1.037-4.22-2.231-8.772-3.551-13.5-11.021-39.51-30.586-93.019-35.132-111.2-5.094-20.361-42.247-145.063-42.247-145.063s-6.633,110.45-4.07,154.734c1.26,21.97-.247,57.079-2.086,86.882-.79,12.716-1.634,24.473-2.351,33.83-.989,12.9-1.737,21.241-1.737,21.241-27.487,17.3-76.2,10.78-76.2,10.78s-.723-12.589-1.935-32.16c-.488-7.735-1.043-16.556-1.676-26.125-2.249-34.367-5.348-78.344-8.682-115.822-6.632-74.316-5.6-193.93-8.658-237.7s9.677-99.76,22.73-160.842,35.8-100.947,35.8-100.947c7.362-13.59,19.716-31.955,19.716-31.955,2.08-4.63,11.154,3.569,13,4.588s0,3.093,0,3.093-39.021,78.923-37.321,85.615,57.977,16,63.94,15.4c.512-.054,1.17-.687,1.948-1.809h0c8.441-12.137,31.069-80.937,30.442-86.218-.681-5.8,1.206-5.426,1.206-5.426s7.675-.512,12.282-2.562,4.148,1.272,4.148,1.272-.4,13.56-8.923,39.142-9.725,61.721-7.332,88.147,22.308,41.777,38.189,47.908,21.41.922,21.41.922c1.742-.711,3.075.983,4.082,4.438,2.526,8.592,3.051,28.1,3.051,48.439,0,28.506,27.481,265.69,37.664,304.886,5.234,20.137,11.257,56.8,15.875,87.683,1.453,9.738,2.767,18.9,3.877,26.782C2722.484,2150.849,2723.864,2161.521,2723.864,2161.521Z" transform="translate(-1927.679 -741.076)" fill="#004a66"/>
        </g>
      </g>
    </g>
  </g>
</svg>
