<svg width="314" height="47" viewBox="0 0 314 47" preserveAspectRatio="none" fill="none" xmlns="http://www.w3.org/2000/svg">
<path d="M306 1H307V0H306V1ZM305.293 46.7071C305.683 47.0976 306.317 47.0976 306.707 46.7071L313.071 40.3431C313.462 39.9526 313.462 39.3195 313.071 38.9289C312.681 38.5384 312.047 38.5384 311.657 38.9289L306 44.5858L300.343 38.9289C299.953 38.5384 299.319 38.5384 298.929 38.9289C298.538 39.3195 298.538 39.9526 298.929 40.3431L305.293 46.7071ZM0 2H2.94231V0H0V2ZM8.82692 2H14.7115V0H8.82692V2ZM20.5962 2H26.4808V0H20.5962V2ZM32.3654 2H38.25V0H32.3654V2ZM44.1346 2H50.0192V0H44.1346V2ZM55.9038 2H61.7885V0H55.9038V2ZM67.6731 2H73.5577V0H67.6731V2ZM79.4423 2H85.3269V0H79.4423V2ZM91.2115 2H97.0961V0H91.2115V2ZM102.981 2H108.865V0H102.981V2ZM114.75 2H120.635V0H114.75V2ZM126.519 2H132.404V0H126.519V2ZM138.288 2H144.173V0H138.288V2ZM150.058 2H155.942V0H150.058V2ZM161.827 2H167.712V0H161.827V2ZM173.596 2H179.481V0H173.596V2ZM185.365 2H191.25V0H185.365V2ZM197.135 2H203.019V0H197.135V2ZM208.904 2H214.788V0H208.904V2ZM220.673 2H226.558V0H220.673V2ZM232.442 2H238.327V0H232.442V2ZM244.211 2H250.096V0H244.211V2ZM255.981 2H261.865V0H255.981V2ZM267.75 2H273.635V0H267.75V2ZM279.519 2H285.404V0H279.519V2ZM291.288 2H297.173V0H291.288V2ZM303.058 2H306V0H303.058V2ZM305 1V3.8125H307V1H305ZM305 9.4375V15.0625H307V9.4375H305ZM305 20.6875V26.3125H307V20.6875H305ZM305 31.9375V37.5625H307V31.9375H305ZM305 43.1875V46H307V43.1875H305Z" fill="#E8FAFF"/>
</svg>
