<svg width="53" height="94" viewBox="0 0 53 94" fill="none" xmlns="http://www.w3.org/2000/svg">
<path d="M0 0H53V94L26.5 84.2083L0 94V0Z" fill="#FFC850"/>
<path d="M27.5 17.8594L30.2802 25.0327L37.9616 25.4602L31.9985 30.321L33.9656 37.7586L27.5 33.5894L21.0344 37.7586L23.0015 30.321L17.0384 25.4602L24.7198 25.0327L27.5 17.8594Z" fill="#262626"/>
<path d="M14.873 45.293H17.293C18.4297 45.293 19.252 45.4629 19.7598 45.8027C20.2676 46.1426 20.5215 46.6797 20.5215 47.4141C20.5215 47.9219 20.3789 48.3418 20.0938 48.6738C19.8125 49.002 19.4004 49.2148 18.8574 49.3125V49.3711C20.1582 49.5938 20.8086 50.2773 20.8086 51.4219C20.8086 52.1875 20.5488 52.7852 20.0293 53.2148C19.5137 53.6445 18.791 53.8594 17.8613 53.8594H14.873V45.293ZM15.8691 48.9609H17.5098C18.2129 48.9609 18.7188 48.8516 19.0273 48.6328C19.3359 48.4102 19.4902 48.0371 19.4902 47.5137C19.4902 47.0332 19.3184 46.6875 18.9746 46.4766C18.6309 46.2617 18.084 46.1543 17.334 46.1543H15.8691V48.9609ZM15.8691 49.8047V53.0098H17.6562C18.3477 53.0098 18.8672 52.877 19.2148 52.6113C19.5664 52.3418 19.7422 51.9219 19.7422 51.3516C19.7422 50.8203 19.5625 50.4297 19.2031 50.1797C18.8477 49.9297 18.3047 49.8047 17.5742 49.8047H15.8691ZM25.2207 53.9766C24.2715 53.9766 23.5215 53.6875 22.9707 53.1094C22.4238 52.5312 22.1504 51.7285 22.1504 50.7012C22.1504 49.666 22.4043 48.8438 22.9121 48.2344C23.4238 47.625 24.1094 47.3203 24.9688 47.3203C25.7734 47.3203 26.4102 47.5859 26.8789 48.1172C27.3477 48.6445 27.582 49.3418 27.582 50.209V50.8242H23.1582C23.1777 51.5781 23.3672 52.1504 23.7266 52.541C24.0898 52.9316 24.5996 53.127 25.2559 53.127C25.9473 53.127 26.6309 52.9824 27.3066 52.6934V53.5605C26.9629 53.709 26.6367 53.8145 26.3281 53.877C26.0234 53.9434 25.6543 53.9766 25.2207 53.9766ZM24.957 48.1348C24.4414 48.1348 24.0293 48.3027 23.7207 48.6387C23.416 48.9746 23.2363 49.4395 23.1816 50.0332H26.5391C26.5391 49.4199 26.4023 48.9512 26.1289 48.627C25.8555 48.2988 25.4648 48.1348 24.957 48.1348ZM33.3887 52.1074C33.3887 52.7051 33.166 53.166 32.7207 53.4902C32.2754 53.8145 31.6504 53.9766 30.8457 53.9766C29.9941 53.9766 29.3301 53.8418 28.8535 53.5723V52.6699C29.1621 52.8262 29.4922 52.9492 29.8438 53.0391C30.1992 53.1289 30.541 53.1738 30.8691 53.1738C31.377 53.1738 31.7676 53.0938 32.041 52.9336C32.3145 52.7695 32.4512 52.5215 32.4512 52.1895C32.4512 51.9395 32.3418 51.7266 32.123 51.5508C31.9082 51.3711 31.4863 51.1602 30.8574 50.918C30.2598 50.6953 29.834 50.502 29.5801 50.3379C29.3301 50.1699 29.1426 49.9805 29.0176 49.7695C28.8965 49.5586 28.8359 49.3066 28.8359 49.0137C28.8359 48.4902 29.0488 48.0781 29.4746 47.7773C29.9004 47.4727 30.4844 47.3203 31.2266 47.3203C31.918 47.3203 32.5938 47.4609 33.2539 47.7422L32.9082 48.5332C32.2637 48.2676 31.6797 48.1348 31.1562 48.1348C30.6953 48.1348 30.3477 48.207 30.1133 48.3516C29.8789 48.4961 29.7617 48.6953 29.7617 48.9492C29.7617 49.1211 29.8047 49.2676 29.8906 49.3887C29.9805 49.5098 30.123 49.625 30.3184 49.7344C30.5137 49.8438 30.8887 50.002 31.4434 50.209C32.2051 50.4863 32.7188 50.7656 32.9844 51.0469C33.2539 51.3281 33.3887 51.6816 33.3887 52.1074ZM37.0508 53.1738C37.2227 53.1738 37.3887 53.1621 37.5488 53.1387C37.709 53.1113 37.8359 53.084 37.9297 53.0566V53.8008C37.8242 53.8516 37.668 53.8926 37.4609 53.9238C37.2578 53.959 37.0742 53.9766 36.9102 53.9766C35.668 53.9766 35.0469 53.3223 35.0469 52.0137V48.1934H34.127V47.7246L35.0469 47.3203L35.457 45.9492H36.0195V47.4375H37.8828V48.1934H36.0195V51.9727C36.0195 52.3594 36.1113 52.6562 36.2949 52.8633C36.4785 53.0703 36.7305 53.1738 37.0508 53.1738ZM17.5859 70.1074C17.5859 70.7051 17.3633 71.166 16.918 71.4902C16.4727 71.8145 15.8477 71.9766 15.043 71.9766C14.1914 71.9766 13.5273 71.8418 13.0508 71.5723V70.6699C13.3594 70.8262 13.6895 70.9492 14.041 71.0391C14.3965 71.1289 14.7383 71.1738 15.0664 71.1738C15.5742 71.1738 15.9648 71.0938 16.2383 70.9336C16.5117 70.7695 16.6484 70.5215 16.6484 70.1895C16.6484 69.9395 16.5391 69.7266 16.3203 69.5508C16.1055 69.3711 15.6836 69.1602 15.0547 68.918C14.457 68.6953 14.0312 68.502 13.7773 68.3379C13.5273 68.1699 13.3398 67.9805 13.2148 67.7695C13.0938 67.5586 13.0332 67.3066 13.0332 67.0137C13.0332 66.4902 13.2461 66.0781 13.6719 65.7773C14.0977 65.4727 14.6816 65.3203 15.4238 65.3203C16.1152 65.3203 16.791 65.4609 17.4512 65.7422L17.1055 66.5332C16.4609 66.2676 15.877 66.1348 15.3535 66.1348C14.8926 66.1348 14.5449 66.207 14.3105 66.3516C14.0762 66.4961 13.959 66.6953 13.959 66.9492C13.959 67.1211 14.002 67.2676 14.0879 67.3887C14.1777 67.5098 14.3203 67.625 14.5156 67.7344C14.7109 67.8438 15.0859 68.002 15.6406 68.209C16.4023 68.4863 16.916 68.7656 17.1816 69.0469C17.4512 69.3281 17.5859 69.6816 17.5859 70.1074ZM21.8867 71.9766C20.9375 71.9766 20.1875 71.6875 19.6367 71.1094C19.0898 70.5312 18.8164 69.7285 18.8164 68.7012C18.8164 67.666 19.0703 66.8438 19.5781 66.2344C20.0898 65.625 20.7754 65.3203 21.6348 65.3203C22.4395 65.3203 23.0762 65.5859 23.5449 66.1172C24.0137 66.6445 24.248 67.3418 24.248 68.209V68.8242H19.8242C19.8438 69.5781 20.0332 70.1504 20.3926 70.541C20.7559 70.9316 21.2656 71.127 21.9219 71.127C22.6133 71.127 23.2969 70.9824 23.9727 70.6934V71.5605C23.6289 71.709 23.3027 71.8145 22.9941 71.877C22.6895 71.9434 22.3203 71.9766 21.8867 71.9766ZM21.623 66.1348C21.1074 66.1348 20.6953 66.3027 20.3867 66.6387C20.082 66.9746 19.9023 67.4395 19.8477 68.0332H23.2051C23.2051 67.4199 23.0684 66.9512 22.7949 66.627C22.5215 66.2988 22.1309 66.1348 21.623 66.1348ZM26.8848 71.8594H25.9121V62.7422H26.8848V71.8594ZM29.9199 71.8594H28.9473V62.7422H29.9199V71.8594ZM34.6953 71.9766C33.7461 71.9766 32.9961 71.6875 32.4453 71.1094C31.8984 70.5312 31.625 69.7285 31.625 68.7012C31.625 67.666 31.8789 66.8438 32.3867 66.2344C32.8984 65.625 33.584 65.3203 34.4434 65.3203C35.248 65.3203 35.8848 65.5859 36.3535 66.1172C36.8223 66.6445 37.0566 67.3418 37.0566 68.209V68.8242H32.6328C32.6523 69.5781 32.8418 70.1504 33.2012 70.541C33.5645 70.9316 34.0742 71.127 34.7305 71.127C35.4219 71.127 36.1055 70.9824 36.7812 70.6934V71.5605C36.4375 71.709 36.1113 71.8145 35.8027 71.877C35.498 71.9434 35.1289 71.9766 34.6953 71.9766ZM34.4316 66.1348C33.916 66.1348 33.5039 66.3027 33.1953 66.6387C32.8906 66.9746 32.7109 67.4395 32.6562 68.0332H36.0137C36.0137 67.4199 35.877 66.9512 35.6035 66.627C35.3301 66.2988 34.9395 66.1348 34.4316 66.1348ZM41.6504 65.3203C41.9355 65.3203 42.1914 65.3438 42.418 65.3906L42.2832 66.293C42.0176 66.2344 41.7832 66.2051 41.5801 66.2051C41.0605 66.2051 40.6152 66.416 40.2441 66.8379C39.877 67.2598 39.6934 67.7852 39.6934 68.4141V71.8594H38.7207V65.4375H39.5234L39.6348 66.627H39.6816C39.9199 66.209 40.207 65.8867 40.543 65.6602C40.8789 65.4336 41.248 65.3203 41.6504 65.3203Z" fill="#262626"/>
</svg>
