<svg width="966" height="534" viewBox="0 0 966 534" fill="none" xmlns="http://www.w3.org/2000/svg">
<path fill-rule="evenodd" clip-rule="evenodd" d="M492.963 2.81233e-07C473.192 0.000723043 453.188 1.39456 433.035 4.28694C403.066 8.59001 376.573 13.8493 353.144 19.9742C345.69 21.9196 338.533 23.9544 331.675 26.0785C208.286 64.2579 179.999 129.876 159.737 205.925C159.68 206.138 159.624 206.352 159.567 206.565C159.434 207.063 159.302 207.56 159.173 208.056C159.014 208.656 158.857 209.256 158.699 209.857C158.573 210.339 158.446 210.822 158.319 211.304C157.854 213.104 157.389 214.908 156.923 216.716C155.999 220.341 155.079 223.981 154.164 227.639C153.063 232.035 151.957 236.454 150.845 240.894C148.528 250.119 146.135 259.442 143.541 268.856C142.914 271.115 142.278 273.38 141.631 275.653C141.384 276.528 141.129 277.401 140.874 278.274C140.797 278.539 140.719 278.804 140.642 279.069C139.643 282.482 138.61 285.903 137.542 289.333C136.833 291.619 136.099 293.909 135.342 296.203C133.851 300.795 132.261 305.395 130.574 310.003C129.943 311.738 129.303 313.465 128.646 315.201C128.528 315.512 128.408 315.821 128.288 316.13C128.185 316.397 128.081 316.664 127.979 316.932C127.478 318.248 126.968 319.557 126.45 320.86C126.052 321.861 125.649 322.867 125.237 323.868C124.947 324.586 124.651 325.299 124.343 326.016L124.141 326.505C123.786 327.366 123.428 328.237 123.059 329.078C122.218 331.057 121.355 333.037 120.469 335.018C120.062 335.937 119.651 336.852 119.226 337.771C112 353.669 103.421 369.015 93.5695 383.666C93.0909 384.379 92.6033 385.088 92.1202 385.801C88.7864 390.648 85.2513 395.49 81.515 400.326C80.1761 402.055 78.8104 403.78 77.4178 405.503C76.9526 406.08 76.4846 406.655 76.0134 407.226C75.0741 408.372 74.1168 409.526 73.1507 410.676L71.6836 412.395C71.5984 412.496 71.509 412.598 71.4198 412.698C71.2888 412.846 71.1584 412.994 71.044 413.141C70.9504 413.261 70.8421 413.38 70.7333 413.5C70.6185 413.626 70.5032 413.753 70.4044 413.883C69.8438 414.534 69.2772 415.184 68.7047 415.832C67.6968 416.981 66.6769 418.125 65.6452 419.266C64.0945 420.98 62.5112 422.693 60.895 424.405C57.2153 428.313 53.7161 432.223 50.3972 436.136C49.7665 436.882 49.1401 437.624 48.5229 438.37C45.6871 441.783 42.9885 445.198 40.4271 448.616C40.3026 448.786 40.1755 448.956 40.048 449.126C39.9372 449.273 39.826 449.421 39.7158 449.568C37.3541 452.748 35.1028 455.924 32.9618 459.098C32.8127 459.327 32.6636 459.547 32.5152 459.766C32.3965 459.941 32.2784 460.116 32.1611 460.293L32.0135 460.516C31.6244 461.097 31.2486 461.674 30.8729 462.255C30.4972 462.836 30.193 463.306 29.8531 463.83L29.5221 464.345L28.8511 465.408C28.4844 465.988 28.1221 466.569 27.7643 467.152C27.4735 467.622 27.1828 468.091 26.901 468.565L26.7847 468.751L25.9527 470.14C25.5949 470.742 25.2461 471.335 24.8972 471.929L24.1055 473.297C23.8013 473.825 23.5061 474.348 23.2109 474.876L22.5266 476.112C22.1732 476.747 21.8287 477.378 21.4843 478.008L20.6479 479.57C20.2186 480.373 19.7966 481.175 19.3821 481.978L18.6888 483.325C18.0044 484.669 17.3469 486.013 16.6938 487.356C16.2436 488.296 15.7963 489.236 15.352 490.176L15.2178 490.468C14.9807 490.983 14.7393 491.507 14.5067 492.022C14.2741 492.537 14.0594 493.061 13.8134 493.576C13.7018 493.821 13.5919 494.076 13.4816 494.331C13.4062 494.506 13.3306 494.681 13.2542 494.854C13.2184 494.944 13.1737 495.035 13.1335 495.134C12.9098 495.645 12.6862 496.16 12.4715 496.68C12.2568 497.199 12.0242 497.714 11.8229 498.234C11.398 499.264 10.9775 500.294 10.5705 501.333C10.4673 501.597 10.3641 501.861 10.2615 502.125C10.164 502.377 10.067 502.628 9.97113 502.879C9.74744 503.456 9.5238 504.033 9.31805 504.602L8.79028 506.024L8.29376 507.404C8.27057 507.469 8.24811 507.533 8.22546 507.599C8.19141 507.697 8.15704 507.796 8.11938 507.895C7.80029 508.799 7.48865 509.702 7.18451 510.603C7.18115 510.61 7.17792 510.617 7.1748 510.624C7.16852 510.639 7.16278 510.654 7.15765 510.669L6.81323 511.691L6.78613 511.775C6.74609 511.898 6.70667 512.02 6.67017 512.144C6.63171 512.27 6.59027 512.396 6.5484 512.524C6.51727 512.618 6.48596 512.713 6.45544 512.808L6.17365 513.686C6.01257 514.201 5.84705 514.716 5.68604 515.227C5.57422 515.594 5.45795 515.961 5.35059 516.328L5.32794 516.403C5.29095 516.525 5.25446 516.646 5.22095 516.769C5.08228 517.214 4.94806 517.663 4.8183 518.108C4.8183 518.146 4.80334 518.187 4.78864 518.227C4.77924 518.253 4.76996 518.278 4.76471 518.302C4.61713 518.817 4.46503 519.329 4.31744 519.84L4.26367 520.021C4.24353 520.079 4.22711 520.139 4.21082 520.199C4.20178 520.232 4.19281 520.265 4.18323 520.297C4.16077 520.373 4.12897 520.495 4.10089 520.603L4.08484 520.664L4.06433 520.737C4.00409 520.951 3.94464 521.162 3.8924 521.377C3.83429 521.616 3.73151 521.942 3.65991 522.201L3.47644 522.886C3.35504 523.339 3.23621 523.798 3.11798 524.254L3.00232 524.699C2.94861 524.918 2.89502 525.14 2.8324 525.359C2.76978 525.577 2.73395 525.771 2.68921 525.952C2.67114 526.026 2.65314 526.099 2.63422 526.173C2.62036 526.227 2.60602 526.281 2.59082 526.335C2.51031 526.661 2.43427 526.983 2.35822 527.3C2.25092 527.749 2.14355 528.203 2.04071 528.652C2.0094 528.771 1.98254 528.887 1.95575 529.01C1.91364 529.196 1.87085 529.381 1.82812 529.565C1.76202 529.851 1.69623 530.135 1.63367 530.42C1.61389 530.505 1.59521 530.59 1.57654 530.676C1.55719 530.764 1.53784 530.853 1.5174 530.944C1.495 531.059 1.46814 531.174 1.44574 531.294C1.31458 531.882 1.19153 532.468 1.06818 533.055C1.03162 533.229 0.995056 533.403 0.958252 533.577C0.958252 533.635 0.935852 533.701 0.922485 533.759L0.875305 534H959.992C959.997 533.964 960.003 533.927 960.009 533.889C960.034 533.728 960.06 533.562 960.089 533.421C960.244 532.506 960.393 531.591 960.536 530.676V530.531C960.547 530.485 960.556 530.438 960.563 530.391L960.724 529.336C960.737 529.263 960.747 529.19 960.758 529.118C960.77 529.04 960.781 528.964 960.795 528.887V528.759C960.806 528.686 960.818 528.613 960.83 528.539C960.851 528.409 960.872 528.279 960.889 528.157C960.929 527.922 960.965 527.683 961.001 527.444C961.037 527.205 961.068 526.995 961.099 526.772C961.149 526.467 961.193 526.158 961.234 525.849C961.305 525.408 961.368 524.971 961.426 524.526L961.426 524.524C961.471 524.224 961.515 523.924 961.556 523.623L961.632 523.1V523.03C961.681 522.704 961.726 522.375 961.766 522.049C961.766 521.981 961.779 521.912 961.791 521.844C961.798 521.805 961.806 521.766 961.811 521.727C961.882 521.232 961.946 520.734 962.01 520.238L962.021 520.153L962.115 519.419C962.176 518.951 962.235 518.473 962.295 517.992C962.34 517.627 962.386 517.26 962.432 516.897L962.526 516.072L962.527 516.065C962.598 515.486 962.67 514.908 962.732 514.329C962.777 513.958 962.821 513.583 962.862 513.208L962.951 512.429V512.367C962.951 512.284 962.964 512.204 962.976 512.123C962.984 512.076 962.991 512.028 962.996 511.979C963.067 511.353 963.13 510.743 963.188 510.096C963.188 510.026 963.199 509.955 963.21 509.883C963.217 509.833 963.225 509.783 963.229 509.733C963.273 509.321 963.313 508.938 963.349 508.542C963.365 508.396 963.378 508.25 963.392 508.105C963.405 507.96 963.419 507.814 963.434 507.668C963.458 507.422 963.482 507.177 963.506 506.933C963.529 506.709 963.551 506.484 963.573 506.259C963.797 503.937 963.992 501.617 964.159 499.301C964.177 499.066 964.192 498.831 964.208 498.596C964.224 498.361 964.239 498.126 964.257 497.891L964.275 497.642C964.318 497.034 964.361 496.432 964.4 495.831L964.427 495.418C964.494 494.347 964.561 493.267 964.62 492.191V492.043C964.62 491.92 964.629 491.797 964.639 491.673C964.645 491.59 964.652 491.505 964.655 491.42C964.7 490.662 964.74 489.891 964.776 489.133V488.861V488.704C964.776 488.543 964.776 488.383 964.803 488.222V487.756C964.843 486.969 964.879 486.186 964.906 485.399V485.398C964.906 485.208 964.906 485.015 964.928 484.822C964.928 484.434 964.945 484.055 964.962 483.671C964.973 483.43 964.984 483.187 964.991 482.938C964.991 482.733 965 482.532 965.01 482.329C965.017 482.193 965.023 482.057 965.027 481.92L965.058 480.836C965.058 480.388 965.073 479.938 965.088 479.487C965.093 479.337 965.098 479.186 965.103 479.035V477.835V477.724V477.361C965.103 477.044 965.103 476.731 965.125 476.417V475.919V474.843V473.528V471.681V469.312V469.31C965.125 467.551 965.125 465.795 965.08 464.036V463.999C965.053 462.589 965.021 461.181 964.982 459.774V459.745C964.982 459.178 964.959 458.611 964.936 458.044C964.93 457.902 964.925 457.76 964.919 457.618C964.879 456.237 964.825 454.857 964.767 453.496V453.385V453.336C964.736 452.652 964.7 451.963 964.664 451.275V451.254C964.637 450.545 964.597 449.836 964.557 449.127C964.542 448.87 964.528 448.61 964.514 448.349C964.489 447.892 964.465 447.432 964.436 446.976V446.72V446.72C964.436 446.555 964.436 446.386 964.405 446.222C964.405 445.949 964.382 445.672 964.359 445.397C964.35 445.29 964.341 445.182 964.333 445.076V444.734L964.199 442.768C964.11 441.465 964.011 440.154 963.908 438.852C963.908 438.765 963.898 438.676 963.888 438.59C963.882 438.539 963.876 438.488 963.873 438.44C963.819 437.764 963.765 437.092 963.703 436.42C963.631 435.534 963.551 434.648 963.47 433.766V433.704C963.389 432.816 963.305 431.932 963.215 431.05C963.117 430.023 963.009 428.989 962.898 427.975L962.874 427.753C962.784 426.89 962.692 426.021 962.593 425.16C962.405 423.547 962.212 421.936 962.012 420.329C961.899 419.439 961.784 418.547 961.667 417.654C961.551 416.761 961.43 415.871 961.305 414.983C961.232 414.448 961.154 413.911 961.077 413.375C961.041 413.127 961.005 412.878 960.97 412.63C960.815 411.55 960.654 410.47 960.487 409.39L960.42 408.945L960.318 408.3C960.249 407.858 960.18 407.417 960.111 406.979C959.972 406.084 959.825 405.198 959.664 404.312C959.574 403.733 959.476 403.152 959.379 402.572C959.35 402.4 959.321 402.229 959.292 402.057C959.279 401.989 959.268 401.92 959.257 401.851C959.245 401.782 959.234 401.713 959.221 401.645L959.221 401.644C959.069 400.758 958.917 399.872 958.773 398.983C958.661 398.283 958.529 397.587 958.397 396.893C958.362 396.705 958.326 396.517 958.29 396.328C957.637 392.784 956.937 389.247 956.188 385.719C956.05 385.059 955.911 384.4 955.741 383.736C955.628 383.294 955.542 382.877 955.457 382.46C955.414 382.252 955.371 382.044 955.325 381.832L955.298 381.709L955.244 381.469C954.954 380.159 954.658 378.84 954.35 377.529C954.275 377.215 954.202 376.902 954.128 376.588C954.038 376.206 953.949 375.824 953.858 375.443C953.837 375.356 953.817 375.268 953.797 375.18C953.761 375.019 953.724 374.857 953.683 374.697L953.236 372.785C952.83 371.112 952.412 369.438 951.979 367.765C951.823 367.134 951.657 366.499 951.487 365.865C951.441 365.679 951.393 365.495 951.343 365.309C951.311 365.186 951.278 365.062 951.246 364.937C950.53 362.217 949.784 359.503 949.009 356.797C948.963 356.636 948.918 356.475 948.873 356.315C948.749 355.879 948.627 355.446 948.499 355.012C948.325 354.419 948.191 353.94 948.052 353.405C947.959 353.082 947.862 352.76 947.765 352.438C947.639 352.019 947.513 351.6 947.394 351.179C947.224 350.596 947.05 350.015 946.871 349.435C946.662 348.729 946.446 348.022 946.223 347.313C946.048 346.723 945.865 346.134 945.677 345.545C945.01 343.405 944.335 341.262 943.628 339.131L943.625 339.122C943.38 338.375 943.135 337.628 942.886 336.889C942.289 335.141 941.693 333.395 941.097 331.65L940.954 331.242C940.612 330.264 940.27 329.284 939.92 328.308C939.848 328.104 939.776 327.899 939.704 327.694C939.55 327.257 939.396 326.818 939.231 326.383C937.371 321.228 935.415 316.098 933.363 310.992C932.728 309.398 932.081 307.807 931.422 306.219C930.545 304.109 929.651 302.001 928.738 299.897C928.608 299.592 928.474 299.282 928.34 298.982C928.277 298.829 928.215 298.677 928.143 298.524C928.072 298.372 928.005 298.219 927.942 298.066L927.571 297.217C927.45 296.933 927.325 296.653 927.199 296.372C927.125 296.204 927.051 296.034 926.977 295.864C926.782 295.418 926.587 294.972 926.39 294.542C926.375 294.507 926.359 294.472 926.344 294.437C926.305 294.347 926.266 294.255 926.224 294.163C925.994 293.664 925.765 293.151 925.536 292.637C925.387 292.302 925.238 291.968 925.088 291.637C924.708 290.796 924.377 290.074 924.015 289.287C922.923 286.913 921.811 284.546 920.678 282.186C920.396 281.592 920.11 281.003 919.819 280.409C919.435 279.61 919.042 278.812 918.649 278.013L918.647 278.01L917.399 275.479C916.529 273.745 915.651 272.025 914.761 270.282L914.563 269.895C914.465 269.697 914.362 269.499 914.255 269.301C914.01 268.818 913.759 268.338 913.507 267.856C913.4 267.651 913.293 267.446 913.186 267.24C912.252 265.454 911.307 263.668 910.35 261.882C909.965 261.161 909.572 260.435 909.178 259.718C908.128 257.795 907.059 255.871 905.971 253.948C905.873 253.766 905.774 253.585 905.671 253.408C905.623 253.316 905.573 253.228 905.524 253.142C905.5 253.1 905.476 253.058 905.452 253.016C905.133 252.447 904.813 251.88 904.491 251.314C903.963 250.388 903.43 249.462 902.894 248.536L902.892 248.534C902.414 247.71 901.936 246.886 901.449 246.063C901.214 245.666 900.971 245.252 900.725 244.833C900.461 244.382 900.193 243.925 899.928 243.478C897.856 239.994 895.74 236.531 893.581 233.088C893.522 232.993 893.462 232.899 893.403 232.804C893.123 232.36 892.845 231.918 892.561 231.476L892.499 231.373C892.208 230.907 891.913 230.446 891.604 229.984C891.338 229.582 891.083 229.178 890.829 228.776C890.656 228.502 890.483 228.228 890.307 227.956L890.234 227.843C889.83 227.217 889.47 226.659 889.081 226.068C886.174 221.6 883.192 217.174 880.136 212.788C879.621 212.042 879.098 211.296 878.575 210.558L877.984 209.734C877.828 209.511 877.676 209.293 877.537 209.079C877.113 208.477 876.687 207.876 876.258 207.277C875.903 206.764 875.528 206.253 875.154 205.743C875.056 205.61 874.959 205.477 874.862 205.344C874.307 204.569 873.747 203.797 873.18 203.028L872.626 202.265L871.159 200.275C869.826 198.483 868.484 196.697 867.133 194.916C866.765 194.417 866.378 193.918 865.993 193.421C865.911 193.315 865.828 193.209 865.746 193.103C864.396 191.352 863.036 189.606 861.667 187.864C861.256 187.337 860.84 186.809 860.419 186.281C856.686 181.591 852.867 176.961 848.964 172.391C848.793 172.188 848.62 171.987 848.447 171.785C848.37 171.696 848.294 171.607 848.217 171.517C847.928 171.177 847.637 170.838 847.346 170.5C847.039 170.143 846.732 169.786 846.428 169.428C845.038 167.82 843.637 166.222 842.223 164.634C841.974 164.356 841.725 164.076 841.476 163.797C841.15 163.43 840.824 163.063 840.497 162.701C839.084 161.127 837.661 159.56 836.23 158.002C835.574 157.285 834.913 156.571 834.248 155.859C833.521 155.076 832.79 154.295 832.057 153.518C831.847 153.297 831.639 153.076 831.43 152.856C830.943 152.342 830.458 151.829 829.972 151.313C829.444 150.769 828.921 150.22 828.393 149.664C827.329 148.565 826.26 147.466 825.186 146.367C824.641 145.817 824.093 145.261 823.545 144.697C822.869 144.005 822.203 143.325 821.509 142.637C820.019 141.144 818.528 139.663 817.037 138.193L814.831 136.054C814.461 135.693 814.083 135.331 813.708 134.974L813.691 134.958C813.205 134.482 812.714 134.012 812.219 133.548C810.869 132.262 809.513 130.984 808.153 129.715C723.791 51.0313 612.646 0.00437434 492.993 2.81233e-07C492.983 -9.37418e-08 492.973 -9.37467e-08 492.963 2.81233e-07Z" fill="url(#paint0_radial)"/>
<path d="M313.638 315.865L255.124 287.749C258.835 287.61 262.795 287.471 266.572 287.341C278.007 286.947 289.47 286.519 301.391 286.21C356.046 284.796 473.599 286.592 532.465 287.426C546.603 287.626 560.612 287.9 574.426 288.247L574.236 315.865H313.638Z" fill="#FFD57A"/>
<path d="M489.172 307.295H426.513L426.71 314.246H513.258L512.473 310.481L489.172 307.295Z" fill="black"/>
<path fill-rule="evenodd" clip-rule="evenodd" d="M314.093 534H574.379L574.236 314.43H314.093V534Z" fill="#FFB719"/>
<path opacity="0.33" fill-rule="evenodd" clip-rule="evenodd" d="M414.932 534H573.898V335.447C561.454 332.646 553.753 333.913 553.753 333.913C553.753 333.913 510.499 472.806 414.932 534Z" fill="#FFC850"/>
<path fill-rule="evenodd" clip-rule="evenodd" d="M255.454 534H324.164V312.99L312.946 308.827L255.454 287.49V534Z" fill="#FFC850"/>
<path d="M355.417 314.009L372.432 250.039L400.514 253.596L398.139 302.559L425.043 311.643L424.65 314.009H355.417Z" fill="#004A66"/>
<path d="M357.84 314.009L374.85 250.039L402.932 253.596L400.562 302.559L427.461 311.643L427.068 314.009H357.84Z" fill="#005D80"/>
<path d="M401.345 284.378L402.555 253.596L373.027 250.039L360.894 294.604L401.345 284.378Z" fill="#004A66"/>
<path d="M280.981 251.884C280.909 256.38 282.459 260.752 285.347 264.202C288.176 267.476 292.023 269.315 296.039 269.315H481.785C490.103 269.315 496.844 261.578 496.844 252.037V129.283C496.844 119.737 490.103 112 481.785 112H296.965C288.7 112 281.981 119.65 281.911 129.13L280.981 251.884Z" fill="#004A66"/>
<path d="M402.781 137.87C436.692 137.87 468.678 141.928 496.844 149.098V129.283C496.844 119.737 490.103 112 481.785 112H296.965C288.7 112 281.981 119.65 281.911 129.13L281.697 157.349C315.604 145.11 357.483 137.87 402.781 137.87Z" fill="#0082B2"/>
<path d="M289.752 251.882C289.672 256.349 291.152 260.704 293.939 264.2C296.65 267.473 300.344 269.317 304.199 269.317H482.396C490.373 269.317 496.844 261.58 496.844 252.034V129.28C496.844 119.735 490.373 112.002 482.396 112.002H305.09C297.157 112.002 290.708 119.647 290.643 129.132L289.752 251.882Z" fill="#005D80"/>
<path d="M496.844 129.28C496.844 119.735 490.373 112.002 482.396 112.002H450.59L320.402 269.317H424.149L496.844 141.463V129.28Z" fill="#0082B3"/>
<path d="M496.844 239.581V129.302C496.844 119.756 490.373 112.023 482.396 112.023H305.09C297.157 112.023 290.708 119.669 290.643 129.154L289.84 239.603L496.844 239.581Z" fill="#005D80"/>
<path d="M492.914 126.454C492.914 121.389 489.373 115.766 485.007 115.766H304.758C299.995 115.766 296.131 121.763 296.131 127.286V236.654H492.914V126.454Z" fill="#45DBFF"/>
<g clip-path="url(#clip0)">
<path d="M408.85 203.924C408.601 203.101 408.419 202.258 408.305 201.404C408.192 200.617 408.108 199.747 408.056 198.818C402.76 199.361 397.442 199.623 392.121 199.604C389.192 199.604 386.292 199.531 383.5 199.389C380.649 199.243 377.961 199.026 375.512 198.743C375.461 199.678 375.379 200.553 375.268 201.343C375.155 202.205 374.973 203.057 374.725 203.888C374.163 205.681 373.344 206.59 372.289 206.59C371.141 206.59 370.136 205.476 369.302 203.28C368.585 201.394 368.138 199.074 367.889 197.46C367.491 197.363 367.104 197.261 366.742 197.159C366.235 196.989 365.796 196.651 365.491 196.197C365.14 195.709 364.883 195.155 364.733 194.566C364.616 194.138 364.574 193.692 364.609 193.248C364.626 193.057 364.669 192.87 364.737 192.691C364.798 192.529 364.889 192.381 365.006 192.256L365.008 192.257C364.618 191.215 364.338 190.133 364.174 189.028C363.998 187.908 363.891 186.777 363.854 185.643C363.818 184.72 363.837 183.796 363.91 182.876C363.976 182.14 364.083 181.638 364.203 181.499C364.208 181.495 364.213 181.492 364.219 181.49L369.177 177.002L369.475 176.345L368.706 175.422C368.541 175.656 368.302 175.822 368.031 175.89C367.479 175.991 366.919 176.036 366.358 176.025C365.603 176.027 364.849 175.968 364.103 175.849C363.349 175.718 362.847 175.532 362.654 175.31C362.622 175.277 362.598 175.238 362.582 175.195C362.567 175.152 362.56 175.106 362.563 175.061C362.603 174.643 363.402 173.697 364.423 172.86C364.931 172.437 365.478 172.068 366.057 171.759C366.54 171.481 367.077 171.319 367.628 171.287C367.769 171.286 367.909 171.305 368.045 171.344C368.309 171.422 368.546 171.579 368.727 171.795C368.909 172.018 369.044 172.277 369.123 172.557C369.293 173.167 369.303 173.813 369.152 174.427L370.157 174.841L376.333 161.23C376.874 160.037 377.73 159.028 378.802 158.321C379.874 157.615 381.117 157.24 382.386 157.239H402.581C403.896 157.239 405.182 157.642 406.279 158.397C407.375 159.153 408.232 160.227 408.744 161.487L414.182 174.842L415.188 174.428C415.036 173.814 415.046 173.168 415.216 172.558C415.295 172.278 415.43 172.018 415.613 171.796C415.793 171.58 416.03 171.423 416.295 171.345C416.431 171.306 416.571 171.287 416.712 171.288C417.263 171.32 417.801 171.481 418.284 171.76C418.863 172.069 419.41 172.437 419.918 172.86C420.938 173.697 421.738 174.644 421.779 175.061C421.782 175.107 421.775 175.153 421.76 175.195C421.744 175.238 421.72 175.277 421.689 175.309C421.495 175.532 420.994 175.718 420.239 175.848C419.492 175.968 418.738 176.027 417.983 176.024C417.422 176.035 416.862 175.99 416.31 175.89C416.039 175.821 415.8 175.656 415.635 175.422L414.818 176.402L415.062 177.001L419.926 180.958C419.939 180.962 419.951 180.972 419.959 180.984V180.985V180.986C419.987 181.039 420.001 181.098 420.001 181.158C420.045 181.404 420.092 181.86 420.126 182.377C420.185 183.27 420.207 184.31 420.189 185.309C420.172 186.515 420.086 187.718 419.932 188.913C419.795 190.077 419.529 191.22 419.142 192.321C419.172 192.301 419.201 192.279 419.23 192.256C419.489 192.461 419.669 192.754 419.739 193.083C419.817 193.446 419.818 193.822 419.743 194.185C419.68 194.517 419.579 194.84 419.442 195.147C419.303 195.463 419.131 195.762 418.929 196.039C418.58 196.563 418.077 196.956 417.497 197.16C416.926 197.321 416.303 197.477 415.647 197.624C415.49 198.624 415.306 199.573 415.103 200.447C414.878 201.441 414.585 202.419 414.227 203.371C413.399 205.507 412.405 206.59 411.274 206.59C410.227 206.59 409.412 205.693 408.85 203.924ZM403.334 190.267C403.131 190.478 403.005 190.756 402.977 191.053C402.949 191.35 403.021 191.648 403.18 191.896C403.34 192.144 403.577 192.327 403.852 192.413C404.127 192.5 404.422 192.485 404.687 192.371C404.952 192.256 405.171 192.05 405.306 191.787C405.442 191.524 405.485 191.22 405.429 190.927C405.373 190.634 405.221 190.371 404.999 190.182C404.777 189.992 404.499 189.889 404.212 189.889C404.049 189.889 403.887 189.922 403.737 189.987C403.586 190.052 403.449 190.147 403.334 190.267ZM379.304 190.267C379.102 190.478 378.975 190.756 378.947 191.053C378.919 191.35 378.991 191.648 379.151 191.896C379.31 192.144 379.548 192.326 379.822 192.413C380.097 192.5 380.392 192.484 380.657 192.37C380.922 192.256 381.141 192.05 381.276 191.787C381.412 191.523 381.455 191.22 381.399 190.927C381.343 190.634 381.191 190.371 380.969 190.182C380.747 189.992 380.469 189.889 380.182 189.889C380.019 189.889 379.858 189.922 379.707 189.987C379.556 190.052 379.419 190.147 379.304 190.267V190.267ZM413.318 183.389C412.513 183.686 411.739 184.065 411.006 184.522C410.305 184.952 409.64 185.443 409.019 185.99C408.522 186.414 408.082 186.905 407.708 187.449L407.7 187.457L407.692 187.472C407.675 187.5 407.661 187.526 407.648 187.552V187.554L407.646 187.556L407.645 187.559V187.561C407.634 187.582 407.624 187.601 407.612 187.621C407.557 187.719 407.508 187.822 407.468 187.928C407.449 187.978 407.433 188.029 407.421 188.081C407.4 188.163 407.39 188.248 407.39 188.333C407.39 188.345 407.39 188.358 407.39 188.369V188.373C407.389 188.398 407.391 188.423 407.396 188.448C407.413 188.557 407.464 188.656 407.54 188.732C407.719 188.878 407.921 188.988 408.138 189.057C408.208 189.082 408.288 189.107 408.359 189.128H408.362C408.585 189.195 408.812 189.248 409.041 189.287C409.077 189.292 409.111 189.299 409.151 189.306H409.153C409.195 189.314 409.239 189.322 409.285 189.328C409.627 189.377 409.981 189.409 410.336 189.426C410.403 189.429 410.475 189.429 410.532 189.43H410.574H410.626C410.805 189.437 410.987 189.44 411.166 189.44C411.274 189.44 411.384 189.439 411.492 189.437C411.639 189.434 411.779 189.431 411.937 189.424C412.209 189.413 412.461 189.398 412.706 189.377C412.76 189.373 412.813 189.369 412.859 189.366H412.861H412.869C412.946 189.361 413.026 189.356 413.103 189.348C413.408 189.318 413.712 189.28 414.009 189.236L414.019 189.23C414.91 189.092 415.548 188.919 415.865 188.729C416.453 188.33 416.958 187.812 417.35 187.205C417.798 186.586 418.091 185.863 418.204 185.098C418.234 184.837 418.212 184.572 418.14 184.32C418.065 184.074 417.927 183.854 417.742 183.683C417.146 183.163 416.385 182.894 415.608 182.93C414.825 182.951 414.052 183.106 413.318 183.389V183.389ZM367.794 182.999C367.273 183.088 366.785 183.326 366.387 183.687C366.201 183.858 366.063 184.079 365.989 184.325C365.917 184.577 365.895 184.842 365.924 185.103C366.038 185.868 366.332 186.591 366.779 187.21C367.171 187.816 367.677 188.334 368.266 188.732C368.581 188.922 369.217 189.095 370.109 189.233L370.119 189.239C370.419 189.282 370.723 189.321 371.025 189.351C371.103 189.359 371.183 189.364 371.26 189.369H371.268H371.27C371.331 189.373 371.379 189.377 371.423 189.38C371.667 189.4 371.919 189.416 372.194 189.427C372.352 189.434 372.496 189.438 372.636 189.44C372.744 189.442 372.854 189.443 372.962 189.443C373.142 189.443 373.324 189.44 373.503 189.433L373.594 189.432C373.652 189.432 373.723 189.43 373.792 189.427C374.145 189.411 374.5 189.378 374.844 189.33C374.886 189.323 374.924 189.316 374.962 189.309H374.964L374.972 189.308C375.008 189.301 375.046 189.294 375.086 189.288C375.315 189.249 375.542 189.196 375.765 189.129H375.768C375.834 189.109 375.917 189.083 375.991 189.057C376.208 188.988 376.409 188.878 376.587 188.733C376.664 188.657 376.715 188.557 376.732 188.448C376.738 188.417 376.74 188.386 376.738 188.354V188.352C376.738 188.349 376.738 188.346 376.738 188.343V188.334C376.74 188.249 376.73 188.163 376.707 188.081C376.696 188.03 376.681 187.979 376.663 187.929C376.621 187.823 376.572 187.72 376.516 187.621C376.503 187.6 376.492 187.578 376.481 187.556V187.555C376.468 187.529 376.455 187.502 376.438 187.474L376.429 187.459L376.419 187.45C376.046 186.906 375.606 186.416 375.109 185.992C374.488 185.444 373.824 184.953 373.122 184.524C372.39 184.067 371.615 183.688 370.81 183.392C370.772 183.378 370.733 183.364 370.691 183.35C369.596 183.242 368.622 183.125 367.794 182.999V182.999ZM403.736 183.657C400.417 183.817 396.858 183.923 393.158 183.971C393.031 184.349 392.949 184.741 392.914 185.139C392.829 185.962 392.86 186.794 393.006 187.607C393.063 187.941 393.165 188.265 393.309 188.569C393.4 188.791 393.57 188.968 393.784 189.061C394.049 189.136 394.324 189.17 394.599 189.162C395.427 189.134 396.251 189.022 397.058 188.827C397.965 188.627 398.966 188.347 399.954 188.018C400.817 187.736 401.664 187.404 402.492 187.024C403.225 186.678 403.704 186.371 403.877 186.137C404.022 185.923 404.12 185.677 404.163 185.419C404.219 185.132 404.227 184.836 404.189 184.546C404.166 184.37 404.118 184.2 404.045 184.04C403.98 183.895 403.882 183.769 403.759 183.673C403.751 183.668 403.743 183.662 403.736 183.657ZM380.35 184.039C380.277 184.199 380.228 184.37 380.205 184.545C380.167 184.836 380.175 185.131 380.231 185.418C380.275 185.677 380.372 185.922 380.517 186.137C380.69 186.37 381.169 186.677 381.903 187.023C382.73 187.404 383.577 187.735 384.44 188.017C385.428 188.347 386.43 188.627 387.336 188.827C388.143 189.022 388.967 189.134 389.796 189.161C390.07 189.17 390.345 189.136 390.61 189.061C390.824 188.967 390.995 188.791 391.086 188.569C391.23 188.266 391.332 187.942 391.389 187.609C391.535 186.796 391.566 185.965 391.481 185.143C391.446 184.75 391.367 184.363 391.244 183.99C390.397 183.997 389.544 184 388.71 184C385.823 184 383.039 183.962 380.435 183.889C380.403 183.936 380.375 183.987 380.35 184.039V184.039ZM412.105 175.786L406.603 162.299C406.156 161.203 405.409 160.269 404.454 159.612C403.5 158.955 402.38 158.605 401.235 158.606H383.638C382.533 158.606 381.451 158.932 380.518 159.546C379.584 160.161 378.838 161.038 378.366 162.076L372.133 175.786C375.585 175.511 378.736 175.315 381.767 175.188C384.662 175.067 387.46 175.008 390.321 175.008C396.939 175.008 403.243 175.316 412.105 175.786L412.105 175.786Z" fill="white"/>
<path d="M380.762 155.104C380.794 155.352 380.897 155.584 381.058 155.771C381.219 155.957 381.43 156.09 381.663 156.151L387.121 157.57C387.176 157.584 387.225 157.617 387.26 157.663C387.295 157.709 387.314 157.766 387.315 157.824C387.315 157.883 387.296 157.94 387.262 157.986C387.227 158.033 387.179 158.066 387.124 158.081L381.66 159.502C381.427 159.562 381.216 159.695 381.056 159.881C380.896 160.068 380.793 160.3 380.761 160.548L379.314 171.587C379.306 171.65 379.276 171.708 379.23 171.75C379.184 171.792 379.125 171.815 379.064 171.815C379.002 171.815 378.943 171.792 378.897 171.75C378.851 171.708 378.821 171.65 378.813 171.587L377.366 160.548C377.334 160.3 377.231 160.068 377.071 159.881C376.911 159.695 376.7 159.563 376.467 159.502L371.003 158.081C370.948 158.067 370.899 158.034 370.864 157.988C370.829 157.942 370.811 157.885 370.811 157.826C370.811 157.767 370.829 157.71 370.864 157.664C370.899 157.618 370.948 157.585 371.003 157.571L376.467 156.15C376.7 156.089 376.911 155.957 377.071 155.77C377.231 155.584 377.334 155.351 377.366 155.104L378.813 144.064C378.821 144.001 378.85 143.943 378.897 143.901C378.943 143.859 379.002 143.836 379.063 143.836C379.125 143.836 379.184 143.859 379.23 143.901C379.276 143.943 379.306 144.001 379.314 144.064C379.764 147.499 380.672 154.423 380.762 155.104Z" fill="#FFC850"/>
<path d="M394.156 160.796C394.033 160.766 393.921 160.698 393.835 160.601C393.749 160.504 393.693 160.382 393.674 160.251C393.535 159.212 393.178 156.558 392.956 154.909C392.951 154.861 392.928 154.816 392.894 154.784C392.859 154.752 392.813 154.735 392.767 154.735C392.72 154.736 392.676 154.754 392.641 154.787C392.607 154.82 392.586 154.865 392.581 154.913L391.864 160.251C391.846 160.382 391.791 160.503 391.705 160.6C391.62 160.697 391.508 160.766 391.385 160.796L388.701 161.476C388.66 161.486 388.622 161.51 388.596 161.545C388.569 161.58 388.555 161.623 388.555 161.667C388.555 161.712 388.569 161.755 388.596 161.79C388.622 161.824 388.66 161.848 388.701 161.858L391.384 162.537C391.507 162.568 391.619 162.636 391.704 162.733C391.79 162.83 391.845 162.951 391.864 163.082L392.581 168.42C392.586 168.469 392.607 168.514 392.642 168.547C392.677 168.579 392.722 168.598 392.769 168.598C392.816 168.598 392.861 168.579 392.896 168.547C392.93 168.514 392.952 168.469 392.957 168.42L393.674 163.081C393.692 162.951 393.748 162.83 393.833 162.733C393.919 162.636 394.03 162.567 394.154 162.537L396.837 161.857C396.879 161.847 396.916 161.822 396.943 161.787C396.969 161.753 396.984 161.709 396.983 161.665C396.983 161.62 396.968 161.577 396.941 161.542C396.914 161.508 396.877 161.484 396.835 161.474L394.156 160.796Z" fill="#FFF082"/>
<path d="M379.314 171.586L380.589 161.861C379.377 159.246 378.358 156.54 377.541 153.765L377.366 155.103C377.334 155.351 377.231 155.583 377.071 155.77C376.911 155.957 376.7 156.089 376.467 156.15L371.003 157.571C370.948 157.585 370.899 157.618 370.864 157.664C370.829 157.71 370.811 157.767 370.811 157.826C370.811 157.884 370.829 157.941 370.864 157.988C370.899 158.034 370.948 158.066 371.003 158.08L376.467 159.501C376.7 159.562 376.911 159.695 377.071 159.881C377.231 160.068 377.334 160.3 377.366 160.548L378.813 171.586C378.821 171.649 378.851 171.707 378.897 171.749C378.943 171.79 379.002 171.814 379.063 171.814C379.124 171.814 379.184 171.791 379.23 171.749C379.276 171.707 379.306 171.649 379.314 171.586V171.586Z" fill="#F0AD19"/>
<path d="M390.282 144.545C390.128 144.508 389.989 144.425 389.882 144.306C389.775 144.186 389.704 144.036 389.68 143.874C389.496 142.522 389.008 138.948 388.737 136.963C388.731 136.915 388.708 136.871 388.673 136.84C388.639 136.808 388.594 136.791 388.548 136.791C388.502 136.791 388.458 136.808 388.423 136.84C388.388 136.871 388.366 136.915 388.36 136.963L387.416 143.873C387.393 144.035 387.323 144.185 387.216 144.304C387.11 144.424 386.971 144.507 386.818 144.544L383.287 145.425C383.246 145.435 383.208 145.459 383.182 145.494C383.155 145.529 383.141 145.572 383.141 145.616C383.141 145.661 383.155 145.704 383.182 145.738C383.208 145.773 383.246 145.797 383.287 145.807L386.818 146.689C386.971 146.725 387.11 146.809 387.217 146.928C387.324 147.047 387.394 147.198 387.417 147.359L388.358 154.25C388.365 154.298 388.387 154.342 388.422 154.374C388.458 154.405 388.503 154.423 388.549 154.423C388.596 154.423 388.641 154.405 388.676 154.374C388.711 154.342 388.734 154.298 388.74 154.25L389.681 147.359C389.705 147.197 389.774 147.047 389.881 146.928C389.988 146.808 390.127 146.725 390.28 146.689L393.808 145.808C393.85 145.798 393.886 145.773 393.913 145.738C393.939 145.703 393.953 145.659 393.953 145.615C393.952 145.571 393.938 145.528 393.911 145.493C393.884 145.458 393.847 145.434 393.806 145.424L390.282 144.545Z" fill="#FFDC64"/>
<path d="M387.501 143.254L387.417 143.875C387.393 144.036 387.324 144.186 387.217 144.305C387.11 144.425 386.971 144.508 386.818 144.544L383.287 145.426C383.246 145.436 383.208 145.46 383.182 145.495C383.155 145.53 383.141 145.573 383.141 145.617C383.141 145.661 383.155 145.704 383.182 145.739C383.208 145.774 383.246 145.798 383.287 145.808L386.818 146.689C386.971 146.725 387.11 146.809 387.217 146.928C387.324 147.048 387.393 147.198 387.417 147.359L388.358 154.25C388.365 154.298 388.388 154.341 388.423 154.373C388.458 154.404 388.503 154.422 388.549 154.422C388.595 154.422 388.64 154.404 388.675 154.373C388.71 154.341 388.733 154.298 388.74 154.25L389.582 148.083C388.623 146.612 387.919 144.977 387.501 143.254V143.254Z" fill="#FFC850"/>
<path d="M391.864 163.082L392.582 168.421C392.588 168.468 392.61 168.511 392.645 168.542C392.679 168.574 392.724 168.591 392.769 168.591C392.815 168.591 392.859 168.574 392.894 168.542C392.928 168.511 392.951 168.468 392.957 168.421L393.63 163.418C392.792 162.412 392.201 161.209 391.91 159.913L391.864 160.252C391.846 160.383 391.79 160.504 391.705 160.601C391.62 160.698 391.508 160.766 391.385 160.797L388.701 161.477C388.66 161.487 388.622 161.511 388.596 161.546C388.569 161.581 388.555 161.624 388.555 161.668C388.555 161.713 388.569 161.756 388.596 161.79C388.622 161.825 388.66 161.849 388.701 161.859L391.385 162.54C391.508 162.57 391.619 162.637 391.705 162.734C391.79 162.831 391.846 162.952 391.864 163.082V163.082Z" fill="#FFDC64"/>
</g>
<path opacity="0.29" d="M407.946 117.758L295.498 219.027V238.646H342.887L447.441 117.758H407.946Z" fill="white"/>
<path opacity="0.29" d="M492.285 128.451C492.281 127.98 492.249 127.51 492.189 127.043L415.87 238.63H470.354L492.285 202.482V128.451Z" fill="white"/>
<path d="M383.117 249.328H412.273V253.613H383.117V249.328Z" fill="#D2D7DB"/>
<path d="M554.946 293.282L557.477 292.117C556.608 292.447 555.762 292.837 554.946 293.282V293.282Z" stroke="#6D378F" stroke-miterlimit="10"/>
<path d="M493.805 315.515C494.706 317.201 498.519 318.02 503.428 317.843C507.268 317.68 511.074 317.047 514.759 315.959C524.199 313.179 534.449 309.675 534.993 313.179C535.283 315.052 534.127 319.385 532.166 323.027C530.462 326.202 528.144 328.841 525.634 328.887C520.237 328.976 527.073 335.888 535.976 330.503C544.878 325.119 557.379 310.487 558.818 304.83C559.319 302.862 568.12 298.479 579.394 293.268L581.921 292.103L586.198 290.142C600.211 283.748 616.034 276.624 624.424 271.268C628.132 268.9 630.387 266.875 630.387 265.411C630.387 257.257 620.675 229.611 620.675 229.611C620.675 229.611 565.282 282.75 554.492 288.137C543.702 293.525 523.249 304.368 519.4 305.73C515.551 307.092 503.142 314.438 493.79 312.642C493.805 312.653 492.278 312.653 493.805 315.515Z" fill="#F0A975"/>
<path d="M586.211 290.149C600.224 283.756 616.047 276.632 624.438 271.276C622.352 262.712 619.072 257.416 619.072 257.416C619.072 257.416 605.331 280.227 586.211 290.149Z" fill="#F59D4E"/>
<path d="M503.424 317.85C507.264 317.687 511.069 317.054 514.755 315.966C524.195 313.186 534.444 309.682 534.988 313.186C535.278 315.059 534.122 319.392 532.161 323.034C532.161 323.034 540.466 312.466 535.342 308.606C530.217 304.746 503.424 317.85 503.424 317.85Z" fill="#ED9B5E"/>
<path d="M593.794 26.8145C593.794 26.8145 584.782 35.7661 584.231 47.7169C583.679 59.6676 580.011 67.3914 575.663 69.138C571.316 70.8845 585.722 75.7149 585.68 77.2533C585.637 78.7917 587.235 97.8241 606.359 99.1543C625.483 100.485 619.835 127.872 623.344 134.654C626.854 141.435 649.947 136.563 658.334 127.406C666.721 118.25 676.291 116.931 665.943 102.789C655.595 88.6466 637.259 41.1857 627.013 34.45C616.767 27.7142 593.794 26.8145 593.794 26.8145Z" fill="#F0A975"/>
<path opacity="0.74" d="M616.327 71.4668C616.327 71.4668 614.207 74.0179 612.351 74.5154C612.351 74.5154 635.062 89.3807 639.328 91.4942C644.047 93.83 658.965 109.69 652.568 118.705C648.348 124.654 622.007 127.841 622.007 127.841C622.007 127.841 619.579 131.27 624.064 133.133C628.549 134.996 659.35 133.511 662.534 126.747C665.719 119.983 671.37 117.093 666.617 108.752C661.863 100.411 645.439 77.5181 638.067 76.1773C630.694 74.8365 616.327 71.4668 616.327 71.4668Z" fill="#ED9B5E"/>
<path d="M587.339 36.1817C587.339 36.1817 600.493 55.0835 603.37 57.2888C606.247 59.4941 606.873 61.3994 606.873 61.3994C606.873 61.3994 607.198 58.432 608.679 56.8442C610.16 55.2564 593.754 31.4395 593.754 31.4395L588.244 34.4386L587.339 36.1817Z" fill="#ED9B5E"/>
<path d="M618.731 61.3301C618.731 61.3301 611.662 66.1781 617.536 73.1644C623.41 80.1507 641.757 92.6414 644.072 88.6507C646.387 84.6601 640.113 66.2099 636.116 65.2784C632.119 64.3469 618.731 61.3301 618.731 61.3301Z" fill="#72120C"/>
<path d="M617.966 69.2622C617.966 69.2622 641.126 86.4881 643.529 86.287C645.933 86.0859 635.468 64.153 630.548 64.0084C625.628 63.8637 614.467 61.4432 617.966 69.2622Z" fill="#530905"/>
<path d="M595.673 35.89C580.741 37.139 572.994 14.8428 575.747 6.50162C578.5 -1.83961 592.107 -2.4606 591.125 6.42047C590.142 15.3015 591.033 21.7868 591.033 21.7868C591.033 21.7868 592.581 22.803 594.479 24.292C599.317 28.0992 606.403 35.0008 595.673 35.89Z" fill="#72120C"/>
<path d="M596.453 34.7906C596.453 34.7906 587.617 32.6524 584.935 18.3869C582.252 4.12143 591.13 6.42198 591.13 6.42198C590.148 15.3031 591.038 21.7883 591.038 21.7883C591.038 21.7883 592.587 22.8045 594.484 24.2935L596.453 34.7906Z" fill="#530905"/>
<path d="M611.538 100.374C611.538 100.374 624.262 99.4 628.556 98.0063C632.85 96.6125 620.402 113.355 620.402 113.355C620.402 113.355 618.844 103.211 611.538 100.374Z" fill="#ED9B5E"/>
<path d="M665.663 113.354C665.663 113.354 655.869 127.736 640.396 128.812C624.923 129.888 622.018 127.842 622.018 127.842C622.018 127.842 604.7 122.902 595.26 149.277C585.82 175.652 597.148 255.13 597.148 255.13C597.148 255.13 673.746 313.818 689.13 313.01C704.515 312.202 726.629 296.853 723.664 279.617C720.698 262.381 693.449 151.972 693.449 151.972C693.449 151.972 678.612 104.632 665.663 113.354Z" fill="white"/>
<path d="M662.431 117.253C662.431 117.253 672.681 119.258 674.837 129.691C676.993 140.125 692.204 174.777 684.818 172.17C680.328 170.568 676.197 168.103 672.656 164.915C672.656 164.915 683.468 191.026 691.292 186.439C699.117 181.852 696.417 156.853 690.752 141.081C685.086 125.309 672.571 107.264 668.443 109.42C664.315 111.576 665.782 114.039 662.431 117.253Z" fill="#D2D7DB"/>
<path d="M666.741 202.865C666.741 202.865 675.732 229.378 678.612 242.737C678.612 242.737 670.515 252.161 666.741 253.237C662.966 254.313 664.497 290.639 666.741 297.674C668.985 304.71 709.633 300.903 709.633 292.826C709.633 284.75 686.056 179.436 668.444 166.258C650.833 153.079 619.131 124.121 608.27 130.645C608.266 130.621 655.396 173.244 666.741 202.865Z" fill="#D2D7DB"/>
<path fill-rule="evenodd" clip-rule="evenodd" d="M669.217 534H744.34C744.277 522.278 744.144 511.576 743.906 503.4C743.688 495.775 743.492 482.39 743.247 465.717C742.299 401.129 740.627 287.189 734.197 267.496C732.517 262.351 730.111 252.697 727.104 240.634C715.631 194.603 695.415 113.492 673.443 113.953C673.443 113.953 698.045 179.169 690.312 179.349C687.377 179.417 679.56 171.711 669.871 162.16C654.029 146.542 633.184 125.994 620.51 126.447C620.478 126.447 612.028 126.447 608.278 130.632C608.278 130.632 616.407 129.439 626.108 139.492C626.571 139.972 627.112 140.501 627.723 141.08C630.322 143.531 634.18 146.816 638.66 150.633C655.2 164.72 680.236 186.044 681.854 199.362C682.611 205.597 685.743 218.518 689.194 232.752C695.579 259.092 703.054 289.927 698.575 291.193C648.88 305.254 626.642 281.966 616.838 255.644C616.838 255.644 610.632 254.586 605.238 252.416L598.449 221.676L591.501 190.21C591.501 190.21 594.717 263.724 595.526 272.609C596.078 278.671 591.355 357.582 587.612 420.108C585.87 449.216 584.34 474.773 583.654 487.776C583.019 499.821 582.29 516.482 581.577 534H660.557C663.306 525.26 665.525 518.779 666.752 516.328L669.217 534Z" fill="#004A66"/>
<path fill-rule="evenodd" clip-rule="evenodd" d="M669.201 534H703.225C703.29 532.256 703.358 530.493 703.429 528.714C703.935 515.947 707.379 492.704 711.127 467.413C719.395 411.613 729.14 345.849 712.06 360.672C712.06 360.672 677.003 464.588 666.743 516.301C666.742 516.305 666.741 516.309 666.74 516.313C666.738 516.318 666.737 516.323 666.736 516.329L669.201 534Z" fill="#00384C"/>
<path d="M606.307 267.495C614.673 280.423 617.37 353.398 620.603 360.67C623.837 367.943 651.087 389.759 651.087 389.759C651.087 389.759 653.518 339.937 665.121 321.896C676.724 303.856 705.914 297.78 701.878 277.851C697.842 257.923 700.818 204.107 670.469 176.476C640.604 149.257 628.11 141.322 627.725 141.082C639.918 152.581 679.799 182.439 681.856 199.365C684.012 217.137 699.39 283.387 692.646 285.811C685.903 288.235 633.302 309.78 616.839 255.65C616.839 255.65 610.633 254.592 605.24 252.422L598.451 221.682C598.429 222.423 598.044 254.719 606.307 267.495Z" fill="#00384C"/>
<path d="M623.89 270.497C627.177 278.174 630.315 287.017 630.05 292.27C629.509 303.039 623.162 364.385 623.162 364.385C623.162 364.385 635.617 376.97 643.353 383.364C643.353 383.364 643.353 371.985 643.897 364.981C644.442 357.977 673.034 292.648 671.235 281.678C670.033 274.36 669.178 263.754 668.761 257.519V257.417C668.598 255.105 668.496 253.405 668.457 252.731V252.406C668.457 252.406 653.885 259.894 616.857 255.645L616.874 255.684C617.178 256.256 620.613 262.776 623.904 270.475L623.89 270.497Z" fill="#F0A975"/>
<path d="M616.842 255.645L616.859 255.684L623.889 270.475V270.497C623.889 270.497 640.96 263.486 650.191 263.965C659.423 264.445 668.746 257.519 668.746 257.519V257.417L668.442 252.731V252.406C668.442 252.406 653.846 259.894 616.842 255.645Z" fill="#ED9B5E"/>
<path d="M679.102 119.472C660.543 119.528 642.557 90.8277 635.81 78.7499C634.015 75.532 633.015 73.4925 633.015 73.4925L660.282 51.8633C660.282 51.8633 664.056 57.8863 668.721 66.3298C679.685 86.1843 695.586 119.422 679.102 119.472Z" fill="#004A66"/>
<path d="M668.719 66.3369C656.815 87.811 635.808 78.75 635.808 78.75C634.012 75.532 633.012 73.4926 633.012 73.4926L660.279 51.8633C660.279 51.8633 664.054 57.8863 668.719 66.3369Z" fill="#00384C"/>
<path d="M591.172 23.3239C591.172 23.3239 596.474 63.7703 635.725 74.2815C674.977 84.7927 666.085 42.755 666.085 42.755C666.085 42.755 661.49 12.7633 635.527 6.15106C609.564 -0.461213 590.451 12.6892 591.172 23.3239Z" fill="#004A66"/>
<path d="M612.354 74.5135C612.354 74.5135 621.133 70.6746 617.524 62.0052C613.916 53.3359 607.957 57.7711 607.957 57.7711" fill="#F0A975"/>
<defs>
<radialGradient id="paint0_radial" cx="0" cy="0" r="1" gradientUnits="userSpaceOnUse" gradientTransform="translate(184.379 843.956) rotate(-51.5694) scale(1062.12 1060.54)">
<stop stop-color="white"/>
<stop offset="0.914093" stop-color="#D1F6FF" stop-opacity="0"/>
<stop offset="0.914194" stop-color="white" stop-opacity="0"/>
</radialGradient>
<clipPath id="clip0">
<rect width="277.53" height="71.4849" fill="white" transform="translate(362.562 136.791)"/>
</clipPath>
</defs>
</svg>
