<svg xmlns="http://www.w3.org/2000/svg" xmlns:xlink="http://www.w3.org/1999/xlink" width="1188" height="1122" viewBox="0 0 1188 1122">
  <defs>
    <linearGradient id="linear-gradient" x1="0.125" y1="0.109" x2="0.891" y2="0.911" gradientUnits="objectBoundingBox">
      <stop offset="0" stop-color="#fff" stop-opacity="0"/>
      <stop offset="1" stop-color="#fff"/>
    </linearGradient>
    <clipPath id="clip-Contraseña_cambiada_success">
      <rect width="1188" height="1122"/>
    </clipPath>
  </defs>
  <g id="Contraseña_cambiada_success" data-name="Contraseña cambiada success" clip-path="url(#clip-Contraseña_cambiada_success)">
    <path id="Vector" d="M0,699.387v6.4c0,.505,0,.978.033,1.47,0,1.01.055,2.057.088,3.081L.186,712.1l.082,1.743c0,.561.06,1.112.082,1.673l.115,1.813c.038.581.077,1.156.121,1.737s.077,1.156.126,1.737.088,1.152.137,1.729c.082.974.164,1.955.263,2.919v.076q.066.758.148,1.515v.166c.051.459.1.922.148,1.394.06.6.126,1.2.2,1.809.033.248.055.505.088.743.093.759.181,1.516.28,2.268a.984.984,0,0,1,0,.126c.049.343.093.687.137,1.01q.107.851.23,1.707c.082.571.159,1.132.236,1.7.1.657.2,1.314.291,1.971.077.469.148.944.219,1.42.274,1.737.548,3.47.866,5.2q.132.758.28,1.515c.1.505.2,1.116.307,1.675.066.329.126.653.186.976v.11c.126.687.263,1.37.4,2.057.241,1.166.482,2.338.734,3.536.077.369.154.737.236,1.1.142.683.3,1.364.455,2.053.236,1.05.482,2.1.729,3.151.066.278.126.555.2.835.11.469.225.934.34,1.4.066.287.131.565.208.849s.115.475.181.707.1.435.159.647.1.409.159.611c.148.611.307,1.218.466,1.813q1.041,3.971,2.192,7.875a.957.957,0,0,0,.082.284c.033.1.049.166.071.252.077.238.143.505.214.723.225.763.449,1.515.685,2.278.258.849.548,1.7.795,2.526.2.657.406,1.308.619,1.961.241.763.488,1.515.734,2.278.1.3.2.611.307.914.2.621.411,1.236.619,1.853q1.315,3.878,2.74,7.693c.3.839.614,1.671.926,2.526.214.585.433,1.162.658,1.737l.148.383c.093.248.181.505.28.733s.214.557.323.839.252.647.384.974c.06.168.126.329.192.505l.9,2.288q.493,1.228,1,2.456l.356.849c.192.475.389.954.586,1.434,0,.052.049.092.071.142.181.445.367.89.548,1.33q1.452,3.453,2.976,6.844c.093.2.186.409.274.611.038.086.082.166.115.248a.147.147,0,0,1,0,.044c.214.475.433.95.641,1.426.323.7.641,1.4.97,2.091.268.581.548,1.158.8,1.727.367.789.74,1.561,1.1,2.34s.756,1.581,1.14,2.368q.548,1.138,1.1,2.254c.038.086.082.176.126.261.088.178.17.349.258.505.367.743.734,1.479,1.1,2.222s.674,1.34,1.014,2.021l.312.607c.093.186.192.373.291.561.422.823.844,1.641,1.277,2.454.241.469.488.934.734,1.4q4.274,8.08,8.735,15.658.472.821.954,1.621c.625,1.066,1.26,2.132,1.891,3.179.471.783.948,1.571,1.431,2.354.548.9,1.1,1.783,1.644,2.661.416.667.827,1.328,1.244,1.985q3.688,5.894,7.415,11.451,1.332,1.995,2.663,3.945l.055.076q4.077,5.966,8.094,11.477c.389.541.778,1.07,1.167,1.6q4.384,5.954,8.6,11.371c.121.16.247.311.373.469,6.269,8.04,12.215,15.152,17.537,21.214q3.48,3.965,6.576,7.33l.888.964c2.559,2.789,4.877,5.239,6.9,7.336l.778.807c3.288,3.364,5.683,5.718,6.993,6.97l1.134,1.072q2.74,2.435,5.562,4.824,10.6,9.093,21.893,17.76,17.6,13.561,36.805,26.134,6.33,4.148,12.824,8.168,2.642,1.647,5.3,3.253c.575.353,1.15.707,1.737,1.05q11.285,6.8,23.017,13.236c.849.475,1.709.938,2.564,1.4,1.585.859,3.169,1.719,4.764,2.558.669.363,1.342.721,2.011,1.074q23.346,12.336,48.227,23.111,19.054,8.242,38.908,15.5,8.62,3.151,17.395,6.1,26.562,8.94,54.255,15.947c84.635,21.382,176.061,28.408,267.219,15.8a639.5,639.5,0,0,0,64.978-12.421,612.884,612.884,0,0,0,183.265-78.1q12.151-7.715,24.113-16.109,13.579-9.557,26.891-20,6.328-4.966,12.6-10.137,3.552-2.941,7.124-5.95Q991,966.165,996.785,961a679.819,679.819,0,0,0,54.149-54.2q21.543-24.13,41.863-51.371c.323-.439.647-.869.97-1.3s.637-.879.954-1.308.729-1.01,1.1-1.486q1.36-1.848,2.673-3.7c.932-1.308,1.853-2.606,2.773-3.919.833-1.182,1.643-2.368,2.466-3.536l.811-1.176c.707-1.046,1.416-2.08,2.116-3.121s1.386-2.067,2.067-3.1l.839-1.272c.635-.954,1.26-1.921,1.885-2.885.242-.373.487-.753.723-1.126.549-.819,1.058-1.641,1.579-2.46l.365-.587c.254-.387.5-.783.747-1.176q2.246-3.537,4.383-7.142c.062-.092.116-.188.176-.288.769-1.268,1.529-2.526,2.274-3.8a1.606,1.606,0,0,0,.106-.178c.361-.6.717-1.212,1.094-1.823.132-.212.258-.435.385-.653.268-.453.547-.908.795-1.364l.214-.373c.6-1.01,1.188-2.067,1.775-3.1l.745-1.312q.922-1.632,1.825-3.268,1-1.8,1.969-3.6,2.366-4.349,4.6-8.707,1-1.95,1.989-3.9c.631-1.256,1.268-2.524,1.887-3.788.048-.09.1-.192.142-.288q.982-2.021,1.945-4l.034-.08c.651-1.364,1.3-2.727,1.935-4.091q.036-.066.066-.132.937-1.986,1.829-3.971c.385-.833.763-1.671,1.136-2.526.24-.505.475-1.07.711-1.6q.611-1.366,1.2-2.719c.2-.463.407-.934.6-1.4l.335-.773c.214-.505.427-1.01.635-1.485.258-.611.515-1.218.767-1.823.15-.339.3-.683.433-1.01s.27-.623.389-.934c.176-.409.351-.825.549-1.238l.393-.976c.461-1.12.911-2.246,1.366-3.372.07-.168.132-.329.2-.505.034-.082.066-.172.1-.264l.182-.465c.417-1.04.823-2.086,1.228-3.127.076-.182.142-.363.214-.549.214-.541.427-1.086.635-1.633.056-.14.1-.292.16-.439.136-.347.268-.691.4-1.034.088-.238.182-.471.264-.7.044-.112.088-.228.126-.337q.758-2.022,1.5-4.041a.46.46,0,0,0,.04-.122c.258-.687.5-1.38.755-2.067s.5-1.4.741-2.1a.1.1,0,0,1,.038-.1c.142-.389.27-.777.405-1.166q.488-1.384.964-2.763a.739.739,0,0,1,.05-.146c.471-1.38.932-2.763,1.4-4.143v-.046c.054-.166.11-.337.17-.505l.547-1.6c.116-.343.226-.683.335-1.01l.33-1.01c.449-1.374.876-2.753,1.3-4.127a1.326,1.326,0,0,1,.076-.268c.182-.551.351-1.1.515-1.647q.305-.991.593-1.975c.038-.122.076-.238.11-.363.208-.687.415-1.38.613-2.067.164-.545.323-1.086.483-1.631l.148-.505c.088-.314.18-.631.274-.944.2-.687.4-1.368.581-2.051l.312-1.112c.379-1.348.747-2.7,1.1-4.039l.066-.254q.476-1.773.937-3.536c.05-.2.106-.389.154-.585l.11-.435q.357-1.4.7-2.793c.032-.1.054-.2.082-.3.22-.879.437-1.753.651-2.632v-.05c.182-.763.367-1.515.549-2.288.142-.617.289-1.238.433-1.855.032-.15.07-.3.11-.453.148-.647.3-1.284.449-1.931a1.229,1.229,0,0,1,.066-.307c.208-.894.4-1.793.6-2.687.088-.413.182-.823.276-1.232.23-1.056.459-2.106.679-3.167.072-.353.154-.713.226-1.066a1.553,1.553,0,0,1,.054-.263c.016-.09.044-.2.06-.3.144-.661.276-1.318.405-1.981q.281-1.318.549-2.646c.05-.228.082-.449.126-.677.116-.587.23-1.162.339-1.753v-.1a.129.129,0,0,1,0-.04.5.5,0,0,1,.05-.262l.082-.455c.066-.333.126-.673.192-1.01.034-.234.076-.459.12-.693a2.359,2.359,0,0,1,.072-.373c.11-.561.214-1.122.313-1.687.038-.228.082-.465.126-.7.114-.641.224-1.288.333-1.929.05-.294.1-.581.154-.865l.214-1.226c.038-.244.076-.505.12-.723q.287-1.683.549-3.364v-.178a1.66,1.66,0,0,0,.032-.172l.2-1.292c.034-.188.056-.369.088-.551V648c.038-.248.082-.505.116-.739.048-.287.092-.581.136-.872s.084-.551.122-.825c.06-.373.114-.753.164-1.13.088-.541.164-1.076.236-1.621q.084-.554.16-1.108l.092-.641v-.086c.062-.4.116-.8.166-1.2a3.287,3.287,0,0,1,.054-.393c.094-.643.176-1.288.258-1.931l.116-.9c.132-1.01.258-2.061.389-3.091l.114-1.01c.088-.713.176-1.426.254-2.136.054-.455.108-.914.158-1.374l.11-.956v-.076a4.277,4.277,0,0,1,.056-.473c.086-.769.164-1.515.236-2.31,0-.146.038-.3.048-.443.056-.505.1-.974.148-1.46.04-.359.066-.713.1-1.072.056-.581.116-1.15.172-1.727q.41-4.268.717-8.526c.044-.577.078-1.152.122-1.727.06-.849.12-1.687.174-2.526l.034-.505c.082-1.314.164-2.638.236-3.955V603c0-.254.032-.505.044-.763.054-.93.1-1.875.148-2.8v-.525a3.65,3.65,0,0,1,.032-.591v-.571c.05-.964.094-1.925.128-2.889a6.014,6.014,0,0,1,.026-.709c0-.773.056-1.515.078-2.308,0-.419.032-.829.044-1.248l.038-1.328c0-.733.032-1.469.054-2.206v-2.052c0-.387,0-.773.028-1.156v-8.707c0-2.158,0-4.309-.054-6.467v-.044q-.051-2.594-.122-5.177v-.036c0-.869-.044-1.737-.076-2.608-.05-1.691-.116-3.384-.188-5.049v-.2c-.038-.839-.082-1.683-.126-2.526v-.026c-.032-.869-.082-1.737-.132-2.606s-.092-1.757-.148-2.638v-.313a3.3,3.3,0,0,0-.038-.611c0-.463-.054-.938-.088-1.4v-.419l-.164-2.41c-.11-1.6-.23-3.2-.357-4.8,0-.172-.032-.349-.044-.505-.064-.829-.13-1.651-.208-2.476-.088-1.086-.186-2.17-.286-3.253v-.076q-.147-1.632-.311-3.253c-.12-1.258-.252-2.526-.389-3.768-.12-1.148-.242-2.3-.373-3.45q-.344-2.965-.711-5.92-.21-1.638-.423-3.278t-.443-3.272c-.132-.96-.274-1.925-.411-2.885q-.285-1.986-.591-3.969l-.082-.547c-.128-.8-.254-1.611-.379-2.408-.17-1.1-.351-2.182-.547-3.268-.144-.92-.3-1.845-.455-2.763-.034-.166-.056-.337-.088-.505-.186-1.086-.373-2.172-.549-3.262s-.387-2.172-.591-3.253q-1.2-6.517-2.576-13c-.17-.809-.339-1.617-.547-2.43s-.341-1.555-.511-2.334l-.032-.152-.066-.294c-.356-1.605-.719-3.223-1.1-4.828-.2-.855-.4-1.707-.6-2.556-.072-.3-.138-.611-.214-.914l-.549-2.344q-.743-3.076-1.539-6.152c-.192-.773-.393-1.551-.6-2.33-.092-.377-.2-.753-.3-1.136q-1.315-5-2.739-9.975c-.21-.733-.411-1.46-.625-2.188s-.379-1.312-.549-1.969c-.261-.91-.547-1.815-.8-2.727q-.311-1.072-.641-2.138-.383-1.3-.795-2.6c-.214-.723-.439-1.446-.669-2.168-.817-2.622-1.645-5.247-2.51-7.859-.3-.92-.6-1.839-.91-2.747q-1.1-3.214-2.192-6.421c-.475-1.364-.952-2.733-1.442-4.1-.28-.783-.547-1.575-.843-2.358q-3.42-9.476-7.19-18.86-1.168-2.932-2.38-5.85-1.608-3.878-3.286-7.749c-.16-.373-.323-.753-.489-1.12-.076-.188-.152-.375-.24-.561s-.17-.373-.248-.561l-.455-1.04c-.148-.349-.3-.693-.455-1.036-.327-.747-.657-1.515-.99-2.242-.066-.152-.132-.307-.2-.465-.465-1.01-.927-2.066-1.392-3.1s-.871-1.913-1.316-2.879q-2.006-4.364-4.087-8.7c-.346-.727-.7-1.45-1.052-2.176-.471-.98-.954-1.961-1.436-2.939l-1.529-3.1c-1.146-2.282-2.3-4.546-3.474-6.844-.122-.242-.248-.483-.379-.727-.427-.843-.87-1.681-1.31-2.526q-1.713-3.282-3.474-6.567c-.471-.883-.954-1.773-1.436-2.652q-1.929-3.534-3.929-7.072c-.12-.222-.241-.443-.367-.661-.088-.168-.18-.323-.268-.479q-.587-1.045-1.18-2.086-.968-1.7-1.955-3.4c-.587-1.01-1.174-2.021-1.771-3.031s-1.238-2.112-1.863-3.167q-3.81-6.406-7.777-12.735c-.417-.663-.827-1.318-1.25-1.975l-.076-.128c-.357-.569-.719-1.136-1.1-1.7-.549-.829-1.058-1.661-1.589-2.486s-1-1.545-1.5-2.314q-5.343-8.212-10.961-16.275c-.629-.914-1.27-1.829-1.911-2.731l-.725-1.01c-.192-.274-.377-.541-.547-.8q-.779-1.105-1.567-2.206c-.549-.793-1.134-1.581-1.711-2.37q-1.018-1.423-2.061-2.837l-.679-.934-1.8-2.44q-2.45-3.294-4.932-6.567c-.549-.743-1.13-1.485-1.7-2.222q-2.483-3.22-5-6.421-.755-.97-1.527-1.939-6.861-8.622-14.036-17.023c-.3-.357-.607-.711-.914-1.07-.729-.859-1.468-1.707-2.192-2.562q-2.552-2.953-5.151-5.874c-.707-.789-1.408-1.585-2.114-2.369q-2.6-2.894-5.229-5.758-1.2-1.318-2.428-2.627-1.336-1.44-2.685-2.869c-.855-.9-1.7-1.8-2.554-2.7-.647-.667-1.288-1.339-1.935-2.021q-1.956-2.02-3.927-4.041-1-1.01-2.013-2.046c-.827-.849-1.643-1.682-2.494-2.526q-2.74-2.743-5.479-5.445l-2.7-2.622c-.459-.45-.93-.9-1.4-1.344q-.9-.874-1.8-1.727-2.483-2.364-4.982-4.7C873.227,46.6,708.22-19.745,534.079,5.254,497.361,10.527,464.9,16.972,436.2,24.479q-13.7,3.576-26.306,7.481c-151.177,46.789-185.835,127.2-210.66,220.4-.23.869-.466,1.743-.69,2.612-.351,1.324-.7,2.652-1.047,3.981q-.855,3.306-1.71,6.631-1.7,6.664-3.381,13.385-2.022,8.083-4.066,16.245c-2.839,11.3-5.771,22.732-8.949,34.268q-1.151,4.151-2.34,8.33c-.395,1.4-.806,2.793-1.211,4.187q-1.836,6.274-3.8,12.577-1.3,4.2-2.7,8.42-2.74,8.443-5.842,16.911c-.773,2.126-1.556,4.243-2.362,6.371-.269.711-.548,1.414-.816,2.12q-.921,2.42-1.874,4.814-.732,1.842-1.485,3.688c-.356.879-.718,1.753-1.1,2.632-.515,1.248-1.036,2.526-1.573,3.754q-1.545,3.636-3.173,7.278c-.5,1.126-1,2.248-1.524,3.374a390.084,390.084,0,0,1-31.434,56.245c-.586.875-1.184,1.743-1.776,2.616q-6.127,8.91-12.993,17.8-2.461,3.175-5.02,6.343-.855,1.06-1.721,2.11-1.726,2.108-3.507,4.229l-1.8,2.106c-.258.307-.548.611-.784.914s-.548.6-.784.908q-1.03,1.2-2.082,2.39-1.853,2.111-3.749,4.207-2.85,3.154-5.82,6.3-6.763,7.182-12.862,14.376c-.773.914-1.54,1.823-2.3,2.737q-5.212,6.274-9.919,12.557c-.285.389-.581.779-.871,1.168q-4.34,5.843-8.275,11.678c-.329.505-.658.974-.981,1.464l-.181.273c-.477.713-.937,1.42-1.4,2.133s-.833,1.288-1.249,1.929l-.406.631-.822,1.3q-.674,1.066-1.332,2.136c-.356.575-.712,1.152-1.058,1.733l-.143.228-1.019,1.7c-.438.737-.866,1.466-1.293,2.192l-.97,1.677c-.373.647-.734,1.288-1.1,1.935l-.839,1.515c-.433.777-.855,1.551-1.277,2.324l-1.025,1.913q-.789,1.477-1.551,2.951l-.849,1.651c-.839,1.647-1.644,3.294-2.444,4.94q-.828,1.728-1.644,3.456l-.165.357c-.29.633-.586,1.274-.871,1.9s-.548,1.274-.85,1.9c-.23.505-.455,1.046-.685,1.565-.044.112-.1.222-.148.343-.274.627-.548,1.258-.811,1.895s-.548,1.268-.795,1.9c-.521,1.262-1.036,2.526-1.535,3.8-.247.631-.493,1.262-.734,1.895-.274.707-.548,1.414-.8,2.11l-.647,1.743-.608,1.693c-.071.2-.137.4-.214.6q-.586,1.659-1.145,3.318a.718.718,0,0,0-.033.08l-.422,1.254c-.06.186-.12.367-.175.555-.082.268-.175.541-.263.813l-.345,1.076c-.2.631-.4,1.262-.6,1.889-.137.449-.28.9-.411,1.35-.055.182-.109.357-.159.539-.17.547-.334,1.1-.493,1.643a1.262,1.262,0,0,1-.066.236c-.181.633-.367,1.258-.548,1.885l-.066.222c-.038.112-.066.228-.1.339s-.082.3-.121.449c-.082.294-.164.581-.236.875s-.2.691-.285,1.01l-.225.839c-.2.737-.389,1.484-.581,2.222-.066.268-.131.539-.208.809s-.121.505-.175.727c-.038.156-.077.313-.121.469-.1.4-.192.793-.285,1.182-.132.551-.263,1.106-.389,1.657-.038.146-.071.287-.1.439-.131.581-.268,1.152-.395,1.727-.049.212-.093.425-.142.641-.027.142-.06.284-.088.431-.208.934-.4,1.863-.6,2.8a1.059,1.059,0,0,1-.044.222l-.2,1.01-.131.653c-.055.242-.1.505-.142.711s-.093.505-.137.713l-.329,1.769c-.06.311-.115.625-.17.934s-.131.753-.192,1.12l-.055.333c-.049.244-.088.481-.126.713-.071.383-.132.763-.192,1.146s-.1.667-.159,1.01-.088.571-.131.859c-.055.349-.109.7-.159,1.046s-.077.541-.115.809c-.093.575-.17,1.156-.258,1.727v.116c-.066.505-.126.97-.186,1.45,0,.132-.033.268-.044.393-.033.208-.066.415-.088.617s-.044.339-.06.505c-.033.248-.06.505-.088.727s-.038.343-.066.505c-.049.415-.1.825-.142,1.234a.342.342,0,0,0,0,.1c-.071.615-.137,1.232-.2,1.843v.162c-.027.222-.049.439-.071.657-.038.327-.066.667-.1,1.01-.121,1.228-.236,2.45-.334,3.672l-.033.419c0,.142-.027.284-.038.419-.033.333-.055.661-.071,1.01-.049.637-.1,1.284-.143,1.919,0,.238-.027.471-.049.709,0,.343-.044.681-.06,1.01v.272c-.033.505-.055,1.01-.088,1.551Q.181,691.35.1,693.73v1.1l-.033,1.1v2.608A2.99,2.99,0,0,0,0,699.387Z" transform="translate(1 1.444)" fill="url(#linear-gradient)"/>
    <g id="Grupo_21651" data-name="Grupo 21651" transform="translate(-309.129 -48.393)">
      <g id="Screens" transform="translate(509.285 285.493)">
        <g id="Grupo_142" data-name="Grupo 142" transform="translate(0 0)">
          <g id="Grupo_85" data-name="Grupo 85">
            <g id="Grupo_82" data-name="Grupo 82" transform="translate(0.793 0.791)">
              <rect id="Rectángulo_5" data-name="Rectángulo 5" width="581.896" height="538.54" rx="6.56" fill="#fff"/>
            </g>
            <g id="Grupo_84" data-name="Grupo 84">
              <g id="Grupo_83" data-name="Grupo 83">
                <path id="Trazado_15" data-name="Trazado 15" d="M753.031,587.36s.482-.052,1.432-.115a19.71,19.71,0,0,0,10.354-3.924,19.571,19.571,0,0,0,6.026-7.386c1.721-3.283,2.07-7.429,1.9-11.959q-.014-6.805-.036-14.869c-.021-10.749-.046-23.148-.073-37.1-.058-55.851-.146-136.637-.252-236.456-.027-49.915-.061-104.592-.094-163.284q-.041-21.99-.082-44.723a19.262,19.262,0,0,0-12.457-16.805c-3.484-1.451-7.3-1.217-11.2-1.226q-5.822,0-11.683.006-46.9.014-96.441.033L211,49.608a19.288,19.288,0,0,0-12.56,4.682,18.877,18.877,0,0,0-6.4,11.726,55.98,55.98,0,0,0-.215,6.97V94.2q0,28.212,0,56.042,0,55.646-.012,109.566c-.015,71.834-.03,141.122-.046,207.13q-.018,49.5-.033,96.454c.015,1.939-.052,3.942.085,5.787a19.678,19.678,0,0,0,1.311,5.45,19.415,19.415,0,0,0,6.885,8.624,19.175,19.175,0,0,0,10.412,3.4q5.726.018,11.4.033,22.75.009,44.769.021c58.7.033,113.374.067,163.293.094,99.816.106,180.6.194,236.441.252l64.284.149c7.335.033,12.93.061,16.717.079,3.766.027,5.7.082,5.7.082s-1.93.055-5.7.079c-3.787.018-9.383.046-16.717.079l-64.284.149c-55.845.058-136.625.146-236.441.252-49.919.027-104.6.061-163.293.094q-22.013.014-44.769.021-5.694-.009-11.437-.021a20.569,20.569,0,0,1-11.155-3.632,20.8,20.8,0,0,1-7.386-9.237,21.021,21.021,0,0,1-1.408-5.842c-.152-2.042-.076-3.948-.1-5.911q-.014-46.907-.033-96.454c-.015-66.008-.03-135.3-.046-207.13q0-53.876-.012-109.566,0-27.825,0-56.042V72.986a56.566,56.566,0,0,1,.231-7.192,20.433,20.433,0,0,1,6.925-12.7A20.881,20.881,0,0,1,211,48.027c152.314.024,297.426.046,429.418.064q49.5.018,96.441.033l11.683,0c3.8.012,7.938-.234,11.68,1.323a20.621,20.621,0,0,1,13.325,18.007q.023,22.768.042,44.805c-.034,58.691-.067,113.368-.094,163.284-.106,99.819-.194,180.605-.252,236.456-.027,13.956-.052,26.355-.073,37.1q-.023,8.061-.036,14.869c.148,4.494-.234,8.8-2.006,12.1a19.735,19.735,0,0,1-6.172,7.441,20.228,20.228,0,0,1-6.288,3.107,19.252,19.252,0,0,1-4.2.707C753.513,587.363,753.031,587.36,753.031,587.36Z" transform="translate(-190.25 -48.027)" fill="#263238"/>
              </g>
            </g>
          </g>
          <g id="Grupo_86" data-name="Grupo 86" transform="translate(24.587 28.055)">
            <path id="Trazado_16" data-name="Trazado 16" d="M218.471,67.332a10.06,10.06,0,1,1-10.06-10.06A10.059,10.059,0,0,1,218.471,67.332Z" transform="translate(-198.352 -57.272)" fill="#263238"/>
          </g>
          <g id="Grupo_87" data-name="Grupo 87" transform="translate(53.97 28.055)">
            <ellipse id="Elipse_1" data-name="Elipse 1" cx="10.06" cy="10.06" rx="10.06" ry="10.06" fill="#263238"/>
          </g>
          <g id="Grupo_88" data-name="Grupo 88" transform="translate(83.352 28.055)">
            <ellipse id="Elipse_2" data-name="Elipse 2" cx="10.06" cy="10.06" rx="10.06" ry="10.06" fill="#263238"/>
          </g>
          <g id="Grupo_90" data-name="Grupo 90" transform="translate(0.793 65.862)">
            <g id="Grupo_89" data-name="Grupo 89">
              <path id="Trazado_17" data-name="Trazado 17" d="M772.409,70.52c0,.437-130.274.792-290.935.792-160.716,0-290.963-.355-290.963-.792s130.246-.789,290.963-.789C642.135,69.731,772.409,70.086,772.409,70.52Z" transform="translate(-190.511 -69.731)" fill="#263238"/>
            </g>
          </g>
          <g id="Grupo_138" data-name="Grupo 138" transform="translate(107.291 319.968)">
            <rect id="Rectángulo_7" data-name="Rectángulo 7" width="378.149" height="60.028" rx="9.317" fill="#f5f5f5"/>
          </g>
          <g id="Grupo_139" data-name="Grupo 139" transform="translate(110.072 402.279)">
            <rect id="Rectángulo_8" data-name="Rectángulo 8" width="378.149" height="60.028" rx="9.317" fill="#f5f5f5"/>
          </g>
          <g id="Grupo_141" data-name="Grupo 141" transform="translate(197.99 422.411)">
            <path id="Trazado_49" data-name="Trazado 49" d="M270.9,197.432l5.614,3.041-2.525,4.227-5.669-3.35.1,6.236h-4.843l.052-6.288-5.669,3.4-2.473-4.227,5.617-3.041-5.617-3.092,2.473-4.224,5.669,3.4-.052-6.291h4.843l-.1,6.291,5.669-3.4,2.525,4.224Z" transform="translate(-255.495 -187.227)" fill="#263238"/>
            <path id="Trazado_50" data-name="Trazado 50" d="M278.611,197.432l5.614,3.041L281.7,204.7l-5.669-3.35.1,6.236h-4.843l.052-6.288-5.669,3.4-2.473-4.227,5.617-3.041L263.2,194.34l2.473-4.224,5.669,3.4-.052-6.291h4.843l-.1,6.291,5.669-3.4,2.525,4.224Z" transform="translate(-239.815 -187.227)" fill="#263238"/>
            <path id="Trazado_51" data-name="Trazado 51" d="M286.317,197.432l5.617,3.041-2.528,4.227-5.669-3.35.1,6.236H279l.052-6.288-5.669,3.4-2.473-4.227,5.617-3.041-5.617-3.092,2.473-4.224,5.669,3.4L279,187.227h4.843l-.1,6.291,5.669-3.4,2.528,4.224Z" transform="translate(-224.136 -187.227)" fill="#263238"/>
            <path id="Trazado_52" data-name="Trazado 52" d="M294.024,197.432l5.617,3.041-2.525,4.227-5.672-3.35.106,6.236h-4.846l.052-6.288-5.669,3.4-2.473-4.227,5.617-3.041-5.617-3.092,2.473-4.224,5.669,3.4-.052-6.291h4.846l-.106,6.291,5.672-3.4,2.525,4.224Z" transform="translate(-208.456 -187.227)" fill="#263238"/>
            <path id="Trazado_53" data-name="Trazado 53" d="M301.731,197.432l5.617,3.041-2.525,4.227-5.672-3.35.106,6.236h-4.846l.052-6.288-5.669,3.4-2.473-4.227,5.617-3.041-5.617-3.092,2.473-4.224,5.669,3.4-.052-6.291h4.846l-.106,6.291,5.672-3.4,2.525,4.224Z" transform="translate(-192.776 -187.227)" fill="#263238"/>
            <path id="Trazado_54" data-name="Trazado 54" d="M309.439,197.432l5.617,3.041-2.525,4.227-5.672-3.35.106,6.236h-4.846l.052-6.288-5.669,3.4-2.473-4.227,5.617-3.041-5.617-3.092,2.473-4.224,5.669,3.4-.052-6.291h4.846l-.106,6.291,5.672-3.4,2.525,4.224Z" transform="translate(-177.095 -187.227)" fill="#263238"/>
            <path id="Trazado_55" data-name="Trazado 55" d="M317.144,197.432l5.617,3.041-2.525,4.227-5.672-3.35.106,6.236h-4.846l.055-6.288-5.672,3.4-2.473-4.227,5.62-3.041-5.62-3.092,2.473-4.224,5.672,3.4-.055-6.291h4.846l-.106,6.291,5.672-3.4,2.525,4.224Z" transform="translate(-161.417 -187.227)" fill="#263238"/>
            <path id="Trazado_56" data-name="Trazado 56" d="M324.851,197.432l5.617,3.041-2.525,4.227-5.672-3.35.106,6.236h-4.846l.055-6.288-5.672,3.4-2.473-4.227,5.62-3.041-5.62-3.092,2.473-4.224,5.672,3.4-.055-6.291h4.846l-.106,6.291,5.672-3.4,2.525,4.224Z" transform="translate(-145.737 -187.227)" fill="#263238"/>
          </g>
          <circle id="Elipse_1371" data-name="Elipse 1371" cx="91.941" cy="91.941" r="91.941" transform="translate(200.097 113.409)" fill="#89e38d"/>
          <path id="Trazado_22188" data-name="Trazado 22188" d="M21.351,64.01,47.549,86.5l57.313-59.6" transform="translate(228.816 148.538)" fill="none" stroke="#fff" stroke-linecap="round" stroke-width="19.2"/>
        </g>
      </g>
      <g id="Grupo_5" data-name="Grupo 5" transform="translate(398.871 764.618)">
        <g id="Grupo_4" data-name="Grupo 4" transform="translate(0)">
          <g id="Grupo_3" data-name="Grupo 3">
            <g id="Grupo_2" data-name="Grupo 2">
              <g id="Grupo_1" data-name="Grupo 1">
                <path id="Trazado_1" data-name="Trazado 1" d="M494.861,176.969c15.249-6.4,26.1-22.125,26.188-40.66.1-24.276-18.274-44.045-41.041-44.151s-41.3,19.491-41.4,43.77c-.076,18.7,10.846,34.622,26.264,41.041-63.431,9.559-60.555,78.5-60.555,78.5l150,.692S557.739,186.469,494.861,176.969Z" transform="translate(-404.3 -92.158)" fill="#f5f5f5"/>
              </g>
            </g>
          </g>
        </g>
      </g>
      <g id="Grupo_13" data-name="Grupo 13" transform="translate(1044.193 101.793)">
        <g id="Grupo_10" data-name="Grupo 10">
          <g id="Grupo_9" data-name="Grupo 9">
            <g id="Grupo_8" data-name="Grupo 8">
              <g id="Grupo_7" data-name="Grupo 7">
                <g id="Grupo_6" data-name="Grupo 6">
                  <path id="Trazado_2" data-name="Trazado 2" d="M275.284,57.616,195.62,29.443,116.728,57.236c-10.07,4.684-18.9,7.489-18.9,16.728v46a171.878,171.878,0,0,0,25.986,91.549c14.717,23.518,37.5,47.735,72.584,63.124,32.246-10.315,56.315-37.813,71.032-61.33a171.848,171.848,0,0,0,25.986-91.549V80.394C293.413,67.218,286.325,60.783,275.284,57.616Z" transform="translate(-97.824 -29.443)" fill="#f5f5f5"/>
                </g>
              </g>
            </g>
          </g>
        </g>
        <g id="Grupo_12" data-name="Grupo 12" transform="translate(80.14 80.377)">
          <g id="Grupo_11" data-name="Grupo 11">
            <path id="Trazado_3" data-name="Trazado 3" d="M171.743,81.392a22.058,22.058,0,1,0-28.076,21.122v32.975H155.7V102.514A21.991,21.991,0,0,0,171.743,81.392Z" transform="translate(-127.627 -59.334)" fill="#ebebeb"/>
          </g>
        </g>
      </g>
      <g id="Grupo_14" data-name="Grupo 14" transform="translate(954.008 491.83)">
        <path id="Trazado_4" data-name="Trazado 4" d="M444.594,217.6l15.572,8.425-7,11.717-15.713-9.288.287,17.288H424.311l.142-17.43-15.714,9.43-6.86-11.717,15.572-8.425-15.572-8.573,6.86-11.714,15.714,9.43-.142-17.43h13.427l-.287,17.43,15.713-9.43,7,11.714Z" transform="translate(-401.879 -189.315)" fill="#e0e0e0"/>
        <path id="Trazado_5" data-name="Trazado 5" d="M465.636,217.6l15.572,8.425-7,11.717-15.714-9.288.287,17.288H445.353l.142-17.43-15.714,9.43-6.86-11.717,15.572-8.425-15.572-8.573,6.86-11.714,15.714,9.43-.142-17.43H458.78l-.287,17.43,15.714-9.43,7,11.714Z" transform="translate(-358.076 -189.315)" fill="#e0e0e0"/>
        <path id="Trazado_6" data-name="Trazado 6" d="M486.679,217.6l15.572,8.425-7,11.717-15.713-9.288.287,17.288H466.4l.142-17.43-15.714,9.43-6.86-11.717,15.572-8.425-15.572-8.573,6.86-11.714,15.714,9.43-.142-17.43h13.427l-.287,17.43,15.713-9.43,7,11.714Z" transform="translate(-314.271 -189.315)" fill="#e0e0e0"/>
      </g>
      <g id="Grupo_46" data-name="Grupo 46" transform="translate(705.746 994.471)">
        <g id="Grupo_45" data-name="Grupo 45" transform="translate(0 0)">
          <g id="Grupo_20" data-name="Grupo 20" transform="translate(10.22 26.57)">
            <g id="Grupo_19" data-name="Grupo 19">
              <g id="Grupo_18" data-name="Grupo 18">
                <g id="Grupo_17" data-name="Grupo 17">
                  <g id="Grupo_16" data-name="Grupo 16">
                    <g id="Grupo_15" data-name="Grupo 15">
                      <path id="Trazado_7" data-name="Trazado 7" d="M536,437.855v95.037H243.735V437.855Z" transform="translate(-243.735 -437.855)" fill="#f5f5f5"/>
                    </g>
                  </g>
                </g>
              </g>
            </g>
          </g>
          <g id="Grupo_26" data-name="Grupo 26">
            <g id="Grupo_25" data-name="Grupo 25">
              <g id="Grupo_24" data-name="Grupo 24">
                <g id="Grupo_23" data-name="Grupo 23">
                  <g id="Grupo_22" data-name="Grupo 22">
                    <g id="Grupo_21" data-name="Grupo 21">
                      <path id="Trazado_8" data-name="Trazado 8" d="M554.474,429.171v26.57H239.727v-26.57H554.474Z" transform="translate(-239.727 -429.171)" fill="#ebebeb"/>
                    </g>
                  </g>
                </g>
              </g>
            </g>
          </g>
          <g id="Grupo_32" data-name="Grupo 32" transform="translate(0)">
            <g id="Grupo_31" data-name="Grupo 31">
              <g id="Grupo_30" data-name="Grupo 30">
                <g id="Grupo_29" data-name="Grupo 29">
                  <g id="Grupo_28" data-name="Grupo 28">
                    <g id="Grupo_27" data-name="Grupo 27">
                      <path id="Trazado_9" data-name="Trazado 9" d="M446.533,550.778H299.379V455.741H289.16v-26.57H452.666v24.112Z" transform="translate(-289.16 -429.171)" fill="#ebebeb"/>
                    </g>
                  </g>
                </g>
              </g>
            </g>
          </g>
          <g id="Grupo_38" data-name="Grupo 38" transform="translate(202.338 41.896)">
            <g id="Grupo_37" data-name="Grupo 37" transform="translate(0)">
              <g id="Grupo_36" data-name="Grupo 36">
                <g id="Grupo_35" data-name="Grupo 35">
                  <g id="Grupo_34" data-name="Grupo 34">
                    <g id="Grupo_33" data-name="Grupo 33">
                      <rect id="Rectángulo_1" data-name="Rectángulo 1" width="59.27" height="14.305" fill="#e0e0e0"/>
                    </g>
                  </g>
                </g>
              </g>
            </g>
          </g>
          <g id="Grupo_44" data-name="Grupo 44" transform="translate(193.13 74.086)">
            <g id="Grupo_43" data-name="Grupo 43" transform="translate(0)">
              <g id="Grupo_42" data-name="Grupo 42">
                <g id="Grupo_41" data-name="Grupo 41">
                  <g id="Grupo_40" data-name="Grupo 40">
                    <g id="Grupo_39" data-name="Grupo 39">
                      <rect id="Rectángulo_2" data-name="Rectángulo 2" width="76.107" height="30.209" fill="#fff"/>
                    </g>
                  </g>
                </g>
              </g>
            </g>
          </g>
        </g>
      </g>
      <g id="Grupo_78" data-name="Grupo 78" transform="translate(660.782 872.99)">
        <g id="Grupo_77" data-name="Grupo 77" transform="translate(0 0)">
          <g id="Grupo_52" data-name="Grupo 52" transform="translate(10.219 26.57)">
            <g id="Grupo_51" data-name="Grupo 51">
              <g id="Grupo_50" data-name="Grupo 50">
                <g id="Grupo_49" data-name="Grupo 49">
                  <g id="Grupo_48" data-name="Grupo 48">
                    <g id="Grupo_47" data-name="Grupo 47">
                      <path id="Trazado_10" data-name="Trazado 10" d="M550.7,398.149v95.037H258.432V398.149Z" transform="translate(-258.432 -398.149)" fill="#f5f5f5"/>
                    </g>
                  </g>
                </g>
              </g>
            </g>
          </g>
          <g id="Grupo_58" data-name="Grupo 58" transform="translate(0)">
            <g id="Grupo_57" data-name="Grupo 57">
              <g id="Grupo_56" data-name="Grupo 56">
                <g id="Grupo_55" data-name="Grupo 55">
                  <g id="Grupo_54" data-name="Grupo 54">
                    <g id="Grupo_53" data-name="Grupo 53">
                      <path id="Trazado_11" data-name="Trazado 11" d="M569.17,389.465v26.57H254.424v-26.57H569.17Z" transform="translate(-254.424 -389.465)" fill="#ebebeb"/>
                    </g>
                  </g>
                </g>
              </g>
            </g>
          </g>
          <g id="Grupo_64" data-name="Grupo 64" transform="translate(0)">
            <g id="Grupo_63" data-name="Grupo 63">
              <g id="Grupo_62" data-name="Grupo 62">
                <g id="Grupo_61" data-name="Grupo 61">
                  <g id="Grupo_60" data-name="Grupo 60">
                    <g id="Grupo_59" data-name="Grupo 59">
                      <path id="Trazado_12" data-name="Trazado 12" d="M461.23,511.072H314.076V416.035h-10.22v-26.57H467.362v24.112Z" transform="translate(-303.856 -389.465)" fill="#ebebeb"/>
                    </g>
                  </g>
                </g>
              </g>
            </g>
          </g>
          <g id="Grupo_70" data-name="Grupo 70" transform="translate(202.338 41.896)">
            <g id="Grupo_69" data-name="Grupo 69" transform="translate(0)">
              <g id="Grupo_68" data-name="Grupo 68">
                <g id="Grupo_67" data-name="Grupo 67">
                  <g id="Grupo_66" data-name="Grupo 66">
                    <g id="Grupo_65" data-name="Grupo 65">
                      <rect id="Rectángulo_3" data-name="Rectángulo 3" width="59.27" height="14.305" fill="#e0e0e0"/>
                    </g>
                  </g>
                </g>
              </g>
            </g>
          </g>
          <g id="Grupo_76" data-name="Grupo 76" transform="translate(193.129 74.087)">
            <g id="Grupo_75" data-name="Grupo 75" transform="translate(0)">
              <g id="Grupo_74" data-name="Grupo 74">
                <g id="Grupo_73" data-name="Grupo 73">
                  <g id="Grupo_72" data-name="Grupo 72">
                    <g id="Grupo_71" data-name="Grupo 71">
                      <rect id="Rectángulo_4" data-name="Rectángulo 4" width="76.107" height="30.209" fill="#fff"/>
                    </g>
                  </g>
                </g>
              </g>
            </g>
          </g>
        </g>
      </g>
      <g id="Message" transform="translate(398.871 310.96)">
        <g id="Grupo_171" data-name="Grupo 171" transform="translate(0 0)">
          <g id="Grupo_167" data-name="Grupo 167">
            <g id="Grupo_164" data-name="Grupo 164" transform="translate(0.744 0.686)">
              <path id="Trazado_72" data-name="Trazado 72" d="M376.762,135.354H153.369a11.62,11.62,0,0,0-11.62,11.62V248.742a11.62,11.62,0,0,0,11.62,11.621h93.718l19.9,25.527,16.59-25.527h93.182a11.62,11.62,0,0,0,11.62-11.621V146.974A11.62,11.62,0,0,0,376.762,135.354Z" transform="translate(-141.749 -135.354)" fill="#fff"/>
            </g>
            <g id="Grupo_166" data-name="Grupo 166">
              <g id="Grupo_165" data-name="Grupo 165">
                <path id="Trazado_73" data-name="Trazado 73" d="M377.247,135.8s.373-.02,1.1,0a11.231,11.231,0,0,1,3.186.708,11.473,11.473,0,0,1,4.419,2.988,11.736,11.736,0,0,1,3.06,6.642c.215,11.084.178,27.2.27,47.615.026,10.209.054,21.477.083,33.7q.022,9.171.04,19.051a27.358,27.358,0,0,1-.229,5.073,12.2,12.2,0,0,1-11.388,9.782l-93.726.141.579-.315c-5.208,8.027-10.835,16.7-16.57,25.538l-.545.837-.614-.786L247,261.26l.576.281-80.54.017h-9.676c-1.635-.032-3.149.069-4.9-.086a12.278,12.278,0,0,1-4.812-1.6,12.425,12.425,0,0,1-5.848-7.961,21.584,21.584,0,0,1-.307-4.892v-4.735q0-18.906.011-37.222t.017-35.925q.009-8.806.011-17.416l.006-4.3a12.343,12.343,0,0,1,6.682-10.941,11.956,11.956,0,0,1,4.224-1.285c1.506-.138,2.845-.066,4.239-.083l8.251.009,16.16.017q15.934.017,30.907.037c19.937.032,38.512.063,55.472.092,33.878.1,61.309.181,80.322.235,9.45.063,16.794.109,21.839.141q3.691.052,5.678.075c1.282.026,1.936.077,1.936.077s-.654.052-1.936.075q-1.992.03-5.678.075c-5.044.034-12.389.08-21.839.141-19.014.057-46.445.138-80.322.238-16.96.029-35.535.057-55.472.092q-14.957.017-30.907.037-7.967.009-16.16.014l-8.251.009c-1.371.017-2.813-.043-4.084.083a10.557,10.557,0,0,0-3.748,1.144,10.971,10.971,0,0,0-5.916,9.719l0,4.3q0,8.612.011,17.416.009,17.607.017,35.925,0,18.3.011,37.222v4.735a20.208,20.208,0,0,0,.275,4.566,10.929,10.929,0,0,0,5.145,7,10.779,10.779,0,0,0,4.227,1.405c1.448.138,3.152.049,4.732.075h9.676l80.54.017h.356l.218.281L268.037,285.9l-1.159.052,16.61-25.515.2-.313h.373l93.675.086a11.072,11.072,0,0,0,10.359-8.844,26.55,26.55,0,0,0,.227-4.858q.021-9.872.037-19.051c.032-12.226.06-23.493.086-33.7.055-20.359.1-36.482.126-47.569a11.562,11.562,0,0,0-7.121-9.464A13.951,13.951,0,0,0,377.247,135.8Z" transform="translate(-141.489 -135.115)" fill="#263238"/>
              </g>
            </g>
          </g>
          <g id="Grupo_169" data-name="Grupo 169" transform="translate(23.992 35.732)">
            <rect id="Rectángulo_15" data-name="Rectángulo 15" width="200.137" height="58.319" rx="3.545" fill="#f5f5f5"/>
          </g>
        </g>
      </g>
      <g id="Grupo_21565" data-name="Grupo 21565" transform="translate(1132.055 194.953)">
        <path id="Trazado_20542" data-name="Trazado 20542" d="M2569.214,1324.927c-4.089,9.638-7.326,19.73-8.381,30.145-.822,8.113-.312,16.3.374,24.42a113.257,113.257,0,0,0,2.575,17.958c1.7,6.851,4.7,13.631,9.971,18.321,2.842,2.524,6.861,4.443,10.405,3.029a10.759,10.759,0,0,0,4.337-3.645c4.18-5.407,6.27-12.162,7.4-18.912a27.54,27.54,0,0,0,.252-9.708,18.448,18.448,0,0,0-3.271-7.336,6.6,6.6,0,0,0-3.175-2.62,2.9,2.9,0,0,0-3.534,1.424,40.36,40.36,0,0,1-8.875-14.136,31.966,31.966,0,0,1-1.394-16.994c.419-2.07,1.075-4.094,1.409-6.185a39.353,39.353,0,0,0,0-9.28,9.117,9.117,0,0,0-1.348-4.786C2574.541,1324.765,2571.5,1324.381,2569.214,1324.927Z" transform="translate(-2467.555 -1185.302)" fill="#72120c"/>
        <path id="Trazado_20543" data-name="Trazado 20543" d="M2647.42,1349.964c-1.1,2.524-3.226,4.423-5.084,6.457-8.84,9.719-11.9,23.587-11.253,36.709.222,4.483.808,9.168-.929,13.313-2.949,7.028-11.385,9.88-18.963,10.683-4.665.5-9.547.5-13.844-1.4s-7.846-6.058-7.775-10.774a17.168,17.168,0,0,1,2.02-6.911h0c.333-.732.681-1.459,1.01-2.186,2.954-6.674,4.23-11.788,3.625-19.064a25.934,25.934,0,0,1-12.859-2.777,14.813,14.813,0,0,1-3.2-2.524,32.888,32.888,0,0,1-9.542-24.481c.162-3.534.909-7.068,1.282-10.6.5-4.625.338-9.32,1.115-13.9a37.347,37.347,0,0,1,1.429-5.629c2.681-8.078,7.825-15.318,12.854-22.3l4.746-2.055.788-.338a48.671,48.671,0,0,1,6.306-.368,16,16,0,0,1,6.3,1.287c1.752.8,3.292,2.019,4.988,2.923,3.312,1.787,7.1,2.423,10.683,3.574a37.949,37.949,0,0,1,23.617,22.784c2.1,5.776,2.747,11.965,3.373,18.084C2648.4,1343.648,2648.7,1347.016,2647.42,1349.964Z" transform="translate(-2472.6 -1169.016)" fill="#f0a975"/>
        <path id="Trazado_20544" data-name="Trazado 20544" d="M2651.85,1340.454c-.626-6.119-1.272-12.309-3.372-18.084a37.95,37.95,0,0,0-23.618-22.784c-3.579-1.151-7.371-1.787-10.683-3.574-1.7-.914-3.236-2.125-4.988-2.923a16,16,0,0,0-6.3-1.287c-2.439.262-4.811.5-7.068.707l-4.746,2.055c-5.049,6.982-10.173,14.222-12.854,22.3,0,0,6.806,4.327,13.227,5.826s8.946-2.08,12.365,0,11.939,10.35,20.75,11.44,10,7.573,9.38,12.657,2.681,1.1,2.681,1.1,4.927-6.508,9.365-4.221,3.358,9.739.924,10.925-7.548-.793-9.688,8.749c-1.893,8.431-4.544,16.867-5.27,26.1h0q-.076.924-.122,1.863c-.3,2.7-1.343,7.573-5.008,9.744-5.22,3.1-29.388,14.429-29.534-7.391,0,0-7.619,7.487-3.736,15.06s6.351,12.42,11.768,9.416c.474-.268,1.05-.581,1.7-.929a37.523,37.523,0,0,0,7.941-.1c7.573-.8,16.014-3.655,18.963-10.683,1.737-4.145,1.151-8.83.929-13.313-.651-13.126,2.414-26.99,11.253-36.708,1.858-2.02,3.983-3.933,5.084-6.457C2652.476,1347.012,2652.173,1343.644,2651.85,1340.454Zm-34.714,71.973c-.469.04-.929.071-1.378.1,6.316-3.448,13.237-7.457,15.706-9.966C2630.741,1407.989,2627.944,1411.513,2617.135,1412.427Z" transform="translate(-2476.374 -1169.012)" fill="#f59d4e"/>
        <path id="Trazado_20545" data-name="Trazado 20545" d="M2671.832,1357.044a79.043,79.043,0,0,1-9.521,15.787q-1.136,1.515-2.277,3.07c-3.534,4.741-7.2,9.592-12.318,12.571-4.115,2.373-8.866,3.342-13.526,4.261a3.273,3.273,0,0,1-1.969,0c-1.08-.5-1.313-1.878-1.378-3.055a94.058,94.058,0,0,1,7.209-41.671,7.465,7.465,0,0,1,1.793-2.873,12.183,12.183,0,0,1,3.221-1.585,8.9,8.9,0,0,0,5.018-5.407,6.584,6.584,0,0,0-1.989-6.891,6.724,6.724,0,0,0-7-.57,10.413,10.413,0,0,0-4.872,5.372c1.01-3.615,1.909-7.947-.575-10.769a11.279,11.279,0,0,0-4.291-2.625l-9.956-4.2c-4.913-2.075-9.961-4.236-13.747-7.987s-6.059-9.537-4.231-14.535h0a14.136,14.136,0,0,0-5.155,12.395,38.146,38.146,0,0,1-14.192-2.863h0l-.081-.035h0a37.172,37.172,0,0,1-6.609-3.534,4.735,4.735,0,0,1-1.59-1.515,4.37,4.37,0,0,1-.328-2.4c.606-8.441,6.371-15.823,13.429-20.493a55.31,55.31,0,0,1,22.118-8.759c6.149-1.08,11.789-1.449,18,.757,2.524.9,5.049,1.484,7.214,3.3a17.57,17.57,0,0,1,4.857,6.563,3.82,3.82,0,0,0,1.146,1.782,3.941,3.941,0,0,0,2.216.379c8.078-.1,15.363,5.316,19.8,12.041s6.563,14.641,8.764,22.416c1.863,6.533,3.842,13.126,4.337,19.882A46.313,46.313,0,0,1,2671.832,1357.044Z" transform="translate(-2473.997 -1157.164)" fill="#72120c"/>
        <path id="Trazado_20546" data-name="Trazado 20546" d="M2590.52,1342.32Z" transform="translate(-2482.464 -1194.026)" fill="#f0a975"/>
        <path id="Trazado_20547" data-name="Trazado 20547" d="M2590.36,1342.25l.081.035Z" transform="translate(-2482.385 -1193.992)" fill="#f0a975"/>
        <path id="Trazado_20548" data-name="Trazado 20548" d="M2604.731,1335.844a38.147,38.147,0,0,1-14.192-2.863s6.806-.379,11.39-4.574c4.448-4.069,7.755-4.912,7.956-4.958A14.137,14.137,0,0,0,2604.731,1335.844Z" transform="translate(-2482.474 -1184.683)" fill="#530905"/>
        <path id="Trazado_20549" data-name="Trazado 20549" d="M2689.141,1400.356q-1.136,1.515-2.277,3.07c-3.534,4.741-7.2,9.593-12.319,12.571-4.115,2.373-8.865,3.342-13.525,4.261a3.27,3.27,0,0,1-1.969,0c-1.08-.505-1.313-1.878-1.378-3.054a94.062,94.062,0,0,1,7.209-41.671,7.464,7.464,0,0,1,1.792-2.873,12.191,12.191,0,0,1,3.221-1.585,8.9,8.9,0,0,0,5.018-5.407,6.584,6.584,0,0,0-1.989-6.891,6.725,6.725,0,0,0-7-.571,10.413,10.413,0,0,0-4.872,5.372c1.01-3.615,1.908-7.947-.575-10.769a11.281,11.281,0,0,0-4.292-2.625l-9.956-4.2c-4.912-2.075-9.961-4.236-13.747-7.987s-6.058-9.537-4.231-14.535c0,0,.8,13.535,14.681,16.458s38.875,7.719,37.021,21.82C2678.21,1374.916,2674.368,1395.57,2689.141,1400.356Z" transform="translate(-2500.827 -1184.688)" fill="#530905"/>
        <path id="Trazado_20550" data-name="Trazado 20550" d="M2786.279,1222.165c-.677,3.489-21.648,39.1-31.463,56.242-2.636,4.615-4.473,7.891-4.877,8.83-1.924,4.458-11.491,19.185-22.487,11.738s-17.64-27.843-17.64-27.843,1.7-2.368,4.332-6.089c9.471-13.389,31.135-44.342,30.014-46.018-1.424-2.141-32.7-36.855-39.975-46.952s-21.987-32.124-24.416-33.412-19.134-4.705-21.845-7.846a43.154,43.154,0,0,1-3.231-4.544c-1.929-3.029-3.62-6.058-3.62-6.058s-8.124-8.451,6.417-18.68h0s4.427-4.715,8.285-3.711,7.138.566,10.708,3.428,11.42,6.992,15.418,12.278a32.816,32.816,0,0,1,5.2,8.936c.268.762.475,1.484.656,2.2.57,2.3.313,5.624,2.958,8.618a11.569,11.569,0,0,0,2.464,2.09c5.281,3.423,66.531,54.253,74.811,65.819S2787.137,1217.742,2786.279,1222.165Z" transform="translate(-2511.325 -1072.897)" fill="#f0a975"/>
        <path id="Trazado_20551" data-name="Trazado 20551" d="M2498.29,1257.012s-27.121,12.95-30.418,13.076a11.525,11.525,0,0,1-5.811-1.4s-1.9-4.71-4.619-11.577c-6.846-17.332-18.872-48.437-18.518-52.375.5-5.5,3.534-56.545,5.74-71.691s5.988-31.64,5.988-31.64,1.706-7.2,1.217-13.071c-.252-3.085-.545-11.783-.283-19.659.207-6.245.767-11.965,1.964-13.949h0a1.9,1.9,0,0,1,.5-.591c3.3-2.2,5.26-.5,5.26-.5s-.616-3.176,4.271-2.807,5.619,2.322,5.619,2.322,1.954-1.959,6.23-1.222,2.933,3.176,2.933,3.176a9.56,9.56,0,0,1,8.31,2.686c3.423,3.665,2.318,8.184,1.707,12.829-.313,2.413-2.09,8.078-3.993,13.3-1.757,4.791-3.62,9.153-4.544,10.153-1.954,2.075-7.068,9.163-7.694,11.481s3.176,83.807,4.64,88.689c1.186,3.943,13.475,32.9,18.175,43.923,1.121,2.635,1.818,4.251,1.818,4.251Z" transform="translate(-2407.399 -1049.68)" fill="#f0a975"/>
        <path id="Trazado_20552" data-name="Trazado 20552" d="M2805.268,1443.695c3.832-.369,6.912-.762,9.375-1.151-2.635,4.614-4.473,7.891-4.877,8.83-1.924,4.458-11.49,19.185-22.487,11.738s-17.64-27.843-17.64-27.843,1.7-2.368,4.332-6.089C2778.222,1434.935,2788,1445.371,2805.268,1443.695Z" transform="translate(-2571.153 -1237.034)" fill="#f59d4e"/>
        <path id="Trazado_20553" data-name="Trazado 20553" d="M2517.813,1444.747s-27.116,12.945-30.418,13.071a11.46,11.46,0,0,1-5.806-1.4s-1.908-4.71-4.619-11.577a33.575,33.575,0,0,0,4.039-.369,40.415,40.415,0,0,0,6.563-1.555,75.668,75.668,0,0,0,15.857-7.729,47.118,47.118,0,0,0,6.179-4.286,54.531,54.531,0,0,0,4.706-4.771c.065-.081.141-.162.217-.242l1.817,4.256Z" transform="translate(-2426.241 -1235.405)" fill="#f59d4e"/>
        <path id="Trazado_20554" data-name="Trazado 20554" d="M2687.88,1459.329c-1.01,2.666-27.495,41.99-27.823,66.314-.157,11.612-.505,35.088-1.1,56.858-.651,23.89-1.6,45.71-2.9,47.457-1.515,2.02-35.451-4.347-66.99-16.564-21.2-8.229-41.364-19.119-49.759-31.917-20.876-31.806-25.041-42.656-19.882-56.489s30.327-60.977,33.826-60.977,13.818.167,13.909,3.66c0,0-3.246,9.335,1.924,14.333s28.131.651,33.891-10.34c0,0,.969-1.3,2.02.354s6.9,2.484,12.394.318a15.509,15.509,0,0,0,4.039-3.16l.045-.046c.621-.6,1.282-1.272,1.974-2.019,8.472-8.926,21.3-25.9,21.3-25.9a67.966,67.966,0,0,0,18.962,13.439c11,5,19.185,7.664,21.164,2.666C2684.881,1457.33,2688.859,1456.664,2687.88,1459.329Z" transform="translate(-2446.267 -1242.991)" fill="#fff"/>
        <path id="Trazado_20555" data-name="Trazado 20555" d="M2610.4,1502.21s-12.783,41.247-19.3,55.444-7.1,16.408-20.947,15.479-34.911-4.423-33.169-13.965,9.547-31.443,9.547-31.443-20.947,33.321-17.922,40.636,52.945,25.021,59,16.292,21.875-55.535,23.971-61.442,2.337-19.513,2.337-19.513A7.074,7.074,0,0,1,2610.4,1502.21Z" transform="translate(-2451.666 -1273.194)" fill="#d2d7db"/>
        <path id="Trazado_20556" data-name="Trazado 20556" d="M2728.542,1607.9c-.651,23.89-1.6,45.71-2.9,47.457-1.515,2.019-35.451-4.347-66.99-16.565-5.089-53.061,19.468-110.252,19.468-110.252l12.8-33.856.156-.157,1.974-2.019c-.076.5-4.978,32.816-8.345,58.191-3.388,25.571,1.565,50.88,16.963,57.145C2710.756,1611.562,2721.368,1609.885,2728.542,1607.9Z" transform="translate(-2515.854 -1268.391)" fill="#d2d7db"/>
        <path id="Trazado_20557" data-name="Trazado 20557" d="M2687.835,1625.64c0,.1-.616,44.978,7.573,56.151s26.965,20.422,42.818,17.625c0,0-.768,16.2-2.02,21.85s-48.23-3.155-53.324-25.935-4.241-53.945-1.01-60.175A57.845,57.845,0,0,1,2687.835,1625.64Z" transform="translate(-2526.4 -1334.309)" fill="#aeb6b7"/>
        <path id="Trazado_20558" data-name="Trazado 20558" d="M2530.814,1455.473s-1.8,3.842-4.584,9.764c-8.123,17.261-24.627,52.142-29.328,60.664-1.05,1.878-1.514,2.474-1.186,1.282l.121-.394c1.792-5.644-3.125-24.865-7.487-41.939v-.03c-4.13-16.156-7.75-30.4-4.67-29.348,6.336,2.171,28.994-14.994,31.16-19.493s5-11,6-6.331S2530.814,1455.473,2530.814,1455.473Z" transform="translate(-2428.993 -1236.468)" fill="#fff"/>
        <path id="Trazado_20559" data-name="Trazado 20559" d="M2532.026,1500.128c-.571,3.4-15.368,42.353-29.444,58.221-.394.444-.793.878-1.187,1.282l.121-.394c1.792-5.644-3.125-24.864-7.487-41.939,5.079,16.085,34.159-23.729,34.159-23.729a6.865,6.865,0,0,1,3.736,4.1A5.637,5.637,0,0,1,2532.026,1500.128Z" transform="translate(-2434.688 -1268.916)" fill="#d2d7db"/>
        <path id="Trazado_20560" data-name="Trazado 20560" d="M2533.692,2577.339s-.313,3.852-.949,9.567c-.358,3.18-.818,6.942-1.378,10.94-.414,2.938-.888,6.008-1.414,9.087-.772,4.458-1.187,9.053-2.691,12.895-16.009,40.939,1.928,49.759,1.928,49.759l-28.721-1.121s-3.054-26.53-5.584-55.222c-.384-4.357-.757-8.769-1.1-13.126-.051-.616-.1-1.231-.147-1.843h0c-1.686-21.542-2.716-41.9-1.6-50.824C2494.9,2524.576,2533.692,2577.339,2533.692,2577.339Z" transform="translate(-2433.471 -1787.885)" fill="#f0a975"/>
        <path id="Trazado_20561" data-name="Trazado 20561" d="M2533.444,2617.96c-.358,3.18-.818,6.942-1.378,10.94-6.059,2.736-19.084,5.781-26.647,4.468-8.744-1.515-10.637-1.626-10.935-2.226a.654.654,0,0,1-.056-.142l-.091-1.7h0l-1.308-24.88Z" transform="translate(-2434.193 -1818.939)" fill="#f59d4e"/>
        <path id="Trazado_20562" data-name="Trazado 20562" d="M2503.674,2732.408s-3.055-26.536-5.584-55.227c17.857,5.983,35.068-6.311,35.068-6.311-.772,4.463-1.666,8.9-2.691,12.9-4.387,17.166-4.014,22.466-4.014,22.466l.262,29.787Z" transform="translate(-2436.698 -1851.841)" fill="#f0a975"/>
        <path id="Trazado_20563" data-name="Trazado 20563" d="M2480.163,2796.469a16.464,16.464,0,0,1-.793,4.953l-99.014,1.515s-2.524-.924-3.489-5.881a22.114,22.114,0,0,1-.379-4.14c-.051-8.618,37.107-16.469,49.381-22.613,15.863-7.941,14.752-3.135,14.752-3.135a43.581,43.581,0,0,0,29.237-.167s5.442-10.1,9.421,19.483A50.378,50.378,0,0,1,2480.163,2796.469Z" transform="translate(-2376.49 -1898.616)"/>
        <path id="Trazado_20564" data-name="Trazado 20564" d="M2480.535,2827a16.457,16.457,0,0,1-.793,4.953l-99.014,1.514s-2.524-.924-3.489-5.881Z" transform="translate(-2376.861 -1929.147)" fill="#f0a975"/>
        <path id="Trazado_20565" data-name="Trazado 20565" d="M2471.37,2785.412a.691.691,0,0,1-.692-.651,16.265,16.265,0,0,0-2.524-7.775.693.693,0,0,1,1.131-.8,17.493,17.493,0,0,1,2.761,8.492.687.687,0,0,1-.646.732Z" transform="translate(-2421.813 -1903.841)" fill="#fff"/>
        <path id="Trazado_20566" data-name="Trazado 20566" d="M2453.228,2789.964a.687.687,0,0,1-.7-.651c-.263-4.458-2.02-6.346-2.02-6.366a.7.7,0,1,1,1.01-.959c.086.086,2.111,2.227,2.4,7.245a.7.7,0,0,1-.651.732Z" transform="translate(-2413.046 -1906.752)" fill="#fff"/>
        <path id="Trazado_20567" data-name="Trazado 20567" d="M2487.528,2779.36a.7.7,0,0,1-.7-.656c-.389-7.543-4.655-7.785-4.7-7.79a.692.692,0,0,1-.666-.717.7.7,0,0,1,.717-.666c.227,0,5.553.308,6.028,9.087a.691.691,0,0,1-.656.727Z" transform="translate(-2428.469 -1900.692)" fill="#fff"/>
        <path id="Trazado_20568" data-name="Trazado 20568" d="M2844.8,2584.211a1.387,1.387,0,0,0,.03.348c.293,3.322.575,7.068.853,11,.414,5.872.808,12.2,1.166,18.261.929,15.706,1.585,29.681,1.585,29.681l-26.42,8.77-7.487-34.917-4.115-19.185-2.019-9.416-7.472-34.861-4.816-22.456-1.3-6.058a28.527,28.527,0,0,1,7.341-1.383,30.913,30.913,0,0,1,24.031,8.769C2834.734,2540.954,2842.328,2556.262,2844.8,2584.211Z" transform="translate(-2583.615 -1779.071)" fill="#f0a975"/>
        <path id="Trazado_20569" data-name="Trazado 20569" d="M2846.074,2584.235a1.365,1.365,0,0,0,.031.348c.293,3.322.575,7.068.853,11a169.644,169.644,0,0,1-35.27,2.615l-2.019-9.416-7.472-34.861-4.816-22.456a53.386,53.386,0,0,1,6.059-7.422,30.912,30.912,0,0,1,24.031,8.77C2836.007,2540.979,2843.6,2556.286,2846.074,2584.235Z" transform="translate(-2584.888 -1779.095)" fill="#f59d4e"/>
        <path id="Trazado_20570" data-name="Trazado 20570" d="M2862.74,2677.57c.929,15.706,2.353,42.015,2.353,42.015l-26.424,8.77-10.229-47.7C2830.742,2681.412,2847.185,2686.107,2862.74,2677.57Z" transform="translate(-2600.267 -1855.158)" fill="#f0a975"/>
        <path id="Trazado_20571" data-name="Trazado 20571" d="M2812.165,2765.946c.111,1.08.05,5.049.222,5.906,1.141,5.448,2.878,8.689-27.974,19.766-35.613,12.778-57.792,15.858-70.812,1.555-11.687-12.844,23.269-22.588,64.461-49.052-.2.575-3.731,18.68,29.787,5.3,1.393-.561,1.959,1.237,2.287,2.7A95.8,95.8,0,0,1,2812.165,2765.946Z" transform="translate(-2542.276 -1888.11)" fill="#070208"/>
        <path id="Trazado_20572" data-name="Trazado 20572" d="M2786.652,2818.815c-35.614,12.778-57.792,15.858-70.812,1.555,0,0,14.55,9.087,36.819,4.12,18.175-4.069,51.547-20.27,61.967-25.44C2815.767,2804.5,2817.5,2807.739,2786.652,2818.815Z" transform="translate(-2544.515 -1915.308)" fill="#f0a975"/>
        <path id="Trazado_20573" data-name="Trazado 20573" d="M2826.249,2766.782a1.222,1.222,0,0,1-1.61-.465c-3.973-6.775-8.2-8.345-8.245-8.36a1.217,1.217,0,1,1,.793-2.3c.207.071,5.079,1.8,9.552,9.431a1.211,1.211,0,0,1-.434,1.661Z" transform="translate(-2593.896 -1893.788)" fill="#fff"/>
        <path id="Trazado_20574" data-name="Trazado 20574" d="M2810.4,2775.572a1.211,1.211,0,0,1-1.605-.464c-3.974-6.775-8.2-8.345-8.25-8.36a1.218,1.218,0,0,1,.792-2.3c.207.071,5.084,1.8,9.552,9.431a1.217,1.217,0,0,1-.429,1.666Z" transform="translate(-2586.049 -1898.141)" fill="#fff"/>
        <path id="Trazado_20575" data-name="Trazado 20575" d="M2791.69,2787.336a1.217,1.217,0,0,1-1.611-.465c-3.973-6.775-8.2-8.345-8.244-8.36a1.217,1.217,0,0,1,.792-2.3c.2.07,5.079,1.8,9.552,9.426a1.216,1.216,0,0,1-.434,1.666Z" transform="translate(-2576.815 -1903.978)" fill="#fff"/>
        <path id="Trazado_20576" data-name="Trazado 20576" d="M2678.352,2049.284c-17.9,23.87-66.909,17.67-66.909,17.67s-.863-1.3-5.887-21.2h0c-.979-3.882-2.115-8.471-3.443-13.9-.868-3.534-1.868-7.346-2.974-11.3-9.229-33.084-25.612-77.89-29.418-93.117-4.266-17.049-35.376-121.47-35.376-121.47s-5.553,92.486-3.408,129.568c1.055,18.4-.207,47.8-1.747,72.751-.662,10.647-1.368,20.492-1.969,28.328-.828,10.8-1.454,17.786-1.454,17.786-23.017,14.49-63.81,9.027-63.81,9.027s-.606-10.542-1.621-26.929c-.409-6.477-.873-13.864-1.4-21.875-1.883-28.777-4.478-65.6-7.27-96.984-5.554-62.229-4.69-162.389-7.25-199.042s8.1-83.535,19.033-134.682,29.974-84.529,29.974-84.529c6.164-11.38,16.509-26.758,16.509-26.758,1.742-3.878,9.34,2.989,10.89,3.842s0,2.59,0,2.59-32.675,66.087-31.251,71.69,48.547,13.4,53.541,12.9c.429-.045.979-.575,1.631-1.515h0c7.068-10.163,26.015-67.773,25.49-72.2-.57-4.857,1.01-4.544,1.01-4.544s6.427-.429,10.284-2.146S2585,1484.3,2585,1484.3s-.333,11.354-7.472,32.776-8.143,51.683-6.139,73.811,18.68,34.982,31.978,40.116,17.927.772,17.927.772c1.459-.6,2.575.823,3.418,3.716,2.115,7.194,2.554,23.527,2.554,40.561,0,23.87,23.012,222.478,31.539,255.3,4.382,16.863,9.426,47.563,13.293,73.422,1.217,8.154,2.317,15.822,3.246,22.426C2677.2,2040.348,2678.352,2049.284,2678.352,2049.284Z" transform="translate(-2409.931 -1257.957)" fill="#034a66"/>
        <path id="Trazado_20577" data-name="Trazado 20577" d="M2827.459,2550.151c-2.828,1.853-5.8,3.534-8.744,5.155-8.224,4.569-16.509,9.133-25.384,12.278s-18.428,4.826-27.737,3.443a29.754,29.754,0,0,1-7.916-2.232h0c-.979-3.882-2.115-8.471-3.443-13.9-.868-3.534-1.868-7.346-2.974-11.3a102.028,102.028,0,0,0,21.31-.606,154.7,154.7,0,0,0,51.643-15.252C2825.429,2535.879,2826.53,2543.548,2827.459,2550.151Z" transform="translate(-2562.052 -1780.967)" fill="#001a24"/>
        <path id="Trazado_20578" data-name="Trazado 20578" d="M2543.822,2534.83c-.662,10.647-1.368,20.493-1.969,28.328-8.865,4.8-19.25,7.169-29.393,8.078a59.6,59.6,0,0,1-15.146-.253c-6.134-1.01-11.93-3.489-17.645-5.932-1.565-.667-3.125-1.328-4.685-2.02-.409-6.478-.873-13.864-1.4-21.876a32.117,32.117,0,0,0,3.751.5,184.5,184.5,0,0,0,58.933-4.852C2538.788,2536.193,2541.3,2535.511,2543.822,2534.83Z" transform="translate(-2424.563 -1784.483)" fill="#001a24"/>
        <path id="Trazado_20579" data-name="Trazado 20579" d="M2836.318,1338s4.286,3.423,9.426,6.851c0,0-3.9,3-10.8-3.423Z" transform="translate(-2603.485 -1191.887)" fill="#f59d4e"/>
        <path id="Trazado_20580" data-name="Trazado 20580" d="M2700.707,1137.026c-.146,1.606-.474,2.858-1.01,3.206-1.555,1.04-20.3-4.67-23.587-4.877-2.413-.151-13.247-1.085-21.446-5.331-1.929-3.029-3.62-6.058-3.62-6.058a9.257,9.257,0,0,1-2.08-4.266,9.47,9.47,0,0,1,.242-4.63c.864-2.857,3.181-6.215,8.255-9.8a69.233,69.233,0,0,0-5.23,10.531,10.788,10.788,0,0,0-.8,3.968,3.248,3.248,0,0,0,.066.54,5.3,5.3,0,0,0,5.963,4.544s-.939,1.257,1.01,3.64,6.563,2.7,7.477,1.979c0,0,1.454,2.9,5.811,3.11a7.6,7.6,0,0,0,4.15-1.868s2.494,3.216,4.877,1.348c.959-.752,2.019-2.8,2.984-4.907.712-1.515,1.4-3.11,2.019-4.236s1.161-1.853,1.514-1.515c.924.843,6.059,3.029,9.749,3.792.051.161.106.323.157.505.2.585.358,1.156.5,1.717.232.944.328,2.07.545,3.266a10.419,10.419,0,0,0,2.448,5.342Z" transform="translate(-2511.313 -1076.654)" fill="#f59d4e"/>
        <path id="Trazado_20581" data-name="Trazado 20581" d="M2702.58,1146.019a15.84,15.84,0,0,1,.692-3.337,23.848,23.848,0,0,1,1.212-3.14,20.283,20.283,0,0,1,1.671-2.948,11.42,11.42,0,0,1,1.075-1.348,5.106,5.106,0,0,1,1.363-1.1c-.535,1.01-.873,2.02-1.308,3.06s-.848,2.02-1.323,3.029-.964,1.984-1.515,2.953A21.8,21.8,0,0,1,2702.58,1146.019Z" transform="translate(-2537.949 -1090.954)" fill="#f59d4e"/>
        <path id="Trazado_20582" data-name="Trazado 20582" d="M2682.85,1139.38a29.707,29.707,0,0,1,1.272-4.428,41.637,41.637,0,0,1,1.777-4.215,39.49,39.49,0,0,1,2.221-4.039c.414-.646.868-1.277,1.348-1.888a11.578,11.578,0,0,1,.788-.873,2.7,2.7,0,0,1,.959-.687,3.753,3.753,0,0,0-.6.954c-.161.338-.318.681-.464,1.01-.308.687-.6,1.388-.9,2.08-.606,1.378-1.222,2.757-1.883,4.12s-1.343,2.706-2.085,4.039A39.072,39.072,0,0,1,2682.85,1139.38Z" transform="translate(-2528.18 -1085.557)" fill="#f59d4e"/>
        <path id="Trazado_20583" data-name="Trazado 20583" d="M2666,1128.617a30.468,30.468,0,0,1,1.383-4.317c.555-1.393,1.176-2.762,1.858-4.094a40.256,40.256,0,0,1,2.272-3.9c.414-.631.873-1.237,1.343-1.838.258-.288.505-.586.768-.858.136-.136.268-.273.414-.4a4.292,4.292,0,0,1,.469-.343l-.278.5c-.081.167-.157.338-.232.5-.162.328-.308.681-.454,1.01l-.9,2.019c-.616,1.353-1.257,2.7-1.939,4.039s-1.4,2.63-2.166,3.913a35.722,35.722,0,0,1-2.534,3.766Z" transform="translate(-2519.837 -1080.412)" fill="#f59d4e"/>
        <path id="Trazado_20584" data-name="Trazado 20584" d="M2500.834,1074.329a28.116,28.116,0,0,1-.808,3.534c-.353,1.292-.8,2.767-1.308,4.316-.57,1.767-1.212,3.625-1.878,5.427a16.627,16.627,0,0,1-4.438,2.58c.086-.247,2.131-4.821,3.327-8.734a14.4,14.4,0,0,0,.838-4.428v-.151c-.368-3.176-3.66-6.478-5.988-7.82s-3.171-5.372-5.741-6.6-3.423,1.959-3.029,7.573a16.378,16.378,0,0,0,.611,3.534,10.412,10.412,0,0,0,2.444,4.544s-.272.162-.727.48a27.908,27.908,0,0,0-4.544,3.978c-2.691,2.933-4.4,10.259-4.4,10.259-.843.05-1.182-.429-1.182-1.247,0-2.368,2.853-7.522,4.619-10.6,0,0,.379-2.59-.732-3.913a2.227,2.227,0,0,0-1.969-.737c-.277,0-.565.04-.863.05a13.062,13.062,0,0,1-8.754-2.12,14.74,14.74,0,0,1-2.272-1.954c.035-1.08.086-2.146.136-3.171.283-4.943.833-9.138,1.827-10.779,0,0-.384,7.4,1.01,11.46a4.85,4.85,0,0,0,1.232,2.115c1.863,1.62,3.4.288,4.231-.8a6.691,6.691,0,0,0,.656-1.01,5.355,5.355,0,0,0,.182,1.242,2.943,2.943,0,0,0,2.751,2.423,5.047,5.047,0,0,0,3.393-.939,2.853,2.853,0,0,0,.611-.616h0a30.7,30.7,0,0,1,.227-3.973c.5-4.17.9-5.594,2.484-6.816s4.519-.369,5.493,1.469,6.23,6.836,6.921,7.573,2.12-2.443,2.484-3.181S2500.834,1074.329,2500.834,1074.329Z" transform="translate(-2419.839 -1053.422)" fill="#f59d4e"/>
        <path id="Trazado_20585" data-name="Trazado 20585" d="M2608.472,2091.013s-10.92-46.049-14.217-43.848,10.319,152.271,10.319,152.271Z" transform="translate(-2484.058 -1542.984)" fill="#001a24"/>
        <path id="Trazado_20591" data-name="Trazado 20591" d="M2750.063,2559.605s39.379-1.409,73.336-11.834c0,0,4.983-3.166,5.553-.7s4.039,40.389-3.3,45.271c-6.891,4.6-55.7,11.9-65.94,8.325C2755.142,2599.075,2740.349,2558.106,2750.063,2559.605Z" transform="translate(-2559.856 -1790.078)" fill="#02384d"/>
        <path id="Trazado_20592" data-name="Trazado 20592" d="M2462.413,2559.342s37.592,3.448,71.115-2.328c0,0,5.114-2.4,5.352,0s-1.075,38.875-8.643,42.605c-7.1,3.534-54.359,4.543-63.658-.106C2462.433,2597.454,2453.355,2556.737,2462.413,2559.342Z" transform="translate(-2417.111 -1794.939)" fill="#02384d"/>
        <path id="Trazado_20593" data-name="Trazado 20593" d="M2771.08,1858.32l1.116,20.785,1.176,20.78c.394,6.922.768,13.848,1.2,20.77l1.262,20.765c.924,13.838,1.777,27.682,2.933,41.49.5,6.911,1.156,13.813,1.777,20.7l1.065,10.329c.162,1.722.4,3.433.611,5.15l.641,5.145.313,2.57.389,2.555.783,5.109c.136.853.242,1.707.409,2.555l.474,2.524.949,5.1c.656,3.393,1.363,6.785,2.044,10.178l2.176,10.158c2.923,13.545,6.119,27.045,9.153,40.586s6.058,27.1,8.673,40.737c.611,3.423,1.247,6.836,1.828,10.259l.833,5.144.414,2.575c.131.853.238,1.717.359,2.58a191.509,191.509,0,0,1,1.979,20.73c-1.267-13.823-3.968-27.439-6.982-40.965l-2.3-10.137-2.393-10.1-4.9-20.195q-4.993-20.194-9.688-40.5l-2.242-10.178c-.7-3.408-1.419-6.805-2.095-10.219l-.975-5.124-.5-2.565c-.167-.853-.278-1.722-.419-2.585l-.813-5.175-.4-2.585-.323-2.59c-1.772-13.823-2.924-27.667-3.933-41.52s-1.767-27.717-2.388-41.585-1.116-27.737-1.515-41.611l-.444-20.816-.172-10.405Z" transform="translate(-2571.866 -1449.518)" fill="#001a24"/>
        <path id="Trazado_20594" data-name="Trazado 20594" d="M2584.52,1568.565c-6.735,3.408-50.178-3.151-56.232-10.506s33.942-76.658,33.942-76.658c1.55.858,0,2.59,0,2.59s-32.675,66.086-31.251,71.69S2579.527,1569.044,2584.52,1568.565Z" transform="translate(-2451.342 -1262.89)" fill="#001a24"/>
        <path id="Trazado_20595" data-name="Trazado 20595" d="M2723.46,1646.442c-40.57,6.977-59.957-28.272-57.231-70.873,2.822-44.17,16.156-75.3,16.156-75.3s-11.854-6.891-13.525,4.261c-1.55,10.344-17.67,58.887-25.379,68.581,7.068-10.163,26.016-67.773,25.49-72.2-.57-4.857,1.01-4.544,1.01-4.544s6.427-.429,10.284-2.146,3.474,1.065,3.474,1.065-.333,11.354-7.472,32.776-8.144,51.683-6.139,73.811,18.68,34.982,31.978,40.116,17.928.773,17.928.773C2721.491,1642.131,2722.617,1643.55,2723.46,1646.442Z" transform="translate(-2508.687 -1268.967)" fill="#001a24"/>
        <path id="Trazado_20596" data-name="Trazado 20596" d="M2621.3,1456.754s7.831-.212,13.889-3.322c0,0,2.282-.914,0,2.524s-13.773,5.619-13.773,5.619Z" transform="translate(-2497.704 -1248.988)" fill="#f59d4e"/>
        <ellipse id="Elipse_1253" data-name="Elipse 1253" cx="11.996" cy="11.996" rx="11.996" ry="11.996" transform="translate(3.625 0)" fill="#ebebeb"/>
        <path id="Trazado_20602" data-name="Trazado 20602" d="M2455.711,1082.331s-.272.161-.727.479l-6.22-1.514-2.832-.687-8.754-2.121-31.948-7.75,2.353-4.039,27.459,6.639,2.822.682a4.853,4.853,0,0,0,1.232,2.115c1.863,1.621,3.4.288,4.231-.8l.838.207a2.943,2.943,0,0,0,2.751,2.423,5.05,5.05,0,0,0,3.393-.939l2.958.712A10.591,10.591,0,0,0,2455.711,1082.331Z" transform="translate(-2390.72 -1057.557)" fill="#4f4f4f"/>
        <path id="Trazado_20603" data-name="Trazado 20603" d="M2591.861,1110.94a10.787,10.787,0,0,0-.8,3.968,3.2,3.2,0,0,0,.066.54l-2.524-.611-58.786-14.262-2.989-.727a14.415,14.415,0,0,0,.838-4.428l3.458.838,57.721,13.949Z" transform="translate(-2450.929 -1071.777)" fill="#4f4f4f"/>
        <path id="Trazado_20604" data-name="Trazado 20604" d="M2769.338,1154.09v.727l-.9,3.817-35.8-8.684-14.49-3.534c.712-1.515,1.4-3.11,2.02-4.236l11.445,2.767Z" transform="translate(-2545.658 -1094.93)" fill="#4f4f4f"/>
        <path id="Trazado_20605" data-name="Trazado 20605" d="M2480.688,1069.229a30.77,30.77,0,0,1-.55-3.206c-.131-1.07-.248-2.136-.328-3.206s-.157-2.131-.217-3.2-.116-2.125-.242-3.216a10.37,10.37,0,0,1,1.085,3.1,26.013,26.013,0,0,1,.459,3.231,31.727,31.727,0,0,1,.091,3.246A20.792,20.792,0,0,1,2480.688,1069.229Z" transform="translate(-2427.42 -1052.457)" fill="#f59d4e"/>
        <path id="Trazado_20606" data-name="Trazado 20606" d="M2495.539,1070.869a29.851,29.851,0,0,1-.2-3.907c0-1.3.081-2.6.187-3.887a38.2,38.2,0,0,1,.535-3.867,17.916,17.916,0,0,1,1.091-3.766l-.242,3.877c-.081,1.287-.2,2.57-.3,3.852s-.252,2.57-.424,3.852S2495.822,1069.586,2495.539,1070.869Z" transform="translate(-2435.334 -1051.982)" fill="#f59d4e"/>
        <ellipse id="Elipse_1254" data-name="Elipse 1254" cx="3.231" cy="1.737" rx="3.231" ry="1.737" transform="translate(104.199 165.137) rotate(-67.6)" fill="#72120c"/>
        <ellipse id="Elipse_1255" data-name="Elipse 1255" cx="3.231" cy="1.737" rx="3.231" ry="1.737" transform="translate(125.813 172.846) rotate(-67.6)" fill="#72120c"/>
        <path id="Trazado_20607" data-name="Trazado 20607" d="M2634.28,1360.1c0-.505.692-.752,1.207-.767,1.641-.056,5.665.2,6.023,3.877.3,3.029-.868,2.1-.949,1.61a6.831,6.831,0,0,0-1.257-3.09C2637.672,1360.056,2634.249,1361.283,2634.28,1360.1Z" transform="translate(-2504.131 -1202.448)" fill="#72120c"/>
        <path id="Trazado_20608" data-name="Trazado 20608" d="M2584.006,1347.536c-.242-.454.242-1.01.682-1.257,1.408-.843,5.049-2.57,7.149.474,1.727,2.524.258,2.252-.051,1.868a6.786,6.786,0,0,0-2.595-2.09C2586.935,1345.839,2584.557,1348.545,2584.006,1347.536Z" transform="translate(-2479.207 -1195.365)" fill="#72120c"/>
        <path id="Trazado_20609" data-name="Trazado 20609" d="M2598.612,1375.9a23.162,23.162,0,0,1-1.338,5.715,31.248,31.248,0,0,1-2.439,5.225c-.262.424-.5.843-.848,1.308-.061.091-.212.278-.343.429l-.167.192a1.328,1.328,0,0,0,.222-.349,1.433,1.433,0,0,0,.116-.439,1.173,1.173,0,0,0,0-.338.519.519,0,0,0-.056-.172.254.254,0,0,0-.04-.061c-.035,0,0,.081.091.187s.186.247.318.384a11.847,11.847,0,0,0,.878.828c1.3,1.131,2.807,2.176,4.438,3.357l-.051.212a17.267,17.267,0,0,1-5.3-2.085,10.34,10.34,0,0,1-1.186-.818,4.006,4.006,0,0,1-1.01-1.091.934.934,0,0,1-.091-.858.769.769,0,0,1,.131-.2l.106-.131c.065-.086.131-.167.2-.268.257-.384.5-.793.732-1.2.964-1.621,1.873-3.277,2.772-4.937l2.691-4.993Z" transform="translate(-2483.069 -1210.604)" fill="#f59d4e"/>
        <path id="Trazado_20610" data-name="Trazado 20610" d="M2587.165,1423.35c3.969,1.449,11.107,3.216,18.276.747a.2.2,0,0,1,.162.374c-4.17,2.085-12,4.705-18.937-.177a.54.54,0,0,1,.5-.944Z" transform="translate(-2480.447 -1234.133)" fill="#f59d4e"/>
        <ellipse id="Elipse_1256" data-name="Elipse 1256" cx="0.783" cy="0.783" rx="0.783" ry="0.783" transform="translate(131.164 177.263)" fill="#f59d4e"/>
        <ellipse id="Elipse_1257" data-name="Elipse 1257" cx="0.783" cy="0.783" rx="0.783" ry="0.783" transform="translate(104.184 169.104)" fill="#f59d4e"/>
        <circle id="Elipse_1258" data-name="Elipse 1258" cx="0.55" cy="0.55" r="0.55" transform="translate(133.95 179.595)" fill="#f59d4e"/>
        <circle id="Elipse_1259" data-name="Elipse 1259" cx="0.55" cy="0.55" r="0.55" transform="translate(100.816 165.736)" fill="#f59d4e"/>
        <circle id="Elipse_1260" data-name="Elipse 1260" cx="0.55" cy="0.55" r="0.55" transform="translate(99.645 172.638)" fill="#f59d4e"/>
        <circle id="Elipse_1261" data-name="Elipse 1261" cx="0.55" cy="0.55" r="0.55" transform="translate(134.97 177.111)" fill="#f59d4e"/>
        <ellipse id="Elipse_1262" data-name="Elipse 1262" cx="0.783" cy="0.783" rx="0.783" ry="0.783" transform="translate(127.332 179.131)" fill="#f59d4e"/>
        <circle id="Elipse_1263" data-name="Elipse 1263" cx="0.995" cy="0.995" r="0.995" transform="translate(130.633 181.685)" fill="#f59d4e"/>
        <circle id="Elipse_1264" data-name="Elipse 1264" cx="0.995" cy="0.995" r="0.995" transform="translate(100.589 168.831)" fill="#f59d4e"/>
        <circle id="Elipse_1265" data-name="Elipse 1265" cx="0.995" cy="0.995" r="0.995" transform="translate(134.839 181.615)" fill="#f59d4e"/>
      </g>
    </g>
  </g>
</svg>
