<svg width="608" height="617" viewBox="0 0 608 617" fill="none" xmlns="http://www.w3.org/2000/svg">
<mask id="mask0" style="mask-type:alpha" maskUnits="userSpaceOnUse" x="0" y="0" width="608" height="617">
<rect width="608" height="617" fill="#C4C4C4"/>
</mask>
<g mask="url(#mask0)">
<path d="M479.719 449.455C479.469 449.889 479.225 450.335 478.976 450.757L478.761 451.133C478.485 451.62 478.206 452.101 477.924 452.6L477.886 452.667C477.593 453.196 477.273 453.727 476.961 454.252C476.577 454.903 476.186 455.555 475.787 456.203C475.387 456.851 475.003 457.503 474.612 458.148C473.829 459.441 473.028 460.727 472.207 462.006C471.799 462.646 471.388 463.289 470.977 463.922C470.566 464.556 470.149 465.196 469.732 465.83C469.315 466.463 468.892 467.094 468.469 467.725C468.097 468.282 467.721 468.839 467.339 469.394L467.119 469.72C466.713 470.307 466.306 470.894 465.897 471.481C465.471 472.097 465.043 472.707 464.608 473.317C464.595 473.333 464.584 473.35 464.573 473.367C464.206 473.883 463.839 474.403 463.463 474.916C463.316 475.126 463.166 475.334 463.014 475.541C462.818 475.823 462.612 476.105 462.397 476.386C462.119 476.777 461.835 477.164 461.545 477.545C461.352 477.809 461.161 478.07 460.958 478.331C460.691 478.692 460.421 479.05 460.151 479.411L459.466 480.318L458.906 481.051L457.831 482.448L457.678 482.645C457.287 483.143 456.895 483.642 456.504 484.141C456.363 484.32 456.21 484.499 456.078 484.681C455.74 485.103 455.403 485.529 455.062 485.951L454.557 486.576C454.243 486.966 453.931 487.354 453.614 487.75L453.238 488.207C452.837 488.7 452.431 489.189 452.02 489.674C451.541 490.261 451.057 490.83 450.569 491.403L450.367 491.643C449.932 492.151 449.5 492.658 449.063 493.166C448.443 493.882 447.821 494.589 447.192 495.299C446.292 496.326 445.38 497.344 444.456 498.353L444.4 498.415C443.381 499.533 442.345 500.639 441.314 501.739C441.196 501.865 441.076 501.992 440.956 502.115C440.545 502.549 440.131 502.981 439.716 503.412C439.182 503.972 438.642 504.527 438.101 505.078C438.04 505.137 437.984 505.195 437.922 505.257L437.021 506.173L436.272 506.927C435.791 507.408 435.309 507.886 434.821 508.364C433.255 509.91 431.663 511.437 430.044 512.947L429.812 513.164L429.771 513.203C426.79 515.982 423.732 518.699 420.598 521.353C420.142 521.745 419.682 522.131 419.218 522.512L419.03 522.668C418.09 523.454 417.136 524.232 416.181 525.015L415.811 525.308L415.562 525.511L414.842 526.098L413.733 526.978L413.685 527.013L412.887 527.641C412.537 527.914 412.191 528.187 411.839 528.454C411.545 528.694 411.222 528.935 410.911 529.172L409.95 529.9L409.915 529.929C409.416 530.308 408.92 530.684 408.418 531.056L408.045 531.335C407.669 531.628 407.284 531.901 406.903 532.183L406.121 532.752C405.479 533.221 404.833 533.69 404.183 534.157L403.846 534.401L402.815 535.129C402.618 535.267 402.425 535.422 402.228 535.545C401.737 535.891 401.244 536.238 400.76 536.578L400.266 536.915C399.607 537.373 398.943 537.826 398.275 538.274C397.706 538.661 397.136 539.043 396.561 539.424L396.267 539.618C395.659 540.023 395.045 540.424 394.432 540.824L393.983 541.117C393.395 541.501 392.793 541.883 392.197 542.261C391.601 542.64 390.94 543.056 390.309 543.435C390.198 543.505 390.083 543.573 389.974 543.646C389.426 543.986 388.877 544.324 388.327 544.658L387.934 544.902C387.288 545.295 386.642 545.682 385.996 546.075C385.904 546.131 385.814 546.181 385.725 546.237C384.449 546.998 383.162 547.75 381.864 548.493L381.603 548.643L380.135 549.479L379.439 549.869C378.767 550.245 378.093 550.618 377.415 550.99C376.802 551.327 376.188 551.659 375.568 551.991L375.049 552.284L373.261 553.232C372.401 553.683 371.537 554.131 370.668 554.575C369.975 554.93 369.276 555.285 368.577 555.635C216.946 631.594 81.8347 581.748 -0.703692 495.452C-35.576 458.996 -61.0666 416.033 -74.4535 373.308C-74.4535 373.308 -74.9791 371.471 -75.7543 368.126C-76.4855 364.984 -77.4369 360.498 -78.3707 354.976C-78.4176 354.7 -78.4675 354.418 -78.5116 354.137C-78.8307 352.216 -79.1439 350.178 -79.4512 348.022C-79.4982 347.711 -79.5393 347.397 -79.5863 347.08C-79.6421 346.661 -79.7008 346.235 -79.7566 345.804C-79.8007 345.461 -79.8447 345.12 -79.8917 344.771C-79.9387 344.422 -79.9856 344.029 -80.0326 343.653C-80.1236 342.902 -80.2176 342.139 -80.3057 341.371C-80.3527 340.98 -80.3967 340.593 -80.4378 340.197C-80.4789 339.801 -80.5259 339.411 -80.5671 339.023C-80.6082 338.636 -80.6522 338.228 -80.6904 337.823L-80.8137 336.612C-80.8519 336.204 -80.893 335.793 -80.9282 335.382C-80.9635 334.971 -81.0046 334.555 -81.0427 334.138C-81.0809 333.722 -81.1132 333.302 -81.1484 332.879C-81.1837 332.457 -81.216 332.034 -81.2512 331.606C-81.2512 331.556 -81.2512 331.506 -81.2512 331.459C-81.307 330.72 -81.3628 329.972 -81.4127 329.215C-81.538 327.411 -81.6447 325.571 -81.7328 323.693C-81.7533 323.241 -81.7739 322.786 -81.7915 322.332C-81.909 319.593 -81.9785 316.787 -82 313.914C-82 313.439 -82 312.96 -82 312.482C-82 309.972 -81.9628 307.424 -81.8884 304.836C-81.8884 304.402 -81.859 303.956 -81.8444 303.536C-81.7739 301.557 -81.676 299.556 -81.5507 297.533L-81.4538 296.048C-81.4524 296.033 -81.4524 296.017 -81.4538 296.002C-81.4186 295.506 -81.3834 295.01 -81.3423 294.511C-81.3041 293.995 -81.26 293.481 -81.2189 292.965C-81.125 291.848 -81.0212 290.723 -80.9077 289.591C-80.8666 289.159 -80.8196 288.71 -80.7726 288.291C-80.7256 287.871 -80.6728 287.352 -80.617 286.883C-80.5494 286.296 -80.4819 285.683 -80.4055 285.078C-80.3762 284.835 -80.3468 284.597 -80.3145 284.359C-80.3116 284.31 -80.3057 284.261 -80.2969 284.213L-80.2 283.444C-80.0796 282.531 -79.9533 281.616 -79.8183 280.692C-79.7772 280.381 -79.7302 280.073 -79.6832 279.759C-79.6509 279.542 -79.6186 279.327 -79.5834 279.11L-79.5393 278.817C-79.5379 278.811 -79.5379 278.805 -79.5393 278.799C-79.4659 278.324 -79.3925 277.849 -79.3132 277.367C-78.9609 275.19 -78.5693 273.003 -78.1387 270.804C-78.0369 270.288 -77.9322 269.773 -77.8245 269.261C-77.6982 268.659 -77.5719 268.058 -77.4369 267.456C-77.3517 267.043 -77.2607 266.635 -77.1667 266.224C-77.0229 265.578 -76.8731 264.933 -76.7204 264.282C-76.6353 263.921 -76.5472 263.557 -76.4591 263.196C-76.0578 261.537 -75.6281 259.875 -75.17 258.208C-75.0584 257.8 -74.9439 257.393 -74.8294 256.991C-74.7002 256.53 -74.5651 256.069 -74.433 255.612C-74.4283 255.589 -74.4215 255.568 -74.4124 255.547C-74.2803 255.092 -74.1482 254.64 -74.0102 254.186C-73.8721 253.731 -73.7165 253.25 -73.5814 252.786C-73.4463 252.322 -73.2878 251.85 -73.138 251.384C-73.0088 250.979 -72.8767 250.574 -72.7416 250.166L-72.6271 249.817L-72.4686 249.347C-72.3599 249.016 -72.2454 248.681 -72.1309 248.35C-71.9899 247.935 -71.846 247.521 -71.6992 247.109C-71.5994 246.815 -71.4966 246.539 -71.4056 246.258L-71.0943 245.404C-70.9974 245.134 -70.8976 244.864 -70.8007 244.591C-70.6392 244.154 -70.4718 243.711 -70.3045 243.277C-70.1782 242.937 -70.049 242.602 -69.9139 242.265C-69.8816 242.177 -69.8464 242.089 -69.8111 241.998L-69.5909 241.443C-69.4441 241.065 -69.2973 240.689 -69.1387 240.313L-69.0888 240.19C-68.8862 239.691 -68.6806 239.19 -68.4692 238.694C-68.3283 238.351 -68.1756 238.004 -68.0317 237.661C-67.9289 237.418 -67.8232 237.171 -67.7175 236.928C-67.4738 236.364 -67.2242 235.804 -66.9746 235.243C-66.7925 234.836 -66.6075 234.425 -66.4167 234.02C-66.2258 233.615 -66.0056 233.122 -65.7912 232.676C-65.6679 232.412 -65.5446 232.148 -65.4154 231.887C-65.3802 231.808 -65.342 231.728 -65.3038 231.652C-65.1599 231.359 -65.0102 231.048 -64.8663 230.751C-64.834 230.681 -64.7987 230.611 -64.7635 230.54C-64.5403 230.082 -64.3142 229.631 -64.0852 229.173C-64.0692 229.148 -64.0554 229.121 -64.0441 229.094C-64.0177 229.047 -63.9942 228.997 -63.9707 228.947C-63.7593 228.536 -63.5508 228.128 -63.3364 227.718L-63.2014 227.457C-62.943 226.96 -62.6806 226.465 -62.4144 225.972C-62.1345 225.454 -61.8526 224.936 -61.5688 224.42C-61.3378 223.999 -61.1028 223.58 -60.864 223.161C-60.635 222.756 -60.4059 222.351 -60.1681 221.949L-60.0682 221.773C-59.8715 221.436 -59.6748 221.098 -59.481 220.764C-59.4457 220.699 -59.4076 220.635 -59.3694 220.573C-58.8878 219.763 -58.3984 218.959 -57.9012 218.159C-57.6506 217.75 -57.3961 217.345 -57.1377 216.944C-57.1337 216.933 -57.1277 216.923 -57.1202 216.915C-56.8588 216.501 -56.5945 216.093 -56.3214 215.679C-56.0806 215.31 -55.8369 214.94 -55.5903 214.57C-55.5345 214.491 -55.4816 214.406 -55.4229 214.327C-55.2174 214.013 -55.0059 213.699 -54.7916 213.385L-54.5127 212.98C-54.2866 212.651 -54.0604 212.329 -53.8343 212.009C-53.6082 211.689 -53.3851 211.366 -53.159 211.046C-53.0357 210.873 -52.9065 210.697 -52.7802 210.524C-52.557 210.21 -52.328 209.896 -52.099 209.585C-51.8367 209.229 -51.5724 208.873 -51.3061 208.517C-51.2533 208.444 -51.1975 208.374 -51.1475 208.303C-50.8833 207.951 -50.6131 207.599 -50.3459 207.247C-49.8722 206.635 -49.3955 206.026 -48.9159 205.422C-48.5988 205.031 -48.2787 204.633 -47.9557 204.228L-47.7443 203.97C-47.5975 203.788 -47.4507 203.603 -47.2921 203.421C-46.9632 203.03 -46.6314 202.638 -46.2967 202.247C-46.0471 201.954 -45.7946 201.66 -45.542 201.367C-45.5185 201.341 -45.4951 201.317 -45.4774 201.294C-45.1838 200.942 -44.8726 200.592 -44.5642 200.246C-44.297 199.953 -44.0328 199.659 -43.7626 199.348C-43.6099 199.178 -43.469 199.008 -43.3045 198.838L-42.5 197.958C-42.2856 197.723 -42.0683 197.488 -41.8481 197.259C-41.6279 197.031 -41.4634 196.846 -41.2608 196.64C-40.9672 196.326 -40.6735 196.015 -40.3623 195.701C-40.1009 195.431 -39.8396 195.162 -39.5753 194.897C-39.3669 194.68 -39.1613 194.472 -38.947 194.261C-38.6886 193.997 -38.4243 193.733 -38.1571 193.475C-37.8898 193.216 -37.6579 192.985 -37.4083 192.741C-37.1587 192.497 -36.9238 192.269 -36.6801 192.034C-36.1104 191.488 -35.5349 190.946 -34.9535 190.408L-34.4044 189.898L-34.331 189.833C-34.0667 189.596 -33.8054 189.355 -33.5382 189.117L-32.898 188.531C-32.8041 188.446 -32.7101 188.36 -32.6044 188.278L-31.9437 187.691L-31.1098 186.97C-29.2168 185.34 -27.2534 183.745 -25.2194 182.184L-25.1695 182.143C-24.5822 181.691 -23.995 181.244 -23.4077 180.802L-22.5092 180.139C-21.6283 179.482 -20.7092 178.837 -19.793 178.194C-19.7787 178.189 -19.7657 178.181 -19.7549 178.171L-18.8211 177.525C-18.2132 177.108 -17.5966 176.692 -16.977 176.281L-16.9242 176.246L-15.9552 175.606C-14.9764 174.969 -13.9868 174.338 -12.9865 173.714L-11.0309 172.523C-10.6668 172.302 -10.2997 172.088 -9.92974 171.868L-8.89617 171.267L-7.94475 170.718C-6.86221 170.102 -5.76598 169.495 -4.65603 168.896L-3.57253 168.309L-2.47723 167.722C-1.74901 167.341 -1.00907 166.965 -0.263232 166.59L0.617675 166.15C2.57525 165.185 4.57298 164.246 6.61082 163.33C7.00429 163.154 7.39482 162.981 7.78536 162.808C8.10249 162.667 8.42256 162.514 8.74556 162.388L8.97461 162.292C10.0846 161.81 11.2082 161.339 12.3456 160.877C13.6591 160.343 14.9893 159.82 16.3361 159.308L17.3579 158.92L18.8702 158.36C43.4446 149.388 63.0713 137.176 79.8556 123.545C80.4859 123.032 81.1143 122.517 81.7407 121.998C82.3652 121.482 82.9867 120.963 83.6053 120.44C86.3831 118.093 89.0885 115.709 91.7215 113.287C93.4833 111.679 95.2109 110.059 96.9042 108.426C98.0356 107.336 99.1563 106.247 100.266 105.157C106.077 99.421 111.583 93.591 116.918 87.7699C124.847 79.1321 132.387 70.5265 139.978 62.3142C145.287 56.5693 150.619 51.0211 156.128 45.7897C174.921 27.9155 195.654 13.7734 224.125 8.37187C229.068 7.43866 234.06 6.78724 239.077 6.42075C246.159 5.90913 253.267 5.86404 260.354 6.28578C270.567 6.85791 281.616 8.33961 293.644 10.8247C305.588 13.3452 317.392 16.4899 329.007 20.2459C335.018 22.1648 341.238 24.2978 347.667 26.6451C348.736 27.0363 349.8 27.4353 350.859 27.8422C355.467 29.6026 359.98 31.4882 364.399 33.499C367.357 34.8428 370.269 36.2413 373.137 37.6947C374.421 38.3441 375.694 39.0042 376.955 39.6751C380.558 41.5803 384.096 43.5725 387.567 45.6518C388.857 46.4205 390.137 47.2029 391.407 47.999C394.162 49.7164 396.87 51.4866 399.532 53.3096C452.173 89.2927 488.073 145.145 505.614 207.438C505.773 208.001 505.929 208.561 506.081 209.125C506.196 209.53 506.304 209.934 506.416 210.339C506.68 211.302 506.938 212.266 507.188 213.232C507.332 213.775 507.482 214.321 507.611 214.864C507.74 215.406 507.905 216.008 508.046 216.577C508.698 219.181 509.318 221.793 509.907 224.414C510.162 225.556 510.411 226.7 510.656 227.844C510.779 228.413 510.9 228.985 511.017 229.56C511.125 230.079 511.233 230.599 511.34 231.121C511.591 232.348 511.832 233.576 512.063 234.806C512.17 235.354 512.274 235.903 512.374 236.452C513.231 241.057 513.991 245.684 514.653 250.333C514.723 250.814 514.788 251.296 514.855 251.777C515.051 253.146 515.232 254.515 515.398 255.884C515.457 256.34 515.513 256.795 515.566 257.249L515.583 257.381C515.65 257.94 515.716 258.501 515.78 259.062C516.185 262.559 516.536 266.066 516.831 269.583C516.884 270.17 516.931 270.757 516.978 271.344C517.019 271.881 517.06 272.418 517.099 272.955C517.148 273.591 517.193 274.225 517.234 274.862C517.275 275.417 517.311 275.97 517.342 276.519L517.422 277.775C517.451 278.259 517.48 278.744 517.504 279.225C517.521 279.518 517.539 279.835 517.554 280.146C517.648 281.906 517.727 283.667 517.792 285.427C517.792 285.636 517.806 285.847 517.815 286.058C517.833 286.522 517.844 286.988 517.859 287.455L517.903 289.007C517.918 289.553 517.93 290.101 517.941 290.65C517.967 291.868 517.986 293.087 518 294.306C518 294.875 518 295.447 518 296.016C518 296.738 518 297.46 518 298.184C518 298.636 518 299.094 518 299.549C518 300.748 517.987 301.947 517.962 303.146C517.944 304.302 517.92 305.457 517.888 306.611C517.875 307.198 517.857 307.785 517.836 308.371C517.8 309.522 517.758 310.673 517.709 311.825C517.709 311.881 517.709 311.936 517.709 311.992C517.689 312.52 517.662 313.048 517.639 313.576C517.582 314.789 517.518 316.003 517.445 317.218C517.413 317.804 517.378 318.377 517.339 318.957C517.298 319.65 517.252 320.344 517.201 321.041C517.125 322.109 517.049 323.174 516.964 324.242C516.917 324.828 516.868 325.415 516.817 326.002C516.767 326.589 516.717 327.176 516.664 327.762L516.497 329.523C516.444 330.11 516.388 330.697 516.323 331.283C516.279 331.744 516.232 332.202 516.182 332.659C516.159 332.888 516.132 333.12 516.109 333.349C515.868 335.589 515.604 337.823 515.316 340.053C515.093 341.814 514.853 343.562 514.597 345.299C514.52 345.831 514.442 346.361 514.362 346.89C514.362 346.954 514.344 347.019 514.332 347.08C514.25 347.652 514.159 348.222 514.071 348.788C513.983 349.354 513.904 349.865 513.816 350.402C513.716 351.024 513.61 351.649 513.507 352.271C513.311 353.444 513.111 354.588 512.905 355.747L512.588 357.484C512.483 358.071 512.374 358.637 512.262 359.218C512.151 359.799 512.042 360.371 511.931 360.946C511.704 362.102 511.47 363.253 511.232 364.406C511.112 364.981 510.991 365.555 510.868 366.128C510.744 366.715 510.621 367.278 510.492 367.85C510.363 368.422 510.242 369 510.11 369.57C509.978 370.139 509.852 370.72 509.719 371.289C509.587 371.858 509.452 372.433 509.317 373.002L508.912 374.704C508.753 375.353 508.595 376.001 508.43 376.649C508.307 377.146 508.182 377.643 508.055 378.14C507.767 379.271 507.473 380.4 507.174 381.529C507.018 382.116 506.865 382.673 506.707 383.245C506.548 383.817 506.395 384.378 506.24 384.944C506.084 385.51 505.923 386.074 505.761 386.637C505.6 387.2 505.438 387.767 505.271 388.327C505.12 388.843 504.968 389.36 504.816 389.876C504.61 390.563 504.402 391.255 504.19 391.93C504.049 392.408 503.897 392.886 503.75 393.362C503.442 394.359 503.124 395.354 502.807 396.346C502.731 396.583 502.655 396.815 502.578 397.047C502.255 398.042 501.928 399.033 501.598 400.019C501.22 401.142 500.835 402.263 500.443 403.381C500.248 403.935 500.052 404.489 499.856 405.042C499.665 405.582 499.469 406.122 499.269 406.665L499.251 406.715C499.069 407.213 498.886 407.711 498.702 408.208C498.673 408.293 498.643 408.372 498.614 408.454C498.42 408.968 498.229 409.484 498.027 409.995C497.824 410.505 497.613 411.092 497.401 411.638C497.19 412.184 497.008 412.665 496.814 413.178C496.773 413.284 496.732 413.395 496.685 413.501C496.503 413.973 496.318 414.449 496.13 414.915C495.916 415.461 495.698 416.004 495.478 416.549L494.814 418.178C494.196 419.692 493.561 421.199 492.909 422.699C492.629 423.351 492.346 424.001 492.06 424.65C491.825 425.186 491.587 425.722 491.347 426.258C491.106 426.794 490.866 427.328 490.627 427.86L490.093 429.034L489.923 429.403C489.614 430.069 489.306 430.738 488.992 431.402C488.956 431.481 488.915 431.566 488.877 431.645L488.81 431.789C488.654 432.117 488.498 432.449 488.34 432.778C488.296 432.871 488.249 432.965 488.205 433.071C487.911 433.681 487.617 434.283 487.324 434.884C487.294 434.952 487.265 435.013 487.23 435.081C487.177 435.196 487.121 435.311 487.062 435.424C486.801 435.958 486.54 436.489 486.276 437.023C486.152 437.267 486.032 437.51 485.911 437.757C485.888 437.795 485.87 437.833 485.85 437.868C485.577 438.42 485.298 438.968 485.019 439.514C484.807 439.934 484.59 440.347 484.376 440.767L484.164 441.175C484.009 441.468 483.85 441.762 483.694 442.076C483.671 442.12 483.65 442.164 483.627 442.205C483.518 442.419 483.407 442.63 483.295 442.838C483.072 443.258 482.852 443.675 482.629 444.088C482.452 444.423 482.273 444.754 482.094 445.089C482.024 445.224 481.95 445.356 481.88 445.488C481.733 445.758 481.586 446.025 481.442 446.289C480.908 447.33 480.312 448.39 479.719 449.455Z" fill="#D1F6FF"/>
<path d="M414.284 207.089C414.284 207.089 401.199 219.432 388.558 227.613C387.986 227.987 387.336 228.366 386.621 228.751C371.622 236.874 327.586 247.985 327.586 247.985C327.586 247.985 327.287 252.596 323.868 254.38C320.449 256.163 297.447 257.503 289.018 257.405C280.589 257.307 279.104 255.334 279.104 255.334L267.122 255.923C266.524 254.583 281.781 239.36 285.649 237.13C289.518 234.9 306.767 240.254 313.904 239.581C321.041 238.908 362.534 214.154 367.887 210.137C373.24 206.121 390.967 187.25 390.967 187.25L397.169 192.528L414.284 207.089Z" fill="#FED194"/>
<path d="M414.284 207.089C414.284 207.089 401.199 219.431 388.558 227.612C387.986 227.986 387.336 228.366 386.621 228.751C386.621 228.751 394.207 217.648 393.32 210.511C392.432 203.374 389.725 191.643 389.725 191.643C389.725 191.643 392.879 191.849 397.172 192.519L414.284 207.089Z" fill="#F59D4E"/>
<path d="M487.337 105.913C487.337 105.913 480.303 112.095 482.592 116.536C484.88 120.977 467.958 112.651 472.516 106.421C477.074 100.191 493.393 85.108 494.041 93.0236C494.688 100.939 487.337 105.913 487.337 105.913Z" fill="#72120C"/>
<path d="M439.542 64.8001C439.542 64.8001 435.02 75.7357 435 86.0545C434.981 96.3733 435.539 107.376 440.36 113.366C445.18 119.356 453.288 120.344 453.288 120.344C453.288 120.344 453.31 133.144 451.264 136.3C449.219 139.457 455.538 156.268 460.126 155.191C464.715 154.114 470.44 152.456 473.772 143.622C477.105 134.788 479.019 139.343 479.019 139.343C479.019 139.343 475.472 118.524 477.191 115.06C478.911 111.596 485.059 102.843 486.276 97.7968C486.276 97.7968 490.996 98.0759 494.061 95.335C497.126 92.5941 498.197 84.1203 493.489 83.5788C493.489 83.5788 497.234 69.7041 494.968 64.948C492.702 60.1919 470.25 50.4592 466.323 50.155C462.396 49.8507 439.542 64.8001 439.542 64.8001Z" fill="#FED194"/>
<path d="M479.965 89.7678C479.965 89.7678 482.316 78.6368 480.035 69.747C477.755 60.8573 480.568 50.7031 480.568 50.7031C480.568 50.7031 498.68 53.2849 497.346 66.8917C496.012 80.4985 493.488 83.5855 493.488 83.5855C493.488 83.5855 489.204 83.1584 484.074 88.9668C478.944 94.7751 479.965 89.7678 479.965 89.7678Z" fill="#72120C"/>
<path d="M504.469 85.1561C497.745 102.883 487.337 105.925 487.337 105.925C487.337 105.925 490.772 102.054 489.622 91.0734C489.307 88.045 487.73 83.1382 485.612 77.6145C480.049 63.1006 470.749 44.3609 470.749 44.3609L466.319 40.6292C466.319 40.6292 477.727 36.0406 488.648 41.2488C496.595 45.0364 511.192 67.4325 504.469 85.1561Z" fill="#004A66"/>
<path d="M496.24 64.046C491.97 74.0494 485.612 77.6137 485.612 77.6137C480.049 63.0998 470.749 44.3602 470.749 44.3602L466.319 40.6284C466.319 40.6284 478.235 35.088 488.648 41.2481L488.844 41.3625C492.614 43.607 495.442 47.1434 496.802 51.3151C498.163 55.4868 497.963 60.0104 496.24 64.046Z" fill="white"/>
<path d="M487.663 83.3055C484.049 74.5413 480.705 67.5802 476.395 62.8353C472.234 58.2523 467.185 55.7319 460.092 55.6482C450.739 55.5365 444.002 61.9729 440.423 66.5029C439.326 67.8699 438.342 69.3232 437.479 70.8487C437.479 70.8487 433.747 63.3126 430.166 55.5393C430.488 55.0264 430.73 54.4673 430.883 53.8814C430.95 53.6274 430.967 53.363 430.933 53.1026C430.451 49.731 434.593 44.7823 430.799 45.3907C429.797 45.5554 428.452 46.7472 427.009 48.4219C427.002 48.4333 426.994 48.4437 426.984 48.4526C426.476 47.2748 426.001 46.1499 425.588 45.1033L425.563 45.0474C425.362 44.5599 425.176 44.0947 425.005 43.6519C424.501 42.4184 424.088 41.1497 423.769 39.8559C423.251 36.9325 423.024 33.965 423.09 30.9969C423.191 25.5235 424.254 19.3997 427.472 15.9248C432.753 10.2225 451.284 10.8505 464.285 28.8421C477.169 46.6747 487.501 82.7473 487.663 83.3055Z" fill="#004A66"/>
<path d="M476.406 62.8405C472.245 58.2575 467.196 55.7371 460.103 55.6534C450.75 55.5417 444.013 61.9781 440.434 66.5081C440.009 66.2306 439.632 65.8855 439.318 65.4865C437.484 62.8321 433.736 57.7188 430.9 53.8866C428.843 51.0954 427.271 48.9993 427.271 48.9993L427.003 48.4159L425.574 45.1085L425.549 45.0526C425.429 44.5391 422.775 32.6377 433.923 27.6862C445.313 22.6231 463.813 36.3387 475.628 61.0989C475.914 61.7017 476.174 62.2823 476.406 62.8405Z" fill="#15444F"/>
<path d="M479.636 67.0638C479.393 66.6926 468.058 53.8813 458.926 61.0629C450.008 68.0742 434.121 71.6469 427.966 58.5062C427.523 57.5474 427.15 56.5577 426.85 55.5448C426.75 55.2099 426.666 54.8805 426.599 54.5567C425.762 50.5263 427.52 47.4198 430.819 45.3962C436.175 42.1055 448.545 44.224 459.699 49.6053C468.36 53.7892 476.301 59.9436 479.636 67.0638Z" fill="#72120C"/>
<path d="M453.287 120.344C453.287 120.344 458.239 120.771 464.151 118.61C464.151 118.61 467.559 116.609 464.511 122.141C461.463 127.673 452.902 128.89 452.902 128.89L453.287 120.344Z" fill="#F59D4E"/>
<path d="M439.213 87.3187C439.467 85.9364 439.072 84.7054 438.33 84.5692C437.588 84.4329 436.781 85.4431 436.527 86.8253C436.273 88.2076 436.669 89.4386 437.41 89.5748C438.152 89.711 438.959 88.701 439.213 87.3187Z" fill="#72120C"/>
<path d="M460.413 88.351C460.671 86.9644 460.277 85.728 459.533 85.5893C458.789 85.4505 457.977 86.4621 457.718 87.8487C457.46 89.2353 457.853 90.4718 458.597 90.6105C459.341 90.7492 460.154 89.7376 460.413 88.351Z" fill="#72120C"/>
<path d="M458.216 77.3178C458.147 77.0163 458.579 76.7958 458.931 76.726C460.047 76.5055 462.839 76.1874 463.651 78.2947C464.312 80.0335 463.372 79.6205 463.241 79.3469C463.042 78.9255 462.512 78.0295 461.912 77.689C460.525 76.8991 458.376 78.0016 458.216 77.3178Z" fill="#72120C"/>
<path d="M437.674 77.767C437.414 77.4516 437.699 76.9548 438 76.6813C438.952 75.8021 441.489 73.8734 443.608 75.8886C445.35 77.5465 444.166 77.5912 443.87 77.3428C443.41 76.9632 442.324 76.2096 441.52 76.1454C439.667 75.9975 438.268 78.4871 437.674 77.767Z" fill="#72120C"/>
<path d="M448.093 86.1992C448.061 87.7197 447.891 89.2341 447.585 90.7237C447.311 92.2094 446.938 93.6752 446.468 95.1113C446.337 95.4742 446.212 95.8342 446.041 96.2278C445.992 96.3443 445.936 96.458 445.874 96.5683L445.824 96.6604L445.799 96.7051C445.799 96.7051 445.774 96.7497 445.799 96.7274C445.827 96.6799 445.846 96.628 445.857 96.5739C445.867 96.5129 445.867 96.4507 445.857 96.3897C445.853 96.3493 445.842 96.3098 445.827 96.2724C445.821 96.2592 445.814 96.2469 445.804 96.2362V96.2362C445.864 96.3188 445.935 96.3922 446.016 96.4539C446.134 96.5484 446.258 96.6343 446.388 96.7107C446.667 96.8725 446.965 97.0372 447.278 97.1907C448.615 97.7894 449.995 98.2885 451.406 98.684V98.7956C449.9 98.7774 448.406 98.5173 446.982 98.0253C446.625 97.9016 446.276 97.7542 445.938 97.5843C445.587 97.4202 445.268 97.1921 445 96.9116C444.922 96.8351 444.864 96.7408 444.83 96.6368C444.796 96.5329 444.787 96.4222 444.805 96.3143C444.818 96.2578 444.839 96.2033 444.866 96.1524L444.928 96.0324C444.97 95.9529 445.007 95.8709 445.039 95.7868C445.179 95.4463 445.299 95.0918 445.419 94.7401C445.899 93.3278 446.329 91.8959 446.75 90.4641L448.006 86.1602L448.093 86.1992Z" fill="#F59D4E"/>
<path d="M445.171 106.14C448.476 106.62 454.292 106.829 459.436 103.756C459.473 103.732 459.519 103.723 459.562 103.732C459.606 103.741 459.644 103.767 459.668 103.804C459.693 103.841 459.701 103.886 459.692 103.929C459.684 103.973 459.658 104.011 459.621 104.035C456.732 106.324 451.102 109.618 444.937 106.969C444.827 106.938 444.734 106.864 444.678 106.764C444.622 106.665 444.608 106.547 444.639 106.437C444.67 106.327 444.744 106.234 444.844 106.178C444.943 106.123 445.061 106.109 445.171 106.14Z" fill="#F59D4E"/>
<path opacity="0.67" d="M479.636 67.0646C479.393 66.6933 468.058 53.882 458.926 61.0636C450.008 68.075 434.121 71.6476 427.966 58.507C427.523 57.5482 427.15 56.5584 426.85 55.5456C426.749 55.2106 426.666 54.8813 426.599 54.5575C431.176 60.9185 441.807 61.4935 447.222 60.4189C456.768 58.5405 459.637 49.7902 459.699 49.5977C468.36 53.7899 476.3 59.9444 479.636 67.0646Z" fill="#540200"/>
<path d="M451.1 134.228C451.1 134.228 456.098 144.086 476.957 132.14C477.784 131.516 478.657 130.957 479.569 130.465C480.61 129.968 482.048 131.755 487.303 132.349C492.559 132.944 517.939 131.009 526.466 139.735C534.993 148.46 552.144 189.604 552.144 189.604L521.584 205.466L431.241 196.255L407.848 215.042L393.32 183.019C393.32 183.019 417.411 145.989 429.605 140.337C437.736 136.572 443.457 137.485 446.486 135.355C448.495 133.923 450.728 133.237 451.1 134.228Z" fill="white"/>
<g opacity="0.54">
<path opacity="0.54" d="M425.482 150.432C425.482 150.432 423.952 155.782 423.358 159.453C422.763 163.123 422.465 188.997 418.995 193.457C415.526 197.917 408.883 197.82 406.899 195.24C404.914 192.661 396.122 178.804 396.122 178.804L407.845 215.021L431.237 196.234L425.482 150.432Z" fill="#D2D7DB"/>
</g>
<g opacity="0.54">
<path opacity="0.54" d="M439.5 142.698C439.5 142.698 439.419 180.52 443.128 182.725C446.838 184.93 489.676 185.081 488.484 179.429C487.292 173.777 491.085 134.118 492.648 132.496L494.359 132.513C494.359 132.513 494.306 185.823 493.106 189.173C491.906 192.522 439.843 196.128 437.099 191.646C434.356 187.163 437.099 142.996 437.099 142.996L439.5 142.698Z" fill="#D2D7DB"/>
</g>
<g opacity="0.54">
<path opacity="0.54" d="M512.505 133.841C512.505 133.841 508.876 168.127 511.84 171.993C514.804 175.859 535.09 177.098 535.983 182.948C536.877 188.798 532.913 192.159 535.09 192.365C537.267 192.572 549.68 183.833 549.68 183.833C549.68 183.833 552.242 188.698 552.141 189.591C552.041 190.484 538.839 199.028 534.951 201.501C531.063 203.974 514.369 210.658 514.369 210.658C514.369 210.658 500.24 189.167 501.728 172.25C503.216 155.333 507.793 133.174 507.793 133.174L512.505 133.841Z" fill="#D2D7DB"/>
</g>
<path d="M438.33 535.263C438.888 538.97 439.446 542.632 440.004 546.148C442.656 563.065 445.067 576.697 445.067 576.697L465.82 580.708C465.82 580.708 464.739 579.505 463.707 575.804C462.311 570.808 461.005 561.251 462.551 543.938C462.702 542.285 462.878 540.56 463.079 538.76C463.427 535.659 464.145 532.304 464.522 528.902C465.769 517.704 465.995 506.408 465.995 506.408C465.995 506.408 434.333 468.337 433.197 485.698C432.641 494.032 435.357 515.354 438.33 535.263Z" fill="#FED194"/>
<path d="M439.996 546.148C442.648 563.065 445.059 576.697 445.059 576.697L462.615 578.394L463.698 575.804C462.303 570.808 460.997 561.251 462.543 543.938C457.985 545.972 450.209 548.138 439.996 546.148Z" fill="#AAAAAA"/>
<path d="M470.545 593.204C470.523 594.377 470.321 595.539 469.948 596.651L400.917 596.874C400.917 596.874 399.173 596.207 398.536 592.746C398.369 591.793 398.293 590.825 398.307 589.857C398.347 583.848 424.315 578.693 432.918 574.506C444.043 569.105 443.228 572.449 443.228 572.449C443.228 572.449 452.849 576.491 463.603 572.58C463.603 572.58 467.48 565.602 470.003 586.24C470.413 588.538 470.595 590.871 470.545 593.204V593.204Z" fill="black"/>
<path d="M470.546 593.204C470.523 594.377 470.322 595.539 469.948 596.651L400.918 596.874C400.918 596.874 399.173 596.207 398.537 592.746L470.546 593.204Z" fill="#FFB113"/>
<path d="M432.96 581.408C432.836 581.408 432.717 581.36 432.628 581.274C432.539 581.188 432.486 581.072 432.48 580.948C432.391 579.022 431.814 577.151 430.805 575.508C430.731 575.403 430.702 575.273 430.724 575.146C430.746 575.019 430.817 574.907 430.922 574.833C431.028 574.759 431.158 574.729 431.284 574.751C431.411 574.773 431.524 574.845 431.598 574.95C432.719 576.738 433.358 578.786 433.451 580.895C433.454 580.958 433.445 581.021 433.423 581.08C433.402 581.14 433.369 581.194 433.327 581.241C433.284 581.288 433.233 581.326 433.176 581.352C433.118 581.379 433.057 581.394 432.993 581.397L432.96 581.408Z" fill="white"/>
<path d="M426.406 582.488C426.283 582.486 426.165 582.438 426.076 582.352C425.987 582.267 425.935 582.15 425.929 582.027C425.784 578.918 424.589 577.584 424.578 577.561C424.5 577.467 424.461 577.346 424.469 577.224C424.476 577.102 424.53 576.987 424.619 576.903C424.708 576.819 424.826 576.772 424.948 576.771C425.071 576.771 425.189 576.817 425.279 576.9C425.34 576.961 426.73 578.469 426.892 581.971C426.897 582.099 426.852 582.224 426.765 582.319C426.679 582.413 426.559 582.47 426.431 582.477L426.406 582.488Z" fill="white"/>
<path d="M439.605 579.466C439.482 579.464 439.363 579.416 439.274 579.329C439.186 579.243 439.133 579.126 439.128 579.002C438.919 573.741 435.949 573.535 435.918 573.535C435.855 573.531 435.793 573.516 435.735 573.488C435.678 573.461 435.627 573.423 435.584 573.376C435.542 573.328 435.509 573.273 435.488 573.213C435.466 573.153 435.457 573.09 435.461 573.027C435.468 572.899 435.525 572.78 435.619 572.694C435.714 572.609 435.838 572.563 435.966 572.569C436.122 572.569 439.848 572.831 440.091 578.963C440.094 579.027 440.084 579.09 440.062 579.149C440.04 579.209 440.007 579.263 439.963 579.31C439.92 579.356 439.869 579.393 439.811 579.42C439.753 579.446 439.691 579.461 439.628 579.463L439.605 579.466Z" fill="white"/>
<path d="M463.698 534.45C463.698 534.45 449.899 542.698 438.857 538.807L437.769 524.972L464.963 524.305L463.698 534.45Z" fill="#F59D4E"/>
<path d="M520.14 535.263C520.699 538.97 521.257 542.632 521.815 546.148C524.469 563.065 526.878 576.697 526.878 576.697L547.633 580.708C547.633 580.708 546.553 579.505 545.52 575.804C544.125 570.808 542.818 561.251 544.365 543.938C544.514 542.285 544.688 540.56 544.889 538.76C545.241 535.659 545.956 532.304 546.335 528.902C547.583 517.704 547.809 506.408 547.809 506.408C547.809 506.408 516.146 468.337 515.008 485.698C514.455 494.032 517.171 515.354 520.14 535.263Z" fill="#FED194"/>
<path d="M521.807 546.148C524.461 563.065 526.87 576.697 526.87 576.697L544.429 578.394L545.512 575.804C544.116 570.808 542.81 561.251 544.356 543.938C539.796 545.972 532.022 548.138 521.807 546.148Z" fill="#AAAAAA"/>
<path d="M552.353 593.204C552.334 594.377 552.133 595.539 551.759 596.651L482.729 596.874C482.729 596.874 480.984 596.207 480.345 592.746C480.18 591.792 480.105 590.825 480.119 589.857C480.155 583.848 506.124 578.693 514.729 574.506C525.854 569.105 525.039 572.449 525.039 572.449C525.039 572.449 534.66 576.491 545.415 572.58C545.415 572.58 549.292 565.602 551.815 586.24C552.225 588.538 552.405 590.871 552.353 593.204V593.204Z" fill="black"/>
<path d="M552.353 593.204C552.333 594.377 552.133 595.539 551.759 596.651L482.728 596.874C482.728 596.874 480.984 596.207 480.345 592.746L552.353 593.204Z" fill="#FFB113"/>
<path d="M514.771 581.408C514.647 581.407 514.529 581.359 514.44 581.273C514.352 581.187 514.299 581.071 514.293 580.948C514.204 579.022 513.628 577.151 512.619 575.508C512.545 575.403 512.515 575.273 512.537 575.146C512.559 575.019 512.631 574.907 512.736 574.833C512.841 574.759 512.971 574.729 513.098 574.751C513.225 574.773 513.337 574.845 513.411 574.95C514.533 576.738 515.171 578.786 515.265 580.895C515.268 580.958 515.258 581.021 515.237 581.08C515.215 581.14 515.183 581.194 515.14 581.241C515.098 581.288 515.046 581.326 514.989 581.352C514.932 581.379 514.87 581.394 514.807 581.397L514.771 581.408Z" fill="white"/>
<path d="M508.226 582.488C508.103 582.487 507.984 582.438 507.896 582.353C507.807 582.267 507.754 582.151 507.749 582.028C507.603 578.918 506.409 577.584 506.395 577.562C506.309 577.468 506.263 577.344 506.268 577.216C506.273 577.089 506.327 576.968 506.42 576.881C506.513 576.794 506.636 576.747 506.763 576.75C506.89 576.754 507.011 576.808 507.098 576.9C507.157 576.962 508.55 578.469 508.712 581.972C508.716 582.1 508.67 582.224 508.584 582.318C508.498 582.413 508.379 582.47 508.251 582.477L508.226 582.488Z" fill="white"/>
<path d="M521.419 579.466C521.295 579.464 521.176 579.416 521.086 579.33C520.997 579.243 520.944 579.126 520.939 579.002C520.729 573.741 517.76 573.535 517.732 573.535C517.668 573.532 517.606 573.516 517.549 573.489C517.491 573.462 517.439 573.424 517.397 573.377C517.354 573.33 517.321 573.276 517.299 573.216C517.278 573.156 517.268 573.093 517.271 573.029C517.274 572.966 517.289 572.904 517.316 572.846C517.343 572.789 517.381 572.737 517.428 572.695C517.475 572.652 517.53 572.619 517.59 572.597C517.649 572.576 517.713 572.566 517.776 572.569C517.935 572.569 521.659 572.831 521.904 578.963C521.909 579.091 521.863 579.215 521.776 579.309C521.689 579.402 521.569 579.458 521.441 579.463L521.419 579.466Z" fill="white"/>
<path d="M545.512 534.449C545.512 534.449 531.712 542.697 520.671 538.806L519.585 524.971L546.782 524.301L545.512 534.449Z" fill="#F59D4E"/>
<path d="M547.396 516.745C547.212 520.449 547.083 522.509 547.083 522.509L518.234 533.367C518.234 533.367 517.053 528.407 515.267 520.698L514.829 518.802L514.505 517.393C514.23 516.196 513.943 514.953 513.645 513.664L513.523 513.122C508.621 491.712 501.345 458.863 499.053 442.786C495.484 417.8 480.933 364.04 480.933 364.04C480.933 364.04 477.19 386.572 475.851 424.939C474.6 460.911 468.036 514.331 467.237 520.865C467.181 521.3 467.154 521.529 467.154 521.529C457.781 532.013 435.016 526.659 435.016 526.659C435.016 526.659 434.843 522.752 434.539 516.235L434.428 513.901C434.408 513.482 434.388 513.064 434.366 512.623L434.299 511.188C434.266 510.457 434.229 509.705 434.19 508.933C434.168 508.419 434.143 507.897 434.118 507.364L434.079 506.577C433.004 484.153 431.156 447.363 429.356 419.586C426.579 376.756 422.317 234.587 422.761 222.909C423.204 211.231 425.141 155.922 425.588 148.333C425.714 146.189 425.895 144.525 426.09 143.242C426.277 142.036 426.741 140.89 427.447 139.895C428.153 138.9 429.081 138.083 430.157 137.509C433.121 135.923 437.414 133.9 438.723 134.65C440.805 135.842 437.93 175.102 438.896 183.579C439.862 192.056 491.911 187.149 491.618 182.984C491.325 178.82 492.36 136.733 493.7 132.49C495.04 128.248 505.892 129.744 509.163 131.231C512.434 132.719 510.684 133.54 510.684 133.54C506.553 138.371 507.893 181.929 507.893 181.929L532.511 235.776C534.744 238.899 536.541 243.186 538.004 248.406C546.793 279.753 543.388 344.82 547.083 394.156C550.65 441.904 548.303 498.745 547.396 516.745Z" fill="#004A66"/>
<path d="M547.084 394.17C543.564 347.198 546.484 285.966 539.185 253.154C539.115 252.821 539.017 252.411 538.906 251.964C538.627 250.742 538.317 249.556 537.999 248.42C537.842 247.839 529.832 204.92 529.832 204.92L459.797 209.16C459.797 209.16 436.597 269.102 438.902 271.036C441.208 272.971 505.75 285.609 511.846 285.313C513.163 285.249 514.21 283.845 515.061 281.665C515.737 279.943 518.949 270.573 519.926 269.002C522.703 264.536 531.618 266.21 533.603 269.995C539.352 280.9 530.278 365.765 531.842 390.748C533.405 415.731 540.246 496.434 533.603 503.077C525.07 511.61 513.523 513.125 513.523 513.125L513.646 513.667L514.506 517.396L514.83 518.805L515.268 520.7C515.268 520.7 535.886 519.185 547.396 516.748C548.304 498.745 550.651 441.904 547.084 394.17Z" fill="#15444F"/>
<path d="M455.308 167.201L454.633 170.299L528.017 186.346L525.528 197.733L523.164 208.552L508.312 276.474L511.103 277.085L526.041 208.764L528.587 197.131L531.487 183.856L455.308 167.201Z" fill="#2FB6D6"/>
<path d="M454.633 170.299L434.925 260.427L508.312 276.473L523.164 208.551L525.528 197.733L528.017 186.345L454.633 170.299Z" fill="#F27204"/>
<path d="M515.82 516.55C515.82 516.55 540.441 513.292 547.918 504.961L547.793 518.741C547.793 518.741 525.366 526.277 521.302 524.301C517.238 522.325 515.82 516.55 515.82 516.55Z" fill="#15444F"/>
<path d="M396.123 178.805C396.123 178.805 402.684 197.037 411.089 210.663C411.089 210.663 412.303 212.245 411.806 213.236C411.309 214.227 405.361 219.731 404.024 219.137C402.687 218.542 384.916 186.866 388.187 182.255C391.458 177.644 395.581 175.802 396.123 178.805Z" fill="white"/>
<path d="M454.86 170L435 260.829L508.957 277L523.924 208.55L526.306 197.648L528.815 186.172L454.86 170Z" fill="#40CCED"/>
<path d="M462.273 238.753C462.653 238.081 462.976 237.379 463.238 236.654C463.487 235.987 463.725 235.241 463.945 234.438C468.661 235.938 473.451 237.196 478.296 238.209C480.96 238.776 483.612 239.273 486.178 239.688C488.799 240.112 491.285 240.442 493.564 240.67C493.436 241.498 493.348 242.28 493.302 242.993C493.244 243.769 493.251 244.549 493.322 245.325C493.5 247.002 494.075 247.957 495.035 248.162C496.079 248.384 497.2 247.604 498.369 245.843C499.321 244.32 500.116 242.705 500.741 241.021C501.122 241.013 501.492 241 501.841 240.98C502.333 240.929 502.795 240.719 503.157 240.381C503.568 240.021 503.905 239.586 504.151 239.1C504.337 238.748 504.458 238.365 504.509 237.971C504.529 237.8 504.525 237.628 504.496 237.459C504.471 237.305 504.415 237.158 504.332 237.026V237.026C504.879 236.189 505.333 235.296 505.686 234.361C506.055 233.415 506.362 232.446 506.607 231.46C506.812 230.66 506.967 229.847 507.071 229.028C507.159 228.611 507.155 228.181 507.06 227.766C507.057 227.762 507.053 227.758 507.048 227.755L503.377 222.869L503.228 222.236L504.097 221.577C504.204 221.814 504.39 222.005 504.624 222.117C505.107 222.312 505.608 222.46 506.12 222.559C506.806 222.707 507.504 222.801 508.205 222.841C508.686 222.912 509.178 222.845 509.623 222.649C509.658 222.627 509.688 222.598 509.71 222.563C509.733 222.529 509.748 222.49 509.754 222.45C509.796 222.076 509.244 221.094 508.474 220.164C508.09 219.695 507.661 219.267 507.192 218.884C506.804 218.547 506.345 218.302 505.85 218.167C505.722 218.139 505.591 218.129 505.46 218.136C505.205 218.154 504.961 218.245 504.757 218.399C504.548 218.558 504.375 218.759 504.249 218.989C503.981 219.49 503.852 220.053 503.875 220.62L502.884 220.788L499.801 207.681C499.53 206.532 498.939 205.484 498.096 204.658C497.252 203.833 496.191 203.264 495.037 203.018L476.665 199.111C475.469 198.856 474.224 198.96 473.086 199.409C471.948 199.858 470.968 200.633 470.268 201.636L462.835 212.271L461.994 211.713C462.247 211.205 462.358 210.637 462.317 210.071C462.297 209.81 462.222 209.557 462.098 209.327C461.974 209.103 461.788 208.92 461.562 208.801C461.446 208.74 461.322 208.697 461.193 208.671C460.685 208.592 460.166 208.629 459.675 208.779C459.091 208.937 458.524 209.154 457.983 209.426C456.9 209.96 455.996 210.634 455.884 210.992C455.872 211.032 455.87 211.074 455.876 211.114C455.883 211.155 455.897 211.194 455.92 211.228C456.247 211.588 456.67 211.849 457.139 211.981C457.796 212.23 458.471 212.427 459.158 212.572C459.666 212.689 460.184 212.758 460.704 212.777C460.964 212.77 461.212 212.671 461.406 212.499L461.965 213.513L461.631 213.991L456.471 216.511C456.458 216.513 456.445 216.519 456.436 216.528V216.528C456.4 216.568 456.376 216.617 456.365 216.67C456.279 216.877 456.151 217.267 456.026 217.713C455.806 218.482 455.592 219.387 455.423 220.267C455.214 221.326 455.068 222.396 454.986 223.471C454.894 224.517 454.922 225.57 455.07 226.609C455.046 226.586 455.024 226.561 455.002 226.536C454.729 226.665 454.51 226.886 454.385 227.161C454.247 227.463 454.176 227.792 454.177 228.124C454.172 228.427 454.204 228.729 454.272 229.024C454.339 229.327 454.44 229.623 454.572 229.904C454.792 230.43 455.176 230.871 455.666 231.161C456.156 231.413 456.693 231.67 457.262 231.926C457.219 232.831 457.21 233.698 457.233 234.501C457.253 235.415 457.337 236.327 457.486 237.229C457.841 239.259 458.544 240.398 459.573 240.617C460.524 240.819 461.433 240.192 462.273 238.753ZM469.833 227.869C469.978 228.092 470.04 228.359 470.01 228.624C469.98 228.889 469.86 229.135 469.669 229.32C469.478 229.506 469.228 229.62 468.963 229.642C468.697 229.664 468.432 229.594 468.213 229.443C467.994 229.292 467.833 229.07 467.759 228.814C467.686 228.558 467.703 228.285 467.808 228.04C467.913 227.795 468.099 227.594 468.336 227.472C468.572 227.349 468.844 227.312 469.105 227.368C469.253 227.399 469.394 227.459 469.519 227.545C469.644 227.631 469.751 227.741 469.833 227.869ZM491.692 232.518C491.837 232.741 491.9 233.008 491.87 233.273C491.84 233.538 491.719 233.784 491.528 233.969C491.337 234.155 491.088 234.269 490.822 234.291C490.557 234.314 490.292 234.243 490.073 234.092C489.853 233.941 489.693 233.719 489.619 233.463C489.545 233.207 489.562 232.934 489.667 232.689C489.772 232.444 489.959 232.243 490.196 232.121C490.432 231.998 490.704 231.962 490.964 232.017C491.113 232.048 491.253 232.108 491.378 232.194C491.503 232.28 491.61 232.39 491.692 232.518ZM462.031 219.918C462.708 220.333 463.341 220.815 463.923 221.357C464.481 221.868 464.994 222.427 465.457 223.026C465.83 223.493 466.14 224.008 466.379 224.556L466.384 224.565L466.389 224.579C466.4 224.607 466.407 224.633 466.415 224.658C466.42 224.678 466.426 224.697 466.433 224.717C466.465 224.814 466.49 224.913 466.508 225.014C466.516 225.061 466.521 225.109 466.522 225.156C466.525 225.233 466.519 225.309 466.503 225.383C466.501 225.394 466.498 225.405 466.496 225.415L466.495 225.418C466.492 225.44 466.485 225.462 466.476 225.483C466.441 225.575 466.376 225.652 466.292 225.703C466.103 225.795 465.898 225.852 465.688 225.869C465.62 225.878 465.543 225.884 465.475 225.889C465.259 225.904 465.042 225.906 464.825 225.896C464.792 225.894 464.76 225.893 464.722 225.892C464.682 225.89 464.64 225.889 464.596 225.885C464.276 225.862 463.949 225.822 463.621 225.767C463.559 225.754 463.494 225.744 463.441 225.733L463.356 225.715C463.192 225.686 463.026 225.654 462.863 225.619C462.764 225.598 462.664 225.577 462.566 225.553C462.433 225.525 462.306 225.492 462.164 225.456C461.919 225.394 461.693 225.332 461.473 225.266L461.336 225.227L461.327 225.225C461.258 225.206 461.186 225.186 461.117 225.164C460.846 225.078 460.576 224.986 460.314 224.891L460.306 224.883C459.738 224.704 459.202 224.436 458.72 224.088C458.258 223.625 457.895 223.074 457.651 222.467C457.359 221.84 457.227 221.149 457.266 220.458C457.288 220.224 457.357 219.996 457.47 219.79C457.584 219.589 457.75 219.423 457.951 219.31C458.59 218.97 459.333 218.882 460.033 219.064C460.742 219.236 461.417 219.524 462.031 219.918V219.918ZM503.516 228.384C503.974 228.563 504.373 228.866 504.668 229.259C504.806 229.445 504.89 229.664 504.912 229.894C504.93 230.129 504.9 230.365 504.823 230.587C504.578 231.234 504.176 231.811 503.653 232.265C503.184 232.72 502.628 233.075 502.018 233.31C501.437 233.432 500.839 233.459 500.248 233.391L500.238 233.395C499.958 233.376 499.673 233.35 499.393 233.318C499.321 233.31 499.248 233.299 499.176 233.288L499.167 233.286L499.026 233.266C498.8 233.236 498.568 233.201 498.316 233.158C498.171 233.133 498.038 233.109 497.91 233.084C497.812 233.063 497.712 233.044 497.613 233.023C497.45 232.989 497.285 232.951 497.123 232.91L497.04 232.893C496.988 232.882 496.923 232.868 496.861 232.851C496.543 232.768 496.227 232.671 495.922 232.561C495.886 232.548 495.852 232.534 495.819 232.521L495.812 232.52C495.781 232.507 495.748 232.493 495.712 232.48C495.51 232.402 495.313 232.311 495.122 232.209V232.209C495.065 232.179 494.994 232.141 494.932 232.104C494.748 232.002 494.585 231.868 494.45 231.707C494.394 231.626 494.367 231.529 494.371 231.43C494.372 231.402 494.376 231.374 494.383 231.347V231.347C494.383 231.347 494.384 231.342 494.385 231.339L494.386 231.331C494.4 231.256 494.426 231.184 494.462 231.116C494.481 231.073 494.505 231.031 494.53 230.991C494.588 230.906 494.652 230.826 494.721 230.751C494.737 230.733 494.751 230.716 494.765 230.701C494.781 230.681 494.799 230.66 494.82 230.639L494.83 230.628L494.841 230.622C495.281 230.218 495.773 229.874 496.304 229.599C496.971 229.24 497.667 228.939 498.384 228.699C499.136 228.441 499.911 228.259 500.699 228.155L500.815 228.141C501.832 228.248 502.74 228.335 503.516 228.384ZM470.697 222.006C473.687 222.788 476.905 223.569 480.262 224.327C480.307 224.682 480.308 225.041 480.267 225.397C480.19 226.133 480.007 226.855 479.724 227.539C479.61 227.82 479.457 228.084 479.269 228.322C479.145 228.499 478.957 228.62 478.745 228.66C478.49 228.675 478.234 228.652 477.985 228.591C477.237 228.407 476.508 228.149 475.81 227.822C475.023 227.472 474.164 227.033 473.327 226.554C472.593 226.14 471.884 225.686 471.202 225.193C470.772 224.921 470.4 224.567 470.108 224.15C470.016 223.935 469.973 223.701 469.981 223.467C469.984 223.204 470.031 222.944 470.12 222.697C470.173 222.548 470.248 222.408 470.344 222.281C470.43 222.167 470.542 222.076 470.672 222.016L470.697 222.006ZM491.9 226.865C491.937 227.019 491.949 227.178 491.937 227.336C491.918 227.598 491.855 227.854 491.751 228.095C491.664 228.313 491.529 228.51 491.358 228.67C490.921 228.931 490.436 229.104 489.933 229.177C489.109 229.35 488.276 229.477 487.438 229.556C486.476 229.653 485.515 229.704 484.653 229.704C483.882 229.719 483.112 229.658 482.354 229.521C482.102 229.475 481.858 229.393 481.631 229.275C481.454 229.152 481.331 228.965 481.29 228.754C481.215 228.46 481.183 228.157 481.193 227.854C481.212 227.115 481.338 226.382 481.568 225.678C481.673 225.342 481.817 225.019 481.998 224.716C482.768 224.885 483.543 225.053 484.302 225.215C486.928 225.773 489.467 226.279 491.85 226.718C491.871 226.766 491.888 226.815 491.901 226.866L491.9 226.865ZM464.549 213.499L472.065 202.761C472.675 201.889 473.529 201.215 474.52 200.825C475.51 200.435 476.594 200.345 477.635 200.567L493.644 203.972C494.649 204.185 495.572 204.68 496.307 205.399C497.041 206.117 497.557 207.029 497.793 208.029L500.911 221.232C497.822 220.323 494.992 219.543 492.258 218.845C489.647 218.178 487.11 217.585 484.51 217.032C478.491 215.752 472.7 214.802 464.549 213.499Z" fill="white"/>
<path d="M496.91 201.463C496.834 201.674 496.697 201.858 496.516 201.99C496.335 202.122 496.118 202.197 495.894 202.205L490.665 202.392C490.612 202.393 490.561 202.413 490.521 202.446C490.48 202.48 490.453 202.526 490.442 202.578C490.431 202.629 490.437 202.683 490.461 202.73C490.484 202.778 490.522 202.816 490.57 202.839L495.276 205.139C495.477 205.238 495.644 205.394 495.755 205.589C495.866 205.783 495.916 206.006 495.899 206.229L495.158 216.168C495.154 216.225 495.171 216.281 495.205 216.326C495.239 216.371 495.289 216.403 495.344 216.415C495.4 216.426 495.458 216.418 495.507 216.39C495.557 216.363 495.595 216.318 495.614 216.265L498.985 206.884C499.061 206.674 499.197 206.49 499.378 206.358C499.558 206.226 499.774 206.151 499.998 206.142L505.233 205.957C505.286 205.955 505.336 205.936 505.376 205.902C505.416 205.868 505.444 205.822 505.455 205.771C505.466 205.719 505.459 205.666 505.436 205.619C505.413 205.571 505.375 205.533 505.328 205.51L500.622 203.21C500.421 203.111 500.254 202.955 500.143 202.76C500.032 202.566 499.982 202.343 499.999 202.12L500.737 192.179C500.741 192.123 500.724 192.067 500.69 192.021C500.656 191.976 500.607 191.944 500.551 191.933C500.495 191.921 500.438 191.929 500.388 191.957C500.338 191.984 500.3 192.029 500.281 192.082L496.91 201.463Z" fill="#FFC850"/>
<path d="M483.665 203.854C483.783 203.851 483.898 203.813 483.994 203.745C484.09 203.677 484.163 203.581 484.204 203.47C484.525 202.588 485.342 200.334 485.852 198.934C485.867 198.894 485.895 198.86 485.933 198.84C485.97 198.819 486.014 198.813 486.056 198.822C486.098 198.831 486.135 198.855 486.16 198.89C486.185 198.924 486.197 198.967 486.193 199.01L485.852 203.821C485.844 203.938 485.872 204.055 485.932 204.157C485.991 204.258 486.08 204.339 486.187 204.389L488.501 205.504C488.537 205.521 488.566 205.549 488.584 205.585C488.601 205.62 488.607 205.661 488.598 205.699C488.59 205.738 488.569 205.773 488.538 205.798C488.508 205.824 488.47 205.838 488.43 205.838L485.862 205.915C485.744 205.917 485.63 205.955 485.534 206.023C485.438 206.092 485.365 206.187 485.324 206.298L483.679 210.831C483.665 210.871 483.636 210.905 483.599 210.925C483.562 210.946 483.518 210.952 483.477 210.943C483.435 210.935 483.398 210.911 483.373 210.877C483.347 210.843 483.335 210.801 483.338 210.759L483.677 205.947C483.685 205.83 483.657 205.713 483.598 205.612C483.538 205.51 483.449 205.429 483.343 205.379L481.028 204.264C480.993 204.247 480.964 204.218 480.947 204.183C480.93 204.148 480.925 204.108 480.933 204.069C480.941 204.031 480.962 203.996 480.992 203.971C481.022 203.945 481.06 203.931 481.099 203.93L483.665 203.854Z" fill="#FFF082"/>
<path d="M495.159 216.168L495.81 207.41C497.399 205.356 498.83 203.185 500.09 200.915L500 202.12C499.983 202.343 500.033 202.567 500.144 202.761C500.255 202.955 500.422 203.111 500.623 203.21L505.329 205.511C505.376 205.534 505.414 205.572 505.437 205.619C505.459 205.666 505.466 205.72 505.455 205.771C505.444 205.822 505.417 205.868 505.377 205.902C505.337 205.935 505.287 205.955 505.234 205.957L499.999 206.143C499.775 206.151 499.559 206.226 499.379 206.358C499.198 206.491 499.062 206.674 498.986 206.885L495.616 216.266C495.596 216.319 495.558 216.363 495.508 216.391C495.458 216.418 495.401 216.427 495.345 216.415C495.29 216.403 495.24 216.372 495.206 216.326C495.172 216.281 495.155 216.225 495.159 216.168Z" fill="#F0AD19"/>
<path d="M490.215 190.383C490.361 190.381 490.504 190.335 490.624 190.251C490.744 190.167 490.836 190.049 490.887 189.912L493.032 184.046C493.047 184.006 493.075 183.973 493.112 183.952C493.15 183.932 493.193 183.925 493.235 183.934C493.277 183.943 493.314 183.966 493.339 184.001C493.365 184.035 493.377 184.077 493.374 184.119L492.949 190.35C492.94 190.496 492.976 190.641 493.051 190.766C493.126 190.891 493.237 190.991 493.37 191.052L496.416 192.506C496.452 192.523 496.481 192.552 496.499 192.587C496.516 192.623 496.521 192.663 496.513 192.702C496.505 192.741 496.484 192.775 496.453 192.801C496.423 192.826 496.384 192.84 496.345 192.841L492.97 192.929C492.824 192.931 492.682 192.977 492.563 193.061C492.443 193.145 492.352 193.262 492.3 193.399L490.162 199.247C490.147 199.288 490.118 199.323 490.081 199.344C490.043 199.365 489.998 199.372 489.955 199.363C489.913 199.354 489.875 199.33 489.849 199.295C489.823 199.26 489.811 199.217 489.814 199.173L490.241 192.96C490.249 192.815 490.214 192.67 490.139 192.545C490.063 192.419 489.953 192.32 489.82 192.259L486.773 190.805C486.737 190.789 486.707 190.76 486.688 190.724C486.67 190.688 486.665 190.647 486.673 190.607C486.681 190.568 486.703 190.532 486.734 190.507C486.766 190.481 486.805 190.467 486.845 190.467L490.215 190.383Z" fill="#FFDC64"/>
<path d="M492.984 189.791L492.948 190.351C492.94 190.496 492.975 190.64 493.05 190.765C493.125 190.89 493.235 190.989 493.366 191.05L496.413 192.505C496.449 192.522 496.478 192.55 496.495 192.586C496.513 192.621 496.518 192.661 496.51 192.7C496.502 192.739 496.481 192.774 496.45 192.799C496.419 192.824 496.381 192.839 496.342 192.839L492.967 192.928C492.821 192.93 492.679 192.977 492.56 193.061C492.441 193.146 492.35 193.264 492.299 193.401L490.161 199.249C490.146 199.29 490.118 199.325 490.08 199.346C490.042 199.367 489.997 199.374 489.954 199.365C489.912 199.356 489.874 199.332 489.848 199.297C489.822 199.262 489.81 199.219 489.813 199.175L490.194 193.614C491.339 192.511 492.283 191.218 492.984 189.791V189.791Z" fill="#FFC850"/>
<path d="M485.326 206.298L483.679 210.832C483.665 210.872 483.636 210.906 483.599 210.927C483.562 210.948 483.518 210.954 483.476 210.946C483.434 210.937 483.397 210.913 483.371 210.878C483.346 210.844 483.334 210.802 483.337 210.759L483.657 206.25C484.606 205.532 485.367 204.593 485.874 203.515L485.852 203.821C485.845 203.938 485.872 204.055 485.932 204.157C485.992 204.258 486.081 204.339 486.187 204.39L488.501 205.505C488.537 205.521 488.566 205.55 488.584 205.585C488.601 205.621 488.606 205.661 488.598 205.7C488.59 205.739 488.569 205.774 488.538 205.799C488.508 205.824 488.469 205.838 488.43 205.839L485.863 205.915C485.745 205.917 485.631 205.955 485.535 206.024C485.439 206.092 485.366 206.188 485.326 206.298Z" fill="#FFDC64"/>
<path d="M476.005 249.653L478.458 250.175L476.258 260.519L473.702 259.975C472.076 259.63 471.416 258.593 471.756 256.998L471.935 256.153C472.168 255.059 472.672 254.348 473.618 254.194C472.966 253.702 472.786 252.951 473.012 251.887L473.09 251.52C473.43 249.924 474.321 249.295 476.005 249.653ZM474.899 255.364C474.16 255.207 473.787 255.437 473.582 256.397L473.391 257.298C473.227 258.067 473.47 258.381 474.019 258.498L474.947 258.695L475.623 255.519L474.899 255.364ZM475.738 251.141C475.162 251.018 474.842 251.29 474.685 252.029L474.562 252.606C474.386 253.433 474.699 253.777 475.305 253.906L475.937 254.041L476.518 251.307L475.738 251.141ZM465.204 258.168C465.436 257.798 465.588 257.383 465.649 256.95L465.988 255.354C466.218 254.276 466.65 253.549 467.535 253.382C466.883 252.89 466.691 252.121 466.917 251.057L467.09 250.244C467.43 248.648 468.32 248.019 470.005 248.377L472.458 248.899L470.258 259.243L468.633 258.897L469.528 254.687L468.965 254.567C468.226 254.41 467.826 254.696 467.621 255.656L467.276 257.282C467.222 257.719 467.079 258.141 466.858 258.521L465.204 258.168ZM469.737 249.864C469.161 249.742 468.841 250.013 468.684 250.752L468.467 251.772C468.291 252.599 468.604 252.944 469.21 253.073L469.843 253.207L470.518 250.031L469.737 249.864ZM464.317 257.98L462.692 257.634L464.892 247.29L466.517 247.635L464.317 257.98ZM461.509 257.382L457.209 256.468L457.523 254.99L460.198 255.559L462.084 246.693L463.71 247.038L461.509 257.382ZM456.5 256.317L452.199 255.402L452.513 253.925L455.189 254.494L457.075 245.627L458.7 245.973L456.5 256.317ZM451.692 246.969C451.849 246.23 451.584 245.88 451.064 245.77C450.544 245.659 450.159 245.872 450.002 246.61L448.814 252.196C448.657 252.935 448.922 253.284 449.442 253.395C449.962 253.505 450.347 253.293 450.504 252.555L451.692 246.969ZM452.151 252.798C451.799 254.452 450.726 255.213 449.131 254.874C447.535 254.535 446.863 253.403 447.215 251.748L448.359 246.369C448.711 244.713 449.785 243.953 451.381 244.293C452.977 244.632 453.647 245.763 453.295 247.418L452.151 252.798Z" fill="white"/>
<path d="M502.838 255.387L500.638 265.731L499.486 265.486L500.353 261.407L499.334 261.191C497.694 260.842 497.108 259.821 497.456 258.181L497.72 256.939C498.053 255.373 498.952 254.56 500.577 254.906L502.838 255.387ZM500.573 260.373L501.463 256.191L500.354 255.955C499.509 255.775 499.071 256.176 498.87 257.122L498.577 258.496C498.367 259.487 498.696 259.973 499.553 260.156L500.573 260.373ZM496.218 253.979L497.356 254.221L495.687 262.068C495.354 263.634 494.406 264.529 492.825 264.193C491.229 263.854 490.728 262.65 491.061 261.084L492.73 253.237L493.809 253.467L492.128 261.372C491.93 262.304 492.18 262.944 493.007 263.12C493.852 263.299 494.339 262.814 494.536 261.885L496.218 253.979ZM491.592 252.995L489.392 263.339L488.24 263.094L489.18 258.673L488.367 258.5C487.407 258.296 486.781 258.549 486.533 259.717L486.187 261.342C486.133 261.778 485.975 262.195 485.728 262.558L484.56 262.309C484.813 261.956 484.974 261.545 485.031 261.114L485.373 259.503C485.609 258.395 486.127 257.702 487.133 257.623C486.306 257.152 486.057 256.359 486.299 255.221L486.479 254.376C486.806 252.839 487.662 252.155 489.288 252.501L491.592 252.995ZM489.403 257.627L490.217 253.796L489.094 253.558C488.237 253.375 487.793 253.791 487.595 254.722L487.384 255.714C487.145 256.838 487.629 257.25 488.547 257.445L489.403 257.627ZM484.19 259.622C483.857 261.189 482.853 262.057 481.271 261.72C479.675 261.381 479.112 260.18 479.445 258.613L480.583 253.262C480.92 251.683 481.92 250.83 483.516 251.169C485.097 251.505 485.665 252.692 485.329 254.273L484.19 259.622ZM484.202 253.973C484.4 253.042 484.121 252.396 483.293 252.22C482.448 252.04 481.946 252.522 481.749 253.451L480.586 258.918C480.385 259.864 480.653 260.492 481.495 260.671C482.323 260.847 482.838 260.385 483.04 259.44L484.202 253.973Z" fill="white"/>
<path d="M300.816 247.242C297.62 248.95 283.12 252.074 280.368 252.967C277.616 253.86 279.101 255.334 279.101 255.334" stroke="#FED194" stroke-width="0.279113" stroke-miterlimit="10"/>
<path d="M327.586 247.983C327.586 247.983 327.834 247.09 327.337 244.712C327.337 244.712 326.296 243.875 331.451 243.819C336.606 243.763 350.152 241.801 350.152 241.801C350.152 241.801 330.41 247.442 327.586 247.983Z" fill="#F59D4E"/>
<path d="M277.161 255.432C277.161 255.432 276.578 253.104 278.278 251.287C279.977 249.47 301.556 247.075 302.795 246.48C302.795 246.48 297.023 248.814 293.062 249.727C276.315 253.598 278.691 253.821 279.107 255.334L277.161 255.432Z" fill="#F59D4E"/>
<path d="M463.559 195.93L426.28 227.908L427.472 230.289L465.641 198.068L463.559 195.93Z" fill="#070208"/>
<path d="M562.292 238.467C560.808 243.821 557.98 250.96 530.619 251.181C503.257 251.401 459.311 237.426 457.452 236.832C455.593 236.237 439.457 234.082 437.451 231.777C435.444 229.472 433.046 224.33 431.539 220.68C430.372 217.855 431.626 214.277 431.626 214.277C431.377 209.716 433.409 208.329 433.409 208.329C433.409 208.329 432.641 206.858 434.054 205.108C436.211 202.428 439.209 206.333 439.377 206.489C438.573 205.373 440.432 200.109 443.399 203.14C446.365 206.171 452.916 210.651 457.075 214.441C461.234 218.232 463.397 224.333 463.397 224.333C463.397 224.333 472.468 225.67 487.043 225.818C501.619 225.966 530.616 221.352 530.616 221.352L527.691 212.535L526.412 208.678C526.412 208.678 549.83 191.978 553.073 195.051C553.883 195.819 554.952 198.571 556.082 202.353C559.482 213.727 563.412 234.448 562.292 238.467Z" fill="#FED194"/>
<path d="M530.619 221.365C530.619 221.365 539.64 220.528 546.779 228.949C546.779 228.949 548.239 229.842 548.175 227.612C548.111 225.382 538.783 217.631 529.982 219.423L530.619 221.365Z" fill="#F59D4E"/>
<path d="M556.082 202.345C556.082 202.345 546.522 213.093 527.69 212.535L526.412 208.678C526.412 208.678 549.83 191.978 553.073 195.051C553.882 195.81 554.951 198.563 556.082 202.345Z" fill="#F59D4E"/>
<path d="M437.107 206.49C437.107 206.49 442.639 213.535 445.481 215.023" stroke="#FED194" stroke-width="0.279113" stroke-miterlimit="10"/>
<path d="M433.423 208.328C434.121 209.138 434.777 209.969 435.424 210.809C436.072 211.65 436.702 212.501 437.336 213.349L439.209 215.912C439.362 216.127 439.524 216.336 439.681 216.548C439.837 216.76 439.993 216.975 440.158 217.182C440.322 217.388 440.476 217.603 440.646 217.804C440.813 218.01 440.992 218.206 441.182 218.39L440.847 218.167C440.736 218.092 440.641 217.997 440.537 217.913C440.328 217.74 440.144 217.55 439.951 217.355C439.579 216.973 439.218 216.58 438.868 216.174C438.171 215.367 437.523 214.524 436.887 213.662C436.25 212.8 435.65 211.934 435.07 211.041C434.489 210.148 433.914 209.269 433.423 208.328Z" fill="#F59D4E"/>
<path d="M431.626 214.277C432.282 215.053 432.89 215.857 433.485 216.672C434.079 217.487 434.652 218.319 435.215 219.153C435.779 219.988 436.332 220.828 436.845 221.705C437.359 222.581 437.878 223.438 438.341 224.342C437.686 223.566 437.074 222.762 436.483 221.947C435.891 221.132 435.316 220.301 434.752 219.463C434.188 218.626 433.636 217.789 433.125 216.915C432.614 216.041 432.089 215.182 431.626 214.277Z" fill="#F59D4E"/>
<path d="M440.242 202.912C440.242 202.912 440.2 205.505 442.779 208.33C445.358 211.154 448.92 214.526 448.777 215.028C448.635 215.531 448.409 215.693 447.103 214.626C445.796 213.56 439.486 206.937 439.288 206.328C438.768 204.637 440.242 202.912 440.242 202.912Z" fill="#F59D4E"/>
<path d="M515.251 516.3C515.251 516.3 521.849 519.636 532.726 517.824C543.603 516.013 547.798 510.411 547.798 510.411C547.798 510.411 549.948 506.872 550.59 510.132C551.232 513.392 553.403 527.158 551.812 529.176C550.221 531.194 514.969 541.178 513.442 533.047C511.916 524.917 508.725 511.675 515.251 516.3Z" fill="#004A66"/>
<path d="M553.405 184.93C552.515 183.442 550.631 186.046 550.631 186.046C544.228 191.387 536.684 195.184 528.581 197.144L526.035 208.777C539.112 208.883 556.738 198.386 557.712 196.32C558.758 194.076 554.298 186.417 553.405 184.93Z" fill="white"/>
<path d="M192.554 166.418L245.644 259.215H239.177L185.716 166.418H192.554Z" fill="#070208"/>
<path d="M239.177 259.213H359.411V254.307H236.941L239.177 259.213Z" fill="#070208"/>
<path d="M368.629 259.215H209.211V595.379H368.629V259.215Z" fill="#40CCED"/>
<path opacity="0.62" d="M368.629 316.438V595.378H209.211V500.708C253.702 477.078 342.412 416.008 368.629 316.438Z" fill="#2FB6D6"/>
<path d="M480.934 364.054C480.934 364.054 477.191 386.587 475.851 424.953C474.601 460.926 468.036 514.345 467.238 520.879C461.99 522.275 456.796 523.21 454.44 523.112C449.531 522.886 434.54 516.257 434.54 516.257L434.428 513.924L434.367 512.645L434.3 511.211L434.191 508.955L434.118 507.387L434.079 506.6C434.079 506.6 458.454 509.717 460.238 481.17C462.021 452.622 470.054 332.165 474.961 341.088C479.868 350.012 480.934 364.054 480.934 364.054Z" fill="#15444F"/>
<path d="M434.676 512.041C434.676 512.041 461.803 509.978 469.869 498.25L467.971 515.67C467.971 515.67 448.043 528.919 441.5 524.302C434.958 519.686 434.676 512.041 434.676 512.041Z" fill="#15444F"/>
<path d="M434.676 512.041C434.676 512.041 440.906 516.208 451.909 515.466C462.911 514.723 467.659 509.325 467.659 509.325C467.659 509.325 470.151 505.864 470.45 509.325C470.749 512.786 471.539 527.367 469.755 529.301C467.972 531.236 431.882 537.932 431.19 529.301C430.498 520.671 428.647 506.534 434.676 512.041Z" fill="#004A66"/>
<path d="M448.414 137.046C448.535 137.391 448.685 137.726 448.861 138.048C448.942 138.21 449.028 138.371 449.123 138.525C449.218 138.678 449.31 138.835 449.416 138.983C449.81 139.584 450.279 140.132 450.812 140.616C451.07 140.858 451.342 141.087 451.627 141.299L452.07 141.578C452.213 141.684 452.364 141.778 452.523 141.858C452.83 142.028 453.148 142.178 453.474 142.307L453.963 142.5C454.13 142.555 454.303 142.594 454.471 142.642L454.976 142.781L455.498 142.868L456.017 142.957C456.19 142.982 456.366 142.994 456.542 143.01C457.252 143.062 457.965 143.07 458.677 143.035C460.118 142.968 461.553 142.805 462.973 142.547C464.402 142.315 465.82 141.989 467.224 141.637C468.627 141.285 470.015 140.856 471.41 140.395C472.787 139.929 474.136 139.387 475.452 138.771C476.11 138.461 476.752 138.119 477.375 137.743C478.005 137.374 478.596 136.941 479.139 136.451C478.675 137.03 478.141 137.549 477.551 137.997C476.964 138.453 476.349 138.873 475.711 139.253C474.431 140.004 473.096 140.657 471.717 141.207C468.963 142.321 466.098 143.138 463.171 143.644C461.695 143.898 460.202 144.046 458.705 144.088C457.949 144.096 457.193 144.06 456.441 143.979C456.254 143.954 456.065 143.934 455.883 143.901L455.325 143.781L454.767 143.652L454.208 143.468C452.749 142.993 451.441 142.139 450.418 140.995C449.915 140.434 449.489 139.809 449.151 139.136C448.807 138.478 448.559 137.774 448.414 137.046V137.046Z" fill="#AEB6B7"/>
<path d="M516.54 301.852C516.588 301.616 516.616 301.376 516.624 301.135C516.633 300.913 516.632 300.669 516.62 300.409C518.165 300.399 519.71 300.31 521.246 300.144C522.092 300.055 522.928 299.947 523.73 299.822C524.55 299.695 525.32 299.553 526.019 299.401C526.061 299.659 526.111 299.9 526.166 300.116C526.224 300.352 526.302 300.584 526.398 300.807C526.612 301.289 526.875 301.516 527.18 301.484C527.512 301.449 527.769 301.109 527.947 300.473C528.082 299.929 528.162 299.373 528.185 298.813C528.297 298.774 528.406 298.734 528.507 298.695C528.649 298.632 528.766 298.525 528.841 298.389C528.928 298.243 528.986 298.081 529.012 297.913C529.034 297.791 529.033 297.665 529.01 297.543C528.999 297.49 528.982 297.44 528.958 297.392C528.935 297.349 528.904 297.31 528.867 297.279V297.279C528.949 296.978 528.998 296.669 529.013 296.357C529.031 296.04 529.029 295.722 529.007 295.406C528.99 295.148 528.958 294.892 528.91 294.639C528.895 294.506 528.852 294.378 528.782 294.264C528.781 294.262 528.779 294.262 528.777 294.261L527.215 293.163L527.109 292.99L527.304 292.71C527.359 292.77 527.433 292.809 527.513 292.82C527.676 292.83 527.839 292.825 528 292.805C528.218 292.784 528.435 292.746 528.647 292.691C528.797 292.666 528.937 292.599 529.05 292.497C529.058 292.487 529.064 292.476 529.068 292.464C529.071 292.451 529.071 292.438 529.069 292.425C528.922 292.19 528.714 291.998 528.468 291.87C528.309 291.768 528.14 291.682 527.963 291.614C527.816 291.551 527.656 291.523 527.497 291.531C527.456 291.534 527.416 291.544 527.378 291.559C527.304 291.589 527.24 291.639 527.194 291.705C527.148 291.772 527.116 291.849 527.102 291.929C527.07 292.104 527.086 292.283 527.148 292.45L526.87 292.595L524.689 288.999C524.498 288.684 524.22 288.43 523.89 288.266C523.559 288.102 523.188 288.036 522.822 288.075L516.987 288.688C516.607 288.728 516.248 288.879 515.953 289.122C515.659 289.365 515.442 289.69 515.331 290.056L514.152 293.932L513.849 293.847C513.875 293.672 513.853 293.493 513.786 293.329C513.755 293.253 513.709 293.185 513.649 293.129C513.591 293.074 513.518 293.038 513.439 293.024C513.399 293.017 513.357 293.016 513.317 293.021C513.158 293.047 513.008 293.108 512.877 293.2C512.718 293.303 512.571 293.422 512.436 293.556C512.222 293.732 512.059 293.963 511.963 294.224C511.964 294.237 511.967 294.249 511.973 294.261C511.979 294.272 511.987 294.282 511.997 294.29C512.129 294.366 512.28 294.402 512.432 294.396C512.651 294.406 512.87 294.4 513.089 294.376C513.251 294.363 513.411 294.334 513.568 294.29C513.644 294.263 513.709 294.209 513.75 294.139L514.014 294.387L513.96 294.561L512.671 295.808C512.667 295.81 512.664 295.813 512.662 295.817C512.655 295.832 512.653 295.849 512.654 295.866C512.649 295.936 512.648 296.064 512.654 296.208C512.663 296.458 512.687 296.748 512.722 297.025C512.762 297.36 512.822 297.692 512.901 298.019C512.975 298.338 513.085 298.648 513.229 298.942C513.22 298.938 513.211 298.932 513.202 298.927C513.133 298.991 513.09 299.078 513.079 299.172C513.068 299.275 513.079 299.379 513.111 299.478C513.139 299.568 513.178 299.655 513.226 299.736C513.276 299.82 513.334 299.899 513.401 299.97C513.517 300.105 513.673 300.199 513.847 300.238C514.017 300.266 514.201 300.29 514.396 300.311C514.47 300.584 514.551 300.842 514.636 301.079C514.73 301.349 514.843 301.611 514.974 301.865C515.276 302.434 515.594 302.704 515.921 302.67C516.22 302.635 516.43 302.361 516.54 301.852ZM517.735 297.89C517.799 297.942 517.844 298.016 517.861 298.097C517.877 298.179 517.865 298.264 517.826 298.338C517.788 298.411 517.724 298.469 517.647 298.502C517.571 298.534 517.485 298.539 517.405 298.515C517.325 298.491 517.256 298.441 517.209 298.372C517.162 298.303 517.141 298.219 517.149 298.136C517.156 298.053 517.193 297.976 517.251 297.916C517.31 297.857 517.387 297.82 517.47 297.811C517.517 297.806 517.565 297.81 517.61 297.824C517.656 297.837 517.698 297.86 517.735 297.89ZM524.677 297.16C524.741 297.212 524.785 297.285 524.801 297.367C524.818 297.448 524.806 297.532 524.767 297.606C524.728 297.679 524.665 297.737 524.589 297.769C524.513 297.801 524.427 297.805 524.348 297.782C524.268 297.758 524.2 297.708 524.153 297.639C524.107 297.571 524.085 297.488 524.093 297.405C524.1 297.323 524.136 297.245 524.194 297.186C524.253 297.127 524.329 297.09 524.412 297.081C524.459 297.076 524.507 297.081 524.552 297.094C524.598 297.108 524.64 297.13 524.677 297.16ZM514.649 296.281C514.891 296.339 515.125 296.421 515.35 296.526C515.566 296.624 515.772 296.74 515.967 296.873C516.123 296.976 516.265 297.099 516.389 297.238L516.391 297.241L516.394 297.245C516.4 297.252 516.405 297.259 516.409 297.265L516.41 297.268C516.413 297.273 516.417 297.278 516.421 297.283C516.44 297.309 516.457 297.336 516.471 297.365C516.478 297.378 516.484 297.392 516.489 297.406C516.498 297.428 516.503 297.452 516.506 297.476C516.506 297.48 516.507 297.483 516.507 297.486C516.508 297.493 516.509 297.5 516.509 297.507C516.507 297.537 516.496 297.567 516.476 297.59C516.428 297.636 516.373 297.673 516.312 297.698C516.293 297.708 516.27 297.717 516.251 297.725C516.188 297.75 516.124 297.772 516.059 297.789L516.028 297.798L515.99 297.809C515.893 297.833 515.792 297.852 515.689 297.868C515.67 297.87 515.65 297.872 515.633 297.874L515.606 297.876C515.554 297.884 515.502 297.89 515.45 297.896L515.356 297.906C515.313 297.91 515.272 297.914 515.227 297.916C515.148 297.921 515.075 297.924 515.003 297.926L514.959 297.928L514.956 297.928C514.934 297.931 514.91 297.93 514.888 297.93C514.799 297.931 514.71 297.93 514.623 297.926L514.62 297.927C514.434 297.929 514.249 297.9 514.072 297.844C513.891 297.751 513.73 297.622 513.6 297.465C513.452 297.307 513.346 297.115 513.291 296.906C513.275 296.834 513.274 296.76 513.287 296.687C513.302 296.616 513.335 296.55 513.384 296.497C513.541 296.334 513.753 296.237 513.978 296.223C514.204 296.205 514.43 296.225 514.649 296.281L514.649 296.281ZM527.789 294.792C527.943 294.801 528.09 294.852 528.216 294.941C528.275 294.983 528.321 295.04 528.35 295.107C528.378 295.175 528.392 295.248 528.391 295.321C528.38 295.537 528.317 295.747 528.205 295.933C528.11 296.113 527.98 296.272 527.822 296.401C527.661 296.493 527.486 296.559 527.304 296.596L527.301 296.596C527.216 296.617 527.129 296.637 527.043 296.655C527.021 296.659 526.998 296.663 526.976 296.667L526.973 296.667L526.929 296.675C526.858 296.688 526.787 296.7 526.708 296.711C526.662 296.718 526.62 296.723 526.58 296.728L526.486 296.738C526.434 296.743 526.382 296.749 526.33 296.752L526.303 296.754C526.286 296.756 526.267 296.758 526.246 296.76C526.143 296.766 526.04 296.768 525.939 296.765L525.903 296.763L525.9 296.764L525.866 296.761C525.799 296.757 525.732 296.75 525.665 296.738V296.738C525.645 296.734 525.621 296.73 525.599 296.724C525.534 296.712 525.473 296.687 525.417 296.652C525.393 296.634 525.375 296.607 525.367 296.578C525.365 296.569 525.363 296.561 525.363 296.552C525.363 296.552 525.363 296.552 525.362 296.55L525.362 296.547C525.359 296.523 525.359 296.499 525.364 296.475C525.365 296.46 525.368 296.445 525.372 296.431C525.381 296.4 525.392 296.37 525.405 296.341C525.409 296.334 525.411 296.328 525.414 296.322C525.417 296.314 525.42 296.306 525.424 296.298L525.426 296.293L525.429 296.29C525.52 296.127 525.633 295.977 525.764 295.843C525.927 295.672 526.105 295.515 526.295 295.375C526.493 295.226 526.706 295.097 526.93 294.99L526.964 294.974C527.275 294.913 527.554 294.851 527.79 294.791L527.789 294.792ZM517.425 296.066C518.389 296.01 519.42 295.931 520.491 295.832C520.538 295.933 520.574 296.04 520.596 296.149C520.644 296.375 520.66 296.607 520.642 296.838C520.635 296.932 520.615 297.025 520.582 297.114C520.562 297.179 520.518 297.233 520.459 297.265C520.385 297.294 520.306 297.312 520.227 297.318C519.987 297.336 519.745 297.33 519.506 297.3C519.239 297.272 518.941 297.224 518.646 297.163C518.389 297.111 518.134 297.044 517.884 296.964C517.73 296.924 517.585 296.855 517.458 296.759C517.41 296.704 517.375 296.639 517.355 296.568C517.33 296.49 517.319 296.408 517.322 296.327C517.323 296.277 517.332 296.228 517.348 296.182C517.363 296.139 517.388 296.102 517.42 296.071L517.425 296.066ZM524.193 295.463C524.219 295.506 524.238 295.551 524.249 295.599C524.269 295.679 524.275 295.761 524.267 295.843C524.262 295.916 524.241 295.987 524.206 296.052C524.101 296.172 523.974 296.27 523.831 296.34C523.603 296.471 523.368 296.589 523.127 296.693C522.852 296.815 522.571 296.923 522.315 297.006C522.087 297.085 521.852 297.141 521.614 297.174C521.535 297.185 521.454 297.183 521.376 297.171C521.311 297.151 521.257 297.107 521.224 297.048C521.173 296.968 521.134 296.882 521.108 296.791C521.042 296.569 521.009 296.339 521.009 296.108C521.008 295.998 521.02 295.887 521.044 295.78C521.289 295.754 521.535 295.731 521.777 295.705C522.61 295.618 523.414 295.523 524.163 295.423C524.174 295.435 524.184 295.448 524.193 295.461L524.193 295.463ZM514.778 294.134L515.974 290.216C516.071 289.898 516.259 289.616 516.516 289.404C516.773 289.193 517.086 289.061 517.417 289.027L522.5 288.492C522.819 288.459 523.141 288.516 523.428 288.659C523.716 288.801 523.957 289.022 524.124 289.295L526.325 292.918C525.318 292.946 524.404 292.988 523.526 293.044C522.686 293.098 521.875 293.167 521.049 293.254C519.136 293.455 517.324 293.732 514.778 294.132L514.778 294.134Z" fill="white"/>
<path d="M523.228 287.43C523.226 287.5 523.203 287.568 523.162 287.625C523.121 287.682 523.064 287.725 522.998 287.749L521.463 288.309C521.444 288.311 521.427 288.32 521.415 288.335C521.403 288.35 521.397 288.368 521.399 288.387C521.401 288.406 521.411 288.424 521.425 288.436C521.44 288.448 521.459 288.453 521.478 288.451L523.097 288.68C523.166 288.69 523.231 288.72 523.283 288.767C523.334 288.814 523.371 288.875 523.387 288.943L524.128 291.967C524.13 291.986 524.139 292.004 524.154 292.016C524.169 292.028 524.189 292.034 524.208 292.032C524.227 292.03 524.245 292.02 524.257 292.005C524.269 291.99 524.275 291.971 524.273 291.952L524.368 288.84C524.37 288.77 524.393 288.703 524.434 288.646C524.475 288.589 524.532 288.546 524.597 288.522L526.135 287.962C526.154 287.96 526.171 287.95 526.183 287.936C526.195 287.921 526.201 287.902 526.199 287.883C526.197 287.864 526.187 287.847 526.172 287.835C526.158 287.823 526.139 287.817 526.12 287.819L524.5 287.591C524.431 287.581 524.366 287.55 524.314 287.503C524.262 287.457 524.226 287.395 524.209 287.327L523.469 284.303C523.467 284.284 523.457 284.267 523.442 284.254C523.427 284.242 523.408 284.237 523.389 284.239C523.37 284.241 523.352 284.25 523.34 284.265C523.328 284.28 523.322 284.299 523.324 284.319L523.228 287.43Z" fill="#FFC850"/>
<path d="M519.525 289.418C519.56 289.406 519.59 289.384 519.612 289.354C519.634 289.325 519.647 289.289 519.648 289.252L519.7 287.746C519.701 287.733 519.706 287.721 519.715 287.712C519.724 287.703 519.736 287.698 519.748 287.696C519.761 287.695 519.774 287.698 519.784 287.705C519.795 287.712 519.803 287.723 519.807 287.735L520.17 289.197C520.179 289.232 520.198 289.264 520.226 289.289C520.253 289.313 520.288 289.329 520.324 289.333L521.119 289.441C521.132 289.442 521.144 289.448 521.153 289.456C521.162 289.465 521.167 289.477 521.169 289.49C521.17 289.502 521.167 289.515 521.16 289.526C521.153 289.536 521.143 289.544 521.131 289.548L520.375 289.818C520.341 289.83 520.31 289.853 520.289 289.882C520.267 289.912 520.254 289.947 520.253 289.984L520.202 291.49C520.2 291.502 520.195 291.514 520.186 291.523C520.177 291.532 520.165 291.538 520.153 291.539C520.14 291.54 520.127 291.537 520.117 291.53C520.106 291.523 520.098 291.513 520.095 291.501L519.731 290.039C519.722 290.004 519.702 289.972 519.675 289.947C519.647 289.923 519.613 289.907 519.576 289.903L518.782 289.795C518.769 289.794 518.757 289.788 518.748 289.779C518.739 289.771 518.733 289.759 518.732 289.746C518.731 289.734 518.734 289.721 518.741 289.71C518.748 289.7 518.758 289.692 518.77 289.688L519.525 289.418Z" fill="#FFF082"/>
<path d="M524.128 291.967L523.476 289.302C523.749 288.539 523.965 287.756 524.12 286.96L524.21 287.327C524.226 287.395 524.262 287.456 524.314 287.503C524.366 287.55 524.431 287.58 524.5 287.59L526.12 287.819C526.139 287.817 526.158 287.823 526.173 287.835C526.187 287.847 526.197 287.864 526.199 287.883C526.201 287.902 526.195 287.921 526.183 287.936C526.171 287.951 526.154 287.96 526.135 287.962L524.598 288.522C524.532 288.546 524.475 288.589 524.434 288.645C524.393 288.702 524.371 288.77 524.369 288.84L524.273 291.951C524.275 291.97 524.269 291.989 524.257 292.004C524.245 292.019 524.228 292.029 524.208 292.031C524.189 292.033 524.17 292.028 524.155 292.015C524.14 292.003 524.13 291.986 524.128 291.967V291.967Z" fill="#F0AD19"/>
<path d="M520.169 284.785C520.212 284.77 520.25 284.742 520.277 284.706C520.304 284.669 520.32 284.626 520.322 284.58L520.394 282.631C520.396 282.618 520.401 282.607 520.41 282.598C520.419 282.589 520.431 282.584 520.443 282.582C520.456 282.581 520.468 282.584 520.479 282.591C520.489 282.597 520.497 282.608 520.501 282.619L520.977 284.511C520.989 284.556 521.013 284.595 521.048 284.625C521.082 284.655 521.125 284.674 521.17 284.679L522.216 284.817C522.228 284.819 522.24 284.824 522.249 284.833C522.258 284.842 522.264 284.854 522.265 284.866C522.266 284.879 522.263 284.891 522.256 284.902C522.249 284.913 522.239 284.921 522.227 284.924L521.233 285.277C521.189 285.291 521.152 285.319 521.124 285.355C521.097 285.392 521.081 285.435 521.079 285.481L521.008 287.423C521.008 287.436 521.003 287.449 520.994 287.459C520.984 287.469 520.972 287.475 520.958 287.476C520.945 287.478 520.932 287.474 520.92 287.467C520.909 287.459 520.902 287.447 520.898 287.434L520.424 285.549C520.412 285.505 520.388 285.465 520.353 285.435C520.319 285.405 520.277 285.386 520.231 285.381L519.187 285.243C519.174 285.242 519.163 285.236 519.154 285.227C519.145 285.218 519.14 285.207 519.138 285.194C519.137 285.182 519.14 285.169 519.147 285.159C519.153 285.148 519.164 285.14 519.175 285.136L520.169 284.785Z" fill="#FFDC64"/>
<path d="M520.935 284.342L520.978 284.512C520.989 284.556 521.014 284.595 521.048 284.625C521.082 284.655 521.125 284.674 521.17 284.68L522.216 284.817C522.229 284.819 522.24 284.824 522.249 284.833C522.258 284.842 522.264 284.854 522.265 284.866C522.267 284.879 522.264 284.892 522.257 284.902C522.25 284.913 522.239 284.921 522.227 284.924L521.233 285.277C521.19 285.291 521.152 285.319 521.125 285.355C521.097 285.392 521.082 285.436 521.079 285.481L521.009 287.425C521.008 287.438 521.003 287.451 520.994 287.461C520.985 287.471 520.972 287.477 520.959 287.478C520.945 287.48 520.932 287.476 520.921 287.468C520.91 287.461 520.902 287.449 520.899 287.436L520.475 285.748C520.709 285.309 520.865 284.834 520.935 284.342V284.342Z" fill="#FFC850"/>
<path d="M520.254 289.985L520.202 291.491C520.201 291.503 520.195 291.515 520.186 291.524C520.177 291.532 520.166 291.538 520.153 291.539C520.141 291.54 520.128 291.538 520.118 291.531C520.107 291.524 520.099 291.514 520.095 291.502L519.755 290.132C519.967 289.827 520.102 289.475 520.148 289.106L520.171 289.199C520.18 289.234 520.199 289.266 520.227 289.291C520.254 289.315 520.289 289.331 520.325 289.335L521.12 289.443C521.133 289.444 521.144 289.45 521.153 289.459C521.162 289.467 521.168 289.479 521.169 289.492C521.171 289.504 521.168 289.517 521.161 289.528C521.154 289.538 521.143 289.546 521.131 289.55L520.376 289.82C520.341 289.832 520.311 289.855 520.289 289.884C520.268 289.914 520.255 289.949 520.254 289.985V289.985Z" fill="#FFDC64"/>
<path d="M315.941 441.176C315.554 439.949 315.271 438.691 315.095 437.417C314.92 436.242 314.79 434.944 314.708 433.558C306.495 434.367 298.245 434.758 289.992 434.729C285.449 434.729 280.953 434.621 276.621 434.408C272.197 434.19 268.028 433.866 264.23 433.444C264.151 434.839 264.024 436.145 263.851 437.324C263.676 438.611 263.394 439.881 263.008 441.121C262.137 443.799 260.866 445.153 259.23 445.153C257.45 445.153 255.891 443.491 254.599 440.214C253.576 437.401 252.842 434.491 252.408 431.529C251.789 431.384 251.19 431.233 250.628 431.083C249.842 430.828 249.161 430.324 248.688 429.648C248.143 428.919 247.744 428.093 247.511 427.213C247.329 426.574 247.263 425.906 247.317 425.243C247.343 424.958 247.41 424.678 247.515 424.412C247.61 424.17 247.752 423.949 247.933 423.763V423.763C247.328 422.209 246.895 420.593 246.641 418.945C246.37 417.275 246.205 415.589 246.149 413.898C246.093 412.521 246.122 411.143 246.236 409.769C246.339 408.672 246.505 407.923 246.692 407.716C246.698 407.709 246.707 407.704 246.716 407.702L254.404 401.006L254.867 400.025L253.672 398.646C253.415 398.995 253.043 399.243 252.622 399.344C251.765 399.494 250.896 399.562 250.027 399.545C248.856 399.549 247.686 399.461 246.528 399.282C245.357 399.088 244.58 398.81 244.28 398.478C244.232 398.43 244.194 398.372 244.17 398.307C244.146 398.243 244.136 398.175 244.141 398.107C244.202 397.484 245.442 396.072 247.025 394.822C247.813 394.191 248.662 393.641 249.561 393.18C250.31 392.764 251.143 392.524 251.998 392.475C252.216 392.474 252.433 392.502 252.644 392.56C253.055 392.677 253.424 392.911 253.704 393.234C253.986 393.566 254.195 393.954 254.318 394.372C254.581 395.281 254.597 396.244 254.362 397.162L255.921 397.779L265.5 377.47C266.339 375.689 267.668 374.183 269.331 373.128C270.993 372.074 272.922 371.514 274.891 371.514H306.217C308.257 371.514 310.251 372.115 311.952 373.242C313.652 374.369 314.982 375.973 315.776 377.852L324.212 397.78L325.774 397.162C325.539 396.245 325.554 395.282 325.818 394.372C325.94 393.954 326.149 393.567 326.431 393.235C326.712 392.912 327.08 392.678 327.491 392.561C327.702 392.503 327.92 392.474 328.138 392.476C328.993 392.524 329.827 392.765 330.576 393.18C331.475 393.641 332.324 394.191 333.112 394.823C334.694 396.072 335.935 397.484 335.998 398.107C336.002 398.176 335.992 398.244 335.968 398.308C335.944 398.373 335.906 398.431 335.857 398.479C335.556 398.814 334.779 399.089 333.608 399.283C332.45 399.462 331.28 399.55 330.108 399.546C329.239 399.563 328.37 399.495 327.514 399.345C327.093 399.243 326.722 398.996 326.466 398.648L325.199 400.11L325.577 401.003L333.121 406.905C333.142 406.913 333.16 406.927 333.172 406.945C333.216 407.023 333.239 407.111 333.239 407.201C333.334 407.804 333.399 408.411 333.434 409.02C333.525 410.35 333.56 411.904 333.532 413.395C333.506 415.194 333.373 416.99 333.134 418.773C332.92 420.509 332.508 422.215 331.907 423.858C331.953 423.828 331.998 423.796 332.044 423.761C332.444 424.066 332.724 424.503 332.833 424.995C332.953 425.536 332.955 426.097 332.838 426.639C332.74 427.134 332.584 427.616 332.371 428.074C332.156 428.546 331.889 428.992 331.576 429.405C331.034 430.188 330.255 430.775 329.354 431.079C328.468 431.32 327.503 431.553 326.485 431.772C326.241 433.264 325.957 434.681 325.64 435.984C325.291 437.468 324.837 438.926 324.282 440.347C322.998 443.535 321.456 445.151 319.7 445.151C318.077 445.154 316.811 443.815 315.941 441.176ZM307.384 420.798C307.07 421.113 306.874 421.527 306.83 421.97C306.787 422.413 306.898 422.858 307.145 423.228C307.393 423.598 307.761 423.871 308.187 424C308.613 424.13 309.071 424.107 309.483 423.937C309.894 423.766 310.234 423.458 310.443 423.066C310.653 422.673 310.721 422.22 310.634 421.783C310.547 421.346 310.311 420.953 309.967 420.67C309.623 420.388 309.191 420.233 308.746 420.233C308.493 420.233 308.242 420.283 308.009 420.379C307.775 420.476 307.563 420.618 307.384 420.798ZM270.111 420.798C269.797 421.112 269.601 421.527 269.557 421.97C269.514 422.413 269.625 422.857 269.873 423.227C270.12 423.597 270.488 423.87 270.914 423.999C271.34 424.129 271.798 424.106 272.209 423.936C272.62 423.765 272.96 423.457 273.17 423.065C273.379 422.672 273.447 422.219 273.36 421.782C273.273 421.346 273.037 420.953 272.693 420.67C272.349 420.388 271.918 420.234 271.473 420.233C271.22 420.233 270.969 420.283 270.735 420.379C270.502 420.476 270.29 420.618 270.111 420.798ZM322.871 410.531C321.622 410.975 320.421 411.541 319.285 412.223C318.197 412.863 317.166 413.596 316.203 414.413C315.432 415.046 314.749 415.777 314.169 416.589L314.157 416.602L314.144 416.624C314.117 416.666 314.096 416.705 314.075 416.743V416.746V416.75V416.754V416.756C314.058 416.787 314.043 416.816 314.024 416.845C313.939 416.992 313.864 417.146 313.801 417.304C313.772 417.379 313.748 417.455 313.729 417.533C313.697 417.656 313.681 417.782 313.681 417.909C313.681 417.928 313.681 417.946 313.681 417.965V417.97C313.68 418.008 313.683 418.045 313.69 418.082C313.716 418.244 313.794 418.393 313.913 418.506C314.189 418.723 314.503 418.888 314.84 418.99C314.948 419.029 315.072 419.065 315.182 419.096H315.187C315.533 419.196 315.885 419.276 316.24 419.334C316.296 419.342 316.348 419.352 316.411 419.363C316.477 419.375 316.545 419.387 316.617 419.397C317.147 419.47 317.696 419.518 318.246 419.543C318.351 419.547 318.462 419.549 318.55 419.55H318.615H318.695C318.974 419.56 319.253 419.565 319.532 419.565C319.7 419.565 319.871 419.565 320.038 419.56C320.265 419.556 320.485 419.551 320.728 419.541C321.15 419.524 321.54 419.501 321.921 419.471C322.005 419.465 322.088 419.459 322.158 419.455H322.161H322.174C322.293 419.447 322.417 419.439 322.537 419.428C323.009 419.382 323.481 419.326 323.942 419.26L323.958 419.251C324.946 419.157 325.913 418.904 326.821 418.503C327.734 417.908 328.517 417.135 329.125 416.231C329.819 415.308 330.275 414.228 330.451 413.087C330.497 412.697 330.462 412.302 330.35 411.926C330.233 411.56 330.02 411.232 329.732 410.978C328.808 410.202 327.626 409.801 326.421 409.855C325.208 409.884 324.009 410.113 322.871 410.534V410.531ZM252.257 409.953C251.448 410.085 250.692 410.44 250.074 410.98C249.786 411.235 249.572 411.564 249.457 411.931C249.345 412.307 249.311 412.702 249.357 413.092C249.533 414.233 249.989 415.313 250.683 416.236C251.291 417.14 252.075 417.913 252.988 418.507C253.895 418.908 254.86 419.161 255.848 419.255L255.863 419.264C256.327 419.33 256.8 419.387 257.268 419.432C257.389 419.443 257.512 419.451 257.632 419.459H257.645H257.648L257.885 419.475C258.263 419.505 258.655 419.528 259.081 419.544C259.326 419.554 259.55 419.561 259.767 419.563C259.934 419.567 260.105 419.568 260.273 419.568C260.552 419.568 260.831 419.563 261.11 419.554H261.252C261.342 419.554 261.452 419.554 261.558 419.547C262.107 419.523 262.656 419.474 263.191 419.401C263.254 419.392 263.314 419.381 263.373 419.371H263.377H263.389C263.445 419.361 263.504 419.35 263.566 419.341C263.922 419.283 264.273 419.204 264.619 419.104H264.623C264.727 419.074 264.855 419.037 264.97 418.997C265.306 418.894 265.619 418.73 265.894 418.513C266.013 418.4 266.091 418.251 266.118 418.089C266.126 418.042 266.129 417.995 266.127 417.948V417.944C266.127 417.94 266.127 417.935 266.127 417.931V417.918C266.13 417.791 266.114 417.664 266.08 417.541C266.062 417.464 266.038 417.388 266.01 417.313C265.946 417.155 265.87 417.001 265.782 416.854C265.762 416.821 265.745 416.788 265.726 416.756C265.706 416.718 265.685 416.678 265.658 416.636L265.645 416.614L265.629 416.601C265.051 415.789 264.367 415.057 263.597 414.425C262.634 413.608 261.603 412.875 260.515 412.234C259.379 411.553 258.177 410.987 256.928 410.544L256.744 410.481C255.052 410.315 253.54 410.14 252.257 409.953ZM308.008 410.934C302.859 411.173 297.338 411.33 291.599 411.402C291.402 411.966 291.275 412.552 291.22 413.146C291.089 414.374 291.137 415.614 291.363 416.828C291.451 417.327 291.609 417.81 291.833 418.263C291.974 418.595 292.238 418.859 292.57 418.998C292.981 419.11 293.407 419.161 293.834 419.149C295.119 419.107 296.397 418.939 297.649 418.647C299.055 418.348 300.606 417.93 302.14 417.438C303.479 417.018 304.793 416.523 306.077 415.956C306.873 415.661 307.603 415.211 308.225 414.633C308.451 414.313 308.604 413.947 308.672 413.561C308.758 413.132 308.772 412.691 308.712 412.258C308.677 411.996 308.602 411.741 308.489 411.502C308.388 411.286 308.236 411.098 308.046 410.956L308.008 410.934ZM271.733 411.505C271.62 411.744 271.544 411.998 271.509 412.26C271.45 412.694 271.463 413.134 271.55 413.563C271.618 413.949 271.77 414.315 271.996 414.636C272.618 415.214 273.348 415.664 274.145 415.959C275.428 416.526 276.742 417.021 278.081 417.442C279.614 417.933 281.167 418.351 282.573 418.65C283.825 418.941 285.103 419.108 286.387 419.149C286.814 419.161 287.24 419.11 287.651 418.998C287.982 418.858 288.245 418.595 288.385 418.265C288.609 417.812 288.768 417.329 288.856 416.832C289.082 415.618 289.13 414.377 288.999 413.149C288.945 412.564 288.821 411.986 288.631 411.43C287.316 411.439 285.994 411.444 284.699 411.444C280.222 411.444 275.903 411.388 271.867 411.277C271.816 411.349 271.771 411.426 271.733 411.505V411.505ZM320.99 399.187L312.453 379.062C311.76 377.427 310.601 376.032 309.121 375.052C307.64 374.072 305.903 373.549 304.128 373.55H276.833C275.119 373.55 273.441 374.037 271.993 374.954C270.545 375.871 269.388 377.18 268.656 378.73L258.989 399.187C264.345 398.776 269.231 398.484 273.931 398.295C278.423 398.113 282.763 398.026 287.2 398.026C297.464 398.028 307.244 398.488 320.99 399.187Z" fill="white"/>
<path d="M272.373 368.327C272.424 368.697 272.584 369.044 272.833 369.323C273.083 369.601 273.41 369.798 273.772 369.889L282.238 372.009C282.325 372.029 282.402 372.077 282.458 372.145C282.513 372.214 282.544 372.3 282.544 372.388C282.545 372.477 282.515 372.563 282.461 372.633C282.406 372.702 282.329 372.751 282.243 372.771L273.768 374.892C273.405 374.982 273.079 375.18 272.83 375.458C272.581 375.737 272.422 376.084 272.373 376.454L270.129 392.923C270.12 393.02 270.075 393.11 270.003 393.176C269.931 393.241 269.837 393.278 269.74 393.278C269.643 393.278 269.549 393.241 269.477 393.176C269.405 393.11 269.36 393.02 269.351 392.923L267.106 376.451C267.057 376.081 266.898 375.734 266.649 375.456C266.4 375.177 266.074 374.98 265.712 374.889L257.236 372.772C257.15 372.751 257.074 372.703 257.019 372.634C256.964 372.565 256.935 372.479 256.935 372.391C256.935 372.303 256.964 372.218 257.019 372.149C257.074 372.08 257.15 372.031 257.236 372.011L265.712 369.891C266.074 369.8 266.401 369.603 266.65 369.324C266.898 369.046 267.058 368.699 267.107 368.329L269.35 351.854C269.359 351.758 269.404 351.667 269.476 351.602C269.548 351.536 269.642 351.5 269.739 351.5C269.837 351.5 269.931 351.536 270.002 351.602C270.074 351.667 270.119 351.758 270.128 351.854C270.827 356.982 272.235 367.312 272.373 368.327Z" fill="#FFC850"/>
<path d="M293.149 376.821C292.958 376.775 292.784 376.674 292.651 376.529C292.518 376.384 292.431 376.203 292.403 376.008C292.186 374.458 291.633 370.497 291.287 368.036C291.275 367.967 291.239 367.905 291.185 367.861C291.132 367.816 291.064 367.792 290.994 367.793C290.925 367.794 290.858 367.819 290.805 367.865C290.753 367.91 290.718 367.973 290.708 368.042L289.592 376.008C289.564 376.202 289.478 376.384 289.345 376.529C289.213 376.673 289.04 376.775 288.848 376.82L284.687 377.835C284.623 377.851 284.566 377.888 284.526 377.939C284.485 377.991 284.463 378.055 284.463 378.121C284.463 378.186 284.485 378.25 284.526 378.302C284.566 378.353 284.623 378.39 284.687 378.406L288.849 379.421C289.041 379.465 289.215 379.567 289.348 379.712C289.482 379.856 289.568 380.038 289.597 380.233L290.713 388.199C290.723 388.269 290.758 388.333 290.811 388.379C290.865 388.425 290.933 388.451 291.003 388.451C291.074 388.451 291.142 388.425 291.196 388.379C291.249 388.333 291.284 388.269 291.294 388.199L292.41 380.233C292.439 380.039 292.525 379.857 292.657 379.712C292.79 379.568 292.963 379.466 293.154 379.421L297.316 378.406C297.38 378.39 297.436 378.353 297.476 378.301C297.517 378.249 297.538 378.185 297.538 378.119C297.537 378.054 297.515 377.99 297.474 377.939C297.434 377.887 297.377 377.851 297.313 377.835L293.149 376.821Z" fill="#FFF082"/>
<path d="M270.129 392.922L272.106 378.409C270.226 374.508 268.645 370.469 267.378 366.328L267.106 368.326C267.056 368.696 266.897 369.043 266.648 369.321C266.4 369.6 266.073 369.797 265.711 369.888L257.236 372.008C257.15 372.028 257.074 372.077 257.02 372.146C256.965 372.215 256.936 372.3 256.936 372.388C256.936 372.476 256.965 372.561 257.02 372.63C257.074 372.699 257.15 372.748 257.236 372.768L265.711 374.888C266.074 374.979 266.4 375.176 266.649 375.455C266.898 375.733 267.057 376.08 267.106 376.45L269.351 392.922C269.36 393.019 269.405 393.109 269.477 393.175C269.549 393.24 269.643 393.277 269.74 393.276C269.837 393.276 269.931 393.24 270.003 393.174C270.075 393.109 270.12 393.019 270.129 392.922Z" fill="#F0AD19"/>
<path d="M287.14 352.57C286.902 352.516 286.686 352.392 286.52 352.214C286.353 352.035 286.245 351.811 286.207 351.57C285.921 349.552 285.164 344.218 284.744 341.256C284.734 341.185 284.7 341.12 284.646 341.073C284.592 341.026 284.523 341 284.452 341C284.38 341 284.311 341.026 284.257 341.073C284.204 341.12 284.169 341.185 284.16 341.256L282.696 351.57C282.66 351.811 282.551 352.035 282.386 352.213C282.22 352.392 282.004 352.516 281.767 352.57L276.288 353.885C276.224 353.9 276.167 353.937 276.126 353.988C276.085 354.04 276.062 354.104 276.062 354.17C276.062 354.236 276.085 354.3 276.126 354.352C276.167 354.404 276.224 354.44 276.288 354.455L281.764 355.77C282.002 355.824 282.217 355.948 282.383 356.127C282.549 356.305 282.657 356.529 282.694 356.77L284.155 367.052C284.165 367.123 284.201 367.188 284.255 367.235C284.31 367.282 284.379 367.308 284.451 367.308C284.523 367.308 284.593 367.282 284.647 367.235C284.701 367.188 284.737 367.123 284.747 367.052L286.207 356.769C286.243 356.529 286.352 356.304 286.517 356.126C286.683 355.948 286.899 355.824 287.136 355.77L292.609 354.455C292.673 354.44 292.73 354.403 292.771 354.35C292.811 354.298 292.833 354.234 292.833 354.167C292.832 354.101 292.809 354.037 292.768 353.985C292.727 353.934 292.669 353.897 292.605 353.882L287.14 352.57Z" fill="#FFDC64"/>
<path d="M282.828 350.645L282.696 351.571C282.66 351.811 282.551 352.035 282.386 352.214C282.22 352.392 282.004 352.516 281.767 352.57L276.288 353.886C276.224 353.901 276.167 353.937 276.126 353.989C276.085 354.041 276.062 354.105 276.062 354.171C276.062 354.237 276.085 354.301 276.126 354.353C276.167 354.404 276.224 354.441 276.288 354.456L281.764 355.771C282.002 355.825 282.217 355.949 282.383 356.127C282.549 356.305 282.657 356.529 282.694 356.77L284.155 367.053C284.165 367.125 284.2 367.19 284.255 367.238C284.309 367.285 284.379 367.311 284.451 367.311C284.524 367.311 284.594 367.285 284.648 367.238C284.702 367.19 284.738 367.125 284.748 367.053L286.052 357.851C284.566 355.655 283.475 353.216 282.828 350.645V350.645Z" fill="#FFC850"/>
<path d="M289.594 380.23L290.71 388.196C290.72 388.267 290.755 388.331 290.808 388.378C290.862 388.424 290.93 388.45 291.001 388.45C291.072 388.45 291.141 388.424 291.195 388.378C291.248 388.331 291.283 388.267 291.293 388.196L292.331 380.732C291.032 379.23 290.117 377.434 289.665 375.5L289.594 376.006C289.566 376.2 289.48 376.382 289.348 376.527C289.215 376.671 289.042 376.773 288.851 376.818L284.687 377.833C284.624 377.85 284.569 377.886 284.529 377.938C284.489 377.989 284.468 378.052 284.468 378.117C284.468 378.182 284.489 378.245 284.529 378.297C284.569 378.348 284.624 378.385 284.687 378.401L288.849 379.416C289.041 379.461 289.215 379.563 289.348 379.708C289.481 379.853 289.567 380.035 289.594 380.23V380.23Z" fill="#FFDC64"/>
<path d="M289.764 454.194H285.579V471.832H289.938C292.71 471.832 294.146 470.371 294.146 467.648V466.211C294.146 464.346 293.567 463.011 292.082 462.432C293.317 461.852 293.871 460.693 293.871 458.879V458.25C293.869 455.529 292.634 454.194 289.764 454.194ZM289.586 463.895C290.845 463.895 291.375 464.397 291.375 466.037V467.574C291.375 468.884 290.873 469.313 289.939 469.313H288.351V463.895H289.586ZM289.686 456.714C290.669 456.714 291.097 457.268 291.097 458.528V459.511C291.097 460.922 290.467 461.375 289.434 461.375H288.351V456.714H289.686ZM304.427 471.834C304.177 471.149 304.074 470.419 304.124 469.692V466.969C304.124 465.128 303.671 463.794 302.283 463.214C303.518 462.635 304.098 461.451 304.098 459.636V458.25C304.098 455.529 302.863 454.194 299.991 454.194H295.806V471.832H298.579V464.649H299.539C300.799 464.649 301.353 465.254 301.353 466.891V469.663C301.29 470.395 301.375 471.132 301.605 471.83L304.427 471.834ZM299.918 456.714C300.901 456.714 301.329 457.268 301.329 458.528V460.267C301.329 461.678 300.699 462.131 299.666 462.131H298.579V456.714H299.918ZM305.941 471.834H308.712V454.194H305.939L305.941 471.834ZM310.728 471.834H318.059V469.313H313.498V454.194H310.727L310.728 471.834ZM319.27 471.834H326.601V469.313H322.04V454.194H319.269L319.27 471.834ZM330.355 458.25C330.355 456.991 330.91 456.512 331.792 456.512C332.673 456.512 333.227 456.991 333.227 458.25V467.773C333.227 469.033 332.673 469.512 331.791 469.512C330.909 469.512 330.355 469.033 330.355 467.773L330.355 458.25ZM327.584 467.599C327.584 470.421 329.07 472.034 331.792 472.034C334.513 472.034 336 470.422 336 467.599V458.427C336 455.605 334.51 453.992 331.792 453.992C329.073 453.992 327.584 455.605 327.584 458.427V467.599Z" fill="white"/>
<path d="M244 454.241V471.879H245.966V464.925H247.704C250.501 464.925 251.811 463.463 251.811 460.667V458.55C251.811 455.879 250.627 454.241 247.855 454.241H244ZM245.966 463.159V456.03H247.855C249.291 456.03 249.871 456.836 249.871 458.449V460.793C249.871 462.481 249.165 463.161 247.704 463.161L245.966 463.159ZM255.289 454.241H253.348V467.622C253.348 470.293 254.583 472.083 257.279 472.083C260.001 472.083 261.235 470.293 261.235 467.622V454.241H259.394V467.722C259.394 469.309 258.764 470.266 257.353 470.266C255.916 470.266 255.288 469.309 255.288 467.722L255.289 454.241ZM263.176 454.241V471.879H265.141V464.347H266.527C268.165 464.347 269.098 464.977 269.098 466.97V469.741C269.036 470.471 269.148 471.205 269.425 471.883H271.416C271.126 471.217 271.005 470.49 271.063 469.767V467.016C271.063 465.126 270.459 463.816 268.846 463.337C270.358 462.858 271.038 461.649 271.038 459.71V458.272C271.038 455.65 269.879 454.241 267.108 454.241H263.176ZM265.141 462.554V456.03H267.056C268.518 456.03 269.097 456.861 269.097 458.449V460.138C269.097 462.052 268.165 462.557 266.603 462.557L265.141 462.554ZM272.953 467.619C272.953 470.29 274.288 472.054 276.984 472.054C279.705 472.054 281.041 470.29 281.041 467.619V458.5C281.04 455.803 279.705 454.064 276.984 454.064C274.288 454.064 272.952 455.803 272.952 458.5L272.953 467.619ZM274.893 458.399C274.893 456.811 275.573 455.854 276.984 455.854C278.42 455.854 279.075 456.811 279.075 458.399V467.722C279.075 469.334 278.42 470.266 276.984 470.266C275.573 470.266 274.893 469.334 274.893 467.722V458.399Z" fill="white"/>
</g>
</svg>
