<svg width="648" height="541" viewBox="0 0 648 541" fill="none" xmlns="http://www.w3.org/2000/svg">
<mask id="mask0" style="mask-type:alpha" maskUnits="userSpaceOnUse" x="0" y="0" width="648" height="541">
<rect width="648" height="541" fill="#C4C4C4"/>
</mask>
<g mask="url(#mask0)">
<path d="M389.389 62.1104C384.549 80.1878 382.05 108.664 380.065 127.43C379.268 134.96 378.746 142.868 381.253 149.897C382.236 152.649 384.259 155.534 386.839 155.163C388.467 154.928 389.714 153.444 390.76 152.001C396.073 144.599 399.86 136.21 401.901 127.325C401.831 132.602 402.368 137.869 403.504 143.022C403.655 143.704 403.837 144.424 404.289 144.903C405.875 146.581 408.107 143.765 408.66 141.382C410.588 133.07 409.747 124.254 408.492 115.785C406.379 101.494 403.765 75.7229 399.417 62.1161" fill="#C8DCED"/>
<path d="M392.487 65.0742C389.878 74.7879 388.542 90.0872 387.475 100.172C387.046 104.219 386.765 108.469 388.113 112.243C388.643 113.721 389.727 115.274 391.116 115.074C391.985 114.946 392.661 114.151 393.223 113.376C396.077 109.395 398.112 104.885 399.208 100.109C399.173 102.945 399.464 105.776 400.077 108.545C400.128 108.913 400.274 109.261 400.501 109.555C401.353 110.455 402.55 108.946 402.848 107.662C403.883 103.197 403.428 98.4654 402.758 93.9105C401.622 86.2319 400.217 72.39 397.883 65.0742" fill="#B0CFE2"/>
<path d="M384.76 121.449C383.835 125.565 383.783 129.83 384.606 133.967C384.78 134.838 385.105 135.831 385.942 136.127C386.414 136.251 386.912 136.226 387.368 136.055C389.058 135.558 390.568 134.582 391.716 133.244C391.957 132.899 392.273 132.612 392.64 132.405C393.026 132.234 393.568 132.336 393.719 132.731C393.763 132.879 393.778 133.035 393.762 133.189C393.633 135.902 393.146 138.585 392.313 141.17C391.835 142.642 391.214 144.128 390.09 145.188C389.22 146.006 387.919 146.532 386.838 146.035C385.757 145.539 385.328 144.294 385.041 143.17C383.457 136.895 383.642 130.302 385.577 124.126" fill="white"/>
<path d="M397.414 119.716C396.394 119.673 395.426 120.332 394.907 121.214C394.417 122.123 394.215 123.16 394.327 124.187C394.341 124.877 394.548 125.549 394.924 126.126C395.117 126.411 395.388 126.635 395.705 126.769C396.022 126.904 396.371 126.943 396.71 126.884C397.318 126.73 397.744 126.187 398.051 125.639C398.707 124.436 399.028 123.078 398.98 121.708C398.932 120.338 398.517 119.007 397.779 117.853" fill="white"/>
<path d="M399.336 80.3965L401.174 95.4925C401.272 96.2879 401.463 97.214 402.179 97.5595C403.301 95.1732 403.17 92.3891 402.657 89.8025C402.144 87.2158 401.269 84.7047 400.959 82.089" fill="white"/>
<path d="M466.394 59.5992C460.887 79.8917 452.676 118.311 451.981 139.533C451.902 141.965 451.871 144.5 452.755 146.718C453.639 148.936 455.72 150.733 457.827 150.286C459.742 149.882 461.032 147.864 461.983 145.931C467.78 134.185 468.588 120.198 469.159 106.739C466.054 115.377 465.525 124.732 467.635 133.665C469.742 133.808 471.063 131.143 471.634 128.835C472.205 126.527 472.831 123.783 474.823 122.947C475.62 129.494 476.498 136.301 479.75 141.777C480.196 142.526 480.721 143.278 481.463 143.594C483.26 144.36 484.97 142.256 485.81 140.302C488.955 133.044 488.935 124.605 488.419 116.549C487.598 103.848 474.594 59.0679 473.211 59.5905" fill="#C8DCED"/>
<path d="M468.218 63.3734C465.288 74.167 460.923 94.6018 460.555 105.889C460.511 107.184 460.494 108.531 460.966 109.712C461.439 110.894 462.543 111.849 463.662 111.611C464.682 111.396 465.366 110.322 465.873 109.288C468.96 103.038 469.386 95.6005 469.69 88.4415C468.038 93.0362 467.757 98.0133 468.882 102.765C470 102.841 470.702 101.424 471.006 100.196C471.31 98.968 471.644 97.5107 472.696 97.0636C473.119 100.547 473.586 104.165 475.304 107.079C475.501 107.488 475.819 107.825 476.214 108.046C477.171 108.455 478.078 107.335 478.533 106.304C480.208 102.452 480.197 97.9548 479.918 93.6699C479.481 86.9144 472.565 63.1034 471.829 63.3734" fill="#B0CFE2"/>
<path d="M456.853 120.572C456.725 120.497 456.922 120.282 457.047 120.372C457.172 120.462 457.175 120.63 457.166 120.778C456.957 124.193 456.989 127.619 457.262 131.029C457.375 132.405 457.722 134.045 459.015 134.513C460.511 135.059 461.934 133.613 462.879 132.33C462.722 134.223 462.346 136.092 461.757 137.898C461.471 138.923 460.978 139.878 460.308 140.705C459.606 141.5 458.569 142.052 457.511 141.93C456.198 141.776 455.192 140.595 454.824 139.317C454.456 138.04 454.63 136.681 454.824 135.369C455.728 129.621 457.354 124.015 458.974 118.427" fill="white"/>
<path d="M475.231 114.776C475.75 114.302 476.352 113.931 477.008 113.681C477.678 113.475 478.483 113.562 478.956 114.079C479.233 114.431 479.413 114.849 479.477 115.292C480.483 119.894 479.237 125.082 481.663 129.114C481.886 129.485 482.182 129.872 482.608 129.938C483.367 130.063 483.857 129.169 484.074 128.432C486.124 121.468 485.992 114.041 483.695 107.155C483.509 106.601 483.115 105.933 482.535 106.063C482.098 106.162 481.918 106.676 481.819 107.117C480.964 110.971 480.695 114.932 481.019 118.866C481.046 119.191 481.037 119.595 480.747 119.737C480.646 119.774 480.538 119.79 480.431 119.785C480.324 119.78 480.218 119.754 480.121 119.708L478.536 119.203" fill="white"/>
<path d="M471.594 77.0927C471.391 76.8662 471.116 77.2988 471.124 77.6036C471.226 81.8703 471.921 86.102 473.188 90.1768C473.423 90.9316 473.692 91.7097 474.246 92.27C474.799 92.8303 475.721 93.1089 476.399 92.7025C476.979 92.3541 477.205 91.6458 477.353 90.9897C478.237 86.9983 477.704 82.8231 475.846 79.1829C475.344 78.2074 474.634 77.1943 473.559 76.9736" fill="white"/>
<path d="M315.614 62.1104C310.209 73.3395 298.297 98.2827 297.833 111.172C297.749 113.472 297.761 115.846 298.503 117.977C299.245 120.108 300.882 121.954 302.85 122.085C304.986 122.227 306.821 120.395 308.27 118.543C313.081 112.397 316.464 104.719 317.956 96.5525C315.11 106.194 315.493 117.098 319.008 126.431C321.053 124.234 322.375 121.46 322.794 118.485C323.659 124.881 325.334 131.14 327.779 137.111C328.428 138.688 329.271 140.374 330.697 140.885C333.413 141.846 335.5 138.017 336.265 134.809C340.981 114.981 329.15 81.8716 324.22 62.1161" fill="#C8DCED"/>
<path d="M316.304 63.37C312.646 70.9703 304.58 87.8546 304.267 96.5812C304.212 98.1373 304.218 99.7456 304.722 101.188C305.227 102.631 306.334 103.88 307.655 103.97C309.105 104.065 310.345 102.826 311.325 101.572C314.673 97.2049 316.923 92.0947 317.884 86.673C315.96 93.3182 316.209 100.405 318.594 106.899C319.978 105.412 320.872 103.535 321.156 101.522C321.742 105.851 322.877 110.086 324.532 114.127C324.97 115.196 325.541 116.34 326.506 116.679C328.344 117.332 329.758 114.74 330.274 112.566C333.462 99.1447 325.46 76.73 322.121 63.3584" fill="#B0CFE2"/>
<path d="M302.299 103.83C302.299 103.676 302.058 103.63 301.951 103.74C301.86 103.867 301.821 104.024 301.844 104.179L301.948 107.918C301.974 108.829 302.012 109.79 302.49 110.565C302.969 111.341 304.041 111.828 304.809 111.349C305.27 111.059 305.679 110.478 306.197 110.664C306.387 110.754 306.537 110.91 306.62 111.102C307.2 112.197 306.844 113.547 306.302 114.653C305.893 115.495 305.302 116.34 304.409 116.615C303.337 116.946 302.145 116.302 301.537 115.358C300.928 114.415 300.792 113.239 300.789 112.116C300.787 109.383 301.469 106.693 302.771 104.292" fill="white"/>
<path d="M333.208 119.095C333.993 121.298 333.787 123.74 333.129 125.995C332.471 128.251 331.367 130.321 330.344 132.426C329.95 133.239 329.57 134.231 330.04 135.004C330.558 135.851 331.88 135.875 332.671 135.265C333.463 134.655 333.831 133.671 334.103 132.71C335.082 129.136 335.06 125.36 334.039 121.797" fill="white"/>
<path d="M238.852 62.1103C232.624 73.5658 226.804 99.5948 226.702 112.792C226.659 118.256 227.265 124.007 230.247 128.469C230.76 129.235 231.38 129.987 232.221 130.292C234.374 131.073 236.278 128.66 237.342 126.538C241.723 117.728 244.622 108.254 245.921 98.4974C244.06 109.847 244.631 121.463 247.596 132.574C248.086 134.403 248.959 136.516 250.741 136.818C252.903 137.184 254.408 134.626 255.034 132.417C256.891 125.865 256.712 118.868 256.036 112.069C254.665 98.242 252.321 75.5544 248.999 62.0986" fill="#C8DCED"/>
<path d="M242.086 63.3701C238.319 70.3085 234.786 86.078 234.725 94.0731C234.701 97.3826 235.067 100.866 236.872 103.575C237.146 104.06 237.565 104.446 238.069 104.681C239.374 105.151 240.53 103.691 241.171 102.408C243.825 97.0701 245.581 91.3299 246.367 85.419C245.241 92.2945 245.586 99.3314 247.382 106.063C247.672 107.169 248.208 108.452 249.289 108.635C250.599 108.856 251.509 107.305 251.897 105.967C253.022 101.999 252.915 97.76 252.506 93.6405C251.674 85.2651 250.254 71.522 248.242 63.3701" fill="#B0CFE2"/>
<path d="M231.258 105.27C231.175 108.743 231.726 112.203 232.884 115.477C233.145 116.351 233.579 117.164 234.159 117.867C234.774 118.534 235.698 118.984 236.588 118.81C236.915 118.71 237.249 118.636 237.588 118.59C237.927 118.59 238.315 118.787 238.347 119.127C238.376 119.417 238.13 119.67 237.892 119.85C236.582 120.848 234.704 121.301 233.278 120.459C232.119 119.777 231.556 118.427 231.206 117.141C230.046 112.842 230.551 108.284 231.069 103.859" fill="white"/>
<path d="M245.136 68.9183C245.495 72.6227 245.855 76.327 246.272 80.0255C246.423 81.3754 246.628 82.8241 247.553 83.8169C248.927 80.5655 248.446 76.8495 247.594 73.4181C247.173 71.7314 246.666 70.0621 246.081 68.4248" fill="white"/>
<path d="M363.344 141.03C359.465 145.6 357.105 151.268 356.594 157.244C356.446 159.015 356.487 160.893 357.357 162.443C358.226 163.994 360.148 165.079 361.817 164.476C362.976 164.055 363.73 162.978 364.33 161.909C365.781 159.29 366.687 156.403 366.992 153.423C367.297 150.443 366.994 147.432 366.104 144.572" fill="#C8DCED"/>
<path d="M423.647 125.949C422.129 131.92 421.497 138.083 421.771 144.239C421.838 145.69 422.27 147.525 423.708 147.775C426.737 141.564 427.321 134.438 425.342 127.816" fill="#C8DCED"/>
<path d="M274.71 109.216C275.787 113.665 277.846 117.815 280.736 121.362C282.231 123.191 284.892 124.939 286.738 123.461C287.929 122.506 287.976 120.697 287.608 119.208C286.868 116.19 284.968 113.587 282.321 111.965" fill="#C8DCED"/>
<path d="M639.66 40.2881H55.5431C54.1024 40.2881 52.9346 41.4579 52.9346 42.9009V50.5882C52.9346 52.0312 54.1024 53.201 55.5431 53.201H639.66C641.1 53.201 642.268 52.0312 642.268 50.5882V42.9009C642.268 41.4579 641.1 40.2881 639.66 40.2881Z" fill="#004A66"/>
<path d="M250.668 53.2012H238.852V65.037H250.668V53.2012Z" fill="#383838"/>
<path d="M325.939 53.6797H314.122V65.5155H325.939V53.6797Z" fill="#383838"/>
<path d="M401.205 53.4414H389.389V65.2772H401.205V53.4414Z" fill="#383838"/>
<path d="M476.475 53.2031H464.658V65.039H476.475V53.2031Z" fill="#383838"/>
<path d="M79.0176 419.148V437.075C79.0176 437.075 96.7467 447.477 114.473 437.075V419.137L79.0176 419.148Z" fill="url(#paint0_radial)"/>
<path d="M20.824 410.207C20.824 410.207 111.988 452.418 186.4 404.769C174.172 355.818 171.909 331.742 175.839 303.382C179.769 275.022 163.509 225.943 172.7 184.388C181.89 142.833 169.442 109.793 169.442 109.793L12.1434 108.551C12.1434 108.551 2.4746 130.994 16.4417 156.823C8.88572 208.411 12.1434 168.621 14.294 220.293C16.4446 271.965 34.707 319.024 23.9629 354.683C13.2187 390.341 20.824 410.207 20.824 410.207Z" fill="url(#paint1_linear)"/>
<path fill-rule="evenodd" clip-rule="evenodd" d="M90.3599 109.169C91.224 118.127 90.4466 127.231 87.9996 136.02C87.3371 138.373 86.5535 140.711 85.7697 143.05C83.6903 149.255 81.6104 155.462 81.7914 161.947C82.0406 170.877 88.8517 180.579 97.7322 179.676C92.2457 185.52 90.7443 194.772 94.1035 202.053C94.734 203.423 95.5185 204.726 96.3015 206.026C97.5811 208.151 98.8565 210.269 99.448 212.661C100.841 218.301 98.1996 223.725 95.5459 229.174C92.9994 234.403 90.442 239.655 91.4284 245.141C93.1026 254.457 102.88 257.962 112.677 261.475C122.419 264.968 132.18 268.467 134.014 277.693C135.648 285.917 129.269 293.497 122.71 298.702C121.76 299.456 120.786 300.204 119.808 300.956C114.031 305.392 108.081 309.961 105.778 316.751C103.085 324.691 109.963 335.749 117.838 332.901C110.882 336.077 102.584 342.437 105.624 349.448C92.7964 355.161 92.3413 374.299 99.9987 386.085C104.76 393.414 111.482 399.037 118.225 404.678C122.327 408.109 126.436 411.547 130.118 415.38C132.675 418.039 135.102 421.049 136.103 424.558C76.3493 435.916 20.825 410.207 20.825 410.207C20.825 410.207 13.2197 390.341 23.9638 354.683C30.5841 332.711 26.1914 306.41 21.3409 277.369C18.3194 259.279 15.1204 240.126 14.295 220.293C13.2167 194.384 11.86 191.47 11.7277 188.501C11.5962 185.55 12.6754 182.544 16.4427 156.823C2.47557 130.994 12.1444 108.551 12.1444 108.551L90.3599 109.169Z" fill="#FFC850"/>
<path d="M91.013 116.714C134.328 116.714 169.442 113.615 169.442 109.793C169.442 105.971 134.328 102.872 91.013 102.872C47.6978 102.872 12.584 105.971 12.584 109.793C12.584 113.615 47.6978 116.714 91.013 116.714Z" fill="url(#paint2_linear)"/>
<path d="M72.6846 87.2334V105.172C72.6846 105.172 90.4137 115.573 108.14 105.172V87.2334H72.6846Z" fill="url(#paint3_radial)"/>
<path d="M61.8214 69.2988L58.3434 86.096C58.1079 87.2395 58.3033 88.4299 58.892 89.4376C59.4807 90.4454 60.421 91.1992 61.5316 91.5538C70.4237 94.4192 92.9496 99.8421 117.658 91.5103C118.734 91.1553 119.647 90.426 120.232 89.4545C120.817 88.483 121.035 87.3337 120.846 86.2151L117.948 69.2988H61.8214Z" fill="#004A66"/>
<path d="M90.0313 74.321C105.438 74.321 117.928 72.0725 117.928 69.2987C117.928 66.525 105.438 64.2764 90.0313 64.2764C74.6245 64.2764 62.1348 66.525 62.1348 69.2987C62.1348 72.0725 74.6245 74.321 90.0313 74.321Z" fill="url(#paint4_radial)"/>
<path d="M93.9694 38.1514H85.7932C84.2597 38.1514 83.0166 39.3965 83.0166 40.9325V67.6525C83.0166 69.1884 84.2597 70.4336 85.7932 70.4336H93.9694C95.5029 70.4336 96.746 69.1884 96.746 67.6525V40.9325C96.746 39.3965 95.5029 38.1514 93.9694 38.1514Z" fill="#15444F"/>
<path d="M612.181 416.997V434.935C612.181 434.935 594.455 445.337 576.726 434.935V416.997H612.181Z" fill="url(#paint5_radial)"/>
<path d="M670.386 408.044C670.386 408.044 579.219 450.255 504.807 402.607C517.038 353.655 519.298 329.58 515.368 301.219C511.438 272.859 527.701 223.783 518.507 182.225C509.314 140.667 521.765 107.616 521.765 107.616L679.063 106.414C679.063 106.414 688.732 128.858 674.765 154.686C682.324 206.274 679.063 166.485 676.916 218.156C674.768 269.828 656.503 316.887 667.25 352.531C677.997 388.175 670.386 408.044 670.386 408.044Z" fill="url(#paint6_linear)"/>
<path fill-rule="evenodd" clip-rule="evenodd" d="M571.21 424.616C624.469 429.304 670.386 408.044 670.386 408.044C670.386 408.044 677.997 388.175 667.25 352.531C660.629 330.57 665.021 304.276 669.87 275.239C672.892 257.148 676.092 237.992 676.916 218.156C677.993 192.247 679.35 189.333 679.482 186.365C679.613 183.413 678.534 180.407 674.766 154.686C688.733 128.858 679.064 106.414 679.064 106.414L597.633 107.036C596.718 108.789 595.992 110.641 595.49 112.563C592.716 123.179 596.939 135.279 605.692 141.884C607.164 142.991 608.808 144.075 610.475 145.174C616.931 149.43 623.734 153.914 622.239 160.896C621.394 164.847 618.076 167.324 614.721 169.828C613.114 171.028 611.498 172.234 610.141 173.612C605.953 177.865 607.336 188.011 613.098 186.458C609.266 191.448 605.687 197.312 606.292 203.586C606.898 209.859 613.782 215.616 619.416 212.818C616.897 216.42 619.358 221.527 622.746 224.32C624.038 225.385 625.464 226.295 626.886 227.202C629.194 228.676 631.493 230.144 633.201 232.26C638.957 239.395 635.067 250.717 627.862 256.381C621.999 260.99 614.688 263.021 607.439 265.035C605.78 265.496 604.124 265.956 602.49 266.446C593.714 269.076 584.52 273.385 580.584 281.664C574.512 294.438 587.83 311.461 601.664 308.605L592.925 321.242C593.968 322.367 595.252 323.239 596.68 323.794C595.739 323.791 594.797 323.865 593.864 324.016C591.393 324.417 589.039 325.353 586.966 326.758C593.029 332.513 600.429 336.454 607.846 340.403C613.729 343.536 619.623 346.674 624.868 350.728C636.725 359.893 644.577 378.325 634.676 389.589C633.733 390.663 632.633 391.753 631.516 392.861C627.328 397.011 622.901 401.4 625.601 406.029C606.084 407.672 584.674 410.195 571.298 424.522C571.268 424.553 571.239 424.585 571.21 424.616Z" fill="#FFC850"/>
<path fill-rule="evenodd" clip-rule="evenodd" d="M528.057 107.568C528.023 111.164 528.21 114.767 528.619 118.358C530.147 131.63 537.291 146.712 550.548 148.207C549.937 152.233 546.233 154.19 542.418 156.206C540.227 157.363 538 158.54 536.3 160.139C529.492 166.56 532.752 178.1 538.068 185.805C539.105 187.308 540.215 188.803 541.33 190.305C545.93 196.501 550.621 202.818 550.67 210.356C550.709 216.441 547.637 222.031 544.699 227.375C544.618 227.523 544.537 227.671 544.456 227.818C541.448 233.296 538.5 239.288 539.216 245.498C539.932 251.708 545.972 257.659 551.968 255.882C545.856 263.256 539.656 270.769 535.938 279.6C532.219 288.432 531.3 298.938 535.741 307.421C537.198 310.199 539.199 312.726 541.188 315.238C544.487 319.404 547.753 323.528 548.447 328.689C549.4 335.695 545.349 341.99 541.414 348.103C540.564 349.425 539.719 350.737 538.932 352.047C531.015 365.338 528.311 381.102 531.344 396.278C531.792 398.47 532.347 400.717 532.908 402.983C534.094 407.773 535.302 412.652 535.556 417.304C525.178 413.823 514.84 409.032 504.807 402.607C517.038 353.655 519.298 329.58 515.368 301.22C513.723 289.35 515.616 273.851 517.698 256.792C520.592 233.095 523.853 206.389 518.507 182.226C509.314 140.668 521.765 107.616 521.765 107.616L528.057 107.568Z" fill="#FFC850"/>
<path d="M600.194 114.564C643.509 114.564 678.623 111.465 678.623 107.643C678.623 103.82 643.509 100.722 600.194 100.722C556.878 100.722 521.765 103.82 521.765 107.643C521.765 111.465 556.878 114.564 600.194 114.564Z" fill="url(#paint7_linear)"/>
<path d="M618.523 85.083V103.021C618.523 103.021 600.797 113.423 583.067 103.021V85.083H618.523Z" fill="url(#paint8_radial)"/>
<path d="M629.385 67.1475L632.863 83.9447C633.099 85.0882 632.903 86.2785 632.315 87.2863C631.726 88.2941 630.786 89.0479 629.675 89.4025C620.786 92.2678 598.257 97.6937 573.549 89.3589C572.473 89.0035 571.561 88.274 570.976 87.3027C570.391 86.3313 570.173 85.1823 570.361 84.0637L573.273 67.1475H629.385Z" fill="#004A66"/>
<path d="M601.176 72.1696C616.583 72.1696 629.072 69.9211 629.072 67.1473C629.072 64.3736 616.583 62.125 601.176 62.125C585.769 62.125 573.279 64.3736 573.279 67.1473C573.279 69.9211 585.769 72.1696 601.176 72.1696Z" fill="url(#paint9_radial)"/>
<path d="M597.238 68.2822H605.414C606.947 68.2822 608.19 67.0371 608.19 65.5011V38.7811C608.19 37.2451 606.947 36 605.414 36H597.238C595.704 36 594.461 37.2451 594.461 38.7811V65.5011C594.461 67.0371 595.704 68.2822 597.238 68.2822Z" fill="#15444F"/>
<path d="M208.579 275.005C208.579 275.005 153.427 261.07 146.978 279.873C140.529 298.676 197.835 307.29 197.835 307.29L208.579 275.005Z" fill="#434343"/>
<path d="M504.476 275.005C504.476 275.005 559.631 261.07 566.077 279.873C572.523 298.676 515.22 307.29 515.22 307.29L504.476 275.005Z" fill="#434343"/>
<path d="M180.645 443.125C180.645 443.125 179.048 457.701 186.256 473.369C187.421 475.906 189.108 478.169 191.206 480.009C193.303 481.85 195.764 483.226 198.429 484.05C213.767 488.764 228.209 486.105 236.551 483.617C239.179 482.837 241.575 481.421 243.526 479.492C245.478 477.564 246.924 475.184 247.738 472.562C249.164 467.946 250.298 461.452 249.645 453.169C248.211 434.993 180.645 443.125 180.645 443.125Z" fill="black"/>
<path d="M240.333 481.391C247.585 481.391 253.465 467.253 253.465 449.814C253.465 432.375 247.585 418.237 240.333 418.237C233.08 418.237 227.2 432.375 227.2 449.814C227.2 467.253 233.08 481.391 240.333 481.391Z" fill="#E6E6E6"/>
<path d="M538.998 443.125C538.998 443.125 540.595 457.701 533.384 473.369C532.218 475.906 530.531 478.169 528.434 480.009C526.336 481.85 523.875 483.226 521.211 484.05C505.873 488.764 491.43 486.105 483.089 483.617C480.461 482.837 478.065 481.421 476.113 479.492C474.162 477.564 472.715 475.184 471.901 472.562C470.475 467.946 469.342 461.452 469.997 453.169C471.429 434.993 538.998 443.125 538.998 443.125Z" fill="black"/>
<path d="M479.306 481.391C486.559 481.391 492.439 467.253 492.439 449.814C492.439 432.375 486.559 418.237 479.306 418.237C472.053 418.237 466.174 432.375 466.174 449.814C466.174 467.253 472.053 481.391 479.306 481.391Z" fill="#E6E6E6"/>
<path d="M558.008 384.623C557.872 389.967 557.536 398.203 556.756 407.316C556.747 407.363 556.742 407.41 556.741 407.458C555.715 419.245 553.933 432.483 550.826 442.821C550.683 443.3 550.511 443.77 550.31 444.229C549.012 447.218 546.594 449.577 543.577 450.798C412.836 503.28 179.76 454.996 167.75 448.627C166.59 448.014 165.564 446.975 164.625 445.59C157.269 434.677 156.374 402.43 156.29 391.395C156.276 389.961 156.514 388.536 156.991 387.183C157.055 386.986 157.13 386.792 157.214 386.602C157.496 385.892 157.849 385.211 158.266 384.57L160.234 381.508L160.524 381.055C161.93 378.864 162.614 376.287 162.48 373.687C161.921 363.056 161.307 333.842 170.616 324.514C180.853 314.261 193.939 294.287 196.626 290.127C196.953 289.623 197.244 289.095 197.495 288.548L243.222 188.282C244.216 186.115 245.809 184.28 247.812 182.994C249.816 181.707 252.146 181.023 254.526 181.024L347.852 177.105C354.055 176.845 360.262 176.845 366.474 177.105L459.844 181.024C462.229 181.026 464.563 181.715 466.567 183.01C468.572 184.305 470.162 186.15 471.148 188.325C483.981 216.665 530.346 318.218 540.195 328.012C548.44 336.205 548.89 354.558 548.51 364.214C548.51 364.385 548.51 364.559 548.51 364.731C548.51 366.613 548.938 368.471 549.76 370.164C550.583 371.857 551.779 373.34 553.258 374.502C553.452 374.653 553.637 374.81 553.817 374.976C555.177 376.18 556.256 377.668 556.979 379.335C557.701 381.002 558.05 382.808 557.999 384.625L558.008 384.623Z" fill="#434343"/>
<path d="M243.849 207.555L210.182 282.89C209.154 285.187 208.627 287.677 208.637 290.194C208.647 292.711 209.192 295.197 210.238 297.486C211.283 299.775 212.804 301.814 214.7 303.467C216.595 305.12 218.82 306.349 221.227 307.072C262.827 319.555 368.306 342.815 492.889 306.811C495.347 306.102 497.622 304.868 499.558 303.193C501.494 301.518 503.043 299.442 504.1 297.109C505.157 294.775 505.695 292.24 505.679 289.678C505.662 287.116 505.091 284.588 504.004 282.268L468.586 206.814C467.365 204.206 465.525 201.937 463.227 200.204C460.93 198.471 458.244 197.327 455.404 196.871C430.856 192.941 359.18 184.362 257.712 197.24C254.712 197.624 251.861 198.774 249.433 200.58C247.005 202.387 245.082 204.789 243.849 207.555Z" fill="#262626"/>
<path d="M251.338 201.705L219.63 272.633C218.661 274.796 218.165 277.141 218.174 279.512C218.183 281.883 218.697 284.224 219.682 286.38C220.667 288.536 222.1 290.456 223.886 292.012C225.671 293.569 227.767 294.725 230.035 295.405C269.2 307.151 368.512 329.06 485.81 295.161C488.125 294.494 490.267 293.331 492.09 291.754C493.912 290.177 495.371 288.222 496.366 286.025C497.361 283.828 497.867 281.441 497.852 279.029C497.836 276.616 497.297 274.236 496.273 272.052L462.916 201.005C461.766 198.55 460.033 196.414 457.87 194.782C455.706 193.151 453.177 192.074 450.503 191.646C427.392 187.944 359.895 179.865 264.374 191.991C261.553 192.356 258.872 193.441 256.589 195.142C254.306 196.843 252.498 199.103 251.338 201.705Z" fill="#E6E6E6"/>
<g opacity="0.71">
<path opacity="0.71" fill-rule="evenodd" clip-rule="evenodd" d="M368.063 177.171L409.592 178.914L328.492 325.122C315.004 324.284 302.347 322.896 290.649 321.179L272.788 316.443L368.063 177.171Z" fill="white"/>
<path opacity="0.71" d="M431.177 173.312L354.093 322.984L383.578 325.088L448.79 180.556L431.177 173.312Z" fill="white"/>
</g>
<path d="M183.673 351.353L191.235 343.149C193.076 341.151 195.568 339.875 198.263 339.549C200.958 339.224 203.681 339.87 205.944 341.373L258.091 375.998C260.345 377.496 261.996 379.745 262.752 382.347C265.148 390.62 257.908 398.482 249.483 396.752L189.777 384.498C187.198 383.968 184.881 382.563 183.217 380.52C181.553 378.476 180.644 375.92 180.645 373.283V359.116C180.644 356.239 181.726 353.468 183.673 351.353Z" fill="white"/>
<path d="M528.332 356.203L520.773 347.999C518.931 346.001 516.439 344.725 513.743 344.4C511.048 344.075 508.324 344.722 506.062 346.226L453.932 380.851C451.677 382.346 450.025 384.595 449.271 387.197C446.872 395.47 454.115 403.332 462.537 401.602L522.243 389.348C524.822 388.819 527.14 387.414 528.805 385.37C530.469 383.327 531.379 380.771 531.378 378.133V363.966C531.374 361.087 530.286 358.315 528.332 356.203Z" fill="white"/>
<path d="M287.529 385.459C304.554 390.394 351.003 400.015 421.47 385.627C422.982 385.321 424.539 385.322 426.051 385.63C427.562 385.938 428.996 386.547 430.268 387.421C431.539 388.295 432.623 389.415 433.454 390.716C434.286 392.017 434.848 393.473 435.107 394.995C435.265 395.89 435.362 396.795 435.397 397.704C435.603 403.673 431.035 408.736 425.105 409.371C404.077 411.63 327.497 418.737 281.788 407.92C279.97 407.504 278.282 406.649 276.871 405.429C275.46 404.208 274.369 402.661 273.693 400.92C273.46 400.312 273.266 399.69 273.113 399.057C271.061 390.554 279.136 383.026 287.529 385.459Z" fill="white"/>
<path d="M558.008 384.622C557.871 389.967 557.535 398.203 556.756 407.316C556.747 407.363 556.742 407.41 556.741 407.458C555.66 416.777 554.063 426.343 551.692 434.213C551.549 434.691 551.377 435.161 551.176 435.618L526.033 421.364C526.033 421.364 389.942 479.475 181.508 424.232C175.355 429.167 170.056 433.374 165.492 436.982C158.86 427.138 157.478 399.939 157.214 386.602L160.234 381.502L181.508 407.731C181.508 407.731 364.158 460.105 523.886 407.731C537.308 391.764 546.942 381.438 553.825 374.973C555.185 376.177 556.264 377.665 556.987 379.332C557.71 381 558.058 382.805 558.008 384.622Z" fill="#230606"/>
<path d="M558.011 384.622C557.689 396.905 556.347 424.44 550.826 442.823C550.684 443.302 550.512 443.771 550.31 444.228L525.17 429.971C525.17 429.971 389.078 488.085 180.644 432.842C174.491 437.777 169.19 441.981 164.628 445.592C157.272 434.68 156.377 402.429 156.29 391.395C156.277 389.961 156.514 388.537 156.991 387.185L180.644 416.341C180.644 416.341 363.292 468.715 523.019 416.341C539.444 396.812 550.197 385.699 557.179 379.803C557.774 381.338 558.056 382.976 558.011 384.622Z" fill="#262626"/>
<path d="M316.941 337.499C345.958 345.812 376.439 347.667 406.248 342.934C398.327 338.87 389.194 337.999 380.305 337.708C356.437 336.948 331.966 339.97 309.075 333.159" fill="#656565"/>
<path d="M473.11 323.274L438.736 335.758C438.263 335.929 437.753 336.129 437.492 336.562C436.695 337.886 438.875 338.96 440.417 338.948C452.26 338.841 463.825 335.343 473.748 328.866" fill="#656565"/>
<g opacity="0.88">
<path opacity="0.88" d="M258.61 147.766C263.099 139.12 274.11 134.493 283.411 137.344C292.711 140.195 299.256 150.199 298.149 159.877C303.798 156.609 312.162 160.661 313.113 167.135C311.136 161.198 319.095 154.89 324.416 158.179C320.167 155.566 321.164 148.082 325.712 146.027C330.259 143.971 336.068 147.188 337.557 151.949C339.047 156.71 336.743 162.142 332.793 165.193C339.717 166.705 342.067 176.95 337.323 182.222C332.578 187.494 323.558 187.239 318.066 182.754C322.521 192.56 320.834 205.287 312.849 212.513C304.864 219.739 290.839 219.588 284.028 211.247C283.098 221.678 275.6 231.229 265.699 234.591C255.798 237.953 244.045 234.939 236.976 227.226C232.049 232.782 221.922 232.231 217.63 226.172C213.338 220.113 216.155 210.356 223.018 207.531C217.705 201.569 212.485 194.787 211.859 186.821C211.233 178.855 217.366 169.945 225.325 170.665C224.261 165.486 223.192 160.197 223.806 154.945C224.421 149.693 227.021 144.384 231.664 141.867C239.973 137.361 249.889 143.318 257.427 149.023" fill="#FFE8AE"/>
</g>
<path d="M265.314 153.041C269.108 146.486 278.417 142.979 286.28 145.139C294.143 147.299 299.676 154.887 298.743 162.226C303.52 159.75 310.592 162.807 311.394 167.725C309.722 163.222 316.452 158.435 320.959 160.934C317.368 158.949 318.211 153.276 322.054 151.717C325.898 150.158 330.807 152.588 332.068 156.208C333.329 159.828 331.381 163.939 328.042 166.253C333.894 167.414 335.868 175.168 331.871 179.166C327.874 183.163 320.234 182.972 315.591 179.569C319.359 187.004 317.93 196.657 311.186 202.138C304.441 207.619 292.578 207.503 286.819 201.177C286.034 209.088 279.695 216.331 271.325 218.886C262.954 221.44 253.019 219.15 247.043 213.3C242.878 217.515 234.316 217.097 230.684 212.502C227.053 207.906 229.438 200.506 235.241 198.364C230.751 193.844 226.337 188.702 225.809 182.661C225.282 176.62 230.476 169.861 237.191 170.407C236.293 166.479 235.388 162.467 235.907 158.484C236.426 154.501 238.623 150.475 242.55 148.567C249.576 145.15 257.958 149.668 264.331 153.993" fill="#FFF1D2"/>
<path d="M263.337 167.924C265.578 163.811 271.076 161.607 275.719 162.963C280.362 164.319 283.629 169.08 283.075 173.687C285.898 172.131 290.072 174.059 290.547 177.136C289.559 174.311 293.532 171.309 296.187 172.874C294.066 171.632 294.564 168.07 296.834 167.091C299.103 166.113 302.004 167.64 302.746 169.91C303.488 172.18 302.34 174.761 300.37 176.213C303.824 176.933 305.007 181.807 302.63 184.315C300.254 186.823 295.758 186.701 293.016 184.568C295.242 189.233 294.399 195.292 290.408 198.729C286.417 202.166 279.417 202.097 276.018 198.128C275.554 203.089 271.809 207.636 266.868 209.235C261.926 210.835 256.057 209.401 252.53 205.728C250.072 208.373 245.014 208.112 242.869 205.229C240.725 202.346 242.133 197.701 245.559 196.357C242.91 193.521 240.301 190.295 239.991 186.504C239.681 182.713 242.745 178.474 246.713 178.817C246.182 176.352 245.649 173.835 245.953 171.335C246.258 168.836 247.559 166.31 249.878 165.111C254.025 162.969 258.976 165.802 262.738 168.517" fill="#FFE8AE"/>
<path d="M376.747 182.292C379.565 182.292 381.851 180.003 381.851 177.18C381.851 174.356 379.565 172.067 376.747 172.067C373.928 172.067 371.643 174.356 371.643 177.18C371.643 180.003 373.928 182.292 376.747 182.292Z" fill="#FFE8AE"/>
<path d="M202.084 263.195C202.255 260.582 200.15 258.152 197.632 257.389C195.113 256.625 192.351 257.278 190.035 258.521C186.464 260.434 183.598 264.019 183.41 268.069C183.221 272.119 186.308 276.311 190.342 276.566C188.244 276.72 186.491 278.239 185.209 279.908C183.668 281.92 182.537 284.448 182.955 286.948C183.244 288.765 184.343 290.362 185.598 291.709C189.314 295.698 194.919 297.977 200.319 297.254C205.718 296.531 210.674 292.626 212.245 287.401C215.857 289.105 220.563 288.042 223.097 284.95C225.63 281.859 225.751 277.028 223.386 273.811C221.575 271.355 218.662 269.979 215.767 269.027C216.801 265.729 215.022 261.793 211.863 260.396C208.703 259 204.617 260.338 202.878 263.328" fill="#FFE8AE"/>
<path d="M202.646 270.59C202.765 268.752 201.293 267.062 199.53 266.525C197.768 265.988 195.835 266.447 194.212 267.315C191.714 268.653 189.708 271.164 189.575 273.992C189.441 276.82 191.603 279.76 194.426 279.94C192.957 280.048 191.731 281.102 190.832 282.28C189.754 283.688 188.963 285.456 189.256 287.216C189.467 288.487 190.227 289.602 191.105 290.545C193.713 293.338 197.629 294.935 201.406 294.427C205.182 293.919 208.651 291.187 209.753 287.532C211.029 288.135 212.47 288.294 213.847 287.984C215.223 287.673 216.457 286.911 217.352 285.818C218.247 284.726 218.752 283.365 218.787 281.951C218.821 280.538 218.384 279.154 217.544 278.019C216.277 276.303 214.239 275.339 212.213 274.671C212.578 273.504 212.501 272.244 211.997 271.13C211.492 270.017 210.596 269.129 209.479 268.635C208.362 268.142 207.103 268.078 205.942 268.455C204.781 268.833 203.799 269.626 203.185 270.683" fill="#FFF1D2"/>
<path d="M203.225 276.549C203.295 275.501 202.454 274.534 201.445 274.226C200.437 273.919 199.336 274.183 198.411 274.679C196.982 275.443 195.837 276.877 195.762 278.497C195.686 280.117 196.921 281.789 198.533 281.893C197.695 281.954 196.994 282.561 196.481 283.229C195.866 284.033 195.414 285.043 195.579 286.042C195.739 286.766 196.107 287.426 196.637 287.944C197.375 288.75 198.292 289.371 199.315 289.756C200.337 290.142 201.435 290.28 202.521 290.161C204.677 289.871 206.66 288.312 207.289 286.225C208.017 286.567 208.839 286.655 209.624 286.477C210.409 286.298 211.112 285.863 211.622 285.24C212.132 284.616 212.421 283.841 212.442 283.035C212.462 282.229 212.215 281.439 211.737 280.79C211.013 279.809 209.848 279.26 208.691 278.88C208.903 278.213 208.86 277.491 208.573 276.854C208.285 276.216 207.773 275.707 207.134 275.424C206.494 275.142 205.774 275.106 205.11 275.323C204.445 275.54 203.885 275.995 203.535 276.601" fill="#FFE8AE"/>
<g opacity="0.71">
<path opacity="0.71" d="M165.631 327.431C165.764 324.171 162.298 321.625 159.046 321.738C155.794 321.851 152.916 323.895 150.641 326.229C148.191 328.74 146.193 331.658 144.737 334.851C143.986 336.491 143.386 338.416 144.128 340.062C144.647 341.223 145.74 342.002 146.858 342.585C149.713 344.058 152.976 344.538 156.133 343.949C154.272 343.949 152.655 345.511 152.212 347.326C151.768 349.14 152.374 351.079 153.414 352.627C155.278 355.405 158.536 357.098 161.863 357.391C165.19 357.684 168.561 356.671 171.399 354.903C173.917 353.332 176.149 351.024 176.827 348.133C177.505 345.241 176.216 341.781 173.459 340.684C176.068 338.869 176.149 334.706 174.198 332.201C172.248 329.695 168.892 328.662 165.718 328.633" fill="#FFF1D2"/>
</g>
<path d="M187.024 329.188C190.882 329.188 194.009 326.056 194.009 322.192C194.009 318.328 190.882 315.195 187.024 315.195C183.166 315.195 180.039 318.328 180.039 322.192C180.039 326.056 183.166 329.188 187.024 329.188Z" fill="#FFE8AE"/>
<g opacity="0.71">
<path opacity="0.71" d="M519.799 294.482C516.075 291.785 510.785 291.727 506.73 293.901C502.676 296.075 499.87 300.224 498.821 304.706C498.334 306.791 498.206 309.023 498.934 311.035C500.041 314.095 502.991 316.194 506.139 317.041C509.287 317.889 512.594 317.669 515.82 317.297C513.478 318.342 513.631 321.823 514.904 324.052C517.069 327.85 521.324 330.268 525.68 330.518C530.036 330.767 534.407 328.953 537.563 325.925C540.508 323.1 542.2 317.831 539.093 315.198C544.684 315.134 549.556 309.528 548.846 303.975C548.136 298.421 542.018 294.22 536.589 295.556C537.83 294.284 537.714 292.072 536.644 290.658C535.575 289.244 533.781 288.522 532.007 288.336C527.659 287.845 521.715 290.385 519.871 294.354" fill="#FFF1D2"/>
</g>
<g opacity="0.71">
<path opacity="0.71" d="M545.859 363.047C542.807 360.724 538.532 360.211 534.909 361.491C531.286 362.771 528.347 365.703 526.747 369.201C524.831 373.393 524.875 378.631 527.55 382.378C530.225 386.126 535.729 387.828 539.755 385.592C536.749 384.721 533.489 387.238 532.834 390.304C532.178 393.37 533.61 396.577 535.755 398.862C539.763 403.135 546.398 404.703 551.89 402.674C557.382 400.645 561.414 395.143 561.698 389.285C566.625 390.089 570.726 384.21 569.524 379.368C568.321 374.526 563.486 371.326 558.6 370.368C559.626 366.562 557.698 362.167 554.206 360.347C550.713 358.527 548.166 360.187 545.641 363.212" fill="#FFF1D2"/>
</g>
<path opacity="0.69" d="M616.126 359.594C624.509 359.594 631.304 352.788 631.304 344.391C631.304 335.994 624.509 329.188 616.126 329.188C607.743 329.188 600.947 335.994 600.947 344.391C600.947 352.788 607.743 359.594 616.126 359.594Z" fill="#FFE8AE"/>
<g opacity="0.88">
<path opacity="0.88" d="M464.902 342.144C460.415 333.502 449.404 328.874 440.1 331.722C430.797 334.57 424.255 344.577 425.365 354.259C419.714 350.99 411.349 355.04 410.398 361.517C412.375 355.58 404.416 349.268 399.095 352.561C403.347 349.948 402.347 342.464 397.802 340.405C393.258 338.347 387.446 341.567 385.954 346.328C384.461 351.089 386.768 356.523 390.719 359.574C383.794 361.084 381.444 371.329 386.188 376.604C390.933 381.879 399.953 381.62 405.445 377.132C400.99 386.939 402.677 399.666 410.662 406.895C418.647 414.123 432.675 413.966 439.483 405.629C440.413 416.057 447.911 425.608 457.815 428.97C467.719 432.331 479.466 429.318 486.538 421.604C491.465 427.161 501.589 426.609 505.884 420.551C510.179 414.492 507.356 404.735 500.496 401.91C505.806 395.947 511.029 389.168 511.652 381.202C512.275 373.236 506.145 364.327 498.189 365.044C499.25 359.865 500.319 354.575 499.705 349.324C499.09 344.072 496.493 338.762 491.847 336.26C483.538 331.757 473.623 337.711 466.084 343.416" fill="#FFE8AE"/>
</g>
<path d="M458.198 347.419C454.404 340.863 445.095 337.354 437.232 339.514C429.369 341.673 423.836 349.262 424.769 356.604C419.99 354.125 412.921 357.185 412.118 362.099C413.787 357.6 407.057 352.81 402.553 355.309C406.147 353.326 405.301 347.651 401.458 346.092C397.614 344.533 392.705 346.963 391.444 350.583C390.183 354.203 392.131 358.314 395.473 360.628C389.618 361.774 387.633 369.543 391.641 373.543C395.649 377.544 403.278 377.346 407.921 373.944C404.153 381.382 405.582 391.034 412.326 396.513C419.071 401.991 430.937 401.877 436.693 395.555C437.478 403.463 443.82 410.706 452.19 413.263C460.56 415.821 470.493 413.528 476.472 407.678C480.634 411.893 489.196 411.475 492.828 406.879C496.459 402.284 494.074 394.884 488.271 392.744C492.761 388.221 497.175 383.08 497.706 377.039C498.236 370.997 493.039 364.242 486.321 364.785C487.219 360.857 488.124 356.848 487.605 352.865C487.086 348.882 484.889 344.855 480.962 342.945C473.936 339.531 465.554 344.045 459.181 348.374" fill="#FFF1D2"/>
<path d="M460.175 362.301C457.935 358.187 452.439 355.986 447.793 357.342C443.147 358.698 439.884 363.459 440.437 368.063C437.617 366.51 433.441 368.438 432.965 371.515C433.954 368.687 429.98 365.686 427.325 367.253C429.447 366.008 428.948 362.449 426.679 361.468C424.41 360.486 421.511 362.019 420.766 364.286C420.022 366.554 421.172 369.137 423.146 370.589C419.688 371.309 418.509 376.183 420.882 378.694C423.256 381.206 427.754 381.081 430.496 378.944C428.273 383.612 429.116 389.668 433.105 393.105C437.093 396.543 444.092 396.473 447.492 392.504C447.956 397.469 451.7 402.012 456.642 403.611C461.584 405.211 467.453 403.777 470.983 400.107C473.441 402.752 478.495 402.488 480.64 399.605C482.785 396.723 481.376 392.08 477.951 390.736C480.603 387.897 483.208 384.672 483.521 380.866C483.834 377.06 480.765 372.836 476.8 373.179C477.33 370.714 477.864 368.197 477.556 365.697C477.249 363.198 475.954 360.672 473.635 359.476C469.485 357.331 464.534 360.164 460.772 362.881" fill="#FFE8AE"/>
<g opacity="0.88">
<path opacity="0.88" d="M320.98 364.68C321.188 358.973 329.44 355.881 333.732 359.632C338.025 363.383 336.845 371.308 331.935 374.22C327.025 377.132 320.075 374.992 316.98 370.19C321.15 375.788 318.072 384.79 311.74 387.708C305.407 390.625 297.416 387.998 292.947 382.642C292.709 393.4 280.194 401.895 270.128 398.132C270.319 406.842 260.027 412.938 251.521 411.127C243.014 409.315 236.696 402.055 232.592 394.379C229.983 389.513 227.975 384.026 228.76 378.563C229.546 373.099 233.911 367.859 239.417 367.688C235.334 359.286 243.73 348.783 253.04 348.351C262.349 347.918 270.688 354.76 275.357 362.848C279.183 358.816 285.197 357.426 290.718 358.137C296.239 358.848 301.323 361.4 306.079 364.294C308.056 365.496 311.227 366.448 312.166 364.329C312.386 363.83 312.395 363.267 312.545 362.744C313.348 359.969 321.148 361.795 320.988 364.68" fill="#FFE8AE"/>
</g>
<path d="M301.804 369.434C301.957 365.244 308.012 362.977 311.168 365.729C314.325 368.481 313.452 374.293 309.853 376.43C306.253 378.567 301.158 376.996 298.879 373.475C301.94 377.58 299.682 384.184 295.033 386.324C290.384 388.463 284.527 386.541 281.249 382.611C281.072 390.501 271.893 396.734 264.508 393.973C264.647 400.36 257.097 404.84 250.857 403.504C244.617 402.169 239.982 396.85 236.971 391.218C235.061 387.65 233.583 383.624 234.16 379.606C234.736 375.588 237.927 371.768 241.985 371.625C238.988 365.462 245.147 357.757 251.984 357.441C258.821 357.125 264.931 362.141 268.357 368.078C271.163 365.117 275.574 364.098 279.617 364.617C283.66 365.137 287.399 367.015 290.88 369.135C292.329 370.005 294.648 370.717 295.341 369.161C295.461 368.78 295.558 368.392 295.63 367.999C296.21 365.967 301.94 367.303 301.821 369.422" fill="#FFF1D2"/>
<path d="M285.654 373.288C285.752 370.812 289.651 369.471 291.685 371.099C293.72 372.728 293.155 376.165 290.836 377.428C288.517 378.691 285.234 377.765 283.77 375.686C285.741 378.113 284.286 382.021 281.295 383.287C278.304 384.552 274.527 383.417 272.414 381.089C272.301 385.757 266.389 389.447 261.635 387.813C261.725 391.587 256.862 394.24 252.845 393.45C248.828 392.661 245.839 389.514 243.9 386.193C242.671 384.079 241.718 381.699 242.089 379.33C242.46 376.961 244.523 374.685 247.123 374.609C245.196 370.963 249.152 366.405 253.566 366.217C257.98 366.028 261.902 368.998 264.111 372.51C265.916 370.769 268.748 370.156 271.356 370.478C273.965 370.8 276.37 371.895 278.602 373.149C279.535 373.672 281.034 374.084 281.474 373.166C281.55 372.942 281.61 372.712 281.654 372.478C282.034 371.274 285.712 372.066 285.642 373.317" fill="#FFE8AE"/>
<path d="M346.769 376.668C349.588 376.668 351.873 374.379 351.873 371.556C351.873 368.732 349.588 366.443 346.769 366.443C343.95 366.443 341.665 368.732 341.665 371.556C341.665 374.379 343.95 376.668 346.769 376.668Z" fill="#FFE8AE"/>
<path d="M521.432 457.571C521.261 454.958 523.365 452.531 525.881 451.765C528.396 450.998 531.161 451.655 533.48 452.897C537.048 454.81 539.914 458.395 540.103 462.445C540.291 466.495 537.204 470.687 533.17 470.943C535.268 471.096 537.022 472.615 538.303 474.287C539.845 476.299 540.975 478.824 540.558 481.327C540.268 483.141 539.169 484.738 537.914 486.085C534.199 490.074 528.593 492.356 523.197 491.63C517.8 490.904 512.838 487.002 511.27 481.78C507.656 483.481 502.952 482.418 500.419 479.327C497.885 476.235 497.764 471.404 500.129 468.188C501.94 465.734 504.853 464.355 507.746 463.403C506.711 460.105 508.49 456.169 511.65 454.775C514.809 453.382 518.895 454.717 520.634 457.707" fill="#FFE8AE"/>
<path d="M520.863 464.965C520.744 463.127 522.216 461.437 523.978 460.9C525.741 460.363 527.674 460.822 529.294 461.69C531.792 463.031 533.798 465.539 533.931 468.367C534.065 471.195 531.902 474.133 529.079 474.313C530.546 474.42 531.775 475.474 532.67 476.652C533.752 478.06 534.543 479.828 534.25 481.588C534.036 482.859 533.276 483.977 532.398 484.92C529.79 487.71 525.877 489.307 522.097 488.799C518.318 488.291 514.851 485.562 513.75 481.904C512.474 482.506 511.034 482.665 509.658 482.354C508.283 482.043 507.049 481.282 506.155 480.19C505.26 479.098 504.755 477.738 504.72 476.325C504.684 474.913 505.121 473.529 505.959 472.394C507.226 470.675 509.266 469.711 511.292 469.046C510.924 467.879 510.998 466.616 511.501 465.5C512.005 464.385 512.902 463.494 514.02 463C515.139 462.505 516.4 462.442 517.562 462.822C518.724 463.202 519.705 463.998 520.318 465.057" fill="#FFF1D2"/>
<path d="M520.303 470.925C520.234 469.877 521.077 468.91 522.083 468.602C523.089 468.295 524.193 468.559 525.12 469.055C526.546 469.822 527.691 471.253 527.767 472.873C527.842 474.493 526.607 476.168 524.996 476.269C525.833 476.33 526.535 476.937 527.048 477.605C527.665 478.409 528.117 479.419 527.949 480.418C527.789 481.142 527.421 481.804 526.891 482.322C526.153 483.128 525.236 483.748 524.215 484.133C523.193 484.518 522.095 484.656 521.01 484.537C518.851 484.247 516.869 482.688 516.243 480.601C515.514 480.946 514.691 481.037 513.905 480.86C513.119 480.682 512.414 480.248 511.903 479.624C511.391 479 511.102 478.223 511.082 477.416C511.062 476.609 511.311 475.818 511.791 475.169C512.515 474.188 513.681 473.636 514.837 473.256C514.626 472.589 514.668 471.867 514.956 471.23C515.243 470.592 515.756 470.083 516.395 469.8C517.034 469.518 517.755 469.482 518.419 469.699C519.083 469.916 519.644 470.371 519.993 470.977" fill="#FFE8AE"/>
<path d="M203.713 488.857C207.437 486.163 212.73 486.102 216.782 488.277C220.833 490.451 223.645 494.6 224.691 499.082C225.178 501.166 225.306 503.399 224.578 505.411C223.471 508.471 220.52 510.57 217.376 511.42C214.231 512.271 210.921 512.044 207.692 511.673C210.034 512.718 209.881 516.201 208.611 518.428C206.443 522.225 202.191 524.644 197.832 524.893C193.473 525.143 189.108 523.328 185.949 520.303C183.007 517.479 181.312 512.207 184.419 509.562C178.828 509.501 173.956 503.895 174.666 498.339C175.376 492.782 181.497 488.584 186.923 489.92C185.682 488.645 185.798 486.436 186.871 485.022C187.943 483.609 189.731 482.886 191.508 482.685C195.855 482.195 201.803 484.735 203.643 488.704" fill="#FFF1D2"/>
<path d="M558.86 373.394C567.932 373.394 575.285 366.028 575.285 356.942C575.285 347.856 567.932 340.49 558.86 340.49C549.789 340.49 542.436 347.856 542.436 356.942C542.436 366.028 549.789 373.394 558.86 373.394Z" fill="#FFF1D2"/>
<path d="M550.96 352.23L551.221 351.527C550.426 352.398 550.351 353.734 550.499 354.918C550.755 357.188 551.55 359.363 552.818 361.261C554.328 363.523 556.487 365.369 557.542 367.872C557.739 368.25 557.807 368.682 557.736 369.103C557.606 369.608 557.133 369.953 556.652 370.151C554.551 371.022 552.189 369.785 550.452 368.322C547.986 366.24 545.948 363.468 545.407 360.283C544.865 357.098 546.093 353.501 548.861 351.838C549.893 351.217 551.142 350.88 552.319 351.147" fill="white"/>
<path d="M553.362 345.317C553.629 345.152 553.938 345.069 554.252 345.077C554.566 345.086 554.87 345.187 555.127 345.366C555.636 345.739 556.028 346.25 556.255 346.838C556.545 347.506 556.733 348.316 556.365 348.949C555.945 349.672 554.95 349.866 554.142 349.654C552.983 349.364 552.003 348.264 551.997 347.041C551.991 345.819 553.087 344.678 554.293 344.774" fill="white"/>
<path d="M648 -1H41V61H648V-1Z" fill="#034A66"/>
<path d="M357.966 17.5685H349.651V52.6309H358.317C363.826 52.6309 366.682 49.7258 366.682 44.3161V41.461C366.682 37.7543 365.53 35.0997 362.574 33.9477C365.029 32.7956 366.129 30.4915 366.129 26.8853V25.6328C366.131 20.2236 363.676 17.5685 357.966 17.5685ZM357.616 36.8528C360.12 36.8528 361.171 37.8544 361.171 41.1104V44.166C361.171 46.7702 360.169 47.6222 358.315 47.6222H355.161V36.8528H357.616ZM357.816 22.5777C359.77 22.5777 360.621 23.6797 360.621 26.1839V28.1374C360.621 30.9425 359.369 31.8441 357.314 31.8441H355.161V22.5777H357.816ZM387.118 52.6293C386.567 51.3267 386.517 50.0747 386.517 48.3716V42.9619C386.517 39.3053 385.615 36.6507 382.86 35.4986C385.315 34.3466 386.467 31.9925 386.467 28.3859V25.6328C386.466 20.2236 384.012 17.5685 378.302 17.5685H369.989V52.6309H375.497V38.3554H377.398C379.903 38.3554 381.005 39.5574 381.005 42.8131V48.3232C381.005 51.1784 381.206 51.7294 381.506 52.6309L387.118 52.6293ZM378.152 22.5777C380.106 22.5777 380.957 23.6797 380.957 26.1839V29.64C380.957 32.4451 379.705 33.3466 377.65 33.3466H375.497V22.5777H378.152ZM390.123 52.6293H395.633V17.5685H390.123V52.6293ZM399.64 52.6293H414.216V47.6218H405.15V17.5685H399.64V52.6293ZM416.62 52.6293H431.196V47.6218H422.13V17.5685H416.62V52.6293ZM438.659 25.6316C438.659 23.127 439.761 22.1755 441.514 22.1755C443.267 22.1755 444.369 23.1262 444.369 25.6316V44.5637C444.369 47.0683 443.267 48.0198 441.514 48.0198C439.761 48.0198 438.659 47.0691 438.659 44.5637V25.6316ZM433.151 44.2161C433.151 49.8238 436.104 53.0315 441.514 53.0315C446.924 53.0315 449.879 49.8238 449.879 44.2161V25.9834C449.879 20.3736 446.923 17.168 441.514 17.168C436.105 17.168 433.151 20.3736 433.151 25.9834V44.2161Z" fill="white"/>
<path d="M267 17.6611V52.7235H270.907V38.8989H274.363C279.923 38.8989 282.528 35.9938 282.528 30.434V26.2264C282.528 20.9172 280.174 17.6611 274.664 17.6611H267ZM270.907 35.3944V21.2177H274.664C277.519 21.2177 278.671 22.8207 278.671 26.0263V30.6841C278.671 34.0402 277.268 35.3923 274.363 35.3923L270.907 35.3944ZM289.44 17.6611H285.583V44.2582C285.583 49.5674 288.037 53.124 293.396 53.124C298.805 53.124 301.26 49.5691 301.26 44.2582V17.6611H297.604V44.4587C297.604 47.6143 296.352 49.5178 293.547 49.5178C290.692 49.5178 289.44 47.6164 289.44 44.4587V17.6611ZM305.118 17.6611V52.7235H309.025V37.7469H311.78C315.035 37.7469 316.889 38.9989 316.889 42.9553V48.4658C316.889 50.822 317.089 51.7215 317.54 52.7235H321.497C320.846 51.5214 320.794 50.0688 320.794 48.5158V43.0561C320.794 39.2995 319.592 36.6949 316.387 35.7433C319.392 34.7926 320.744 32.3872 320.744 28.5305V25.6754C320.744 20.467 318.44 17.6611 312.932 17.6611H305.118ZM309.025 34.1903V21.2177H312.831C315.736 21.2177 316.889 22.8711 316.889 26.0263V29.3808C316.889 33.1875 315.035 34.1895 311.928 34.1895L309.025 34.1903ZM324.552 44.2582C324.552 49.5674 327.207 53.0736 332.567 53.0736C337.976 53.0736 340.631 49.5674 340.631 44.2582V26.1264C340.631 20.7667 337.975 17.3105 332.566 17.3105C327.207 17.3105 324.552 20.7667 324.552 26.1264L324.552 44.2582ZM328.409 25.9259C328.409 22.7703 329.762 20.8667 332.566 20.8667C335.421 20.8667 336.723 22.7682 336.723 25.9259V44.4587C336.723 47.6643 335.421 49.5178 332.566 49.5178C329.761 49.5178 328.409 47.6647 328.409 44.4591V25.9259Z" fill="white"/>
<g opacity="0.88">
<path opacity="0.88" d="M394.536 170.305C394.324 164.595 386.073 161.506 381.783 165.257C377.494 169.008 378.668 176.933 383.577 179.842C388.487 182.751 395.44 180.614 398.533 175.815C394.362 181.41 397.44 190.415 403.776 193.33C410.112 196.244 418.096 193.62 422.566 188.267C422.806 199.008 435.318 207.52 445.384 203.758C445.196 212.467 455.488 218.563 463.992 216.749C472.495 214.934 478.817 207.68 482.924 200.001C485.532 195.135 487.541 189.649 486.752 184.188C485.964 178.727 481.582 173.475 476.075 173.31C480.159 164.909 471.762 154.405 462.453 153.973C453.143 153.54 444.805 160.383 440.135 168.488C436.31 164.456 430.296 163.065 424.789 163.773C419.282 164.482 414.181 167.039 409.428 169.931C407.451 171.136 404.28 172.085 403.341 169.969C403.121 169.469 403.112 168.906 402.961 168.383C402.159 165.605 394.362 167.434 394.521 170.32" fill="#FFE8AE"/>
</g>
<path d="M413.708 175.066C413.554 170.877 407.5 168.61 404.343 171.362C401.187 174.114 402.06 179.929 405.662 182.063C409.265 184.197 414.357 182.643 416.632 179.107C413.572 183.212 415.83 189.82 420.479 191.959C425.127 194.099 430.985 192.177 434.263 188.243C434.44 196.134 443.622 202.367 451.004 199.609C450.865 205.996 458.415 210.472 464.655 209.14C470.895 207.807 475.532 202.486 478.544 196.854C480.451 193.283 481.929 189.26 481.352 185.242C480.776 181.224 477.584 177.403 473.527 177.264C476.521 171.101 470.362 163.393 463.525 163.077C456.687 162.76 450.578 167.78 447.152 173.714C444.346 170.755 439.935 169.736 435.895 170.256C431.855 170.776 428.113 172.651 424.632 174.773C423.183 175.644 420.864 176.355 420.171 174.799C420.048 174.419 419.951 174.031 419.882 173.638C419.302 171.606 413.572 172.941 413.688 175.058" fill="#FFF1D2"/>
<path d="M429.857 178.913C429.759 176.437 425.86 175.096 423.826 176.721C421.791 178.347 422.356 181.79 424.675 183.053C426.994 184.316 430.28 183.387 431.741 181.311C429.77 183.738 431.225 187.646 434.219 188.911C437.213 190.177 440.984 189.039 443.097 186.714C443.21 191.382 449.122 195.069 453.876 193.437C453.789 197.211 458.649 199.865 462.669 199.075C466.689 198.285 469.675 195.139 471.614 191.817C472.842 189.707 473.793 187.326 473.422 184.955C473.051 182.583 470.99 180.31 468.388 180.234C470.315 176.588 466.359 172.03 461.948 171.844C457.536 171.658 453.609 174.625 451.403 178.135C449.595 176.393 446.766 175.781 444.158 176.103C441.549 176.425 439.146 177.52 436.912 178.774C435.978 179.296 434.48 179.709 434.039 178.774C433.963 178.55 433.903 178.321 433.86 178.089C433.48 176.881 429.802 177.677 429.872 178.928" fill="#FFE8AE"/>
</g>
<defs>
<radialGradient id="paint0_radial" cx="0" cy="0" r="1" gradientUnits="userSpaceOnUse" gradientTransform="translate(79.0176 419.137) rotate(33.102) scale(43.9549 86.0717)">
<stop stop-color="#004A66"/>
<stop offset="1" stop-color="#097FAA"/>
<stop offset="1" stop-color="#097FAA"/>
</radialGradient>
<linearGradient id="paint1_linear" x1="97.6797" y1="51.2976" x2="252.296" y2="547.382" gradientUnits="userSpaceOnUse">
<stop stop-color="#FFC850"/>
<stop offset="1" stop-color="white"/>
</linearGradient>
<linearGradient id="paint2_linear" x1="91.0463" y1="100.387" x2="91.4079" y2="124.005" gradientUnits="userSpaceOnUse">
<stop stop-color="#FFC850"/>
<stop offset="1" stop-color="white"/>
</linearGradient>
<radialGradient id="paint3_radial" cx="0" cy="0" r="1" gradientUnits="userSpaceOnUse" gradientTransform="translate(72.6846 87.2334) rotate(33.102) scale(43.9549 86.0716)">
<stop stop-color="#004A66"/>
<stop offset="1" stop-color="#097FAA"/>
<stop offset="1" stop-color="#097FAA"/>
</radialGradient>
<radialGradient id="paint4_radial" cx="0" cy="0" r="1" gradientUnits="userSpaceOnUse" gradientTransform="translate(62.1348 64.2764) rotate(10.4509) scale(58.9193 44.9864)">
<stop stop-color="#004A66"/>
<stop offset="1" stop-color="#097FAA"/>
<stop offset="1" stop-color="#097FAA"/>
</radialGradient>
<radialGradient id="paint5_radial" cx="0" cy="0" r="1" gradientUnits="userSpaceOnUse" gradientTransform="translate(576.726 416.997) rotate(33.102) scale(43.9548 86.0715)">
<stop stop-color="#004A66"/>
<stop offset="1" stop-color="#097FAA"/>
<stop offset="1" stop-color="#097FAA"/>
</radialGradient>
<linearGradient id="paint6_linear" x1="593.603" y1="49.1656" x2="748.196" y2="545.216" gradientUnits="userSpaceOnUse">
<stop stop-color="#FFC850"/>
<stop offset="1" stop-color="white"/>
</linearGradient>
<linearGradient id="paint7_linear" x1="600.227" y1="98.2366" x2="600.589" y2="121.855" gradientUnits="userSpaceOnUse">
<stop stop-color="#FFC850"/>
<stop offset="1" stop-color="white"/>
</linearGradient>
<radialGradient id="paint8_radial" cx="0" cy="0" r="1" gradientUnits="userSpaceOnUse" gradientTransform="translate(583.067 85.083) rotate(33.1021) scale(43.9548 86.0716)">
<stop stop-color="#004A66"/>
<stop offset="1" stop-color="#097FAA"/>
<stop offset="1" stop-color="#097FAA"/>
</radialGradient>
<radialGradient id="paint9_radial" cx="0" cy="0" r="1" gradientUnits="userSpaceOnUse" gradientTransform="translate(573.279 62.125) rotate(10.4509) scale(58.9193 44.9864)">
<stop stop-color="#004A66"/>
<stop offset="1" stop-color="#097FAA"/>
<stop offset="1" stop-color="#097FAA"/>
</radialGradient>
</defs>
</svg>
