<svg width="205" height="205" viewBox="0 0 205 205" fill="none" xmlns="http://www.w3.org/2000/svg">
<path d="M205 102.5C205 45.8908 159.109 0 102.5 0C45.8908 0 0 45.8908 0 102.5C0 159.109 45.8908 205 102.5 205C159.109 205 205 159.109 205 102.5Z" fill="#40CCED"/>
<path d="M179.567 55.7592C179.567 55.7592 176.152 38.8662 179.567 22.7832C179.567 22.7832 182.982 40.6852 179.567 55.7592Z" fill="white"/>
<path d="M167.231 39.2702C167.231 39.2702 179.868 35.8542 191.9 39.2702C191.901 39.2702 178.508 42.6872 167.231 39.2702Z" fill="white"/>
<path d="M117.466 37.1887C117.466 37.1887 114.483 22.4347 117.466 8.38867C117.466 8.38167 120.45 24.0177 117.466 37.1887Z" fill="white"/>
<path d="M106.693 22.7833C106.693 22.7833 117.731 19.7993 128.239 22.7833C128.239 22.7833 116.542 25.7653 106.693 22.7833Z" fill="white"/>
<path d="M85.0728 172.269C85.0728 172.269 82.0898 157.515 85.0728 143.469C85.0728 143.466 88.0568 159.102 85.0728 172.269Z" fill="white"/>
<path d="M74.2998 157.867C74.2998 157.867 85.3378 154.883 95.8458 157.867C95.8458 157.867 84.1488 160.85 74.2998 157.867Z" fill="white"/>
<path d="M23.4156 135.517C23.4156 135.517 20.4326 120.763 23.4156 106.717C23.4156 106.715 26.3996 122.351 23.4156 135.517Z" fill="white"/>
<path d="M12.6426 121.117C12.6426 121.117 23.6806 118.133 34.1886 121.117C34.1886 121.117 22.4916 124.099 12.6426 121.117Z" fill="white"/>
<path d="M58.0127 90.0563C78.2647 89.8785 94.5381 73.3168 94.3603 53.0648C94.1825 32.8127 77.6209 16.5393 57.3688 16.7171C37.1168 16.8949 20.8434 33.4566 21.0211 53.7086C21.1989 73.9607 37.7606 90.2341 58.0127 90.0563Z" fill="#DBDBDB"/>
<path d="M82.4888 26.3723C77.1457 21.4672 70.4681 18.2567 63.3004 17.1468C56.1327 16.0369 48.7968 17.0774 42.2205 20.1367C35.6441 23.1961 30.1227 28.1368 26.3544 34.3342C22.5861 40.5316 20.7402 47.7073 21.0501 54.9539C21.36 62.2004 23.8119 69.1923 28.0956 75.0453C32.3793 80.8983 38.3024 85.3496 45.1159 87.8363C51.9295 90.323 59.3274 90.7333 66.3742 89.0154C73.421 87.2976 79.8 83.5287 84.7048 78.1853C87.9615 74.6378 90.4875 70.4835 92.1386 65.9597C93.7898 61.4359 94.5337 56.6311 94.3279 51.8198C94.1222 47.0085 92.9707 42.2848 90.9394 37.9185C88.908 33.5522 86.0365 29.6288 82.4888 26.3723ZM36.1108 76.8953C31.4612 72.6273 28.1816 67.0764 26.6867 60.9446C25.1919 54.8127 25.5489 48.3753 27.7127 42.4464C29.8765 36.5174 33.7498 31.3633 38.8429 27.6357C43.936 23.9081 50.02 21.7745 56.3257 21.5048C62.6314 21.235 68.8755 22.8411 74.2683 26.1201C79.6612 29.399 83.9606 34.2035 86.6228 39.926C89.2851 45.6484 90.1907 52.0318 89.225 58.269C88.2594 64.5061 85.4659 70.3168 81.1978 74.9663C78.364 78.0535 74.9499 80.5522 71.1505 82.3199C67.351 84.0877 63.2405 85.0897 59.0538 85.2688C54.8671 85.4479 50.686 84.8006 46.7495 83.3639C42.8129 81.9272 39.1979 79.7291 36.1108 76.8953Z" fill="#C0C2C4"/>
<path d="M57.6913 70.6306C67.2154 70.6306 74.9363 62.9098 74.9363 53.3856C74.9363 43.8615 67.2154 36.1406 57.6913 36.1406C48.1671 36.1406 40.4463 43.8615 40.4463 53.3856C40.4463 62.9098 48.1671 70.6306 57.6913 70.6306Z" fill="#3E586D"/>
<path d="M68.604 62.1199C73.4244 56.0963 72.449 47.3055 66.4254 42.4851C60.4018 37.6647 51.611 38.6401 46.7906 44.6636C41.9702 50.6872 42.9456 59.478 48.9692 64.2984C54.9927 69.1188 63.7835 68.1435 68.604 62.1199Z" fill="#2C3E50"/>
<path d="M97.5224 56.3083C97.5224 56.3083 87.3994 58.3883 83.9694 58.5513C80.5914 58.7133 70.4694 57.6243 70.4694 57.6243L70.1514 51.0723C70.1514 51.0723 80.3964 49.1343 83.8604 48.9723C87.1984 48.8173 97.2034 49.7583 97.2034 49.7583L97.5224 56.3083Z" fill="#2C3E50"/>
<path d="M102.365 52.7349C102.549 56.7029 101.221 59.9898 99.4 60.0738C97.579 60.1578 95.952 57.0089 95.768 53.0399C95.584 49.0709 96.912 45.7849 98.733 45.7009C100.554 45.6169 102.183 48.7659 102.365 52.7349Z" fill="#2C3E50"/>
<path d="M65.39 147.982C65.3957 148.466 65.306 148.947 65.126 149.396C64.946 149.845 64.6794 150.255 64.3412 150.601C64.003 150.947 63.5999 151.223 63.1549 151.414C62.71 151.604 62.2319 151.705 61.748 151.71L58.063 151.754C57.0856 151.766 56.1436 151.389 55.4443 150.706C54.745 150.023 54.3456 149.09 54.334 148.112L65.39 147.982Z" fill="#1B2533"/>
<path d="M57.3467 150.815L58.7297 164.108C58.7548 164.349 58.869 164.572 59.0499 164.733C59.2308 164.894 59.4653 164.982 59.7077 164.98L60.8477 164.968C61.0945 164.965 61.3309 164.868 61.509 164.697C61.6871 164.527 61.7935 164.294 61.8067 164.048L62.5257 150.754L57.3467 150.815Z" fill="#1B2533"/>
<path d="M63.649 64.6073L53.708 64.7266L53.8383 75.5826L63.7793 75.4633L63.649 64.6073Z" fill="#2C3E50"/>
<path d="M70.2013 142.282C69.8505 143.99 68.9264 145.526 67.5822 146.637C66.2381 147.748 64.5547 148.365 62.8113 148.388L56.6833 148.46C54.9283 148.481 53.2195 147.897 51.8446 146.806C50.4698 145.715 49.513 144.184 49.1353 142.47C44.3633 120.97 42.7413 100.964 42.4823 80.6337C42.4649 79.3067 42.7091 77.9892 43.2012 76.7566C43.6932 75.524 44.4233 74.4005 45.3498 73.4503C46.2763 72.5 47.3809 71.7417 48.6007 71.2186C49.8204 70.6955 51.1313 70.4179 52.4583 70.4018L65.0233 70.2528C66.3557 70.2359 67.6783 70.4828 68.9148 70.9793C70.1513 71.4758 71.2774 72.212 72.2281 73.1456C73.1789 74.0793 73.9354 75.1918 74.4543 76.4191C74.9732 77.6464 75.244 78.9643 75.2513 80.2968C75.4033 104.935 74.1843 122.931 70.2013 142.282Z" fill="#2C3E50"/>
<path d="M65.0273 70.2518L52.4623 70.4008C51.1348 70.4163 49.8235 70.6934 48.6031 71.2162C47.3828 71.7389 46.2776 72.4972 45.3506 73.4475C44.4236 74.3979 43.693 75.5216 43.2007 76.7545C42.7083 77.9875 42.4639 79.3053 42.4813 80.6328C42.5233 83.9468 42.6057 87.2541 42.7283 90.5548L75.2283 90.1678C75.2633 86.9858 75.2713 83.7088 75.2503 80.2928C75.2428 78.9608 74.9719 77.6435 74.4531 76.4167C73.9344 75.1898 73.1781 74.0777 72.2279 73.1444C71.2776 72.211 70.1521 71.4749 68.9161 70.9782C67.6802 70.4816 66.3582 70.2344 65.0263 70.2508L65.0273 70.2518Z" fill="#3E586D"/>
<path d="M53.6504 124.539L48.9883 125.107L49.2517 127.269L53.9138 126.701L53.6504 124.539Z" fill="#1B2533"/>
<path d="M54.1328 128.5L49.4707 129.068L49.7341 131.23L54.3963 130.662L54.1328 128.5Z" fill="#1B2533"/>
<path d="M54.6153 132.463L49.9531 133.031L50.2165 135.193L54.8787 134.625L54.6153 132.463Z" fill="#1B2533"/>
<path d="M66.3242 61.312C64.7566 63.0196 62.7178 64.224 60.4657 64.7728C58.2136 65.3217 55.8493 65.1903 53.6718 64.3954C51.4943 63.6006 49.6014 62.1778 48.2326 60.3072C46.8637 58.4365 46.0803 56.2019 45.9814 53.886C45.8825 51.5701 46.4726 49.2769 47.677 47.2963C48.8815 45.3158 50.6462 43.7369 52.748 42.7593C54.8498 41.7817 57.1943 41.4493 59.485 41.8042C61.7757 42.1591 63.9097 43.1853 65.6172 44.753C66.751 45.7939 67.6686 47.0478 68.3178 48.4433C68.9669 49.8388 69.3348 51.3484 69.4005 52.8861C69.4661 54.4238 69.2282 55.9593 68.7004 57.405C68.1726 58.8507 67.3651 60.1783 66.3242 61.312Z" fill="#1B2533"/>
<path d="M171.646 188.034H73.2133C69.5124 188.024 65.9643 186.556 63.3384 183.948C60.7125 181.34 59.2203 177.802 59.1853 174.102L59.1133 164.989L60.9783 164.977L61.0433 174.087C61.0733 177.295 62.367 180.363 64.6439 182.625C66.9207 184.886 69.9973 186.158 73.2063 186.167H171.643L171.646 188.034Z" fill="#1B2533"/>
<path d="M170.634 86.7793H113.612V165.043C113.613 166.644 114.249 168.179 115.381 169.311C116.513 170.443 118.048 171.079 119.649 171.079H164.596C166.197 171.079 167.733 170.443 168.865 169.311C169.997 168.179 170.633 166.644 170.633 165.043L170.634 86.7793Z" fill="#F1C40F"/>
<path d="M151.246 69.252H132.999L113.612 86.78C130.296 91.743 148.926 90.98 170.634 86.78L151.246 69.252Z" fill="#F1C40F"/>
<path d="M150.412 67.5098H134.098V69.2518H150.412V67.5098Z" fill="#F39C12"/>
<path d="M151.283 47.6309H133.068V67.5089H151.283V47.6309Z" fill="white"/>
<path d="M164.298 109.676C164.298 109.676 163.818 95.793 142.255 95.793C120.692 95.793 119.948 109.675 119.948 109.675V156.364H164.298V109.676Z" fill="#F39C12"/>
<path d="M117.415 103.301H112.346V105.124H117.415V103.301Z" fill="#F39C12"/>
<path d="M117.415 111.453H112.346V113.276H117.415V111.453Z" fill="#F39C12"/>
<path d="M117.415 119.605H112.346V121.428H117.415V119.605Z" fill="#F39C12"/>
<path d="M117.415 127.758H112.346V129.581H117.415V127.758Z" fill="#F39C12"/>
<path d="M117.415 135.912H112.346V137.735H117.415V135.912Z" fill="#F39C12"/>
<path d="M117.415 144.064H112.346V145.887H117.415V144.064Z" fill="#F39C12"/>
<path d="M172.323 103.301H167.255V105.124H172.323V103.301Z" fill="#F39C12"/>
<path d="M172.323 111.453H167.255V113.276H172.323V111.453Z" fill="#F39C12"/>
<path d="M172.323 119.605H167.255V121.428H172.323V119.605Z" fill="#F39C12"/>
<path d="M172.323 127.758H167.255V129.581H172.323V127.758Z" fill="#F39C12"/>
<path d="M172.323 135.912H167.255V137.735H172.323V135.912Z" fill="#F39C12"/>
<path d="M172.323 144.064H167.255V145.887H172.323V144.064Z" fill="#F39C12"/>
<path d="M145.925 47.6309H143.707V67.5089H145.925V47.6309Z" fill="#C0C2C4"/>
<path d="M142.124 47.6309H141.015V67.5089H142.124V47.6309Z" fill="#C0C2C4"/>
<path d="M149.831 47.6309H147.613V67.5089H149.831V47.6309Z" fill="#C0C2C4"/>
<path d="M129.227 127.811L130.01 128.711L130.451 127.811L129.488 127.43L129.227 127.811Z" fill="white"/>
<path d="M126.027 127.829C126.074 127.35 128.062 125.581 129.046 125.862C130.03 126.143 129.84 128.097 129.037 128.268C128.234 128.439 125.979 128.309 126.027 127.829Z" fill="white"/>
<path d="M155.433 127.811L154.65 128.711L154.208 127.811L155.171 127.43L155.433 127.811Z" fill="white"/>
<path d="M158.634 127.829C158.587 127.35 156.599 125.581 155.615 125.862C154.631 126.143 154.815 128.097 155.623 128.268C156.431 128.439 158.681 128.309 158.634 127.829Z" fill="white"/>
<path d="M129.668 128.857L133.609 120.51C133.907 119.877 134.378 119.343 134.968 118.969C135.558 118.595 136.242 118.396 136.941 118.396H148.062C148.786 118.397 149.493 118.61 150.097 119.009C150.7 119.409 151.172 119.977 151.455 120.643L154.934 128.857C145.291 129.818 139.587 129.506 129.668 128.857Z" fill="white"/>
<path d="M157.631 130.963C157.479 130.645 142.285 131.476 142.285 131.476C142.285 131.476 127.079 131.048 126.93 131.237C126.559 131.646 126.469 137.829 128.753 138.444C131.121 139.086 132.853 139.608 142.301 139.689C151.748 139.608 153.482 139.089 155.85 138.444C158.218 137.799 157.782 131.282 157.631 130.963Z" fill="white"/>
<path d="M131.297 128.212L134.729 120.958C134.989 120.409 135.399 119.945 135.913 119.619C136.426 119.294 137.021 119.121 137.629 119.121H147.321C147.951 119.121 148.567 119.307 149.093 119.654C149.618 120.002 150.03 120.497 150.276 121.077L153.306 128.215C145.98 127.669 138.623 127.668 131.297 128.212Z" fill="#F39C12"/>
<path d="M126.931 131.24L129.669 128.857H154.935L157.635 130.965C158.673 132.865 125.902 133.204 126.931 131.24Z" fill="white"/>
<path d="M128.797 138.455C128.797 138.455 129.355 144.518 131.383 144.518C133.411 144.518 133.183 138.682 133.183 138.682L128.797 138.455Z" fill="white"/>
<path d="M155.435 138.455C155.435 138.455 154.878 144.518 152.85 144.518C150.822 144.518 151.05 138.682 151.05 138.682L155.435 138.455Z" fill="white"/>
<path d="M147.525 136.082H137.164V138.736H147.525V136.082Z" fill="white"/>
<path d="M147.262 136.361H137.427V138.675H147.262V136.361Z" fill="#F39C12"/>
<path d="M127.372 136.93C126.798 137.507 127.388 139.271 128.328 139.53C134.685 141.253 149.913 141.256 156.276 139.53C157.216 139.275 158.002 137.511 157.231 136.93C154.816 138.755 129.799 138.762 127.372 136.93Z" fill="white"/>
<path d="M141.472 132.169C142.145 132.229 142.145 135.026 141.472 135.24C140.428 135.571 136.363 134.277 135.914 133.692C135.667 133.37 135.64 132.598 136.001 132.373C137.816 132.157 139.645 132.089 141.472 132.169Z" fill="#F39C12"/>
<g style="mix-blend-mode:multiply" opacity="0.3">
<g style="mix-blend-mode:multiply" opacity="0.3">
<path d="M141.726 132.371H136.01H136C135.931 132.421 135.874 132.485 135.831 132.559C135.788 132.632 135.76 132.714 135.75 132.798H141.888C141.856 132.648 141.801 132.504 141.726 132.371Z" fill="#F39C12"/>
</g>
<g style="mix-blend-mode:multiply" opacity="0.3">
<path d="M141.946 133.139H135.734C135.743 133.288 135.779 133.434 135.84 133.571H141.973C141.97 133.422 141.962 133.277 141.946 133.139Z" fill="#F39C12"/>
</g>
<g style="mix-blend-mode:multiply" opacity="0.3">
<path d="M141.855 134.672H138.021C138.539 134.84 139.091 134.99 139.607 135.103H141.65C141.746 134.974 141.816 134.828 141.855 134.672Z" fill="#F39C12"/>
</g>
<g style="mix-blend-mode:multiply" opacity="0.3">
<path d="M141.969 133.904H136.181C136.47 134.072 136.773 134.217 137.086 134.335H141.921C141.944 134.193 141.96 134.049 141.969 133.904Z" fill="#F39C12"/>
</g>
</g>
<path d="M143.219 132.169C142.546 132.229 142.546 135.026 143.219 135.24C144.263 135.571 148.328 134.277 148.777 133.692C149.024 133.37 149.051 132.598 148.69 132.373C146.875 132.157 145.045 132.089 143.219 132.169Z" fill="#F39C12"/>
<g style="mix-blend-mode:multiply" opacity="0.3">
<g style="mix-blend-mode:multiply" opacity="0.3">
<path d="M142.963 132.371H148.68H148.69C148.758 132.422 148.816 132.485 148.859 132.559C148.902 132.632 148.929 132.714 148.94 132.798H142.801C142.832 132.648 142.887 132.504 142.963 132.371Z" fill="#F39C12"/>
</g>
<g style="mix-blend-mode:multiply" opacity="0.3">
<path d="M142.743 133.139H148.955C148.946 133.288 148.91 133.434 148.849 133.571H142.716C142.718 133.422 142.727 133.277 142.743 133.139Z" fill="#F39C12"/>
</g>
<g style="mix-blend-mode:multiply" opacity="0.3">
<path d="M142.838 134.672H146.672C146.154 134.84 145.602 134.99 145.086 135.103H143.041C142.946 134.974 142.877 134.827 142.838 134.672Z" fill="#F39C12"/>
</g>
<g style="mix-blend-mode:multiply" opacity="0.3">
<path d="M142.721 133.904H148.507C148.219 134.072 147.918 134.217 147.607 134.335H142.772C142.747 134.193 142.73 134.049 142.721 133.904Z" fill="#F39C12"/>
</g>
</g>
<path d="M135.729 137.046C136.107 137.046 136.413 136.739 136.413 136.362C136.413 135.984 136.107 135.678 135.729 135.678C135.351 135.678 135.045 135.984 135.045 136.362C135.045 136.739 135.351 137.046 135.729 137.046Z" fill="#F39C12"/>
<path d="M148.961 137.046C149.339 137.046 149.645 136.739 149.645 136.362C149.645 135.984 149.339 135.678 148.961 135.678C148.584 135.678 148.277 135.984 148.277 136.362C148.277 136.739 148.584 137.046 148.961 137.046Z" fill="#F39C12"/>
<path d="M133.832 134.854C133.833 134.809 133.827 134.764 133.816 134.721C133.808 134.693 133.801 134.668 133.791 134.639C133.767 134.583 133.74 134.529 133.71 134.477C133.694 134.451 133.684 134.426 133.665 134.399V134.39H133.66C132.852 133.174 129.553 131.135 128.136 132.398C127.384 133.068 128.417 134.63 129.169 135.067C129.491 135.209 129.834 135.299 130.185 135.333H130.191C130.348 135.357 130.516 135.377 130.691 135.393C130.763 135.401 130.836 135.404 130.91 135.409C131.051 135.42 131.191 135.429 131.334 135.434C131.417 135.434 131.497 135.44 131.579 135.442C131.741 135.442 131.899 135.442 132.056 135.442C132.109 135.442 132.163 135.442 132.215 135.442C132.415 135.432 132.615 135.415 132.794 135.39C132.841 135.384 132.882 135.375 132.928 135.368C133.054 135.348 133.179 135.32 133.302 135.285C133.344 135.273 133.387 135.26 133.425 135.247C133.544 135.21 133.655 135.152 133.753 135.074C133.796 135.035 133.824 134.982 133.834 134.925C133.836 134.901 133.835 134.878 133.832 134.854Z" fill="#F39C12"/>
<path d="M156.408 132.394C154.991 131.131 151.692 133.17 150.884 134.386H150.879V134.395C150.86 134.422 150.85 134.447 150.834 134.473C150.803 134.525 150.776 134.579 150.753 134.635C150.743 134.663 150.736 134.689 150.728 134.717C150.717 134.76 150.711 134.805 150.712 134.85C150.71 134.87 150.71 134.891 150.712 134.911C150.722 134.969 150.75 135.021 150.793 135.06C150.891 135.138 151.002 135.197 151.121 135.233C151.16 135.246 151.202 135.259 151.244 135.271C151.367 135.306 151.492 135.334 151.618 135.354C151.664 135.361 151.705 135.37 151.752 135.376C151.934 135.401 152.127 135.418 152.331 135.428C152.383 135.428 152.437 135.428 152.49 135.428C152.647 135.433 152.806 135.434 152.967 135.428C153.049 135.428 153.129 135.428 153.211 135.42C153.355 135.415 153.496 135.406 153.635 135.395C153.71 135.395 153.783 135.387 153.854 135.379C154.028 135.363 154.196 135.343 154.354 135.319H154.36C154.711 135.285 155.054 135.195 155.376 135.053C156.126 134.626 157.161 133.064 156.408 132.394Z" fill="#F39C12"/>
<path d="M145.87 129.465C144.989 125.25 144.989 120.898 145.87 116.684C145.87 116.684 147.398 123.622 145.87 129.465Z" fill="white"/>
<path d="M140.352 123.074C143.99 122.311 147.748 122.311 151.387 123.074C151.387 123.074 145.396 124.397 140.352 123.074Z" fill="white"/>
<path d="M154.934 119.644C154.391 117.042 154.391 114.356 154.934 111.754C155.468 114.357 155.468 117.041 154.934 119.644Z" fill="white"/>
<path d="M151.529 115.699C153.776 115.228 156.095 115.228 158.341 115.699C156.094 116.161 153.776 116.161 151.529 115.699Z" fill="white"/>
<g style="mix-blend-mode:multiply" opacity="0.3">
<path d="M160.75 147.496H124.806V152.881H160.75V147.496Z" fill="#F39C12"/>
</g>
<g style="mix-blend-mode:multiply" opacity="0.3">
<path d="M154.367 100.629H131.188V104.102H154.367V100.629Z" fill="#F39C12"/>
</g>
<g style="mix-blend-mode:multiply" opacity="0.3">
<path d="M132.092 110.965C132.092 111.686 131.878 112.39 131.478 112.989C131.077 113.588 130.508 114.055 129.843 114.331C129.177 114.607 128.445 114.679 127.738 114.538C127.031 114.398 126.382 114.051 125.873 113.541C125.363 113.032 125.016 112.383 124.876 111.676C124.735 110.969 124.807 110.237 125.083 109.571C125.359 108.905 125.826 108.337 126.425 107.936C127.024 107.536 127.728 107.322 128.449 107.322C129.415 107.322 130.341 107.706 131.025 108.389C131.708 109.072 132.092 109.999 132.092 110.965Z" fill="#F39C12"/>
</g>
<g style="mix-blend-mode:multiply" opacity="0.3">
<path d="M141.662 110.965C141.662 111.686 141.449 112.391 141.048 112.99C140.648 113.589 140.079 114.057 139.413 114.333C138.747 114.609 138.015 114.681 137.308 114.54C136.601 114.4 135.951 114.053 135.442 113.543C134.932 113.034 134.585 112.384 134.444 111.678C134.303 110.971 134.376 110.238 134.651 109.572C134.927 108.906 135.394 108.337 135.993 107.936C136.593 107.536 137.297 107.322 138.018 107.322C138.984 107.322 139.911 107.706 140.594 108.389C141.278 109.072 141.662 109.999 141.662 110.965Z" fill="#F39C12"/>
</g>
<path d="M113.612 86.78H147.261L143.978 69.252H132.999L113.612 86.78Z" fill="#FFEA92"/>
</svg>
