<svg width="40" height="40" viewBox="0 0 40 40" fill="none" xmlns="http://www.w3.org/2000/svg">
<path d="M20.0975 0H19.9025C8.91067 0 0 8.91067 0 19.9025V20.0975C0 31.0893 8.91067 40 19.9025 40H20.0975C31.0893 40 40 31.0893 40 20.0975V19.9025C40 8.91067 31.0893 0 20.0975 0Z" fill="#40CCED"/>
<path d="M35.0873 10.8838C35.0873 10.8838 34.4207 7.58621 35.0873 4.44727C35.0873 4.44727 35.7538 7.94153 35.0873 10.8838Z" fill="white"/>
<path d="M32.6797 7.66547C32.6797 7.66547 35.1462 6.99873 37.4949 7.66547C37.4949 7.66547 34.8807 8.3322 32.6797 7.66547Z" fill="white"/>
<path d="M22.9658 7.2586C22.9658 7.2586 22.3836 4.37878 22.9658 1.63672C22.9658 1.63672 23.5482 4.68864 22.9658 7.2586Z" fill="white"/>
<path d="M20.8633 4.44832C20.8633 4.44832 23.0178 3.86587 25.069 4.44832C25.069 4.44832 22.7858 5.03037 20.8633 4.44832Z" fill="white"/>
<path d="M16.6426 33.6258C16.6426 33.6258 16.0603 30.746 16.6426 28.0039C16.6426 28.0039 17.225 31.0558 16.6426 33.6258Z" fill="white"/>
<path d="M14.54 30.8155C14.54 30.8155 16.6946 30.2331 18.7457 30.8155C18.7457 30.8155 16.4626 31.3978 14.54 30.8155Z" fill="white"/>
<path d="M4.60839 26.4539C4.60839 26.4539 4.02614 23.5741 4.60839 20.832C4.60839 20.8313 5.19083 23.8832 4.60839 26.4539Z" fill="white"/>
<path d="M2.50586 23.6417C2.50586 23.6417 4.66041 23.0592 6.71154 23.6417C6.71154 23.6417 4.42841 24.2239 2.50586 23.6417Z" fill="white"/>
<path d="M19.8202 18.5782C23.7731 18.5435 26.9495 15.3108 26.9148 11.3579C26.8801 7.40498 23.6475 4.22863 19.6945 4.26334C15.7416 4.29804 12.5652 7.53066 12.5999 11.4836C12.6346 15.4365 15.8673 18.6129 19.8202 18.5782Z" fill="#DBDBDB"/>
<path d="M24.5981 6.14866C23.5553 5.19127 22.2519 4.56462 20.8529 4.34798C19.4538 4.13134 18.022 4.33443 16.7384 4.93156C15.4547 5.5287 14.377 6.49306 13.6415 7.70269C12.906 8.91233 12.5457 10.3129 12.6061 11.7273C12.6666 13.1417 13.1452 14.5064 13.9812 15.6489C14.8173 16.7913 15.9734 17.6602 17.3033 18.1456C18.6332 18.631 20.0772 18.7111 21.4526 18.3758C22.828 18.0406 24.0732 17.305 25.0305 16.2621C25.6662 15.5696 26.1593 14.7588 26.4816 13.8758C26.8039 12.9928 26.9492 12.0549 26.909 11.1158C26.8689 10.1767 26.6441 9.25466 26.2476 8.40239C25.8511 7.55012 25.2906 6.78431 24.5981 6.14866ZM15.5458 16.0102C14.6383 15.1771 13.9981 14.0937 13.7063 12.8968C13.4145 11.7 13.4842 10.4435 13.9066 9.28623C14.3289 8.12898 15.0849 7.12297 16.079 6.3954C17.0731 5.66784 18.2607 5.25141 19.4915 5.19876C20.7222 5.14612 21.941 5.45963 22.9936 6.09966C24.0462 6.73968 24.8853 7.67748 25.405 8.79444C25.9246 9.91139 26.1013 11.1573 25.9128 12.3747C25.7242 13.5921 25.179 14.7263 24.3458 15.6338C23.2288 16.8506 21.674 17.5739 20.0237 17.6445C18.3733 17.7151 16.7625 17.1272 15.5456 16.0102H15.5458Z" fill="#C0C2C4"/>
<path d="M19.7577 14.7868C21.6167 14.7868 23.1237 13.2798 23.1237 11.4208C23.1237 9.56173 21.6167 8.05469 19.7577 8.05469C17.8986 8.05469 16.3916 9.56173 16.3916 11.4208C16.3916 13.2798 17.8986 14.7868 19.7577 14.7868Z" fill="#3E586D"/>
<path d="M21.8873 13.1261C22.8282 11.9503 22.6378 10.2344 21.462 9.29352C20.2863 8.35261 18.5704 8.54299 17.6294 9.71875C16.6885 10.8945 16.8789 12.6104 18.0547 13.5513C19.2304 14.4922 20.9463 14.3018 21.8873 13.1261Z" fill="#2C3E50"/>
<path d="M27.5321 11.992C27.5321 11.992 25.5563 12.3981 24.8866 12.4297C24.2273 12.4613 22.2525 12.2486 22.2525 12.2486L22.1904 10.9698C22.1904 10.9698 24.19 10.5914 24.8661 10.56C25.5177 10.5298 27.4707 10.7134 27.4707 10.7134L27.5321 11.992Z" fill="#2C3E50"/>
<path d="M28.4775 11.2949C28.5134 12.0693 28.2542 12.7109 27.8987 12.7275C27.5432 12.7441 27.2257 12.1292 27.1898 11.3546C27.1539 10.5799 27.4131 9.93838 27.7686 9.92219C28.1241 9.90599 28.4414 10.5202 28.4775 11.2949Z" fill="#2C3E50"/>
<path d="M21.2594 29.8848C21.2616 30.0755 21.188 30.2593 21.0547 30.3957C20.9214 30.5322 20.7393 30.6101 20.5486 30.6124L19.8294 30.621C19.6386 30.6232 19.4547 30.5496 19.3183 30.4163C19.1818 30.283 19.1038 30.1009 19.1016 29.9101L21.2594 29.8848Z" fill="#1B2533"/>
<path d="M19.6895 30.4377L19.9593 33.0328C19.9642 33.0799 19.9865 33.1234 20.0219 33.1549C20.0572 33.1864 20.103 33.2035 20.1503 33.203L20.3728 33.2006C20.4209 33.2 20.4671 33.1811 20.5018 33.1477C20.5366 33.1144 20.5573 33.069 20.5599 33.0209L20.7002 30.4258L19.6895 30.4377Z" fill="#1B2533"/>
<path d="M20.9198 13.6115L18.9795 13.6348L19.0049 15.7538L20.9452 15.7305L20.9198 13.6115Z" fill="#2C3E50"/>
<path d="M22.1988 28.7722C22.1303 29.1056 21.9499 29.4055 21.6876 29.6223C21.4252 29.8391 21.0966 29.9596 20.7563 29.964L19.5602 29.9781C19.2176 29.9823 18.884 29.8684 18.6157 29.6554C18.3473 29.4424 18.1605 29.1435 18.0868 28.8089C17.1555 24.6124 16.838 20.7074 16.7883 16.7394C16.7848 16.4802 16.8324 16.2229 16.9285 15.9822C17.0245 15.7415 17.1671 15.5221 17.3481 15.3366C17.5291 15.1511 17.7449 15.0031 17.9831 14.901C18.2214 14.799 18.4774 14.745 18.7366 14.7421L21.1891 14.713C21.4489 14.71 21.7068 14.7584 21.9479 14.8554C22.189 14.9524 22.4085 15.0961 22.5939 15.2782C22.7793 15.4603 22.9268 15.6773 23.0281 15.9166C23.1293 16.156 23.1822 16.413 23.1838 16.6728C23.2142 21.4826 22.9764 24.995 22.1988 28.7722Z" fill="#2C3E50"/>
<path d="M21.1891 14.713L18.7366 14.7421C18.4774 14.7452 18.2215 14.7994 17.9833 14.9014C17.7452 15.0035 17.5294 15.1515 17.3485 15.337C17.1676 15.5225 17.025 15.7418 16.9288 15.9824C16.8327 16.2231 16.7849 16.4803 16.7882 16.7394C16.7964 17.3862 16.8125 18.0317 16.8364 18.676L23.1801 18.6005C23.1869 17.9794 23.1887 17.3398 23.1844 16.673C23.1828 16.4131 23.1299 16.156 23.0286 15.9166C22.9273 15.6772 22.7797 15.4601 22.5943 15.278C22.4088 15.0958 22.1892 14.9521 21.948 14.8552C21.7068 14.7582 21.4488 14.7099 21.1889 14.713H21.1891Z" fill="#3E586D"/>
<path d="M18.9685 25.309L18.0586 25.4199L18.11 25.8419L19.0199 25.7311L18.9685 25.309Z" fill="#1B2533"/>
<path d="M19.0632 26.0825L18.1533 26.1934L18.2047 26.6154L19.1146 26.5045L19.0632 26.0825Z" fill="#1B2533"/>
<path d="M19.157 26.8559L18.2471 26.9668L18.2985 27.3888L19.2084 27.2779L19.157 26.8559Z" fill="#1B2533"/>
<path d="M21.4421 12.9692C21.1361 13.3025 20.7382 13.5375 20.2987 13.6446C19.8591 13.7517 19.3977 13.7261 18.9727 13.5709C18.5478 13.4158 18.1784 13.1381 17.9112 12.773C17.644 12.408 17.4911 11.9718 17.4718 11.5199C17.4525 11.0679 17.5676 10.6203 17.8027 10.2338C18.0377 9.84724 18.3821 9.53906 18.7923 9.34823C19.2024 9.1574 19.66 9.09249 20.1071 9.16169C20.5541 9.23089 20.9706 9.43111 21.3039 9.73702C21.5253 9.94017 21.7044 10.1849 21.8311 10.4573C21.9578 10.7297 22.0297 11.0244 22.0425 11.3245C22.0553 11.6247 22.0089 11.9244 21.9059 12.2066C21.8029 12.4888 21.6453 12.7479 21.4421 12.9692Z" fill="#1B2533"/>
<path d="M32.0003 37.703H22.7864C22.064 37.7012 21.3714 37.4147 20.8589 36.9056C20.3463 36.3965 20.0551 35.706 20.0482 34.9836L20.0352 33.2057L20.3993 33.2031L20.4119 34.9813C20.4179 35.6076 20.6706 36.2063 21.115 36.6477C21.5595 37.089 22.16 37.3374 22.7864 37.3389H32.0001L32.0003 37.703Z" fill="#1B2533"/>
</svg>
