<svg width="40" height="40" viewBox="0 0 40 40" fill="none" xmlns="http://www.w3.org/2000/svg">
<path d="M20.4532 0H20.2748C9.47914 0 0.727539 8.91362 0.727539 19.9091V20.0909C0.727539 31.0864 9.47914 40 20.2748 40H20.4532C31.2489 40 40.0005 31.0864 40.0005 20.0909V19.9091C40.0005 8.91362 31.2489 0 20.4532 0Z" fill="#40CCED"/>
<path d="M13.5638 11.0127L8.92709 9.54883L8.54688 12.6492L13.5638 11.0127Z" fill="white"/>
<path d="M5.55733 23.6367C5.5573 23.8117 5.50632 23.9827 5.41086 24.1282C5.31539 24.2736 5.17973 24.387 5.02101 24.4539C4.8623 24.5208 4.68767 24.5383 4.5192 24.5041C4.35073 24.4699 4.196 24.3856 4.07456 24.2619C3.95312 24.1382 3.87044 23.9805 3.83696 23.8089C3.80349 23.6373 3.82073 23.4595 3.8865 23.2978C3.95227 23.1362 4.06362 22.9981 4.20646 22.9009C4.34931 22.8038 4.51724 22.7519 4.68901 22.752C4.80307 22.752 4.916 22.7749 5.02137 22.8194C5.12673 22.8638 5.22246 22.929 5.30309 23.0112C5.38372 23.0933 5.44767 23.1909 5.49129 23.2982C5.53492 23.4055 5.55736 23.5206 5.55733 23.6367Z" fill="white"/>
<path d="M8.247 18.7926C8.247 18.9161 8.21103 19.0369 8.14365 19.1396C8.07626 19.2423 7.98049 19.3223 7.86844 19.3696C7.75638 19.4169 7.63308 19.4293 7.51412 19.4052C7.39516 19.3811 7.28588 19.3216 7.20012 19.2342C7.11435 19.1469 7.05596 19.0356 7.03229 18.9144C7.00863 18.7933 7.02077 18.6677 7.06718 18.5535C7.1136 18.4394 7.1922 18.3419 7.29305 18.2732C7.3939 18.2046 7.51246 18.168 7.63375 18.168C7.71428 18.168 7.79403 18.1841 7.86844 18.2155C7.94284 18.2469 8.01044 18.2929 8.06739 18.3509C8.12433 18.4089 8.1695 18.4778 8.20032 18.5535C8.23114 18.6293 8.247 18.7105 8.247 18.7926Z" fill="white"/>
<path d="M13.7809 16.8903C13.7809 17.117 13.7149 17.3386 13.5912 17.527C13.4676 17.7155 13.2918 17.8624 13.0862 17.9492C12.8806 18.0359 12.6543 18.0586 12.436 18.0144C12.2178 17.9702 12.0172 17.861 11.8599 17.7007C11.7025 17.5404 11.5953 17.3362 11.5519 17.1139C11.5085 16.8915 11.5308 16.6611 11.6159 16.4517C11.7011 16.2422 11.8453 16.0632 12.0304 15.9373C12.2154 15.8114 12.433 15.7441 12.6556 15.7441C12.8034 15.7441 12.9497 15.7737 13.0862 15.8313C13.2228 15.8889 13.3468 15.9733 13.4513 16.0798C13.5558 16.1862 13.6387 16.3126 13.6953 16.4516C13.7518 16.5907 13.7809 16.7398 13.7809 16.8903Z" fill="white"/>
<path d="M10.7294 14.1057C10.7295 14.1533 10.7156 14.1998 10.6897 14.2394C10.6638 14.279 10.6269 14.3099 10.5837 14.3282C10.5406 14.3464 10.4931 14.3512 10.4472 14.342C10.4014 14.3327 10.3593 14.3098 10.3262 14.2762C10.2931 14.2426 10.2706 14.1997 10.2614 14.153C10.2523 14.1064 10.2569 14.058 10.2747 14.014C10.2926 13.97 10.3229 13.9324 10.3617 13.9059C10.4005 13.8794 10.4462 13.8653 10.4929 13.8652C10.5556 13.8652 10.6157 13.8906 10.66 13.9356C10.7044 13.9807 10.7293 14.0419 10.7294 14.1057Z" fill="white"/>
<path d="M14.1018 6.63953C14.3986 6.63953 14.6392 6.3945 14.6392 6.09223C14.6392 5.78996 14.3986 5.54492 14.1018 5.54492C13.805 5.54492 13.5645 5.78996 13.5645 6.09223C13.5645 6.3945 13.805 6.63953 14.1018 6.63953Z" fill="white"/>
<path d="M14.1018 2.69422C14.3986 2.69422 14.6392 2.44918 14.6392 2.14692C14.6392 1.84465 14.3986 1.59961 14.1018 1.59961C13.805 1.59961 13.5645 1.84465 13.5645 2.14692C13.5645 2.44918 13.805 2.69422 14.1018 2.69422Z" fill="white"/>
<path d="M20.4615 3.74308C20.4615 3.95079 20.4011 4.15385 20.2879 4.32659C20.1746 4.49933 20.0136 4.63399 19.8253 4.71353C19.6369 4.79308 19.4296 4.81392 19.2295 4.77345C19.0295 4.73297 18.8458 4.63299 18.7015 4.48615C18.5573 4.3393 18.4591 4.15219 18.4193 3.94847C18.3794 3.74476 18.3998 3.5336 18.4779 3.34169C18.5559 3.14979 18.688 2.98576 18.8576 2.87036C19.0271 2.75495 19.2265 2.69336 19.4304 2.69336C19.7038 2.69336 19.966 2.80394 20.1593 3.00079C20.3527 3.19764 20.4614 3.46464 20.4615 3.74308Z" fill="white"/>
<path d="M8.81849 1.25977H8.04025C6.98432 1.25977 5.93874 1.47161 4.9632 1.8832C3.98767 2.29479 3.10128 2.89806 2.35466 3.65857C1.60805 4.41908 1.01583 5.32193 0.611811 6.31557C0.207796 7.30921 -0.000100636 8.37417 3.65447e-08 9.44964V21.1884C0.114598 21.1112 0.211558 21.0098 0.284301 20.8911C0.357045 20.7724 0.403874 20.6392 0.42161 20.5004C0.884984 20.686 1.39279 20.7237 1.87773 20.6087C2.36266 20.4937 2.80182 20.2313 3.13701 19.8563C3.4722 19.4813 3.68759 19.0114 3.75463 18.5089C3.82166 18.0063 3.73717 17.4949 3.51237 17.0424C3.70849 17.016 3.89674 16.947 4.0644 16.84C4.23206 16.7331 4.37521 16.5907 4.48418 16.4225C4.6027 16.578 4.76497 16.6929 4.94931 16.7519C5.13364 16.8109 5.33127 16.8113 5.51581 16.7529C5.70034 16.6945 5.86299 16.5802 5.98205 16.4252C6.10111 16.2702 6.17091 16.0818 6.18211 15.8854C6.6314 15.9681 7.09443 15.9216 7.5192 15.7511C7.94398 15.5806 8.31366 15.2929 8.58672 14.9202C8.85979 14.5475 9.02541 14.1046 9.065 13.6414C9.10459 13.1781 9.01657 12.7128 8.81083 12.2976L10.2571 11.2251L9.77497 9.97001C9.8939 9.88053 9.99062 9.76394 10.0574 9.62958C10.1242 9.49522 10.1592 9.3468 10.1596 9.1962C10.16 9.0456 10.1258 8.89698 10.0598 8.76224C9.99372 8.6275 9.89762 8.51038 9.77918 8.42022C10.0953 8.12551 10.3302 7.75166 10.4606 7.33584C10.5909 6.92001 10.6121 6.47669 10.5222 6.04992C10.4322 5.62315 10.2341 5.22779 9.94764 4.90313C9.66117 4.57847 9.29627 4.33582 8.88921 4.19929C8.95505 4.04807 8.98273 3.88248 8.96973 3.71759C8.95673 3.5527 8.90348 3.39373 8.8148 3.25515C8.72611 3.11657 8.60481 3.00277 8.46194 2.92409C8.31907 2.84542 8.15916 2.80436 7.99675 2.80467H7.9954C7.9954 2.79569 7.99675 2.7869 7.99675 2.77793C7.99693 2.58821 7.9593 2.40043 7.88617 2.22595C8.27555 1.99378 8.59732 1.66032 8.81849 1.25977Z" fill="white"/>
<path d="M30.8214 10.3789H22.3916V11.6402H30.8214V10.3789Z" fill="#3E586D"/>
<path d="M26.5482 7.53125H25.0664V14.4879H26.5482V7.53125Z" fill="#3E586D"/>
<path d="M30.4259 19.291H21.1592V35.2363C21.1592 35.5365 21.2763 35.8245 21.4847 36.0368C21.6932 36.2491 21.9759 36.3684 22.2707 36.3684H29.3125C29.6073 36.3684 29.89 36.2491 30.0984 36.0368C30.3069 35.8245 30.424 35.5365 30.424 35.2363L30.4259 19.291Z" fill="#DBDBDB"/>
<path d="M27.8376 16.3535H23.8191L21.1592 19.2899C24.6882 20.2725 26.9199 20.145 30.4259 19.2899L27.8376 16.3535Z" fill="#DBDBDB"/>
<path d="M27.8384 14.3262H23.7764V16.3548H27.8384V14.3262Z" fill="#2C3E50"/>
<path d="M27.8382 8.21804H23.7754V6.68893C23.7754 6.62333 23.788 6.55837 23.8127 6.49776C23.8373 6.43715 23.8734 6.38208 23.919 6.33569C23.9645 6.2893 24.0186 6.25251 24.0781 6.22742C24.1376 6.20233 24.2014 6.18943 24.2658 6.18945H27.347C27.4114 6.18943 27.4752 6.20233 27.5347 6.22742C27.5942 6.25251 27.6483 6.2893 27.6938 6.33569C27.7393 6.38208 27.7755 6.43715 27.8001 6.49776C27.8247 6.55837 27.8374 6.62333 27.8374 6.68893L27.8382 8.21804Z" fill="#2C3E50"/>
<path d="M26.8505 9.54492H24.7635C24.5457 9.54492 24.3691 9.72477 24.3691 9.94662V12.0722C24.3691 12.2941 24.5457 12.4739 24.7635 12.4739H26.8505C27.0683 12.4739 27.2449 12.2941 27.2449 12.0722V9.94662C27.2449 9.72477 27.0683 9.54492 26.8505 9.54492Z" fill="#2C3E50"/>
<path d="M26.9456 8.21875H24.6689V8.67178H26.9456V8.21875Z" fill="#3E586D"/>
<path d="M27.1868 13.873H24.4268V14.3261H27.1868V13.873Z" fill="#3E586D"/>
<path d="M21.7148 12.0368H22.9413C23.0057 12.0368 23.0695 12.0239 23.129 11.9988C23.1885 11.9737 23.2426 11.937 23.2881 11.8906C23.3336 11.8442 23.3698 11.7892 23.3944 11.7286C23.4191 11.668 23.4317 11.6031 23.4317 11.5375V10.4817C23.4317 10.3493 23.38 10.2223 23.288 10.1286C23.1961 10.035 23.0714 9.98242 22.9413 9.98242H21.7148V12.0368Z" fill="#2C3E50"/>
<path d="M29.6864 9.98242H28.7577C28.5399 9.98242 28.3633 10.1623 28.3633 10.3841V11.6351C28.3633 11.8569 28.5399 12.0368 28.7577 12.0368H29.6864C29.9042 12.0368 30.0808 11.8569 30.0808 11.6351V10.3841C30.0808 10.1623 29.9042 9.98242 29.6864 9.98242Z" fill="#2C3E50"/>
<path d="M32.0997 9.64648H30.7197V12.3721H32.0997V9.64648Z" fill="#2C3E50"/>
<path d="M32.7182 9.98242H32.0283V12.0368H32.7182V9.98242Z" fill="#2C3E50"/>
<path d="M32.6455 11.7627L36.7485 11.5431V10.4774L32.6455 10.2578V11.7627Z" fill="#2C3E50"/>
<path d="M14.8848 11.3046L16.6022 12.0368V9.98242L14.8848 10.7148V11.3046Z" fill="#2C3E50"/>
<path d="M21.5201 9.54492H16.6971C16.4793 9.54492 16.3027 9.72477 16.3027 9.94662V12.0722C16.3027 12.2941 16.4793 12.4739 16.6971 12.4739H21.5201C21.7379 12.4739 21.9145 12.2941 21.9145 12.0722V9.94662C21.9145 9.72477 21.7379 9.54492 21.5201 9.54492Z" fill="#2C3E50"/>
<path d="M24.7482 14.4883H23.9893V16.0139H24.7482V14.4883Z" fill="#3E586D"/>
<path d="M24.3685 7.02344H23.9092V8.12176H24.3685V7.02344Z" fill="#3E586D"/>
<path d="M25.1283 7.02344H24.6689V8.12176H25.1283V7.02344Z" fill="#3E586D"/>
<path d="M25.9047 7.02344H25.4453V8.12176H25.9047V7.02344Z" fill="#3E586D"/>
<path d="M26.6869 7.02344H26.2275V8.12176H26.6869V7.02344Z" fill="#3E586D"/>
<path d="M27.4164 7.02344H26.957V8.12176H27.4164V7.02344Z" fill="#3E586D"/>
<path d="M25.8253 14.4883H25.0664V16.0139H25.8253V14.4883Z" fill="#3E586D"/>
<path d="M26.9864 14.4883H26.2275V16.0139H26.9864V14.4883Z" fill="#3E586D"/>
<path d="M21.9145 11.4629H16.3027V11.89H21.9145V11.4629Z" fill="#3E586D"/>
<path d="M21.9145 10.7969H16.3027V11.2239H21.9145V10.7969Z" fill="#3E586D"/>
<path d="M21.9145 10.166H16.3027V10.5931H21.9145V10.166Z" fill="#3E586D"/>
<path d="M16.3096 9.972H21.907C21.8903 9.85356 21.8323 9.74519 21.7436 9.66676C21.6548 9.58833 21.5413 9.54507 21.4239 9.54492H16.7935C16.6758 9.54488 16.5622 9.58805 16.4733 9.6665C16.3844 9.74495 16.3263 9.85342 16.3096 9.972Z" fill="#3E586D"/>
<path d="M29.5898 9.98242H28.8531C28.781 9.98259 28.7098 9.99909 28.6446 10.0307C28.5795 10.0623 28.5221 10.1083 28.4766 10.1653H29.9662C29.9207 10.1083 29.8633 10.0624 29.7982 10.0307C29.7331 9.99911 29.6619 9.9826 29.5898 9.98242Z" fill="#3E586D"/>
<path d="M30.0808 10.4961H28.3633V10.6893H30.0808V10.4961Z" fill="#3E586D"/>
<path d="M30.0808 11.127H28.3633V11.3202H30.0808V11.127Z" fill="#3E586D"/>
<path d="M31.4094 9.64648H30.8213V11.6755H31.4094V9.64648Z" fill="#3E586D"/>
<path d="M32.4994 9.97266H32.2148V11.3202H32.4994V9.97266Z" fill="#3E586D"/>
<path d="M30.4259 21.1602H21.1592V32.531H30.4259V21.1602Z" fill="#F1C40F"/>
<path d="M22.9732 9.98242H22.1045V11.2232H22.9732V9.98242Z" fill="#3E586D"/>
<path d="M21.1592 19.2897H26.6063L26.2269 16.3535H23.7754L21.1592 19.2897Z" fill="white"/>
<path d="M25.4844 29.8514C25.1129 29.8514 24.7457 29.771 24.4071 29.6153C24.0685 29.4597 23.7663 29.2325 23.5205 28.9489C23.2748 28.6652 23.091 28.3315 22.9816 27.97C22.8721 27.6085 22.8394 27.2273 22.8856 26.8519C22.9318 26.4765 23.0559 26.1155 23.2496 25.7926C23.4433 25.4698 23.7022 25.1927 24.0091 24.9796C24.3161 24.7665 24.664 24.6223 25.0298 24.5567C25.3957 24.491 25.771 24.5053 26.131 24.5987C26.1654 24.3413 26.2675 24.0981 26.4267 23.895C26.5858 23.6919 26.796 23.5365 27.0348 23.4452C27.2737 23.354 27.5323 23.3303 27.7834 23.3766C28.0344 23.423 28.2684 23.5377 28.4606 23.7086C28.6528 23.8795 28.7959 24.1001 28.8749 24.3472C28.9539 24.5943 28.9657 24.8585 28.9092 25.1119C28.8526 25.3653 28.7298 25.5983 28.5537 25.7863C28.3776 25.9743 28.1548 26.1103 27.909 26.1797C28.0375 26.4981 28.1035 26.839 28.1033 27.1832C28.1027 27.8906 27.8267 28.5688 27.3357 29.069C26.8447 29.5693 26.1789 29.8507 25.4844 29.8514ZM25.4844 24.7588C24.9667 24.7573 24.4625 24.9273 24.0479 25.2431C23.6333 25.5588 23.3307 26.0033 23.1858 26.5095C23.0408 27.0157 23.0613 27.5561 23.2442 28.0494C23.4271 28.5427 23.7624 28.9621 24.1997 29.2444C24.637 29.5266 25.1525 29.6564 25.6685 29.6143C26.1846 29.5721 26.6732 29.3603 27.0607 29.0107C27.4483 28.661 27.7137 28.1926 27.8171 27.6759C27.9204 27.1593 27.8561 26.6224 27.6338 26.1462L27.566 26.0006L27.7218 25.9744C27.9416 25.9376 28.1465 25.8378 28.3128 25.6868C28.4791 25.5358 28.5998 25.3398 28.6608 25.1216C28.7218 24.9034 28.7207 24.672 28.6575 24.4544C28.5943 24.2369 28.4717 24.0421 28.304 23.8928C28.1362 23.7435 27.9302 23.6459 27.7101 23.6113C27.4899 23.5767 27.2647 23.6066 27.0605 23.6974C26.8564 23.7883 26.6819 23.9364 26.5573 24.1244C26.4326 24.3125 26.3631 24.5328 26.3567 24.7596L26.3519 24.9198L26.2019 24.8714C25.9697 24.7968 25.7278 24.7588 25.4844 24.759V24.7588Z" fill="white"/>
<path d="M25.445 23.4914C25.3313 23.4916 25.22 23.4575 25.1254 23.3932C25.0307 23.329 24.9568 23.2376 24.9132 23.1306C24.8695 23.0237 24.858 22.9059 24.8801 22.7922C24.9021 22.6786 24.9568 22.5742 25.0372 22.4922C25.1176 22.4102 25.22 22.3543 25.3316 22.3316C25.4431 22.309 25.5587 22.3205 25.6639 22.3648C25.769 22.4091 25.8588 22.4841 25.922 22.5805C25.9852 22.6768 26.019 22.79 26.019 22.9059C26.019 23.061 25.9585 23.2098 25.8509 23.3196C25.7433 23.4294 25.5973 23.4912 25.445 23.4914ZM25.445 22.5647C25.3786 22.5647 25.3137 22.5847 25.2585 22.6223C25.2033 22.6599 25.1603 22.7133 25.1348 22.7757C25.1094 22.8382 25.1028 22.907 25.1157 22.9733C25.1286 23.0396 25.1606 23.1006 25.2075 23.1484C25.2545 23.1962 25.3143 23.2288 25.3794 23.242C25.4445 23.2553 25.512 23.2485 25.5734 23.2227C25.6347 23.1968 25.6872 23.153 25.7241 23.0968C25.761 23.0406 25.7807 22.9745 25.7808 22.9069C25.7807 22.8162 25.7453 22.7292 25.6824 22.665C25.6194 22.6008 25.5341 22.5647 25.445 22.5645V22.5647Z" fill="white"/>
<path d="M22.6702 23.493C22.5017 23.493 22.337 23.4421 22.1969 23.3468C22.0569 23.2515 21.9477 23.116 21.8832 22.9574C21.8187 22.7989 21.8019 22.6245 21.8347 22.4562C21.8676 22.2879 21.9487 22.1333 22.0679 22.0119C22.187 21.8906 22.3388 21.808 22.504 21.7745C22.6693 21.741 22.8405 21.7582 22.9962 21.8239C23.1518 21.8895 23.2849 22.0007 23.3785 22.1434C23.4721 22.2861 23.522 22.4538 23.522 22.6254C23.5219 22.8555 23.4321 23.0761 23.2724 23.2387C23.1126 23.4014 22.8961 23.4929 22.6702 23.493ZM22.6702 22.0006C22.5489 22.0006 22.4303 22.0373 22.3295 22.1059C22.2287 22.1745 22.1501 22.2721 22.1036 22.3862C22.0572 22.5003 22.0451 22.6259 22.0687 22.7471C22.0924 22.8682 22.1508 22.9795 22.2366 23.0669C22.3223 23.1542 22.4316 23.2137 22.5506 23.2378C22.6695 23.2619 22.7928 23.2496 22.9049 23.2023C23.0169 23.155 23.1127 23.075 23.1801 22.9722C23.2475 22.8695 23.2834 22.7488 23.2834 22.6252C23.2832 22.4596 23.2186 22.3009 23.1036 22.1837C22.9887 22.0666 22.8328 22.0007 22.6702 22.0004V22.0006Z" fill="white"/>
<path d="M27.3977 32.0751C27.2293 32.0751 27.0646 32.0242 26.9245 31.9288C26.7844 31.8335 26.6752 31.698 26.6107 31.5395C26.5463 31.3809 26.5294 31.2065 26.5623 31.0382C26.5951 30.8699 26.6763 30.7153 26.7954 30.594C26.9145 30.4726 27.0663 30.39 27.2315 30.3565C27.3968 30.323 27.5681 30.3402 27.7237 30.4059C27.8794 30.4716 28.0124 30.5828 28.106 30.7254C28.1996 30.8681 28.2496 31.0359 28.2496 31.2074C28.2493 31.4375 28.1595 31.658 27.9998 31.8207C27.8401 31.9833 27.6236 32.0748 27.3977 32.0751ZM27.3977 30.5827C27.2764 30.5827 27.1579 30.6193 27.057 30.6879C26.9562 30.7566 26.8776 30.8541 26.8312 30.9682C26.7847 31.0824 26.7726 31.2079 26.7963 31.3291C26.8199 31.4503 26.8783 31.5616 26.9641 31.6489C27.0499 31.7363 27.1591 31.7958 27.2781 31.8199C27.3971 31.844 27.5204 31.8316 27.6324 31.7843C27.7445 31.737 27.8402 31.657 27.9076 31.5543C27.975 31.4516 28.011 31.3308 28.011 31.2073C28.0107 31.0417 27.946 30.8829 27.8311 30.7658C27.7162 30.6487 27.5603 30.5828 27.3977 30.5825V30.5827Z" fill="white"/>
<path d="M29.2221 29.6746C29.1079 29.6746 28.9962 29.6401 28.9012 29.5755C28.8063 29.5109 28.7322 29.419 28.6885 29.3115C28.6448 29.204 28.6333 29.0857 28.6556 28.9716C28.6779 28.8575 28.7329 28.7526 28.8137 28.6704C28.8945 28.5881 28.9974 28.5321 29.1095 28.5094C29.2215 28.4867 29.3376 28.4983 29.4432 28.5428C29.5487 28.5874 29.6389 28.6628 29.7024 28.7595C29.7659 28.8563 29.7997 28.97 29.7997 29.0863C29.7996 29.2423 29.7387 29.3919 29.6304 29.5022C29.5222 29.6125 29.3753 29.6745 29.2221 29.6746ZM29.2221 28.7409C29.1551 28.7409 29.0895 28.7612 29.0337 28.7992C28.978 28.8372 28.9345 28.8911 28.9089 28.9543C28.8832 29.0174 28.8766 29.0869 28.8897 29.1539C28.9028 29.2209 28.9351 29.2824 28.9825 29.3307C29.03 29.379 29.0904 29.4119 29.1562 29.4252C29.222 29.4385 29.2902 29.4317 29.3522 29.4055C29.4142 29.3794 29.4671 29.3351 29.5044 29.2783C29.5416 29.2215 29.5615 29.1547 29.5615 29.0863C29.5614 28.9948 29.5256 28.907 29.4619 28.8422C29.3983 28.7775 29.3121 28.7411 29.2221 28.7411V28.7409Z" fill="white"/>
<path d="M23.6534 27.476C23.1965 25.9994 24.9023 24.4028 26.5542 25.536C26.557 25.538 26.5591 25.5409 26.5601 25.5442C26.5611 25.5476 26.5609 25.5511 26.5596 25.5544C26.5583 25.5576 26.556 25.5603 26.553 25.5621C26.55 25.5638 26.5465 25.5645 26.5431 25.5639C25.1359 25.3178 24.3356 26.2006 24.4926 27.3298L23.6534 27.476Z" fill="white"/>
<path d="M26.6797 25.0297C26.4426 24.2636 27.3276 23.4355 28.1846 24.0232C28.1861 24.0242 28.1871 24.0257 28.1876 24.0274C28.1881 24.0292 28.188 24.031 28.1874 24.0327C28.1867 24.0344 28.1855 24.0358 28.184 24.0367C28.1824 24.0376 28.1806 24.0379 28.1789 24.0376C27.4487 23.91 27.0334 24.3679 27.1151 24.9538L26.6797 25.0297Z" fill="white"/>
<path d="M22.2138 22.7517C22.1883 22.6517 22.1942 22.546 22.2307 22.4496C22.2672 22.3532 22.3324 22.2708 22.4172 22.214C22.502 22.1573 22.6022 22.129 22.7035 22.1332C22.8049 22.1374 22.9025 22.1738 22.9825 22.2374C22.9833 22.2379 22.9839 22.2386 22.9842 22.2395C22.9844 22.2404 22.9844 22.2414 22.984 22.2423C22.9837 22.2431 22.9831 22.2438 22.9823 22.2442C22.9816 22.2446 22.9807 22.2448 22.9798 22.2446C22.6069 22.1796 22.3945 22.4137 22.4363 22.7131L22.2138 22.7517Z" fill="white"/>
<path d="M26.9764 31.3842C26.951 31.2841 26.957 31.1785 26.9936 31.0822C27.0301 30.9858 27.0953 30.9035 27.1801 30.8468C27.2649 30.7901 27.365 30.7619 27.4663 30.766C27.5677 30.7702 27.6652 30.8066 27.7452 30.87C27.7459 30.8706 27.7464 30.8714 27.7467 30.8723C27.7469 30.8732 27.7468 30.8742 27.7465 30.875C27.7461 30.8759 27.7455 30.8766 27.7448 30.8771C27.744 30.8775 27.7431 30.8777 27.7422 30.8777C27.3692 30.8123 27.1573 31.0463 27.1987 31.3461L26.9764 31.3842Z" fill="white"/>
<path d="M25.2201 23.0439C25.205 22.9841 25.2086 22.921 25.2305 22.8633C25.2524 22.8057 25.2913 22.7565 25.342 22.7226C25.3927 22.6886 25.4525 22.6717 25.5131 22.6741C25.5737 22.6764 25.6321 22.6981 25.68 22.7359C25.6805 22.7362 25.6809 22.7367 25.6811 22.7372C25.6812 22.7377 25.6812 22.7383 25.681 22.7388C25.6808 22.7393 25.6804 22.7397 25.6799 22.74C25.6794 22.7402 25.6788 22.7403 25.6783 22.7402C25.4549 22.7012 25.3278 22.8415 25.3525 23.0205L25.2201 23.0439Z" fill="white"/>
<path d="M28.9972 29.2115C28.9823 29.1517 28.9861 29.0887 29.008 29.0312C29.0299 28.9737 29.0689 28.9245 29.1195 28.8906C29.1701 28.8567 29.2298 28.8397 29.2903 28.842C29.3508 28.8443 29.4092 28.8657 29.4572 28.9033C29.4577 28.9036 29.4581 28.9041 29.4583 28.9047C29.4585 28.9052 29.4585 28.9059 29.4583 28.9064C29.4581 28.907 29.4577 28.9074 29.4571 28.9077C29.4566 28.908 29.456 28.9081 29.4555 28.908C29.232 28.869 29.105 29.0089 29.1297 29.1883L28.9972 29.2115Z" fill="white"/>
</svg>
