<svg width="16" height="16" viewBox="0 0 16 16" fill="none" xmlns="http://www.w3.org/2000/svg">
<path d="M13.5 10H12.5C12.2188 10 12 10.25 12 10.5V14H2V4H6.5C6.75 4 7 3.78125 7 3.5V2.5C7 2.25 6.75 2 6.5 2H1.5C0.65625 2 0 2.6875 0 3.5V14.5C0 15.3438 0.65625 16 1.5 16H12.5C13.3125 16 14 15.3438 14 14.5V10.5C14 10.25 13.75 10 13.5 10ZM15.25 0H11.25C10.5625 0 10.2188 0.8125 10.7188 1.28125L11.8125 2.40625L4.21875 10.0312C4.0625 10.1562 3.96875 10.3438 3.96875 10.5625C3.96875 10.7812 4.0625 10.9688 4.21875 11.0938L4.90625 11.7812C5.0625 11.9375 5.25 12.0312 5.4375 12.0312C5.65625 12.0312 5.84375 11.9375 5.96875 11.7812L13.5938 4.1875L14.7188 5.28125C15.1875 5.75 16 5.4375 16 4.75V0.75C16 0.34375 15.6562 0 15.25 0Z" fill="#004A66"/>
</svg>
