<svg width="40" height="40" viewBox="0 0 40 40" fill="none" xmlns="http://www.w3.org/2000/svg">
<path d="M34.7342 7.68247C33.8829 6.83081 32.8722 6.15521 31.7598 5.69428C30.6473 5.23334 29.455 4.99609 28.2509 4.99609C27.0467 4.99609 25.8544 5.23334 24.7419 5.69428C23.6295 6.15521 22.6188 6.83081 21.7675 7.68247L20.0009 9.44914L18.2342 7.68247C16.5147 5.96298 14.1826 4.99699 11.7508 4.99699C9.31913 4.99699 6.987 5.96298 5.26752 7.68247C3.54803 9.40196 2.58203 11.7341 2.58203 14.1658C2.58203 16.5975 3.54803 18.9296 5.26752 20.6491L7.03418 22.4158L20.0009 35.3825L32.9675 22.4158L34.7342 20.6491C35.5858 19.7979 36.2614 18.7872 36.7224 17.6747C37.1833 16.5623 37.4206 15.3699 37.4206 14.1658C37.4206 12.9617 37.1833 11.7693 36.7224 10.6569C36.2614 9.54445 35.5858 8.53373 34.7342 7.68247V7.68247Z" stroke="#00BAFF" stroke-width="3.33333" stroke-linecap="round" stroke-linejoin="round"/>
</svg>
