<svg width="777" height="766" viewBox="0 0 777 766" fill="none" xmlns="http://www.w3.org/2000/svg">
<mask id="mask0" style="mask-type:alpha" maskUnits="userSpaceOnUse" x="0" y="0" width="777" height="766">
<rect width="777" height="766" fill="#C4C4C4"/>
</mask>
<g mask="url(#mask0)">
<path d="M345.889 481.447C-47.5484 468.22 -68.2347 84.3015 95.3817 -60.4689C143.692 -103.207 208.066 -125.108 283.655 -110.464C283.655 -110.464 337.757 -97.6114 408.703 -58.2107C432.703 -44.8807 453.155 -32.3831 471.43 -22.3268C507.209 -2.65234 534.682 7.65482 564.272 -3.56837C592.166 -14.1464 661.012 -60.5486 725.31 -64.4556C739.329 -65.292 753.133 -64.129 766.253 -60.1185C789.354 -53.0691 810.319 -37.222 826.578 -8.14846C894.385 113.108 855.463 498.58 345.889 481.447Z" fill="url(#paint0_radial)"/>
<path d="M394.334 504.332C364.907 496.241 333.651 499.812 303.488 504.451C264.627 510.429 226.045 518.096 187.476 525.734C153.751 532.411 117.916 540.206 93.6281 564.574C90.8022 567.408 87.9764 571.33 89.3647 575.086C90.4254 577.954 93.5267 579.441 96.367 580.556C125.213 591.978 156.181 597.029 187.155 595.361C157.514 598.78 129.692 611.426 107.604 631.516C104.74 634.129 101.851 637.108 101.091 640.911C99.1581 650.587 111.047 656.654 120.6 659.058C284.113 700.203 455.089 697.254 623.586 691.503C628.528 691.334 633.852 691.029 637.707 687.926C644.046 682.831 643.101 672.249 637.861 666.028C632.621 659.807 624.528 656.907 616.772 654.465C653.712 646.17 691.423 641.805 729.277 641.442C752.684 641.221 776.265 642.519 799.365 638.716C806.764 637.497 815.868 633.557 815.442 626.056C815.126 620.487 809.486 616.931 804.365 614.734C788.023 607.752 770.27 604.723 752.542 605.891C773.047 607.059 793.6 604.714 813.318 598.958C824.795 595.605 838.388 586.318 834.42 575.019C832.226 568.769 825.409 565.579 819.12 563.532C806.26 559.349 792.849 557.145 779.494 555.055C695.879 541.894 611.877 531.645 527.489 524.306C478.623 520.055 428.279 516.424 384.247 494.778" fill="url(#paint1_radial)"/>
</g>
<defs>
<radialGradient id="paint0_radial" cx="0" cy="0" r="1" gradientUnits="userSpaceOnUse" gradientTransform="translate(-1 -115) rotate(35.6428) scale(1090.06 2209.52)">
<stop stop-color="#004A66"/>
<stop offset="1" stop-color="#097FAA"/>
<stop offset="1" stop-color="#097FAA"/>
</radialGradient>
<radialGradient id="paint1_radial" cx="0" cy="0" r="1" gradientUnits="userSpaceOnUse" gradientTransform="translate(89 494.778) rotate(15.3592) scale(803.561 878.461)">
<stop stop-color="#004A66"/>
<stop offset="1" stop-color="#097FAA"/>
<stop offset="1" stop-color="#097FAA"/>
</radialGradient>
</defs>
</svg>
