<svg id="Layer_1" data-name="Layer 1" xmlns="http://www.w3.org/2000/svg" viewBox="0 0 60 60"><defs><style>.cls-1{fill:#f1c40f;}.cls-2{fill:#f39c12;}.cls-3{fill:#3498db;}.cls-4{fill:#2772a4;}.cls-5{fill:#fff5ae;}.cls-6{fill:#ffe783;}.cls-7{fill:#2c3e50;}.cls-8{fill:#1b2533;}.cls-9{fill:#dbdbdb;}.cls-10{fill:#a4a4a4;}.cls-11{fill:#ffb719;}.cls-12{fill:#ffc850;}.cls-13{fill:#00baff;}.cls-14{fill:#45dbff;}.cls-15{fill:#f0f0e6;}.cls-16{fill:#ebaf4b;}</style></defs><path class="cls-1" d="M58,3.16H49.22A23.16,23.16,0,0,0,29.66,13.93l-3.87,6.15L8.59,27a8,8,0,0,0-5,7.46v5.29a8,8,0,0,0,8,8H58V3.16Z"/><path class="cls-2" d="M3.58,37.94v1.79a8,8,0,0,0,8,8H58V46H11.61A8.14,8.14,0,0,1,3.58,37.94Z"/><path class="cls-2" d="M49.22,3.16A23.16,23.16,0,0,0,29.66,13.93l-3.87,6.15L8.59,27a8,8,0,0,0-5,7.46v1.8a8,8,0,0,1,5-7.47l17.2-6.9,3.87-6.14A23,23,0,0,1,49.22,5H58V3.16Z"/><path class="cls-3" d="M32,16.86l-.28.57a1.77,1.77,0,0,0,1.51,2.65H58v-14L50.92,6A21.29,21.29,0,0,0,32,16.86Z"/><path class="cls-4" d="M50.83,6A21.25,21.25,0,0,0,32,16.86l-.28.57a1.76,1.76,0,0,0,0,1.8l.28-.57A21.28,21.28,0,0,1,50.83,7.79l7.18.1V6.09Z"/><path class="cls-5" d="M10.57,28.11h-4a8,8,0,0,0-3,5.2,5,5,0,0,0-.1.66v2.08H9.06a2.79,2.79,0,0,0,2.36-1.42L12.93,32A2.65,2.65,0,0,0,10.57,28.11Z"/><path class="cls-6" d="M6.6,29.91h4a2.67,2.67,0,0,1,2.55,1.79,2.72,2.72,0,0,0-2.55-3.59h-4a8.84,8.84,0,0,0-3,5.2,14.76,14.76,0,0,0-.1,1.79A8.1,8.1,0,0,1,6.6,29.91Z"/><path class="cls-7" d="M28.43,57.5A11.15,11.15,0,1,0,17.28,46.35,11.17,11.17,0,0,0,28.43,57.5Z"/><path class="cls-7" d="M28.34,55.7A11.11,11.11,0,0,1,17.28,45.5v.85a11.15,11.15,0,0,0,22.3,0V45.5A11.42,11.42,0,0,1,28.34,55.7Z"/><path class="cls-8" d="M28.53,37a11.11,11.11,0,0,1,11,10.21v-.85a11.15,11.15,0,0,0-22.3,0v.85A11.38,11.38,0,0,1,28.53,37Z"/><path class="cls-9" d="M28.43,51.64a5.29,5.29,0,1,0-5.29-5.29A5.28,5.28,0,0,0,28.43,51.64Z"/><path class="cls-9" d="M5.37,46.63a97,97,0,0,0,12.19,2.18,10.84,10.84,0,0,1-.28-2.46,10,10,0,0,1,.66-3.78C10.19,42,4.52,41.06,2.82,39.73.74,41.25,2.92,46,5.37,46.63Z"/><path class="cls-10" d="M3.59,40.19a4.73,4.73,0,0,1-.77-.46,2.81,2.81,0,0,1,.76-.09Z"/><path class="cls-11" d="M51.3,49.94H41.57V57H51.3Z"/><path class="cls-12" d="M51.3,55.23H41.57V57H51.3Z"/><path class="cls-12" d="M51.3,49.94H41.57v1.8H51.3Z"/><path class="cls-13" d="M41.52,49.94,38.87,28.68h15L51.25,49.94Z"/><path class="cls-14" d="M41.33,48.14l.19,1.8h9.73l.19-1.8Z"/><path class="cls-14" d="M53.71,30.47l.19-1.79h-15l.19,1.79Z"/><path class="cls-13" d="M54,24.24H38.83v4.44h15l.1-4.44Z"/><path class="cls-14" d="M54,24.24H38.83V26h15l.1-1.79Z"/><path class="cls-13" d="M42.61,25.75h0a.2.2,0,0,1-.19-.19v-.85a.2.2,0,0,1,.19-.19.2.2,0,0,1,.19.19v.85C42.7,25.65,42.7,25.75,42.61,25.75Z"/><path class="cls-13" d="M43.65,25.75h0a.2.2,0,0,1-.19-.19v-.85a.2.2,0,0,1,.19-.19h0a.2.2,0,0,1,.19.19v.85A.21.21,0,0,1,43.65,25.75Z"/><path class="cls-13" d="M44.78,25.75h0a.21.21,0,0,1-.19-.19v-.85a.2.2,0,0,1,.19-.19h0a.2.2,0,0,1,.19.19v.85A.2.2,0,0,1,44.78,25.75Z"/><path class="cls-13" d="M45.82,25.75h0a.21.21,0,0,1-.19-.19v-.85a.2.2,0,0,1,.19-.19h0a.2.2,0,0,1,.19.19v.85A.21.21,0,0,1,45.82,25.75Z"/><path class="cls-13" d="M47,25.75h0a.2.2,0,0,1-.18-.19v-.85a.19.19,0,1,1,.37,0v.85A.2.2,0,0,1,47,25.75Z"/><path class="cls-13" d="M48,25.75h0a.21.21,0,0,1-.19-.19v-.85a.2.2,0,0,1,.19-.19h0a.2.2,0,0,1,.19.19v.85A.2.2,0,0,1,48,25.75Z"/><path class="cls-13" d="M49.13,25.75h0a.2.2,0,0,1-.19-.19v-.85a.2.2,0,0,1,.19-.19h0a.2.2,0,0,1,.19.19v.85A.21.21,0,0,1,49.13,25.75Z"/><path class="cls-13" d="M50.26,25.75h0a.21.21,0,0,1-.19-.19v-.85a.2.2,0,0,1,.19-.19h0a.2.2,0,0,1,.19.19v.85C50.36,25.65,50.36,25.75,50.26,25.75Z"/><path class="cls-15" d="M46.39,42a4.94,4.94,0,0,0,4.91-4.91,4.88,4.88,0,0,0-4.91-4.92,4.92,4.92,0,1,0,0,9.83Z"/><path class="cls-12" d="M22.48,2.5,20.59,5.9l-3.4,1.89,3.4,1.89,1.89,3.4,1.89-3.4,3.4-1.89L24.37,5.9Z"/><polygon class="cls-16" points="24.37 9.68 22.48 13.08 20.59 9.68 17.19 7.79 20.59 5.9 24.37 9.68"/><path class="cls-12" d="M8.3,13.18,7.07,15.45,4.81,16.68,7.07,17.9,8.3,20.17,9.53,17.9l2.27-1.22L9.53,15.45Z"/><polygon class="cls-16" points="9.53 17.9 8.3 20.17 7.08 17.9 4.81 16.68 7.08 15.45 9.53 17.9"/><path class="cls-12" d="M49,8.74,47.8,11l-2.26,1.22,2.26,1.23L49,15.73l1.23-2.27,2.27-1.23L50.26,11Z"/><polygon class="cls-16" points="50.26 13.46 49.03 15.73 47.8 13.46 45.54 12.23 47.8 11.01 50.26 13.46"/><path class="cls-12" d="M48.56,30.85l-.76,1.42L46.39,33l1.41.76.76,1.42.76-1.42L50.73,33l-1.41-.75Z"/><polygon class="cls-16" points="49.32 33.78 48.56 35.2 47.8 33.78 46.39 33.02 47.8 32.27 49.32 33.78"/><path class="cls-12" d="M45.06,37.09l-1.13,2-2,1.14,2,1.13,1.13,2,1.14-2,2-1.13-2-1.14Z"/><polygon class="cls-16" points="46.2 41.34 45.06 43.33 43.93 41.34 41.95 40.21 43.93 39.07 46.2 41.34"/></svg>