<svg id="Layer_1" data-name="Layer 1" xmlns="http://www.w3.org/2000/svg" viewBox="0 0 60 60"><defs><style>.cls-1{fill:#fff;}.cls-2{fill:#918f91;}.cls-3{fill:#6a676b;}.cls-4{fill:#474448;}.cls-5{fill:#515151;}.cls-6{fill:#2d2d2d;}.cls-7{fill:#ffc850;}.cls-8{fill:#ffb719;}.cls-9{fill:#45dbff;}.cls-10{fill:#00baff;}</style></defs><rect class="cls-1" x="5.62" y="5.43" width="48.98" height="47.3"/><path class="cls-2" d="M47.13,6.11h-1.8v46h1.8Z"/><path class="cls-2" d="M53.89,13.32H6.11v1.8H53.89Z"/><path class="cls-2" d="M14.67,6.11h-1.8v46h1.8Z"/><path class="cls-3" d="M53.89,2.5H2.5v55H6.11V6.11H53.89V57.5H57.5V2.5Z"/><path class="cls-4" d="M6.11,49.39H2.5V57.5H6.11Z"/><path class="cls-4" d="M57.5,49.39H53.89V57.5H57.5Z"/><path class="cls-5" d="M53.89,2.5H2.5V4.3h55V2.5Z"/><path class="cls-4" d="M54.8,52.09H5.2A2.7,2.7,0,0,0,2.5,54.8v2.7h55V54.8A2.7,2.7,0,0,0,54.8,52.09Z"/><path class="cls-6" d="M57.5,55.7H2.5v1.8h55Z"/><path class="cls-7" d="M44.43,10.61a1.8,1.8,0,0,1,3.6,0,1.81,1.81,0,0,1,3.61,0v7.22a1.81,1.81,0,0,1-3.61,0,1.8,1.8,0,0,1-3.6,0,1.81,1.81,0,0,1-3.61,0,1.81,1.81,0,0,1-3.61,0,1.8,1.8,0,0,1-3.6,0,1.81,1.81,0,0,1-3.61,0,1.81,1.81,0,0,1-3.61,0,1.8,1.8,0,0,1-3.6,0,1.81,1.81,0,0,1-3.61,0,1.81,1.81,0,0,1-3.61,0,1.8,1.8,0,0,1-3.6,0,1.81,1.81,0,0,1-3.61,0V10.61a1.81,1.81,0,0,1,3.61,0,1.8,1.8,0,0,1,3.6,0,1.81,1.81,0,0,1,3.61,0,1.81,1.81,0,0,1,3.61,0,1.8,1.8,0,0,1,3.6,0,1.81,1.81,0,0,1,3.61,0,1.81,1.81,0,0,1,3.61,0,1.8,1.8,0,0,1,3.6,0,1.81,1.81,0,0,1,3.61,0,1.81,1.81,0,0,1,3.61,0Z"/><path class="cls-8" d="M12,18.28a.45.45,0,0,1-.45-.45V16a.45.45,0,0,1,.9,0v1.81A.45.45,0,0,1,12,18.28Z"/><path class="cls-8" d="M12,12.87a.45.45,0,0,1-.45-.45V10.61a.45.45,0,0,1,.9,0v1.81A.45.45,0,0,1,12,12.87Z"/><path class="cls-8" d="M15.57,18.28a.45.45,0,0,1-.45-.45V16a.45.45,0,0,1,.9,0v1.81A.45.45,0,0,1,15.57,18.28Z"/><path class="cls-8" d="M15.57,12.87a.45.45,0,0,1-.45-.45V10.61a.45.45,0,0,1,.9,0v1.81A.45.45,0,0,1,15.57,12.87Z"/><path class="cls-8" d="M19.18,18.28a.45.45,0,0,1-.45-.45V16a.45.45,0,0,1,.9,0v1.81A.45.45,0,0,1,19.18,18.28Z"/><path class="cls-8" d="M19.18,12.87a.45.45,0,0,1-.45-.45V10.61a.45.45,0,0,1,.9,0v1.81A.45.45,0,0,1,19.18,12.87Z"/><path class="cls-8" d="M22.79,18.28a.45.45,0,0,1-.45-.45V16a.45.45,0,0,1,.9,0v1.81A.45.45,0,0,1,22.79,18.28Z"/><path class="cls-8" d="M22.79,12.87a.45.45,0,0,1-.45-.45V10.61a.45.45,0,0,1,.9,0v1.81A.45.45,0,0,1,22.79,12.87Z"/><path class="cls-8" d="M26.39,18.28a.45.45,0,0,1-.45-.45V16a.45.45,0,0,1,.9,0v1.81A.45.45,0,0,1,26.39,18.28Z"/><path class="cls-8" d="M26.39,12.87a.45.45,0,0,1-.45-.45V10.61a.45.45,0,0,1,.9,0v1.81A.45.45,0,0,1,26.39,12.87Z"/><path class="cls-8" d="M30,18.28a.45.45,0,0,1-.45-.45V16a.45.45,0,0,1,.9,0v1.81A.45.45,0,0,1,30,18.28Z"/><path class="cls-8" d="M30,12.87a.45.45,0,0,1-.45-.45V10.61a.45.45,0,0,1,.9,0v1.81A.45.45,0,0,1,30,12.87Z"/><path class="cls-8" d="M33.61,18.28a.45.45,0,0,1-.45-.45V16a.45.45,0,0,1,.9,0v1.81A.45.45,0,0,1,33.61,18.28Z"/><path class="cls-8" d="M33.61,12.87a.45.45,0,0,1-.45-.45V10.61a.45.45,0,0,1,.9,0v1.81A.45.45,0,0,1,33.61,12.87Z"/><path class="cls-8" d="M37.21,18.28a.45.45,0,0,1-.45-.45V16a.45.45,0,1,1,.9,0v1.81A.45.45,0,0,1,37.21,18.28Z"/><path class="cls-8" d="M37.21,12.87a.45.45,0,0,1-.45-.45V10.61a.45.45,0,1,1,.9,0v1.81A.45.45,0,0,1,37.21,12.87Z"/><path class="cls-8" d="M40.82,18.28a.45.45,0,0,1-.45-.45V16a.45.45,0,0,1,.9,0v1.81A.45.45,0,0,1,40.82,18.28Z"/><path class="cls-8" d="M40.82,12.87a.45.45,0,0,1-.45-.45V10.61a.45.45,0,0,1,.9,0v1.81A.45.45,0,0,1,40.82,12.87Z"/><path class="cls-8" d="M44.43,18.28a.45.45,0,0,1-.45-.45V16a.45.45,0,0,1,.9,0v1.81A.45.45,0,0,1,44.43,18.28Z"/><path class="cls-8" d="M44.43,12.87a.45.45,0,0,1-.45-.45V10.61a.45.45,0,0,1,.9,0v1.81A.45.45,0,0,1,44.43,12.87Z"/><path class="cls-8" d="M48,18.28a.45.45,0,0,1-.45-.45V16a.45.45,0,1,1,.9,0v1.81A.45.45,0,0,1,48,18.28Z"/><path class="cls-8" d="M48,12.87a.45.45,0,0,1-.45-.45V10.61a.45.45,0,1,1,.9,0v1.81A.45.45,0,0,1,48,12.87Z"/><path class="cls-7" d="M17.38,24.14a1.81,1.81,0,0,1,0,3.61,1.8,1.8,0,0,1,0,3.6,1.81,1.81,0,0,1,0,3.61,1.81,1.81,0,0,1,0,3.61,1.8,1.8,0,1,1,0,3.6,1.81,1.81,0,0,1,0,3.61,1.81,1.81,0,0,1,0,3.61H10.16a1.81,1.81,0,0,1,0-3.61,1.81,1.81,0,0,1,0-3.61,1.8,1.8,0,1,1,0-3.6,1.81,1.81,0,0,1,0-3.61,1.81,1.81,0,0,1,0-3.61,1.8,1.8,0,0,1,0-3.6,1.81,1.81,0,0,1,0-3.61Z"/><path class="cls-8" d="M12,28.2H10.16a.46.46,0,0,1-.45-.45.45.45,0,0,1,.45-.45H12a.45.45,0,0,1,.45.45A.45.45,0,0,1,12,28.2Z"/><path class="cls-8" d="M17.38,28.2H15.57a.45.45,0,0,1-.45-.45.45.45,0,0,1,.45-.45h1.81a.45.45,0,0,1,.45.45A.45.45,0,0,1,17.38,28.2Z"/><path class="cls-8" d="M12,31.8H10.16a.45.45,0,0,1,0-.9H12a.45.45,0,0,1,0,.9Z"/><path class="cls-8" d="M17.38,31.8H15.57a.45.45,0,1,1,0-.9h1.81a.45.45,0,0,1,0,.9Z"/><path class="cls-8" d="M12,35.41H10.16a.45.45,0,0,1,0-.9H12a.45.45,0,1,1,0,.9Z"/><path class="cls-8" d="M17.38,35.41H15.57a.45.45,0,1,1,0-.9h1.81a.45.45,0,0,1,0,.9Z"/><path class="cls-8" d="M12,39H10.16a.46.46,0,0,1,0-.91H12A.46.46,0,0,1,12,39Z"/><path class="cls-8" d="M17.38,39H15.57a.46.46,0,0,1,0-.91h1.81a.46.46,0,0,1,0,.91Z"/><path class="cls-8" d="M12,42.62H10.16a.45.45,0,0,1,0-.9H12a.45.45,0,1,1,0,.9Z"/><path class="cls-8" d="M17.38,42.62H15.57a.45.45,0,1,1,0-.9h1.81a.45.45,0,0,1,0,.9Z"/><path class="cls-8" d="M12,46.23H10.16a.45.45,0,0,1,0-.9H12a.45.45,0,1,1,0,.9Z"/><path class="cls-8" d="M17.38,46.23H15.57a.45.45,0,1,1,0-.9h1.81a.45.45,0,0,1,0,.9Z"/><path class="cls-7" d="M49.84,24.14a1.81,1.81,0,0,1,0,3.61,1.8,1.8,0,0,1,0,3.6,1.81,1.81,0,0,1,0,3.61,1.81,1.81,0,0,1,0,3.61,1.8,1.8,0,0,1,0,3.6,1.81,1.81,0,0,1,0,3.61,1.81,1.81,0,0,1,0,3.61H42.62a1.81,1.81,0,0,1,0-3.61,1.81,1.81,0,0,1,0-3.61,1.8,1.8,0,1,1,0-3.6,1.81,1.81,0,0,1,0-3.61,1.81,1.81,0,0,1,0-3.61,1.8,1.8,0,1,1,0-3.6,1.81,1.81,0,0,1,0-3.61Z"/><path class="cls-8" d="M44.43,28.2H42.62a.45.45,0,0,1-.45-.45.45.45,0,0,1,.45-.45h1.81a.45.45,0,0,1,.45.45A.45.45,0,0,1,44.43,28.2Z"/><path class="cls-8" d="M49.84,28.2H48a.45.45,0,0,1-.45-.45A.45.45,0,0,1,48,27.3h1.81a.45.45,0,0,1,.45.45A.46.46,0,0,1,49.84,28.2Z"/><path class="cls-8" d="M44.43,31.8H42.62a.45.45,0,0,1,0-.9h1.81a.45.45,0,1,1,0,.9Z"/><path class="cls-8" d="M49.84,31.8H48a.45.45,0,1,1,0-.9h1.81a.45.45,0,0,1,0,.9Z"/><path class="cls-8" d="M44.43,35.41H42.62a.45.45,0,0,1,0-.9h1.81a.45.45,0,0,1,0,.9Z"/><path class="cls-8" d="M49.84,35.41H48a.45.45,0,0,1,0-.9h1.81a.45.45,0,0,1,0,.9Z"/><path class="cls-8" d="M44.43,39H42.62a.46.46,0,0,1,0-.91h1.81a.46.46,0,0,1,0,.91Z"/><path class="cls-8" d="M49.84,39H48a.46.46,0,0,1,0-.91h1.81a.46.46,0,0,1,0,.91Z"/><path class="cls-8" d="M44.43,42.62H42.62a.45.45,0,0,1,0-.9h1.81a.45.45,0,0,1,0,.9Z"/><path class="cls-8" d="M49.84,42.62H48a.45.45,0,0,1,0-.9h1.81a.45.45,0,0,1,0,.9Z"/><path class="cls-8" d="M44.43,46.23H42.62a.45.45,0,0,1,0-.9h1.81a.45.45,0,1,1,0,.9Z"/><path class="cls-8" d="M49.84,46.23H48a.45.45,0,0,1,0-.9h1.81a.45.45,0,0,1,0,.9Z"/><path class="cls-9" d="M27.61,28.89l.19.54a.1.1,0,0,0,0,.05l.48.22a.1.1,0,0,1,0,.17l-.48.21a.1.1,0,0,0,0,.05l-.19.55a.08.08,0,0,1-.15,0l-.2-.55a.07.07,0,0,0,0-.05l-.48-.21a.1.1,0,0,1,0-.17l.48-.22a.07.07,0,0,0,0-.05l.2-.54A.08.08,0,0,1,27.61,28.89Z"/><path class="cls-9" d="M34.75,27.34l.14.41s0,0,0,0l.35.16a.07.07,0,0,1,0,.13l-.35.16a.08.08,0,0,0,0,0l-.14.4a.06.06,0,0,1-.11,0l-.14-.4a.08.08,0,0,0,0,0l-.35-.16a.07.07,0,0,1,0-.13l.35-.16s0,0,0,0l.14-.41A.06.06,0,0,1,34.75,27.34Z"/><circle class="cls-9" cx="36.28" cy="30.23" r="0.42"/><circle class="cls-9" cx="29.07" cy="27.94" r="0.18"/><path class="cls-9" d="M36.47,36.55a4.78,4.78,0,0,1-9.55,0c0-3.55,4.78-8,4.78-8S36.47,33,36.47,36.55Z"/><path class="cls-10" d="M31.7,39.73A4.77,4.77,0,0,1,27,35.78a4.11,4.11,0,0,0-.08.77,4.78,4.78,0,0,0,9.55,0,4.11,4.11,0,0,0-.08-.77A4.76,4.76,0,0,1,31.7,39.73Z"/><path class="cls-9" d="M26.53,34.06a1.9,1.9,0,1,1-3.79,0c0-1.41,1.89-3.16,1.89-3.16S26.53,32.65,26.53,34.06Z"/><path class="cls-10" d="M24.63,35.32a1.88,1.88,0,0,1-1.86-1.57,1.71,1.71,0,0,0,0,.31,1.9,1.9,0,1,0,3.79,0c0-.1,0-.2,0-.31A1.89,1.89,0,0,1,24.63,35.32Z"/></svg>