<svg id="Layer_1" data-name="Layer 1" xmlns="http://www.w3.org/2000/svg" viewBox="0 0 60 60"><defs><style>.cls-1{fill:#45dbff;}.cls-2{fill:#00baff;}.cls-3{fill:#918f91;}.cls-4{fill:#515151;}.cls-5{fill:#6a676b;}.cls-6{fill:#fff;stroke:#fff;stroke-width:0.98px;}.cls-7{fill:#1b2533;}.cls-8{fill:none;}</style></defs><path class="cls-1" d="M46,9.38H14V50.62H46Z"/><rect class="cls-2" x="42.59" y="9.38" width="3.45" height="41.25"/><path class="cls-3" d="M14,6.17V9.38H46V6.17A3.67,3.67,0,0,0,42.37,2.5H17.63A3.67,3.67,0,0,0,14,6.17Z"/><path class="cls-3" d="M46,53.83V50.62H14v3.21a3.67,3.67,0,0,0,3.67,3.67H42.37A3.67,3.67,0,0,0,46,53.83Z"/><path class="cls-4" d="M32.75,55.89h-5.5a1.37,1.37,0,0,1-1.37-1.37V53.6a1.37,1.37,0,0,1,1.37-1.37h5.5a1.37,1.37,0,0,1,1.37,1.37v.92A1.37,1.37,0,0,1,32.75,55.89Z"/><path class="cls-4" d="M33.44,7.09H26.56a1.15,1.15,0,0,1,0-2.29h6.88a1.15,1.15,0,0,1,0,2.29Z"/><path class="cls-5" d="M46,6.17V9.38H42.59V6.17A3.67,3.67,0,0,0,38.92,2.5h3.45A3.67,3.67,0,0,1,46,6.17Z"/><path class="cls-5" d="M46,50.62v3.21a3.67,3.67,0,0,1-3.67,3.67H38.92a3.67,3.67,0,0,0,3.67-3.67V50.62Z"/><rect class="cls-6" x="20.71" y="20.71" width="18.58" height="18.58"/><rect class="cls-7" x="25.84" y="20.71" width="0.64" height="0.64"/><rect class="cls-7" x="26.48" y="20.71" width="0.64" height="0.64"/><rect class="cls-7" x="27.12" y="20.71" width="0.64" height="0.64"/><rect class="cls-7" x="29.04" y="20.71" width="0.64" height="0.64"/><rect class="cls-7" x="29.68" y="20.71" width="0.64" height="0.64"/><rect class="cls-7" x="30.32" y="20.71" width="0.64" height="0.64"/><rect class="cls-7" x="32.24" y="20.71" width="0.64" height="0.64"/><rect class="cls-7" x="25.84" y="21.35" width="0.64" height="0.64"/><rect class="cls-7" x="26.48" y="21.35" width="0.64" height="0.64"/><rect class="cls-7" x="27.12" y="21.35" width="0.64" height="0.64"/><rect class="cls-7" x="27.76" y="21.35" width="0.64" height="0.64"/><rect class="cls-7" x="28.4" y="21.35" width="0.64" height="0.64"/><rect class="cls-7" x="29.04" y="21.35" width="0.64" height="0.64"/><rect class="cls-7" x="29.68" y="21.35" width="0.64" height="0.64"/><rect class="cls-7" x="30.32" y="21.35" width="0.64" height="0.64"/><rect class="cls-7" x="31.6" y="21.35" width="0.64" height="0.64"/><rect class="cls-7" x="32.24" y="21.35" width="0.64" height="0.64"/><rect class="cls-7" x="32.88" y="21.35" width="0.64" height="0.64"/><rect class="cls-7" x="33.52" y="21.35" width="0.64" height="0.64"/><rect class="cls-7" x="25.84" y="21.99" width="0.64" height="0.64"/><rect class="cls-7" x="26.48" y="21.99" width="0.64" height="0.64"/><rect class="cls-7" x="27.12" y="21.99" width="0.64" height="0.64"/><rect class="cls-7" x="27.76" y="21.99" width="0.64" height="0.64"/><rect class="cls-7" x="29.04" y="21.99" width="0.64" height="0.64"/><rect class="cls-7" x="29.68" y="21.99" width="0.64" height="0.64"/><rect class="cls-7" x="33.52" y="21.99" width="0.64" height="0.64"/><rect class="cls-7" x="26.48" y="22.63" width="0.64" height="0.64"/><rect class="cls-7" x="27.12" y="22.63" width="0.64" height="0.64"/><rect class="cls-7" x="27.76" y="22.63" width="0.64" height="0.64"/><rect class="cls-7" x="28.4" y="22.63" width="0.64" height="0.64"/><rect class="cls-7" x="29.68" y="22.63" width="0.64" height="0.64"/><rect class="cls-7" x="30.32" y="22.63" width="0.64" height="0.64"/><rect class="cls-7" x="31.6" y="22.63" width="0.64" height="0.64"/><rect class="cls-7" x="32.88" y="22.63" width="0.64" height="0.64"/><rect class="cls-7" x="33.52" y="22.63" width="0.64" height="0.64"/><rect class="cls-7" x="25.84" y="23.27" width="0.64" height="0.64"/><rect class="cls-7" x="26.48" y="23.27" width="0.64" height="0.64"/><rect class="cls-7" x="27.12" y="23.27" width="0.64" height="0.64"/><rect class="cls-7" x="28.4" y="23.27" width="0.64" height="0.64"/><rect class="cls-7" x="29.04" y="23.27" width="0.64" height="0.64"/><rect class="cls-7" x="30.32" y="23.27" width="0.64" height="0.64"/><rect class="cls-7" x="31.6" y="23.27" width="0.64" height="0.64"/><rect class="cls-7" x="32.24" y="23.27" width="0.64" height="0.64"/><rect class="cls-7" x="32.88" y="23.27" width="0.64" height="0.64"/><rect class="cls-7" x="26.48" y="23.91" width="0.64" height="0.64"/><rect class="cls-7" x="29.04" y="23.91" width="0.64" height="0.64"/><rect class="cls-7" x="29.68" y="23.91" width="0.64" height="0.64"/><rect class="cls-7" x="31.6" y="23.91" width="0.64" height="0.64"/><rect class="cls-7" x="33.52" y="23.91" width="0.64" height="0.64"/><rect class="cls-7" x="25.84" y="24.55" width="0.64" height="0.64"/><rect class="cls-7" x="27.12" y="24.55" width="0.64" height="0.64"/><rect class="cls-7" x="28.4" y="24.55" width="0.64" height="0.64"/><rect class="cls-7" x="29.68" y="24.55" width="0.64" height="0.64"/><rect class="cls-7" x="30.96" y="24.55" width="0.64" height="0.64"/><rect class="cls-7" x="32.24" y="24.55" width="0.64" height="0.64"/><rect class="cls-7" x="33.52" y="24.55" width="0.64" height="0.64"/><rect class="cls-7" x="26.48" y="25.2" width="0.64" height="0.64"/><rect class="cls-7" x="28.4" y="25.2" width="0.64" height="0.64"/><rect class="cls-7" x="29.68" y="25.2" width="0.64" height="0.64"/><rect class="cls-7" x="20.71" y="25.84" width="0.64" height="0.64"/><rect class="cls-7" x="22.63" y="25.84" width="0.64" height="0.64"/><rect class="cls-7" x="23.27" y="25.84" width="0.64" height="0.64"/><rect class="cls-7" x="23.91" y="25.84" width="0.64" height="0.64"/><rect class="cls-7" x="24.55" y="25.84" width="0.64" height="0.64"/><rect class="cls-7" x="25.2" y="25.84" width="0.64" height="0.64"/><rect class="cls-7" x="25.84" y="25.84" width="0.64" height="0.64"/><rect class="cls-7" x="26.48" y="25.84" width="0.64" height="0.64"/><rect class="cls-7" x="28.4" y="25.84" width="0.64" height="0.64"/><rect class="cls-7" x="29.04" y="25.84" width="0.64" height="0.64"/><rect class="cls-7" x="29.68" y="25.84" width="0.64" height="0.64"/><rect class="cls-7" x="30.32" y="25.84" width="0.64" height="0.64"/><rect class="cls-7" x="30.96" y="25.84" width="0.64" height="0.64"/><rect class="cls-7" x="31.6" y="25.84" width="0.64" height="0.64"/><rect class="cls-7" x="34.16" y="25.84" width="0.64" height="0.64"/><rect class="cls-7" x="36.09" y="25.84" width="0.64" height="0.64"/><rect class="cls-7" x="37.37" y="25.84" width="0.64" height="0.64"/><rect class="cls-7" x="38.01" y="25.84" width="0.64" height="0.64"/><rect class="cls-7" x="38.65" y="25.84" width="0.64" height="0.64"/><rect class="cls-7" x="20.71" y="26.48" width="0.64" height="0.64"/><rect class="cls-7" x="21.99" y="26.48" width="0.64" height="0.64"/><rect class="cls-7" x="25.84" y="26.48" width="0.64" height="0.64"/><rect class="cls-7" x="28.4" y="26.48" width="0.64" height="0.64"/><rect class="cls-7" x="29.68" y="26.48" width="0.64" height="0.64"/><rect class="cls-7" x="31.6" y="26.48" width="0.64" height="0.64"/><rect class="cls-7" x="32.88" y="26.48" width="0.64" height="0.64"/><rect class="cls-7" x="34.16" y="26.48" width="0.64" height="0.64"/><rect class="cls-7" x="35.45" y="26.48" width="0.64" height="0.64"/><rect class="cls-7" x="36.09" y="26.48" width="0.64" height="0.64"/><rect class="cls-7" x="37.37" y="26.48" width="0.64" height="0.64"/><rect class="cls-7" x="38.01" y="26.48" width="0.64" height="0.64"/><rect class="cls-7" x="21.35" y="27.12" width="0.64" height="0.64"/><rect class="cls-7" x="21.99" y="27.12" width="0.64" height="0.64"/><rect class="cls-7" x="23.27" y="27.12" width="0.64" height="0.64"/><rect class="cls-7" x="23.91" y="27.12" width="0.64" height="0.64"/><rect class="cls-7" x="24.55" y="27.12" width="0.64" height="0.64"/><rect class="cls-7" x="26.48" y="27.12" width="0.64" height="0.64"/><rect class="cls-7" x="27.12" y="27.12" width="0.64" height="0.64"/><rect class="cls-7" x="29.68" y="27.12" width="0.64" height="0.64"/><rect class="cls-7" x="31.6" y="27.12" width="0.64" height="0.64"/><rect class="cls-7" x="32.24" y="27.12" width="0.64" height="0.64"/><rect class="cls-7" x="34.16" y="27.12" width="0.64" height="0.64"/><rect class="cls-7" x="35.45" y="27.12" width="0.64" height="0.64"/><rect class="cls-7" x="37.37" y="27.12" width="0.64" height="0.64"/><rect class="cls-7" x="22.63" y="27.76" width="0.64" height="0.64"/><rect class="cls-7" x="23.27" y="27.76" width="0.64" height="0.64"/><rect class="cls-7" x="25.84" y="27.76" width="0.64" height="0.64"/><rect class="cls-7" x="26.48" y="27.76" width="0.64" height="0.64"/><rect class="cls-7" x="27.12" y="27.76" width="0.64" height="0.64"/><rect class="cls-7" x="29.68" y="27.76" width="0.64" height="0.64"/><rect class="cls-7" x="30.32" y="27.76" width="0.64" height="0.64"/><rect class="cls-7" x="31.6" y="27.76" width="0.64" height="0.64"/><rect class="cls-7" x="33.52" y="27.76" width="0.64" height="0.64"/><rect class="cls-7" x="34.16" y="27.76" width="0.64" height="0.64"/><rect class="cls-7" x="34.8" y="27.76" width="0.64" height="0.64"/><rect class="cls-7" x="36.73" y="27.76" width="0.64" height="0.64"/><rect class="cls-7" x="38.65" y="27.76" width="0.64" height="0.64"/><rect class="cls-7" x="20.71" y="28.4" width="0.64" height="0.64"/><rect class="cls-7" x="21.35" y="28.4" width="0.64" height="0.64"/><rect class="cls-7" x="21.99" y="28.4" width="0.64" height="0.64"/><rect class="cls-7" x="22.63" y="28.4" width="0.64" height="0.64"/><rect class="cls-7" x="24.55" y="28.4" width="0.64" height="0.64"/><rect class="cls-7" x="27.12" y="28.4" width="0.64" height="0.64"/><rect class="cls-7" x="28.4" y="28.4" width="0.64" height="0.64"/><rect class="cls-7" x="29.04" y="28.4" width="0.64" height="0.64"/><rect class="cls-7" x="29.68" y="28.4" width="0.64" height="0.64"/><rect class="cls-7" x="32.24" y="28.4" width="0.64" height="0.64"/><rect class="cls-7" x="33.52" y="28.4" width="0.64" height="0.64"/><rect class="cls-7" x="34.8" y="28.4" width="0.64" height="0.64"/><rect class="cls-7" x="35.45" y="28.4" width="0.64" height="0.64"/><rect class="cls-7" x="38.65" y="28.4" width="0.64" height="0.64"/><rect class="cls-7" x="21.99" y="29.04" width="0.64" height="0.64"/><rect class="cls-7" x="27.76" y="29.04" width="0.64" height="0.64"/><rect class="cls-7" x="28.4" y="29.04" width="0.64" height="0.64"/><rect class="cls-7" x="31.6" y="29.04" width="0.64" height="0.64"/><rect class="cls-7" x="32.24" y="29.04" width="0.64" height="0.64"/><rect class="cls-7" x="34.16" y="29.04" width="0.64" height="0.64"/><rect class="cls-7" x="34.8" y="29.04" width="0.64" height="0.64"/><rect class="cls-7" x="36.09" y="29.04" width="0.64" height="0.64"/><rect class="cls-7" x="36.73" y="29.04" width="0.64" height="0.64"/><rect class="cls-7" x="37.37" y="29.04" width="0.64" height="0.64"/><rect class="cls-7" x="38.01" y="29.04" width="0.64" height="0.64"/><rect class="cls-7" x="38.65" y="29.04" width="0.64" height="0.64"/><rect class="cls-7" x="21.35" y="29.68" width="0.64" height="0.64"/><rect class="cls-7" x="23.91" y="29.68" width="0.64" height="0.64"/><rect class="cls-7" x="24.55" y="29.68" width="0.64" height="0.64"/><rect class="cls-7" x="25.2" y="29.68" width="0.64" height="0.64"/><rect class="cls-7" x="25.84" y="29.68" width="0.64" height="0.64"/><rect class="cls-7" x="27.12" y="29.68" width="0.64" height="0.64"/><rect class="cls-7" x="29.68" y="29.68" width="0.64" height="0.64"/><rect class="cls-7" x="30.32" y="29.68" width="0.64" height="0.64"/><rect class="cls-7" x="31.6" y="29.68" width="0.64" height="0.64"/><rect class="cls-7" x="32.88" y="29.68" width="0.64" height="0.64"/><rect class="cls-7" x="33.52" y="29.68" width="0.64" height="0.64"/><rect class="cls-7" x="34.16" y="29.68" width="0.64" height="0.64"/><rect class="cls-7" x="34.8" y="29.68" width="0.64" height="0.64"/><rect class="cls-7" x="35.45" y="29.68" width="0.64" height="0.64"/><rect class="cls-7" x="37.37" y="29.68" width="0.64" height="0.64"/><rect class="cls-7" x="38.65" y="29.68" width="0.64" height="0.64"/><rect class="cls-7" x="20.71" y="30.32" width="0.64" height="0.64"/><rect class="cls-7" x="21.35" y="30.32" width="0.64" height="0.64"/><rect class="cls-7" x="23.27" y="30.32" width="0.64" height="0.64"/><rect class="cls-7" x="25.2" y="30.32" width="0.64" height="0.64"/><rect class="cls-7" x="26.48" y="30.32" width="0.64" height="0.64"/><rect class="cls-7" x="27.12" y="30.32" width="0.64" height="0.64"/><rect class="cls-7" x="29.04" y="30.32" width="0.64" height="0.64"/><rect class="cls-7" x="29.68" y="30.32" width="0.64" height="0.64"/><rect class="cls-7" x="30.96" y="30.32" width="0.64" height="0.64"/><rect class="cls-7" x="32.24" y="30.32" width="0.64" height="0.64"/><rect class="cls-7" x="35.45" y="30.32" width="0.64" height="0.64"/><rect class="cls-7" x="36.09" y="30.32" width="0.64" height="0.64"/><rect class="cls-7" x="37.37" y="30.32" width="0.64" height="0.64"/><rect class="cls-7" x="38.65" y="30.32" width="0.64" height="0.64"/><rect class="cls-7" x="23.27" y="30.96" width="0.64" height="0.64"/><rect class="cls-7" x="24.55" y="30.96" width="0.64" height="0.64"/><rect class="cls-7" x="28.4" y="30.96" width="0.64" height="0.64"/><rect class="cls-7" x="30.32" y="30.96" width="0.64" height="0.64"/><rect class="cls-7" x="32.88" y="30.96" width="0.64" height="0.64"/><rect class="cls-7" x="33.52" y="30.96" width="0.64" height="0.64"/><rect class="cls-7" x="36.73" y="30.96" width="0.64" height="0.64"/><rect class="cls-7" x="20.71" y="31.6" width="0.64" height="0.64"/><rect class="cls-7" x="22.63" y="31.6" width="0.64" height="0.64"/><rect class="cls-7" x="25.84" y="31.6" width="0.64" height="0.64"/><rect class="cls-7" x="26.48" y="31.6" width="0.64" height="0.64"/><rect class="cls-7" x="31.6" y="31.6" width="0.64" height="0.64"/><rect class="cls-7" x="32.24" y="31.6" width="0.64" height="0.64"/><rect class="cls-7" x="32.88" y="31.6" width="0.64" height="0.64"/><rect class="cls-7" x="36.09" y="31.6" width="0.64" height="0.64"/><rect class="cls-7" x="37.37" y="31.6" width="0.64" height="0.64"/><rect class="cls-7" x="38.01" y="31.6" width="0.64" height="0.64"/><rect class="cls-7" x="20.71" y="32.24" width="0.64" height="0.64"/><rect class="cls-7" x="21.35" y="32.24" width="0.64" height="0.64"/><rect class="cls-7" x="21.99" y="32.24" width="0.64" height="0.64"/><rect class="cls-7" x="24.55" y="32.24" width="0.64" height="0.64"/><rect class="cls-7" x="25.2" y="32.24" width="0.64" height="0.64"/><rect class="cls-7" x="26.48" y="32.24" width="0.64" height="0.64"/><rect class="cls-7" x="27.12" y="32.24" width="0.64" height="0.64"/><rect class="cls-7" x="29.04" y="32.24" width="0.64" height="0.64"/><rect class="cls-7" x="29.68" y="32.24" width="0.64" height="0.64"/><rect class="cls-7" x="30.96" y="32.24" width="0.64" height="0.64"/><rect class="cls-7" x="32.24" y="32.24" width="0.64" height="0.64"/><rect class="cls-7" x="32.88" y="32.24" width="0.64" height="0.64"/><rect class="cls-7" x="34.16" y="32.24" width="0.64" height="0.64"/><rect class="cls-7" x="34.8" y="32.24" width="0.64" height="0.64"/><rect class="cls-7" x="36.73" y="32.24" width="0.64" height="0.64"/><rect class="cls-7" x="38.65" y="32.24" width="0.64" height="0.64"/><rect class="cls-7" x="20.71" y="32.88" width="0.64" height="0.64"/><rect class="cls-7" x="21.35" y="32.88" width="0.64" height="0.64"/><rect class="cls-7" x="23.27" y="32.88" width="0.64" height="0.64"/><rect class="cls-7" x="23.91" y="32.88" width="0.64" height="0.64"/><rect class="cls-7" x="25.2" y="32.88" width="0.64" height="0.64"/><rect class="cls-7" x="25.84" y="32.88" width="0.64" height="0.64"/><rect class="cls-7" x="26.48" y="32.88" width="0.64" height="0.64"/><rect class="cls-7" x="27.12" y="32.88" width="0.64" height="0.64"/><rect class="cls-7" x="27.76" y="32.88" width="0.64" height="0.64"/><rect class="cls-7" x="29.04" y="32.88" width="0.64" height="0.64"/><rect class="cls-7" x="30.32" y="32.88" width="0.64" height="0.64"/><rect class="cls-7" x="30.96" y="32.88" width="0.64" height="0.64"/><rect class="cls-7" x="32.88" y="32.88" width="0.64" height="0.64"/><rect class="cls-7" x="34.16" y="32.88" width="0.64" height="0.64"/><rect class="cls-7" x="34.8" y="32.88" width="0.64" height="0.64"/><rect class="cls-7" x="35.45" y="32.88" width="0.64" height="0.64"/><rect class="cls-7" x="36.09" y="32.88" width="0.64" height="0.64"/><rect class="cls-7" x="36.73" y="32.88" width="0.64" height="0.64"/><rect class="cls-7" x="37.37" y="32.88" width="0.64" height="0.64"/><rect class="cls-7" x="20.71" y="33.52" width="0.64" height="0.64"/><rect class="cls-7" x="21.35" y="33.52" width="0.64" height="0.64"/><rect class="cls-7" x="21.99" y="33.52" width="0.64" height="0.64"/><rect class="cls-7" x="23.91" y="33.52" width="0.64" height="0.64"/><rect class="cls-7" x="24.55" y="33.52" width="0.64" height="0.64"/><rect class="cls-7" x="26.48" y="33.52" width="0.64" height="0.64"/><rect class="cls-7" x="27.12" y="33.52" width="0.64" height="0.64"/><rect class="cls-7" x="28.4" y="33.52" width="0.64" height="0.64"/><rect class="cls-7" x="29.04" y="33.52" width="0.64" height="0.64"/><rect class="cls-7" x="31.6" y="33.52" width="0.64" height="0.64"/><rect class="cls-7" x="32.88" y="33.52" width="0.64" height="0.64"/><rect class="cls-7" x="33.52" y="33.52" width="0.64" height="0.64"/><rect class="cls-7" x="34.16" y="33.52" width="0.64" height="0.64"/><rect class="cls-7" x="34.8" y="33.52" width="0.64" height="0.64"/><rect class="cls-7" x="35.45" y="33.52" width="0.64" height="0.64"/><rect class="cls-7" x="36.09" y="33.52" width="0.64" height="0.64"/><rect class="cls-7" x="36.73" y="33.52" width="0.64" height="0.64"/><rect class="cls-7" x="37.37" y="33.52" width="0.64" height="0.64"/><rect class="cls-7" x="38.01" y="33.52" width="0.64" height="0.64"/><rect class="cls-7" x="25.84" y="34.16" width="0.64" height="0.64"/><rect class="cls-7" x="27.76" y="34.16" width="0.64" height="0.64"/><rect class="cls-7" x="29.04" y="34.16" width="0.64" height="0.64"/><rect class="cls-7" x="30.96" y="34.16" width="0.64" height="0.64"/><rect class="cls-7" x="31.6" y="34.16" width="0.64" height="0.64"/><rect class="cls-7" x="32.24" y="34.16" width="0.64" height="0.64"/><rect class="cls-7" x="33.52" y="34.16" width="0.64" height="0.64"/><rect class="cls-7" x="36.09" y="34.16" width="0.64" height="0.64"/><rect class="cls-7" x="36.73" y="34.16" width="0.64" height="0.64"/><rect class="cls-7" x="25.84" y="34.8" width="0.64" height="0.64"/><rect class="cls-7" x="29.04" y="34.8" width="0.64" height="0.64"/><rect class="cls-7" x="30.32" y="34.8" width="0.64" height="0.64"/><rect class="cls-7" x="30.96" y="34.8" width="0.64" height="0.64"/><rect class="cls-7" x="32.88" y="34.8" width="0.64" height="0.64"/><rect class="cls-7" x="33.52" y="34.8" width="0.64" height="0.64"/><rect class="cls-7" x="34.8" y="34.8" width="0.64" height="0.64"/><rect class="cls-7" x="36.09" y="34.8" width="0.64" height="0.64"/><rect class="cls-7" x="36.73" y="34.8" width="0.64" height="0.64"/><rect class="cls-7" x="25.84" y="35.45" width="0.64" height="0.64"/><rect class="cls-7" x="26.48" y="35.45" width="0.64" height="0.64"/><rect class="cls-7" x="27.12" y="35.45" width="0.64" height="0.64"/><rect class="cls-7" x="28.4" y="35.45" width="0.64" height="0.64"/><rect class="cls-7" x="29.04" y="35.45" width="0.64" height="0.64"/><rect class="cls-7" x="30.96" y="35.45" width="0.64" height="0.64"/><rect class="cls-7" x="31.6" y="35.45" width="0.64" height="0.64"/><rect class="cls-7" x="32.88" y="35.45" width="0.64" height="0.64"/><rect class="cls-7" x="33.52" y="35.45" width="0.64" height="0.64"/><rect class="cls-7" x="36.09" y="35.45" width="0.64" height="0.64"/><rect class="cls-7" x="38.01" y="35.45" width="0.64" height="0.64"/><rect class="cls-7" x="38.65" y="35.45" width="0.64" height="0.64"/><rect class="cls-7" x="25.84" y="36.09" width="0.64" height="0.64"/><rect class="cls-7" x="27.76" y="36.09" width="0.64" height="0.64"/><rect class="cls-7" x="28.4" y="36.09" width="0.64" height="0.64"/><rect class="cls-7" x="29.04" y="36.09" width="0.64" height="0.64"/><rect class="cls-7" x="30.32" y="36.09" width="0.64" height="0.64"/><rect class="cls-7" x="30.96" y="36.09" width="0.64" height="0.64"/><rect class="cls-7" x="32.88" y="36.09" width="0.64" height="0.64"/><rect class="cls-7" x="33.52" y="36.09" width="0.64" height="0.64"/><rect class="cls-7" x="34.16" y="36.09" width="0.64" height="0.64"/><rect class="cls-7" x="34.8" y="36.09" width="0.64" height="0.64"/><rect class="cls-7" x="35.45" y="36.09" width="0.64" height="0.64"/><rect class="cls-7" x="36.09" y="36.09" width="0.64" height="0.64"/><rect class="cls-7" x="36.73" y="36.09" width="0.64" height="0.64"/><rect class="cls-7" x="25.84" y="36.73" width="0.64" height="0.64"/><rect class="cls-7" x="28.4" y="36.73" width="0.64" height="0.64"/><rect class="cls-7" x="29.04" y="36.73" width="0.64" height="0.64"/><rect class="cls-7" x="29.68" y="36.73" width="0.64" height="0.64"/><rect class="cls-7" x="30.96" y="36.73" width="0.64" height="0.64"/><rect class="cls-7" x="31.6" y="36.73" width="0.64" height="0.64"/><rect class="cls-7" x="32.24" y="36.73" width="0.64" height="0.64"/><rect class="cls-7" x="32.88" y="36.73" width="0.64" height="0.64"/><rect class="cls-7" x="33.52" y="36.73" width="0.64" height="0.64"/><rect class="cls-7" x="34.16" y="36.73" width="0.64" height="0.64"/><rect class="cls-7" x="35.45" y="36.73" width="0.64" height="0.64"/><rect class="cls-7" x="38.01" y="36.73" width="0.64" height="0.64"/><rect class="cls-7" x="27.12" y="37.37" width="0.64" height="0.64"/><rect class="cls-7" x="29.04" y="37.37" width="0.64" height="0.64"/><rect class="cls-7" x="30.96" y="37.37" width="0.64" height="0.64"/><rect class="cls-7" x="34.16" y="37.37" width="0.64" height="0.64"/><rect class="cls-7" x="35.45" y="37.37" width="0.64" height="0.64"/><rect class="cls-7" x="36.09" y="37.37" width="0.64" height="0.64"/><rect class="cls-7" x="37.37" y="37.37" width="0.64" height="0.64"/><rect class="cls-7" x="38.01" y="37.37" width="0.64" height="0.64"/><rect class="cls-7" x="38.65" y="37.37" width="0.64" height="0.64"/><rect class="cls-7" x="27.76" y="38.01" width="0.64" height="0.64"/><rect class="cls-7" x="29.04" y="38.01" width="0.64" height="0.64"/><rect class="cls-7" x="30.32" y="38.01" width="0.64" height="0.64"/><rect class="cls-7" x="34.16" y="38.01" width="0.64" height="0.64"/><rect class="cls-7" x="35.45" y="38.01" width="0.64" height="0.64"/><rect class="cls-7" x="36.73" y="38.01" width="0.64" height="0.64"/><rect class="cls-7" x="37.37" y="38.01" width="0.64" height="0.64"/><rect class="cls-7" x="38.65" y="38.01" width="0.64" height="0.64"/><rect class="cls-7" x="25.84" y="38.65" width="0.64" height="0.64"/><rect class="cls-7" x="27.76" y="38.65" width="0.64" height="0.64"/><rect class="cls-7" x="28.4" y="38.65" width="0.64" height="0.64"/><rect class="cls-7" x="31.6" y="38.65" width="0.64" height="0.64"/><rect class="cls-7" x="32.24" y="38.65" width="0.64" height="0.64"/><rect class="cls-7" x="32.88" y="38.65" width="0.64" height="0.64"/><rect class="cls-7" x="33.52" y="38.65" width="0.64" height="0.64"/><rect class="cls-7" x="34.8" y="38.65" width="0.64" height="0.64"/><rect class="cls-7" x="36.09" y="38.65" width="0.64" height="0.64"/><rect class="cls-7" x="36.73" y="38.65" width="0.64" height="0.64"/><rect class="cls-8" x="21.38" y="21.38" width="3.14" height="3.14"/><path class="cls-7" d="M24.52,20.71H20.71V25.2H25.2V20.71Zm0,3.81H21.38V21.38h3.14Z"/><rect class="cls-8" x="35.48" y="21.38" width="3.14" height="3.14"/><path class="cls-7" d="M38.62,20.71H34.8V25.2h4.49V20.71Zm0,3.81H35.48V21.38h3.14Z"/><rect class="cls-8" x="21.38" y="35.48" width="3.14" height="3.14"/><path class="cls-7" d="M24.52,34.8H20.71v4.49H25.2V34.8Zm0,3.82H21.38V35.48h3.14Z"/><rect class="cls-7" x="21.99" y="21.99" width="1.92" height="1.92"/><rect class="cls-7" x="36.09" y="21.99" width="1.92" height="1.92"/><rect class="cls-7" x="21.99" y="36.09" width="1.92" height="1.92"/></svg>