<?xml version="1.0" encoding="utf-8"?>
<!-- Generator: Adobe Illustrator 24.3.0, SVG Export Plug-In . SVG Version: 6.00 Build 0)  -->
<svg version="1.1" id="Layer_1" xmlns="http://www.w3.org/2000/svg" xmlns:xlink="http://www.w3.org/1999/xlink" x="0px" y="0px"
	 viewBox="0 0 60 60" style="enable-background:new 0 0 60 60;" xml:space="preserve">
<style type="text/css">
	.st0{fill:#F1C40F;}
	.st1{fill:#F39C12;}
	.st2{fill:#3498DB;}
	.st3{fill:#2772A4;}
	.st4{fill:#FFF5AE;}
	.st5{fill:#FFE783;}
	.st6{fill:#2C3E50;}
	.st7{fill:#1B2533;}
	.st8{fill:#DBDBDB;}
	.st9{fill:#FF6565;}
	.st10{fill:#FFFFFF;stroke:#FFFFFF;stroke-width:0.96;}
	.st11{fill:#FF4242;}
	.st12{fill:#FF8585;}
</style>
<path class="st0" d="M58.2,2.5h-8.7c-8,0-15.5,4.1-19.8,10.9l-3.9,6.2l-17.4,7c-3.1,1.3-5.1,4.2-5.1,7.5v5.3c0,4.5,3.6,8.1,8.1,8.1
	l0,0h46.8V2.5z"/>
<path class="st1" d="M3.3,37.7v1.8c0,4.5,3.6,8.1,8.1,8.1c0,0,0,0,0,0h46.8v-1.8H11.4C6.9,45.8,3.3,42.2,3.3,37.7z"/>
<path class="st1" d="M49.5,2.5c-8,0-15.5,4.1-19.8,10.9l-3.9,6.2l-17.4,7c-3.1,1.3-5.1,4.2-5.1,7.5v1.8c0-3.3,2-6.3,5.1-7.5l17.5-7
	l3.9-6.2C34,8.4,41.5,4.3,49.5,4.3h8.7V2.5H49.5z"/>
<path class="st2" d="M32.1,16.3l-0.3,0.6c-0.5,0.9-0.2,2,0.7,2.5c0.3,0.2,0.6,0.2,0.9,0.2h24.8V5.4l-7-0.1
	C43.3,5.2,36,9.4,32.1,16.3z"/>
<path class="st3" d="M51.2,5.3c-7.9-0.1-15.2,4.1-19.1,11l-0.3,0.6c-0.3,0.6-0.3,1.2,0,1.8l0.3-0.6c3.9-6.8,11.2-11,19.1-10.9l7,0.1
	V5.4L51.2,5.3z"/>
<path class="st4" d="M10.4,27.7h-4c-1.6,1.3-2.7,3.2-3,5.2c0,0.2-0.1,0.5-0.1,0.7v2.1h5.6c1,0,1.9-0.5,2.4-1.4l1.5-2.7
	c0.7-1.3,0.2-3-1.1-3.7C11.3,27.8,10.9,27.7,10.4,27.7z"/>
<path class="st5" d="M6.4,29.5h4c1.1,0,2.2,0.7,2.6,1.8c0.5-1.4-0.3-3-1.7-3.5c-0.3-0.1-0.5-0.1-0.8-0.1h-4c-1.6,1.3-2.7,3.2-3,5.2
	c-0.1,0.6-0.1,1.8-0.1,1.8C3.7,32.6,4.8,30.8,6.4,29.5z"/>
<path class="st6" d="M28.5,57.4c6.2,0,11.3-5,11.4-11.2c0-6.2-5-11.3-11.2-11.4s-11.3,5-11.4,11.2c0,0,0,0.1,0,0.1
	C17.3,52.3,22.3,57.4,28.5,57.4z"/>
<path class="st6" d="M28.5,55.6c-5.9,0-10.7-4.5-11.2-10.3c0,0.3-0.1,0.6-0.1,0.9c0,6.2,5,11.3,11.3,11.3s11.3-5,11.3-11.3
	c0-0.3,0-0.6-0.1-0.9C39.3,51.1,34.4,55.7,28.5,55.6z"/>
<path class="st7" d="M28.5,36.7c5.9,0,10.7,4.5,11.2,10.3c0-0.3,0.1-0.6,0.1-0.9c0-6.2-5-11.2-11.2-11.2s-11.2,5-11.2,11.2
	c0,0,0,0,0,0c0,0.3,0,0.6,0.1,0.9C17.8,41.3,22.6,36.8,28.5,36.7z"/>
<path class="st8" d="M28.5,51.6c3,0,5.4-2.4,5.4-5.4s-2.4-5.4-5.4-5.4S23,43.1,23,46.1C23.1,49.1,25.5,51.5,28.5,51.6z"/>
<path class="st8" d="M5.3,46.5c4,1,8.1,1.8,12.3,2.2c-0.2-0.8-0.3-1.7-0.2-2.5c0-1.3,0.3-2.6,0.7-3.8c-7.8-0.6-13.6-1.6-15.3-2.9
	C0.5,41.1,2.7,45.8,5.3,46.5z"/>
<path class="st9" d="M15.7,27.9c6.6,0,11.9-5.3,11.9-11.9C27.7,9.4,22.3,4,15.7,4S3.8,9.4,3.8,16c0,0,0,0,0,0
	C3.8,22.6,9.1,27.9,15.7,27.9z"/>
<rect x="9.5" y="14.5" class="st10" width="12.5" height="2.9"/>
<path class="st11" d="M15.7,26.3c-6.2,0-11.4-4.8-11.9-11c0,0.3,0,0.6,0,1C4,22.9,9.5,28.1,16.1,27.9c6.3-0.2,11.4-5.3,11.6-11.6
	c0-0.3,0-0.6,0-1C27.2,21.5,22,26.4,15.7,26.3z"/>
<path class="st12" d="M15.7,6.7c6.2,0,11.4,4.8,11.9,11c0-0.3,0-0.6,0-1C28,10.1,23,4.5,16.4,4C9.9,3.6,4.2,8.6,3.8,15.2
	c0,0.5,0,1,0,1.5c0,0.3,0,0.6,0,1C4.3,11.5,9.5,6.7,15.7,6.7z"/>
</svg>
