<svg id="Layer_1" data-name="Layer 1" xmlns="http://www.w3.org/2000/svg" viewBox="0 0 60 60"><defs><style>.cls-1{fill:#f1c40f;}.cls-2{fill:#f39c12;}.cls-3{fill:#3498db;}.cls-4{fill:#2772a4;}.cls-5{fill:#fff5ae;}.cls-6{fill:#ffe783;}.cls-7{fill:#2c3e50;}.cls-8{fill:#1b2533;}.cls-9{fill:#dbdbdb;}.cls-10{fill:#94cc49;}.cls-11{fill:#6e9f2d;}.cls-12{fill:#bde08f;}.cls-13{fill:#d1f6ff;}.cls-14{fill:#99ebff;}</style></defs><path class="cls-1" d="M58.22,2.5H49.49A23.54,23.54,0,0,0,29.66,13.43l-3.9,6.19-17.37,7a8.21,8.21,0,0,0-5.08,7.54v5.34a8.13,8.13,0,0,0,8.13,8.13H58.22Z"/><path class="cls-2" d="M3.31,37.67v1.78a8.13,8.13,0,0,0,8.13,8.13H58.22V45.81H11.44A8.14,8.14,0,0,1,3.31,37.67Z"/><path class="cls-2" d="M49.49,2.5A23.54,23.54,0,0,0,29.66,13.43l-3.9,6.19-17.37,7a8.21,8.21,0,0,0-5.08,7.54v1.78a8.2,8.2,0,0,1,5.08-7.54l17.46-7,3.9-6.19A23.38,23.38,0,0,1,49.49,4.28h8.73V2.5Z"/><path class="cls-3" d="M32.12,16.31l-.34.6a1.82,1.82,0,0,0,1.61,2.71H58.22V5.38l-7-.08A21.68,21.68,0,0,0,32.12,16.31Z"/><path class="cls-4" d="M51.19,5.3a21.68,21.68,0,0,0-19.07,11l-.34.6a1.9,1.9,0,0,0,0,1.78l.34-.6A21.63,21.63,0,0,1,51.19,7.16l7,.09V5.38Z"/><path class="cls-5" d="M10.43,27.67h-4a8.37,8.37,0,0,0-3.05,5.25,5,5,0,0,0-.08.68v2.12H8.9a2.7,2.7,0,0,0,2.37-1.36l1.53-2.71A2.71,2.71,0,0,0,10.43,27.67Z"/><path class="cls-6" d="M6.44,29.53h4A2.69,2.69,0,0,1,13,31.31a2.76,2.76,0,0,0-2.54-3.64h-4a9,9,0,0,0-3.05,5.25c-.08.6-.08,1.78-.08,1.78A8.14,8.14,0,0,1,6.44,29.53Z"/><path class="cls-7" d="M28.48,57.42A11.28,11.28,0,1,0,17.29,46.14,11.27,11.27,0,0,0,28.48,57.42Z"/><path class="cls-7" d="M28.52,55.64A11.21,11.21,0,0,1,17.33,45.3c0,.34-.08.59-.08.93a11.27,11.27,0,0,0,22.54,0,3.27,3.27,0,0,0-.09-.93A11.19,11.19,0,0,1,28.52,55.64Z"/><path class="cls-8" d="M28.48,36.74A11.19,11.19,0,0,1,39.66,47.08c0-.34.09-.6.09-.94a11.23,11.23,0,1,0-22.46,0,3.74,3.74,0,0,0,.08.94A11.18,11.18,0,0,1,28.48,36.74Z"/><path class="cls-9" d="M28.48,51.57a5.43,5.43,0,1,0-5.43-5.43A5.47,5.47,0,0,0,28.48,51.57Z"/><path class="cls-9" d="M5.26,46.48a87.53,87.53,0,0,0,12.28,2.21,12.32,12.32,0,0,1-.25-2.55A11.14,11.14,0,0,1,18,42.33c-7.8-.59-13.65-1.61-15.34-2.88C.51,41.06,2.71,45.81,5.26,46.48Z"/><path class="cls-10" d="M15.57,28A11.94,11.94,0,1,0,3.64,16.05,11.93,11.93,0,0,0,15.57,28Z"/><path class="cls-11" d="M15.57,26.12A11.82,11.82,0,0,1,3.69,15.37c0,.31,0,.62,0,.93A11.81,11.81,0,0,0,15.57,28,11.81,11.81,0,0,0,27.51,16.3c0-.31,0-.62-.05-.93A11.84,11.84,0,0,1,15.57,26.12Z"/><path class="cls-12" d="M15.57,6A11.83,11.83,0,0,1,27.46,16.74c0-.31.05-.62.05-.93A11.81,11.81,0,0,0,15.57,4.12,11.81,11.81,0,0,0,3.64,15.81c0,.31,0,.62,0,.93A11.81,11.81,0,0,1,15.57,6Z"/><path class="cls-13" d="M21,17.86a5.41,5.41,0,0,1-10.82,0c0-4,5.41-9,5.41-9S21,13.83,21,17.86Z"/><path class="cls-14" d="M15.57,21.46A5.4,5.4,0,0,1,10.25,17,5.41,5.41,0,1,0,20.9,17,5.41,5.41,0,0,1,15.57,21.46Z"/></svg>