<svg id="Layer_1" data-name="Layer 1" xmlns="http://www.w3.org/2000/svg" viewBox="0 0 60 60"><defs><style>.cls-1{fill:#f1c40f;}.cls-2{fill:#f39c12;}.cls-3{fill:#3498db;}.cls-4{fill:#2772a4;}.cls-5{fill:#fff5ae;}.cls-6{fill:#ffe783;}.cls-7{fill:#2c3e50;}.cls-8{fill:#1b2533;}.cls-9{fill:#dbdbdb;}.cls-10{fill:#ffc850;}.cls-11{fill:#ebaf4b;}.cls-12{fill:#a4a4a4;}</style></defs><path class="cls-1" d="M2,2.92h8.67A23.33,23.33,0,0,1,30.33,13.77l3.87,6.14L51.44,26.8a8.16,8.16,0,0,1,5.05,7.49v5.3a8.08,8.08,0,0,1-8.07,8.07H2Z"/><path class="cls-2" d="M56.49,37.82v1.77a8.08,8.08,0,0,1-8.07,8.07H2V45.89H48.42A8.07,8.07,0,0,0,56.49,37.82Z"/><path class="cls-2" d="M10.66,2.92A23.33,23.33,0,0,1,30.33,13.77l3.87,6.14L51.44,26.8a8.16,8.16,0,0,1,5.05,7.49v1.77a8.15,8.15,0,0,0-5.05-7.49l-17.32-6.9-3.87-6.13A23.21,23.21,0,0,0,10.66,4.69H2V2.92Z"/><path class="cls-3" d="M27.9,16.63l.33.59a1.81,1.81,0,0,1-1.6,2.69H2V5.78L9,5.7A21.51,21.51,0,0,1,27.9,16.63Z"/><path class="cls-4" d="M9,5.7A21.51,21.51,0,0,1,27.9,16.63l.33.59a1.86,1.86,0,0,1,0,1.76l-.33-.59A21.43,21.43,0,0,0,9,7.55L2,7.63V5.78Z"/><path class="cls-5" d="M49.43,27.9h4a8.29,8.29,0,0,1,3,5.21,4.74,4.74,0,0,1,.08.67v2.11H50.94a2.7,2.7,0,0,1-2.36-1.35l-1.51-2.69A2.69,2.69,0,0,1,49.43,27.9Z"/><path class="cls-6" d="M53.38,29.75h-4a2.66,2.66,0,0,0-2.53,1.76,2.74,2.74,0,0,1,2.53-3.61h4a9,9,0,0,1,3,5.21c.08.59.08,1.77.08,1.77A8,8,0,0,0,53.38,29.75Z"/><path class="cls-7" d="M31.51,57.42a11.19,11.19,0,1,1,11.1-11.19A11.18,11.18,0,0,1,31.51,57.42Z"/><path class="cls-7" d="M31.47,55.65a11.11,11.11,0,0,0,11.1-10.26c0,.34.09.59.09.92a11.19,11.19,0,1,1-22.37,0,3.62,3.62,0,0,1,.08-.92A11.11,11.11,0,0,0,31.47,55.65Z"/><path class="cls-8" d="M31.51,36.9a11.11,11.11,0,0,0-11.1,10.26c0-.34-.08-.59-.08-.93a11.14,11.14,0,1,1,22.28,0,3.66,3.66,0,0,1-.08.93A11.1,11.1,0,0,0,31.51,36.9Z"/><path class="cls-9" d="M31.51,51.61a5.38,5.38,0,1,1,5.38-5.38A5.42,5.42,0,0,1,31.51,51.61Z"/><path class="cls-10" d="M36.39,2.5,34.46,6,31,7.88l3.45,1.94,1.93,3.44,1.93-3.44,3.45-2L38.32,5.86Z"/><polygon class="cls-11" points="38.32 9.82 36.39 13.27 34.46 9.82 31.01 7.88 34.46 5.95 38.32 9.82"/><path class="cls-10" d="M50.69,13.18l-1.26,2.27-2.28,1.26L49.43,18l1.26,2.27L52,18l2.27-1.26L52,15.45Z"/><polygon class="cls-11" points="51.95 18.06 50.69 20.33 49.42 18.06 47.07 16.8 49.42 15.54 51.95 18.06"/><path class="cls-10" d="M9.56,8.72,8.3,11,6,12.26,8.3,13.52l1.26,2.27,1.26-2.27,2.27-1.26L10.82,11Z"/><polygon class="cls-11" points="10.82 13.6 9.56 15.79 8.3 13.52 6.03 12.26 8.3 10.99 10.82 13.6"/><path class="cls-5" d="M29.91,17.72,27.22,22.6l-4.87,2.69L27.22,28l2.69,4.88L32.61,28l4.87-2.69L32.61,22.6Z"/><polygon class="cls-6" points="32.6 27.98 29.91 32.86 27.22 27.98 22.35 25.29 27.22 22.6 32.6 27.98"/><path class="cls-5" d="M22,37.32l-1.09,2-2,1.1,2,1.09,1.09,2,1.09-2,2-1.09-2-1.1Z"/><polygon class="cls-6" points="23.1 41.52 22.01 43.54 20.92 41.52 18.9 40.43 20.92 39.34 23.1 41.52"/><path class="cls-5" d="M10,31.09l-.75,1.43-1.43.76L9.23,34,10,35.47,10.74,34l1.43-.76-1.43-.76Z"/><polygon class="cls-6" points="10.74 34.04 9.98 35.47 9.23 34.04 7.8 33.28 9.23 32.52 10.74 34.04"/><path class="cls-9" d="M54.56,46.57a86.86,86.86,0,0,1-12.2,2.18,12,12,0,0,0,.25-2.52,11.16,11.16,0,0,0-.67-3.78c7.74-.59,13.54-1.6,15.22-2.86C59.26,41.19,57.08,45.89,54.56,46.57Z"/><path class="cls-12" d="M57.16,39.59a4.89,4.89,0,0,1-.67.42v-.42A1.17,1.17,0,0,1,57.16,39.59Z"/></svg>