<svg id="Layer_1" data-name="Layer 1" xmlns="http://www.w3.org/2000/svg" viewBox="0 0 60 60"><defs><style>.cls-1{fill:#3e586d;}.cls-2{fill:#dbdbdb;}.cls-3{fill:#2c3e50;}.cls-4,.cls-5{fill:none;stroke-miterlimit:10;stroke-width:0.93px;}.cls-4{stroke:#2c3e50;}.cls-5{stroke:#c0c2c4;}.cls-6{fill:#918f91;}.cls-7{fill:#ffc850;}.cls-8{fill:#ebaf4b;}.cls-9{fill:#45dbff;}.cls-10{fill:#ffb719;}.cls-11{fill:#fff;}.cls-12{fill:#f0f0e6;}.cls-13{fill:#d1f6ff;}.cls-14{fill:#00baff;}</style></defs><path class="cls-1" d="M30,46.69A16.69,16.69,0,1,0,13.31,30,16.67,16.67,0,0,0,30,46.69Z"/><path class="cls-2" d="M48.08,27.72l-10-1.22,6.25-7.92-3.17-3.17-7.93,6.25-1.21-10H27.58l-1.22,10L18.63,15.5l-3.17,3.17L21.7,26.6l-10,1.21v4.47l10,1.22-6.24,7.92,3.17,3.17,7.92-6.25,1.21,10h4.48l1.21-10,7.92,6.25,3.17-3.17L38.3,33.5l10-1.22V27.72Z"/><path class="cls-3" d="M30,2.5A27.5,27.5,0,1,0,57.5,30,27.5,27.5,0,0,0,30,2.5Zm0,43.91A16.41,16.41,0,1,1,46.41,30,16.44,16.44,0,0,1,30,46.41Z"/><path class="cls-1" d="M5.58,42.58a29.27,29.27,0,0,0,4.94,6.81l4.29-13.33A16.53,16.53,0,0,1,21.24,16.2L25.53,2.87A28.53,28.53,0,0,0,17.6,5.48Z"/><path class="cls-1" d="M30.93,46.41c-.28,0-.65.09-.93.09a10.52,10.52,0,0,1-1.68-.09L24.87,57a24.34,24.34,0,0,0,2.52.38Z"/><path class="cls-1" d="M43.88,6.26l-3.53,11a17.12,17.12,0,0,0-2.15-1.49L41.63,5.08A25.27,25.27,0,0,1,43.88,6.26Z"/><path class="cls-1" d="M50.88,12.19,46.13,26.92a15.66,15.66,0,0,0-4.38-8.39L45.37,7.2a27.74,27.74,0,0,1,3.35,2.66l.34.32A26.61,26.61,0,0,1,50.88,12.19Z"/><path class="cls-1" d="M41.28,41.93a16.59,16.59,0,0,1-8.48,4.2L29.16,57.5H30a28.66,28.66,0,0,0,6.43-.75Z"/><path class="cls-3" d="M30,49.11A16.43,16.43,0,0,0,46.41,32.7a5.32,5.32,0,0,0-.1-1.3,16.36,16.36,0,0,1-32.62,0c0,.46-.1.84-.1,1.3A16.43,16.43,0,0,0,30,49.11Z"/><path class="cls-2" d="M30,35.78A5.78,5.78,0,1,0,24.22,30,5.81,5.81,0,0,0,30,35.78Z"/><path class="cls-4" d="M30,46.69A16.69,16.69,0,1,0,13.31,30,16.67,16.67,0,0,0,30,46.69Z"/><path class="cls-5" d="M30,35.78A5.78,5.78,0,1,0,24.22,30,5.81,5.81,0,0,0,30,35.78Z"/><path class="cls-3" d="M30,54.89A27.62,27.62,0,0,1,2.5,28.69V30a27.5,27.5,0,0,0,55,0V28.69A27.49,27.49,0,0,1,30,54.89Z"/><path class="cls-1" d="M30,5.11a27.62,27.62,0,0,1,27.5,26.2V30a27.5,27.5,0,0,0-55,0v1.31A27.62,27.62,0,0,1,30,5.11Z"/><path class="cls-6" d="M30,27.3a.94.94,0,1,0-.93-.94A1,1,0,0,0,30,27.3Z"/><path class="cls-6" d="M30,34.47a.93.93,0,0,0,.93-.93.88.88,0,0,0-.93-.93.93.93,0,1,0,0,1.86Z"/><path class="cls-6" d="M26.46,30.93a.93.93,0,1,0-.93-.93A1.07,1.07,0,0,0,26.46,30.93Z"/><path class="cls-6" d="M33.54,30.93a.93.93,0,1,0-.93-.93A1.08,1.08,0,0,0,33.54,30.93Z"/><path class="cls-7" d="M49.58,8.65l-1.31,2.24L46,12.1l2.24,1.21,1.31,2.24,1.3-2.24,2.24-1.21-2.24-1.21Z"/><polygon class="cls-8" points="50.88 13.31 49.58 15.55 48.27 13.31 46.03 12.1 48.27 10.89 50.88 13.31"/><path class="cls-7" d="M8.75,19.37,7.44,21.61,5.2,22.82,7.44,24l1.31,2.24L10.05,24l2.24-1.21L10,21.61Z"/><polygon class="cls-8" points="10.05 24.03 8.75 26.27 7.44 24.03 5.2 22.82 7.44 21.61 10.05 24.03"/><path class="cls-9" d="M46.41,41.09V55.26A1.77,1.77,0,0,0,48.18,57h7.08A1.77,1.77,0,0,0,57,55.26V41.09Z"/><path class="cls-7" d="M45.19,26.55h6.72a.5.5,0,0,1,.46.28l3.55,4.66a.57.57,0,0,1,.09.37v.47a.64.64,0,0,1-.65.65h-2v2.8H49.86L48.27,31H45.1a.64.64,0,0,1-.65-.66V27.2A.79.79,0,0,1,45.19,26.55Z"/><path class="cls-10" d="M45.19,26.55h6.72a.5.5,0,0,1,.46.28l3.55,4.66a.57.57,0,0,1,.09.37v.47a.45.45,0,0,1-.19.37L52.37,28a.52.52,0,0,0-.46-.28H45.19a.64.64,0,0,0-.65.66V27.2A.64.64,0,0,1,45.19,26.55Z"/><path class="cls-10" d="M44.54,27.86H42v1.21h2.51Z"/><path class="cls-11" d="M57.13,41.09H46.41V37.55a1.77,1.77,0,0,1,1.77-1.77h7.08A1.77,1.77,0,0,1,57,37.55v3.54Z"/><path class="cls-7" d="M45.85,31l-2.8,4.47a.66.66,0,0,0,.28.93l.19.1a.62.62,0,0,0,.84-.19L47.9,31Z"/><path class="cls-10" d="M45,32.33l.84-1.3h2L47,32.33Z"/><path class="cls-12" d="M50.88,54.42h1.77a1.77,1.77,0,0,0,1.77-1.77V45.57a1.77,1.77,0,0,0-1.77-1.77H50.88a1.77,1.77,0,0,0-1.77,1.77v7.08A1.83,1.83,0,0,0,50.88,54.42Z"/><path class="cls-13" d="M57.13,37.55v3.54h-.94V37.55a1.71,1.71,0,0,0-1.77-1.77h.94A1.77,1.77,0,0,1,57.13,37.55Z"/><path class="cls-14" d="M57.13,41.09V55.26A1.77,1.77,0,0,1,55.36,57h-.94a1.83,1.83,0,0,0,1.77-1.77V41.09Z"/></svg>