<svg id="Layer_1" data-name="Layer 1" xmlns="http://www.w3.org/2000/svg" viewBox="0 0 60 60"><defs><style>.cls-1{fill:#d1f6ff;}.cls-2{fill:#99ebff;}.cls-3{fill:#918f91;}.cls-4{fill:#515151;}.cls-5{fill:#f1c40f;}.cls-6{fill:#f39c12;}.cls-7{fill:#3498db;}.cls-8{fill:#2772a4;}.cls-9{fill:#fff5ae;}.cls-10{fill:#ffe783;}.cls-11{fill:#2c3e50;}.cls-12{fill:#1b2533;}.cls-13{fill:#dbdbdb;}.cls-14{fill:#a4a4a4;}.cls-15{fill:#ffc850;}.cls-16{fill:#ebaf4b;}.cls-17{fill:#b6750e;}.cls-18{fill:#004a66;}.cls-19{fill:#6a676b;}</style></defs><path class="cls-1" d="M46,9.38H14V50.62H46Z"/><rect class="cls-2" x="42.59" y="9.38" width="3.45" height="41.25"/><path class="cls-3" d="M14,6.17V9.38H46V6.17A3.67,3.67,0,0,0,42.37,2.5H17.63A3.67,3.67,0,0,0,14,6.17Z"/><path class="cls-3" d="M46,53.83V50.62H14v3.21a3.67,3.67,0,0,0,3.67,3.67H42.37A3.67,3.67,0,0,0,46,53.83Z"/><path class="cls-4" d="M32.75,55.89h-5.5a1.37,1.37,0,0,1-1.37-1.37V53.6a1.37,1.37,0,0,1,1.37-1.37h5.5a1.37,1.37,0,0,1,1.37,1.37v.92A1.37,1.37,0,0,1,32.75,55.89Z"/><path class="cls-4" d="M33.44,7.09H26.56a1.15,1.15,0,0,1,0-2.29h6.88a1.15,1.15,0,0,1,0,2.29Z"/><path class="cls-5" d="M46,17.17H41.58a11.75,11.75,0,0,0-9.93,5.47l-2,3.11L21,29.25A4.07,4.07,0,0,0,18.42,33v2.69a4.07,4.07,0,0,0,4.07,4.07H46V17.17Z"/><path class="cls-6" d="M18.42,34.82v.91a4.07,4.07,0,0,0,4.07,4.07H46v-.91H22.49A4.13,4.13,0,0,1,18.42,34.82Z"/><path class="cls-6" d="M41.58,17.17a11.75,11.75,0,0,0-9.93,5.47l-2,3.11L21,29.25A4.07,4.07,0,0,0,18.42,33V34A4.07,4.07,0,0,1,21,30.16l8.73-3.5,2-3.11a11.68,11.68,0,0,1,9.93-5.47H46v-.91Z"/><path class="cls-7" d="M32.85,24.12l-.14.29a.89.89,0,0,0,.76,1.34H46V18.66l-3.6-.05A10.8,10.8,0,0,0,32.85,24.12Z"/><path class="cls-8" d="M42.39,18.61a10.78,10.78,0,0,0-9.54,5.51l-.14.29a.88.88,0,0,0,0,.91l.14-.29a10.78,10.78,0,0,1,9.54-5.51l3.64.05v-.91Z"/><path class="cls-9" d="M22,29.83H20a4,4,0,0,0-1.53,2.64,2.65,2.65,0,0,0-.05.33v1.06H21.2a1.42,1.42,0,0,0,1.2-.72l.76-1.34A1.35,1.35,0,0,0,22,29.83Z"/><path class="cls-10" d="M20,30.74h2a1.35,1.35,0,0,1,1.29.91A1.38,1.38,0,0,0,22,29.83H20a4.48,4.48,0,0,0-1.53,2.64,7.59,7.59,0,0,0-.05.91A4.09,4.09,0,0,1,20,30.74Z"/><path class="cls-11" d="M31,44.74a5.66,5.66,0,1,0-5.66-5.66A5.67,5.67,0,0,0,31,44.74Z"/><path class="cls-11" d="M31,43.83a5.64,5.64,0,0,1-5.61-5.18v.43a5.66,5.66,0,0,0,11.32,0v-.43A5.81,5.81,0,0,1,31,43.83Z"/><path class="cls-12" d="M31.08,34.34a5.64,5.64,0,0,1,5.61,5.18v-.44a5.66,5.66,0,0,0-11.32,0v.44A5.77,5.77,0,0,1,31.08,34.34Z"/><path class="cls-13" d="M31,41.77a2.69,2.69,0,1,0-2.69-2.69A2.68,2.68,0,0,0,31,41.77Z"/><path class="cls-13" d="M19.33,39.23a49.81,49.81,0,0,0,6.18,1.1,5.5,5.5,0,0,1-.14-1.25,5,5,0,0,1,.34-1.91c-3.94-.29-6.81-.77-7.68-1.44C17,36.49,18.08,38.89,19.33,39.23Z"/><path class="cls-14" d="M18.42,36a3.1,3.1,0,0,1-.39-.23,1.35,1.35,0,0,1,.39,0Z"/><path class="cls-15" d="M28,16.83l-1,1.73-1.73,1,1.73,1,1,1.72,1-1.72,1.72-1-1.72-1Z"/><polygon class="cls-16" points="28.97 20.48 28.01 22.2 27.05 20.48 25.32 19.52 27.05 18.56 28.97 20.48"/><path class="cls-15" d="M20.81,22.25l-.62,1.15L19,24l1.15.62.62,1.15.63-1.15L22.59,24l-1.15-.63Z"/><polygon class="cls-16" points="21.44 24.65 20.81 25.8 20.19 24.65 19.04 24.03 20.19 23.4 21.44 24.65"/><path class="cls-15" d="M41.48,20l-.62,1.15-1.15.62,1.15.63.62,1.15.63-1.15,1.15-.63-1.15-.62Z"/><polygon class="cls-16" points="42.11 22.4 41.48 23.55 40.86 22.4 39.71 21.77 40.86 21.15 42.11 22.4"/><polygon class="cls-6" points="46.04 17.16 46.04 18.66 42.59 18.61 42.59 17.16 46.04 17.16"/><rect class="cls-6" x="42.59" y="25.76" width="3.45" height="14.05"/><rect class="cls-17" x="42.59" y="38.89" width="3.45" height="0.91"/><rect class="cls-17" x="42.59" y="17.16" width="3.45" height="0.91"/><polygon class="cls-8" points="46.04 18.66 46.04 25.76 42.59 25.76 42.59 22.13 43.26 21.77 42.59 21.41 42.59 18.6 46.04 18.66"/><polygon class="cls-18" points="46.04 18.66 46.04 19.56 42.59 19.52 42.59 18.61 46.04 18.66"/><polygon class="cls-16" points="43.26 21.77 42.59 22.13 42.59 21.41 43.26 21.77"/><path class="cls-19" d="M46,6.17V9.38H42.59V6.17A3.67,3.67,0,0,0,38.92,2.5h3.45A3.67,3.67,0,0,1,46,6.17Z"/><path class="cls-19" d="M46,50.62v3.21a3.67,3.67,0,0,1-3.67,3.67H38.92a3.67,3.67,0,0,0,3.67-3.67V50.62Z"/></svg>