<svg id="Layer_1" data-name="Layer 1" xmlns="http://www.w3.org/2000/svg" viewBox="0 0 60 60"><defs><style>.cls-1{fill:#6a676b;}.cls-2{fill:#515151;}.cls-3{fill:#2d2d2d;}.cls-4{fill:#1b2533;}.cls-5{fill:#fff;}.cls-6{fill:#918f91;}.cls-7{fill:#00baff;}.cls-8{fill:#45dbff;}.cls-9{fill:#99ebff;}.cls-10{fill:#ffc850;}.cls-11{fill:#ffb719;}.cls-12{fill:#ffde96;}</style></defs><path class="cls-1" d="M50.63,57.5H6.27A1.77,1.77,0,0,1,4.5,55.73V4.27A1.77,1.77,0,0,1,6.27,2.5H50.63A1.77,1.77,0,0,1,52.4,4.27V55.73A1.77,1.77,0,0,1,50.63,57.5Z"/><path class="cls-2" d="M50.63,2.5H6.27A1.77,1.77,0,0,0,4.5,4.27V6.05A1.78,1.78,0,0,1,6.27,4.27H50.63A1.78,1.78,0,0,1,52.4,6.05V4.27A1.77,1.77,0,0,0,50.63,2.5Z"/><path class="cls-3" d="M50.63,55.73H6.27A1.78,1.78,0,0,1,4.5,54v1.78A1.77,1.77,0,0,0,6.27,57.5H50.63a1.77,1.77,0,0,0,1.77-1.77V54A1.78,1.78,0,0,1,50.63,55.73Z"/><path class="cls-4" d="M19.58,5.6H16a.89.89,0,1,1,0-1.77h3.55a.89.89,0,0,1,0,1.77Z"/><path class="cls-4" d="M40.87,5.6H37.32a.89.89,0,1,1,0-1.77h3.55a.89.89,0,0,1,0,1.77Z"/><path class="cls-5" d="M49.74,6.94H7.16v47.9H49.74Z"/><path class="cls-5" d="M49.74,53.06H7.16v1.78H49.74Z"/><path class="cls-5" d="M16,10.49A3.55,3.55,0,0,0,19.57,14H37.32a3.55,3.55,0,0,0,3.54-3.55V6.93H37.31v3.55H19.57V6.94H16Z"/><path class="cls-4" d="M37.32,12.26H19.58A2.67,2.67,0,0,1,16.92,9.6v-4h1.77v4a.88.88,0,0,0,.89.88H37.32a.88.88,0,0,0,.89-.88v-4H40v4A2.67,2.67,0,0,1,37.32,12.26Z"/><path class="cls-6" d="M43.08,31.78H36.87a.45.45,0,0,1,0-.89h6.21a.45.45,0,1,1,0,.89Z"/><path class="cls-6" d="M43.08,34.44H36.87a.45.45,0,0,1,0-.89h6.21a.45.45,0,1,1,0,.89Z"/><path class="cls-6" d="M43.08,37.1H36.87a.45.45,0,0,1,0-.89h6.21a.45.45,0,1,1,0,.89Z"/><path class="cls-7" d="M22.68,14.48H11.15v13.3H22.68Z"/><path class="cls-8" d="M34.21,14.48H22.68v13.3H34.21Z"/><path class="cls-9" d="M45.75,14.48H34.21v13.3H45.75Z"/><path class="cls-4" d="M28.89,25.12H28a2.21,2.21,0,0,1-2.21-2.22.44.44,0,0,1,.88,0A1.34,1.34,0,0,0,28,24.24h.89a1.34,1.34,0,0,0,0-2.67H28a2.22,2.22,0,0,1,0-4.43h.89a2.22,2.22,0,0,1,2.22,2.22.45.45,0,0,1-.89,0A1.33,1.33,0,0,0,28.89,18H28a1.33,1.33,0,1,0,0,2.66h.89a2.22,2.22,0,1,1,0,4.43Z"/><path class="cls-4" d="M28.45,26a.45.45,0,0,1-.45-.44V16.69a.45.45,0,0,1,.89,0v8.88A.44.44,0,0,1,28.45,26Z"/><path class="cls-4" d="M17.36,25.12h-.89a2.22,2.22,0,0,1-2.22-2.22.45.45,0,0,1,.89,0,1.34,1.34,0,0,0,1.33,1.34h.89a1.34,1.34,0,0,0,0-2.67h-.89a2.22,2.22,0,1,1,0-4.43h.89a2.22,2.22,0,0,1,2.22,2.22.45.45,0,0,1-.89,0A1.33,1.33,0,0,0,17.36,18h-.89a1.33,1.33,0,1,0,0,2.66h.89a2.22,2.22,0,1,1,0,4.43Z"/><path class="cls-4" d="M16.92,26a.45.45,0,0,1-.45-.44V16.69a.45.45,0,0,1,.89,0v8.88A.44.44,0,0,1,16.92,26Z"/><path class="cls-4" d="M40.42,25.12h-.88a2.21,2.21,0,0,1-2.22-2.22.45.45,0,0,1,.89,0,1.33,1.33,0,0,0,1.33,1.34h.88a1.34,1.34,0,0,0,0-2.67h-.88a2.22,2.22,0,1,1,0-4.43h.88a2.21,2.21,0,0,1,2.22,2.22.45.45,0,0,1-.89,0A1.32,1.32,0,0,0,40.42,18h-.88a1.33,1.33,0,1,0,0,2.66h.88a2.22,2.22,0,1,1,0,4.43Z"/><path class="cls-4" d="M40,26a.44.44,0,0,1-.44-.44V16.69a.44.44,0,0,1,.44-.44.44.44,0,0,1,.44.44v8.88A.44.44,0,0,1,40,26Z"/><path class="cls-6" d="M20,31.78H13.81a.45.45,0,0,1,0-.89H20a.45.45,0,0,1,0,.89Z"/><path class="cls-6" d="M20,34.44H13.81a.45.45,0,0,1,0-.89H20a.45.45,0,0,1,0,.89Z"/><path class="cls-6" d="M20,37.1H13.81a.45.45,0,0,1,0-.89H20a.45.45,0,0,1,0,.89Z"/><path class="cls-6" d="M31.55,31.78H25.34a.45.45,0,0,1,0-.89h6.21a.45.45,0,1,1,0,.89Z"/><path class="cls-6" d="M31.55,34.44H25.34a.45.45,0,0,1,0-.89h6.21a.45.45,0,1,1,0,.89Z"/><path class="cls-6" d="M31.55,37.1H25.34a.45.45,0,0,1,0-.89h6.21a.45.45,0,1,1,0,.89Z"/><path class="cls-6" d="M16.33,45.46a1.34,1.34,0,0,1-.94-.38l-1.89-1.9a.43.43,0,0,1,0-.63.44.44,0,0,1,.62,0l1.9,1.9a.47.47,0,0,0,.36.13.45.45,0,0,0,.32-.2L19.65,40a.44.44,0,0,1,.62-.12.45.45,0,0,1,.12.61l-2.95,4.42a1.34,1.34,0,0,1-1,.59Z"/><path class="cls-4" d="M22.68,47.53a.23.23,0,0,1-.24-.23V14.48a.24.24,0,0,1,.48,0V47.3A.23.23,0,0,1,22.68,47.53Z"/><path class="cls-4" d="M34.21,47.53A.23.23,0,0,1,34,47.3V14.48a.23.23,0,0,1,.23-.24.24.24,0,0,1,.24.24V47.3A.23.23,0,0,1,34.21,47.53Z"/><path class="cls-10" d="M44.42,57.06A11.09,11.09,0,1,0,33.33,46,11.09,11.09,0,0,0,44.42,57.06Z"/><path class="cls-11" d="M44.42,55.28a11.08,11.08,0,0,1-11.05-10.2c0,.29,0,.59,0,.89A11.09,11.09,0,1,0,55.5,46c0-.3,0-.6,0-.89A11.08,11.08,0,0,1,44.42,55.28Z"/><path class="cls-12" d="M44.42,36.65a11.08,11.08,0,0,1,11,10.2c0-.29,0-.58,0-.88a11.09,11.09,0,1,0-22.17,0c0,.3,0,.59,0,.88A11.09,11.09,0,0,1,44.42,36.65Z"/><path class="cls-8" d="M49.74,47.3a5.33,5.33,0,0,1-10.65,0c0-4,5.33-8.87,5.33-8.87S49.74,43.34,49.74,47.3Z"/><path class="cls-7" d="M44.42,50.85a5.32,5.32,0,0,1-5.24-4.41,5.13,5.13,0,0,0-.09.86,5.33,5.33,0,0,0,10.65,0,5.13,5.13,0,0,0-.09-.86A5.32,5.32,0,0,1,44.42,50.85Z"/></svg>