<svg width="28" height="28" viewBox="0 0 28 28" fill="none" xmlns="http://www.w3.org/2000/svg">
<path d="M6.67411 21.3661V12.0714H9.76786V21.3661H6.67411ZM9.96875 9.20536C9.96875 10.0893 9.29911 10.8125 8.21429 10.8125H8.20089C7.15625 10.8125 6.48661 10.0893 6.48661 9.20536C6.48661 8.29464 7.18304 7.59821 8.24107 7.59821C9.29911 7.59821 9.95536 8.29464 9.96875 9.20536ZM17.8036 21.3661V16.3973C17.8036 15.1384 17.3616 14.2946 16.25 14.2946C15.3929 14.2946 14.8839 14.8705 14.6563 15.4196C14.5759 15.6205 14.5625 15.9018 14.5625 16.1696V21.3661H11.4688C11.5089 12.942 11.4688 12.0714 11.4688 12.0714H14.5625V13.4241H14.5357C14.9375 12.7812 15.6741 11.8571 17.3348 11.8571C19.3705 11.8571 20.8973 13.183 20.8973 16.0357V21.3661H17.8036ZM24.0714 8C24.0714 5.87053 22.3438 4.14286 20.2143 4.14286H7.35714C5.22768 4.14286 3.5 5.87053 3.5 8V20.8571C3.5 22.9866 5.22768 24.7143 7.35714 24.7143H20.2143C22.3438 24.7143 24.0714 22.9866 24.0714 20.8571V8Z" fill="#363636"/>
</svg>
