<svg width="40" height="40" viewBox="0 0 40 40" fill="none" xmlns="http://www.w3.org/2000/svg">
<path d="M40 20C40 8.9543 31.0457 0 20 0C8.9543 0 0 8.9543 0 20C0 31.0457 8.9543 40 20 40C31.0457 40 40 31.0457 40 20Z" fill="#40CCED"/>
<path d="M25.2248 7.98023C25.2116 7.95538 25.2045 7.92777 25.2041 7.89965C25.2041 7.58316 25.7686 7.49809 26.0943 7.4536C27.6552 7.23896 27.7286 8.18375 27.7286 8.18375C29.2652 6.69867 32.0447 8.25731 32.0447 10.7594C32.0481 11.2753 31.8903 11.7795 31.5934 12.2015C32.2568 12.5332 32.9846 12.6881 32.9846 13.8435C32.9846 14.5116 32.5979 15.0477 32.1118 15.5342C32.9272 15.7379 33.2866 16.5732 33.2866 17.3878C33.2866 18.038 32.9744 19.3176 32.0888 19.3176C32.047 19.3176 32.0052 19.3152 31.9637 19.3106C32.1847 19.5334 32.3106 19.8333 32.3149 20.1471C32.3149 20.8766 31.6207 21.582 30.9266 21.9032C30.9775 21.4783 31.0029 21.0508 31.0027 20.623C31.0027 17.3839 29.567 14.2942 27.6683 11.6095C26.7799 10.4239 25.521 9.53536 25.2248 7.98023Z" fill="white"/>
<path d="M8.41524 22.3465C8.33887 22.3998 8.25165 22.4356 8.15983 22.4513C7.93759 22.4513 6.641 21.6439 6.641 20.3588C6.641 19.8802 6.73076 19.2281 7.209 19.2281C7.209 19.2281 5.02734 17.9734 5.02734 15.7928C5.02734 13.969 6.55769 12.3438 8.08803 12.3438C8.47008 12.3438 8.09017 12.3697 8.09017 11.8004C8.09017 11.4468 8.50383 10.984 9.38969 10.984C10.6619 10.984 8.97993 11.1514 8.97993 9.33462C8.97993 7.4271 11.1458 6.83276 11.9721 6.83276C13.4338 6.83276 12.8588 7.67783 12.8588 6.42515C12.8588 5.94944 13.4726 5.26632 14.3762 5.26632C15.0151 5.26632 15.6106 5.65657 15.6106 6.17969C15.6106 6.90164 14.7678 5.46203 16.8334 5.46203C17.995 5.46203 18.4127 6.35081 18.4127 6.57306C18.6053 5.03159 20.1918 4.38086 21.6242 4.38086C23.3961 4.38086 24.0182 5.37266 24.0182 6.11413C24.0182 6.84779 23.7378 6.29754 24.8471 6.29754C25.5866 6.29754 25.9251 6.82554 25.9251 7.25364C25.9101 7.47092 25.8373 7.68026 25.7143 7.86C25.5913 8.03974 25.4225 8.18339 25.2254 8.27608C23.9667 8.94242 22.7817 9.60916 21.523 10.0533C15.3756 12.0533 11.303 16.9409 8.41524 22.3465Z" fill="white"/>
<path d="M24.2252 7.64648H15.2041V35.53H24.2252V7.64648Z" fill="#2C3E50"/>
<path d="M15.2041 35.5294C19.0497 35.5294 22.1671 29.2797 22.1671 21.5704C22.1671 13.861 19.0497 7.61133 15.2041 7.61133C11.3586 7.61133 8.24121 13.861 8.24121 21.5704C8.24121 29.2797 11.3586 35.5294 15.2041 35.5294Z" fill="#2C3E50"/>
<path d="M24.0125 35.5294C28.0925 35.5294 31.4 29.2797 31.4 21.5704C31.4 13.861 28.0925 7.61133 24.0125 7.61133C19.9325 7.61133 16.625 13.861 16.625 21.5704C16.625 29.2797 19.9325 35.5294 24.0125 35.5294Z" fill="#3E586D"/>
<path d="M24.4234 31.0865C26.8906 31.0865 28.8907 26.8261 28.8907 21.5706C28.8907 16.3151 26.8906 12.0547 24.4234 12.0547C21.9561 12.0547 19.9561 16.3151 19.9561 21.5706C19.9561 26.8261 21.9561 31.0865 24.4234 31.0865Z" fill="#2C3E50"/>
<path d="M24.4237 30.2705C26.5767 30.2705 28.3221 26.3755 28.3221 21.5708C28.3221 16.7661 26.5767 12.8711 24.4237 12.8711C22.2707 12.8711 20.5254 16.7661 20.5254 21.5708C20.5254 26.3755 22.2707 30.2705 24.4237 30.2705Z" fill="#DBDBDB"/>
<path d="M26.1487 21.5713C26.1487 23.1207 25.5413 24.3769 24.7916 24.3769C24.042 24.3769 23.4346 23.1207 23.4346 21.5713C23.4346 20.0218 24.0424 18.7656 24.7916 18.7656C25.5409 18.7656 26.1487 20.0218 26.1487 21.5713Z" fill="#C0C2C4"/>
<path d="M24.8729 18.8015C24.9307 18.7997 24.9864 18.7799 25.0324 18.7449C25.0784 18.71 25.1123 18.6615 25.1295 18.6064L26.1317 14.8122C25.6314 14.1195 25.0482 13.7207 24.4247 13.7207C23.9434 13.7411 23.4892 13.9491 23.1592 14.3L24.6041 18.6235C24.6248 18.6775 24.6619 18.7236 24.7101 18.7555C24.7583 18.7874 24.8152 18.8034 24.8729 18.8015Z" fill="#3E586D"/>
<path d="M23.6284 20.1216C23.6488 20.0756 23.6563 20.0248 23.6501 19.9748C23.644 19.9248 23.6243 19.8774 23.5933 19.8377L21.5591 17.4844C21.3202 18.424 21.1699 19.384 21.1104 20.3517L23.3933 20.2865C23.4438 20.2831 23.4924 20.2659 23.5338 20.2368C23.5753 20.2078 23.608 20.1679 23.6284 20.1216Z" fill="#3E586D"/>
<path d="M23.689 23.1329C23.651 23.0899 23.6005 23.0597 23.5446 23.0465C23.4887 23.0333 23.4301 23.0377 23.3768 23.0592L21.2305 23.9472C21.3394 24.7743 21.525 25.5895 21.785 26.3821L23.7228 23.4512C23.7506 23.4011 23.7623 23.3437 23.7562 23.2867C23.7502 23.2298 23.7267 23.1761 23.689 23.1329Z" fill="#3E586D"/>
<path d="M25.0008 24.1785C24.9387 24.183 24.88 24.2083 24.834 24.2502C24.788 24.2921 24.7574 24.3483 24.7472 24.4097C24.5733 25.4438 24.2648 28.0637 24.041 29.3295C24.1659 29.3636 24.2946 29.3813 24.424 29.382C25.0619 29.382 25.6578 28.966 26.1653 28.2438L25.2857 24.3699C25.2664 24.3107 25.2279 24.2597 25.1763 24.225C25.1246 24.1903 25.0629 24.1739 25.0008 24.1785Z" fill="#3E586D"/>
<path d="M25.9441 20.0574C25.9623 20.1066 25.9941 20.1496 26.0357 20.1815C26.0774 20.2134 26.1272 20.2329 26.1794 20.2377H27.7291C27.6881 19.6704 27.6208 19.1241 27.5306 18.6055L26.005 19.7674C25.9685 19.8051 25.9435 19.8523 25.9327 19.9036C25.9219 19.9549 25.9259 20.0082 25.9441 20.0574Z" fill="#3E586D"/>
<path d="M26.1154 22.9185C26.0793 22.9627 26.0577 23.0169 26.0535 23.0738C26.0493 23.1307 26.0628 23.1875 26.092 23.2365L27.4665 24.8402C27.564 24.3499 27.6397 23.8322 27.6922 23.2935L26.422 22.8319C26.3682 22.8131 26.3099 22.8114 26.2551 22.8269C26.2002 22.8424 26.1515 22.8744 26.1154 22.9185Z" fill="#3E586D"/>
<path d="M14.0563 21.5708C14.0563 14.5632 16.8624 8.75126 20.3658 7.64648H19.4487C16.2304 9.19614 13.7109 14.8412 13.7109 21.5708C13.7109 28.354 16.2688 34.034 19.5256 35.53H20.4725C16.9162 34.512 14.0563 28.651 14.0563 21.5708Z" fill="#1B2533"/>
<path d="M10.1694 21.5708C10.1694 14.5632 12.8426 8.75126 16.3456 7.64648H15.4285C12.2102 9.19614 9.82422 14.8412 9.82422 21.5708C9.82422 28.354 12.2484 34.034 15.5056 35.53H16.4527C12.897 34.512 10.1694 28.651 10.1694 21.5708Z" fill="#1B2533"/>
<path d="M24.8586 23.7181C25.3905 23.7181 25.8218 22.7563 25.8218 21.57C25.8218 20.3836 25.3905 19.4219 24.8586 19.4219C24.3267 19.4219 23.8955 20.3836 23.8955 21.57C23.8955 22.7563 24.3267 23.7181 24.8586 23.7181Z" fill="#DBDBDB"/>
<path d="M13.9688 7.73933C14.0347 8.46518 14.8152 8.82928 15.5502 8.82928C15.9481 8.82213 16.3387 8.72065 16.6898 8.53317C17.0409 8.34569 17.3424 8.07756 17.5697 7.75084C17.5697 7.88996 17.8638 8.15084 18.1746 8.21503C18.6519 8.3126 19.007 7.9284 19.007 7.97445C19.007 8.36099 19.7816 8.53133 20.1814 8.53133C21.3403 8.53133 22.1602 7.58928 22.1602 7.17699C22.1602 6.93679 18.3288 6.21289 17.0958 6.21289C15.8023 6.21289 14.6507 6.57016 13.9688 7.73933Z" fill="white"/>
<path d="M28.5758 10.0723C28.4679 10.1597 28.3803 10.2695 28.3192 10.3942C28.258 10.5189 28.2247 10.6554 28.2217 10.7942C28.2217 11.5905 28.8357 11.6137 29.2455 11.7168C29.0543 12.083 28.322 14.5523 30.6865 15.2373C30.4433 15.3589 30.3005 16.5341 31.0195 17.1811C31.0223 17.1836 31.0245 17.1866 31.026 17.19C31.0276 17.1933 31.0284 17.197 31.0285 17.2007C31.0285 17.2007 30.7003 17.4063 30.7003 17.9856C30.7003 18.5337 31.0949 18.802 31.3167 18.802C31.4911 18.802 31.592 17.2596 31.592 16.9726C31.592 14.4352 30.3173 11.769 28.5758 10.0723Z" fill="white"/>
<path d="M8.96981 14.9043C9.26854 14.9043 9.65273 15.278 9.65273 15.932C9.65273 17.5976 8.49235 17.8327 8.49235 17.8327C8.68161 17.7896 9.11673 18.1527 9.11673 18.764C9.11355 18.9749 9.02719 19.176 8.87645 19.3236C8.72571 19.4712 8.52279 19.5532 8.31186 19.5519C8.31186 19.5519 8.72786 19.9769 8.55186 20.4583C8.37586 20.9396 7.45117 21.9841 7.45117 19.1675C7.45234 17.7398 8.986 14.9369 8.96981 14.9043Z" fill="white"/>
<path d="M34.9627 10.7821C34.9627 10.9225 34.921 11.0598 34.843 11.1765C34.765 11.2932 34.6542 11.3842 34.5245 11.4379C34.3948 11.4917 34.252 11.5057 34.1143 11.4783C33.9766 11.4509 33.8502 11.3833 33.7509 11.2841C33.6516 11.1848 33.584 11.0583 33.5566 10.9206C33.5292 10.7829 33.5433 10.6402 33.597 10.5105C33.6507 10.3808 33.7417 10.2699 33.8584 10.1919C33.9752 10.1139 34.1124 10.0723 34.2528 10.0723C34.4411 10.0723 34.6216 10.1471 34.7548 10.2802C34.8879 10.4133 34.9627 10.5939 34.9627 10.7821Z" fill="white"/>
<path d="M35.0861 7.48885C35.0861 7.57125 35.0617 7.65179 35.0159 7.7203C34.9701 7.78881 34.9051 7.8422 34.8289 7.87373C34.7528 7.90526 34.6691 7.91351 34.5882 7.89743C34.5074 7.88136 34.4332 7.84168 34.3749 7.78342C34.3167 7.72516 34.277 7.65094 34.2609 7.57013C34.2449 7.48932 34.2531 7.40556 34.2846 7.32944C34.3162 7.25331 34.3696 7.18825 34.4381 7.14248C34.5066 7.0967 34.5871 7.07227 34.6695 7.07227C34.78 7.07227 34.886 7.11616 34.9641 7.19428C35.0422 7.27241 35.0861 7.37837 35.0861 7.48885Z" fill="white"/>
<path d="M25.6338 5.24018C25.8711 5.24018 26.0634 5.04781 26.0634 4.81052C26.0634 4.57322 25.8711 4.38086 25.6338 4.38086C25.3965 4.38086 25.2041 4.57322 25.2041 4.81052C25.2041 5.04781 25.3965 5.24018 25.6338 5.24018Z" fill="white"/>
<path d="M7.45282 9.95268C7.45278 10.0827 7.41417 10.2099 7.34189 10.318C7.2696 10.4261 7.16688 10.5103 7.04671 10.5601C6.92655 10.6098 6.79433 10.6228 6.66678 10.5974C6.53923 10.572 6.42209 10.5093 6.33015 10.4173C6.23822 10.3253 6.17563 10.2081 6.15029 10.0806C6.12496 9.95301 6.13802 9.8208 6.18782 9.70067C6.23763 9.58053 6.32194 9.47785 6.4301 9.40563C6.53826 9.33341 6.6654 9.29488 6.79545 9.29492C6.88181 9.29492 6.96732 9.31194 7.0471 9.345C7.12688 9.37806 7.19937 9.42651 7.26042 9.4876C7.32146 9.54868 7.36988 9.62119 7.40289 9.70099C7.4359 9.78079 7.45287 9.86632 7.45282 9.95268Z" fill="white"/>
<path d="M8.24142 5.63419C8.24146 5.71215 8.21837 5.78838 8.17509 5.85322C8.1318 5.91806 8.07026 5.96861 7.99824 5.99847C7.92622 6.02833 7.84697 6.03616 7.7705 6.02098C7.69403 6.00579 7.62378 5.96827 7.56864 5.91315C7.51349 5.85804 7.47594 5.78781 7.46071 5.71135C7.44549 5.63489 7.45328 5.55563 7.48311 5.48359C7.51293 5.41156 7.56345 5.34999 7.62827 5.30668C7.6931 5.26336 7.76931 5.24023 7.84727 5.24023C7.95177 5.24023 8.052 5.28174 8.12591 5.35561C8.19982 5.42949 8.24137 5.52969 8.24142 5.63419Z" fill="white"/>
<path d="M7.1375 24.6774C7.13754 24.7763 7.10825 24.873 7.05333 24.9552C6.99842 25.0375 6.92035 25.1016 6.82899 25.1394C6.73764 25.1773 6.63711 25.1872 6.54012 25.1679C6.44313 25.1487 6.35404 25.101 6.28411 25.0311C6.21419 24.9612 6.16657 24.8721 6.14729 24.7751C6.12801 24.6781 6.13792 24.5776 6.17578 24.4862C6.21365 24.3949 6.27775 24.3168 6.35999 24.2619C6.44223 24.207 6.53891 24.1777 6.63779 24.1777C6.77029 24.1778 6.89734 24.2305 6.99103 24.3242C7.08472 24.4179 7.1374 24.5449 7.1375 24.6774Z" fill="white"/>
</svg>
