<svg width="654" height="420" viewBox="0 0 654 420" fill="none" xmlns="http://www.w3.org/2000/svg">
<path d="M228.202 71.9536C257.747 77.6868 288.576 70.6874 312.289 52.2422C332.954 36.1774 363.595 21.8106 405.754 24.6522C495.78 30.7188 578.28 268.587 283.343 301.712C14.6839 331.884 67.6113 40.7947 228.202 71.9536Z" fill="#004A66"/>
<path d="M61.9111 296.129H566.512" stroke="#8AB2B7" stroke-width="1.47657" stroke-miterlimit="10" stroke-linecap="round"/>
<path d="M50.6064 255.969H555.207" stroke="#8AB2B7" stroke-width="1.47657" stroke-miterlimit="10" stroke-linecap="round"/>
<path d="M39.3008 215.811H543.901" stroke="#8AB2B7" stroke-width="1.47657" stroke-miterlimit="10" stroke-linecap="round"/>
<path d="M27.9941 175.65H532.595" stroke="#8AB2B7" stroke-width="1.47657" stroke-miterlimit="10" stroke-linecap="round"/>
<path d="M16.6885 135.494H521.289" stroke="#8AB2B7" stroke-width="1.47657" stroke-miterlimit="10" stroke-linecap="round"/>
<path d="M24.0264 95.334H528.627" stroke="#8AB2B7" stroke-width="1.47657" stroke-miterlimit="10" stroke-linecap="round"/>
<path d="M0.789062 55.1777H505.39" stroke="#8AB2B7" stroke-width="1.47657" stroke-miterlimit="10" stroke-linecap="round"/>
<path d="M381.799 296.129V349.253" stroke="#8AB2B7" stroke-width="1.47657" stroke-miterlimit="10" stroke-linecap="round"/>
<path d="M487.962 258.559V295.651" stroke="#8AB2B7" stroke-width="1.47657" stroke-miterlimit="10" stroke-linecap="round"/>
<path d="M294.312 215.127V255.968" stroke="#8AB2B7" stroke-width="1.47657" stroke-miterlimit="10" stroke-linecap="round"/>
<path d="M454.466 255.969V215.811" stroke="#8AB2B7" stroke-width="1.47657" stroke-miterlimit="10" stroke-linecap="round"/>
<path d="M139.005 176.082V215.128" stroke="#8AB2B7" stroke-width="1.47657" stroke-miterlimit="10" stroke-linecap="round"/>
<path d="M253.088 177.553V215.127" stroke="#8AB2B7" stroke-width="1.47657" stroke-miterlimit="10" stroke-linecap="round"/>
<path d="M385.72 175.65V215.127" stroke="#8AB2B7" stroke-width="1.47657" stroke-miterlimit="10" stroke-linecap="round"/>
<path d="M472.674 138.682V174.803" stroke="#8AB2B7" stroke-width="1.47657" stroke-miterlimit="10" stroke-linecap="round"/>
<path d="M317.83 135.494V175.653" stroke="#8AB2B7" stroke-width="1.47657" stroke-miterlimit="10" stroke-linecap="round"/>
<path d="M203.538 135.494V175.653" stroke="#8AB2B7" stroke-width="1.47657" stroke-miterlimit="10" stroke-linecap="round"/>
<path d="M80.3008 135.494V174.805" stroke="#8AB2B7" stroke-width="1.47657" stroke-miterlimit="10" stroke-linecap="round"/>
<path d="M145.346 96.6055V135.494" stroke="#8AB2B7" stroke-width="1.47657" stroke-miterlimit="10" stroke-linecap="round"/>
<path d="M373.278 98.1738V135.493" stroke="#8AB2B7" stroke-width="1.47657" stroke-miterlimit="10" stroke-linecap="round"/>
<path d="M273.676 58.3262V95.334" stroke="#8AB2B7" stroke-width="1.47657" stroke-miterlimit="10" stroke-linecap="round"/>
<path d="M444.832 55.877V96.2135" stroke="#8AB2B7" stroke-width="1.47657" stroke-miterlimit="10" stroke-linecap="round"/>
<path d="M131.218 55.877V96.6038" stroke="#8AB2B7" stroke-width="1.47657" stroke-miterlimit="10" stroke-linecap="round"/>
<path d="M367.94 55.1761V3.0293" stroke="#8AB2B7" stroke-width="1.47657" stroke-miterlimit="10" stroke-linecap="round"/>
<path d="M254.265 45.4129C279.815 42.247 299.433 30.8611 298.082 19.9818C296.732 9.10255 274.924 2.84967 249.375 6.01561C223.825 9.18155 204.207 20.5674 205.558 31.4467C206.908 42.3259 228.715 48.5788 254.265 45.4129Z" fill="#004A66"/>
<path d="M466.319 195.162L458.352 240.052L512.844 252.577C512.844 252.577 512.206 203.758 504.239 195.162C496.272 186.566 466.319 195.162 466.319 195.162Z" fill="#004A66"/>
<path d="M496.267 192.148C498.994 196.812 501.751 201.532 503.183 206.738C504.615 211.944 504.566 217.774 501.878 222.457C501.461 223.185 500.977 223.898 500.813 224.719C500.294 227.334 503.06 229.303 505.441 230.516C502.645 231.993 503.61 236.258 505.355 238.892C507.099 241.526 509.342 244.725 507.872 247.529C506.252 250.614 501.821 250.184 498.35 249.832C497.099 249.704 495.475 249.887 495.128 251.094C494.803 252.222 495.899 253.215 496.876 253.858C501.993 257.254 507.414 260.17 513.069 262.568C514.045 262.982 515.117 263.386 516.14 263.114C517.762 262.678 518.474 260.811 518.853 259.177C520.61 251.566 520.323 243.63 519.389 235.869C517.651 221.478 513.731 207.434 507.763 194.221" fill="#15444F"/>
<path d="M477.724 245.79C479.443 237.828 480.351 229.713 480.431 221.568C482.959 230.395 484.574 239.457 485.25 248.613C485.423 250.95 485.298 253.764 483.296 254.982" fill="#15444F"/>
<path d="M549.17 148.359C544.911 161.118 520.887 157.456 513.07 155.899C511.514 155.587 510.61 155.362 510.61 155.362L508.988 166.352L505.957 186.802L505.52 189.751C505.52 189.751 506.395 190.748 506.5 193.206C506.568 194.678 506.36 196.676 505.52 199.307C487.995 213.313 465.829 203.453 465.829 203.453C465.829 203.453 462.226 202.898 463.442 197.384C463.526 196.992 463.637 196.573 463.779 196.13C463.699 195.094 463.649 194.026 463.627 192.967C463.431 185.282 464.417 177.663 464.417 177.663C464.417 177.663 451.989 191.988 446.252 183.396C440.515 174.804 450.073 144.875 458.04 137.549C466.007 130.223 478.883 127.998 478.883 127.998L493.496 125.469C497.888 124.706 502.384 124.771 506.753 125.659C521.222 128.587 553.125 136.497 549.17 148.359Z" fill="#00BAFF"/>
<path d="M541.561 136.498C543.193 138.243 544.857 140.036 545.79 142.233C546.724 144.43 546.79 147.154 545.343 149.055C543.614 151.328 540.406 151.742 537.552 151.925C527.754 152.556 517.928 152.618 508.123 152.112C507.16 152.064 506.167 152.012 505.256 152.326C502.867 153.15 501.961 156.168 502.352 158.662C502.742 161.157 504.048 163.416 504.679 165.86C505.758 170.029 504.827 174.423 503.896 178.628L501.9 187.671C501.669 188.717 501.427 189.788 500.844 190.687C500.206 191.668 499.217 192.36 498.219 192.975C493.895 195.634 489.027 197.284 483.976 197.802C486.392 198.521 488.934 198.712 491.431 198.361C493.927 198.011 496.318 197.127 498.442 195.77C499.803 196.577 499.872 198.659 498.982 199.964C498.091 201.27 496.561 201.975 495.102 202.569C489.984 204.642 484.555 206.154 479.038 206.183C473.521 206.212 467.869 204.663 463.6 201.174C463.323 200.978 463.098 200.719 462.945 200.417C462.471 199.282 464.005 198.254 464.07 197.026C464.108 196.278 463.6 195.632 463.237 194.977C462.155 193.027 462.305 190.659 462.563 188.436C463.373 181.466 464.944 174.605 467.246 167.976L458.187 181.587C457.512 182.599 456.774 183.66 455.648 184.126C454.288 184.68 452.709 184.19 451.482 183.385C447.56 180.815 446.338 175.729 445.43 171.132C444.598 166.918 443.77 162.539 444.799 158.367C441.808 165.063 440.655 172.434 441.459 179.723C441.758 182.399 442.353 185.121 443.86 187.354C445.368 189.588 447.948 191.248 450.634 191.044C453.62 190.818 455.956 188.486 458.002 186.301C457.626 189.674 457.258 193.129 458.052 196.43C459.651 203.077 465.82 207.885 472.416 209.705C479.012 211.526 486.02 210.863 492.797 209.914C495.859 209.486 498.951 208.992 501.798 207.788C508.403 204.996 512.976 198.603 515.085 191.756C517.195 184.908 517.143 177.591 516.687 170.445C516.61 169.275 516.553 167.999 517.236 167.044C517.94 166.061 519.223 165.712 520.412 165.489C525.363 164.537 530.451 164.527 535.423 163.705C540.396 162.882 545.452 161.095 548.814 157.336C552.488 153.218 553.528 146.94 551.375 141.86C549.222 136.78 543.989 133.156 538.472 132.926" fill="#00BAFF"/>
<path d="M460.502 188.854L460.312 188.809C460.313 188.784 460.32 188.759 460.333 188.736C460.346 188.714 460.363 188.696 460.385 188.682C460.497 188.603 460.636 188.849 460.502 188.854Z" fill="black"/>
<path d="M461.303 96.4729C461.303 96.4729 464.819 112.603 466.732 115.849C468.644 119.095 474.092 122.747 477.223 122.168C477.78 122.068 478.332 121.941 478.876 121.786C479.222 121.689 479.56 121.564 479.886 121.411C479.959 121.376 480.041 121.359 480.122 121.362C480.204 121.365 480.284 121.388 480.354 121.43C480.425 121.471 480.484 121.529 480.526 121.599C480.569 121.669 480.594 121.748 480.598 121.829L480.723 124.358L480.94 128.822C480.94 128.822 482.41 130.522 486.819 128.091C491.228 125.661 492.761 124.358 492.761 124.358L491.09 110.938C491.09 110.938 497.297 106.756 495.27 101.831C493.244 96.9065 490.602 102.522 490.602 102.522C490.602 102.522 470.127 77.3039 461.303 96.4729Z" fill="#FED194"/>
<path d="M490.606 104.792L483.745 97.8944C483.745 97.8944 477.002 103.111 471.537 99.2901C465.822 102.771 453.011 107.699 452.219 97.8944C451.754 92.1266 452.54 97.2898 456.522 97.8944C453.654 90.4562 462.975 87.3572 462.975 87.3572C462.975 87.3572 463.426 79.9553 470.491 78.5216C477.555 77.0878 482.408 84.0147 482.408 84.0147C482.408 84.0147 493.088 81.6257 498.106 88.3125C503.123 94.9992 495.675 107.931 495.675 107.931C495.675 107.931 495.675 98.0965 490.606 104.792Z" fill="#F9AA4B"/>
<path d="M471.535 109.868C471.535 109.868 471.649 111.782 475.126 110.904C480.719 109.475 471.535 109.868 471.535 109.868Z" fill="black"/>
<path d="M481.035 106.438C481.727 106.352 482.184 105.45 482.057 104.424C481.929 103.398 481.265 102.635 480.573 102.721C479.881 102.807 479.424 103.709 479.552 104.735C479.679 105.761 480.344 106.524 481.035 106.438Z" fill="black"/>
<path d="M468.846 107.951C469.538 107.865 469.995 106.964 469.867 105.938C469.739 104.911 469.075 104.149 468.383 104.235C467.692 104.321 467.234 105.223 467.362 106.249C467.49 107.275 468.154 108.037 468.846 107.951Z" fill="black"/>
<path d="M490.452 107.128C490.429 107.489 490.656 107.667 490.97 107.852C491.285 108.037 491.676 107.888 491.889 107.615C492.082 107.326 492.173 106.979 492.146 106.632C492.129 106.507 492.15 106.38 492.205 106.266C492.304 106.117 492.506 106.093 492.679 106.047C492.918 105.985 493.137 105.865 493.317 105.696C493.497 105.528 493.631 105.316 493.707 105.082C493.783 104.847 493.799 104.597 493.752 104.355C493.706 104.113 493.599 103.887 493.441 103.697C493.375 103.604 493.287 103.527 493.185 103.475C493.083 103.423 492.97 103.397 492.855 103.399C492.577 103.43 492.393 103.697 492.269 103.95C491.719 105.059 491.475 106.425 490.457 107.128" fill="black"/>
<path d="M484.56 110.471C486.814 110.191 488.55 109.223 488.436 108.31C488.322 107.396 486.403 106.883 484.148 107.163C481.894 107.443 480.159 108.411 480.272 109.324C480.386 110.238 482.306 110.751 484.56 110.471Z" fill="#F59D4E"/>
<path d="M478.876 121.786C479.222 121.689 479.56 121.564 479.886 121.411C479.959 121.376 480.04 121.359 480.122 121.362C480.204 121.365 480.283 121.388 480.354 121.43C480.424 121.471 480.484 121.529 480.526 121.599C480.569 121.669 480.593 121.748 480.598 121.829L480.723 124.358C486.217 123.322 487.054 115.818 484.699 117.753C482.732 119.368 480.026 121.078 478.876 121.786Z" fill="black"/>
<path d="M473.65 116.001C473.65 116.001 477.541 117.233 480.293 114.084L473.65 116.001Z" fill="white"/>
<path d="M473.65 116.001C473.65 116.001 477.541 117.233 480.293 114.084" stroke="black" stroke-width="2.95314" stroke-miterlimit="10" stroke-linecap="round"/>
<path d="M494.044 122.73L483.744 129.293L493.088 133.237L495.676 124.356L494.044 122.73Z" fill="#004A66"/>
<path d="M480.293 126.791L483.744 129.294L478.877 133.238L476.934 128.622L480.293 126.791Z" fill="#004A66"/>
<path d="M483.907 107.252C483.371 108.016 482.874 108.806 482.419 109.621C482.256 109.911 482.704 110.173 482.867 109.881C483.322 109.067 483.819 108.277 484.355 107.513C484.549 107.24 484.099 106.979 483.907 107.252Z" fill="white"/>
<path d="M485.937 107.391L484.815 109.072C484.63 109.35 485.08 109.609 485.265 109.333L486.385 107.654C486.57 107.376 486.121 107.115 485.937 107.391Z" fill="white"/>
<path d="M483.127 135.778C483.195 135.778 483.261 135.751 483.31 135.702C483.359 135.654 483.386 135.588 483.386 135.519C483.386 135.45 483.359 135.384 483.31 135.336C483.261 135.287 483.195 135.26 483.127 135.26C483.058 135.26 482.992 135.287 482.943 135.336C482.895 135.384 482.867 135.45 482.867 135.519C482.867 135.588 482.895 135.654 482.943 135.702C482.992 135.751 483.058 135.778 483.127 135.778Z" fill="white"/>
<path d="M483.312 141.182C483.381 141.182 483.447 141.155 483.495 141.106C483.544 141.058 483.571 140.992 483.571 140.923C483.571 140.854 483.544 140.789 483.495 140.74C483.447 140.691 483.381 140.664 483.312 140.664C483.243 140.664 483.177 140.691 483.129 140.74C483.08 140.789 483.053 140.854 483.053 140.923C483.053 140.992 483.08 141.058 483.129 141.106C483.177 141.155 483.243 141.182 483.312 141.182Z" fill="white"/>
<path d="M483.127 146.219C483.195 146.219 483.261 146.192 483.31 146.144C483.359 146.095 483.386 146.029 483.386 145.96C483.386 145.892 483.359 145.826 483.31 145.777C483.261 145.728 483.195 145.701 483.127 145.701C483.058 145.701 482.992 145.728 482.943 145.777C482.895 145.826 482.867 145.892 482.867 145.96C482.867 146.029 482.895 146.095 482.943 146.144C482.992 146.192 483.058 146.219 483.127 146.219Z" fill="white"/>
<path d="M485.282 135.512L485.653 144.84C485.667 145.172 486.186 145.174 486.172 144.84L485.8 135.512C485.788 135.179 485.268 135.177 485.282 135.512Z" fill="white"/>
<path d="M554.978 136.508C556.55 135.72 558.424 135.454 560.143 135.197C562.672 134.834 565.22 134.614 567.775 134.537C570.196 134.434 572.62 134.477 575.036 134.665C576.966 134.838 578.792 135.114 580.522 136.007C592.013 141.939 602.288 150.5 609.609 161.201C613.248 166.481 616.07 172.278 617.981 178.398C620.204 185.618 621.28 193.226 621.497 200.767C621.945 216.269 618.577 231.626 612.68 245.913C606.894 259.914 599.128 273.161 595.148 287.865C592.067 299.245 591.773 311.924 596.298 322.976C598.441 328.212 601.727 332.979 606.153 336.546C611.54 340.887 618.226 343.161 624.969 344.342C631.643 345.512 639.429 346.479 645.705 343.29C650.907 340.647 654.507 335.047 652.7 329.163C650.88 323.242 645.148 319.295 639.966 316.498C633.799 313.183 627.198 310.746 620.355 309.259C613.453 307.75 606.378 307.192 599.325 307.6C595.91 307.799 592.512 308.229 589.155 308.887C585.725 309.563 582.443 310.634 579.079 311.553C576.03 312.387 572.322 313.043 569.782 310.672C569.538 310.445 569.17 310.81 569.415 311.038C571.469 312.955 574.257 313.055 576.89 312.593C580.175 312.014 583.308 310.753 586.546 309.986C593.49 308.352 600.631 307.712 607.755 308.086C614.883 308.451 621.924 309.808 628.676 312.119C632.091 313.289 635.414 314.708 638.619 316.367C641.621 317.922 644.541 319.659 647.064 321.926C649.441 324.062 651.568 326.712 652.361 329.872C653.188 333.154 652.287 336.536 650.148 339.131C645.307 345.004 637.197 345.294 630.203 344.555C622.958 343.788 615.567 342.136 609.339 338.193C604.246 334.974 600.305 330.279 597.707 324.873C592.482 314.006 592.376 300.979 595.272 289.461C598.967 274.766 606.62 261.534 612.505 247.679C618.359 233.897 621.966 219.201 622.063 204.179C622.151 190.47 619.469 176.53 612.42 164.641C606.066 153.931 596.782 145.085 586.185 138.605C584.832 137.776 583.455 136.986 582.056 136.235C581.133 135.739 580.209 135.182 579.207 134.853C577.455 134.288 575.534 134.162 573.708 134.057C568.879 133.784 564.035 134.04 559.261 134.82C557.733 135.076 556.121 135.363 554.723 136.064C554.425 136.213 554.688 136.66 554.985 136.512L554.978 136.508Z" fill="black"/>
<path d="M447.263 170.108L481.01 159.502L482.315 162.611L448.301 173.167C448.301 173.167 446.399 172.25 447.263 170.108Z" fill="white"/>
<path d="M481.008 159.503L554.175 134.865C554.175 134.865 556.298 135.354 555.317 137.313C549.423 139.597 555.575 148.735 550.724 153.639C547.725 156.668 533.375 160.809 532.262 146.124C525.266 148.57 482.313 162.604 482.313 162.604C480.579 162.013 481.008 159.503 481.008 159.503Z" fill="#383838"/>
<path opacity="0.6" d="M239.072 312.417C216.053 307.857 191.603 309.869 168.011 312.485C137.612 315.853 107.431 320.166 77.2606 324.478C50.8816 328.247 22.8479 332.633 3.84821 346.366C1.63858 347.964 -0.571062 350.166 0.514736 352.291C1.34465 353.908 3.7704 354.739 5.99041 355.374C28.4671 361.802 52.8734 364.671 77.0099 363.723C53.9955 365.59 31.8836 372.828 14.7667 384.092C12.5277 385.566 10.2714 387.243 9.67141 389.389C8.16028 394.84 17.4604 398.259 24.9348 399.615C152.841 422.802 286.597 421.147 418.402 417.899C422.268 417.804 426.433 417.632 429.448 415.883C434.405 413.011 433.667 407.049 429.568 403.543C425.468 400.036 419.137 398.402 413.071 397.027C442.175 392.335 471.597 389.881 501.076 389.687C519.386 389.561 537.833 390.294 555.902 388.15C561.691 387.459 568.811 385.243 568.479 381.016C568.23 377.877 563.811 375.873 559.813 374.637C547.095 370.71 533.08 368.986 519.276 369.651C535.225 370.317 551.196 369.005 566.822 365.746C575.801 363.845 586.434 358.62 583.331 352.253C581.614 348.731 576.283 346.932 571.363 345.779C561.302 343.422 550.814 342.187 540.364 341.002C474.954 333.587 409.243 327.811 343.231 323.673C305.005 321.279 265.624 319.232 231.179 307.031" fill="#004A66"/>
<path d="M539.111 148.338C544.012 146.91 547.407 143.773 546.694 141.332C545.981 138.89 541.43 138.068 536.53 139.496C531.629 140.924 528.234 144.061 528.947 146.503C529.66 148.945 534.21 149.766 539.111 148.338Z" fill="#FED194"/>
<path d="M542.681 150.898C544.977 150.898 546.839 149.561 546.839 147.913C546.839 146.264 544.977 144.928 542.681 144.928C540.384 144.928 538.522 146.264 538.522 147.913C538.522 149.561 540.384 150.898 542.681 150.898Z" fill="#FED194"/>
<path d="M471.04 166.075C475.761 164.135 478.803 160.655 477.834 158.303C476.866 155.951 472.254 155.617 467.533 157.557C462.812 159.497 459.769 162.977 460.738 165.329C461.706 167.681 466.319 168.015 471.04 166.075Z" fill="#FED194"/>
<path d="M477.763 170.049C479.551 168.609 480.161 166.401 479.125 165.118C478.09 163.834 475.801 163.961 474.013 165.401C472.225 166.841 471.615 169.048 472.65 170.332C473.686 171.615 475.975 171.489 477.763 170.049Z" fill="#FED194"/>
<path d="M556.667 282.408V307.974C556.668 310.572 556.157 313.144 555.163 315.544C554.169 317.945 552.71 320.126 550.872 321.962C549.033 323.799 546.85 325.256 544.447 326.249C542.045 327.242 539.47 327.753 536.87 327.751H62.0924C60.1978 327.75 58.3809 326.998 57.0413 325.66C55.7016 324.321 54.9487 322.506 54.9483 320.613V304.239H41.438C39.7905 304.239 38.159 303.915 36.6368 303.286C35.1146 302.656 33.7316 301.732 32.5666 300.569C31.4016 299.405 30.4775 298.023 29.8471 296.502C29.2167 294.981 28.8924 293.351 28.8926 291.705V281.918C28.893 279.168 29.7982 276.495 31.4687 274.31C33.1393 272.125 35.4825 270.55 38.1374 269.826V234.138C38.137 232.098 38.5387 230.078 39.3196 228.194C40.1005 226.309 41.2454 224.597 42.6888 223.155C44.1322 221.712 45.8458 220.568 47.7319 219.787C49.6179 219.007 51.6394 218.605 53.6809 218.605H103.688L162.11 184.306C177.232 175.427 194.453 170.745 211.993 170.742H310.645C334.354 170.744 357.266 179.291 375.174 194.814L404.558 220.284L520.865 246.107C523.961 246.797 526.847 248.218 529.28 250.253L549.59 267.259C551.806 269.114 553.588 271.432 554.81 274.049C556.033 276.667 556.667 279.52 556.667 282.408Z" fill="#F0A975"/>
<path d="M54.9446 304.248H27.4365V320.62H54.9446V304.248Z" fill="black"/>
<path d="M38.335 230.352H47.5798C52.9406 230.352 58.2178 231.679 62.9399 234.214C67.6619 236.75 71.6817 240.414 74.64 244.881L81.594 255.38C81.9971 255.988 82.2278 256.694 82.2614 257.423C82.295 258.151 82.1302 258.875 81.7847 259.518C81.4392 260.161 80.9258 260.698 80.2991 261.072C79.6725 261.446 78.956 261.644 78.2259 261.644H38.335V230.352Z" fill="#EA7A00" fill-opacity="0.6"/>
<path d="M510.004 260.872L521.199 272.412C521.51 272.732 521.882 272.986 522.292 273.16C522.703 273.334 523.144 273.423 523.59 273.423H536.466C539.445 273.423 540.925 269.814 538.802 267.723L527.074 256.184C526.452 255.57 525.613 255.226 524.739 255.227H512.395C509.454 255.23 507.952 258.769 510.004 260.872Z" fill="white"/>
<path d="M554.978 315.969C553.427 319.476 550.888 322.457 547.673 324.55C544.457 326.643 540.702 327.757 536.864 327.758H62.0865C60.1919 327.758 58.375 327.006 57.0354 325.667C55.6957 324.329 54.9428 322.514 54.9424 320.621V315.969H554.978Z" fill="#C16B16" fill-opacity="0.6"/>
<path d="M183.799 185.204C170.093 191.748 144.846 205.738 136.158 223.442C135.807 224.16 135.645 224.956 135.686 225.754C135.727 226.552 135.972 227.326 136.395 228.004C136.819 228.682 137.408 229.241 138.108 229.629C138.808 230.016 139.594 230.219 140.394 230.219H240.435C244.024 230.218 247.466 228.794 250.004 226.258C252.542 223.722 253.967 220.283 253.967 216.697V194.684C253.967 191.099 252.542 187.66 250.004 185.124C247.466 182.589 244.024 181.164 240.435 181.164H201.706C195.51 181.159 189.391 182.54 183.799 185.204Z" fill="#EA7A00"/>
<path d="M189.098 187.454C176.899 193.279 154.427 205.732 146.693 221.484C146.381 222.123 146.236 222.831 146.273 223.541C146.31 224.251 146.528 224.941 146.905 225.544C147.282 226.147 147.807 226.644 148.429 226.989C149.052 227.334 149.752 227.514 150.464 227.514H239.507C242.701 227.514 245.765 226.246 248.024 223.989C250.283 221.732 251.552 218.671 251.552 215.479V195.892C251.552 192.7 250.283 189.639 248.024 187.382C245.765 185.125 242.701 183.857 239.507 183.857H205.034C199.52 183.854 194.075 185.082 189.098 187.454Z" fill="#DDCCBA"/>
<path d="M195.171 174.686L162.113 236.822L135.499 231.662L150.628 201.275L195.171 174.686Z" fill="white"/>
<path d="M209.179 174.686L180.764 234.303H194.971L215.341 177.204L209.179 174.686Z" fill="white"/>
<path d="M328.066 185.204C341.222 191.748 365.455 205.738 373.794 223.442C375.267 226.567 373.072 230.219 369.728 230.219H273.704C266.53 230.219 260.714 224.173 260.714 216.697V194.684C260.714 187.217 266.53 181.164 273.704 181.164H310.877C316.842 181.163 322.727 182.546 328.066 185.204Z" fill="#EA7A00"/>
<path d="M324.571 187.454C336.771 193.279 359.242 205.731 366.976 221.484C367.289 222.123 367.433 222.831 367.396 223.541C367.359 224.251 367.142 224.941 366.765 225.544C366.388 226.147 365.863 226.644 365.24 226.989C364.617 227.334 363.917 227.514 363.205 227.514H274.163C270.968 227.514 267.904 226.246 265.645 223.989C263.386 221.732 262.117 218.671 262.117 215.479V195.892C262.117 192.7 263.386 189.639 265.645 187.382C267.904 185.125 270.968 183.857 274.163 183.857H308.634C314.148 183.853 319.594 185.082 324.571 187.454Z" fill="#DDCCBA"/>
<path d="M309.191 178.045L296.023 234.305H311.828L322.638 178.045H309.191Z" fill="white"/>
<path d="M334.125 185.043L322.638 234.305H334.125L342.81 190.082L334.125 185.043Z" fill="white"/>
<path d="M391.797 220.242H356.726C355.58 220.242 354.651 221.17 354.651 222.315V236.083C354.651 237.227 355.58 238.155 356.726 238.155H391.797C392.943 238.155 393.871 237.227 393.871 236.083V222.315C393.871 221.17 392.943 220.242 391.797 220.242Z" fill="#C16B16"/>
<path d="M188.143 244.986H170.411C170.047 244.986 169.752 245.281 169.752 245.644V248.59C169.752 248.953 170.047 249.248 170.411 249.248H188.143C188.507 249.248 188.802 248.953 188.802 248.59V245.644C188.802 245.281 188.507 244.986 188.143 244.986Z" fill="#C16B16"/>
<path d="M311.171 244.986H293.439C293.075 244.986 292.78 245.281 292.78 245.644V248.59C292.78 248.953 293.075 249.248 293.439 249.248H311.171C311.535 249.248 311.83 248.953 311.83 248.59V245.644C311.83 245.281 311.535 244.986 311.171 244.986Z" fill="#C16B16"/>
<path d="M137.662 239.876C139.711 246.974 147.507 249.266 153.923 250.567C160.666 251.933 167.302 253.652 173.634 256.397C179.685 259.023 185.456 262.476 190.277 267.015C195.403 271.848 199.229 277.892 201.403 284.59C204.122 292.881 204.714 301.664 205.272 310.307C205.295 310.639 205.813 310.641 205.791 310.307C205.298 302.691 204.778 294.999 202.827 287.589C201.055 280.852 197.974 274.593 193.318 269.382C184.533 259.536 171.725 254.074 159.103 251.128C154.878 250.142 150.477 249.631 146.444 247.967C142.749 246.445 139.315 243.704 138.17 239.738C138.148 239.677 138.103 239.627 138.045 239.597C137.986 239.567 137.919 239.56 137.856 239.578C137.793 239.595 137.739 239.635 137.705 239.691C137.67 239.746 137.657 239.812 137.669 239.876H137.662Z" fill="white"/>
<path d="M275.289 249.941C280.969 269.202 281.432 289.623 276.629 309.12C276.549 309.443 277.049 309.581 277.129 309.258C281.948 289.67 281.486 269.155 275.79 249.803C275.695 249.483 275.196 249.62 275.289 249.941Z" fill="white"/>
<path d="M403.262 254.589C405.208 267.44 404.921 280.53 402.413 293.283C401.714 296.834 400.843 300.346 399.801 303.82C399.706 304.14 400.206 304.276 400.301 303.959C404.043 291.437 405.595 278.364 404.889 265.315C404.689 261.679 404.313 258.059 403.762 254.455C403.712 254.127 403.212 254.266 403.262 254.593V254.589Z" fill="white"/>
<path d="M82.5742 327.756C78.3056 315.121 78.5193 301.403 83.1793 288.907C94.3917 258.7 127.987 243.304 158.217 254.508C187.874 265.496 203.271 298.009 193.248 327.749L82.5742 327.756Z" fill="#EA7A00"/>
<path d="M410.697 327.197C406.429 314.562 406.642 300.845 411.302 288.348C422.515 258.141 456.11 242.745 486.34 253.949C515.997 264.937 531.394 297.45 521.371 327.191L410.697 327.197Z" fill="#EA7A00" fill-opacity="0.6"/>
<path d="M137.913 367.011C168.084 367.011 192.542 342.576 192.542 312.432C192.542 282.289 168.084 257.854 137.913 257.854C107.742 257.854 83.2842 282.289 83.2842 312.432C83.2842 342.576 107.742 367.011 137.913 367.011Z" fill="#361212"/>
<path d="M137.913 355.167C161.537 355.167 180.688 336.034 180.688 312.431C180.688 288.829 161.537 269.695 137.913 269.695C114.289 269.695 95.1377 288.829 95.1377 312.431C95.1377 336.034 114.289 355.167 137.913 355.167Z" fill="#AF5700"/>
<path d="M137.913 342.747C154.309 342.747 167.6 329.468 167.6 313.087C167.6 296.707 154.309 283.428 137.913 283.428C121.518 283.428 108.227 296.707 108.227 313.087C108.227 329.468 121.518 342.747 137.913 342.747Z" fill="#894100"/>
<path d="M148.469 271.401C148.469 271.401 142.294 308.34 174.374 290.152C180.911 297.235 180.771 311.572 180.771 311.572C180.771 311.572 142.282 318.654 167.333 343.47C160.322 351.618 143.804 354.265 143.804 354.265C143.804 354.265 135.565 334.217 115.592 348.309C102.464 345.035 98.6481 328.361 98.6481 328.361C98.6481 328.361 136.466 310.665 97.3652 299.624C101.408 284.828 108.759 282.35 108.759 282.35C108.759 282.35 128.438 299.093 124.543 272.028C138.157 266.908 148.469 271.401 148.469 271.401Z" stroke="#D8BCA3" stroke-width="2.95314" stroke-miterlimit="10"/>
<path d="M136.748 325.13C143.405 325.13 148.801 319.739 148.801 313.089C148.801 306.438 143.405 301.047 136.748 301.047C130.092 301.047 124.695 306.438 124.695 313.089C124.695 319.739 130.092 325.13 136.748 325.13Z" fill="white"/>
<path d="M467 366.074C497.171 366.074 521.629 341.638 521.629 311.495C521.629 281.352 497.171 256.916 467 256.916C436.829 256.916 412.371 281.352 412.371 311.495C412.371 341.638 436.829 366.074 467 366.074Z" fill="#361212"/>
<path d="M467 354.23C490.623 354.23 509.774 335.096 509.774 311.494C509.774 287.891 490.623 268.758 467 268.758C443.376 268.758 424.225 287.891 424.225 311.494C424.225 335.096 443.376 354.23 467 354.23Z" fill="#AF5700"/>
<path d="M467 343.066C483.889 343.066 497.581 329.387 497.581 312.513C497.581 295.64 483.889 281.961 467 281.961C450.111 281.961 436.42 295.64 436.42 312.513C436.42 329.387 450.111 343.066 467 343.066Z" fill="#894100"/>
<path d="M462.612 269.358C462.612 269.358 469.684 306.136 493.428 277.936C502.019 282.298 506.876 295.798 506.876 295.798C506.876 295.798 473.257 315.82 505.382 330.375C501.646 340.451 487.079 348.672 487.079 348.672C487.079 348.672 472.511 332.607 458.689 352.766C445.243 354.258 435.718 340.078 435.718 340.078C435.718 340.078 465.014 310.346 424.512 313.581C423.152 298.304 429.181 293.429 429.181 293.429C429.181 293.429 453.461 302.288 440.386 278.265C451.381 268.729 462.612 269.358 462.612 269.358Z" stroke="#D8BCA3" stroke-width="2.95314" stroke-miterlimit="10"/>
<path d="M466.134 324.556C472.79 324.556 478.186 319.165 478.186 312.514C478.186 305.864 472.79 300.473 466.134 300.473C459.477 300.473 454.081 305.864 454.081 312.514C454.081 319.165 459.477 324.556 466.134 324.556Z" fill="white"/>
<path d="M38.335 232.783H46.207C50.7716 232.783 55.2651 233.913 59.286 236.071C63.3069 238.23 66.7299 241.35 69.2491 245.153L75.1709 254.094C75.5138 254.612 75.71 255.213 75.7384 255.834C75.7668 256.454 75.6265 257.071 75.3323 257.618C75.0381 258.165 74.601 258.622 74.0675 258.941C73.5341 259.26 72.9241 259.428 72.3025 259.428H38.335V232.783Z" fill="#C16B16" fill-opacity="0.6"/>
<path d="M210.078 264.584C214.467 273.651 217.357 283.369 218.638 293.359C218.984 296.123 219.329 299.134 221.287 301.111C223.726 303.571 227.667 303.468 231.123 303.184L254.047 301.372C257.782 301.077 262.07 300.464 264.058 297.29C265.625 294.789 265.111 291.384 263.434 288.956C261.757 286.527 259.112 284.933 256.42 283.742C252.131 281.858 247.518 280.822 242.835 280.692C241.441 280.654 239.987 280.692 238.736 280.072C235.091 278.287 235.734 273.074 235.412 269.032C234.842 261.884 229.361 255.793 222.825 252.836C216.29 249.879 208.838 249.613 201.69 250.186" fill="#EA7A00" fill-opacity="0.6"/>
<path d="M310.082 300.294L368.175 296.678C373.535 296.345 379.759 295.517 382.526 290.905C383.736 288.874 384.034 286.431 384.122 284.066C384.385 276.916 383.043 269.797 380.193 263.232C378.464 259.245 375.655 255.113 371.367 254.371C370.015 254.136 368.487 254.324 367.51 255.288C366.785 256.003 366.472 257.031 366.284 258.033C365.369 262.94 366.91 267.922 367.914 272.812C368.919 277.703 369.271 283.206 366.386 287.281C361.968 293.517 352.765 293.171 345.187 292.168L315.78 288.274C310.51 287.583 304.208 287.265 300.911 291.427" fill="#EA7A00" fill-opacity="0.6"/>
<path d="M411.707 245.228C412.466 248.377 413.263 251.605 415.094 254.279C416.925 256.953 420.056 258.987 423.274 258.586C425.366 258.327 427.197 257.107 428.94 255.922L447.251 243.468C436.186 235.385 422.1 231.549 408.462 232.892" fill="#EA7A00" fill-opacity="0.6"/>
<path d="M105.114 230.301L90.8729 235.814C90.2695 236.048 89.609 236.333 89.3479 236.927C88.9105 237.92 89.8666 238.938 90.719 239.608L100.254 247.086C101.781 248.285 103.679 249.552 105.512 248.917C106.513 248.571 107.241 247.718 107.877 246.872C110.538 243.292 112.457 239.219 113.524 234.891C114.59 230.562 114.783 226.064 114.09 221.66" fill="#EA7A00" fill-opacity="0.6"/>
<path d="M332.805 378.934L325.716 317.562H386.55L376.885 378.934C376.885 378.934 361.741 388.376 332.805 378.934Z" fill="#004A66"/>
<path d="M356.13 324.644C372.929 324.644 386.548 321.474 386.548 317.563C386.548 313.653 372.929 310.482 356.13 310.482C339.33 310.482 325.712 313.653 325.712 317.563C325.712 321.474 339.33 324.644 356.13 324.644Z" fill="#361212"/>
<path d="M327.314 319.836C327.314 319.836 402.466 391.087 386.548 317.562" stroke="black" stroke-width="2.95314" stroke-miterlimit="10"/>
<path d="M359.97 319.733C358.932 320.301 358.587 321.599 359.065 322.67C359.662 323.993 360.276 326.688 360.129 332.158C359.866 342.388 360.15 340.289 360.15 340.289C360.15 340.289 377.192 350.087 377.98 340.462C378.769 330.837 384.806 320.089 377.98 319.56C372.178 319.128 364.304 317.356 359.97 319.733Z" fill="white"/>
<path d="M359.105 317.537C361.809 317.798 363.521 320.709 363.773 323.41C364.026 326.112 363.308 328.821 363.388 331.529C363.495 335.219 365.08 338.845 364.553 342.498C364.494 342.907 364.399 343.331 364.128 343.643C363.599 344.251 362.649 344.193 361.858 344.039C360.858 343.844 359.855 343.573 358.984 343.044C356.759 341.698 355.777 338.931 355.68 336.333C355.583 333.735 356.199 331.166 356.372 328.574C356.581 325.534 356.193 322.482 355.23 319.591" fill="#EDD4FF"/>
<g opacity="0.88">
<path opacity="0.88" d="M174.115 148.431C178.147 140.683 188.04 136.538 196.398 139.091C204.756 141.644 210.636 150.612 209.64 159.287C214.718 156.351 222.232 159.989 223.086 165.784C221.311 160.464 228.463 154.808 233.239 157.757C229.42 155.413 230.317 148.709 234.402 146.864C238.488 145.019 243.706 147.9 245.046 152.172C246.386 156.444 244.315 161.308 240.765 164.043C246.989 165.399 249.097 174.58 244.835 179.306C240.573 184.032 232.468 183.797 227.533 179.781C231.536 188.57 230.02 199.978 222.851 206.454C215.683 212.93 203.072 212.795 196.953 205.321C196.118 214.668 189.38 223.227 180.483 226.24C171.585 229.252 161.028 226.552 154.674 219.639C150.25 224.619 141.15 224.131 137.291 218.696C133.432 213.262 135.967 204.519 142.132 201.989C137.36 196.644 132.668 190.567 132.104 183.428C131.54 176.288 137.063 168.303 144.207 168.947C143.251 164.304 142.291 159.566 142.844 154.857C143.398 150.148 145.73 145.392 149.904 143.136C157.371 139.099 166.279 144.435 173.053 149.55" fill="#FFE8AE"/>
</g>
<path d="M180.136 153.158C183.546 147.285 191.91 144.137 198.982 146.075C206.054 148.014 211.017 154.813 210.177 161.392C214.468 159.171 220.822 161.924 221.543 166.319C220.043 162.284 226.089 157.996 230.126 160.231C226.898 158.454 227.657 153.369 231.11 151.971C234.563 150.574 238.977 152.757 240.101 155.998C241.224 159.238 239.483 162.924 236.484 164.999C241.743 166.027 243.526 172.988 239.924 176.573C236.323 180.157 229.467 179.983 225.297 176.932C228.681 183.598 227.398 192.247 221.338 197.16C215.278 202.073 204.617 201.967 199.444 196.296C198.738 203.378 193.046 209.877 185.52 212.161C177.994 214.444 169.072 212.397 163.7 207.151C159.961 210.929 152.267 210.554 149.004 206.436C145.742 202.318 147.886 195.686 153.097 193.765C149.063 189.713 145.097 185.104 144.625 179.691C144.153 174.277 148.817 168.221 154.853 168.71C154.046 165.187 153.233 161.594 153.702 158.024C154.17 154.453 156.141 150.845 159.669 149.135C165.983 146.074 173.514 150.119 179.241 153.999" fill="#FFF1D2"/>
<path d="M178.361 166.498C180.373 162.812 185.313 160.839 189.487 162.053C193.661 163.268 196.593 167.536 196.097 171.665C198.631 170.271 202.383 171.998 202.809 174.755C201.923 172.224 205.494 169.533 207.878 170.936C205.976 169.821 206.419 166.631 208.459 165.753C210.499 164.876 213.103 166.246 213.772 168.279C214.441 170.312 213.407 172.627 211.635 173.927C214.747 174.572 215.795 178.937 213.667 181.183C211.538 183.428 207.492 183.323 205.022 181.409C207.02 185.591 206.263 191.02 202.684 194.102C199.105 197.183 192.812 197.118 189.757 193.561C189.34 198.009 185.975 202.082 181.534 203.516C177.092 204.95 171.837 203.666 168.656 200.384C166.448 202.754 161.913 202.519 159.978 199.935C158.044 197.351 159.318 193.19 162.399 191.989C160.016 189.446 157.674 186.553 157.385 183.157C157.096 179.761 159.861 175.959 163.424 176.266C162.949 174.057 162.468 171.801 162.745 169.561C163.021 167.32 164.185 165.057 166.268 163.985C169.996 162.064 174.443 164.601 177.825 167.035" fill="#FFE8AE"/>
<g opacity="0.88">
<path opacity="0.88" d="M303.436 168.631C303.247 163.515 295.828 160.744 291.967 164.105C288.107 167.467 289.17 174.572 293.581 177.18C297.991 179.789 304.238 177.871 307.018 173.568C303.27 178.578 306.036 186.653 311.728 189.267C317.42 191.88 324.597 189.533 328.613 184.729C328.827 194.369 340.073 201.984 349.115 198.612C348.942 206.416 358.194 211.887 365.834 210.258C373.475 208.629 379.148 202.127 382.846 195.247C385.183 190.887 386.995 185.967 386.286 181.082C385.578 176.197 381.66 171.488 376.711 171.335C380.38 163.803 372.837 154.391 364.463 154.002C356.09 153.613 348.605 159.747 344.407 166.997C340.97 163.383 335.565 162.136 330.617 162.774C325.669 163.411 321.085 165.7 316.821 168.291C315.048 169.371 312.196 170.222 311.358 168.324C311.161 167.878 311.154 167.372 311.012 166.904C310.291 164.416 303.284 166.054 303.427 168.631" fill="#FFE8AE"/>
</g>
<path d="M320.664 172.901C320.525 169.145 315.086 167.114 312.249 169.581C309.411 172.047 310.196 177.257 313.433 179.171C316.67 181.085 321.251 179.679 323.288 176.521C320.539 180.202 322.569 186.122 326.746 188.04C330.923 189.957 336.186 188.233 339.134 184.709C339.292 191.791 347.541 197.369 354.176 194.901C354.052 200.625 360.836 204.638 366.442 203.443C372.047 202.247 376.216 197.48 378.922 192.431C380.637 189.231 381.965 185.625 381.446 182.032C380.927 178.439 378.052 174.994 374.421 174.882C377.113 169.354 371.579 162.445 365.43 162.167C359.282 161.888 353.798 166.381 350.718 171.7C348.198 169.049 344.233 168.135 340.602 168.601C336.971 169.068 333.61 170.748 330.483 172.65C329.181 173.441 327.088 174.067 326.475 172.673C326.329 172.346 326.324 171.982 326.224 171.636C325.695 169.812 320.555 171.013 320.66 172.911" fill="#FFF1D2"/>
<path d="M335.175 176.347C335.085 174.126 331.582 172.925 329.756 174.383C327.93 175.841 328.434 178.925 330.519 180.058C332.604 181.191 335.553 180.357 336.868 178.491C335.097 180.668 336.402 184.169 339.093 185.304C341.783 186.439 345.172 185.418 347.07 183.335C347.172 187.519 352.484 190.823 356.753 189.358C356.673 192.746 361.042 195.119 364.652 194.413C368.262 193.706 370.948 190.885 372.69 187.899C373.793 185.998 374.649 183.872 374.316 181.747C373.982 179.623 372.13 177.584 369.791 177.517C371.52 174.249 367.96 170.163 364.004 169.996C360.048 169.828 356.512 172.488 354.531 175.636C352.906 174.066 350.354 173.525 348.014 173.801C345.675 174.078 343.519 175.073 341.498 176.197C340.659 176.665 339.312 177.035 338.916 176.211C338.848 176.01 338.794 175.804 338.756 175.594C338.41 174.515 335.104 175.225 335.171 176.347" fill="#FFE8AE"/>
<path d="M280.262 179.371C282.794 179.371 284.847 177.32 284.847 174.79C284.847 172.26 282.794 170.209 280.262 170.209C277.73 170.209 275.677 172.26 275.677 174.79C275.677 177.32 277.73 179.371 280.262 179.371Z" fill="#FFE8AE"/>
<path d="M123.322 251.885C123.474 249.531 121.585 247.368 119.323 246.691C117.062 246.014 114.577 246.591 112.495 247.703C109.288 249.418 106.714 252.631 106.544 256.262C106.375 259.893 109.138 263.649 112.769 263.878C110.882 264.015 109.311 265.376 108.156 266.874C106.772 268.677 105.754 270.942 106.129 273.182C106.402 274.811 107.378 276.241 108.505 277.449C111.842 281.025 116.88 283.068 121.73 282.419C126.58 281.769 131.037 278.273 132.449 273.59C135.697 275.115 139.924 274.163 142.201 271.391C144.478 268.618 144.585 264.291 142.453 261.408C140.826 259.209 138.209 257.974 135.608 257.121C136.539 254.165 134.938 250.636 132.1 249.385C129.263 248.135 125.575 249.334 124.017 252.015" fill="#FFE8AE"/>
<path d="M123.831 258.509C123.94 256.863 122.62 255.348 121.033 254.881C119.446 254.415 117.712 254.812 116.254 255.59C114.007 256.799 112.207 259.044 112.089 261.58C111.972 264.116 113.908 266.75 116.45 266.911C115.129 267.006 114.029 267.959 113.22 269.008C112.252 270.269 111.539 271.855 111.802 273.423C111.992 274.563 112.667 275.564 113.465 276.408C115.801 278.911 119.327 280.342 122.721 279.885C126.115 279.429 129.235 276.983 130.221 273.707C132.493 274.776 135.453 274.109 137.045 272.169C138.638 270.229 138.715 267.199 137.218 265.182C136.08 263.643 134.248 262.779 132.427 262.181C133.079 260.108 131.959 257.643 129.974 256.768C127.989 255.892 125.406 256.731 124.316 258.607" fill="#FFF1D2"/>
<path d="M124.34 263.852C124.403 262.912 123.649 262.046 122.743 261.779C121.837 261.511 120.841 261.739 120.013 262.185C118.731 262.876 117.703 264.154 117.634 265.605C117.564 267.056 118.671 268.557 120.125 268.65C119.371 268.704 118.742 269.248 118.28 269.847C117.727 270.568 117.321 271.473 117.471 272.369C117.58 273.021 117.969 273.592 118.42 274.074C119.755 275.503 121.768 276.32 123.707 276.061C125.647 275.802 127.426 274.403 127.99 272.532C128.645 272.839 129.384 272.919 130.089 272.759C130.795 272.6 131.427 272.21 131.886 271.651C132.344 271.093 132.604 270.397 132.623 269.675C132.641 268.952 132.418 268.244 131.989 267.662C131.337 266.783 130.291 266.291 129.252 265.949C129.441 265.351 129.402 264.705 129.144 264.135C128.885 263.564 128.425 263.108 127.851 262.856C127.278 262.603 126.631 262.57 126.035 262.764C125.439 262.958 124.935 263.365 124.62 263.907" fill="#FFE8AE"/>
<g opacity="0.71">
<path opacity="0.71" d="M90.5759 309.458C90.6969 306.537 87.583 304.258 84.6593 304.357C81.7356 304.455 79.1508 306.29 77.1072 308.38C74.906 310.632 73.1103 313.246 71.7992 316.108C71.1266 317.58 70.5889 319.304 71.2546 320.772C71.7214 321.809 72.7017 322.51 73.708 323.033C76.2723 324.354 79.2037 324.784 82.0399 324.256C80.368 324.244 78.9036 325.657 78.518 327.283C78.1324 328.908 78.6632 330.646 79.5969 332.031C81.2723 334.522 84.1977 336.039 87.1905 336.303C90.1834 336.567 93.2074 335.657 95.7576 334.073C98.0208 332.665 100.025 330.596 100.635 328.005C101.245 325.414 100.085 322.304 97.6093 321.33C99.9486 319.703 100.03 315.975 98.2715 313.729C96.5132 311.484 93.5048 310.558 90.6537 310.532" fill="#FFF1D2"/>
</g>
<path d="M109.79 311.03C113.255 311.03 116.065 308.223 116.065 304.761C116.065 301.299 113.255 298.492 109.79 298.492C106.325 298.492 103.516 301.299 103.516 304.761C103.516 308.223 106.325 311.03 109.79 311.03Z" fill="#FFE8AE"/>
<path d="M488.536 239.176C492.302 239.176 495.355 236.126 495.355 232.364C495.355 228.601 492.302 225.551 488.536 225.551C484.77 225.551 481.717 228.601 481.717 232.364C481.717 236.126 484.77 239.176 488.536 239.176Z" fill="#FFE8AE"/>
<path d="M89.6882 176.439C97.8392 176.439 104.447 169.838 104.447 161.694C104.447 153.551 97.8392 146.949 89.6882 146.949C81.5373 146.949 74.9297 153.551 74.9297 161.694C74.9297 169.838 81.5373 176.439 89.6882 176.439Z" fill="#FFF1D2"/>
<path d="M96.7877 157.469L96.5542 156.839C97.2683 157.635 97.3219 158.817 97.2026 159.879C96.9749 161.912 96.2635 163.862 95.1278 165.564C93.7723 167.59 91.8307 169.245 90.8832 171.491C90.7345 171.836 90.6117 172.225 90.7103 172.593C90.8296 173.045 91.2532 173.355 91.6871 173.532C93.5735 174.299 95.6967 173.203 97.2562 171.891C99.4745 170.026 101.305 167.542 101.79 164.686C102.274 161.831 101.174 158.608 98.6878 157.117C97.7593 156.561 96.6355 156.253 95.5756 156.5" fill="white"/>
<path d="M94.6277 151.276C94.1713 150.948 93.5143 151.017 93.0423 151.323C92.5702 151.628 92.2573 152.126 92.0291 152.639C91.7628 153.24 91.5986 153.966 91.9305 154.539C92.3074 155.187 93.2013 155.361 93.9275 155.173C94.9787 154.9 95.8501 153.924 95.857 152.839C95.8639 151.754 94.875 150.721 93.7926 150.808" fill="white"/>
<path opacity="0.79" d="M446.388 169.963C446.388 169.963 398.861 182.589 398.15 150.575C397.439 118.561 353.803 163.643 395.508 181.803C368.047 173.178 356.606 188.999 377.451 191.24C339.489 202.295 329.136 230.624 354.879 240.141C380.622 249.657 389.861 231.744 389.861 231.744C389.861 231.744 389.847 239.555 395.487 244.421C405.254 252.847 418.225 238.579 409.091 229.472C403.951 224.347 400.368 219.443 410.263 208.004C428.329 187.12 412.317 226.594 425.096 213.38C437.875 200.165 441.646 177.298 449.475 172.786" fill="#C8DCED"/>
<path d="M437.176 175.913C437.176 175.913 396.307 186.277 394.894 161.802C393.482 137.326 370.052 170.71 405.441 185.65C382.222 178.357 375.054 187.772 392.57 190.019C361.063 197.481 342.515 225.258 365.585 227.742C387.605 230.12 391.602 212.023 391.602 212.023C391.602 212.023 387.923 225.203 392.773 229.063C401.169 235.75 401.667 218.904 400.453 215.191C398.587 209.49 408.465 199.896 416.458 191.415C431.05 175.927 416.878 209.127 427.242 199.361C437.605 189.594 435.921 178.827 442.36 175.576" fill="#B0CFE2"/>
<path d="M352.082 214.401C351.206 217.271 350.505 220.192 349.983 223.147C349.832 223.995 349.696 224.86 349.82 225.714C350.022 227.12 350.916 228.343 351.969 229.298C353.886 231.028 356.337 232.05 358.916 232.195C359.625 232.231 360.37 232.195 360.991 231.849C361.612 231.504 362.07 230.78 361.906 230.089C361.79 229.599 361.399 229.225 361.024 228.88C359.239 227.279 357.346 225.804 355.356 224.465C354.623 223.971 353.864 223.484 353.316 222.793C352.327 221.545 352.177 219.834 352.27 218.246C352.391 216.216 352.842 214.221 353.294 212.238" fill="white"/>
<path d="M393.904 225.051C393.937 228.024 394.06 231.017 394.732 233.913C395.405 236.808 396.66 239.625 398.709 241.776C399.036 242.121 399.401 242.455 399.869 242.551C401.012 242.791 401.877 241.486 402.082 240.337C402.278 239.252 402.2 238.079 401.629 237.138C401.059 236.196 399.925 235.554 398.846 235.776C398.057 235.941 397.172 236.504 396.541 236.003C396.261 235.782 396.15 235.414 396.06 235.07C395.136 231.541 394.775 227.888 394.992 224.246" fill="white"/>
<path d="M436.545 176.069C433.239 178.019 429.66 179.615 425.861 180.161C422.063 180.707 418.01 180.13 414.796 178.026C414.158 177.608 413.511 177.116 412.749 177.066C411.618 176.993 410.608 178.028 410.501 179.154C410.394 180.28 411.02 181.389 411.921 182.079C412.821 182.768 413.947 183.093 415.066 183.269C418.854 183.86 422.751 182.875 426.192 181.184C429.632 179.493 432.682 177.126 435.701 174.773" fill="white"/>
<path d="M426.66 195.719C424.988 198.497 423.261 201.478 423.351 204.719C423.351 205.054 423.432 205.453 423.742 205.582C423.859 205.616 423.984 205.622 424.104 205.598C424.224 205.575 424.337 205.523 424.433 205.448C425.322 204.876 425.644 203.756 425.9 202.732C426.752 199.314 427.605 195.896 428.458 192.477" fill="white"/>
<path d="M389.934 146.182C388.115 147.034 386.518 148.294 385.265 149.863C384.012 151.432 383.138 153.268 382.711 155.229C382.624 155.647 382.56 156.092 382.711 156.49C382.861 156.887 383.309 157.201 383.713 157.068C383.912 156.984 384.084 156.849 384.215 156.678C386.577 154.03 388.039 150.594 390.785 148.342C391.608 147.664 392.566 147.072 393.059 146.127C393.551 145.182 393.28 143.733 392.248 143.467" fill="white"/>
<path d="M380.384 183.686C378.004 183.705 375.652 184.202 373.468 185.147C372.519 185.56 371.544 186.116 371.106 187.047C370.995 187.284 370.933 187.586 371.092 187.793C371.213 187.923 371.376 188.006 371.552 188.025C372.598 188.234 373.66 187.84 374.649 187.439C377.609 186.244 380.519 184.933 383.38 183.508" fill="white"/>
<path d="M402.154 189.674C397.695 191.12 394.592 195.098 392.035 199.024C389.477 202.951 387.033 207.185 383.087 209.717C382.11 210.344 381.012 210.864 379.845 210.841C378.678 210.819 377.475 210.119 377.174 208.998C377.001 208.344 377.145 207.644 377.375 207.005C378.353 204.276 380.748 202.27 383.327 200.938C385.907 199.606 388.729 198.822 391.403 197.692C395.311 196.041 398.871 193.668 401.898 190.698" fill="white"/>
<path d="M445.753 211.146C445.753 211.146 453.03 219.802 464.376 227.766C475.721 235.729 455.478 244.335 445.753 211.146Z" fill="#C8DCED"/>
<path opacity="0.79" d="M431.784 153.823C431.784 153.823 425.171 144.742 430.873 123.593C436.575 102.445 411.369 106.119 420.022 134.852C411.46 118.179 404.992 140.06 419.924 148.709C434.855 157.359 431.784 153.823 431.784 153.823Z" fill="#C8DCED"/>
<path d="M427.879 150.254C427.879 150.254 424.523 145.649 427.415 134.922C430.308 124.195 417.521 126.057 421.91 140.634C417.567 132.17 414.286 143.275 421.86 147.663C429.435 152.051 427.879 150.254 427.879 150.254Z" fill="#B0CFE2"/>
<path d="M421.402 122.72C421.341 120.034 421.334 117.155 422.837 114.926C423.433 114.042 424.393 113.256 425.456 113.38C425.602 113.386 425.742 113.443 425.852 113.539C425.903 113.6 425.94 113.67 425.963 113.745C425.986 113.82 425.994 113.9 425.985 113.978C425.961 114.56 425.525 115.03 425.135 115.462C422.929 117.901 421.312 121.088 421.566 124.366" fill="white"/>
<path d="M427.554 116.625C427.372 117.009 427.275 117.429 427.271 117.854C427.266 118.279 427.353 118.701 427.527 119.09C428.675 118.041 428.763 116.046 427.712 114.902" fill="white"/>
</svg>
