<svg width="40" height="40" viewBox="0 0 40 40" fill="none" xmlns="http://www.w3.org/2000/svg">
<path d="M20.0954 0H19.9046C8.91158 0 0 8.91158 0 19.9046V20.0954C0 31.0884 8.91158 40 19.9046 40H20.0954C31.0884 40 40 31.0884 40 20.0954V19.9046C40 8.91158 31.0884 0 20.0954 0Z" fill="#40CCED"/>
<g opacity="0.6">
<path opacity="0.6" d="M7.97471 28.3354H15.4547C15.4902 28.0757 14.7795 27.4828 14.7795 26.1791C14.7795 24.7998 13.8268 21.0078 12.1197 21.0078C11.3224 21.0078 10.9698 21.5823 10.9698 22.0708C10.9651 22.1592 10.9776 22.2477 11.0064 22.3315C10.9569 22.2729 10.7576 22.1268 10.1394 22.1268C8.71059 22.1268 7.41133 22.9854 7.41133 24.4911C7.41133 26.6558 9.10185 26.2958 7.9427 26.2958C7.23882 26.2958 6.96191 26.7997 6.96191 27.1583C6.96172 27.6641 7.48939 28.0788 7.97471 28.3354Z" fill="white"/>
</g>
<g opacity="0.6">
<path opacity="0.6" d="M35.4592 28.334C35.4592 28.3176 35.4627 28.3026 35.4627 28.2858C35.4627 27.5727 35.0668 27.038 34.1955 27.038C31.8635 27.038 32.9229 27.9234 32.9229 26.0323C32.9229 25.0774 32.3533 24.5804 31.6334 24.5804C31.3868 24.5813 31.1438 24.6391 30.9231 24.7492C31.5486 24.1248 32.1738 23.1001 32.1738 22.2051C32.1738 21.0669 31.089 20.5339 30.2107 20.5339C29.5458 20.5339 28.8852 20.8019 28.2817 21.1268C28.2817 20.0387 27.503 19.6763 26.9904 19.6763C25.8264 19.6763 26.8766 20.1128 26.8766 17.8437C26.8766 15.9631 25.7345 14.6367 23.4897 14.6367C23.0152 14.6366 22.5437 14.713 22.0935 14.8631C22.0583 14.8042 22.0086 14.7553 21.9491 14.7211C21.8896 14.6869 21.8224 14.6686 21.7537 14.6679C19.0709 14.6679 18.9472 23.6156 18.9242 23.8447C18.6972 25.6596 16.5873 27.3124 15.7295 28.335L35.4592 28.334Z" fill="white"/>
</g>
<path d="M10.5089 27.635C10.4867 27.6349 10.465 27.6283 10.4466 27.6159C10.4281 27.6035 10.4138 27.5859 10.4053 27.5653C10.3995 27.554 10.3868 27.5337 10.3694 27.5052C9.51917 26.1277 9.82301 25.3196 10.2291 24.8844C11.2152 23.8248 13.2733 25.1381 13.3609 25.1941C13.3858 25.2102 13.4033 25.2355 13.4095 25.2645C13.4157 25.2934 13.4102 25.3236 13.3941 25.3485C13.3781 25.3734 13.3528 25.3908 13.3238 25.3971C13.2949 25.4033 13.2646 25.3977 13.2398 25.3817C13.2203 25.3686 11.2511 24.1132 10.3928 25.0365C9.88019 25.587 9.93619 26.3781 10.5595 27.3881C10.5813 27.4194 10.6 27.4528 10.6151 27.4879C10.6244 27.516 10.6222 27.5466 10.6089 27.5731C10.5957 27.5995 10.5725 27.6197 10.5445 27.6291C10.533 27.6329 10.521 27.6349 10.5089 27.635Z" fill="white"/>
<path d="M22.2061 17.7339C22.311 17.3435 22.5242 16.9908 22.8212 16.7167C23.1183 16.4425 23.4868 16.2581 23.8843 16.1848C25.2804 15.9206 26.3937 17.1283 26.3937 17.1283C26.3937 17.1283 25.6391 14.7763 23.205 15.1693C20.771 15.5623 20.9687 16.8264 20.9687 16.8264L22.2061 17.7339Z" fill="white"/>
<path d="M25.3394 19.9789C25.3107 19.9788 25.2832 19.9677 25.2624 19.9479C25.2417 19.9281 25.2293 19.9011 25.2279 19.8725C25.2279 19.8606 25.1614 18.6976 24.3387 18.6414C24.0972 18.6248 23.8564 18.6825 23.6486 18.8066C23.4409 18.9308 23.2759 19.1154 23.176 19.3359C23.1647 19.3633 23.143 19.3851 23.1157 19.3965C23.0883 19.4079 23.0575 19.4079 23.0301 19.3966C23.0027 19.3854 22.9809 19.3637 22.9695 19.3363C22.9581 19.309 22.9581 19.2782 22.9694 19.2508C23.0893 18.9887 23.2858 18.7689 23.5328 18.6204C23.7799 18.4719 24.0661 18.4015 24.3539 18.4185C25.1711 18.4743 25.4289 19.3872 25.4508 19.8626C25.4516 19.8772 25.4495 19.8919 25.4445 19.9058C25.4396 19.9196 25.432 19.9323 25.4221 19.9432C25.4123 19.9541 25.4003 19.9629 25.387 19.9692C25.3737 19.9754 25.3593 19.979 25.3446 19.9796L25.3394 19.9789Z" fill="white"/>
<path d="M35.459 28.4461H15.7286C15.7074 28.4461 15.6866 28.44 15.6687 28.4285C15.6508 28.4171 15.6365 28.4008 15.6276 28.3815C15.6186 28.3623 15.6154 28.3409 15.6182 28.3198C15.6209 28.2988 15.6297 28.2789 15.6434 28.2627C15.8486 28.0178 16.1283 27.7336 16.4249 27.4323C17.3616 26.4816 18.6439 25.179 18.8127 23.8302C18.814 23.8173 18.8158 23.7613 18.8189 23.6714C18.9426 20.2669 19.4879 14.5558 21.7535 14.5558C21.8259 14.556 21.8974 14.5719 21.963 14.6025C22.0286 14.6331 22.0868 14.6777 22.1334 14.733C22.5721 14.5953 23.0293 14.5252 23.4891 14.5254C25.6799 14.5254 26.9878 15.7661 26.9878 17.8438C26.9878 18.736 26.827 19.226 26.6964 19.4892C26.7769 19.4742 26.8586 19.4668 26.9404 19.4672C27.1537 19.4667 27.3649 19.51 27.5609 19.5944C27.7569 19.6789 27.9334 19.8026 28.0796 19.958C28.3101 20.2296 28.4276 20.5792 28.408 20.9349C28.9597 20.6235 29.5776 20.4479 30.2106 20.4226C31.2163 20.4226 32.2851 21.0471 32.2851 22.2056C32.2851 22.9874 31.8246 23.8643 31.2966 24.5034C31.4072 24.4807 31.52 24.4692 31.633 24.4691C32.4842 24.4691 33.0343 25.0828 33.0343 26.0324C33.046 26.3826 32.9953 26.7321 32.8844 27.0645C33.3132 26.9602 33.7541 26.9137 34.1952 26.9263C35.0587 26.9263 35.5741 27.4337 35.5741 28.2859C35.574 28.2989 35.5732 28.312 35.5717 28.3249C35.5692 28.3548 35.5567 28.383 35.5363 28.405C35.5158 28.427 35.4886 28.4414 35.459 28.4461ZM15.9751 28.2227H35.3483C35.3204 27.5348 34.9032 27.1494 34.1954 27.1494C33.2749 27.1494 32.8995 27.2885 32.7757 27.3346C32.7482 27.3472 32.7186 27.3547 32.6883 27.3566C32.6682 27.3563 32.6485 27.351 32.6309 27.3413C32.6134 27.3315 32.5985 27.3175 32.5876 27.3006C32.5754 27.2764 32.5702 27.2491 32.5729 27.2221C32.5755 27.195 32.5858 27.1693 32.6025 27.1478C32.654 27.0503 32.8113 26.7532 32.8113 26.032C32.8113 25.2056 32.3599 24.6919 31.6334 24.6919C31.4041 24.6926 31.178 24.7463 30.973 24.849C30.9493 24.861 30.9221 24.8641 30.8963 24.8577C30.8705 24.8514 30.8477 24.8361 30.8322 24.8145C30.8167 24.793 30.8094 24.7666 30.8116 24.7401C30.8138 24.7136 30.8254 24.6888 30.8442 24.6701C31.4505 24.0636 32.0621 23.0662 32.0621 22.205C32.0621 21.0689 30.9264 20.6453 30.2108 20.6453C29.6644 20.6453 29.0688 20.8295 28.3345 21.2246C28.3164 21.2344 28.296 21.239 28.2756 21.2379C28.2551 21.2368 28.2353 21.2301 28.2184 21.2185C28.2015 21.2069 28.1881 21.1909 28.1797 21.1721C28.1713 21.1534 28.1682 21.1328 28.1708 21.1124C28.2041 20.9358 28.1982 20.7541 28.1535 20.58C28.1089 20.4059 28.0265 20.2438 27.9122 20.1051C27.7872 19.9731 27.6365 19.8682 27.4693 19.7967C27.3022 19.7253 27.1221 19.6889 26.9404 19.6899C26.7914 19.6817 26.6434 19.719 26.5159 19.7966C26.5014 19.8079 26.4842 19.8153 26.466 19.8183C26.4478 19.8212 26.4291 19.8196 26.4117 19.8136C26.3944 19.8071 26.3787 19.7969 26.3656 19.7838C26.3525 19.7707 26.3423 19.755 26.3358 19.7377C26.3297 19.7099 26.3307 19.6811 26.3386 19.6538C26.3465 19.6266 26.3611 19.6017 26.3811 19.5816C26.4761 19.445 26.7646 19.0279 26.7646 17.8428C26.7646 15.9049 25.5402 14.7477 23.4893 14.7477C23.0267 14.7474 22.5671 14.822 22.1283 14.9686C22.1051 14.976 22.08 14.9756 22.0569 14.9677C22.0338 14.9597 22.0139 14.9445 22.0001 14.9243C21.9751 14.8809 21.9393 14.8448 21.8962 14.8194C21.853 14.794 21.8041 14.7802 21.7541 14.7793C20.2587 14.7793 19.2449 18.1065 19.0427 23.6797C19.039 23.7785 19.0367 23.8392 19.0349 23.8554C18.8566 25.2821 17.5433 26.6155 16.5843 27.5892C16.363 27.8136 16.1513 28.0295 15.9749 28.2227H15.9751Z" fill="white"/>
<path d="M8.62223 26.0461C8.62223 26.0461 7.78448 25.6981 7.83951 24.392C7.89454 23.0859 8.81093 22.8555 8.81093 22.8555C8.81093 22.8555 8.2255 25.0703 9.73552 25.825C9.73532 25.8257 9.07496 25.6056 8.62223 26.0461Z" fill="white"/>
<path d="M7.83874 27.8436C7.6849 27.7791 7.55262 27.6721 7.45737 27.5351C7.36213 27.3982 7.30786 27.2369 7.30093 27.0703C7.28922 26.4987 7.9613 26.5606 7.9613 26.5606C7.9613 26.5606 7.22541 27.1643 8.41422 27.7492L7.83874 27.8436Z" fill="white"/>
<path d="M27.999 22.1795C28.1702 21.805 28.4394 21.4837 28.7782 21.2495C29.1169 21.0153 29.5127 20.877 29.9235 20.8492C31.4066 20.6953 31.7159 21.7578 31.7159 21.7578C31.7159 21.7578 30.7868 21.3111 30.0377 21.7869C29.575 22.0964 29.2387 22.5618 29.0901 23.0983C29.0901 23.0983 28.7015 22.3372 27.999 22.1795Z" fill="white"/>
<path d="M25.6963 20.849C25.7852 20.6345 25.9338 20.45 26.1244 20.3173C26.315 20.1846 26.5397 20.1094 26.7717 20.1005C27.5829 20.0704 27.8661 20.849 27.8661 20.849C27.608 20.6669 27.2898 20.5908 26.9772 20.6365C26.8094 20.6815 26.6589 20.7755 26.5449 20.9066C26.431 21.0378 26.3588 21.2 26.3377 21.3724C26.2908 21.2337 26.2057 21.1111 26.0922 21.0185C25.9788 20.9259 25.8416 20.8672 25.6963 20.849Z" fill="white"/>
<path d="M30.1494 26.2787C30.1494 26.2787 30.2727 25.3165 31.1261 25.0335C31.9795 24.7506 32.5077 25.3541 32.5266 25.8258C32.3584 25.6996 32.1594 25.6207 31.9504 25.5975C31.7413 25.5742 31.5299 25.6075 31.338 25.6937C31.1445 25.7609 30.9849 25.9011 30.8932 26.0844C30.8016 26.2677 30.7851 26.4795 30.8474 26.6747C30.8474 26.6747 30.5268 26.1277 30.1494 26.2787Z" fill="white"/>
<path d="M29.3456 27.4391C29.3256 27.4392 29.306 27.4338 29.2888 27.4236C29.2762 27.4162 29.2652 27.4063 29.2564 27.3945C29.2476 27.3828 29.2413 27.3695 29.2376 27.3552C29.234 27.341 29.2332 27.3262 29.2353 27.3117C29.2374 27.2972 29.2423 27.2833 29.2498 27.2707C29.2625 27.2488 29.5603 26.7159 28.9875 26.1927C28.4181 25.6726 27.7925 26.1747 27.7661 26.1966C27.7464 26.2128 27.7218 26.2217 27.6963 26.222C27.6708 26.2222 27.646 26.2137 27.626 26.198C27.606 26.1822 27.5919 26.16 27.5862 26.1352C27.5805 26.1103 27.5835 26.0843 27.5946 26.0614C27.5993 26.0518 28.0567 25.1011 27.7396 24.4311C27.6544 24.2705 27.5329 24.1318 27.3849 24.0262C27.2368 23.9207 27.0661 23.851 26.8864 23.8229C26.4385 23.6994 25.9609 23.7425 25.5423 23.9442C25.1237 24.1459 24.7923 24.4925 24.6097 24.9198C24.6044 24.9338 24.5964 24.9466 24.5861 24.9575C24.5758 24.9683 24.5634 24.977 24.5497 24.9829C24.536 24.9889 24.5212 24.9921 24.5063 24.9922C24.4913 24.9924 24.4764 24.9895 24.4626 24.9838C24.4488 24.9781 24.4362 24.9696 24.4257 24.959C24.4152 24.9483 24.407 24.9357 24.4014 24.9218C24.3959 24.9079 24.3932 24.893 24.3936 24.878C24.3939 24.8631 24.3973 24.8483 24.4034 24.8347C24.4103 24.8179 25.1145 23.174 26.9381 23.6053C27.1509 23.6404 27.3526 23.7248 27.5269 23.8517C27.7013 23.9787 27.8435 24.1446 27.9424 24.3363C28.1853 24.8505 28.0462 25.475 27.9215 25.844C28.1189 25.7474 28.3412 25.7132 28.5585 25.7459C28.7759 25.7787 28.9782 25.8769 29.1384 26.0274C29.8483 26.6755 29.4465 27.3766 29.4424 27.3834C29.4326 27.4004 29.4185 27.4145 29.4015 27.4243C29.3845 27.4341 29.3652 27.4392 29.3456 27.4391Z" fill="white"/>
<path d="M10.7922 24.9043C10.7922 24.9043 10.1793 25.1225 10.2675 26.0537C10.3286 26.694 10.8334 27.296 10.8334 27.296C10.8334 27.296 11.0131 26.7224 11.8522 26.6292C11.8528 26.629 10.2911 25.8833 10.7922 24.9043Z" fill="white"/>
<path d="M24.707 25.4327C24.707 25.4327 25.0717 24.3762 25.8806 24.0929C26.09 24.003 26.321 23.9762 26.5453 24.0159C26.7697 24.0556 26.9775 24.1599 27.1434 24.3161C27.1434 24.3161 25.745 24.4117 25.6279 25.8786C25.5263 25.7308 25.3879 25.612 25.2265 25.5338C25.065 25.4556 24.886 25.4208 24.707 25.4327Z" fill="white"/>
<path d="M27.4717 26.7629C27.4717 26.7629 27.8229 26.236 28.3889 26.2131C28.5456 26.2087 28.6985 26.2624 28.818 26.3639C28.9375 26.4654 29.0153 26.6075 29.0363 26.7629C29.0363 26.7629 28.2464 26.3841 27.9205 27.1781C27.9195 27.1781 27.8261 26.6772 27.4717 26.7629Z" fill="white"/>
<path d="M15.4548 28.445H7.975C7.95677 28.4451 7.9388 28.4407 7.9227 28.4321C7.52227 28.2206 6.85059 27.7735 6.85059 27.1571C6.85508 27.0238 6.88592 26.8928 6.94133 26.7716C6.99674 26.6503 7.07562 26.5413 7.17342 26.4507C7.27122 26.3601 7.38599 26.2898 7.51112 26.2439C7.63624 26.1979 7.76923 26.1772 7.90241 26.1829C7.6175 25.9323 7.29981 25.44 7.29981 24.4895C7.29981 22.8641 8.72845 22.0135 10.1395 22.0135C10.3834 22.0046 10.6269 22.0384 10.859 22.1136C10.859 22.0993 10.859 22.0847 10.859 22.0691C10.859 21.4854 11.2922 20.8945 12.1206 20.8945C13.9392 20.8945 14.8916 24.8198 14.8916 26.1774C14.8927 26.786 15.067 27.3816 15.3941 27.8947C15.5077 28.093 15.5828 28.2241 15.5659 28.3476C15.5624 28.3746 15.5492 28.3994 15.5288 28.4173C15.5083 28.4353 15.482 28.4451 15.4548 28.445ZM8.00349 28.2218H15.3171C15.2892 28.1609 15.2443 28.0828 15.2 28.0071C14.8542 27.4595 14.6698 26.8255 14.6678 26.1778C14.6678 24.6752 13.679 21.1184 12.1196 21.1184C11.4062 21.1184 11.0813 21.6117 11.0813 22.0697C11.0768 22.1428 11.0861 22.2162 11.1088 22.2859C11.1196 22.3105 11.1212 22.3381 11.1133 22.3637C11.1054 22.3893 11.0885 22.4113 11.0658 22.4255C11.043 22.4397 11.0159 22.4452 10.9894 22.4411C10.9629 22.437 10.9388 22.4234 10.9215 22.403C10.916 22.3963 10.7726 22.2375 10.1391 22.2375C8.83909 22.2375 7.52285 23.0112 7.52285 24.49C7.52285 25.881 8.23356 26.1657 8.37641 26.2089C8.40266 26.2166 8.42535 26.2334 8.44054 26.2562C8.45573 26.2789 8.46245 26.3063 8.45954 26.3336C8.45558 26.3601 8.44227 26.3843 8.42201 26.4018C8.40175 26.4193 8.37589 26.429 8.34909 26.4292C8.34145 26.4289 8.33382 26.4282 8.32626 26.427C8.19902 26.412 8.07091 26.4055 7.9428 26.4075C7.30527 26.4075 7.07402 26.8563 7.07402 27.1588C7.07383 27.6609 7.70472 28.061 8.00349 28.2218Z" fill="white"/>
<path d="M22.4184 8.13477H17.7676V9.25996H22.4184V8.13477Z" fill="#2278A8"/>
<path d="M32.9972 13.9501C32.9972 13.9501 32.3839 10.916 32.9972 8.02734C32.9972 8.02812 33.6109 11.2427 32.9972 13.9501Z" fill="white"/>
<path d="M30.7822 10.9895C30.7822 10.9895 33.0519 10.3759 35.2129 10.9895C35.2129 10.9895 32.8078 11.6028 30.7822 10.9895Z" fill="white"/>
<path d="M10.9094 36.3114C10.9094 36.3114 10.2959 33.2774 10.9094 30.3887C10.9094 30.3887 11.5229 33.604 10.9094 36.3114Z" fill="white"/>
<path d="M8.69434 33.3507C8.69434 33.3507 10.964 32.7374 13.1251 33.3507C13.1251 33.3507 10.7197 33.9642 8.69434 33.3507Z" fill="white"/>
<path d="M10.9099 9.03241C10.9099 9.03241 10.3743 6.38257 10.9099 3.85938C10.9099 3.85938 11.4458 6.66767 10.9099 9.03241Z" fill="white"/>
<path d="M8.97461 6.44519C8.97461 6.44519 10.9569 5.90933 12.8445 6.44519C12.8445 6.44519 10.7436 6.98086 8.97461 6.44519Z" fill="white"/>
<path d="M25.9755 19.2258C25.8895 17.3214 27.6321 15.7602 27.6321 13.6849C27.6321 8.47906 19.9995 8.69859 19.9995 8.69859C15.0985 8.82583 12.5542 11.0034 12.5542 13.6849C12.5542 15.7602 14.2966 17.3216 14.2106 19.2258C14.127 21.0705 11.9922 23.3013 11.9922 26.7778C11.9922 28.9778 13.2177 32.3726 13.7048 33.4043C13.8286 33.6792 14.0283 33.9132 14.2803 34.0788C14.5323 34.2444 14.8262 34.3348 15.1277 34.3394H25.0586C25.36 34.3348 25.6539 34.2444 25.9059 34.0787C26.1578 33.9131 26.3574 33.6792 26.4812 33.4043C26.969 32.3726 28.1937 28.9778 28.1937 26.7778C28.1937 23.3015 26.0593 21.0701 25.9755 19.2258Z" fill="#3498DB"/>
<path d="M23.1939 3.20898H16.8682V8.13556H23.1939V3.20898Z" fill="white"/>
<path d="M23.1941 3.20898H22.4189V8.13556H23.1941V3.20898Z" fill="#C0C2C4"/>
<path d="M21.6735 3.20898H20.8984V8.13556H21.6735V3.20898Z" fill="#C0C2C4"/>
<path d="M20.0327 3.20898H19.5078V8.13556H20.0327V3.20898Z" fill="#C0C2C4"/>
<path d="M24.6737 18.9134C24.6066 17.4247 25.9691 16.2039 25.9691 14.5812C25.9691 10.5109 20.001 10.6827 20.001 10.6827C16.1692 10.782 14.1799 12.4846 14.1799 14.5812C14.1799 16.2039 15.5424 17.4247 15.4749 18.9134C15.4095 20.3559 13.7402 22.1005 13.7402 24.8177C13.7402 26.5376 14.6986 29.192 15.0795 29.9989C15.1763 30.2138 15.3324 30.3967 15.5294 30.5261C15.7263 30.6556 15.9561 30.7263 16.1918 30.7299H23.9565C24.1923 30.7263 24.4221 30.6557 24.6191 30.5262C24.816 30.3967 24.9721 30.2138 25.0689 29.9989C25.4498 29.1922 26.4079 26.5378 26.4079 24.8177C26.4083 22.1007 24.7393 20.3561 24.6737 18.9134Z" fill="#3E586D"/>
<path d="M16.6396 23.9443L16.8461 24.1823L16.9632 23.9443L16.7095 23.8438L16.6396 23.9443Z" fill="white"/>
<path d="M15.7961 23.9502C15.8086 23.8242 16.3327 23.3578 16.5915 23.4317C16.8503 23.5057 16.8011 24.0207 16.5896 24.0659C16.378 24.1112 15.7834 24.0767 15.7961 23.9502Z" fill="white"/>
<path d="M23.5462 23.9443L23.3397 24.1823L23.2227 23.9443L23.4763 23.8438L23.5462 23.9443Z" fill="white"/>
<path d="M24.3898 23.9502C24.3771 23.8242 23.8534 23.3578 23.594 23.4317C23.3347 23.5057 23.3846 24.0207 23.5962 24.0659C23.8077 24.1112 24.4023 24.0767 24.3898 23.9502Z" fill="white"/>
<path d="M16.7559 24.2214L17.7944 22.0214C17.873 21.855 17.9973 21.7143 18.1528 21.6158C18.3082 21.5172 18.4885 21.4649 18.6726 21.4648H21.6034C21.7942 21.4648 21.9808 21.521 22.1398 21.6264C22.2989 21.7317 22.4234 21.8816 22.4977 22.0573L23.4149 24.2216C20.8734 24.4741 19.37 24.3928 16.7559 24.2214Z" fill="white"/>
<path d="M24.1253 24.7771C24.0863 24.693 20.0812 24.9115 20.0812 24.9115C20.0812 24.9115 16.0739 24.7991 16.0345 24.8487C15.937 24.9568 15.9129 26.5855 16.515 26.748C17.1394 26.9174 17.5963 27.055 20.0861 27.0761C22.5755 27.055 23.0327 26.9174 23.6572 26.748C24.2817 26.5786 24.1652 24.861 24.1253 24.7771Z" fill="white"/>
<path d="M17.1846 24.0528L18.0891 22.1404C18.1576 21.9955 18.2659 21.8731 18.4013 21.7874C18.5368 21.7017 18.6937 21.6562 18.854 21.6563H21.4077C21.5737 21.6562 21.7361 21.705 21.8746 21.7966C22.0131 21.8882 22.1216 22.0186 22.1865 22.1714L22.985 24.0528C20.7401 23.9383 19.4297 23.8805 17.1846 24.0528Z" fill="#3E586D"/>
<path d="M16.0346 24.8487L16.7566 24.2207H23.4153L24.1256 24.7763C24.3999 25.2778 15.7637 25.366 16.0346 24.8487Z" fill="white"/>
<path d="M16.5264 26.752C16.5264 26.752 16.6735 28.3498 17.2076 28.3498C17.7417 28.3498 17.682 26.8117 17.682 26.8117L16.5264 26.752Z" fill="white"/>
<path d="M23.5463 26.752C23.5463 26.752 23.3996 28.3498 22.8651 28.3498C22.3306 28.3498 22.3907 26.8117 22.3907 26.8117L23.5463 26.752Z" fill="white"/>
<path d="M21.4619 26.125H18.7314V26.8244H21.4619V26.125Z" fill="white"/>
<path d="M21.3927 26.1992H18.8008V26.8088H21.3927V26.1992Z" fill="#3E586D"/>
<path d="M16.1506 26.3496C15.999 26.5016 16.1549 26.9663 16.4026 27.0326C18.0779 27.4871 22.0908 27.4875 23.7682 27.0326C24.0157 26.9655 24.2231 26.5008 24.0198 26.3496C23.3832 26.8301 16.7899 26.8326 16.1506 26.3496Z" fill="white"/>
<path d="M19.8659 25.0944C20.0432 25.1102 20.0434 25.8477 19.8659 25.9039C19.5907 25.9911 18.5194 25.6502 18.4013 25.496C18.3361 25.4113 18.3291 25.2074 18.4245 25.1483C18.52 25.0891 19.6887 25.0788 19.8659 25.0944Z" fill="#3E586D"/>
<g style="mix-blend-mode:multiply" opacity="0.3">
<g style="mix-blend-mode:multiply" opacity="0.3">
<path d="M19.9334 25.1484H18.4271H18.4244C18.4063 25.1617 18.3911 25.1786 18.3798 25.1979C18.3684 25.2173 18.3612 25.2388 18.3584 25.261H19.9759C19.9677 25.2215 19.9533 25.1835 19.9334 25.1484Z" fill="#3E586D"/>
</g>
<g style="mix-blend-mode:multiply" opacity="0.3">
<path d="M19.9914 25.3496H18.3545C18.3568 25.3888 18.3663 25.4273 18.3824 25.4632H19.9984C19.998 25.4252 19.9957 25.3873 19.9914 25.3496Z" fill="#3E586D"/>
</g>
<g style="mix-blend-mode:multiply" opacity="0.3">
<path d="M19.9663 25.7539H18.9561C19.0927 25.7984 19.238 25.838 19.3742 25.8675H19.9128C19.938 25.8335 19.9562 25.7949 19.9663 25.7539Z" fill="#3E586D"/>
</g>
<g style="mix-blend-mode:multiply" opacity="0.3">
<path d="M19.9975 25.5527H18.4727C18.5488 25.5973 18.6286 25.6353 18.7111 25.6665H19.9856C19.9909 25.63 19.9954 25.5922 19.9975 25.5527Z" fill="#3E586D"/>
</g>
</g>
<path d="M20.3263 25.0944C20.1491 25.1102 20.1491 25.8477 20.3263 25.9039C20.6014 25.9911 21.6727 25.6502 21.7908 25.496C21.856 25.4113 21.863 25.2074 21.7678 25.1483C21.6725 25.0891 20.5036 25.0788 20.3263 25.0944Z" fill="#3E586D"/>
<g style="mix-blend-mode:multiply" opacity="0.3">
<g style="mix-blend-mode:multiply" opacity="0.3">
<path d="M20.2589 25.1484H21.7658H21.7686C21.7866 25.1617 21.8018 25.1786 21.8131 25.1979C21.8245 25.2173 21.8318 25.2388 21.8345 25.261H20.2168C20.2249 25.2215 20.2391 25.1835 20.2589 25.1484Z" fill="#3E586D"/>
</g>
<g style="mix-blend-mode:multiply" opacity="0.3">
<path d="M20.2014 25.3496H21.8382C21.8359 25.3888 21.8264 25.4273 21.8103 25.4632H20.1943C20.1949 25.4242 20.1975 25.3861 20.2014 25.3496Z" fill="#3E586D"/>
</g>
<g style="mix-blend-mode:multiply" opacity="0.3">
<path d="M20.2266 25.7539H21.237C21.1004 25.7984 20.9548 25.838 20.8188 25.8675H20.2802C20.2551 25.8335 20.2368 25.7949 20.2266 25.7539Z" fill="#3E586D"/>
</g>
<g style="mix-blend-mode:multiply" opacity="0.3">
<path d="M20.1953 25.5527H21.7198C21.6436 25.5973 21.5637 25.6354 21.4811 25.6665H20.207C20.201 25.6288 20.1971 25.5908 20.1953 25.5527Z" fill="#3E586D"/>
</g>
</g>
<path d="M18.353 26.3798C18.4524 26.3798 18.5331 26.2991 18.5331 26.1996C18.5331 26.1002 18.4524 26.0195 18.353 26.0195C18.2535 26.0195 18.1729 26.1002 18.1729 26.1996C18.1729 26.2991 18.2535 26.3798 18.353 26.3798Z" fill="#3E586D"/>
<path d="M21.8403 26.3798C21.9397 26.3798 22.0204 26.2991 22.0204 26.1996C22.0204 26.1002 21.9397 26.0195 21.8403 26.0195C21.7408 26.0195 21.6602 26.1002 21.6602 26.1996C21.6602 26.2991 21.7408 26.3798 21.8403 26.3798Z" fill="#3E586D"/>
<path d="M17.8533 25.8017C17.8536 25.7899 17.8521 25.778 17.8488 25.7666C17.8472 25.7593 17.845 25.7521 17.8424 25.7451C17.8364 25.7304 17.8293 25.7161 17.8211 25.7024C17.817 25.6956 17.8143 25.6889 17.8096 25.6815L17.8084 25.6796L17.8069 25.6784C17.5939 25.3584 16.725 24.8209 16.3511 25.1537C16.153 25.3303 16.4254 25.742 16.6243 25.8574C16.7092 25.8946 16.7995 25.9181 16.8918 25.9272H16.8934C16.9351 25.9331 16.9793 25.9383 17.0247 25.9428C17.0442 25.9446 17.0637 25.9456 17.0833 25.9469C17.1201 25.9498 17.1572 25.952 17.1951 25.9534C17.2167 25.9534 17.2378 25.9549 17.2593 25.9551C17.3018 25.9561 17.3436 25.9551 17.385 25.9551C17.3992 25.9551 17.4132 25.9551 17.4269 25.9551C17.4808 25.9528 17.5317 25.9479 17.5795 25.9415C17.592 25.9397 17.6029 25.9374 17.6148 25.9356C17.6478 25.9301 17.6803 25.9227 17.7124 25.9134C17.7237 25.91 17.7348 25.9069 17.7452 25.9032C17.7765 25.8935 17.8058 25.8782 17.8316 25.8579C17.8427 25.8476 17.8501 25.8339 17.8527 25.8189C17.8536 25.8132 17.8538 25.8075 17.8533 25.8017Z" fill="#3E586D"/>
<path d="M23.8036 25.1538C23.4299 24.8209 22.5609 25.3583 22.3478 25.6785L22.3466 25.6797L22.3455 25.6816C22.3408 25.689 22.3376 25.6957 22.3335 25.7025C22.3254 25.7162 22.3184 25.7305 22.3125 25.7452C22.3097 25.7522 22.3074 25.7594 22.3056 25.7667C22.3027 25.7782 22.3012 25.79 22.3012 25.8018C22.3007 25.8072 22.3007 25.8125 22.3012 25.8178C22.3038 25.8328 22.3112 25.8465 22.3222 25.8569C22.3481 25.8771 22.3775 25.8924 22.4089 25.9021C22.419 25.9059 22.4301 25.909 22.4415 25.9123C22.4735 25.9216 22.5061 25.929 22.539 25.9345C22.5509 25.9365 22.5619 25.9386 22.5745 25.9404C22.6222 25.9468 22.6731 25.9517 22.727 25.954C22.7408 25.954 22.7551 25.954 22.7689 25.954C22.8103 25.9554 22.852 25.9558 22.8948 25.954C22.9166 25.954 22.9373 25.954 22.9594 25.9523C22.9972 25.9507 23.0339 25.9486 23.071 25.9459C23.0905 25.9443 23.11 25.9435 23.1295 25.9418C23.1754 25.9373 23.2195 25.932 23.2609 25.9261H23.2624C23.3548 25.917 23.4451 25.8935 23.5302 25.8563C23.7292 25.7427 24.0018 25.3304 23.8036 25.1538Z" fill="#3E586D"/>
<path d="M21.0247 24.3818C21.0247 24.3818 20.6219 22.6564 21.0247 21.0137C21.0247 21.0137 21.4283 22.842 21.0247 24.3818Z" fill="white"/>
<path d="M19.5713 22.6976C20.5301 22.4966 21.5201 22.4966 22.4789 22.6976C22.4789 22.6976 20.901 23.0464 19.5713 22.6976Z" fill="white"/>
<path d="M23.4151 21.7943C23.2718 21.1085 23.2718 20.4006 23.4151 19.7148C23.4151 19.7148 23.6637 20.843 23.4151 21.7943Z" fill="white"/>
<path d="M22.5176 20.7552C23.1096 20.6311 23.7209 20.6311 24.3129 20.7552C23.7207 20.8771 23.1098 20.8771 22.5176 20.7552Z" fill="white"/>
<path d="M24.92 13.4839H15.1677C15.1481 13.4839 15.1293 13.4761 15.1154 13.4622C15.1015 13.4483 15.0938 13.4295 15.0938 13.4099C15.0938 13.3903 15.1015 13.3715 15.1154 13.3576C15.1293 13.3437 15.1481 13.3359 15.1677 13.3359H24.92C24.9396 13.3359 24.9584 13.3437 24.9723 13.3576C24.9861 13.3715 24.9939 13.3903 24.9939 13.4099C24.9939 13.4295 24.9861 13.4483 24.9723 13.4622C24.9584 13.4761 24.9396 13.4839 24.92 13.4839Z" fill="white"/>
<path d="M24.9199 16.0599H15.1676C15.1576 16.0604 15.1476 16.0589 15.1382 16.0554C15.1287 16.052 15.1201 16.0466 15.1129 16.0397C15.1056 16.0328 15.0998 16.0245 15.0958 16.0152C15.0919 16.006 15.0898 15.9961 15.0898 15.9861C15.0898 15.976 15.0919 15.9661 15.0958 15.9569C15.0998 15.9477 15.1056 15.9394 15.1129 15.9325C15.1201 15.9255 15.1287 15.9202 15.1382 15.9167C15.1476 15.9132 15.1576 15.9117 15.1676 15.9122H24.9199C24.9299 15.9117 24.9399 15.9132 24.9493 15.9167C24.9587 15.9202 24.9673 15.9255 24.9746 15.9325C24.9819 15.9394 24.9877 15.9477 24.9916 15.9569C24.9956 15.9661 24.9976 15.976 24.9976 15.9861C24.9976 15.9961 24.9956 16.006 24.9916 16.0152C24.9877 16.0245 24.9819 16.0328 24.9746 16.0397C24.9673 16.0466 24.9587 16.052 24.9493 16.0554C24.9399 16.0589 24.9299 16.0604 24.9199 16.0599Z" fill="white"/>
<path d="M32.9983 19.1532C32.6059 19.1532 32.2224 19.0368 31.8962 18.8188C31.57 18.6008 31.3157 18.2909 31.1656 17.9284C31.0155 17.566 30.9762 17.1671 31.0528 16.7823C31.1293 16.3975 31.3183 16.044 31.5957 15.7666C31.8731 15.4892 32.2266 15.3002 32.6114 15.2237C32.9962 15.1471 33.3951 15.1864 33.7576 15.3365C34.12 15.4866 34.4299 15.7409 34.6479 16.0671C34.8659 16.3933 34.9823 16.7768 34.9823 17.1692C34.9817 17.6952 34.7725 18.1995 34.4006 18.5715C34.0286 18.9434 33.5243 19.1526 32.9983 19.1532ZM32.9983 15.4088C32.6501 15.4088 32.3097 15.5121 32.0202 15.7056C31.7307 15.8991 31.505 16.1741 31.3718 16.4958C31.2386 16.8175 31.2038 17.1715 31.2718 17.513C31.3397 17.8545 31.5074 18.1682 31.7537 18.4144C31.9999 18.6606 32.3137 18.8283 32.6552 18.8962C32.9967 18.9641 33.3507 18.9292 33.6724 18.7959C33.9941 18.6626 34.269 18.4369 34.4624 18.1473C34.6559 17.8578 34.7591 17.5174 34.7591 17.1692C34.7584 16.7024 34.5727 16.2549 34.2426 15.9249C33.9125 15.5949 33.465 15.4093 32.9983 15.4088Z" fill="white"/>
<path opacity="0.6" d="M28.7406 9.11514C28.7406 9.35767 28.6687 9.59474 28.5339 9.79638C28.3991 9.99801 28.2076 10.1552 27.9835 10.2479C27.7594 10.3407 27.5129 10.365 27.275 10.3176C27.0371 10.2703 26.8187 10.1535 26.6472 9.98199C26.4757 9.81049 26.3589 9.59198 26.3116 9.35411C26.2643 9.11624 26.2886 8.86969 26.3815 8.64562C26.4743 8.42156 26.6314 8.23006 26.8331 8.09532C27.0348 7.96058 27.2718 7.88867 27.5144 7.88867C27.6754 7.88867 27.8349 7.9204 27.9837 7.98204C28.1325 8.04368 28.2677 8.13402 28.3815 8.24791C28.4954 8.3618 28.5857 8.497 28.6474 8.6458C28.709 8.7946 28.7407 8.95409 28.7406 9.11514Z" fill="white"/>
<path opacity="0.6" d="M12.4617 17.4504C12.4617 17.6307 12.4083 17.8069 12.3082 17.9568C12.208 18.1068 12.0657 18.2236 11.8991 18.2926C11.7326 18.3617 11.5493 18.3797 11.3725 18.3446C11.1957 18.3094 11.0332 18.2226 10.9057 18.0952C10.7782 17.9677 10.6914 17.8053 10.6562 17.6285C10.621 17.4517 10.6391 17.2684 10.708 17.1018C10.777 16.9352 10.8939 16.7929 11.0438 16.6927C11.1937 16.5925 11.3699 16.5391 11.5502 16.5391C11.6699 16.539 11.7884 16.5626 11.899 16.6084C12.0096 16.6542 12.1101 16.7213 12.1947 16.8059C12.2794 16.8905 12.3465 16.991 12.3923 17.1016C12.4381 17.2122 12.4617 17.3307 12.4617 17.4504Z" fill="white"/>
<path opacity="0.6" d="M7.8395 19.1956C7.8395 19.4792 7.7554 19.7565 7.59784 19.9923C7.44028 20.2281 7.21634 20.4119 6.95432 20.5204C6.69231 20.6289 6.404 20.6573 6.12585 20.602C5.8477 20.5467 5.5922 20.4101 5.39166 20.2096C5.19113 20.009 5.05456 19.7535 4.99923 19.4754C4.9439 19.1972 4.9723 18.9089 5.08083 18.6469C5.18936 18.3849 5.37315 18.1609 5.60895 18.0034C5.84476 17.8458 6.12199 17.7617 6.40559 17.7617C6.78589 17.7617 7.1506 17.9128 7.41951 18.1817C7.68843 18.4506 7.8395 18.8153 7.8395 19.1956Z" fill="white"/>
<path opacity="0.6" d="M9.41581 11.6691C9.41585 11.8483 9.36276 12.0234 9.26326 12.1724C9.16376 12.3213 9.02232 12.4374 8.85682 12.506C8.69133 12.5746 8.50921 12.5925 8.33351 12.5576C8.15781 12.5227 7.99642 12.4364 7.86975 12.3097C7.74308 12.1831 7.65683 12.0217 7.62189 11.846C7.58695 11.6703 7.60489 11.4882 7.67347 11.3227C7.74204 11.1572 7.85815 11.0157 8.00712 10.9162C8.15608 10.8167 8.33121 10.7636 8.51034 10.7637C8.75047 10.7637 8.98075 10.8591 9.15055 11.0289C9.32035 11.1987 9.41576 11.429 9.41581 11.6691Z" fill="white"/>
<path opacity="0.6" d="M33.7182 18.8963C34.6727 18.4986 35.124 17.4025 34.7263 16.448C34.3285 15.4936 33.2324 15.0423 32.278 15.44C31.3235 15.8377 30.8722 16.9339 31.2699 17.8883C31.6677 18.8428 32.7638 19.2941 33.7182 18.8963Z" fill="white"/>
<path d="M27.5145 10.4532C27.2499 10.4531 26.9912 10.3746 26.7712 10.2276C26.5512 10.0805 26.3798 9.87158 26.2785 9.62711C26.1773 9.38263 26.1508 9.11364 26.2025 8.85412C26.2541 8.59461 26.3816 8.35623 26.5687 8.16914C26.7558 7.98206 26.9942 7.85464 27.2537 7.80304C27.5132 7.75143 27.7822 7.77794 28.0267 7.87921C28.2711 7.98047 28.4801 8.15196 28.6271 8.37197C28.7741 8.59198 28.8526 8.85065 28.8526 9.11525C28.8521 9.46997 28.711 9.81003 28.4601 10.0608C28.2093 10.3117 27.8692 10.4527 27.5145 10.4532ZM27.5145 8.0006C27.294 8.0006 27.0785 8.06597 26.8952 8.18846C26.7119 8.31095 26.569 8.48504 26.4846 8.68873C26.4003 8.89242 26.3782 9.11656 26.4212 9.33278C26.4643 9.54901 26.5704 9.74762 26.7264 9.9035C26.8823 10.0594 27.0809 10.1655 27.2971 10.2085C27.5134 10.2515 27.7375 10.2294 27.9412 10.145C28.1448 10.0606 28.3189 9.9177 28.4414 9.73437C28.5638 9.55104 28.6292 9.33553 28.6291 9.11506C28.6287 8.81958 28.5111 8.53632 28.3022 8.3274C28.0932 8.11848 27.8099 8.00096 27.5145 8.0006Z" fill="white"/>
<path d="M11.5505 18.474C11.3481 18.474 11.1503 18.414 10.9821 18.3016C10.8138 18.1891 10.6827 18.0294 10.6052 17.8424C10.5278 17.6555 10.5075 17.4497 10.547 17.2513C10.5865 17.0528 10.6839 16.8705 10.827 16.7274C10.9701 16.5843 11.1524 16.4869 11.3509 16.4474C11.5493 16.4079 11.7551 16.4282 11.942 16.5056C12.129 16.5831 12.2888 16.7142 12.4012 16.8824C12.5136 17.0507 12.5736 17.2485 12.5736 17.4509C12.5734 17.7221 12.4655 17.9822 12.2737 18.1741C12.0818 18.3659 11.8217 18.4737 11.5505 18.474ZM11.5505 16.6512C11.3922 16.6512 11.2375 16.6981 11.106 16.786C10.9744 16.8739 10.8718 16.9989 10.8113 17.1451C10.7507 17.2913 10.7349 17.4521 10.7658 17.6074C10.7966 17.7626 10.8728 17.9051 10.9847 18.017C11.0966 18.1289 11.2392 18.2051 11.3944 18.236C11.5496 18.2669 11.7105 18.251 11.8567 18.1904C12.0029 18.1299 12.1278 18.0273 12.2157 17.8958C12.3036 17.7642 12.3506 17.6095 12.3506 17.4513C12.3503 17.2392 12.2659 17.036 12.1159 16.8861C11.9659 16.7363 11.7625 16.6521 11.5505 16.6521V16.6512Z" fill="white"/>
<path d="M6.40569 20.7415C6.10003 20.7414 5.80124 20.6507 5.54711 20.4809C5.29298 20.3111 5.09491 20.0697 4.97796 19.7873C4.86101 19.5049 4.83042 19.1941 4.89006 18.8944C4.9497 18.5946 5.09689 18.3192 5.31303 18.1031C5.52916 17.8869 5.80453 17.7397 6.10432 17.6801C6.4041 17.6205 6.71484 17.6511 6.99724 17.768C7.27964 17.885 7.52102 18.083 7.69086 18.3372C7.8607 18.5913 7.95138 18.8901 7.95142 19.1957C7.951 19.6056 7.78802 19.9985 7.49823 20.2883C7.20844 20.5781 6.81551 20.741 6.40569 20.7415ZM6.40569 17.8738C6.1442 17.8739 5.8886 17.9514 5.6712 18.0968C5.45381 18.2421 5.28438 18.4486 5.18435 18.6902C5.08432 18.9318 5.05818 19.1976 5.10923 19.454C5.16028 19.7105 5.28623 19.9461 5.47116 20.1309C5.65608 20.3158 5.89168 20.4417 6.14814 20.4926C6.40461 20.5436 6.67044 20.5174 6.912 20.4173C7.15357 20.3172 7.36003 20.1477 7.50527 19.9303C7.65051 19.7128 7.72801 19.4572 7.72797 19.1957C7.72751 18.8452 7.58804 18.5092 7.34015 18.2614C7.09226 18.0136 6.7562 17.8742 6.40569 17.8738Z" fill="white"/>
<path d="M8.50966 12.6869C8.30846 12.687 8.11177 12.6273 7.94446 12.5156C7.77715 12.4038 7.64673 12.245 7.5697 12.0591C7.49266 11.8732 7.47248 11.6687 7.5117 11.4714C7.55091 11.274 7.64776 11.0927 7.79001 10.9504C7.93225 10.8081 8.11349 10.7112 8.31081 10.6719C8.50814 10.6326 8.71268 10.6527 8.89858 10.7297C9.08448 10.8067 9.24339 10.937 9.3552 11.1043C9.46701 11.2716 9.52671 11.4682 9.52675 11.6694C9.52649 11.9391 9.41926 12.1977 9.22859 12.3885C9.03792 12.5792 8.77937 12.6866 8.50966 12.6869ZM8.50966 10.8756C8.3526 10.8755 8.19905 10.9221 8.06845 11.0093C7.93784 11.0966 7.83603 11.2206 7.77591 11.3657C7.71579 11.5108 7.70005 11.6704 7.73068 11.8245C7.76131 11.9785 7.83694 12.12 7.948 12.2311C8.05906 12.3422 8.20056 12.4178 8.35461 12.4484C8.50866 12.479 8.66832 12.4633 8.81342 12.4032C8.95852 12.3431 9.08253 12.2413 9.16977 12.1107C9.257 11.98 9.30355 11.8265 9.30351 11.6694C9.3033 11.459 9.2196 11.2572 9.07077 11.1083C8.92194 10.9595 8.72014 10.8758 8.50966 10.8756Z" fill="white"/>
<path d="M32.2157 17.395C32.2158 16.9923 32.3757 16.6061 32.6605 16.3213C32.9452 16.0366 33.3314 15.8766 33.7341 15.8766C33.7548 15.8766 33.7751 15.8787 33.7956 15.8797C33.5982 15.7574 33.3754 15.6821 33.1443 15.6595C32.9132 15.637 32.68 15.6677 32.4627 15.7494C32.2454 15.8312 32.0497 15.9617 31.8908 16.1309C31.7318 16.3001 31.6138 16.5036 31.5459 16.7256C31.478 16.9476 31.4619 17.1823 31.4989 17.4115C31.5359 17.6407 31.6251 17.8584 31.7594 18.0477C31.8938 18.2371 32.0698 18.393 32.274 18.5036C32.4781 18.6142 32.7049 18.6765 32.9369 18.6856C32.7165 18.55 32.5346 18.3601 32.4083 18.1342C32.282 17.9083 32.2157 17.6538 32.2157 17.395Z" fill="white"/>
<path d="M26.9227 9.32335C26.9208 9.17375 26.955 9.02588 27.0223 8.89226C27.0896 8.75864 27.1881 8.64319 27.3094 8.55568C27.4308 8.46817 27.5714 8.41117 27.7195 8.38949C27.8675 8.36782 28.0186 8.38211 28.1599 8.43115C28.0576 8.33378 27.9346 8.2607 27.8002 8.21732C27.6658 8.17395 27.5233 8.16141 27.3833 8.18061C27.2434 8.19982 27.1096 8.25028 26.9918 8.32827C26.874 8.40626 26.7753 8.50977 26.703 8.63111C26.6307 8.75245 26.5866 8.88852 26.574 9.02922C26.5615 9.16992 26.5808 9.31164 26.6305 9.44387C26.6801 9.5761 26.759 9.69545 26.8611 9.79306C26.9632 9.89067 27.086 9.96403 27.2203 10.0077C27.1265 9.92007 27.0517 9.81412 27.0005 9.6964C26.9493 9.57869 26.9229 9.45172 26.9227 9.32335Z" fill="white"/>
<path d="M11.28 17.6215C11.2793 17.5349 11.2978 17.4492 11.3341 17.3706C11.3705 17.292 11.4238 17.2225 11.4903 17.167C11.5568 17.1115 11.6348 17.0714 11.7186 17.0497C11.8025 17.028 11.8901 17.0252 11.9751 17.0414C11.9105 16.9745 11.831 16.9238 11.743 16.8935C11.6551 16.8632 11.5612 16.8541 11.4691 16.867C11.3769 16.8799 11.2892 16.9144 11.2129 16.9677C11.1367 17.021 11.0741 17.0916 11.0303 17.1737C10.9866 17.2557 10.9628 17.347 10.961 17.44C10.9593 17.533 10.9795 17.6251 11.0201 17.7088C11.0608 17.7925 11.1206 17.8654 11.1948 17.9216C11.2689 17.9777 11.3553 18.0155 11.4469 18.0319C11.3399 17.9221 11.28 17.7748 11.28 17.6215Z" fill="white"/>
<path d="M8.15042 11.7848C8.15042 11.6046 8.22199 11.4318 8.34938 11.3044C8.47677 11.1771 8.64955 11.1055 8.82971 11.1055C8.85252 11.1066 8.87526 11.1089 8.89782 11.1125C8.81296 11.0532 8.71565 11.0141 8.61333 10.9982C8.51102 10.9824 8.40643 10.9902 8.3076 11.021C8.20878 11.0519 8.11833 11.105 8.04323 11.1763C7.96812 11.2475 7.91034 11.3351 7.87433 11.4321C7.83832 11.5292 7.82504 11.6332 7.8355 11.7362C7.84596 11.8392 7.87989 11.9385 7.93468 12.0263C7.98948 12.1142 8.06367 12.1883 8.15158 12.243C8.23948 12.2977 8.33875 12.3315 8.44177 12.3419C8.35179 12.2795 8.27828 12.1962 8.22754 12.0992C8.17679 12.0022 8.15033 11.8943 8.15042 11.7848Z" fill="white"/>
<path d="M5.72621 19.463C5.72621 19.1629 5.84546 18.875 6.05772 18.6627C6.26998 18.4505 6.55786 18.3312 6.85804 18.3312C6.9739 18.333 7.08878 18.3527 7.19857 18.3897C7.07705 18.2693 6.92978 18.1781 6.76787 18.1229C6.60595 18.0677 6.43362 18.05 6.26387 18.0711C6.09411 18.0923 5.93136 18.1516 5.7879 18.2448C5.64444 18.338 5.52401 18.4625 5.43569 18.609C5.34737 18.7555 5.29346 18.9201 5.27804 19.0905C5.26262 19.2609 5.28608 19.4325 5.34666 19.5925C5.40723 19.7525 5.50335 19.8966 5.62775 20.014C5.75214 20.1314 5.90158 20.2191 6.06479 20.2703C5.95735 20.1652 5.87205 20.0396 5.8139 19.9009C5.75576 19.7623 5.72594 19.6134 5.72621 19.463Z" fill="white"/>
<path opacity="0.6" d="M28.7406 9.11514C28.7406 9.35767 28.6687 9.59474 28.5339 9.79638C28.3991 9.99801 28.2076 10.1552 27.9835 10.2479C27.7594 10.3407 27.5129 10.365 27.275 10.3176C27.0371 10.2703 26.8187 10.1535 26.6472 9.98199C26.4757 9.81049 26.3589 9.59198 26.3116 9.35411C26.2643 9.11624 26.2886 8.86969 26.3815 8.64562C26.4743 8.42156 26.6314 8.23006 26.8331 8.09532C27.0348 7.96058 27.2718 7.88867 27.5144 7.88867C27.6754 7.88867 27.8349 7.9204 27.9837 7.98204C28.1325 8.04368 28.2677 8.13402 28.3815 8.24791C28.4954 8.3618 28.5857 8.497 28.6474 8.6458C28.709 8.7946 28.7407 8.95409 28.7406 9.11514Z" fill="white"/>
<path d="M17.4561 13.9646V15.6689H17.8214C18.0819 15.6689 18.1939 15.5204 18.1939 15.2746V15.1259C18.1939 14.9334 18.1232 14.7972 17.9383 14.7606C18.1111 14.7241 18.1623 14.6095 18.1623 14.4245V14.3269C18.1623 14.091 18.0696 13.9646 17.8141 13.9646H17.4561ZM17.5681 14.717V14.0668H17.8116C17.9943 14.0668 18.0503 14.1593 18.0503 14.3365V14.446C18.0503 14.6628 17.9578 14.7163 17.7576 14.7163L17.5681 14.717ZM17.5681 15.5669V14.8191H17.78C17.9822 14.8191 18.0819 14.8972 18.0819 15.1186V15.272C18.0819 15.4619 18.0093 15.5659 17.8214 15.5659L17.5681 15.5669ZM18.9901 13.6408L18.8172 13.8719H18.9025L19.107 13.6406L18.9901 13.6408ZM19.1922 15.2917L19.2777 15.6689H19.3897L19.0096 13.962H18.8464L18.4739 15.6689H18.5752L18.6605 15.2915L19.1922 15.2917ZM18.9243 14.091L19.1751 15.1942H18.6784L18.9243 14.091ZM20.0366 13.9497C19.7863 13.9523 19.6742 14.1179 19.6742 14.3736C19.6742 14.8484 20.2903 14.8558 20.2903 15.2648C20.2903 15.4475 20.2197 15.579 20.0321 15.579C19.8446 15.579 19.774 15.4475 19.774 15.2648V15.1698H19.667V15.2574C19.667 15.5033 19.7742 15.6836 20.0347 15.6836C20.2952 15.6836 20.4023 15.5035 20.4023 15.2574C20.4023 14.7875 19.7863 14.7801 19.7863 14.3662C19.7863 14.186 19.8544 14.052 20.0399 14.052C20.2255 14.052 20.2936 14.1886 20.2936 14.3685V14.4124H20.4008V14.3755C20.3998 14.13 20.2952 13.9499 20.037 13.9499L20.0366 13.9497ZM20.7038 13.9644V15.6689H20.8158V13.9646L20.7038 13.9644ZM21.4928 13.9497C21.2323 13.9497 21.1251 14.1347 21.1251 14.3808V15.2525C21.1251 15.4984 21.2323 15.6836 21.4928 15.6836C21.7533 15.6836 21.8604 15.4986 21.8604 15.2525V15.0574H21.7533V15.2599C21.7533 15.4426 21.6827 15.579 21.4951 15.579C21.3076 15.579 21.2369 15.4424 21.2369 15.2599V14.3736C21.2369 14.1909 21.3076 14.0522 21.4951 14.0522C21.6827 14.0522 21.7533 14.1909 21.7533 14.3736V14.5221H21.8604V14.3808C21.8608 14.1349 21.7537 13.9499 21.4932 13.9499L21.4928 13.9497ZM22.1574 15.2525C22.1574 15.5009 22.2718 15.6836 22.53 15.6836C22.793 15.6836 22.9074 15.5009 22.9074 15.2525V14.3808C22.9074 14.1324 22.793 13.9497 22.53 13.9497C22.2718 13.9497 22.1574 14.1324 22.1574 14.3808V15.2525ZM22.2694 14.3744C22.2694 14.1894 22.3424 14.053 22.53 14.053C22.7175 14.053 22.7954 14.1896 22.7954 14.3744V15.2599C22.7954 15.4449 22.7198 15.5813 22.53 15.5813C22.3401 15.5813 22.2694 15.4447 22.2694 15.2599V14.3744Z" fill="white"/>
<path d="M27.909 34.0324C27.909 34.0324 27.3733 31.3826 27.909 28.8594C27.909 28.8594 28.4448 31.6677 27.909 34.0324Z" fill="white"/>
<path d="M25.9746 31.4452C25.9746 31.4452 27.9569 30.9093 29.8445 31.4452C29.8445 31.4452 27.7436 31.9809 25.9746 31.4452Z" fill="white"/>
</svg>
