<svg xmlns="http://www.w3.org/2000/svg" xmlns:xlink="http://www.w3.org/1999/xlink" width="1288" height="956" viewBox="0 0 1288 956">
  <defs>
    <linearGradient id="linear-gradient" x1="0.053" y1="0.214" x2="1" y2="1" gradientUnits="objectBoundingBox">
      <stop offset="0" stop-color="#fff" stop-opacity="0"/>
      <stop offset="1" stop-color="#fff"/>
    </linearGradient>
    <linearGradient id="linear-gradient-2" x1="0.524" y1="1.011" x2="0.513" gradientUnits="objectBoundingBox">
      <stop offset="0" stop-color="#00baff"/>
      <stop offset="1" stop-color="#e8faff"/>
    </linearGradient>
    <linearGradient id="linear-gradient-3" x1="0.524" y1="-0.011" x2="0.513" y2="1" xlink:href="#linear-gradient-2"/>
    <linearGradient id="linear-gradient-4" x1="0.5" y1="0" x2="0.5" y2="1" xlink:href="#linear-gradient-2"/>
    <clipPath id="clip-Lavar_en_ciudad">
      <rect width="1288" height="956"/>
    </clipPath>
  </defs>
  <g id="Lavar_en_ciudad" data-name="Lavar en ciudad" clip-path="url(#clip-Lavar_en_ciudad)">
    <path id="Fondo_ilus" data-name="Fondo ilus" d="M45.46,934.821q-131.1-346.888,115.882-489.886c246.984-143,345.368,98.967,468.5-219.858s494.106-269.117,606.894-31.3q112.784,237.814-26.685,741.049Z" transform="translate(0 21.372)" fill-rule="evenodd" fill="url(#linear-gradient)"/>
    <path id="Intersección_13" data-name="Intersección 13" d="M-12224.5-2259.808v-42.914h1139.106q-5.549,21.221-11.562,42.914Z" transform="translate(12307 3216)" fill="#034a66"/>
    <path id="Intersección_12" data-name="Intersección 12" d="M-12225-2303.224l296.29-309.558h899.341l2.04,8.338q-14.644,135.535-57.935,301.22Z" transform="translate(12307 3216)" fill="#02384d"/>
    <path id="Intersección_8" data-name="Intersección 8" d="M-11618.342-3074.77c60.458-76.818,141.893-114.068,224.591-118.729h35.83c90.222,5.01,178.563,47.618,239.607,118.729Z" transform="translate(12307 3216)" fill="#034a66" stroke="#707070" stroke-width="1"/>
    <path id="Intersección_9" data-name="Intersección 9" d="M-11189.4-2966.59l94.533-77.416a330.265,330.265,0,0,1,24.593,43.151,451.945,451.945,0,0,1,25.269,67.026c-7.294,26.575-13.576,48.781-17.157,59.969a174.276,174.276,0,0,1-37.92,4.574C-11192.918-2869.3-11189.4-2966.59-11189.4-2966.59Z" transform="translate(12307 3216)" fill="url(#linear-gradient-2)"/>
    <path id="Intersección_10" data-name="Intersección 10" d="M-11125.912-2355.281v-10.98l31.5-.483-16.687-.558v-6.006l-8.966-.36v-10.863l17.551-.468.021-2.712-17.314-.756-.016-7.475h-6.094v-11.386l25.479-1.165v-.707l-21.146-.514v-10.9l39.329-1.438-36.837-2.036-.121-9.421,1.646-.136-.186-9.347,19.01-.75-.009-2.814-11.04-.229-.173-9.449,18.368-1.069v-1.463l-28.211-.787v-10.5l49.735-.558.037-1.54-29.52-1.878.077-6.713-20.346-.964.016-9.437,17.314-.756-.021-2.712-12.883-.347-4.668-.983v-9.332h3.666v-7.788l31.163-.713.012-1.742-33.988-2.721.121-9.421,36.886-2.033-39.378-1.441v-10.912l21.146-.521v-.707l-20.9-.955-4.578-1.19v-9.242h5.852v-.667l8.966-.359v-6.016l16.687-.533-26.777-.418-4.727-.539v-9.381h26.362v-.17l29.52-1.881-.037-1.546-49.735-.555v-10.5l28.211-.784v-1.463l-18.368-1.072.173-9.449,11.04-.229.009-2.817-19.01-.747.186-9.446h1.168v-3.669l-1.89-.143v-10.578l8.9-.53-9.4-.149v-13.01l9.4-.155-8.9-.53v-6.183h.635l-.1-4.714,19.01-.75-.009-2.817-11.04-.232-.173-9.449,18.368-1.066v-1.469l-28.211-.784v-10.494l49.735-.558.037-1.547-29.52-1.878.077-6.713-20.346-.958.016-9.437,17.314-.762-.021-2.7-17.551-.459v-10.878l8.966-.356v-6.016l16.687-.524-31.5-.511v-11.758l25.479-1.162v-.7l-21.146-.521v-10.9l39.329-1.444-36.837-2.027-.121-9.422,33.988-2.727-.012-1.754-31.163-.716v-7.98l-1.89-.136v-10.578l8.9-.518-9.4-.167v-13.01l9.258-.146-8.755-.521v-10.577l1.89-.143v-8l31.163-.713.012-1.739-33.988-2.724.121-9.425,36.837-2.03-39.329-1.444v-10.9l21.146-.518v-.707l-25.479-1.165v-11.761l31.5-.487-16.687-.545v-6.019l-8.966-.363v-10.859l17.551-.465.021-2.7-17.314-.762-.016-9.437,20.346-.955-.077-6.722,29.52-1.875-.037-1.556-49.735-.542v-10.512l28.211-.781v-1.454l-18.368-1.072.173-9.449,11.04-.232.009-2.814-19.01-.747.186-9.449h70.385q65.162,211.179-25.012,585.8Z" transform="translate(12307 3216)" fill="#d3f7ff"/>
    <path id="Intersección_11" data-name="Intersección 11" d="M-11069.966-2378.757l3.332-.088c-.014.057-.037.16-.05.218Zm2.712-14.5,3.942-.184-.079.352Zm-11.427-9.136,17.536-.8c-.107.491-.219.993-.327,1.484Zm10.782-13.094,9.5-.348c-.04.187-.084.391-.125.579Zm-15.89-13.757,28.7-2.3c-.265,1.28-.53,2.557-.8,3.839Zm30.586-16.234.96-.055c-.008.037-.013.063-.021.1Zm-.468-32.74,7.761-.308c-.05.27-.1.527-.146.8Zm-13.584-8.129,22.942-1c-.121.679-.246,1.371-.368,2.051Zm23.033-7.3,1.035-.053c-.007.035-.009.048-.015.083Zm-29.885-7.314,32.574-2.307c-.181,1.06-.355,2.08-.538,3.143Zm-9.683-21.555,45.835-2.537q-.483,3.053-.979,6.122Zm15.89-13.748,31.8-.783c-.1.638-.2,1.293-.293,1.933Zm-16.9-13.382,50.842-2.027q-.306,2.149-.619,4.306Zm50.526-7.388,1.073-.032c0,.017-.006.048-.009.065Zm-13.764-6.328,8.641-.431-.084-4.729-12.242-.18,20.269-1.3c-.323,2.473-.656,4.969-.993,7.456Zm17.234-13.19.194-.015c0,.017,0,.007,0,.023Zm-19.3-17.6,21.669-.458c-.066.577-.13,1.131-.2,1.709Zm-3.108-7.15,25.661-1.194c-.1.9-.193,1.759-.294,2.663Zm3.778-6.88,20.225-1.128-.083-4.72h-.245l.108-3.828-60.991-4.323,60.439-3.589-.046-3.025,5.118-.1q-.97,10.7-2.125,21.589Zm-35.1-26.634,60.239-1.024q-.088,1.028-.178,2.059Zm54.509-6.009.046-3.022-54.867-3.267,58.388-2.3.025-4.726-26.777-1.243,30.564-1.773q-.564,8.165-1.241,16.446Zm-20.077-21.707,27.92-1.629c-.047.746-.093,1.463-.142,2.21Zm24.766-11.377,3.737-.041c0,.046-.006.1-.008.142Zm-5.47-6.226,9.554-.4c-.019.383-.038.772-.058,1.156Zm-22.931-7.974,32.107-1.28.021-4.726-45.654-2.138,44.368-1.928-.037-4.726-21.205-.629,23.3-1.19-.068-4.732-49.152-1.3,44.87-1.785-.019-4.732-8.9-.26,10.42-.325.053-4.736-24.409-1.274,8.641-.431-.084-4.726-46.735-.7,60.03-2.737-.024-4.726-3.275-.108,3.521-.108-.021-4.736-42.007-1.032,42.3-1.553.01-4.726-1.008-.031.016-4.283-57.118-3.164,56.421-4.506-.1-4.717-7.48-.288,5.748-.325-.083-4.717h-.245l.108-3.818-61.066-4.33,60.515-3.6-.046-3.022,8.794-.166a999.823,999.823,0,0,1,.239,100.407Zm-30.8-104.154,62.891-1.084c.045.707.091,1.449.135,2.158Zm54.509-6.025.046-3.019-60.439-3.586,60.991-4.326-.108-3.834h.245l.083-4.717-5.637-.325,7.369-.273.1-4.72-56.421-4.506,57.118-3.164-.016-4.3,1.008-.028,0-2.4q2.331,19.2,3.729,39.347Zm-37.882-43.069,41.6-1.021c.11.856.217,1.7.323,2.554Zm38.434-5.876,2.519-.079.022.167Zm-56.7-7.565,46.687-.716.084-4.729-8.641-.421,18.981-1.008q.747,4.741,1.434,9.545Zm52.066-12.2,4.161-.126.043.255Zm-35.87-6.775,38.709-1.02c.152.855.3,1.717.455,2.575Zm25.745-7.218,11.756-.352c.062.326.121.637.183.964Zm-23.033-7.292,33.115-1.547q.308,1.5.608,3.012Zm13.584-8.129,17.894-1.149c.137.625.271,1.244.406,1.871Zm3.486-25.593,8.438-.176.182.682Zm-3.019-7.15,9.419-.438.282,1Z" transform="translate(12307 3216)" fill="#b8e8f2"/>
    <g id="Grupo_21591" data-name="Grupo 21591" transform="translate(360.022 22)">
      <g id="Lavadero" transform="translate(0 0)">
        <path id="Trazado_22059" data-name="Trazado 22059" d="M94.292,0l73.969,246.8S99.151,357.756,0,252.922C13.234,207.516,85.891.829,85.891.829Z" transform="translate(31.5 108.076) rotate(-34)" fill="url(#linear-gradient-3)"/>
        <g id="Rodillo_izquierdo" data-name="Rodillo izquierdo" transform="translate(0 119.666)">
          <path id="Trazado_19585" data-name="Trazado 19585" d="M469.661,216.1l.185,9.449-19.009.749.01,2.813,11.04.232.171,9.449-18.368,1.074v1.454l28.21.779v10.513l-49.734.544-.037,1.554,29.519,1.876-.077,6.72,20.345.957L471.9,273.7l-17.314.762.023,2.7,17.549.467v10.859l-8.966.363v6.019l-16.686.544,31.5.487v11.762l-25.478,1.165v.708l21.148.517v10.9l-39.331,1.444,36.837,2.031.121,9.426-33.987,2.722.01,1.739,31.164.715v8l1.89.141v10.577l-8.754.52,9.258.148V371.41l-9.4.165,8.9.52v10.577l-1.89.134v7.982l-31.164.715-.01,1.756,33.987,2.726-.121,9.422-36.837,2.027,39.331,1.443v10.9l-21.148.52V421l25.478,1.161v11.759l-31.5.51,16.686.524v6.015l8.966.356v10.879l-17.549.46-.023,2.7,17.314.762.017,9.436-20.345.96.077,6.71-29.519,1.88.037,1.547,49.734.557v10.493l-28.21.785v1.467l18.368,1.068-.171,9.449-11.04.232-.01,2.816,19.009.752-.1,4.713h.634v6.183l-8.9.53,9.4.154v13.011l-9.4.148,8.9.531v10.577l-1.89.145v3.669h1.168l.185,9.446-19.009.745.01,2.82,11.04.228.171,9.449L443.689,567.7v1.464l28.21.785v10.5L422.166,581l-.037,1.548,29.519,1.88v.171h26.361v9.382l-4.726.537-26.777.42,16.686.534v6.015l8.966.359v.668h5.851v9.241l-4.575,1.188-20.9.957v.7l21.148.52v10.913l-39.378,1.44,36.884,2.034.121,9.422-33.987,2.719.01,1.742,31.164.715V651.9h3.665v9.332l-4.666.98-12.883.349-.023,2.712,17.314.755.017,9.436-20.345.963.077,6.714-29.519,1.88.037,1.541,49.734.557v10.5l-28.21.785v1.464l18.368,1.071-.171,9.449-11.04.228-.01,2.813,19.009.752-.185,9.345,1.645.138-.121,9.422-36.837,2.034,39.331,1.44v10.9l-21.148.514v.7l25.478,1.168v11.386h-6.093l-.017,7.476-17.314.755.023,2.712,17.549.467v10.862l-8.966.359v6.009l-16.686.557,31.5.483v10.98H238.629l-.195-9.442,19.016-.752-.01-2.816-11.04-.232-.171-9.449,18.361-1.067v-1.453l-28.21-.786V765.39l49.737-.544.034-1.548L256.617,761.4l.1-6.71-20.345-.957.01-9.439,17.318-.762-.027-2.7-17.546-.46V729.509l8.966-.359v-6.022l16.683-.537-31.5-.483V710.336l25.478-1.162v-.7l-21.164-.531V697.049l39.331-1.443-36.827-2.031-.114-9.426,33.977-2.719-.02-1.742-31.144-.715v-7.982l-1.89-.138V660.259l8.754-.52-9.258-.148V646.581l9.4-.158-8.892-.52V635.325l1.89-.141V627.2l31.144-.715.02-1.745-33.977-2.716.114-9.426,36.958-2.044-39.462-1.443v-10.9l21.164-.52v-.705l-25.478-1.161V584.071l31.5-.507-16.683-.53v-6.012l-8.966-.359V565.8l17.546-.46.027-2.712-17.318-.762-.01-9.432,20.345-.957-.084-6.717,29.519-1.88-.034-1.547-49.737-.55v-10.5l28.21-.786v-1.467l-18.361-1.068.171-9.449,11.04-.232.01-2.813-19.016-.749.1-4.723H237.9v-6.18l8.892-.52-9.4-.158V489.119l9.4-.148-8.892-.534V477.863l1.89-.138v-3.669h-1.165l-.195-9.449,19.016-.748-.01-2.813-11.04-.232-.171-9.446,18.361-1.078v-1.464l-28.21-.785v-10.5l49.737-.554.034-1.548-29.519-1.88v-.171H230.277v-9.379l4.72-.53,26.777-.426-16.683-.531v-6.009l-8.966-.363v-.678h-5.847v-9.241l4.572-1.188,20.906-.957v-.7l-21.164-.52V391.954l39.378-1.44-36.874-2.027-.114-9.426,33.977-2.722-.02-1.746-31.144-.715V366.09h-3.669v-9.328l4.666-.98,12.88-.342.027-2.712-17.318-.752-.01-9.436,20.345-.957-.084-6.724,29.519-1.887-.034-1.541-49.737-.557V320.381l28.21-.785v-1.454l-18.361-1.074.171-9.449,11.04-.232.01-2.823-19.016-.752.195-9.342-1.648-.141.114-9.426,36.827-2.024-39.331-1.443v-10.9l21.164-.517v-.7l-25.478-1.165V256.761h6.092l.01-7.472,17.318-.765-.027-2.709-17.546-.463V234.485l8.966-.359v-6.009l16.683-.557-31.5-.48V216.1Z" transform="translate(-230.277 -82.84)" fill="#d3f7ff"/>
          <path id="Trazado_19586" data-name="Trazado 19586" d="M353.621,218.209l-.01,3.588,26.777,1.245-31.627,1.833.094,4.723,28.516.594-31.916,1.873.077,4.545-1.024.024v4.726l7.972.218-11.739.131-.164,4.716,17.4,1.386-16.811.7-.047,4.716,39.731,2.551-32.047,1.266-.024,4.733,45.655,2.131-44.37,1.927.037,4.726,21.3.638-23.393,1.2.07,4.726,49.069,1.292L352.366,280.2l.017,4.726,8.9.269-10.419.319-.054,4.72,24.41,1.3-8.64.423.084,4.73,46.686.715-59.982,2.736.023,4.726,3.263.1-3.508.121.023,4.726,41.916,1.027-42.211,1.544-.01,4.733,1.007.027-.013,4.3,57.118,3.162-56.424,4.508.1,4.72,7.368.272-5.636.326.084,4.716h.245l-.107,3.833,60.989,4.327-60.438,3.585.047,3.021-9.869.188v4.726l64.376,1.111-64.376,1.094v4.726l9.869.188-.047,3.021,60.516,3.6-61.066,4.33.107,3.817h-.245l-.084,4.716,5.75.326-7.482.289-.1,4.716,56.424,4.508-57.118,3.162.013,4.283-1.007.033.01,4.726,42.3,1.551-42.006,1.034-.023,4.733,3.521.111-3.276.107-.023,4.726,60.029,2.736-46.733.7-.084,4.726,8.64.43-24.41,1.276.054,4.733,10.419.326-8.9.262-.017,4.733,44.87,1.782-49.153,1.3-.07,4.733,23.3,1.192-21.208.628-.037,4.726,44.37,1.927-45.655,2.138.024,4.726,32.107,1.282-39.791,2.548.047,4.72,16.811.705-17.4,1.383.164,4.716,11.772.128-8.006.218v4.733l1.024.02-.077,4.548,31.825,1.856-28.425.6-.094,4.72,31.627,1.833-26.777,1.245.023,4.726,58.387,2.3-54.866,3.266.047,3.021-9.869.185v4.73l64.376,1.094-64.376,1.111v4.727l9.869.185-.047,3.024,60.438,3.588-60.989,4.323.107,3.83h-.245l-.084,4.72,20.224,1.128-22.973.9-.023,4.733,26.777,1.245-31.627,1.833.094,4.716,28.425.6L345.454,559.9l.077,4.545-1.024.024V569.2l8.006.218-11.772.131-.164,4.713,17.4,1.383-16.811.705-.047,4.719L378.9,583.5l-12.242.181-.084,4.73,8.64.43-24.41,1.276.054,4.733,10.594.319-9.073.279-.017,4.733,59.616,2.377-58.616,2.662.023,4.73,3.437.117-3.682.111.023,4.733,41.916,1.03-42.211,1.541-.01,4.733,1.007.03-.013,4.283,57.118,3.162-56.424,4.508.1,4.713,7.482.292-5.75.326.084,4.713h.245l-.107,3.837,44.685,3.165-53.208,1.39-.07,4.726,23.393,1.2-21.3.634-.037,4.733,44.37,1.927-45.655,2.132.024,4.726,32.047,1.272-39.731,2.551.047,4.716,16.885.7-17.479,1.4.164,4.72,11.467.131-7.7.2v4.73l1.024.023-.077,4.555,31.825,1.86-28.425.6-.094,4.723,31.627,1.829-26.777,1.249.023,4.726,13.739.544-12.722.484-.1,4.716,56.424,4.515-57.118,3.159.013,4.29-1.007.037.01,4.726,42.211,1.547-41.916,1.031-.023,4.726,3.521.111-3.276.108-.023,4.726,52.5,2.393-57.058,2.269-.024,4.733,45.655,2.131-44.37,1.927.037,4.73,21.208.624-23.3,1.2.07,4.73,49.069,1.292-44.786,1.772.017,4.733,9.073.279-10.594.319-.054,4.733,24.41,1.282-8.64.426.047,2.847H304.834l.013-3.6L278.071,785l31.627-1.843-.1-4.72-28.418-.6,31.829-1.856-.084-4.542,1.024-.024v-4.73l-7.972-.218,11.739-.128.161-4.716-17.4-1.383,16.814-.708.047-4.716-39.8-2.551,32.121-1.279.023-4.733-45.591-2.118,44.3-1.927-.037-4.73-21.3-.638,23.393-1.2-.07-4.726-49.059-1.3,44.782-1.772-.027-4.733L297,722.833l10.6-.322.054-4.729L283.237,716.5l8.644-.429-.084-4.727-46.6-.7,59.9-2.736-.024-4.733-3.276-.1,3.521-.117-.024-4.726L263.372,697.2l42.211-1.541.013-4.733-1.007-.034.013-4.29-57.119-3.162,56.427-4.508-.107-4.723-7.365-.272,5.636-.322-.084-4.723h-.245l.107-3.83-60.975-4.324,60.435-3.588-.047-3.018,9.869-.188v-4.73L246.746,648.1l64.389-1.091v-4.733l-9.869-.185.047-3.018-60.462-3.6,61-4.33-.107-3.83h.245l.084-4.716-5.636-.326L303.8,622l.107-4.716-56.427-4.508,57.119-3.162-.013-4.3,1.007-.027-.013-4.733-42.288-1.551,42-1.021.024-4.733-3.521-.111,3.276-.108.024-4.726-59.9-2.736,46.6-.705.084-4.726-8.644-.433,24.414-1.276L307.6,573.7l-10.6-.326,9.073-.272.027-4.733L261.317,566.6l49.059-1.292.07-4.726-23.292-1.205,21.194-.621.037-4.726L264.02,552.1l45.655-2.141-.023-4.726-32.121-1.282,39.8-2.544-.047-4.723-16.814-.7,17.4-1.383-.161-4.723-11.739-.124,7.972-.218V524.8l-1.024-.023.084-4.548-31.829-1.856,28.418-.6.1-4.713-31.627-1.846,26.777-1.232-.023-4.733L246.5,502.942l54.813-3.256-.047-3.018,9.869-.185v-4.733l-64.154-1.1,64.154-1.1v-4.73l-9.869-.181.047-3.024-60.465-3.6,61.006-4.327-.107-3.817h.245l.084-4.723-20.228-1.128,22.977-.9.023-4.733-26.777-1.249,31.627-1.829-.1-4.716-28.418-.6,31.829-1.853-.084-4.558,1.024-.023v-4.733l-7.7-.2,11.47-.124.161-4.723L300.4,432.38l16.884-.7.047-4.723-37.7-2.41,12.158-.185.084-4.726-8.644-.43,24.414-1.279-.044-4.733-10.594-.319,9.06-.275.027-4.733-59.666-2.377,58.659-2.675-.024-4.73-3.266-.1,3.511-.114-.024-4.733-41.919-1.021,42.211-1.547.013-4.73-1.007-.04.013-4.29-57.119-3.142,56.427-4.528-.107-4.713-7.365-.279,5.636-.326-.084-4.72h-.245l.107-3.83L257.118,356.8l53.258-1.4.07-4.726-23.3-1.2,21.2-.628.037-4.726-44.366-1.927,45.655-2.132-.023-4.733-32.05-1.265,39.734-2.551-.047-4.716-16.884-.7,17.475-1.4-.161-4.716-11.775-.128,8.009-.218V314.9l-1.024-.023.084-4.542-31.829-1.856,28.418-.6.1-4.713-31.627-1.84,26.777-1.245-.023-4.726-13.739-.544,12.719-.487.107-4.713-56.427-4.515L304.6,281.93l-.013-4.29,1.007-.034-.013-4.73-42.288-1.547,42-1.027.024-4.726-3.521-.117,3.276-.1.024-4.73-52.429-2.393,56.988-2.266.023-4.733L264.02,249.1l44.366-1.927-.037-4.726-21.3-.638,23.393-1.2-.07-4.73L261.307,234.6l44.792-1.789-.027-4.726-8.9-.265L307.6,227.5l.054-4.733-24.414-1.282,8.644-.426-.047-2.85Z" transform="translate(-205.364 -77.863)" fill="#b8e8f2"/>
          <path id="Trazado_19587" data-name="Trazado 19587" d="M284.048,176.4H264.23V309.655h19.818Z" transform="translate(-150.26 -176.399)" fill="#525b66"/>
        </g>
        <g id="Coche" transform="translate(195.583 281.058)">
          <path id="Trazado_19590" data-name="Trazado 19590" d="M393.7,338.053H305.663a1.189,1.189,0,0,0-1.2,1.182V512.379a1.191,1.191,0,0,0,1.2,1.182H393.7a1.188,1.188,0,0,0,1.2-1.182V339.235A1.186,1.186,0,0,0,393.7,338.053Z" transform="translate(-283.221 21.033)" fill="#070208"/>
          <path id="Trazado_22057" data-name="Trazado 22057" d="M393.7,338.053H305.663a1.189,1.189,0,0,0-1.2,1.182V512.379a1.191,1.191,0,0,0,1.2,1.182H393.7a1.188,1.188,0,0,0,1.2-1.182V339.235A1.186,1.186,0,0,0,393.7,338.053Z" transform="translate(270.78 21.033)" fill="#070208"/>
          <path id="Trazado_19591" data-name="Trazado 19591" d="M947.269,485.148c-2.085-25.525-39.684-64.235-51.58-86.54-19.164-35.86-39.415-117.157-70.982-141.289-22.43-17.136-81.1-20.892-108.739-23.044-21.957-1.772-53.4-2.7-89.169-3.2h-.175c-35.79.493-67.209,1.447-89.182,3.2-27.629,2.145-86.245,5.908-108.739,23.044-31.57,24.132-51.8,105.429-70.972,141.289-11.89,22.306-49.5,61.016-51.593,86.54-4.857,58.686,1.031,200.106,15.663,215.577,10.218,10.8,156.317,11.141,304.907,8.674,148.624,2.467,294.726,2.125,304.91-8.674C946.255,685.254,952.126,543.834,947.269,485.148Z" transform="translate(-283.214 -231.079)" fill="#868686"/>
          <path id="Trazado_19592" data-name="Trazado 19592" d="M376.5,301.678s-6.925-.98-9.661-6.334-.93-13.165-3.706-17.042-22.819-15.173-46.118-3.421c-19.231,9.731-18.878,20.463-18.878,22.413s-.946,20.432,38.979,23.83c19.553,1.7,32.443-2.417,32.443-2.417Z" transform="translate(-298.136 -140.104)" fill="#070208"/>
          <path id="Trazado_19593" data-name="Trazado 19593" d="M365.629,295.344c-2.789-5.384-.926-13.165-3.706-17.042S339.1,263.129,315.8,274.881c-10.5,5.317-15.048,10.9-17.153,15.209a44.8,44.8,0,0,1,13.266-9.627c23.246-11.732,43.309-.483,46.082,3.417s.91,11.7,3.672,17.083,9.691,6.334,9.691,6.334l-4.84,11.947c1.121-.289,1.826-.537,1.826-.537l6.925-17.029S368.368,300.7,365.629,295.344Z" transform="translate(-296.921 -140.104)" fill="#474348"/>
          <path id="Trazado_19594" data-name="Trazado 19594" d="M478.551,301.678s6.918-.98,9.677-6.334.93-13.165,3.682-17.042,22.809-15.173,46.119-3.421c19.231,9.731,18.879,20.463,18.879,22.413s.963,20.432-38.979,23.83c-19.52,1.7-32.433-2.417-32.433-2.417Z" transform="translate(127.056 -140.104)" fill="#070208"/>
          <path id="Trazado_19595" data-name="Trazado 19595" d="M488.206,295.344c2.773-5.384.93-13.165,3.682-17.042s22.809-15.173,46.118-3.421c10.5,5.317,15.068,10.9,17.133,15.209a44.061,44.061,0,0,0-13.229-9.627c-23.262-11.732-43.289-.483-46.061,3.417s-.916,11.7-3.689,17.083-9.691,6.334-9.691,6.334l4.851,11.947c-1.151-.289-1.846-.537-1.846-.537l-6.915-17.029S485.443,300.7,488.206,295.344Z" transform="translate(127.076 -140.104)" fill="#474348"/>
          <path id="Trazado_19596" data-name="Trazado 19596" d="M652.892,279.538H400.441V511.463H521.717s19.9-80.4,39.875-117.148C586.244,348.979,652.892,279.538,652.892,279.538Z" transform="translate(-57.03 -116.873)" fill="#fff" style="mix-blend-mode: multiply;isolation: isolate"/>
          <path id="Trazado_19597" data-name="Trazado 19597" d="M636.609,309.667,465.468,385.3,436.59,507.86s155.8,39.375,188.317-62.6C630.405,427.935,636.609,309.667,636.609,309.667Z" transform="translate(28.165 -45.866)" fill="#fff" opacity="0.4"/>
          <path id="Trazado_19598" data-name="Trazado 19598" d="M445.18,367.031S565.9,371.338,588.02,354.42c10.272-7.875,14.891-33.182,8.288-40.929-8.217-9.677-36.636-6.723-48.851-6.062-20.5,1.074-82.012,12.917-82.012,12.917Z" transform="translate(48.409 -53.359)" fill="#ffb72b"/>
          <path id="Trazado_19599" data-name="Trazado 19599" d="M560.705,324s-51.224,8.063-89.239,37.384c-22.158,17.062-29.945,45.306-29.945,45.306h-4.934l24.125-80.4Z" transform="translate(28.156 -12.096)" fill="#2d2d2d"/>
          <path id="Trazado_19600" data-name="Trazado 19600" d="M467.938,329.765c0,11.93,9.13,21.628,20.433,21.628s20.4-9.7,20.4-21.628-9.134-21.591-20.4-21.591S467.938,317.818,467.938,329.765Z" transform="translate(102.044 -49.385)" fill="#fff" opacity="0.77"/>
          <path id="Trazado_19601" data-name="Trazado 19601" d="M453.645,331.332c0,11.876,9.184,21.571,20.47,21.571s20.416-9.694,20.416-21.571c0-11.973-9.114-21.665-20.416-21.665S453.645,319.355,453.645,331.332Z" transform="translate(68.359 -45.864)" fill="#fff" opacity="0.77"/>
          <path id="Trazado_19602" data-name="Trazado 19602" d="M587.259,341.1c7.425-5.69,11.839-20.406,11.235-31.107,2.82,10.392-1.742,29.5-10.476,36.172-22.094,16.918-142.823,12.608-142.823,12.608l2.108-4.9C465.087,354.388,567.075,356.569,587.259,341.1Z" transform="translate(48.445 -45.103)" fill="#070208"/>
          <path id="Trazado_19603" data-name="Trazado 19603" d="M577.778,279.538H325.27s66.645,69.441,91.314,114.777c20.01,36.743,39.872,117.148,39.872,117.148H698.927s19.822-80.4,39.868-117.148c24.669-45.336,91.3-114.777,91.3-114.777Z" transform="translate(-234.189 -116.873)" fill="#fff" opacity="0.26"/>
          <path id="Trazado_19604" data-name="Trazado 19604" d="M304.766,309.667,475.93,385.3,504.8,507.86s-155.821,39.375-188.3-62.6C310.986,427.935,304.766,309.667,304.766,309.667Z" transform="translate(-282.512 -45.866)" fill="#fff" opacity="0.4"/>
          <path id="Trazado_19605" data-name="Trazado 19605" d="M327.383,324s51.261,8.063,89.239,37.384c22.121,17.062,29.946,45.306,29.946,45.306h4.921l-24.142-80.4Z" transform="translate(-229.21 -12.096)" fill="#2d2d2d"/>
          <path id="Trazado_19606" data-name="Trazado 19606" d="M683.787,348.63H360.1a11.62,11.62,0,0,0-5.059,1.158,11.368,11.368,0,0,0-4.025,3.243A11.206,11.206,0,0,0,349,362.812l3.78,14.387a11.31,11.31,0,0,0,4.085,6.113,11.565,11.565,0,0,0,7.019,2.367H678.913a11.59,11.59,0,0,0,6.7-2.131,11.349,11.349,0,0,0,4.179-5.6l4.867-14.394a11.19,11.19,0,0,0-1.561-10.215,11.412,11.412,0,0,0-4.082-3.464A11.6,11.6,0,0,0,683.787,348.63Z" transform="translate(-179.148 45.96)" fill="#ecebf3"/>
          <path id="Trazado_19607" data-name="Trazado 19607" d="M520.249,334.832H379.715v27.334H520.249Z" transform="translate(-105.876 13.441)" fill="#ecebf3"/>
          <path id="Trazado_19608" data-name="Trazado 19608" d="M393.041,334.832H379.715v27.334h13.326Z" transform="translate(-105.876 13.441)" fill="#070208"/>
          <path id="Trazado_19609" data-name="Trazado 19609" d="M464.037,367.031S343.3,371.338,321.171,354.42c-10.235-7.875-14.9-33.148-8.288-40.929,8.224-9.677,36.626-6.723,48.841-6.062,20.52,1.074,82.052,12.917,82.052,12.917Z" transform="translate(-270.619 -53.359)" fill="#ffb72b"/>
          <path id="Trazado_19610" data-name="Trazado 19610" d="M361.7,329.765c0,11.93-9.157,21.628-20.422,21.628s-20.436-9.7-20.436-21.628,9.134-21.591,20.436-21.591S361.7,317.818,361.7,329.765Z" transform="translate(-244.63 -49.385)" fill="#fff" opacity="0.77"/>
          <path id="Trazado_19611" data-name="Trazado 19611" d="M375.969,331.332c0,11.876-9.134,21.571-20.416,21.571s-20.436-9.694-20.436-21.571c0-11.973,9.15-21.665,20.436-21.665S375.969,319.355,375.969,331.332Z" transform="translate(-210.982 -45.864)" fill="#fff" opacity="0.77"/>
          <path id="Trazado_19612" data-name="Trazado 19612" d="M321.9,341.1c-7.428-5.69-11.822-20.406-11.248-31.107-2.81,10.392,1.8,29.5,10.47,36.172,22.158,16.918,142.863,12.608,142.863,12.608l-2.132-4.9C444.113,354.388,342.1,356.569,321.9,341.1Z" transform="translate(-270.573 -45.103)" fill="#070208"/>
          <path id="Trazado_19613" data-name="Trazado 19613" d="M533.938,242.928h.185c50.076.252,193.292,10.735,193.292,10.735l57.719,118.218h4.33L730.5,251.068s-143.219-10.5-193.309-10.711h-.171c-50.089.211-193.325,10.711-193.325,10.711l-1.2,2.437C359.286,252.287,487.2,243.18,533.938,242.928Z" transform="translate(-193.601 -209.213)" fill="#46676c"/>
          <path id="Trazado_19614" data-name="Trazado 19614" d="M456.2,386.2l32.137-27.653A55.758,55.758,0,0,1,524.716,345.1h29.992a4.525,4.525,0,0,1,2.168.551,4.465,4.465,0,0,1,1.632,1.51,4.408,4.408,0,0,1,.275,4.273l-4.871,10.2a56.642,56.642,0,0,1-21.087,23.585,57.709,57.709,0,0,1-30.61,8.771H459.159a4.517,4.517,0,0,1-2.568-.789,4.4,4.4,0,0,1-1.651-2.091,4.357,4.357,0,0,1-.148-2.648A4.416,4.416,0,0,1,456.2,386.2Z" transform="translate(70.733 37.631)" fill="#070208"/>
          <path id="Trazado_19615" data-name="Trazado 19615" d="M417.791,386.2l-32.138-27.653A55.766,55.766,0,0,0,349.273,345.1h-30a4.525,4.525,0,0,0-2.169.551,4.463,4.463,0,0,0-1.631,1.51,4.4,4.4,0,0,0-.272,4.273l4.871,10.2a56.634,56.634,0,0,0,21.084,23.585,57.72,57.72,0,0,0,30.614,8.771h43.06a4.544,4.544,0,0,0,2.561-.792,4.455,4.455,0,0,0,1.652-2.091,4.415,4.415,0,0,0-1.252-4.9Z" transform="translate(-258.927 37.631)" fill="#070208"/>
          <path id="Trazado_19616" data-name="Trazado 19616" d="M948.109,322.585c-.963-11.128-7.086-14.864-7.086-14.864-14.276-9.453-71.868-5.257-110.6,0-35.756,4.887-130.893,0-203.883,0h-.473c-72.949,0-168.126,4.887-203.883,0-38.7-5.257-96.289-9.453-110.6,0,0,0-6.123,3.736-7.066,14.864s42.342,6.818,94.932,18.781c60.378,13.786,216.749,42.023,226.618,43.809v.087l.245-.047.245.047v-.047c9.872-1.772,166.23-30.023,226.638-43.806C905.771,329.42,949.09,333.693,948.109,322.585Z" transform="translate(-283.138 -63.705)" fill="#fff" opacity="0.4"/>
          <path id="Trazado_19617" data-name="Trazado 19617" d="M452.135,319.123h-63.8a9.869,9.869,0,0,0-6.928,2.83,9.616,9.616,0,0,0-2.87,6.838v17.831a9.591,9.591,0,0,0,2.85,6.821,9.84,9.84,0,0,0,6.9,2.84c18.439.054,57.2.148,63.8,0,6.589.178,45.34.084,63.775,0a9.832,9.832,0,0,0,6.9-2.84,9.579,9.579,0,0,0,2.85-6.821V328.79a9.567,9.567,0,0,0-2.867-6.838,9.788,9.788,0,0,0-3.179-2.095,9.912,9.912,0,0,0-3.753-.735Z" transform="translate(-108.657 -23.581)" fill="#070208"/>
          <path id="Trazado_19618" data-name="Trazado 19618" d="M771.084,251.068s-143.206-10.493-193.305-10.711H577.6c-50.086.218-193.325,10.711-193.325,10.711L325.27,371.875H830.028Z" transform="translate(-234.189 -209.213)" fill="#2d2d2d"/>
          <path id="Trazado_19619" data-name="Trazado 19619" d="M342.852,251.258s132.864-13,193.5-10.711,193.305,10.711,193.305,10.711l58.968,120.81Z" transform="translate(-192.753 -209.402)" fill="#fff" opacity="0.17"/>
        </g>
        <g id="Chorros" transform="translate(318.9 119.672)">
          <path id="Trazado_19651" data-name="Trazado 19651" d="M399.13,176.4l48.237,160.939S402.3,409.7,337.641,341.335c8.63-29.61,56.011-164.394,56.011-164.394Z" transform="translate(-337.641 -176.401)" fill="url(#linear-gradient-4)"/>
          <path id="Trazado_19652" data-name="Trazado 19652" d="M447.566,176.4,495.8,337.341s-45.068,72.358-109.729,3.995c8.63-29.61,56.011-164.394,56.011-164.394Z" transform="translate(-225.971 -176.401)" opacity="0.93" fill="url(#linear-gradient-4)"/>
          <path id="Trazado_19653" data-name="Trazado 19653" d="M491.884,176.4l48.237,160.939s-45.068,72.358-109.726,3.995c8.624-29.61,56.007-164.394,56.007-164.394Z" transform="translate(-109.723 -176.401)" opacity="0.93" fill="url(#linear-gradient-4)"/>
        </g>
        <rect id="Techo" width="519.525" height="119.73" transform="translate(50.862)" fill="#034a66"/>
        <g id="Grupo_21640" data-name="Grupo 21640" transform="translate(237.394 24.752)">
          <g id="Grupo_20824" data-name="Grupo 20824" transform="translate(0 0)">
            <g id="Grupo_20822" data-name="Grupo 20822" transform="translate(161.427 0)">
              <g id="Grupo_739" data-name="Grupo 739" transform="translate(0)">
                <path id="Trazado_1303" data-name="Trazado 1303" d="M16.24.783H0v68.48H16.924c10.761,0,16.337-5.674,16.337-16.24V47.447c0-7.239-2.25-12.424-8.022-14.674,4.794-2.25,6.946-6.75,6.946-13.794V16.533C32.186,5.968,27.392.783,16.24.783Zm-.685,37.664c4.891,0,6.946,1.957,6.946,8.315V52.73c0,5.087-1.957,6.75-5.576,6.75H10.761V38.447Zm.391-27.881c3.815,0,5.478,2.152,5.478,7.044v3.815c0,5.478-2.446,7.239-6.457,7.239H10.761v-18.1Zm57.23,58.7C72.1,66.719,72,64.273,72,60.947V50.382c0-7.141-1.761-12.326-7.141-14.576,4.794-2.25,7.044-6.848,7.044-13.892V16.533C71.9,5.968,67.11.783,55.958.783H39.718v68.48H50.479V41.381H54.2c4.891,0,7.044,2.348,7.044,8.707V60.849c0,5.576.391,6.652.978,8.413Zm-17.511-58.7c3.815,0,5.478,2.152,5.478,7.044v6.75c0,5.478-2.446,7.239-6.457,7.239H50.479V10.565Zm23.381,58.7H89.806V.783H79.045Zm18.587,0H126.1V59.48H108.394V.783H97.633Zm33.164,0h28.468V59.48H141.558V.783H130.8Zm43.045-52.73c0-4.891,2.152-6.75,5.576-6.75s5.576,1.859,5.576,6.75V53.512c0,4.891-2.152,6.75-5.576,6.75s-5.576-1.859-5.576-6.75ZM163.08,52.827c0,10.957,5.772,17.218,16.337,17.218s16.337-6.261,16.337-17.218V17.218C195.755,6.261,189.983,0,179.417,0S163.08,6.261,163.08,17.218Z" transform="translate(0 0)" fill="#fff"/>
              </g>
            </g>
            <g id="Grupo_20823" data-name="Grupo 20823" transform="translate(0 0.279)">
              <g id="Grupo_739-2" data-name="Grupo 739" transform="translate(0 0)">
                <path id="Trazado_1303-2" data-name="Trazado 1303" d="M0,.685v68.48H7.631v-27h6.75c10.859,0,15.946-5.674,15.946-16.533V17.413c0-10.37-4.6-16.729-15.359-16.729ZM7.631,35.316V7.631h7.337c5.576,0,7.826,3.13,7.826,9.392v9.1c0,6.554-2.739,9.2-8.413,9.2ZM43.827.685H36.294V52.632c0,10.37,4.794,17.316,15.261,17.316,10.565,0,15.359-6.946,15.359-17.316V.685H59.773V53.023c0,6.163-2.446,9.881-7.924,9.881-5.576,0-8.022-3.717-8.022-9.881Zm30.62,0v68.48h7.631V39.914h5.381c6.359,0,9.978,2.446,9.978,10.174V60.849c0,4.6.391,6.359,1.272,8.315h7.728c-1.272-2.348-1.37-5.185-1.37-8.218V50.284c0-7.337-2.348-12.424-8.609-14.283,5.87-1.859,8.511-6.554,8.511-14.087V16.337c0-10.174-4.5-15.653-15.261-15.653Zm7.631,32.283V7.631h7.435c5.674,0,7.924,3.228,7.924,9.392v6.555c0,7.435-3.62,9.392-9.685,9.392ZM112.4,52.632c0,10.37,5.185,17.218,15.653,17.218,10.565,0,15.75-6.848,15.75-17.218V17.218C143.808,6.75,138.623,0,128.057,0,117.59,0,112.4,6.75,112.4,17.218Zm7.533-35.805c0-6.163,2.641-9.881,8.12-9.881,5.576,0,8.12,3.717,8.12,9.881v36.2c0,6.261-2.544,9.881-8.12,9.881-5.478,0-8.12-3.62-8.12-9.881Z" transform="translate(0 0)" fill="#fff"/>
              </g>
            </g>
          </g>
        </g>
      </g>
    </g>
    <g id="Grupo_21569" data-name="Grupo 21569" transform="translate(176.189 150.359)">
      <g id="Grupo_21550" data-name="Grupo 21550" transform="translate(0 197.249)">
        <path id="Trazado_20105" data-name="Trazado 20105" d="M1757.887,1217.77l64.958,113.542h-7.913L1749.52,1217.77Z" transform="translate(-1749.52 -1217.77)" fill="#989898"/>
        <path id="Trazado_20106" data-name="Trazado 20106" d="M1935.786,1538.664H2082.9v-6H1933.05Z" transform="translate(-1870.373 -1425.122)" fill="#989898"/>
        <rect id="Rectángulo_2564" data-name="Rectángulo 2564" width="195.056" height="411.314" transform="translate(28.678 113.521)" fill="#40cced"/>
        <path id="Trazado_20107" data-name="Trazado 20107" d="M2028.756,1755.26v341.3H1833.7V1980.725C1888.136,1951.813,1996.678,1877.09,2028.756,1755.26Z" transform="translate(-1805.022 -1571.815)" fill="#35bede" opacity="0.62"/>
        <g id="Grupo_21650" data-name="Grupo 21650" transform="translate(68.398 206.514)">
          <g id="Grupo_20932" data-name="Grupo 20932" transform="translate(0.178 0)">
            <path id="Unión_3" data-name="Unión 3" d="M90.075,87.393a28.883,28.883,0,0,1-1.062-4.716c-.219-1.474-.382-3.1-.485-4.841A305.715,305.715,0,0,1,57.52,79.307c-5.7,0-11.342-.136-16.774-.4-5.55-.273-10.78-.68-15.545-1.209-.1,1.75-.259,3.388-.476,4.868a29.329,29.329,0,0,1-1.057,4.763c-1.092,3.356-2.687,5.058-4.74,5.058-2.233,0-4.189-2.084-5.813-6.2a55.456,55.456,0,0,1-2.748-10.9c-.776-.182-1.528-.371-2.233-.563a4.756,4.756,0,0,1-2.433-1.8,8.909,8.909,0,0,1-1.477-3.054,6.962,6.962,0,0,1-.24-2.466,3.828,3.828,0,0,1,.248-1.043,2.448,2.448,0,0,1,.525-.814l0,0a28.767,28.767,0,0,1-1.621-6.045,49.714,49.714,0,0,1-.622-6.337,42.1,42.1,0,0,1,.108-5.181A6.172,6.172,0,0,1,3.2,45.415a.074.074,0,0,1,.03-.019L12.872,37l.581-1.231-1.5-1.727a2.311,2.311,0,0,1-1.315.876,17,17,0,0,1-3.255.252A28.238,28.238,0,0,1,3,34.837a5.41,5.41,0,0,1-2.82-1.009A.6.6,0,0,1,0,33.361c.077-.782,1.632-2.553,3.618-4.12A18.864,18.864,0,0,1,6.8,27.18,7.135,7.135,0,0,1,9.859,26.3a2.948,2.948,0,0,1,.811.106A2.755,2.755,0,0,1,12,27.249a3.89,3.89,0,0,1,.772,1.427,6.646,6.646,0,0,1,.055,3.5l1.955.774L26.8,7.47A13.026,13.026,0,0,1,38.576,0h39.3A13.018,13.018,0,0,1,89.868,7.951l10.583,25,1.958-.775a6.649,6.649,0,0,1,.055-3.5,3.893,3.893,0,0,1,.772-1.427,2.756,2.756,0,0,1,1.328-.845,2.955,2.955,0,0,1,.811-.106,7.137,7.137,0,0,1,3.059.883,18.856,18.856,0,0,1,3.181,2.061c1.985,1.567,3.541,3.338,3.62,4.12a.6.6,0,0,1-.177.466,5.421,5.421,0,0,1-2.822,1.009,28.252,28.252,0,0,1-4.39.33,17,17,0,0,1-3.255-.252,2.309,2.309,0,0,1-1.314-.875l-1.589,1.834L102.162,37l9.464,7.4a.125.125,0,0,1,.064.05v0a.643.643,0,0,1,.084.321c.087.461.178,1.314.245,2.282.114,1.669.158,3.618.123,5.489a57.139,57.139,0,0,1-.5,6.746,28.862,28.862,0,0,1-1.538,6.38c.058-.039.114-.078.171-.121a2.676,2.676,0,0,1,.99,1.547,4.824,4.824,0,0,1,.006,2.062,7.915,7.915,0,0,1-.586,1.8,8.827,8.827,0,0,1-1,1.671,5.55,5.55,0,0,1-2.786,2.1c-1.111.3-2.322.594-3.6.87-.306,1.871-.663,3.649-1.061,5.283a40.472,40.472,0,0,1-1.7,5.474c-1.611,4-3.545,6.027-5.748,6.027C92.754,92.384,91.167,90.7,90.075,87.393ZM79.341,61.828a2.415,2.415,0,1,0,1.708-.708A2.4,2.4,0,0,0,79.341,61.828Zm-46.76,0a2.414,2.414,0,1,0,1.708-.708A2.4,2.4,0,0,0,32.58,61.828ZM98.769,48.952a25.016,25.016,0,0,0-4.5,2.121A27.727,27.727,0,0,0,90.4,53.821a14.2,14.2,0,0,0-2.551,2.73l-.016.016-.016.028c-.034.052-.061.1-.086.149l0,0,0,0,0,.005,0,0c-.021.038-.041.075-.063.112a4.315,4.315,0,0,0-.282.576,2.205,2.205,0,0,0-.091.286,1.884,1.884,0,0,0-.059.473c0,.023,0,.046,0,.067v.007a.62.62,0,0,0,.01.14.943.943,0,0,0,.282.532,3.576,3.576,0,0,0,1.163.608c.136.048.292.093.429.133h0l.006,0a11.521,11.521,0,0,0,1.321.3c.07.01.136.022.215.036h0c.082.015.167.03.258.042.665.091,1.353.152,2.044.183.131.006.27.007.382.009h.081l.1,0c.348.012.7.019,1.052.019.211,0,.425,0,.635-.006.284,0,.559-.012.865-.024.529-.021,1.019-.049,1.5-.087l.3-.02h.02c.15-.01.305-.02.456-.034.592-.057,1.184-.128,1.762-.21l.02-.012a11.626,11.626,0,0,0,3.591-.938,10.172,10.172,0,0,0,2.891-2.851,8.788,8.788,0,0,0,1.663-3.944,3.6,3.6,0,0,0-.127-1.456,2.664,2.664,0,0,0-.776-1.193A6.034,6.034,0,0,0,103.22,48.1,13.769,13.769,0,0,0,98.769,48.952Zm-88.586-.729A5.514,5.514,0,0,0,7.444,49.51,2.663,2.663,0,0,0,6.669,50.7a3.6,3.6,0,0,0-.125,1.457A8.8,8.8,0,0,0,8.207,56.1a10.161,10.161,0,0,0,2.892,2.85,11.581,11.581,0,0,0,3.587.938l.02.012c.582.082,1.175.153,1.762.21.151.014.306.024.456.034h.02l.3.02c.475.038.965.066,1.5.087.307.012.589.02.861.024.21,0,.424.006.635.006.349,0,.7-.006,1.052-.019l.177,0h0c.112,0,.252,0,.384-.009.689-.03,1.378-.092,2.048-.183.08-.011.156-.025.229-.038h.005l.015,0h0c.069-.013.144-.026.222-.037a11.282,11.282,0,0,0,1.322-.3l.005,0c.13-.038.291-.084.435-.134a3.551,3.551,0,0,0,1.159-.608.945.945,0,0,0,.282-.532.754.754,0,0,0,.012-.176v0c0-.005,0-.011,0-.016v-.017a1.572,1.572,0,0,0-.06-.473,2.1,2.1,0,0,0-.087-.286,4.252,4.252,0,0,0-.286-.576c-.026-.042-.047-.084-.067-.123v0h0c-.025-.048-.052-.1-.085-.151l-.016-.028-.02-.016a14.171,14.171,0,0,0-2.55-2.731,27.707,27.707,0,0,0-3.866-2.748,25.011,25.011,0,0,0-4.5-2.121l-.231-.078C13.688,48.677,11.792,48.458,10.182,48.223Zm69.94,1.231c-6.459.3-13.385.5-20.586.587a9.239,9.239,0,0,0-.474,2.187,16.013,16.013,0,0,0,.179,4.621,6.724,6.724,0,0,0,.59,1.8,1.734,1.734,0,0,0,.924.921,5.425,5.425,0,0,0,1.585.189,24.6,24.6,0,0,0,4.786-.627c1.764-.375,3.712-.9,5.635-1.516a47.067,47.067,0,0,0,4.938-1.86A8.078,8.078,0,0,0,80.4,54.1a3.336,3.336,0,0,0,.557-1.344A4.89,4.89,0,0,0,81,51.118a3.206,3.206,0,0,0-.28-.948,1.805,1.805,0,0,0-.556-.686Zm-45.508.716a3.206,3.206,0,0,0-.281.947,4.892,4.892,0,0,0,.05,1.635,3.342,3.342,0,0,0,.557,1.345,8.075,8.075,0,0,0,2.7,1.659,47.085,47.085,0,0,0,4.938,1.86c1.923.617,3.872,1.141,5.635,1.516A24.571,24.571,0,0,0,53,59.759a5.427,5.427,0,0,0,1.586-.189,1.735,1.735,0,0,0,.925-.92,6.716,6.716,0,0,0,.591-1.8,16,16,0,0,0,.179-4.617,9.358,9.358,0,0,0-.462-2.157c-1.649.012-3.309.018-4.932.018-5.617,0-11.035-.07-16.1-.208A2.19,2.19,0,0,0,34.614,50.17ZM96.408,34.72,85.7,9.472A11.34,11.34,0,0,0,75.256,2.558H41.013a11.347,11.347,0,0,0-10.258,6.5L18.627,34.72c6.717-.516,12.849-.882,18.746-1.12,5.635-.227,11.08-.338,16.646-.338C66.9,33.262,79.162,33.839,96.408,34.72Z" transform="translate(0 38.276)" fill="#fff"/>
            <g id="star_3_" data-name="star (3)" transform="translate(16.055 0)">
              <path id="Trazado_1268" data-name="Trazado 1268" d="M19.363,21.092a2.346,2.346,0,0,0,1.755,1.96L31.739,25.71a.492.492,0,0,1,.006.955l-10.633,2.66a2.339,2.339,0,0,0-1.749,1.959L16.547,51.949a.492.492,0,0,1-.976,0L12.756,31.284a2.339,2.339,0,0,0-1.749-1.959L.373,26.665a.491.491,0,0,1,0-.954l10.633-2.661a2.338,2.338,0,0,0,1.749-1.959L15.571.427a.492.492,0,0,1,.976,0Z" transform="translate(0 13.185)" fill="#ffc850" stroke="rgba(0,0,0,0)" stroke-miterlimit="10" stroke-width="1"/>
              <g id="Grupo_805" data-name="Grupo 805" transform="translate(34.531 33.597)">
                <path id="Trazado_1270" data-name="Trazado 1270" d="M10.9,11.335a1.232,1.232,0,0,1-.936-1.019c-.272-1.945-.966-6.914-1.4-10a.368.368,0,0,0-.73.008l-1.4,9.994A1.227,1.227,0,0,1,5.5,11.334L.282,12.608a.368.368,0,0,0,0,.715L5.5,14.6a1.227,1.227,0,0,1,.933,1.019l1.4,9.994a.369.369,0,0,0,.73,0l1.4-9.994a1.228,1.228,0,0,1,.933-1.018l5.222-1.274a.369.369,0,0,0,0-.716Z" transform="translate(0 0)" fill="#fff082"/>
              </g>
              <path id="Trazado_1271" data-name="Trazado 1271" d="M16.547,33.362l2.481-18.206A107.159,107.159,0,0,1,13.1,0l-.341,2.506a2.338,2.338,0,0,1-1.749,1.959L.373,7.125a.491.491,0,0,0,0,.954l10.633,2.66A2.338,2.338,0,0,1,12.756,12.7l2.816,20.664A.492.492,0,0,0,16.547,33.362Z" transform="translate(0 31.772)" fill="#f0ad19" stroke="rgba(0,0,0,0)" stroke-miterlimit="10" stroke-width="1"/>
              <g id="Grupo_803" data-name="Grupo 803" transform="translate(23.994 0)">
                <path id="Trazado_1269" data-name="Trazado 1269" d="M13.894,14.511a1.525,1.525,0,0,1-1.17-1.254L10.888.317a.37.37,0,0,0-.733,0L8.319,13.256A1.52,1.52,0,0,1,7.153,14.51L.283,16.16a.368.368,0,0,0,0,.715l6.87,1.65a1.52,1.52,0,0,1,1.166,1.254l1.831,12.9a.375.375,0,0,0,.743,0l1.831-12.9a1.52,1.52,0,0,1,1.166-1.254l6.865-1.649a.37.37,0,0,0-.005-.719Z" transform="translate(0 0)" fill="#ffdc64" stroke="rgba(0,0,0,0)" stroke-miterlimit="10" stroke-width="1"/>
                <path id="Trazado_1272" data-name="Trazado 1272" d="M8.484,0,8.319,1.162A1.519,1.519,0,0,1,7.153,2.415L.283,4.066a.368.368,0,0,0,0,.715l6.87,1.65A1.52,1.52,0,0,1,8.319,7.685l1.831,12.9a.375.375,0,0,0,.743,0L12.532,9.04A28.591,28.591,0,0,1,8.484,0Z" transform="translate(0 12.095)" fill="#ffc850" stroke="rgba(0,0,0,0)" stroke-miterlimit="10" stroke-width="1"/>
              </g>
              <path id="Trazado_1273" data-name="Trazado 1273" d="M6.436,5.934l1.4,9.994a.369.369,0,0,0,.731,0L9.872,6.563A15.383,15.383,0,0,1,6.525,0L6.436.635A1.227,1.227,0,0,1,5.5,1.653L.282,2.927a.368.368,0,0,0,0,.715L5.5,4.916A1.226,1.226,0,0,1,6.436,5.934Z" transform="translate(34.531 43.278)" fill="#ffdc64" stroke="rgba(0,0,0,0)" stroke-miterlimit="10" stroke-width="1"/>
            </g>
          </g>
          <g id="Grupo_20945" data-name="Grupo 20945" transform="translate(0 141.746)">
            <g id="Grupo_20824-2" data-name="Grupo 20824" transform="translate(0 0)">
              <g id="Grupo_20822-2" data-name="Grupo 20822" transform="translate(52.162 0)">
                <g id="Grupo_739-3" data-name="Grupo 739">
                  <path id="Trazado_1303-3" data-name="Trazado 1303" d="M5.247.253H0V22.381H5.469c3.477,0,5.279-1.833,5.279-5.247v-1.8c0-2.339-.727-4.015-2.592-4.742C9.7,9.863,10.4,8.409,10.4,6.133v-.79C10.4,1.928,8.851.253,5.247.253Zm-.221,12.17c1.581,0,2.244.632,2.244,2.687v1.928c0,1.644-.632,2.181-1.8,2.181H3.477v-6.8Zm.126-9.009c1.233,0,1.77.7,1.77,2.276V6.923c0,1.77-.79,2.339-2.086,2.339H3.477V3.414ZM23.645,22.381a6.517,6.517,0,0,1-.379-2.687V16.28c0-2.308-.569-3.983-2.308-4.71,1.549-.727,2.276-2.213,2.276-4.489V5.342c0-3.414-1.549-5.089-5.153-5.089H12.834V22.381h3.477V13.372h1.2c1.581,0,2.276.759,2.276,2.813v3.477a6.805,6.805,0,0,0,.316,2.719ZM17.987,3.414c1.233,0,1.77.7,1.77,2.276V7.871c0,1.77-.79,2.339-2.086,2.339H16.311v-6.8Zm7.555,18.967h3.477V.253H25.542Zm6.006,0h9.2V19.22H35.025V.253H31.548Zm10.716,0h9.2V19.22H45.741V.253H42.264ZM56.173,5.342c0-1.581.7-2.181,1.8-2.181s1.8.6,1.8,2.181V17.291c0,1.581-.7,2.181-1.8,2.181s-1.8-.6-1.8-2.181ZM52.7,17.07c0,3.54,1.865,5.564,5.279,5.564s5.279-2.023,5.279-5.564V5.564C63.254,2.023,61.389,0,57.975,0S52.7,2.023,52.7,5.564Z" transform="translate(0 0)" fill="#fff"/>
                </g>
              </g>
              <g id="Grupo_20823-2" data-name="Grupo 20823" transform="translate(0 0.09)">
                <g id="Grupo_739-4" data-name="Grupo 739" transform="translate(0 0)">
                  <path id="Trazado_1303-4" data-name="Trazado 1303" d="M0,.221V22.349H2.466V13.624H4.647c3.509,0,5.153-1.833,5.153-5.342V5.627C9.8,2.276,8.314.221,4.836.221Zm2.466,11.19V2.466H4.836c1.8,0,2.529,1.012,2.529,3.035V8.44c0,2.118-.885,2.971-2.719,2.971ZM14.162.221H11.728V17.007c0,3.351,1.549,5.6,4.931,5.6,3.414,0,4.963-2.244,4.963-5.6V.221H19.314V17.133c0,1.992-.79,3.193-2.56,3.193-1.8,0-2.592-1.2-2.592-3.193Zm9.894,0V22.349h2.466V12.9H28.26c2.055,0,3.224.79,3.224,3.288v3.477a5.8,5.8,0,0,0,.411,2.687h2.5a5.542,5.542,0,0,1-.443-2.655V16.248c0-2.371-.759-4.015-2.782-4.615,1.9-.6,2.75-2.118,2.75-4.552v-1.8c0-3.288-1.454-5.058-4.931-5.058Zm2.466,10.432V2.466h2.4c1.833,0,2.56,1.043,2.56,3.035V7.618c0,2.4-1.17,3.035-3.129,3.035Zm9.8,6.354c0,3.351,1.675,5.564,5.058,5.564,3.414,0,5.089-2.213,5.089-5.564V5.564C46.468,2.181,44.793,0,41.379,0,38,0,36.321,2.181,36.321,5.564Zm2.434-11.57c0-1.992.854-3.193,2.624-3.193,1.8,0,2.624,1.2,2.624,3.193v11.7c0,2.023-.822,3.193-2.624,3.193-1.77,0-2.624-1.17-2.624-3.193Z" transform="translate(0 0)" fill="#fff"/>
                </g>
              </g>
            </g>
          </g>
        </g>
      </g>
      <g id="Grupo_21645" data-name="Grupo 21645" transform="translate(79.441 0)">
        <g id="Grupo_21593" data-name="Grupo 21593" transform="translate(84.648)">
          <path id="Trazado_21998" data-name="Trazado 21998" d="M2903.88,2457.425s-.254,3.135-.771,7.782c-.306,2.59-.664,5.648-1.124,8.9-.334,2.391-.719,4.9-1.148,7.378-.628,3.631-.964,7.366-2.186,10.491-13.026,33.308,1.564,40.481,1.564,40.481l-23.362-.918s-2.486-21.586-4.543-44.926c-.306-3.548-.613-7.136-.9-10.693-.04-.5-.08-1-.116-1.5v-.019c-1.368-17.529-2.21-34.107-1.295-41.35C2872.345,2414.5,2903.88,2457.425,2903.88,2457.425Z" transform="translate(-2726.796 -1838.45)" fill="#f0a975"/>
          <path id="Trazado_21999" data-name="Trazado 21999" d="M2904.494,2523.614c-.306,2.59-.664,5.648-1.123,8.9-4.929,2.225-15.524,4.7-21.675,3.634-7.115-1.224-8.652-1.322-8.9-1.812a.578.578,0,0,1-.046-.114l-.07-1.384v-.018l-1.062-20.242Z" transform="translate(-2728.184 -1896.856)" fill="#f59d4e"/>
          <path id="Trazado_22000" data-name="Trazado 22000" d="M2882.954,2651.864s-2.486-21.589-4.543-44.929c14.526,4.867,28.526-5.134,28.526-5.134-.627,3.627-1.353,7.24-2.186,10.491-3.569,13.951-3.266,18.28-3.266,18.28l.211,24.249Z" transform="translate(-2732.896 -1958.763)" fill="#f0a975"/>
          <path id="Trazado_22001" data-name="Trazado 22001" d="M2799.616,2753.834a13.515,13.515,0,0,1-.646,4.035l-80.543,1.243s-2.045-.753-2.841-4.785a18.206,18.206,0,0,1-.306-3.368c-.043-7.01,30.185-13.4,40.169-18.4,12.9-6.459,12-2.547,12-2.547a35.352,35.352,0,0,0,23.787-.141s4.423-8.2,7.653,15.852A40.974,40.974,0,0,1,2799.616,2753.834Z" transform="translate(-2619.706 -2046.69)"/>
          <path id="Trazado_22002" data-name="Trazado 22002" d="M2800.31,2811.2a13.518,13.518,0,0,1-.646,4.035l-80.542,1.243s-2.046-.753-2.842-4.785Z" transform="translate(-2620.4 -2104.056)" fill="#f0a975"/>
          <path id="Trazado_22003" data-name="Trazado 22003" d="M2840.851,2750.451a.564.564,0,0,1-.567-.53,13.247,13.247,0,0,0-2.042-6.322.564.564,0,0,1,.918-.655,14.254,14.254,0,0,1,2.247,6.91.563.563,0,0,1-.527.6Z" transform="translate(-2704.951 -2056.532)" fill="#fff"/>
          <path id="Trazado_22004" data-name="Trazado 22004" d="M2816.679,2757.345a.563.563,0,0,1-.563-.533c-.211-3.628-1.625-5.165-1.641-5.18a.563.563,0,0,1,.811-.781c.07.073,1.714,1.809,1.953,5.9a.563.563,0,0,1-.53.594Z" transform="translate(-2688.433 -2062.073)" fill="#fff"/>
          <path id="Trazado_22005" data-name="Trazado 22005" d="M2861.039,2742.156a.566.566,0,0,1-.566-.536c-.306-6.123-3.787-6.334-3.821-6.334a.563.563,0,0,1-.542-.585.573.573,0,0,1,.582-.542c.187,0,4.534.251,4.9,7.4a.564.564,0,0,1-.533.591Z" transform="translate(-2717.421 -2050.602)" fill="#fff"/>
          <path id="Trazado_22006" data-name="Trazado 22006" d="M3161.559,2479.849c0,.086.015.177.021.269.223,2.556.444,5.431.658,8.462.306,4.522.612,9.389.9,14.055.717,12.093,1.224,22.847,1.224,22.847l-20.337,6.75-5.761-26.864-3.166-14.774-1.552-7.246-5.752-26.833-3.7-17.288-1-4.647a21.919,21.919,0,0,1,5.648-1.065,23.823,23.823,0,0,1,18.5,6.735C3153.811,2446.553,3159.655,2458.318,3161.559,2479.849Z" transform="translate(-2902.668 -1841.954)" fill="#f0a975"/>
          <path id="Trazado_22007" data-name="Trazado 22007" d="M3162.9,2471.651c0,.089-17.713,8.878-28.131,6.907l-4.724-22.042-3.7-17.288a41.132,41.132,0,0,1,4.65-5.713,23.824,23.824,0,0,1,18.5,6.736C3156.066,2446.553,3161,2450.12,3162.9,2471.651Z" transform="translate(-2904.923 -1841.955)" fill="#f59d4e"/>
          <path id="Trazado_22008" data-name="Trazado 22008" d="M3192.161,2628.43c.717,12.09,1.81,32.338,1.81,32.338l-20.337,6.75-7.874-36.719C3167.529,2631.387,3180.182,2635,3192.161,2628.43Z" transform="translate(-2932.275 -1977.24)" fill="#f0a975"/>
          <path id="Trazado_22009" data-name="Trazado 22009" d="M3094.723,2729.7c.089.83.043,3.9.175,4.547.878,4.194,2.217,6.689-21.534,15.216-27.409,9.836-44.479,12.206-54.493,1.194-8.991-9.885,17.912-17.383,49.617-37.756-.153.444-2.872,14.388,22.93,4.081,1.074-.431,1.506.952,1.76,2.082A76.963,76.963,0,0,1,3094.723,2729.7Z" transform="translate(-2829.136 -2035.85)" fill="#070208"/>
          <path id="Trazado_22010" data-name="Trazado 22010" d="M3077.343,2797.818c-27.409,9.836-44.479,12.206-54.493,1.194,0,0,11.2,7,28.34,3.171,14-3.132,39.679-15.613,47.7-19.593C3099.756,2786.8,3101.094,2789.292,3077.343,2797.818Z" transform="translate(-2833.116 -2084.205)" fill="#f0a975"/>
          <path id="Trazado_22011" data-name="Trazado 22011" d="M3157.73,2736.113a.937.937,0,0,1-1.225-.358c-3.061-5.2-6.312-6.429-6.346-6.429a.937.937,0,0,1,.612-1.769c.159.052,3.909,1.384,7.347,7.259a.936.936,0,0,1-.334,1.279Z" transform="translate(-2921.034 -2045.991)" fill="#fff"/>
          <path id="Trazado_22012" data-name="Trazado 22012" d="M3137.549,2747.253a.936.936,0,0,1-1.224-.358c-3.062-5.2-6.316-6.429-6.347-6.429a.938.938,0,1,1,.612-1.772c.159.055,3.909,1.387,7.347,7.258a.94.94,0,0,1-.334,1.283Z" transform="translate(-2907.009 -2053.711)" fill="#fff"/>
          <path id="Trazado_22013" data-name="Trazado 22013" d="M3113.783,2762.183a.934.934,0,0,1-1.225-.358c-3.061-5.2-6.315-6.429-6.349-6.429a.937.937,0,0,1,.612-1.77c.156.052,3.91,1.384,7.348,7.259a.918.918,0,0,1-.334,1.28Z" transform="translate(-2890.539 -2064.079)" fill="#fff"/>
          <path id="Trazado_22014" data-name="Trazado 22014" d="M2560.077,877.383s-5.014,3.447-7.209,1.567-55.8-75.24-55.8-75.24v44.2s10.657,19.437,24.136,39.814S2543.778,926.3,2569.169,915,2560.077,877.383,2560.077,877.383Z" transform="translate(-2468.299 -711.141)" fill="#f0a975"/>
          <path id="Trazado_22015" data-name="Trazado 22015" d="M2650.237,1046.488s5.477,24.666,0,31.416-15.338,1.071-15.338,1.071,11.573,13.492,30.92,2.526-10.1-37.141-10.1-37.141S2654.306,1045.949,2650.237,1046.488Z" transform="translate(-2563.933 -878.118)" fill="#f59d4e"/>
          <path id="Trazado_22016" data-name="Trazado 22016" d="M2872.884,711.227c-17.472-41.8-11.578-49.883-21.308-61.124-10.684-12.344-24.543-48.447-37.153-41.825,0,0-11.786,3.426-19.015,12.974h0a27.248,27.248,0,0,0-3.928,7.2c-5.422,15.071-1.154,17.361-10.69,24.3-4.947,3.6.08,7.978,5.342,8.085s6.019,16.783,16.489,23.089,28.548,3.747,34.533,1.4c0,0-.331,5.863-1.65,16.816-1.837,15.286-16.74,7.525-16.881,14.63S2879.7,717.451,2872.884,711.227Z" transform="translate(-2663.755 -574.981)" fill="#f0a975"/>
          <path id="Trazado_22017" data-name="Trazado 22017" d="M3002.572,759.45s-1.224,15.038,11.976,15l-2.574-11.695Z" transform="translate(-2819.025 -680.43)" fill="#f59d4e"/>
          <path id="Trazado_22018" data-name="Trazado 22018" d="M2947.73,693.746s-3.1-2.363-11.149,8.5c0,0,2.274-16.718,7.421-16.786S2947.73,693.746,2947.73,693.746Z" transform="translate(-2773.257 -629.091)" fill="#f59d4e"/>
          <path id="Trazado_22019" data-name="Trazado 22019" d="M2837.11,615.777s25.946-3.882,32.365,2.5-13.47-16.532-13.47-16.532S2842.055,609.872,2837.11,615.777Z" transform="translate(-2704.239 -571.009)" fill="#f59d4e"/>
          <path id="Trazado_22020" data-name="Trazado 22020" d="M2840.8,573.77c13.835,4.506,18.552,33.4,9.083,29.3-12.717-5.511-14.061,19.115-15.772,7.828s3.089-10.752.943-21.571c-2.023-10.219-10.485-9.414-11.416-9.294-13.43,1.984-28.927-.092-32.215-6.3-1.142-2.143-.817-4.8,1.567-7.96,4.332-5.719,8.826-7.684,12.839-7.822h0c7.451-.257,13.241,5.78,13.241,5.78S2852.107,564.715,2840.8,573.77Z" transform="translate(-2672.096 -540.613)" fill="#72120c"/>
          <path id="Trazado_22021" data-name="Trazado 22021" d="M2933.271,653.434s5.391,11.052,8,13.761c0,0,2.669-1.007,3.352-.383s-12.286-16.483-12.286-16.483Z" transform="translate(-2770.315 -604.716)" fill="#530905"/>
          <path id="Trazado_22022" data-name="Trazado 22022" d="M2848,558.45s9.953,17.983,17.279,21.907l5.229,1.2-17.774-22.609Z" transform="translate(-2711.795 -540.965)" fill="#530905"/>
          <path id="Trazado_22023" data-name="Trazado 22023" d="M3002,751.469s.2,15.564,12.438,13.541c0,0-6.086-9.184-5.511-12.047S3002,751.469,3002,751.469Z" transform="translate(-2818.649 -674.666)" fill="#72120c"/>
          <path id="Trazado_22024" data-name="Trazado 22024" d="M3002.205,750.77s5.2,12.1,11.551,10.247l-2.036-3.5-9.377-10.577A6.873,6.873,0,0,0,3002.205,750.77Z" transform="translate(-2818.658 -671.75)" fill="#530905"/>
          <path id="Trazado_22025" data-name="Trazado 22025" d="M2896.079,539.876A55.6,55.6,0,0,1,2901,550.144c7.672,21.43-12.313,39.462-12.313,39.462-8.747-5.633-27.3-34.579-32.886-43.493-1.038-1.653-1.629-2.618-1.629-2.618-1.482-1.307-2.966-2.718-4.433-4.2-11.906-12.022-22.961-28.832-26.389-34.2a2.434,2.434,0,0,1,2.082-3.753c7.136.263,20.137,20.744,20.137,20.744l.254-.11C2867.446,512.452,2886.044,523.541,2896.079,539.876Z" transform="translate(-2694.427 -501.335)" fill="#034a66"/>
          <path id="Trazado_22026" data-name="Trazado 22026" d="M2906.214,584.92c22.654-10.822,40.273-6.233,40.273-6.233h0c-10.023-16.336-28.634-27.424-50.25-17.906-1.892,6.2.875,12.631,3.916,17.321A39.45,39.45,0,0,0,2906.214,584.92Z" transform="translate(-2744.835 -540.142)" fill="#fff"/>
          <path id="Trazado_22027" data-name="Trazado 22027" d="M2968.376,849.167s7.555-2.449,9.949-5.155-6.61,9.092-10.446,11.257Z" transform="translate(-2794.975 -738.826)" fill="#f59d4e"/>
          <path id="Trazado_22028" data-name="Trazado 22028" d="M2809.469,590.244a.389.389,0,0,1-.306.058c-.306-.055-7.378-1.411-8.676-5.639-.7-2.29.441-4.932,3.4-7.853a.4.4,0,0,1,.563.569c-2.731,2.694-3.806,5.064-3.2,7.041,1.155,3.763,7.988,5.076,8.058,5.088a.4.4,0,0,1,.147.729Z" transform="translate(-2678.688 -553.634)" fill="#fff"/>
          <path id="Trazado_22032" data-name="Trazado 22032" d="M2849.451,1076.36c-.612,21.736-1.94,36.59-1.94,36.59l-18.862-18.258-88.983-86.142s-1.1.285-2.915.729c-6.294,1.531-21.2,5.054-28.747,5.544,0,0-1.785-6.123-3.557-12.488-1.2-4.286-2.394-8.685-3.025-11.327-1.564-6.585-4.7-32.292-4.7-32.292s35.561-14.281,47.991-20.107c.545-.257,1.041-.493,1.488-.713a.6.6,0,0,0,.1-.049c.324-.159.612-.306.894-.45,1.576-.814,3.557-1.748,5.752-2.731,10.326-4.635,25.385-10.409,25.67-10.5-.067.285-3.716,15.454,32.886,0,0,0,1.613-1.185,5.018,5.085s25.97,21,30.988,74.616C2849.932,1029.734,2850.018,1056.057,2849.451,1076.36Z" transform="translate(-2606.828 -794.66)" fill="#fff"/>
          <path id="Trazado_22033" data-name="Trazado 22033" d="M2771.361,948.8s-.328,1.09-.885,3.009c-3.129,10.764-13.47,47.611-13.669,64.571a20.6,20.6,0,0,1-2.522,10.054c-6.294,1.531-21.2,5.054-28.747,5.544,0,0-1.785-6.123-3.557-12.487,0,0,21.43-5.933,27.776-25.446s12.488-38.292,12.488-38.292c.523-.236,1.019-.471,1.488-.713a.564.564,0,0,0,.1-.049C2769.7,951.981,2771.361,948.8,2771.361,948.8Z" transform="translate(-2624.355 -811.813)" fill="#aeb6b7" opacity="0.66"/>
          <path id="Trazado_22034" data-name="Trazado 22034" d="M2868.313,939.85s-6.671.8-11.373,13.5-18.494,52.656-11.756,57.839,31.487-21.194,39.186-39.342,36.287-28.52,36.287-28.52-3.413-6.123-17.19.147-25.376,28.373-25.376,28.373-15.362,31.193-21.317,29.154-8.465-5.015-5.486-13.951S2857.9,949.711,2868.313,939.85Z" transform="translate(-2708.578 -805.603)" fill="#aeb6b7"/>
          <path id="Trazado_22035" data-name="Trazado 22035" d="M3137,1272.755c-.612,21.736-1.941,36.59-1.941,36.59l-18.861-18.258c-5.275-25-6.061-53.513-4.022-58.081,0,0,10.58-24.687,13.635-25.863S3111.983,1269,3137,1272.755Z" transform="translate(-2894.375 -991.055)" fill="#aeb6b7" opacity="0.66"/>
          <path id="Trazado_22036" data-name="Trazado 22036" d="M2788.752,1098.37s-6.955,29.432-18.252,35.721l17.45-3.876Z" transform="translate(-2658.021 -915.593)" fill="#949a9b"/>
          <path id="Trazado_22037" data-name="Trazado 22037" d="M3115.216,1207.177s-11.049,21.868-9.64,39.266-2.3,36.235,20.245,41.865v12.215s-30,2.823-29.95-13.639,5.71-53.844,5.71-53.844S3112.4,1206.938,3115.216,1207.177Z" transform="translate(-2883.782 -991.089)" fill="#949a9b"/>
          <path id="Trazado_22038" data-name="Trazado 22038" d="M2944.712,1402.844s-43.729,21.16-47.491,3.763-23.98-84.189-23.98-84.189l-7.7,85.557-.765,8.492-47.963-2.351s-.235-2.789-.627-7.586c-2.217-27.023-9.435-117.7-7.834-132.078,1.09-9.833.612-80.267.205-143.274-.23-37.545-.429-72.454-.23-90.311.04-3.769.1-6.781.181-8.9,1.1-29,14.107-84.332,17.162-88.251s13.556-6.582,16.3-7.369,1.889.918,1.889.918c-7.908,4.846-11.53,18.041-15.919,35.13s-7.681,23.827,2.035,27.9,19.125-20.224,28.845-37.548,32.451-32.99,45.309-15.589,10.3,21.176,10.3,21.176-7.519-18.457-20.6-19.767c-6.545-.655-14.168,2.838-20.818,10.28a115.863,115.863,0,0,0-12.184,17.165c-13.684,22.783-24.889,52.013-24.889,52.013l7.755,5.364a102.026,102.026,0,0,0,38.684,16.283l15.469,2.988,4.074-7.681s1.176,35.975,2.823,47.026,27.271,12.7,29.151,12.227c.413-.1.943,1.916,1.531,5.4,2.082,12.31,4.9,42.884,5.994,62.315,1.409,24.923-7.525,114.741-7.525,114.741C2939.538,1318.2,2944.712,1402.844,2944.712,1402.844Z" transform="translate(-2684.124 -803.03)" fill="#034a66"/>
          <path id="Trazado_22039" data-name="Trazado 22039" d="M2935.746,1200.064c-29.741-.463-34.964-16.308-34.759-20.512.208-4.286-2.036-2.06-2.036-2.06-18.423,21.95-70.835,40.472-90.076,44.121-.23-37.545-.429-72.454-.23-90.312.784,2.792,3.956,10.966,11.542-3.41,5.9-11.177,27.179-41.862,40.955-61.421-13.685,22.783-24.889,52.013-24.889,52.013l7.755,5.363a101.939,101.939,0,0,0,31.5,14.6q3.561.961,7.195,1.662l15.469,2.988,4.075-7.681s.41,12.579,1.09,25.143h0c.466,8.685,1.059,17.361,1.733,21.88,1.644,11.049,27.271,12.7,29.151,12.227C2934.616,1194.559,2935.134,1196.58,2935.746,1200.064Z" transform="translate(-2684.432 -893.459)" fill="#002533"/>
          <path id="Trazado_22040" data-name="Trazado 22040" d="M2978.849,1316.79h0s-4.142-7.041-15.9,7.534-21.567,25.554-41.583,25.474c-13.274-.055,9.555-34.444,29.658-55.127q3.561.961,7.195,1.662l15.469,2.988,4.075-7.681S2978.17,1304.226,2978.849,1316.79Z" transform="translate(-2759.961 -1049.695)" fill="#001a24"/>
          <path id="Trazado_22041" data-name="Trazado 22041" d="M2612.783,1272.336s-14.677,25.673-26.215,38.972h0c-.64.735-1.267,1.433-1.883,2.085-11.756,12.463-98.378,32.031-103.6,32.757s-29.57,12.959-32.916,14.63-17.239,17.87-18.91,13.378,9.821-13.063,10.029-15.674-8.266,4.286-13.47,7.207-11.076,3.867-11.6,1.047,17.346-15.674,16.929-16.93-14.107,3.98-19.124,5.018-10.238,1.775-8.636-2.3,22.012-7.629,24.73-9.3-4.182-2.611-10.449-3.867-11.5.94-13.9-3.031,6.9-4.491,17.554-3.45a78.175,78.175,0,0,0,21.684-1.463s-10.657-10.188-10.972-13.164,5.015,2.192,12.224,3.916,14.422,8.624,25.943,7.917,79.232-44.2,83.227-48.435c2.8-2.966,6.218-15.439,8.015-22.627h0c.762-3.061,1.225-5.161,1.225-5.161C2581.909,1268.723,2612.783,1272.336,2612.783,1272.336Z" transform="translate(-2403.089 -1023.482)" fill="#f0a975"/>
          <path id="Trazado_22042" data-name="Trazado 22042" d="M2971.662,1272.349s-14.677,25.673-26.215,38.972h0c.092-.429,6.3-29.472,0-36.706-6.352-7.289-25.137-15.573-25.137-15.573h0c.762-3.061,1.224-5.162,1.224-5.162C2940.788,1268.737,2971.662,1272.349,2971.662,1272.349Z" transform="translate(-2761.968 -1023.495)" fill="#f59d4e"/>
          <path id="Trazado_22043" data-name="Trazado 22043" d="M2891.516,1827.531l-7.7,85.557c-15.595.021-49.356-1.445-49.356-1.445s14.844-39.774,18.98-64.36c11.832-70.62-6.392-156.808-6.882-178.2h0c-.11-4.959.729-6.429,3.12-3.426,0,0,16.455,51.845,23.037,89.935A474.125,474.125,0,0,0,2891.516,1827.531Z" transform="translate(-2702.401 -1308.131)" fill="#002533"/>
          <path id="Trazado_22044" data-name="Trazado 22044" d="M3157.883,2322.52s-14.419,33.811-38.243,37.573c0,0,.839,11.435,6.845,15.28s34.376-10.578,34.376-10.578Z" transform="translate(-2900.274 -1764.981)" fill="#002533"/>
          <path id="Trazado_22045" data-name="Trazado 22045" d="M2918.887,1827.526a474.983,474.983,0,0,1-18.812-71.943c-6.582-38.09-23.037-89.935-23.037-89.935-2.391-3.01-3.23-1.531-3.119,3.426h0s18.827,92.148,22.256,122.713c2.057,18.317,12.677,35.115,21.868,45.128" transform="translate(-2729.772 -1308.127)" fill="#001a24"/>
          <path id="Trazado_22046" data-name="Trazado 22046" d="M2822.616,2453.555s31.159,1.638,54.435,0a2.431,2.431,0,0,1,2.115,2.832c-.236,2.587-1.408,26.328-4.467,29.625s-47.739,5.877-52.084-1.644S2814.962,2447.907,2822.616,2453.555Z" transform="translate(-2691.002 -1855.398)" fill="#02384d"/>
          <path id="Trazado_22047" data-name="Trazado 22047" d="M3076.6,2425.005s30.9-4.286,53.449-10.314a2.432,2.432,0,0,1,2.615,2.379c.26,2.584,3.6,26.123,1.224,29.934s-45.765,14.817-51.453,8.266S3068.005,2420.906,3076.6,2425.005Z" transform="translate(-2867.911 -1828.932)" fill="#02384d"/>
          <g id="Grupo_21637" data-name="Grupo 21637" transform="translate(183.425 331.638)" style="mix-blend-mode: hard-light;isolation: isolate">
            <g id="Grupo_20932-2" data-name="Grupo 20932" transform="translate(35.94 35.77) rotate(173)">
              <path id="Unión_3-2" data-name="Unión 3" d="M24.845,1.377a7.967,7.967,0,0,0-.293,1.3c-.061.406-.105.856-.134,1.335a84.324,84.324,0,0,0-8.553-.406c-1.572,0-3.129.037-4.627.111-1.531.075-2.973.188-4.288.333-.027-.483-.071-.934-.131-1.343A8.089,8.089,0,0,0,6.528,1.4C6.227.469,5.787,0,5.221,0,4.6,0,4.066.575,3.618,1.709a15.3,15.3,0,0,0-.758,3.005c-.214.05-.421.1-.616.155a1.312,1.312,0,0,0-.671.5,2.457,2.457,0,0,0-.407.842,1.92,1.92,0,0,0-.066.68,1.056,1.056,0,0,0,.069.288.675.675,0,0,0,.145.225h0A7.935,7.935,0,0,0,.866,9.068a13.712,13.712,0,0,0-.172,1.748,11.612,11.612,0,0,0,.03,1.429,1.7,1.7,0,0,0,.158.711l.008.005,2.66,2.317.16.339-.413.476a.637.637,0,0,0-.363-.242,4.689,4.689,0,0,0-.9-.07,7.789,7.789,0,0,0-1.211.091,1.492,1.492,0,0,0-.778.278A.165.165,0,0,0,0,16.28a2.88,2.88,0,0,0,1,1.137,5.2,5.2,0,0,0,.877.568,1.968,1.968,0,0,0,.843.244.813.813,0,0,0,.224-.029.76.76,0,0,0,.366-.233,1.073,1.073,0,0,0,.213-.394,1.833,1.833,0,0,0,.015-.966l.539-.214,3.315,7.028a3.593,3.593,0,0,0,3.249,2.06H21.48a3.591,3.591,0,0,0,3.308-2.193l2.919-6.9.54.214a1.834,1.834,0,0,0,.015.966,1.074,1.074,0,0,0,.213.394.76.76,0,0,0,.366.233.815.815,0,0,0,.224.029,1.969,1.969,0,0,0,.844-.244,5.2,5.2,0,0,0,.877-.568,2.887,2.887,0,0,0,1-1.137.165.165,0,0,0-.049-.129,1.5,1.5,0,0,0-.778-.278,7.792,7.792,0,0,0-1.211-.091,4.689,4.689,0,0,0-.9.07.637.637,0,0,0-.362.241l-.438-.506.131-.309,2.61-2.042a.035.035,0,0,0,.018-.014h0a.178.178,0,0,0,.023-.089c.024-.127.049-.362.068-.629.032-.46.044-1,.034-1.514a15.762,15.762,0,0,0-.138-1.861,7.961,7.961,0,0,0-.424-1.76l.047.034a.738.738,0,0,0,.273-.427,1.331,1.331,0,0,0,0-.569,2.183,2.183,0,0,0-.162-.5,2.435,2.435,0,0,0-.275-.461,1.531,1.531,0,0,0-.769-.578c-.307-.083-.641-.164-.993-.24-.085-.516-.183-1.006-.293-1.457a11.163,11.163,0,0,0-.47-1.51C27.287.559,26.754,0,26.146,0,25.584,0,25.146.463,24.845,1.377ZM21.884,8.428a.666.666,0,1,1,.471.2A.663.663,0,0,1,21.884,8.428Zm-12.9,0a.666.666,0,1,1,.471.2A.663.663,0,0,1,8.986,8.428Zm18.256,3.551A6.9,6.9,0,0,1,26,11.394a7.647,7.647,0,0,1-1.066-.758,3.918,3.918,0,0,1-.7-.753l0,0,0-.008c-.009-.014-.017-.028-.024-.041h0l-.017-.031a1.19,1.19,0,0,1-.078-.159.609.609,0,0,1-.025-.079.52.52,0,0,1-.016-.13c0-.006,0-.013,0-.019v0a.171.171,0,0,1,0-.039.26.26,0,0,1,.078-.147.986.986,0,0,1,.321-.168c.038-.013.081-.026.118-.037h0a3.177,3.177,0,0,1,.364-.082l.059-.01h0l.071-.012c.184-.025.373-.042.564-.05l.105,0h.05c.1,0,.194-.005.29-.005l.175,0c.078,0,.154,0,.239.007.146.006.281.014.413.024L27,8.891H27l.126.009c.163.016.327.035.486.058l.006,0a3.207,3.207,0,0,1,.991.259,2.806,2.806,0,0,1,.8.786,2.424,2.424,0,0,1,.459,1.088.992.992,0,0,1-.035.4.735.735,0,0,1-.214.329,1.664,1.664,0,0,1-1.145.389A3.8,3.8,0,0,1,27.243,11.979Zm-24.434.2a1.521,1.521,0,0,1-.755-.355.734.734,0,0,1-.214-.329.994.994,0,0,1-.035-.4,2.426,2.426,0,0,1,.459-1.088,2.8,2.8,0,0,1,.8-.786,3.194,3.194,0,0,1,.99-.259l.005,0c.161-.023.324-.042.486-.058l.126-.009h.006l.082-.006c.131-.01.266-.018.414-.024.085,0,.162-.006.238-.007l.175,0c.1,0,.194,0,.29.005h.049l.106,0c.19.008.38.025.565.05l.063.01h.006l.061.01a3.112,3.112,0,0,1,.365.082h0c.036.01.08.023.12.037a.98.98,0,0,1,.32.168.261.261,0,0,1,.078.147.208.208,0,0,1,0,.049h0s0,0,0,0v0a.434.434,0,0,1-.016.13.58.58,0,0,1-.024.079,1.173,1.173,0,0,1-.079.159c-.007.012-.013.023-.019.034h0c-.007.013-.014.027-.024.042l0,.008-.006,0a3.909,3.909,0,0,1-.7.753,7.642,7.642,0,0,1-1.066.758,6.9,6.9,0,0,1-1.241.585L4.363,12C3.776,12.055,3.253,12.116,2.809,12.181Zm19.291-.34c-1.781-.082-3.692-.137-5.678-.162a2.548,2.548,0,0,1-.131-.6A4.417,4.417,0,0,1,16.34,9.8a1.855,1.855,0,0,1,.163-.5.478.478,0,0,1,.255-.254A1.5,1.5,0,0,1,17.2,9a6.784,6.784,0,0,1,1.32.173c.486.1,1.024.248,1.554.418a12.982,12.982,0,0,1,1.362.513,2.228,2.228,0,0,1,.743.458.92.92,0,0,1,.154.371,1.349,1.349,0,0,1,.014.451.884.884,0,0,1-.077.261.5.5,0,0,1-.153.189Zm-12.552-.2a.884.884,0,0,1-.077-.261,1.349,1.349,0,0,1,.014-.451.922.922,0,0,1,.154-.371,2.227,2.227,0,0,1,.743-.458,12.988,12.988,0,0,1,1.362-.513c.53-.17,1.068-.315,1.554-.418A6.777,6.777,0,0,1,14.617,9a1.5,1.5,0,0,1,.437.052.479.479,0,0,1,.255.254,1.852,1.852,0,0,1,.163.5,4.414,4.414,0,0,1,.049,1.273,2.581,2.581,0,0,1-.127.6c-.455,0-.913,0-1.36,0-1.549,0-3.044.019-4.441.057A.6.6,0,0,1,9.547,11.643ZM26.592,15.9l-2.953,6.964a3.128,3.128,0,0,1-2.881,1.907H11.312a3.13,3.13,0,0,1-2.829-1.792L5.138,15.9c1.853.142,3.544.243,5.171.309,1.554.063,3.056.093,4.591.093C18.451,16.307,21.835,16.148,26.592,15.9Z" transform="translate(0 0)" fill="#fff"/>
              <g id="star_3_2" data-name="star (3)" transform="translate(4.428 17.956)">
                <path id="Trazado_1268-2" data-name="Trazado 1268" d="M5.341,8.628a.647.647,0,0,1,.484-.541l2.93-.733a.136.136,0,0,0,0-.263L5.823,6.358a.645.645,0,0,1-.482-.54L4.564.118a.136.136,0,0,0-.269,0l-.777,5.7a.645.645,0,0,1-.483.54L.1,7.091a.136.136,0,0,0,0,.263l2.933.734a.645.645,0,0,1,.482.54l.777,5.7a.136.136,0,0,0,.269,0Z" transform="translate(0 0)" fill="#ffc850" stroke="rgba(0,0,0,0)" stroke-miterlimit="10" stroke-width="1"/>
                <g id="Grupo_805-2" data-name="Grupo 805" transform="translate(9.524 1.665)">
                  <path id="Trazado_1270-2" data-name="Trazado 1270" d="M3.005,4.025a.34.34,0,0,0-.258.281L2.362,7.065a.1.1,0,0,1-.2,0L1.775,4.306a.338.338,0,0,0-.257-.281L.078,3.674a.1.1,0,0,1,0-.2l1.44-.351a.339.339,0,0,0,.257-.281L2.16.088a.1.1,0,0,1,.2,0l.385,2.757A.339.339,0,0,0,3,3.125l1.44.351a.1.1,0,0,1,0,.2Z" transform="translate(0 0)" fill="#fff082"/>
                </g>
                <path id="Trazado_1271-2" data-name="Trazado 1271" d="M4.564.118l.684,5.022A29.557,29.557,0,0,0,3.612,9.32l-.094-.691a.645.645,0,0,0-.482-.54L.1,7.354a.135.135,0,0,1,0-.263l2.933-.734a.645.645,0,0,0,.483-.54l.777-5.7A.136.136,0,0,1,4.564.118Z" transform="translate(0 0)" fill="#f0ad19" stroke="rgba(0,0,0,0)" stroke-miterlimit="10" stroke-width="1"/>
                <g id="Grupo_803-2" data-name="Grupo 803" transform="translate(6.618 8.98)">
                  <path id="Trazado_1269-2" data-name="Trazado 1269" d="M3.832,5.1a.421.421,0,0,0-.323.346L3,9.015a.1.1,0,0,1-.2,0L2.295,5.446A.419.419,0,0,0,1.973,5.1L.078,4.645a.1.1,0,0,1,0-.2l1.895-.455a.419.419,0,0,0,.322-.346L2.8.089a.1.1,0,0,1,.2,0L3.51,3.647a.419.419,0,0,0,.322.346l1.894.455a.1.1,0,0,1,0,.2Z" transform="translate(0 0)" fill="#ffdc64" stroke="rgba(0,0,0,0)" stroke-miterlimit="10" stroke-width="1"/>
                  <path id="Trazado_1272-2" data-name="Trazado 1272" d="M2.34,5.767l-.046-.32A.419.419,0,0,0,1.973,5.1l-1.9-.455a.1.1,0,0,1,0-.2l1.895-.455a.419.419,0,0,0,.322-.346L2.8.089a.1.1,0,0,1,.2,0l.452,3.184A7.886,7.886,0,0,0,2.34,5.767Z" transform="translate(0 0)" fill="#ffc850" stroke="rgba(0,0,0,0)" stroke-miterlimit="10" stroke-width="1"/>
                </g>
                <path id="Trazado_1273-2" data-name="Trazado 1273" d="M1.775,2.844,2.16.088a.1.1,0,0,1,.2,0l.361,2.583A4.243,4.243,0,0,0,1.8,4.481l-.025-.175a.338.338,0,0,0-.257-.281L.078,3.674a.1.1,0,0,1,0-.2l1.44-.351A.338.338,0,0,0,1.775,2.844Z" transform="translate(9.525 1.665)" fill="#ffdc64" stroke="rgba(0,0,0,0)" stroke-miterlimit="10" stroke-width="1"/>
              </g>
            </g>
          </g>
        </g>
        <g id="Grupo_21595" data-name="Grupo 21595" transform="translate(0 18.488)">
          <path id="Trazado_22060" data-name="Trazado 22060" d="M152.024,0l2.215,3.775L117.22,82.5,1.97,29.85,0,24.651Z" transform="matrix(0.602, 0.799, -0.799, 0.602, 65.888, 32.246)" fill="#2fb6d6"/>
          <path id="Trazado_22061" data-name="Trazado 22061" d="M0,78.158,36.066,0,76.8,18.8l14.415,6.648L152.021,53.5l-36.063,78.164L38.692,96.012l-14.38-6.635Z" transform="matrix(0.602, 0.799, -0.799, 0.602, 108.947, 0)" fill="#40cced"/>
          <g id="Grupo_21649" data-name="Grupo 21649" transform="matrix(-0.978, 0.208, -0.208, -0.978, 138.816, 133.91)">
            <path id="Trazado_400" data-name="Trazado 400" d="M28.916,80.963C12.973,80.963,0,68.556,0,53.312c0-7.26,3.309-16.914,9.835-28.7A212.042,212.042,0,0,1,24.293,2.346a5.738,5.738,0,0,1,9.257,0A212.921,212.921,0,0,1,48.008,24.616c6.515,11.778,9.824,21.432,9.824,28.7C57.833,68.556,44.86,80.963,28.916,80.963Z" transform="translate(0 0)" fill="#034a66"/>
            <path id="Trazado_406" data-name="Trazado 406" d="M19.861,39.72A19.86,19.86,0,1,0,0,19.86,19.86,19.86,0,0,0,19.861,39.72Z" transform="translate(8.979 33.718)" fill="#fff"/>
            <g id="star_3_3" data-name="star (3)" transform="translate(15.61 40.836)">
              <path id="Trazado_1268-3" data-name="Trazado 1268" d="M7.752,12.513a.939.939,0,0,1,.7-.784l4.252-1.063a.2.2,0,0,0,0-.382L8.452,9.22a.936.936,0,0,1-.7-.784L6.625.171a.2.2,0,0,0-.391,0L5.107,8.437a.936.936,0,0,1-.7.784L.149,10.284a.2.2,0,0,0,0,.381L4.406,11.73a.935.935,0,0,1,.7.783L6.234,20.78a.2.2,0,0,0,.391,0Z" transform="translate(0 0.344)" fill="#034a66"/>
              <path id="Trazado_1269-3" data-name="Trazado 1269" d="M5.562,7.4a.61.61,0,0,0-.469.5l-.735,5.176a.148.148,0,0,1-.293,0L3.33,7.9a.608.608,0,0,0-.467-.5L.113,6.737a.147.147,0,0,1,0-.286l2.75-.66a.608.608,0,0,0,.467-.5L4.063.129a.15.15,0,0,1,.3,0l.733,5.16a.608.608,0,0,0,.467.5l2.748.66a.148.148,0,0,1,0,.288Z" transform="translate(11.607 14.084)" fill="#034a66"/>
              <path id="Trazado_1270-3" data-name="Trazado 1270" d="M4.362,5.837a.492.492,0,0,0-.375.407l-.56,4a.147.147,0,0,1-.292,0l-.56-4A.491.491,0,0,0,2.2,5.837l-2.09-.51a.147.147,0,0,1,0-.286l2.09-.51a.49.49,0,0,0,.374-.407l.56-4a.148.148,0,0,1,.292,0l.559,4a.491.491,0,0,0,.373.407l2.09.51a.147.147,0,0,1,0,.287Z" transform="translate(17.233 0)" fill="#034a66"/>
              <path id="Trazado_1271-3" data-name="Trazado 1271" d="M6.625.171l.993,7.283a42.849,42.849,0,0,0-2.374,6.063l-.137-1a.936.936,0,0,0-.7-.783L.149,10.666a.2.2,0,0,1,0-.382L4.406,9.22a.936.936,0,0,0,.7-.783L6.234.171A.2.2,0,0,1,6.625.171Z" transform="translate(0 0.344)" fill="#045677"/>
              <path id="Trazado_1272-3" data-name="Trazado 1272" d="M3.4,8.363,3.33,7.9a.608.608,0,0,0-.467-.5L.113,6.737a.147.147,0,0,1,0-.286l2.751-.66a.608.608,0,0,0,.467-.5L4.063.129a.15.15,0,0,1,.3,0l.656,4.618A11.432,11.432,0,0,0,3.4,8.363Z" transform="translate(11.607 14.084)" fill="#045677"/>
              <path id="Trazado_1273-3" data-name="Trazado 1273" d="M2.577,4.125l.559-4a.148.148,0,0,1,.293,0l.524,3.746A6.148,6.148,0,0,0,2.612,6.5l-.036-.254A.492.492,0,0,0,2.2,5.837L.113,5.328a.147.147,0,0,1,0-.286L2.2,4.532A.491.491,0,0,0,2.577,4.125Z" transform="translate(17.233 0)" fill="#045677"/>
            </g>
          </g>
        </g>
      </g>
    </g>
  </g>
</svg>
