<svg xmlns="http://www.w3.org/2000/svg" width="23.251" height="32.55" viewBox="0 0 23.251 32.55"><defs><style>.a{fill:#40cced;}.b{fill:#fff;}.c{fill:#53d1ef;}</style></defs><g transform="translate(-96 -22)"><g transform="translate(0 -10)"><path class="a" d="M107.625,32A11.393,11.393,0,0,0,96,43.117c0,2.919,1.33,6.8,3.954,11.537a85.247,85.247,0,0,0,5.813,8.953,2.307,2.307,0,0,0,3.722,0,85.6,85.6,0,0,0,5.813-8.953c2.619-4.735,3.95-8.617,3.95-11.537A11.393,11.393,0,0,0,107.625,32Z"/><path class="b" d="M7.985,0A7.984,7.984,0,1,1,0,7.984,7.985,7.985,0,0,1,7.985,0Z" transform="translate(99.61 35.025)"/><g transform="translate(102.276 37.163)"><path class="c" d="M35.867,115.816a.377.377,0,0,0,.282.315l1.71.427a.079.079,0,0,1,0,.154l-1.711.428a.376.376,0,0,0-.282.315l-.453,3.323a.079.079,0,0,1-.157,0l-.453-3.323a.376.376,0,0,0-.282-.315l-1.711-.428a.079.079,0,0,1,0-.153l1.711-.428a.376.376,0,0,0,.281-.315l.453-3.323a.079.079,0,0,1,.157,0Z" transform="translate(-32.75 -110.015)"/><path class="c" d="M252.783,2.334a.245.245,0,0,1-.188-.2L252.3.051a.06.06,0,0,0-.118,0l-.3,2.081a.244.244,0,0,1-.188.2l-1.106.265a.059.059,0,0,0,0,.115l1.106.265a.245.245,0,0,1,.188.2l.295,2.075a.06.06,0,0,0,.12,0l.295-2.075a.245.245,0,0,1,.188-.2l1.1-.265a.059.059,0,0,0,0-.116Z" transform="translate(-245.88 0)"/><path class="c" d="M357.854,319.21a.2.2,0,0,1-.151-.164l-.225-1.608a.059.059,0,0,0-.117,0l-.225,1.607a.2.2,0,0,1-.15.164l-.84.2a.059.059,0,0,0,0,.115l.84.2a.2.2,0,0,1,.15.164l.225,1.607a.059.059,0,0,0,.118,0l.225-1.607a.2.2,0,0,1,.15-.164l.84-.2a.059.059,0,0,0,0-.115Z" transform="translate(-349.172 -310.587)"/><path class="c" d="M35.416,257.3l.4-2.928a17.227,17.227,0,0,1-.955-2.437l-.055.4a.376.376,0,0,1-.282.315l-1.711.428a.079.079,0,0,0,0,.153l1.711.428a.376.376,0,0,1,.282.315l.453,3.323A.079.079,0,0,0,35.416,257.3Z" transform="translate(-32.752 -246.535)"/><path class="c" d="M251.912,90.783l-.027.187a.244.244,0,0,1-.188.2l-1.106.265a.059.059,0,0,0,0,.115l1.106.265a.245.245,0,0,1,.188.2l.295,2.075a.06.06,0,0,0,.12,0l.264-1.857A4.6,4.6,0,0,1,251.912,90.783Z" transform="translate(-245.88 -88.838)"/><path class="c" d="M357.138,391.011l.225,1.607a.059.059,0,0,0,.118,0l.211-1.506a2.472,2.472,0,0,1-.539-1.055l-.014.1a.2.2,0,0,1-.15.164l-.84.2a.059.059,0,0,0,0,.115l.84.2A.2.2,0,0,1,357.138,391.011Z" transform="translate(-349.174 -381.7)"/></g></g></g></svg>
