<svg width="200" height="50" viewBox="0 0 200 50" fill="none" xmlns="http://www.w3.org/2000/svg">
<path fill-rule="evenodd" clip-rule="evenodd" d="M120.099 14.4435H126.648C131.145 14.4435 133.078 16.5531 133.078 20.8524V21.8476C133.078 24.7129 132.21 26.5443 130.277 27.4598C132.605 28.3754 133.512 30.485 133.512 33.4305V35.6985C133.512 39.9973 131.263 42.306 126.924 42.306H120.099V14.4435ZM129.172 33.151C129.172 30.5638 128.345 29.7678 126.371 29.7678H124.439V38.326H126.924C128.383 38.326 129.172 37.6489 129.172 35.5791V33.151ZM128.737 21.2896C128.737 19.2995 128.067 18.4238 126.528 18.4238H124.438V25.7875H126.133C127.751 25.7875 128.737 25.071 128.737 22.842V21.2896ZM149.133 38.9225C149.133 40.2758 149.174 41.2707 149.607 42.3057L145.189 42.3055L145.177 42.2692C144.947 41.5736 144.795 41.112 144.795 38.8824V34.5045C144.795 31.9174 143.927 30.962 141.954 30.962H140.455V42.306H136.116V14.443H142.663C147.16 14.443 149.093 16.5526 149.093 20.8514V23.0406C149.093 25.9065 148.186 27.7771 146.253 28.6927C148.423 29.6085 149.133 31.7178 149.133 34.6235V38.9225ZM144.756 21.2896C144.756 19.2995 144.085 18.4238 142.546 18.4238H140.455V26.982H142.152C143.769 26.982 144.756 26.2656 144.756 24.0365V21.2896ZM156.315 42.3057H151.975V14.4435H156.315V42.3057ZM170.951 42.3057H159.471V14.4435H163.81V38.3255H170.951V42.3057ZM184.325 42.3057H172.845V14.4435H177.183V38.3255H184.325V42.3057ZM192.452 18.1047C191.072 18.1047 190.204 18.8608 190.204 20.8516V35.8966C190.204 37.8875 191.072 38.6435 192.452 38.6435C193.832 38.6435 194.7 37.8875 194.7 35.8966V20.8516C194.7 18.8608 193.832 18.1047 192.452 18.1047ZM192.453 42.6253C188.192 42.6253 185.865 40.0775 185.865 35.6194V21.1306C185.865 16.6721 188.192 14.1248 192.453 14.1248C196.714 14.1248 199.042 16.6726 199.042 21.1306V35.6194C199.042 40.078 196.714 42.6253 192.453 42.6253ZM55 42.3794V14.5172H61.0359C65.3763 14.5172 67.2305 17.1043 67.2305 21.3234V24.6668C67.2305 29.0851 65.179 31.3937 60.7999 31.3937H58.0773V42.3794H55ZM58.0773 17.3432V28.6075H60.7994C63.0876 28.6075 64.1921 27.5327 64.1921 24.8659V21.1644C64.1921 18.6169 63.2839 17.3432 61.0359 17.3432H58.0773ZM69.6363 14.5172H72.6741L72.6744 35.812C72.6744 38.32 73.6613 39.832 75.9093 39.832C78.1183 39.832 79.1047 38.3195 79.1047 35.812V14.5172H81.9852V35.6527C81.9852 39.8719 80.0514 42.6979 75.7906 42.6979C71.5694 42.6979 69.6363 39.8719 69.6363 35.6527V14.5172ZM85.0222 42.3794V14.5172L91.1758 14.5177C95.5155 14.5177 97.3301 16.7467 97.3301 20.8862V23.1543C97.3301 26.2192 96.2651 28.13 93.8979 28.886C96.4229 29.6423 97.3698 31.712 97.3698 34.6973V39.0359C97.3698 40.2698 97.4093 41.424 97.9221 42.3794H94.8061C94.4512 41.5833 94.2933 40.8668 94.2933 38.9961V34.6177C94.2933 31.4734 92.8336 30.4782 90.2694 30.4782H88.0995V42.3794H85.0222ZM88.0995 17.3432V27.6524H90.3868C92.8326 27.6524 94.2923 26.8553 94.2923 23.8312V21.1644C94.2923 18.6567 93.3851 17.3432 91.0969 17.3432H88.0995ZM106.642 42.6588C102.42 42.6588 100.329 39.8721 100.329 35.653V21.2438C100.329 16.9848 102.42 14.2379 106.642 14.2379C110.902 14.2379 112.993 16.9848 112.993 21.2438V35.653C112.993 39.8726 110.902 42.6588 106.642 42.6588ZM106.642 17.0645C104.432 17.0645 103.367 18.577 103.367 21.0845V35.812C103.367 38.3593 104.432 39.832 106.642 39.832C108.89 39.832 109.916 38.3593 109.916 35.812V21.0845C109.916 18.5765 108.89 17.0645 106.642 17.0645Z" fill="black"/>
<path d="M33.357 46.9562C33.1774 46.381 33.0459 45.7916 32.9638 45.1942C32.8826 44.6436 32.8221 44.0351 32.7844 43.3853C28.9683 43.7646 25.1355 43.948 21.3009 43.9349C19.1905 43.9349 17.1005 43.8842 15.0888 43.7843C13.0336 43.6823 11.0967 43.5303 9.33208 43.3326C9.29541 43.9865 9.23609 44.5983 9.15595 45.1513C9.07473 45.7545 8.94382 46.3498 8.7646 46.931C8.35996 48.1852 7.76953 48.8209 7.00931 48.8209C6.18238 48.8209 5.45808 48.042 4.85648 46.5063C4.33986 45.187 4.01778 43.5642 3.83863 42.4351C3.55187 42.3672 3.2728 42.2964 3.01185 42.2248C2.64684 42.1056 2.33041 41.8694 2.11066 41.5521C1.85763 41.2106 1.672 40.8231 1.56385 40.4109C1.47978 40.1116 1.44962 39.7995 1.47481 39.4894C1.48717 39.3558 1.51812 39.2246 1.56672 39.0997C1.61075 38.9861 1.67684 38.8826 1.76112 38.7951L1.76232 38.7961C1.48124 38.0676 1.27976 37.3103 1.16148 36.5377C1.03459 35.7542 0.95761 34.9634 0.931015 34.17C0.904988 33.5245 0.918396 32.878 0.971161 32.2342C1.01885 31.7197 1.09598 31.3689 1.18246 31.2717C1.18562 31.2685 1.18951 31.2662 1.19378 31.2649L4.76638 28.126L4.98145 27.6663L4.42755 27.0211C4.30839 27.1845 4.13602 27.3004 3.94066 27.3483C3.54282 27.4187 3.13919 27.4503 2.73535 27.4426C2.19117 27.4442 1.64769 27.403 1.10986 27.3193C0.566525 27.2279 0.205054 27.0978 0.0655972 26.9422C0.0429523 26.9196 0.0254153 26.8924 0.0141877 26.8623C0.00296001 26.8322 -0.00169296 26.8001 0.000547518 26.768C0.0290728 26.476 0.605162 25.8142 1.34048 25.2285C1.70653 24.9326 2.10119 24.6747 2.51847 24.4586C2.86636 24.2641 3.2533 24.1513 3.65042 24.1286C3.75183 24.1278 3.85287 24.1411 3.95062 24.1684C4.14142 24.2232 4.31224 24.333 4.44219 24.4842C4.57353 24.6396 4.67094 24.8212 4.72804 25.0172C4.85065 25.4435 4.85774 25.8952 4.74857 26.3252L5.47302 26.6145L9.92342 17.0941C10.3135 16.2596 10.9306 15.5541 11.7029 15.0599C12.4752 14.5657 13.3708 14.3032 14.2854 14.3029H28.8393C29.787 14.3029 30.7138 14.5847 31.5037 15.1131C32.2936 15.6415 32.9116 16.393 33.2805 17.2738L37.1996 26.6151L37.9241 26.3258C37.8149 25.8958 37.8219 25.4441 37.9444 25.0178C38.0016 24.8218 38.099 24.6402 38.2303 24.4848C38.3602 24.3336 38.5311 24.2238 38.7219 24.169C38.8197 24.1417 38.9209 24.1284 39.0224 24.1292C39.4197 24.1518 39.8069 24.2646 40.1551 24.4592C40.5724 24.6753 40.9671 24.9332 41.3332 25.2291C42.0682 25.8146 42.6446 26.4764 42.6737 26.7686C42.6759 26.8005 42.6712 26.8324 42.66 26.8623C42.6489 26.8921 42.6315 26.9192 42.6092 26.9418C42.4694 27.0975 42.1081 27.2279 41.5641 27.3188C41.0262 27.4025 40.4826 27.4438 39.9383 27.4421C39.5345 27.4498 39.1309 27.4182 38.733 27.3479C38.5378 27.3 38.3654 27.1842 38.2463 27.0209L37.6577 27.7062L37.8335 28.1254L41.3383 30.8927C41.3481 30.896 41.3565 30.9026 41.3622 30.9113V30.912V30.9128C41.3825 30.9495 41.3929 30.9909 41.3924 31.0329C41.4245 31.2052 41.4585 31.524 41.4829 31.8857C41.5252 32.51 41.5413 33.2376 41.5282 33.9365C41.516 34.7797 41.4542 35.6213 41.3433 36.4571C41.2439 37.271 41.0528 38.0708 40.7737 38.841C40.7952 38.8265 40.816 38.8117 40.8373 38.7953C41.0234 38.9384 41.1533 39.1434 41.204 39.3739C41.2599 39.6276 41.2607 39.8904 41.2064 40.1445C41.1611 40.3767 41.0883 40.6025 40.9895 40.8172C40.8895 41.0384 40.7656 41.2478 40.6199 41.4415C40.3684 41.8078 40.0065 42.0826 39.588 42.2251C39.1765 42.3378 38.7277 42.4472 38.255 42.5501C38.1415 43.2493 38.0093 43.9136 37.8626 44.5242C37.7005 45.2201 37.4897 45.9036 37.2318 46.5694C36.6351 48.0637 35.9187 48.8214 35.1037 48.8214C34.3493 48.8211 33.7618 48.1936 33.357 46.9562ZM29.3817 37.4043C29.2355 37.5519 29.1445 37.7461 29.1243 37.9539C29.1041 38.1616 29.1559 38.37 29.2709 38.5435C29.3859 38.717 29.5569 38.8449 29.7549 38.9054C29.9529 38.966 30.1656 38.9554 30.3567 38.8755C30.5478 38.7956 30.7055 38.6513 30.803 38.4672C30.9005 38.2831 30.9317 38.0706 30.8913 37.8659C30.851 37.6612 30.7415 37.4769 30.5815 37.3445C30.4216 37.2121 30.2211 37.1398 30.0143 37.1398C29.8967 37.1396 29.7803 37.1628 29.6718 37.2082C29.5632 37.2536 29.4646 37.3202 29.3817 37.4043ZM12.0649 37.4043C11.9187 37.5519 11.8278 37.7461 11.8076 37.9538C11.7874 38.1615 11.8392 38.3698 11.9542 38.5433C12.0692 38.7167 12.2402 38.8446 12.4381 38.9051C12.6361 38.9657 12.8487 38.9551 13.0398 38.8752C13.2308 38.7953 13.3885 38.651 13.486 38.467C13.5835 38.2829 13.6147 38.0704 13.5743 37.8658C13.534 37.6611 13.4245 37.4769 13.2646 37.3445C13.1047 37.2121 12.9043 37.1398 12.6975 37.1398C12.5799 37.1395 12.4635 37.1628 12.355 37.2082C12.2464 37.2536 12.1478 37.3202 12.0649 37.4043ZM36.5767 32.5933C35.9966 32.801 35.4384 33.0665 34.9105 33.3859C34.4051 33.6863 33.9261 34.0298 33.4788 34.4127C33.1207 34.7093 32.803 35.0523 32.534 35.4329L32.5281 35.4389L32.5222 35.4494C32.5097 35.469 32.4999 35.4873 32.4902 35.5049V35.5065L32.4893 35.5081L32.4883 35.5101V35.5115C32.4806 35.5258 32.4732 35.5394 32.4649 35.5532C32.4249 35.6222 32.39 35.6941 32.3606 35.7684C32.3469 35.8031 32.3356 35.8387 32.3268 35.875C32.312 35.9327 32.3046 35.992 32.3047 36.0516C32.3047 36.0601 32.3047 36.069 32.3047 36.0769V36.0793C32.3041 36.0969 32.3054 36.1146 32.3087 36.1319C32.321 36.2078 32.3577 36.2776 32.4131 36.3306C32.5415 36.4324 32.6875 36.5094 32.8437 36.5576C32.8941 36.5756 32.9518 36.5925 33.0028 36.6073H33.0049C33.1657 36.654 33.3291 36.6912 33.4942 36.7186C33.5203 36.7225 33.5446 36.7268 33.5737 36.7321H33.5749C33.6051 36.7376 33.637 36.7432 33.6706 36.7474C33.9169 36.7813 34.1717 36.8042 34.4275 36.8156C34.4761 36.8177 34.5276 36.8183 34.5689 36.8189H34.5991H34.6364C34.7655 36.8235 34.8965 36.8258 35.0258 36.8258C35.104 36.8258 35.1831 36.825 35.2609 36.8233C35.3666 36.8218 35.4679 36.8191 35.5814 36.8145C35.7776 36.8067 35.9587 36.7961 36.1354 36.7818C36.1744 36.7789 36.2127 36.7763 36.2456 36.7742H36.247H36.253C36.3085 36.7705 36.366 36.7667 36.422 36.7615C36.6412 36.7402 36.8606 36.7137 37.0745 36.6829L37.0819 36.6785C37.7241 36.5826 38.1837 36.4615 38.4119 36.3283C38.836 36.0492 39.2001 35.6867 39.4822 35.2624C39.8048 34.8298 40.0163 34.3235 40.098 33.7885C40.1195 33.6059 40.1036 33.4207 40.0512 33.2446C39.9975 33.0725 39.8983 32.9185 39.7645 32.7989C39.3354 32.4351 38.7865 32.2473 38.2267 32.2726C37.6629 32.2867 37.1054 32.3951 36.5767 32.5933ZM3.77026 32.3207C3.39433 32.3825 3.04303 32.5491 2.75603 32.8018C2.62209 32.9215 2.52296 33.0757 2.46927 33.2479C2.41706 33.4243 2.40124 33.6095 2.42278 33.7923C2.50476 34.3271 2.71638 34.8333 3.03887 35.2657C3.32141 35.6898 3.68589 36.0519 4.11045 36.3304C4.33684 36.4634 4.79566 36.5844 5.43861 36.6807L5.44586 36.6851C5.66153 36.7155 5.88113 36.7423 6.09847 36.7637C6.15446 36.7688 6.21196 36.7726 6.2675 36.7763H6.27354H6.27505C6.31882 36.7792 6.35383 36.7815 6.38508 36.7839C6.56091 36.7981 6.74262 36.8087 6.94064 36.8166C7.05444 36.8212 7.15873 36.8241 7.25955 36.8255C7.33728 36.8271 7.41636 36.8279 7.49454 36.8279C7.62389 36.8279 7.75489 36.8256 7.88409 36.8211L7.94989 36.82C7.99155 36.82 8.04301 36.8188 8.09222 36.8166C8.34713 36.8052 8.60235 36.7822 8.85063 36.7484C8.88081 36.7442 8.90828 36.7391 8.9353 36.7343H8.93726L8.94284 36.7332C8.9685 36.7285 8.99597 36.7234 9.02495 36.7192C9.19016 36.692 9.35361 36.6548 9.5144 36.6079H9.51622C9.56421 36.5939 9.62413 36.5763 9.67741 36.5579C9.83319 36.5097 9.97874 36.4327 10.1066 36.3309C10.162 36.2779 10.1987 36.2081 10.2111 36.1322C10.2152 36.1104 10.2167 36.0883 10.2156 36.0662V36.0646C10.2156 36.0626 10.2156 36.0604 10.2156 36.0585V36.0521C10.2172 35.9924 10.2097 35.9328 10.1934 35.8754C10.1852 35.8392 10.1744 35.8036 10.1611 35.7688C10.1313 35.6945 10.096 35.6226 10.0555 35.5537C10.046 35.5384 10.038 35.5232 10.0306 35.508V35.5071C10.0212 35.489 10.0114 35.4702 9.99903 35.4506L9.99315 35.4401L9.98575 35.4341C9.71702 35.0535 9.39953 34.7104 9.04155 34.4139C8.59429 34.0309 8.1153 33.6873 7.60985 33.387C7.08185 33.0678 6.52362 32.8025 5.94346 32.5951C5.91599 32.5855 5.88807 32.5759 5.85804 32.5659C5.06854 32.4907 4.36642 32.4084 3.77026 32.3209V32.3207ZM29.6717 32.7809C27.2798 32.8927 24.7149 32.9665 22.0482 33.0003C21.957 33.2646 21.898 33.539 21.8725 33.8176C21.8117 34.3932 21.834 34.9747 21.9387 35.5439C21.9798 35.7774 22.0533 36.0039 22.1573 36.2165C22.2226 36.3718 22.3454 36.4953 22.4996 36.5607C22.6908 36.6132 22.8886 36.637 23.0867 36.6312C23.6837 36.612 24.2774 36.5336 24.8592 36.3971C25.5124 36.257 26.234 36.0612 26.9459 35.8308C27.5679 35.6338 28.1785 35.4018 28.7747 35.1358C29.3029 34.8937 29.6484 34.679 29.7729 34.5158C29.8775 34.3656 29.9479 34.194 29.9791 34.0133C30.0193 33.8122 30.0256 33.6057 29.9978 33.4025C29.9815 33.2798 29.9465 33.1603 29.894 33.0484C29.8475 32.9472 29.7768 32.8592 29.6883 32.7923C29.6819 32.7882 29.6765 32.7844 29.6717 32.7809ZM12.8182 33.048C12.7656 33.1598 12.7305 33.2792 12.7142 33.4019C12.6864 33.6051 12.6926 33.8117 12.7328 34.0128C12.7641 34.1936 12.8346 34.3651 12.9391 34.5153C13.0636 34.6787 13.4088 34.8931 13.9373 35.1354C14.5336 35.4014 15.1441 35.6335 15.7661 35.8305C16.4782 36.0611 17.1999 36.2569 17.853 36.3968C18.4347 36.5333 19.0284 36.6117 19.6253 36.6309C19.8235 36.6367 20.0213 36.6129 20.2126 36.5604C20.3667 36.4951 20.4895 36.3718 20.555 36.2167C20.6591 36.0043 20.7327 35.7781 20.7739 35.5448C20.8786 34.9761 20.901 34.3951 20.8403 33.8199C20.815 33.5453 20.7576 33.2748 20.6693 33.0139C20.0585 33.0183 19.4439 33.0206 18.8431 33.0206C16.7628 33.0206 14.7566 32.9944 12.8799 32.9428C12.8568 32.9762 12.8361 33.0114 12.8182 33.048ZM35.7026 27.2752L31.7374 17.8418C31.4154 17.0755 30.8768 16.4219 30.1889 15.9625C29.501 15.5031 28.6942 15.2583 27.8693 15.2586H15.1876C14.3915 15.2587 13.6118 15.4869 12.9393 15.9167C12.2667 16.3465 11.729 16.9602 11.3888 17.6863L6.89672 27.2757C9.38431 27.0829 11.6552 26.9462 13.8394 26.8573C15.9261 26.7724 17.9425 26.731 20.004 26.731C24.7729 26.731 29.3159 26.9466 35.7024 27.2757L35.7026 27.2752Z" fill="#1E1E1E"/>
<path d="M13.1158 12.8089C13.1392 12.9825 13.2136 13.145 13.3295 13.2756C13.4453 13.4061 13.5973 13.4986 13.7657 13.5412L17.699 14.5342C17.7385 14.5439 17.7737 14.5666 17.7989 14.5988C17.8242 14.631 17.838 14.6708 17.8382 14.7118C17.8385 14.7528 17.8251 14.7928 17.8003 14.8253C17.7754 14.8577 17.7405 14.8809 17.7011 14.8911L13.7634 15.885C13.5953 15.9275 13.4436 16.02 13.3281 16.1505C13.2126 16.281 13.1386 16.4434 13.1157 16.6168L12.0729 24.3381C12.0671 24.3823 12.0456 24.4229 12.0123 24.4522C11.9791 24.4816 11.9364 24.4978 11.8922 24.4978C11.848 24.4978 11.8053 24.4816 11.772 24.4522C11.7388 24.4229 11.7173 24.3823 11.7114 24.3381L10.6687 16.617C10.6457 16.4436 10.5717 16.2811 10.4562 16.1506C10.3406 16.0201 10.189 15.9277 10.0208 15.8851L6.08306 14.8912C6.04357 14.8814 6.00849 14.8585 5.98341 14.8263C5.95833 14.794 5.9447 14.7541 5.9447 14.7131C5.9447 14.6721 5.95833 14.6322 5.98341 14.5999C6.00849 14.5676 6.04357 14.5447 6.08306 14.5349L10.0209 13.5407C10.1891 13.4981 10.3407 13.4056 10.4561 13.2752C10.5716 13.1447 10.6456 12.9823 10.6685 12.8089L11.7113 5.08748C11.7171 5.04328 11.7386 5.00271 11.7719 4.97332C11.8051 4.94393 11.8478 4.92773 11.892 4.92773C11.9362 4.92773 11.9789 4.94393 12.0122 4.97332C12.0454 5.00271 12.0669 5.04328 12.0728 5.08748C12.3971 7.49008 13.0515 12.3332 13.1158 12.8089Z" fill="#FFC850"/>
<path d="M22.7681 16.7896C22.6791 16.7685 22.5984 16.721 22.5365 16.6531C22.4746 16.5852 22.4343 16.5001 22.4209 16.4089C22.3203 15.6821 22.0631 13.8255 21.9034 12.6719C21.8995 12.6383 21.8835 12.6073 21.8583 12.5849C21.8331 12.5625 21.8006 12.5503 21.767 12.5507C21.7335 12.551 21.7012 12.5639 21.6765 12.5868C21.6518 12.6098 21.6364 12.6411 21.6332 12.6748L21.1163 16.4089C21.1033 16.5 21.0634 16.585 21.0018 16.6529C20.9402 16.7208 20.8598 16.7684 20.771 16.7896L18.8372 17.2656C18.8071 17.2725 18.7803 17.2895 18.7612 17.3137C18.742 17.338 18.7315 17.3682 18.7315 17.3992C18.7315 17.4303 18.742 17.4604 18.7612 17.4847C18.7803 17.5089 18.8071 17.5259 18.8372 17.5328L20.7704 18.0078C20.8592 18.0289 20.9397 18.0765 21.0013 18.1444C21.063 18.2123 21.1029 18.2973 21.116 18.3885L21.6332 22.1224C21.6364 22.1564 21.652 22.1879 21.6771 22.2109C21.7021 22.2338 21.7347 22.2465 21.7685 22.2465C21.8023 22.2465 21.8349 22.2338 21.8599 22.2109C21.8849 22.1879 21.9005 22.1564 21.9037 22.1224L22.4209 18.3883C22.434 18.2972 22.474 18.2122 22.5356 18.1443C22.5972 18.0764 22.6776 18.0288 22.7664 18.0076L24.7001 17.5318C24.7302 17.5248 24.7571 17.5077 24.7763 17.4832C24.7954 17.4588 24.8058 17.4285 24.8056 17.3973C24.8054 17.3661 24.7947 17.336 24.7752 17.3118C24.7557 17.2876 24.7286 17.2708 24.6984 17.2642L22.7681 16.7896Z" fill="#FFF082"/>
<path d="M12.0729 24.3379L12.9916 17.5353C12.1182 15.7066 11.3839 13.8135 10.7951 11.8725L10.6687 12.8088C10.6457 12.9822 10.5717 13.1446 10.4563 13.2751C10.3408 13.4056 10.1892 13.4981 10.021 13.5407L6.08318 14.5349C6.04369 14.5447 6.00861 14.5676 5.98353 14.5999C5.95845 14.6322 5.94482 14.672 5.94482 14.713C5.94482 14.7541 5.95845 14.7939 5.98353 14.8262C6.00861 14.8585 6.04369 14.8814 6.08318 14.8912L10.0209 15.8851C10.1891 15.9276 10.3408 16.0201 10.4563 16.1506C10.5718 16.2811 10.6459 16.4436 10.6688 16.6171L11.7116 24.3374C11.7174 24.3815 11.739 24.422 11.7722 24.4513C11.8053 24.4806 11.8479 24.4968 11.892 24.4968C11.9361 24.4969 11.9788 24.4808 12.012 24.4516C12.0453 24.4224 12.0669 24.382 12.0729 24.3379Z" fill="#F0AD19"/>
<path d="M19.9765 5.42323C19.866 5.39797 19.7656 5.33976 19.6883 5.25618C19.6111 5.17259 19.5605 5.06749 19.5432 4.95453C19.4102 4.0086 19.0586 1.50839 18.8631 0.119952C18.8587 0.0867491 18.8425 0.0562859 18.8175 0.0342235C18.7925 0.0121611 18.7605 0 18.7273 0C18.6941 0 18.662 0.0121611 18.637 0.0342235C18.612 0.0562859 18.5958 0.0867491 18.5914 0.119952L17.9115 4.95377C17.8946 5.06655 17.8444 5.17158 17.7675 5.25518C17.6906 5.33879 17.5905 5.39708 17.4803 5.42247L14.936 6.03918C14.906 6.04608 14.8792 6.06306 14.86 6.08734C14.8408 6.11162 14.8303 6.14175 14.8303 6.1728C14.8303 6.20386 14.8408 6.23399 14.86 6.25827C14.8792 6.28255 14.906 6.29953 14.936 6.30643L17.4803 6.92329C17.5906 6.94853 17.6908 7.00672 17.7679 7.09027C17.8449 7.17382 17.8953 7.27886 17.9123 7.39169L18.5904 12.2115C18.5949 12.245 18.6114 12.2758 18.6367 12.2981C18.662 12.3203 18.6944 12.3326 18.7279 12.3326C18.7615 12.3326 18.7939 12.3203 18.8192 12.2981C18.8445 12.2758 18.861 12.245 18.8655 12.2115L19.5436 7.39154C19.5607 7.27874 19.6109 7.17372 19.688 7.09018C19.765 7.00663 19.8652 6.94842 19.9754 6.92314L22.5178 6.30704C22.5477 6.2996 22.5742 6.28223 22.5931 6.25773C22.6119 6.23324 22.6221 6.20304 22.6219 6.17201C22.6217 6.14098 22.6111 6.11092 22.5919 6.08669C22.5727 6.06245 22.546 6.04545 22.516 6.03842L19.9765 5.42323Z" fill="#FFDC64"/>
<path d="M17.973 4.52036L17.9126 4.95449C17.8957 5.06729 17.8454 5.17231 17.7684 5.25586C17.6914 5.33941 17.5912 5.39762 17.481 5.42289L14.9366 6.0396C14.9066 6.0465 14.8798 6.06348 14.8606 6.08776C14.8414 6.11204 14.831 6.14217 14.831 6.17322C14.831 6.20428 14.8414 6.23441 14.8606 6.25869C14.8798 6.28297 14.9066 6.29994 14.9366 6.30685L17.4808 6.92325C17.5911 6.94849 17.6914 7.00668 17.7684 7.09023C17.8455 7.17379 17.8958 7.27882 17.9128 7.39165L18.5909 12.2116C18.5957 12.245 18.6122 12.2755 18.6375 12.2976C18.6628 12.3196 18.6951 12.3318 18.7285 12.3318C18.7619 12.3318 18.7942 12.3196 18.8194 12.2976C18.8447 12.2755 18.8613 12.245 18.866 12.2116L19.4729 7.89827C18.7819 6.86893 18.2744 5.72581 17.973 4.52036Z" fill="#FFC850"/>
<path d="M21.1164 18.3891L21.6337 22.1232C21.6382 22.1562 21.6544 22.1864 21.6792 22.2083C21.7041 22.2301 21.736 22.2422 21.769 22.2422C21.802 22.2422 21.8338 22.2301 21.8587 22.2083C21.8836 22.1864 21.8998 22.1562 21.9043 22.1232L22.3889 18.6241C21.785 17.9202 21.3596 17.0789 21.1493 16.1725L21.1164 16.4097C21.1034 16.5008 21.0635 16.5858 21.0019 16.6537C20.9403 16.7216 20.8599 16.7692 20.7711 16.7904L18.8373 17.2664C18.8073 17.2733 18.7805 17.2903 18.7613 17.3146C18.7421 17.3388 18.7316 17.369 18.7316 17.4C18.7316 17.4311 18.7421 17.4612 18.7613 17.4855C18.7805 17.5098 18.8073 17.5267 18.8373 17.5336L20.771 18.0095C20.8596 18.0305 20.94 18.078 21.0016 18.1457C21.0632 18.2134 21.1032 18.2982 21.1164 18.3891Z" fill="#FFDC64"/>
</svg>
