<svg width="40" height="40" viewBox="0 0 40 40" fill="none" xmlns="http://www.w3.org/2000/svg">
<path d="M40 20C40 8.9543 31.0457 0 20 0C8.9543 0 0 8.9543 0 20C0 31.0457 8.9543 40 20 40C31.0457 40 40 31.0457 40 20Z" fill="#40CCED"/>
<path d="M16.1472 21.1109C16.1191 21.1111 16.0911 21.1095 16.0633 21.106C15.8639 21.0567 15.6719 20.9815 15.4921 20.8822C15.3105 20.7807 15.1155 20.7053 14.9128 20.6584C14.7678 20.6636 14.6244 20.6911 14.4878 20.7401C14.3185 20.8044 14.1378 20.8329 13.9569 20.824C13.7128 20.7764 13.0631 20.3253 13.0356 20.306C13.03 20.3021 13.0253 20.2973 13.0217 20.2916C13.0181 20.2859 13.0156 20.2796 13.0145 20.273C13.0133 20.2664 13.0134 20.2596 13.0149 20.2531C13.0163 20.2465 13.019 20.2403 13.0229 20.2348C13.0267 20.2293 13.0316 20.2246 13.0373 20.2209C13.0429 20.2173 13.0492 20.2149 13.0559 20.2137C13.0625 20.2125 13.0692 20.2126 13.0758 20.2141C13.0824 20.2155 13.0886 20.2182 13.0941 20.2221C13.3672 20.4236 13.6633 20.5919 13.9762 20.7234C14.1411 20.7284 14.3053 20.7007 14.4594 20.6418C14.6077 20.5877 14.7641 20.5588 14.922 20.5563C15.1371 20.6038 15.3441 20.6827 15.5362 20.7905C15.7069 20.8841 15.8885 20.9562 16.0769 21.0051C16.3358 21.0007 16.5936 20.9713 16.8469 20.9175C16.8536 20.9159 16.8605 20.9157 16.8673 20.9169C16.874 20.9181 16.8805 20.9206 16.8863 20.9244C16.8921 20.9281 16.897 20.933 16.9009 20.9387C16.9047 20.9444 16.9074 20.9508 16.9087 20.9575C16.91 20.9643 16.9099 20.9712 16.9085 20.9779C16.9071 20.9847 16.9043 20.991 16.9003 20.9967C16.8964 21.0023 16.8914 21.0071 16.8855 21.0107C16.8797 21.0143 16.8732 21.0167 16.8664 21.0178C16.6292 21.0662 16.3888 21.0973 16.1472 21.1109Z" fill="white"/>
<path d="M16.1467 20.1167C16.1186 20.117 16.0904 20.1154 16.0625 20.1118C15.863 20.0625 15.6709 19.9873 15.4911 19.888C15.3095 19.7865 15.1145 19.7112 14.9118 19.6644C14.7668 19.6693 14.6235 19.6969 14.487 19.7461C14.3178 19.8106 14.137 19.8391 13.9561 19.8298C13.712 19.7824 13.0623 19.3311 13.0347 19.3118C13.0292 19.308 13.0245 19.3031 13.0208 19.2975C13.0171 19.2918 13.0147 19.2855 13.0135 19.2788C13.0123 19.2722 13.0125 19.2654 13.0139 19.2588C13.0154 19.2523 13.0182 19.2461 13.0221 19.2406C13.0299 19.2295 13.0417 19.2219 13.0551 19.2195C13.0684 19.2172 13.0821 19.2202 13.0933 19.2279C13.3664 19.4294 13.6626 19.5977 13.9754 19.7293C14.1403 19.7343 14.3045 19.7066 14.4586 19.6476C14.607 19.5939 14.7632 19.565 14.921 19.5621C15.1361 19.6096 15.3431 19.6885 15.5352 19.7963C15.7059 19.8899 15.8876 19.962 16.0761 20.0109C16.335 20.0071 16.5929 19.9777 16.8461 19.9233C16.8528 19.9217 16.8597 19.9215 16.8665 19.9227C16.8732 19.9239 16.8797 19.9264 16.8855 19.9302C16.8912 19.9339 16.8962 19.9388 16.9 19.9445C16.9039 19.9502 16.9066 19.9566 16.9079 19.9633C16.9092 19.9701 16.9091 19.977 16.9077 19.9837C16.9063 19.9905 16.9035 19.9968 16.8995 20.0024C16.8956 20.0081 16.8905 20.0128 16.8847 20.0165C16.8789 20.0201 16.8724 20.0225 16.8656 20.0236C16.6286 20.0721 16.3883 20.1032 16.1467 20.1167Z" fill="white"/>
<path d="M16.1463 19.0643C16.1181 19.0646 16.0899 19.0631 16.062 19.0596C15.8626 19.0103 15.6705 18.9351 15.4907 18.8358C15.309 18.7344 15.114 18.6591 14.9113 18.612C14.7664 18.6172 14.6231 18.6448 14.4866 18.6938C14.3173 18.7583 14.1365 18.7868 13.9556 18.7775C13.7115 18.7303 13.0618 18.2788 13.0343 18.2596C13.024 18.2516 13.0172 18.2398 13.0152 18.2269C13.0133 18.2139 13.0164 18.2007 13.0238 18.19C13.0313 18.1792 13.0426 18.1717 13.0555 18.1691C13.0683 18.1664 13.0816 18.1687 13.0928 18.1756C13.3659 18.3772 13.662 18.5455 13.975 18.677C14.1398 18.6818 14.304 18.6541 14.4581 18.5954C14.6065 18.542 14.7627 18.5131 14.9205 18.51C15.1356 18.5575 15.3426 18.6364 15.5348 18.7441C15.7055 18.8378 15.8872 18.9099 16.0756 18.9588C16.3345 18.9548 16.5924 18.9255 16.8456 18.8712C16.8523 18.8696 16.8592 18.8694 16.866 18.8706C16.8728 18.8718 16.8792 18.8743 16.885 18.878C16.8908 18.8818 16.8957 18.8866 16.8996 18.8923C16.9034 18.898 16.9061 18.9044 16.9074 18.9112C16.9087 18.9179 16.9086 18.9249 16.9072 18.9316C16.9058 18.9383 16.903 18.9447 16.8991 18.9503C16.8951 18.9559 16.8901 18.9607 16.8842 18.9643C16.8784 18.968 16.8719 18.9704 16.8651 18.9714C16.6281 19.0198 16.3878 19.0508 16.1463 19.0643Z" fill="white"/>
<path d="M16.1473 18.0698C16.1192 18.0701 16.0912 18.0685 16.0634 18.0649C15.864 18.0156 15.672 17.9405 15.4922 17.8413C15.3106 17.7398 15.1156 17.6644 14.9129 17.6175C14.7679 17.6226 14.6245 17.6501 14.4879 17.6993C14.3186 17.7635 14.1379 17.792 13.957 17.783C13.7129 17.7354 13.0632 17.2842 13.0356 17.2649C13.0301 17.2611 13.0254 17.2562 13.0218 17.2506C13.0181 17.2449 13.0156 17.2386 13.0145 17.2319C13.0133 17.2253 13.0134 17.2185 13.0149 17.212C13.0163 17.2054 13.0191 17.1992 13.023 17.1937C13.0308 17.1826 13.0426 17.175 13.056 17.1727C13.0693 17.1703 13.083 17.1733 13.0942 17.181C13.3673 17.3826 13.6634 17.5509 13.9763 17.6825C14.1412 17.6874 14.3054 17.6596 14.4595 17.6007C14.6078 17.5466 14.7642 17.5177 14.9221 17.5154C15.1372 17.5629 15.3442 17.6418 15.5363 17.7496C15.707 17.8433 15.8886 17.9154 16.077 17.9642C16.3359 17.9601 16.5938 17.9308 16.847 17.8766C16.8537 17.8751 16.8606 17.8749 16.8674 17.876C16.8741 17.8772 16.8806 17.8798 16.8864 17.8835C16.8921 17.8872 16.8971 17.8921 16.9009 17.8978C16.9048 17.9035 16.9075 17.9099 16.9088 17.9166C16.9101 17.9234 16.91 17.9303 16.9086 17.9371C16.9072 17.9438 16.9044 17.9501 16.9004 17.9558C16.8965 17.9614 16.8914 17.9662 16.8856 17.9698C16.8798 17.9734 16.8733 17.9759 16.8665 17.9769C16.6293 18.0253 16.3889 18.0563 16.1473 18.0698Z" fill="white"/>
<path d="M16.1473 17.0189C16.1192 17.0192 16.0912 17.0176 16.0634 17.0141C15.864 16.9648 15.672 16.8896 15.4922 16.7903C15.3106 16.6888 15.1156 16.6135 14.9129 16.5666C14.7679 16.5719 14.6246 16.5995 14.4879 16.6484C14.3186 16.7127 14.1379 16.7412 13.957 16.7321C13.7129 16.6847 13.0632 16.2334 13.0356 16.2141C13.0301 16.2102 13.0254 16.2053 13.0218 16.1997C13.0181 16.194 13.0156 16.1877 13.0145 16.1811C13.0133 16.1745 13.0134 16.1677 13.0149 16.1611C13.0163 16.1546 13.0191 16.1483 13.023 16.1428C13.0308 16.1318 13.0426 16.1243 13.056 16.1219C13.0693 16.1195 13.083 16.1225 13.0942 16.1302C13.3673 16.3316 13.6635 16.5 13.9763 16.6316C14.1412 16.6367 14.3054 16.6089 14.4595 16.5499C14.6079 16.4959 14.7642 16.467 14.9221 16.4644C15.1372 16.5119 15.3442 16.5908 15.5363 16.6985C15.707 16.7922 15.8886 16.8643 16.077 16.9132C16.3359 16.9092 16.5938 16.8798 16.847 16.8256C16.8537 16.824 16.8606 16.8238 16.8674 16.825C16.8741 16.8262 16.8806 16.8287 16.8864 16.8324C16.8921 16.8362 16.8971 16.841 16.9009 16.8467C16.9048 16.8524 16.9075 16.8588 16.9088 16.8656C16.9101 16.8723 16.91 16.8793 16.9086 16.886C16.9072 16.8927 16.9044 16.8991 16.9004 16.9047C16.8965 16.9103 16.8914 16.9151 16.8856 16.9187C16.8798 16.9224 16.8733 16.9248 16.8665 16.9259C16.6293 16.9743 16.3889 17.0054 16.1473 17.0189Z" fill="white"/>
<path d="M16.1476 16.0248C16.1195 16.0251 16.0913 16.0235 16.0634 16.0199C15.8639 15.9707 15.6719 15.8954 15.492 15.7961C15.3104 15.6947 15.1154 15.6194 14.9127 15.5725C14.7678 15.5777 14.6245 15.6053 14.4879 15.6543C14.3187 15.7186 14.1379 15.7471 13.957 15.738C13.7129 15.6904 13.0632 15.2392 13.0356 15.2199C13.0301 15.2161 13.0254 15.2112 13.0218 15.2056C13.0181 15.1999 13.0156 15.1936 13.0145 15.187C13.0133 15.1803 13.0134 15.1735 13.0149 15.167C13.0163 15.1604 13.0191 15.1542 13.023 15.1487C13.0308 15.1377 13.0426 15.1301 13.056 15.1278C13.0693 15.1254 13.083 15.1283 13.0942 15.136C13.3673 15.3376 13.6634 15.5059 13.9763 15.6375C14.1412 15.6422 14.3053 15.6144 14.4595 15.5557C14.6079 15.5021 14.7641 15.4733 14.9219 15.4705C15.137 15.5179 15.344 15.5968 15.5361 15.7046C15.7068 15.7983 15.8885 15.8704 16.077 15.9192C16.3359 15.9151 16.5938 15.8858 16.847 15.8316C16.8537 15.8301 16.8606 15.8299 16.8674 15.831C16.8741 15.8322 16.8806 15.8348 16.8864 15.8385C16.8921 15.8422 16.8971 15.8471 16.9009 15.8528C16.9048 15.8585 16.9075 15.8649 16.9088 15.8716C16.9101 15.8784 16.91 15.8853 16.9086 15.8921C16.9072 15.8988 16.9044 15.9051 16.9004 15.9108C16.8965 15.9164 16.8914 15.9212 16.8856 15.9248C16.8798 15.9284 16.8733 15.9309 16.8665 15.9319C16.6294 15.9803 16.3892 16.0113 16.1476 16.0248Z" fill="white"/>
<path d="M24.2155 21.1495C23.9797 21.1378 23.745 21.1095 23.5131 21.0648C23.5065 21.0635 23.5002 21.061 23.4946 21.0573C23.489 21.0536 23.4842 21.0488 23.4804 21.0432C23.4728 21.0319 23.47 21.0181 23.4726 21.0048C23.4752 20.9915 23.483 20.9797 23.4942 20.9721C23.5055 20.9646 23.5193 20.9617 23.5326 20.9643C23.7844 21.0154 24.0406 21.0415 24.2975 21.0424C24.4852 20.9909 24.6659 20.9165 24.8354 20.8209C25.026 20.7113 25.2315 20.6301 25.4456 20.5801C25.6023 20.5804 25.7579 20.6073 25.9057 20.6595C26.0591 20.7165 26.2224 20.7422 26.3859 20.7353C26.6977 20.5997 26.9924 20.4278 27.2639 20.2231C27.2694 20.2185 27.2757 20.2151 27.2825 20.213C27.2893 20.211 27.2964 20.2104 27.3035 20.2114C27.3105 20.2123 27.3173 20.2146 27.3234 20.2183C27.3295 20.222 27.3347 20.2269 27.3388 20.2327C27.3429 20.2385 27.3457 20.2451 27.3471 20.252C27.3485 20.259 27.3484 20.2662 27.3469 20.2731C27.3454 20.2801 27.3424 20.2866 27.3382 20.2923C27.334 20.298 27.3286 20.3028 27.3225 20.3064C27.2952 20.3259 26.6493 20.785 26.4068 20.8354C26.2272 20.8468 26.0472 20.8202 25.8786 20.7573C25.7428 20.7099 25.6003 20.6842 25.4565 20.681C25.2549 20.7307 25.0612 20.8084 24.8811 20.9118C24.7027 21.0133 24.5117 21.091 24.3131 21.1429C24.2808 21.1475 24.2482 21.1497 24.2155 21.1495Z" fill="white"/>
<path d="M24.2157 20.1556C23.9798 20.1438 23.7451 20.1155 23.5132 20.0709C23.5003 20.0678 23.4891 20.0599 23.4819 20.0488C23.4747 20.0377 23.472 20.0242 23.4746 20.0111C23.4771 19.9981 23.4846 19.9866 23.4954 19.9789C23.5063 19.9713 23.5196 19.9682 23.5327 19.9702C23.7845 20.0213 24.0407 20.0474 24.2976 20.0482C24.4854 19.997 24.6661 19.9227 24.8356 19.827C25.0261 19.7172 25.2316 19.636 25.4457 19.586C25.6025 19.5864 25.7582 19.6133 25.906 19.6656C26.0594 19.7225 26.2226 19.7482 26.386 19.7413C26.6978 19.6057 26.9926 19.4337 27.2641 19.2289C27.2695 19.2243 27.2758 19.2209 27.2826 19.2189C27.2894 19.2169 27.2966 19.2163 27.3036 19.2172C27.3107 19.2181 27.3174 19.2205 27.3235 19.2241C27.3296 19.2278 27.3349 19.2327 27.3389 19.2385C27.343 19.2443 27.3459 19.2509 27.3472 19.2579C27.3486 19.2649 27.3486 19.2721 27.347 19.279C27.3455 19.2859 27.3425 19.2925 27.3383 19.2982C27.3341 19.3039 27.3288 19.3087 27.3226 19.3122C27.2953 19.3317 26.6494 19.7909 26.4069 19.8416C26.2274 19.853 26.0475 19.8264 25.8789 19.7636C25.7431 19.7157 25.6006 19.6898 25.4566 19.6871C25.2549 19.7367 25.0611 19.8145 24.881 19.9181C24.7027 20.0196 24.5118 20.0972 24.3132 20.1489C24.2809 20.1536 24.2483 20.1558 24.2157 20.1556Z" fill="white"/>
<path d="M24.2155 19.1055C23.9797 19.0939 23.745 19.0656 23.5131 19.0208C23.5065 19.0196 23.5002 19.017 23.4946 19.0133C23.489 19.0096 23.4842 19.0048 23.4804 18.9992C23.4767 18.9936 23.474 18.9874 23.4727 18.9808C23.4714 18.9742 23.4713 18.9674 23.4726 18.9608C23.4739 18.9542 23.4765 18.948 23.4802 18.9424C23.4839 18.9367 23.4887 18.9319 23.4942 18.9282C23.4998 18.9244 23.5061 18.9218 23.5126 18.9204C23.5192 18.9191 23.526 18.9191 23.5326 18.9203C23.7844 18.9713 24.0406 18.9974 24.2975 18.9984C24.4852 18.9471 24.6659 18.8727 24.8354 18.7771C25.0259 18.6674 25.2315 18.5862 25.4456 18.5361C25.6024 18.5363 25.7581 18.5632 25.9059 18.6158C26.0593 18.6726 26.2225 18.6982 26.3859 18.6913C26.6978 18.5557 26.9925 18.3837 27.2639 18.1789C27.2693 18.1741 27.2757 18.1705 27.2826 18.1684C27.2895 18.1662 27.2968 18.1655 27.304 18.1664C27.3111 18.1672 27.318 18.1696 27.3242 18.1733C27.3304 18.177 27.3358 18.182 27.3399 18.1879C27.3441 18.1938 27.3469 18.2005 27.3483 18.2076C27.3497 18.2147 27.3495 18.222 27.3479 18.229C27.3462 18.2361 27.3431 18.2427 27.3387 18.2484C27.3344 18.2542 27.3288 18.2589 27.3225 18.2624C27.2952 18.2819 26.6493 18.741 26.4068 18.7918C26.2272 18.803 26.0473 18.7764 25.8788 18.7137C25.743 18.6658 25.6004 18.64 25.4565 18.6372C25.2548 18.6868 25.061 18.7646 24.8809 18.8683C24.7025 18.9696 24.5116 19.0471 24.3131 19.0989C24.2808 19.1036 24.2482 19.1058 24.2155 19.1055Z" fill="white"/>
<path d="M24.2155 18.1104C23.9797 18.0987 23.745 18.0705 23.5131 18.0259C23.5065 18.0247 23.5002 18.0221 23.4946 18.0184C23.489 18.0147 23.4842 18.0099 23.4804 18.0043C23.4728 17.9931 23.47 17.9793 23.4726 17.966C23.4752 17.9526 23.483 17.9409 23.4942 17.9333C23.5055 17.9257 23.5193 17.9229 23.5326 17.9255C23.7844 17.9766 24.0406 18.0027 24.2975 18.0035C24.4852 17.9521 24.6659 17.8778 24.8354 17.7822C25.026 17.6725 25.2315 17.5913 25.4456 17.5413C25.6024 17.5414 25.758 17.5684 25.9057 17.6209C26.0592 17.6775 26.2224 17.7033 26.3859 17.6966C26.6977 17.5609 26.9924 17.3888 27.2639 17.184C27.2694 17.1794 27.2757 17.176 27.2825 17.174C27.2893 17.172 27.2964 17.1714 27.3035 17.1723C27.3105 17.1732 27.3173 17.1756 27.3234 17.1792C27.3295 17.1829 27.3347 17.1878 27.3388 17.1936C27.3429 17.1994 27.3457 17.206 27.3471 17.213C27.3485 17.22 27.3484 17.2271 27.3469 17.2341C27.3454 17.241 27.3424 17.2475 27.3382 17.2533C27.334 17.259 27.3286 17.2638 27.3225 17.2673C27.2952 17.2868 26.6493 17.7461 26.4068 17.7967C26.2272 17.8082 26.0472 17.7816 25.8786 17.7186C25.7428 17.6711 25.6004 17.6453 25.4565 17.6421C25.2548 17.6918 25.0611 17.7695 24.8811 17.8732C24.7026 17.9745 24.5117 18.0521 24.3131 18.104C24.2808 18.1086 24.2482 18.1107 24.2155 18.1104Z" fill="white"/>
<path d="M24.2147 17.0577C23.9789 17.046 23.7441 17.0177 23.5123 16.9732C23.4993 16.9702 23.4881 16.9623 23.4809 16.9511C23.4737 16.94 23.4711 16.9265 23.4736 16.9135C23.4761 16.9005 23.4836 16.8889 23.4944 16.8813C23.5053 16.8737 23.5187 16.8705 23.5318 16.8725C23.7835 16.9236 24.0397 16.9497 24.2966 16.9506C24.4843 16.8991 24.665 16.8248 24.8346 16.7293C25.0251 16.6195 25.2306 16.5383 25.4447 16.4883C25.6015 16.4888 25.7571 16.5157 25.905 16.5678C26.0584 16.6245 26.2216 16.6502 26.385 16.6435C26.6969 16.5079 26.9916 16.336 27.2631 16.1313C27.2685 16.1267 27.2748 16.1233 27.2816 16.1212C27.2884 16.1192 27.2956 16.1187 27.3026 16.1196C27.3097 16.1205 27.3165 16.1228 27.3226 16.1265C27.3286 16.1302 27.3339 16.1351 27.338 16.1409C27.342 16.1467 27.3449 16.1533 27.3463 16.1603C27.3477 16.1672 27.3476 16.1744 27.346 16.1813C27.3445 16.1883 27.3415 16.1948 27.3373 16.2005C27.3331 16.2063 27.3278 16.211 27.3216 16.2146C27.2943 16.2341 26.6484 16.6932 26.4059 16.7436C26.2264 16.7549 26.0465 16.7283 25.8779 16.6655C25.742 16.6182 25.5995 16.5924 25.4557 16.5892C25.254 16.6389 25.0603 16.7166 24.8803 16.82C24.7018 16.9215 24.5109 16.9992 24.3123 17.0511C24.2799 17.0556 24.2473 17.0579 24.2147 17.0577Z" fill="white"/>
<path d="M24.2157 16.0636C23.9798 16.0518 23.7451 16.0235 23.5132 15.9791C23.5003 15.976 23.4891 15.9681 23.4819 15.957C23.4747 15.9459 23.472 15.9324 23.4746 15.9193C23.4771 15.9063 23.4846 15.8948 23.4954 15.8872C23.5063 15.8795 23.5196 15.8764 23.5327 15.8784C23.7846 15.9293 24.0409 15.9554 24.2978 15.9564C24.4855 15.9052 24.6661 15.8308 24.8356 15.7352C25.026 15.6254 25.2316 15.5443 25.4457 15.4944C25.6025 15.4949 25.7581 15.5217 25.906 15.5738C26.0594 15.6307 26.2226 15.6565 26.386 15.6495C26.6979 15.5139 26.9926 15.3419 27.2641 15.1371C27.2695 15.1325 27.2758 15.1291 27.2826 15.1271C27.2894 15.1251 27.2966 15.1245 27.3036 15.1254C27.3107 15.1263 27.3174 15.1287 27.3235 15.1324C27.3296 15.136 27.3349 15.1409 27.3389 15.1467C27.343 15.1525 27.3459 15.1592 27.3472 15.1661C27.3486 15.1731 27.3486 15.1803 27.347 15.1872C27.3455 15.1941 27.3425 15.2007 27.3383 15.2064C27.3341 15.2121 27.3288 15.2169 27.3226 15.2204C27.2953 15.24 26.6494 15.6991 26.4069 15.7498C26.2274 15.7613 26.0474 15.7347 25.8789 15.6718C25.743 15.6242 25.6005 15.5984 25.4566 15.5953C25.2549 15.6449 25.0611 15.7227 24.881 15.8263C24.7027 15.9278 24.5118 16.0054 24.3132 16.0571C24.2809 16.0617 24.2483 16.0638 24.2157 16.0636Z" fill="white"/>
<path d="M14.1006 22.6248L14.4571 23.0361L14.658 22.6248L14.2194 22.4512L14.1006 22.6248Z" fill="#1B2533"/>
<path d="M12.6439 22.6341C12.6656 22.4159 13.5707 21.6105 14.0185 21.7383C14.4663 21.8661 14.3803 22.7558 14.0148 22.8339C13.6494 22.9119 12.6222 22.8522 12.6439 22.6341Z" fill="#1B2533"/>
<path d="M26.0332 22.6248L25.6766 23.0361L25.4756 22.6248L25.9142 22.4512L26.0332 22.6248Z" fill="#1B2533"/>
<path d="M27.4902 22.6341C27.4685 22.4159 26.5634 21.6105 26.1156 21.7383C25.6678 21.8661 25.7538 22.7558 26.1193 22.8339C26.4847 22.9119 27.5123 22.8522 27.4902 22.6341Z" fill="#1B2533"/>
<path d="M14.3027 23.1008L16.0979 19.2996C16.2336 19.012 16.4484 18.7688 16.7171 18.5985C16.9858 18.4283 17.2974 18.3379 17.6155 18.3379H22.6789C23.0085 18.3379 23.3307 18.4349 23.6055 18.6169C23.8802 18.7989 24.0953 19.0577 24.2239 19.3611L25.8083 23.1006C21.4163 23.5375 18.819 23.3966 14.3027 23.1008Z" fill="#F1C40F"/>
<path d="M27.0344 24.0605C26.9655 23.9154 20.0474 24.2933 20.0474 24.2933C20.0474 24.2933 13.1237 24.0982 13.0556 24.1848C12.8869 24.3714 12.8457 27.1862 13.8857 27.4668C14.9641 27.7595 15.7538 27.9969 20.0549 28.0326C24.3557 27.9962 25.1454 27.7585 26.2238 27.4668C27.3023 27.1751 27.1031 24.2057 27.0344 24.0605Z" fill="#F39C12"/>
<path d="M15.043 22.8067L16.6055 19.5029C16.7239 19.2526 16.9109 19.041 17.1449 18.8929C17.3788 18.7447 17.65 18.666 17.9269 18.666H22.3394C22.6264 18.6658 22.9071 18.7502 23.1466 18.9085C23.386 19.0668 23.5735 19.2921 23.6857 19.5564L25.0656 22.8065C21.1856 22.6088 18.9216 22.5093 15.043 22.8067Z" fill="#3498DB"/>
<path d="M13.0557 24.1864L14.3025 23.1016H25.8071L27.0346 24.0612C27.509 24.9279 12.5878 25.0807 13.0557 24.1864Z" fill="#F1C40F"/>
<path d="M13.9062 27.4707C13.9062 27.4707 14.1599 30.2313 15.083 30.2313C16.0062 30.2313 15.9025 27.5739 15.9025 27.5739L13.9062 27.4707Z" fill="#1B2533"/>
<path d="M26.0344 27.4707C26.0344 27.4707 25.7807 30.2313 24.8572 30.2313C23.9337 30.2313 24.0377 27.5739 24.0377 27.5739L26.0344 27.4707Z" fill="#1B2533"/>
<path d="M22.4323 26.3906H17.7148V27.599H22.4323V26.3906Z" fill="#E28805"/>
<path d="M22.3132 26.5176H17.835V27.571H22.3132V26.5176Z" fill="#EFCE7B"/>
<path d="M13.2567 26.7773C12.9947 27.0398 13.2639 27.8429 13.6917 27.959C16.5861 28.744 23.5196 28.7448 26.4173 27.959C26.845 27.8429 27.2031 27.04 26.852 26.7773C25.7521 27.608 14.3617 27.6119 13.2567 26.7773Z" fill="#DBDBDB"/>
<path d="M19.6763 24.609C19.9824 24.6366 19.9828 25.9103 19.6763 26.0075C19.2011 26.1583 17.3504 25.5687 17.1457 25.3025C17.0333 25.1564 17.0212 24.8042 17.1847 24.7021C17.3483 24.6001 19.3699 24.5817 19.6763 24.609Z" fill="#2C3E50"/>
<g style="mix-blend-mode:multiply" opacity="0.3">
<g style="mix-blend-mode:multiply" opacity="0.3">
<path d="M19.794 24.7012H17.1917C17.1902 24.7017 17.1887 24.7022 17.1872 24.7025C17.1559 24.7256 17.1296 24.7548 17.11 24.7883C17.0904 24.8219 17.0779 24.8591 17.0732 24.8977H19.8678C19.8539 24.8286 19.829 24.7623 19.794 24.7012Z" fill="#2C3E50"/>
</g>
<g style="mix-blend-mode:multiply" opacity="0.3">
<path d="M19.8925 25.0508H17.0645C17.0683 25.1186 17.0847 25.185 17.1126 25.2469H19.905C19.9037 25.18 19.9 25.1136 19.8925 25.0508Z" fill="#2C3E50"/>
</g>
<g style="mix-blend-mode:multiply" opacity="0.3">
<path d="M19.8495 25.748H18.1035C18.3398 25.8245 18.5913 25.8932 18.8255 25.9443H19.7562C19.7998 25.8856 19.8315 25.8189 19.8495 25.748Z" fill="#2C3E50"/>
</g>
<g style="mix-blend-mode:multiply" opacity="0.3">
<path d="M19.9037 25.3984H17.2695C17.4013 25.4748 17.5391 25.5403 17.6814 25.5945H19.8832C19.8933 25.5296 19.9001 25.4641 19.9037 25.3984Z" fill="#2C3E50"/>
</g>
</g>
<path d="M20.4719 24.609C20.1658 24.6366 20.1654 25.9103 20.4719 26.0075C20.9471 26.1583 22.7978 25.5687 23.0025 25.3025C23.1149 25.1564 23.127 24.8042 22.9635 24.7021C22.7999 24.6001 20.7781 24.5817 20.4719 24.609Z" fill="#2C3E50"/>
<g style="mix-blend-mode:multiply" opacity="0.3">
<g style="mix-blend-mode:multiply" opacity="0.3">
<path d="M20.3556 24.7012H22.9583C22.9598 24.7017 22.9613 24.7022 22.9628 24.7025C22.9941 24.7256 23.0204 24.7548 23.04 24.7883C23.0596 24.8219 23.0721 24.8591 23.0768 24.8977H20.2822C20.2961 24.8287 20.3208 24.7623 20.3556 24.7012Z" fill="#2C3E50"/>
</g>
<g style="mix-blend-mode:multiply" opacity="0.3">
<path d="M20.2555 25.0508H23.0834C23.0795 25.1185 23.0632 25.185 23.0354 25.2469H20.2432C20.2443 25.18 20.248 25.1136 20.2555 25.0508Z" fill="#2C3E50"/>
</g>
<g style="mix-blend-mode:multiply" opacity="0.3">
<path d="M20.2988 25.748H22.0442C21.8081 25.8245 21.5564 25.8932 21.3222 25.9443H20.3921C20.3483 25.8857 20.3166 25.819 20.2988 25.748Z" fill="#2C3E50"/>
</g>
<g style="mix-blend-mode:multiply" opacity="0.3">
<path d="M20.2451 25.3984H22.8793C22.7474 25.4748 22.6096 25.5404 22.4672 25.5945H20.2662C20.2558 25.5296 20.2487 25.4641 20.2451 25.3984Z" fill="#2C3E50"/>
</g>
</g>
<path d="M17.3724 26.5183C17.3724 26.5798 17.3542 26.64 17.32 26.6912C17.2858 26.7423 17.2372 26.7822 17.1803 26.8058C17.1235 26.8293 17.0609 26.8355 17.0005 26.8235C16.9401 26.8115 16.8847 26.7818 16.8412 26.7383C16.7976 26.6948 16.768 26.6393 16.756 26.579C16.744 26.5186 16.7501 26.456 16.7737 26.3992C16.7972 26.3423 16.8371 26.2937 16.8883 26.2595C16.9395 26.2253 16.9997 26.207 17.0612 26.207C17.1021 26.207 17.1426 26.215 17.1803 26.2307C17.2181 26.2463 17.2524 26.2692 17.2813 26.2981C17.3102 26.327 17.3332 26.3614 17.3488 26.3991C17.3644 26.4369 17.3725 26.4774 17.3724 26.5183Z" fill="#E74C3C"/>
<path d="M23.3978 26.5183C23.3978 26.5798 23.3796 26.64 23.3454 26.6912C23.3112 26.7423 23.2626 26.7822 23.2057 26.8058C23.1488 26.8293 23.0863 26.8355 23.0259 26.8235C22.9655 26.8115 22.9101 26.7818 22.8665 26.7383C22.823 26.6948 22.7934 26.6393 22.7814 26.579C22.7694 26.5186 22.7755 26.456 22.7991 26.3992C22.8226 26.3423 22.8625 26.2937 22.9137 26.2595C22.9649 26.2253 23.0251 26.207 23.0866 26.207C23.1691 26.2073 23.2481 26.2402 23.3064 26.2985C23.3647 26.3568 23.3976 26.4358 23.3978 26.5183Z" fill="#E74C3C"/>
<path d="M13.6034 24.7125C13.2611 25.0175 13.7318 25.7287 14.074 25.9281C14.3829 26.1078 15.851 26.2052 16.1607 25.9281C16.5263 25.6009 14.4044 23.9988 13.6034 24.7125Z" fill="#FFEA92"/>
<path d="M14.1252 25.0147C13.8356 25.2725 14.2335 25.8733 14.523 26.0424C14.5273 26.045 14.5341 26.0471 14.5388 26.0497C15.098 26.132 15.9351 26.1291 16.1607 25.9275C16.2313 25.8643 16.2081 25.7531 16.1205 25.6206C15.6754 25.1583 14.6118 24.5808 14.1252 25.0147Z" fill="#FFF5AE"/>
<path d="M26.4781 24.7125C26.8206 25.0175 26.3499 25.7287 26.0077 25.9281C25.6988 26.1078 24.2307 26.2052 23.9209 25.9281C23.5552 25.6009 25.6772 23.9988 26.4781 24.7125Z" fill="#FFEA92"/>
<path d="M25.956 25.0147C26.2456 25.2725 25.8477 25.8733 25.5582 26.0424C25.5539 26.045 25.5472 26.0471 25.5424 26.0497C24.9831 26.132 24.1463 26.1291 23.9207 25.9275C23.8501 25.8643 23.8729 25.7531 23.9597 25.6206C24.4062 25.1583 25.4696 24.5808 25.956 25.0147Z" fill="#FFF5AE"/>
<g style="mix-blend-mode:multiply" opacity="0.4">
<path d="M19.9029 22.6211C21.4893 22.6297 23.0619 22.7052 25.0649 22.8075L23.6815 19.5655C23.5702 19.2996 23.3828 19.0725 23.1428 18.9128C22.9029 18.7531 22.621 18.6679 22.3328 18.668H18.8984C19.397 19.9386 19.7345 21.2666 19.9029 22.6211Z" fill="#3498DB"/>
</g>
<g opacity="0.5">
<path opacity="0.5" d="M20.6324 18.8674C20.6338 18.8802 20.6325 18.8932 20.6286 18.9056C20.6247 18.9179 20.6182 18.9292 20.6096 18.9389C20.601 18.9485 20.5904 18.9562 20.5786 18.9615C20.5668 18.9668 20.554 18.9696 20.5411 18.9696H19.5479C19.535 18.9696 19.5222 18.9668 19.5104 18.9615C19.4986 18.9562 19.4881 18.9485 19.4795 18.9389C19.4708 18.9292 19.4644 18.9179 19.4604 18.9056C19.4565 18.8932 19.4552 18.8802 19.4566 18.8674L19.4791 18.668H20.6108L20.6324 18.8674Z" fill="#2C3E50"/>
<path opacity="0.5" d="M20.1317 18.8242H19.958V19.4822H20.1317V18.8242Z" fill="#2C3E50"/>
<path opacity="0.5" d="M21.0554 19.7498C21.0582 19.7748 21.0557 19.8 21.0481 19.824C21.0404 19.8479 21.0278 19.8699 21.0111 19.8886C20.9943 19.9073 20.9738 19.9223 20.9509 19.9326C20.928 19.9428 20.9031 19.9481 20.878 19.9481H19.2117C19.1866 19.9481 19.1617 19.9428 19.1388 19.9326C19.1159 19.9223 19.0954 19.9073 19.0786 19.8886C19.0619 19.8699 19.0493 19.8479 19.0417 19.824C19.034 19.8 19.0315 19.7748 19.0343 19.7498L19.0601 19.5215C19.065 19.4779 19.0858 19.4377 19.1185 19.4085C19.1512 19.3793 19.1936 19.3632 19.2374 19.3633H20.8525C20.8963 19.3632 20.9386 19.3794 20.9713 19.4086C21.004 19.4378 21.0247 19.478 21.0296 19.5215L21.0554 19.7498Z" fill="#2C3E50"/>
</g>
<path d="M33.8991 22.3303H30.8033V10.6901C30.8046 10.5489 30.7499 10.4129 30.6512 10.3119C30.5524 10.2109 30.4177 10.1532 30.2764 10.1514H9.99625C9.85502 10.1532 9.72026 10.2109 9.62151 10.3119C9.52276 10.4129 9.46806 10.5489 9.46942 10.6901V22.1243H6.37322V10.6901C6.36375 9.7189 6.73984 8.78355 7.41903 8.08922C8.09821 7.3949 9.02504 6.99827 9.99625 6.98633H30.2762C31.2475 6.99827 32.1743 7.3949 32.8535 8.08922C33.5327 8.78355 33.9087 9.7189 33.8993 10.6901L33.8991 22.3303Z" fill="#DBDBDB"/>
<path d="M23.6422 10.1523H16.6299V12.7486H23.6422V10.1523Z" fill="#F39C12"/>
<g style="mix-blend-mode:multiply" opacity="0.3">
<path d="M23.6422 10.1523H16.6299V10.8942H23.6422V10.1523Z" fill="#F39C12"/>
</g>
<path d="M15.608 6.68359H15.0371V10.5823H15.608V6.68359Z" fill="#3E586D"/>
<path d="M25.235 6.68359H24.6641V10.5823H25.235V6.68359Z" fill="#3E586D"/>
<path d="M23.6422 6.91211H16.6299V10.3492H23.6422V6.91211Z" fill="#F39C12"/>
<path d="M16.9153 6.75195H16.6299V10.5139H16.9153V6.75195Z" fill="#F1C40F"/>
<path d="M20.2786 6.75195H19.9932V10.5139H20.2786V6.75195Z" fill="#F1C40F"/>
<path d="M23.6419 6.75195H23.3564V10.5139H23.6419V6.75195Z" fill="#F1C40F"/>
<g style="mix-blend-mode:multiply" opacity="0.3">
<path d="M17.4902 11.8086H17.2725V12.7483H17.4902V11.8086Z" fill="#F39C12"/>
</g>
<g style="mix-blend-mode:multiply" opacity="0.3">
<path d="M18.4082 11.8086H18.1904V12.7483H18.4082V11.8086Z" fill="#F39C12"/>
</g>
<g style="mix-blend-mode:multiply" opacity="0.3">
<path d="M19.3262 11.8086H19.1084V12.7483H19.3262V11.8086Z" fill="#F39C12"/>
</g>
<g style="mix-blend-mode:multiply" opacity="0.3">
<path d="M20.2451 11.8086H20.0273V12.7483H20.2451V11.8086Z" fill="#F39C12"/>
</g>
<g style="mix-blend-mode:multiply" opacity="0.3">
<path d="M21.1631 11.8086H20.9453V12.7483H21.1631V11.8086Z" fill="#F39C12"/>
</g>
<g style="mix-blend-mode:multiply" opacity="0.3">
<path d="M22.081 11.8086H21.8633V12.7483H22.081V11.8086Z" fill="#F39C12"/>
</g>
<g style="mix-blend-mode:multiply" opacity="0.3">
<path d="M22.999 11.8086H22.7812V12.7483H22.999V11.8086Z" fill="#F39C12"/>
</g>
<path d="M27.7852 20.8206L30.6849 19.8809V13.2969L27.7852 14.2366V20.8206Z" fill="#F39C12"/>
<g style="mix-blend-mode:multiply" opacity="0.3">
<path d="M30.0391 13.5039L30.6841 13.2949V19.8799L30.0391 20.0889V13.5039Z" fill="#F39C12"/>
</g>
<g style="mix-blend-mode:multiply" opacity="0.3">
<path d="M28.5682 19.9696L27.7861 20.2385V19.9232L28.5682 19.6543V19.9696Z" fill="#F39C12"/>
</g>
<g style="mix-blend-mode:multiply" opacity="0.3">
<path d="M28.5682 18.9559L27.7861 19.2248V18.9095L28.5682 18.6406V18.9559Z" fill="#F39C12"/>
</g>
<g style="mix-blend-mode:multiply" opacity="0.3">
<path d="M28.5682 17.9442L27.7861 18.2131V17.8978L28.5682 17.6289V17.9442Z" fill="#F39C12"/>
</g>
<g style="mix-blend-mode:multiply" opacity="0.3">
<path d="M28.5682 16.9327L27.7861 17.2016V16.8861L28.5682 16.6172V16.9327Z" fill="#F39C12"/>
</g>
<g style="mix-blend-mode:multiply" opacity="0.3">
<path d="M28.5682 15.9188L27.7861 16.1877V15.8724L28.5682 15.6035V15.9188Z" fill="#F39C12"/>
</g>
<g style="mix-blend-mode:multiply" opacity="0.3">
<path d="M28.5682 14.9071L27.7861 15.176V14.8607L28.5682 14.5918V14.9071Z" fill="#F39C12"/>
</g>
<path d="M34.2746 21.2168H30.4609V21.8004H34.2746V21.2168Z" fill="#3E586D"/>
<path d="M34.2746 11.375H30.4609V11.9586H34.2746V11.375Z" fill="#3E586D"/>
<path d="M34.0467 13.0039H30.6846V20.1725H34.0467V13.0039Z" fill="#F39C12"/>
<path d="M34.2071 19.8809H30.5273V20.1728H34.2071V19.8809Z" fill="#F1C40F"/>
<path d="M34.2071 16.4414H30.5273V16.7333H34.2071V16.4414Z" fill="#F1C40F"/>
<path d="M34.2071 13.0039H30.5273V13.2958H34.2071V13.0039Z" fill="#F1C40F"/>
<path d="M12.5013 20.8206L9.60156 19.8809V13.2969L12.5013 14.2366V20.8206Z" fill="#F39C12"/>
<g style="mix-blend-mode:multiply" opacity="0.3">
<path d="M10.2466 13.5051L9.60156 13.2969V19.8818L10.2466 20.0908V13.5051Z" fill="#F39C12"/>
</g>
<path d="M9.82831 21.2168H6.01465V21.8004H9.82831V21.2168Z" fill="#3E586D"/>
<path d="M9.82831 11.375H6.01465V11.9586H9.82831V11.375Z" fill="#3E586D"/>
<path d="M9.60043 13.0039H6.23828V20.1725H9.60043V13.0039Z" fill="#F39C12"/>
<path d="M9.76184 19.8809H6.08203V20.1728H9.76184V19.8809Z" fill="#F1C40F"/>
<path d="M9.76184 16.4414H6.08203V16.7333H9.76184V16.4414Z" fill="#F1C40F"/>
<path d="M9.76184 13.0039H6.08203V13.2958H9.76184V13.0039Z" fill="#F1C40F"/>
<g style="mix-blend-mode:multiply" opacity="0.3">
<path d="M11.7188 19.9696L12.5008 20.2385V19.9232L11.7188 19.6543V19.9696Z" fill="#F39C12"/>
</g>
<g style="mix-blend-mode:multiply" opacity="0.3">
<path d="M11.7188 18.9559L12.5008 19.2248V18.9095L11.7188 18.6406V18.9559Z" fill="#F39C12"/>
</g>
<g style="mix-blend-mode:multiply" opacity="0.3">
<path d="M11.7188 17.9442L12.5008 18.2131V17.8978L11.7188 17.6289V17.9442Z" fill="#F39C12"/>
</g>
<g style="mix-blend-mode:multiply" opacity="0.3">
<path d="M11.7188 16.9327L12.5008 17.2016V16.8861L11.7188 16.6172V16.9327Z" fill="#F39C12"/>
</g>
<g style="mix-blend-mode:multiply" opacity="0.3">
<path d="M11.7188 15.9188L12.5008 16.1877V15.8724L11.7188 15.6035V15.9188Z" fill="#F39C12"/>
</g>
<g style="mix-blend-mode:multiply" opacity="0.3">
<path d="M11.7188 14.9071L12.5008 15.176V14.8607L11.7188 14.5918V14.9071Z" fill="#F39C12"/>
</g>
<path d="M10.0652 22.1211H5.79199V23.3334H10.0652V22.1211Z" fill="#DBDBDB"/>
<path d="M10.4119 27.8848H5.44531V29.1905H10.4119V27.8848Z" fill="#DBDBDB"/>
<path d="M8.61385 28.5959C10.1723 28.5959 11.4357 27.3043 11.4357 25.7111C11.4357 24.1178 10.1723 22.8262 8.61385 22.8262C7.05538 22.8262 5.79199 24.1178 5.79199 25.7111C5.79199 27.3043 7.05538 28.5959 8.61385 28.5959Z" fill="#DBDBDB"/>
<path d="M5.7926 22.8262C5.7926 22.8262 4.41406 23.8264 4.41406 25.5951C4.41406 27.3639 5.44606 28.0564 5.44606 28.0564L9.03397 28.5959V22.8262H5.7926Z" fill="#DBDBDB"/>
<path d="M8.61467 27.9378C9.81763 27.9378 10.7928 26.9409 10.7928 25.7111C10.7928 24.4813 9.81763 23.4844 8.61467 23.4844C7.41171 23.4844 6.43652 24.4813 6.43652 25.7111C6.43652 26.9409 7.41171 27.9378 8.61467 27.9378Z" fill="#3E586D"/>
<path d="M8.67839 23.5371H8.55273V27.9381H8.67839V23.5371Z" fill="#2C3E50"/>
<path d="M8.09754 27.8749L7.97656 27.8404L9.13442 23.6016L9.25539 23.6361L8.09754 27.8749Z" fill="#2C3E50"/>
<path d="M7.51123 27.6264L7.40527 27.5573L9.72001 23.8477L9.82596 23.9167L7.51123 27.6264Z" fill="#2C3E50"/>
<path d="M6.98645 27.1775L6.90723 27.078L10.2454 24.2988L10.3246 24.3983L6.98645 27.1775Z" fill="#2C3E50"/>
<path d="M6.66733 26.6765L6.61719 26.5594L10.5635 24.8008L10.6137 24.9179L6.66733 26.6765Z" fill="#2C3E50"/>
<path d="M6.48514 26.0547L6.4707 25.9272L10.7468 25.4199L10.7612 25.5475L6.48514 26.0547Z" fill="#2C3E50"/>
<path d="M6.48535 25.4175L6.50721 25.291L10.7464 26.058L10.7246 26.1845L6.48535 25.4175Z" fill="#2C3E50"/>
<path d="M6.69141 24.7497L6.75111 24.6367L10.5396 26.7276L10.4799 26.8406L6.69141 24.7497Z" fill="#2C3E50"/>
<path d="M7.02344 24.2566L7.11066 24.1641L10.2098 27.2189L10.1226 27.3114L7.02344 24.2566Z" fill="#2C3E50"/>
<path d="M7.51367 23.8476L7.62333 23.7852L9.71816 27.6291L9.6085 27.6915L7.51367 23.8476Z" fill="#2C3E50"/>
<path d="M7.97852 23.634L8.09949 23.5996L9.25247 27.8398L9.13149 27.8741L7.97852 23.634Z" fill="#2C3E50"/>
<path d="M8.61458 24.2738C8.32884 24.2675 8.04769 24.3464 7.80702 24.5006C7.56634 24.6548 7.37706 24.8771 7.26332 25.1393C7.14958 25.4015 7.11654 25.6917 7.16843 25.9728C7.22031 26.2538 7.35476 26.5131 7.55461 26.7174C7.75447 26.9217 8.01067 27.0618 8.29052 27.1199C8.57037 27.178 8.86118 27.1514 9.12584 27.0435C9.3905 26.9355 9.617 26.7512 9.77644 26.514C9.93588 26.2768 10.021 25.9975 10.021 25.7116C10.0252 25.3345 9.87934 24.9711 9.61559 24.7014C9.35183 24.4318 8.99176 24.278 8.61458 24.2738ZM8.61458 27.0389C8.35102 27.0445 8.09175 26.9715 7.86983 26.8292C7.64792 26.6869 7.47344 26.4817 7.36863 26.2398C7.26382 25.9979 7.23345 25.7303 7.28138 25.4711C7.32931 25.2119 7.45338 24.9728 7.63776 24.7844C7.82213 24.5959 8.05846 24.4667 8.31658 24.4132C8.57471 24.3596 8.84294 24.3842 9.08705 24.4837C9.33116 24.5832 9.54009 24.7532 9.68718 24.972C9.83427 25.1908 9.91286 25.4484 9.91292 25.712C9.91657 26.0601 9.78185 26.3954 9.5384 26.6442C9.29494 26.893 8.96266 27.0349 8.61458 27.0389Z" fill="#C0C2C4"/>
<path d="M8.61399 23.4849C8.17152 23.4752 7.73619 23.5975 7.36355 23.8363C6.9909 24.075 6.69784 24.4194 6.52175 24.8254C6.34567 25.2314 6.29455 25.6807 6.37492 26.1159C6.45529 26.5512 6.66351 26.9526 6.973 27.2689C7.28248 27.5853 7.67921 27.8023 8.11255 27.8922C8.54589 27.9821 8.9962 27.9409 9.406 27.7737C9.81581 27.6066 10.1665 27.3212 10.4134 26.9539C10.6603 26.5866 10.7921 26.154 10.7921 25.7115C10.7985 25.1274 10.5726 24.5647 10.1641 24.1471C9.75565 23.7296 9.19806 23.4914 8.61399 23.4849ZM8.61399 27.7669C8.20548 27.7761 7.8035 27.6633 7.45935 27.443C7.1152 27.2228 6.8445 26.9049 6.68179 26.5301C6.51907 26.1553 6.47174 25.7405 6.54582 25.3386C6.61989 24.9368 6.81203 24.5662 7.0977 24.274C7.38337 23.9818 7.74961 23.7814 8.14968 23.6983C8.54976 23.6153 8.96552 23.6533 9.34389 23.8075C9.72227 23.9618 10.0461 24.2253 10.2741 24.5644C10.502 24.9035 10.6238 25.3028 10.6237 25.7115C10.6296 26.2505 10.4212 26.7698 10.0444 27.1552C9.6675 27.5406 9.15301 27.7606 8.61399 27.7669Z" fill="#C0C2C4"/>
<path d="M34.4988 22.1211H30.2256V23.3334H34.4988V22.1211Z" fill="#DBDBDB"/>
<path d="M34.8455 27.8848H29.8789V29.1905H34.8455V27.8848Z" fill="#DBDBDB"/>
<path d="M31.6763 28.5959C33.2348 28.5959 34.4982 27.3043 34.4982 25.7111C34.4982 24.1178 33.2348 22.8262 31.6763 22.8262C30.1179 22.8262 28.8545 24.1178 28.8545 25.7111C28.8545 27.3043 30.1179 28.5959 31.6763 28.5959Z" fill="#DBDBDB"/>
<path d="M34.499 22.8262C34.499 22.8262 35.8777 23.8264 35.8777 25.5951C35.8777 27.3639 34.8455 28.0564 34.8455 28.0564L31.2578 28.5959V22.8262H34.499Z" fill="#DBDBDB"/>
<path d="M31.6772 27.9378C32.8801 27.9378 33.8553 26.9409 33.8553 25.7111C33.8553 24.4813 32.8801 23.4844 31.6772 23.4844C30.4742 23.4844 29.499 24.4813 29.499 25.7111C29.499 26.9409 30.4742 27.9378 31.6772 27.9378Z" fill="#3E586D"/>
<path d="M31.737 23.5371H31.6113V27.9381H31.737V23.5371Z" fill="#2C3E50"/>
<path d="M32.1932 27.8749L32.3142 27.8404L31.1561 23.6016L31.0352 23.6361L32.1932 27.8749Z" fill="#2C3E50"/>
<path d="M32.7788 27.6274L32.8847 27.5583L30.5698 23.8477L30.4639 23.9167L32.7788 27.6274Z" fill="#2C3E50"/>
<path d="M33.304 27.1773L33.3832 27.0778L30.045 24.2988L29.9658 24.3983L33.304 27.1773Z" fill="#2C3E50"/>
<path d="M33.6231 26.6765L33.6732 26.5594L29.7269 24.8008L29.6768 24.9179L33.6231 26.6765Z" fill="#2C3E50"/>
<path d="M33.8054 26.0547L33.8198 25.9272L29.5437 25.4199L29.5293 25.5475L33.8054 26.0547Z" fill="#2C3E50"/>
<path d="M33.8058 25.4175L33.7839 25.291L29.5449 26.0582L29.5668 26.1847L33.8058 25.4175Z" fill="#2C3E50"/>
<path d="M33.5982 24.7497L33.5385 24.6367L29.75 26.7276L29.8097 26.8406L33.5982 24.7497Z" fill="#2C3E50"/>
<path d="M33.2676 24.2566L33.1804 24.1641L30.0811 27.2189L30.1683 27.3114L33.2676 24.2566Z" fill="#2C3E50"/>
<path d="M32.7771 23.8476L32.6675 23.7852L30.5723 27.6298L30.6819 27.6923L32.7771 23.8476Z" fill="#2C3E50"/>
<path d="M32.3111 23.634L32.1901 23.5996L31.0371 27.8398L31.1581 27.8741L32.3111 23.634Z" fill="#2C3E50"/>
<path d="M30.2696 25.7113C30.2758 25.9881 30.3635 26.2569 30.5217 26.4841C30.68 26.7113 30.9018 26.8867 31.1593 26.9884C31.4168 27.0901 31.6986 27.1135 31.9694 27.0558C32.2402 26.998 32.4879 26.8616 32.6815 26.6637C32.8751 26.4657 33.006 26.2151 33.0577 25.9431C33.1095 25.6711 33.0799 25.3899 32.9725 25.1347C32.8651 24.8795 32.6849 24.6616 32.4542 24.5084C32.2236 24.3552 31.9529 24.2735 31.6761 24.2734C31.2989 24.2777 30.9389 24.4316 30.6752 24.7012C30.4114 24.9708 30.2656 25.3341 30.2696 25.7113ZM30.3777 25.7113C30.3833 25.4557 30.4642 25.2075 30.6102 24.9977C30.7562 24.7879 30.9609 24.6259 31.1987 24.5319C31.4364 24.438 31.6965 24.4163 31.9466 24.4696C32.1966 24.5228 32.4253 24.6487 32.6041 24.8314C32.7828 25.0141 32.9037 25.2455 32.9515 25.4966C32.9994 25.7477 32.972 26.0073 32.8729 26.243C32.7738 26.4786 32.6074 26.6797 32.3945 26.8212C32.1816 26.9626 31.9317 27.0381 31.6761 27.0381C31.328 27.0343 30.9956 26.8923 30.7522 26.6435C30.5087 26.3947 30.374 26.0594 30.3777 25.7113Z" fill="#C0C2C4"/>
<path d="M29.4982 25.7109C29.5076 26.1396 29.6434 26.556 29.8885 26.9079C30.1335 27.2598 30.477 27.5316 30.8758 27.6891C31.2747 27.8466 31.7111 27.883 32.1305 27.7935C32.5499 27.7041 32.9336 27.4929 33.2335 27.1864C33.5333 26.8798 33.7361 26.4916 33.8163 26.0703C33.8965 25.6491 33.8506 25.2135 33.6843 24.8182C33.518 24.423 33.2388 24.0855 32.8816 23.8483C32.5244 23.611 32.1051 23.4844 31.6763 23.4844C31.0923 23.4909 30.5347 23.7291 30.1262 24.1466C29.7177 24.5642 29.4918 25.1268 29.4982 25.7109ZM29.6656 25.7109C29.6743 25.3151 29.7997 24.9307 30.0259 24.6058C30.2522 24.2809 30.5694 24.03 30.9376 23.8846C31.3058 23.7392 31.7088 23.7057 32.096 23.7884C32.4832 23.871 32.8374 24.0661 33.1142 24.3492C33.391 24.6323 33.5781 24.9907 33.652 25.3797C33.7259 25.7686 33.6834 26.1708 33.5297 26.5357C33.3761 26.9005 33.1182 27.212 32.7883 27.4309C32.4584 27.6498 32.0713 27.7665 31.6753 27.7663C31.1363 27.76 30.6219 27.54 30.245 27.1546C29.8682 26.7692 29.6598 26.2499 29.6656 25.7109Z" fill="#C0C2C4"/>
<path d="M17.3817 17.9733C17.3707 17.9734 17.3601 17.9699 17.3513 17.9634C17.3424 17.957 17.3359 17.9479 17.3327 17.9374C17.2303 17.6195 17.153 17.294 17.1015 16.964C17.1126 16.7295 17.1512 16.4972 17.2164 16.2717C17.2846 16.0401 17.323 15.8008 17.3307 15.5595C17.299 15.3781 17.2456 15.2013 17.1717 15.0327C17.08 14.8308 17.0207 14.6157 16.9961 14.3954C16.998 14.1008 17.3212 13.3097 17.335 13.276C17.3374 13.2695 17.341 13.2635 17.3458 13.2585C17.3505 13.2534 17.3562 13.2494 17.3625 13.2466C17.3688 13.2438 17.3757 13.2423 17.3826 13.2422C17.3895 13.2421 17.3964 13.2434 17.4028 13.2461C17.4092 13.2487 17.415 13.2526 17.4198 13.2575C17.4247 13.2624 17.4285 13.2683 17.431 13.2748C17.4335 13.2812 17.4347 13.2881 17.4345 13.295C17.4343 13.3019 17.4327 13.3087 17.4298 13.315C17.4263 13.323 17.1007 14.1212 17.0981 14.3962C17.1238 14.6036 17.181 14.8058 17.2677 14.996C17.346 15.1736 17.4016 15.3604 17.4332 15.5519C17.4266 15.8038 17.3872 16.0538 17.3161 16.2955C17.254 16.5121 17.2163 16.735 17.2039 16.9601C17.2556 17.281 17.3314 17.5976 17.4306 17.9072C17.4326 17.9136 17.4333 17.9203 17.4327 17.927C17.4321 17.9337 17.4301 17.9402 17.427 17.9461C17.4239 17.952 17.4196 17.9573 17.4144 17.9616C17.4093 17.9658 17.4033 17.969 17.3969 17.971C17.392 17.9726 17.3868 17.9734 17.3817 17.9733Z" fill="white"/>
<path d="M18.2994 17.973C18.2884 17.9733 18.2776 17.9699 18.2687 17.9634C18.2598 17.957 18.2532 17.9478 18.2499 17.9373C18.1475 17.6194 18.0702 17.2939 18.0186 16.9639C18.0298 16.7294 18.0684 16.4971 18.1336 16.2716C18.2017 16.04 18.24 15.8007 18.2475 15.5594C18.2159 15.378 18.1626 15.2011 18.0887 15.0326C17.9968 14.8307 17.9376 14.6157 17.9131 14.3953C17.915 14.1006 18.2382 13.3096 18.252 13.2759C18.2572 13.2634 18.2672 13.2534 18.2796 13.2482C18.2921 13.2429 18.3062 13.2428 18.3187 13.2478C18.325 13.2503 18.3307 13.2541 18.3354 13.2588C18.3402 13.2636 18.344 13.2692 18.3466 13.2754C18.3492 13.2817 18.3505 13.2883 18.3506 13.2951C18.3506 13.3018 18.3492 13.3085 18.3466 13.3147C18.3433 13.3227 18.0177 14.1209 18.0149 14.3959C18.0406 14.6033 18.0978 14.8055 18.1845 14.9957C18.2627 15.1733 18.3182 15.3601 18.3498 15.5516C18.3433 15.8035 18.304 16.0535 18.2327 16.2952C18.1706 16.5118 18.1329 16.7347 18.1205 16.9598C18.1722 17.2807 18.248 17.5973 18.3472 17.9069C18.3492 17.9133 18.3499 17.92 18.3493 17.9267C18.3487 17.9334 18.3467 17.9399 18.3436 17.9458C18.3405 17.9517 18.3362 17.957 18.331 17.9613C18.3259 17.9655 18.3199 17.9687 18.3135 17.9707C18.3089 17.9722 18.3042 17.9729 18.2994 17.973Z" fill="white"/>
<path d="M19.2176 17.9734C19.2067 17.9735 19.196 17.97 19.1872 17.9636C19.1783 17.9571 19.1718 17.948 19.1686 17.9375C19.0662 17.6196 18.9889 17.2941 18.9374 16.9641C18.9485 16.7296 18.9871 16.4973 19.0523 16.2718C19.1204 16.0402 19.1587 15.8009 19.1663 15.5596C19.1347 15.3782 19.0815 15.2014 19.0076 15.0327C18.9158 14.8309 18.8565 14.6157 18.832 14.3953C18.834 14.1007 19.1571 13.3096 19.171 13.2759C19.1762 13.2634 19.1861 13.2534 19.1986 13.2482C19.2111 13.2429 19.2251 13.2428 19.2377 13.2478C19.2439 13.2503 19.2496 13.2541 19.2544 13.2588C19.2592 13.2636 19.263 13.2692 19.2656 13.2754C19.2682 13.2817 19.2695 13.2883 19.2695 13.2951C19.2695 13.3018 19.2682 13.3085 19.2656 13.3147C19.2623 13.3227 18.9364 14.1209 18.9339 14.3959C18.9596 14.6034 19.0167 14.8058 19.1034 14.9961C19.1817 15.1736 19.2372 15.3603 19.2687 15.5518C19.2623 15.8037 19.2229 16.0537 19.1516 16.2954C19.0895 16.512 19.0519 16.7349 19.0394 16.96C19.0911 17.2809 19.1669 17.5975 19.2662 17.9071C19.2682 17.9135 19.2689 17.9202 19.2682 17.9269C19.2676 17.9336 19.2657 17.9401 19.2626 17.946C19.2594 17.9519 19.2551 17.9572 19.25 17.9615C19.2448 17.9657 19.2388 17.9689 19.2324 17.9709C19.2276 17.9725 19.2226 17.9734 19.2176 17.9734Z" fill="white"/>
<path d="M20.1358 17.9734C20.1248 17.9735 20.1142 17.97 20.1053 17.9636C20.0965 17.9571 20.09 17.948 20.0868 17.9375C19.9844 17.6196 19.9071 17.2941 19.8556 16.9641C19.8667 16.7296 19.9053 16.4973 19.9705 16.2718C20.0386 16.0402 20.0769 15.8009 20.0844 15.5596C20.0529 15.3782 19.9996 15.2013 19.9256 15.0327C19.8339 14.8308 19.7746 14.6157 19.75 14.3953C19.7521 14.1007 20.0749 13.3096 20.0887 13.2759C20.094 13.2634 20.1039 13.2534 20.1164 13.2482C20.1288 13.2429 20.1429 13.2428 20.1555 13.2478C20.1617 13.2503 20.1674 13.254 20.1722 13.2588C20.177 13.2635 20.1808 13.2692 20.1835 13.2754C20.1861 13.2816 20.1874 13.2883 20.1874 13.295C20.1875 13.3018 20.1861 13.3085 20.1836 13.3147C20.1802 13.3227 19.8544 14.1209 19.8519 14.3959C19.8775 14.6034 19.9347 14.8058 20.0214 14.9961C20.0996 15.1736 20.1552 15.3603 20.1867 15.5518C20.1803 15.8037 20.141 16.0537 20.0696 16.2954C20.0075 16.512 19.97 16.735 19.9576 16.96C20.0093 17.2809 20.0851 17.5975 20.1843 17.9071C20.1883 17.9201 20.1869 17.9341 20.1806 17.946C20.1742 17.958 20.1634 17.9669 20.1504 17.9709C20.1457 17.9725 20.1407 17.9734 20.1358 17.9734Z" fill="white"/>
<path d="M21.0537 17.9735C21.0428 17.9736 21.0321 17.9701 21.0233 17.9637C21.0145 17.9572 21.008 17.9481 21.0048 17.9376C20.9023 17.6197 20.825 17.2942 20.7735 16.9642C20.7847 16.7297 20.8232 16.4974 20.8885 16.2719C20.9565 16.0403 20.9948 15.8009 21.0024 15.5597C20.9709 15.3783 20.9175 15.2014 20.8436 15.0328C20.7517 14.831 20.6925 14.6158 20.668 14.3954C20.6699 14.1007 20.9928 13.3097 21.0067 13.276C21.0091 13.2695 21.0127 13.2635 21.0174 13.2585C21.0222 13.2534 21.0279 13.2494 21.0342 13.2466C21.0405 13.2438 21.0474 13.2423 21.0543 13.2422C21.0612 13.2421 21.0681 13.2434 21.0745 13.246C21.0809 13.2487 21.0867 13.2526 21.0915 13.2575C21.0964 13.2624 21.1002 13.2683 21.1027 13.2747C21.1052 13.2812 21.1064 13.2881 21.1062 13.295C21.106 13.3019 21.1044 13.3087 21.1015 13.315C21.0982 13.323 20.7724 14.1212 20.7698 14.3962C20.7955 14.6037 20.8527 14.8061 20.9394 14.9964C21.0176 15.1739 21.0731 15.3606 21.1047 15.5521C21.0982 15.804 21.0588 16.054 20.9876 16.2957C20.9255 16.5123 20.8879 16.7352 20.8756 16.9603C20.9272 17.2812 21.003 17.5978 21.1023 17.9074C21.1062 17.9203 21.1048 17.9343 21.0985 17.9463C21.0921 17.9582 21.0813 17.9672 21.0684 17.9712C21.0636 17.9727 21.0587 17.9735 21.0537 17.9735Z" fill="white"/>
<path d="M21.9727 17.9733C21.9617 17.9734 21.9511 17.97 21.9422 17.9635C21.9334 17.957 21.9269 17.9479 21.9237 17.9374C21.8211 17.6195 21.7437 17.294 21.6923 16.964C21.7036 16.7295 21.7422 16.4972 21.8074 16.2717C21.8754 16.0401 21.9137 15.8008 21.9214 15.5595C21.8898 15.3781 21.8365 15.2012 21.7625 15.0327C21.6707 14.8308 21.6114 14.6158 21.5869 14.3954C21.5889 14.1008 21.9118 13.3097 21.9256 13.276C21.928 13.2695 21.9317 13.2635 21.9364 13.2585C21.9411 13.2534 21.9468 13.2494 21.9531 13.2466C21.9595 13.2438 21.9663 13.2423 21.9732 13.2422C21.9801 13.2421 21.987 13.2434 21.9934 13.2461C21.9998 13.2487 22.0056 13.2526 22.0105 13.2575C22.0153 13.2624 22.0191 13.2683 22.0216 13.2748C22.0242 13.2812 22.0254 13.2881 22.0252 13.295C22.025 13.3019 22.0234 13.3087 22.0205 13.315C22.0172 13.323 21.6913 14.1212 21.6888 14.3962C21.7144 14.6036 21.7716 14.8058 21.8583 14.996C21.9365 15.1736 21.9921 15.3604 22.0236 15.5519C22.0171 15.8038 21.9778 16.0538 21.9065 16.2955C21.8445 16.5121 21.8069 16.7351 21.7943 16.9601C21.8461 17.281 21.9219 17.5976 22.0211 17.9072C22.023 17.9136 22.0238 17.9203 22.0231 17.927C22.0225 17.9337 22.0206 17.9402 22.0174 17.9461C22.0143 17.952 22.01 17.9573 22.0049 17.9616C21.9997 17.9658 21.9937 17.969 21.9873 17.971C21.9826 17.9725 21.9776 17.9733 21.9727 17.9733Z" fill="white"/>
<path d="M22.8897 17.9734C22.8787 17.9735 22.8681 17.97 22.8592 17.9635C22.8504 17.9571 22.8439 17.9479 22.8407 17.9375C22.7382 17.6195 22.6608 17.2941 22.6093 16.964C22.6206 16.7296 22.6592 16.4972 22.7244 16.2717C22.7925 16.0401 22.8308 15.8008 22.8383 15.5595C22.8068 15.3782 22.7535 15.2013 22.6795 15.0327C22.5877 14.8308 22.5284 14.6157 22.5039 14.3952C22.5059 14.1006 22.829 13.3096 22.8424 13.2758C22.8478 13.2634 22.8577 13.2534 22.8702 13.2482C22.8827 13.243 22.8968 13.2428 22.9094 13.2477C22.9156 13.2503 22.9213 13.254 22.9261 13.2588C22.9309 13.2635 22.9346 13.2692 22.9372 13.2754C22.9398 13.2816 22.9412 13.2883 22.9412 13.295C22.9412 13.3018 22.9399 13.3084 22.9373 13.3147C22.934 13.3227 22.6081 14.1209 22.6056 14.3958C22.6312 14.6034 22.6883 14.8058 22.7751 14.996C22.8534 15.1736 22.9089 15.3603 22.9404 15.5517C22.9339 15.8036 22.8946 16.0535 22.8233 16.2951C22.7612 16.5118 22.7235 16.7348 22.7109 16.9599C22.7627 17.2809 22.8385 17.5975 22.9379 17.907C22.9418 17.92 22.9405 17.934 22.9342 17.9459C22.9278 17.9579 22.917 17.9669 22.9041 17.9709C22.8994 17.9724 22.8946 17.9733 22.8897 17.9734Z" fill="white"/>
</svg>
