<svg width="206" height="205" viewBox="0 0 206 205" fill="none" xmlns="http://www.w3.org/2000/svg">
<path d="M103.24 0H102.241C45.9082 0 0.241211 45.667 0.241211 102V102.999C0.241211 159.332 45.9082 204.999 102.241 204.999H103.24C159.573 204.999 205.24 159.332 205.24 102.999V102C205.24 45.667 159.573 0 103.24 0Z" fill="#40CCED"/>
<path d="M82.695 108.232C82.5513 108.233 82.4076 108.225 82.265 108.207C81.2429 107.955 80.2585 107.569 79.337 107.06C78.406 106.54 77.4061 106.154 76.367 105.913C75.6234 105.94 74.8884 106.081 74.188 106.332C73.32 106.661 72.3933 106.808 71.466 106.762C70.215 106.518 66.883 104.205 66.743 104.106C66.7148 104.086 66.6907 104.061 66.6722 104.032C66.6536 104.003 66.641 103.971 66.6349 103.937C66.6289 103.903 66.6296 103.868 66.637 103.835C66.6444 103.801 66.6583 103.769 66.678 103.741C66.6977 103.713 66.7228 103.689 66.7518 103.67C66.7808 103.652 66.8132 103.639 66.847 103.633C66.8809 103.627 66.9157 103.628 66.9493 103.635C66.9829 103.642 67.0148 103.656 67.043 103.676C68.4433 104.709 69.9617 105.572 71.566 106.246C72.4112 106.272 73.2532 106.13 74.043 105.828C74.8037 105.551 75.6054 105.403 76.415 105.39C77.5178 105.633 78.5789 106.038 79.564 106.59C80.439 107.07 81.3701 107.439 82.336 107.69C83.6634 107.667 84.9855 107.517 86.284 107.241C86.3183 107.233 86.3539 107.232 86.3886 107.238C86.4233 107.244 86.4564 107.257 86.486 107.276C86.5156 107.295 86.541 107.32 86.5607 107.35C86.5804 107.379 86.594 107.412 86.6008 107.446C86.6075 107.481 86.6072 107.516 86.5998 107.551C86.5925 107.585 86.5783 107.618 86.558 107.647C86.5378 107.676 86.512 107.7 86.4821 107.719C86.4522 107.737 86.4188 107.75 86.384 107.755C85.1676 108.004 83.9346 108.163 82.695 108.232Z" fill="white"/>
<path d="M82.697 103.13C82.5526 103.132 82.4082 103.124 82.265 103.105C81.2426 102.853 80.2579 102.468 79.336 101.958C78.405 101.438 77.4051 101.053 76.366 100.812C75.6226 100.838 74.8877 100.979 74.188 101.232C73.3204 101.562 72.3933 101.708 71.466 101.66C70.215 101.416 66.883 99.1035 66.743 99.0045C66.7148 98.9848 66.6907 98.9597 66.6722 98.9307C66.6536 98.9017 66.641 98.8693 66.6349 98.8354C66.6289 98.8016 66.6296 98.7668 66.637 98.7332C66.6444 98.6996 66.6583 98.6677 66.678 98.6395C66.6977 98.6113 66.7228 98.5872 66.7518 98.5686C66.7808 98.5501 66.8132 98.5374 66.847 98.5314C66.8809 98.5254 66.9157 98.5261 66.9493 98.5335C66.9829 98.5409 67.0148 98.5548 67.043 98.5745C68.4435 99.6076 69.9618 100.471 71.566 101.146C72.4113 101.171 73.2532 101.029 74.043 100.726C74.8039 100.451 75.605 100.303 76.414 100.289C77.5169 100.532 78.5779 100.936 79.563 101.488C80.4383 101.968 81.3697 102.338 82.336 102.588C83.6636 102.569 84.986 102.418 86.284 102.139C86.3183 102.131 86.3539 102.13 86.3886 102.137C86.4233 102.143 86.4564 102.156 86.486 102.175C86.5156 102.194 86.541 102.219 86.5607 102.248C86.5804 102.277 86.594 102.31 86.6008 102.345C86.6075 102.379 86.6072 102.415 86.5998 102.449C86.5925 102.484 86.5783 102.516 86.558 102.545C86.5378 102.574 86.512 102.598 86.4821 102.617C86.4522 102.636 86.4188 102.648 86.384 102.653C85.1683 102.902 83.936 103.062 82.697 103.13Z" fill="white"/>
<path d="M82.6978 97.7406C82.5535 97.7422 82.4091 97.7342 82.2658 97.7166C81.2436 97.4638 80.2589 97.0781 79.3368 96.5696C78.4056 96.0496 77.4058 95.6635 76.3668 95.4226C75.6236 95.4491 74.8889 95.5905 74.1888 95.8416C73.3212 96.1722 72.3941 96.3183 71.4668 96.2706C70.2158 96.0286 66.8838 93.7136 66.7438 93.6156C66.6876 93.5754 66.6495 93.5147 66.6377 93.4466C66.6259 93.3785 66.6413 93.3084 66.6808 93.2517C66.7202 93.1949 66.7804 93.1559 66.8483 93.1432C66.9163 93.1304 66.9865 93.145 67.0438 93.1836C68.4438 94.2175 69.9622 95.0807 71.5668 95.7546C72.4119 95.7794 73.2537 95.6374 74.0438 95.3366C74.8051 95.0626 75.6059 94.9146 76.4148 94.8986C77.5177 95.142 78.5787 95.5463 79.5638 96.0986C80.4391 96.5785 81.3706 96.948 82.3368 97.1986C83.6643 97.1785 84.9867 97.0281 86.2848 96.7496C86.3191 96.7416 86.3547 96.7406 86.3894 96.7466C86.4241 96.7527 86.4572 96.7657 86.4868 96.7848C86.5164 96.804 86.5418 96.8289 86.5615 96.8581C86.5812 96.8873 86.5948 96.9201 86.6016 96.9547C86.6083 96.9893 86.608 97.0249 86.6006 97.0593C86.5933 97.0938 86.5791 97.1264 86.5589 97.1552C86.5386 97.1841 86.5128 97.2085 86.4829 97.2272C86.453 97.2458 86.4196 97.2582 86.3848 97.2636C85.169 97.5118 83.9368 97.6713 82.6978 97.7406Z" fill="white"/>
<path d="M82.6955 92.6438C82.5517 92.6456 82.408 92.6373 82.2655 92.6188C81.2436 92.3664 80.2592 91.9811 79.3375 91.4728C78.4065 90.9524 77.4066 90.5663 76.3675 90.3258C75.6238 90.3518 74.8887 90.4931 74.1885 90.7448C73.3205 91.0744 72.3937 91.2205 71.4665 91.1738C70.2155 90.9298 66.8835 88.6168 66.7435 88.5178C66.7151 88.4982 66.6909 88.4732 66.6723 88.4442C66.6537 88.4152 66.6409 88.3828 66.6349 88.3489C66.6289 88.3149 66.6296 88.2802 66.6371 88.2465C66.6446 88.2129 66.6586 88.181 66.6785 88.1528C66.7184 88.096 66.7792 88.0573 66.8476 88.0451C66.916 88.0329 66.9864 88.0483 67.0435 88.0878C68.4437 89.1214 69.9621 89.9845 71.5665 90.6588C72.4117 90.684 73.2535 90.5416 74.0435 90.2398C74.804 89.9622 75.6059 89.8145 76.4155 89.8028C77.5183 90.0462 78.5794 90.4505 79.5645 91.0028C80.4392 91.4831 81.3704 91.8526 82.3365 92.1028C83.6639 92.0819 84.9862 91.9315 86.2845 91.6538C86.3188 91.6458 86.3543 91.6448 86.389 91.6509C86.4237 91.6569 86.4569 91.6699 86.4864 91.689C86.516 91.7082 86.5414 91.7331 86.5611 91.7623C86.5809 91.7915 86.5945 91.8244 86.6012 91.8589C86.6079 91.8935 86.6076 91.9291 86.6003 91.9636C86.593 91.998 86.5787 92.0306 86.5585 92.0595C86.5383 92.0883 86.5124 92.1127 86.4825 92.1314C86.4526 92.15 86.4193 92.1624 86.3845 92.1678C85.168 92.4158 83.9351 92.5748 82.6955 92.6438Z" fill="white"/>
<path d="M82.6955 87.2548C82.5517 87.2561 82.4081 87.2477 82.2655 87.2298C81.2434 86.9775 80.259 86.5918 79.3375 86.0828C78.4064 85.5627 77.4065 85.1769 76.3675 84.9368C75.624 84.9638 74.889 85.1052 74.1885 85.3558C73.3205 85.6853 72.3937 85.8314 71.4665 85.7848C70.2155 85.5408 66.8835 83.2278 66.7435 83.1288C66.7151 83.1092 66.6909 83.0841 66.6723 83.0551C66.6537 83.0262 66.6409 82.9937 66.6349 82.9598C66.6289 82.9259 66.6296 82.8911 66.6371 82.8574C66.6446 82.8238 66.6586 82.7919 66.6785 82.7638C66.7186 82.7071 66.7793 82.6686 66.8476 82.6564C66.9159 82.6443 66.9863 82.6595 67.0435 82.6988C68.444 83.7319 69.9623 84.5949 71.5665 85.2698C72.4118 85.296 73.2538 85.1535 74.0435 84.8508C74.8044 84.5743 75.606 84.4262 76.4155 84.4128C77.5183 84.6561 78.5794 85.0605 79.5645 85.6128C80.4395 86.0926 81.3706 86.4621 82.3365 86.7128C83.664 86.6923 84.9863 86.5419 86.2845 86.2638C86.3188 86.2558 86.3543 86.2548 86.389 86.2608C86.4237 86.2669 86.4569 86.2798 86.4864 86.299C86.516 86.3181 86.5414 86.343 86.5611 86.3722C86.5809 86.4014 86.5945 86.4343 86.6012 86.4689C86.6079 86.5035 86.6076 86.539 86.6003 86.5735C86.593 86.6079 86.5787 86.6406 86.5585 86.6694C86.5383 86.6982 86.5124 86.7227 86.4825 86.7413C86.4526 86.7599 86.4193 86.7723 86.3845 86.7778C85.168 87.0261 83.9351 87.1855 82.6955 87.2548Z" fill="white"/>
<path d="M82.6975 82.1552C82.5531 82.157 82.4087 82.1486 82.2655 82.1302C81.2431 81.8778 80.2583 81.4922 79.3365 80.9832C78.4052 80.4635 77.4054 80.0777 76.3665 79.8372C75.6232 79.8637 74.8885 80.005 74.1885 80.2562C73.3207 80.5862 72.3937 80.7323 71.4665 80.6852C70.2155 80.4412 66.8835 78.1282 66.7435 78.0292C66.7151 78.0096 66.6909 77.9846 66.6723 77.9556C66.6537 77.9266 66.6409 77.8941 66.6349 77.8602C66.6289 77.8263 66.6296 77.7915 66.6371 77.7578C66.6446 77.7242 66.6586 77.6923 66.6785 77.6642C66.7186 77.6075 66.7793 77.569 66.8476 77.5568C66.9159 77.5447 66.9863 77.5599 67.0435 77.5992C68.4437 78.6327 69.9621 79.4958 71.5665 80.1702C72.4116 80.1942 73.2533 80.0519 74.0435 79.7512C74.8044 79.4762 75.6055 79.3286 76.4145 79.3142C77.5175 79.5571 78.5786 79.9614 79.5635 80.5142C80.4387 80.9942 81.3702 81.3637 82.3365 81.6142C83.6639 81.5929 84.9862 81.4425 86.2845 81.1652C86.3188 81.1572 86.3543 81.1561 86.389 81.1622C86.4237 81.1683 86.4569 81.1812 86.4864 81.2004C86.516 81.2195 86.5414 81.2445 86.5611 81.2737C86.5809 81.3028 86.5945 81.3357 86.6012 81.3703C86.6079 81.4048 86.6076 81.4404 86.6003 81.4749C86.593 81.5093 86.5787 81.542 86.5585 81.5708C86.5383 81.5996 86.5124 81.6241 86.4825 81.6427C86.4526 81.6613 86.4193 81.6737 86.3845 81.6792C85.1687 81.9272 83.9364 82.0863 82.6975 82.1552Z" fill="white"/>
<path d="M124.057 108.428C122.848 108.369 121.645 108.223 120.457 107.994C120.389 107.981 120.328 107.941 120.289 107.883C120.25 107.826 120.236 107.755 120.249 107.686C120.262 107.618 120.302 107.558 120.36 107.519C120.418 107.48 120.489 107.465 120.557 107.478C121.848 107.74 123.162 107.874 124.479 107.878C125.441 107.614 126.367 107.233 127.236 106.742C128.213 106.18 129.267 105.765 130.364 105.508C131.168 105.51 131.965 105.647 132.723 105.915C133.509 106.207 134.346 106.339 135.184 106.303C136.782 105.608 138.293 104.727 139.684 103.677C139.712 103.654 139.744 103.636 139.779 103.626C139.814 103.616 139.851 103.613 139.887 103.617C139.923 103.622 139.958 103.634 139.989 103.653C140.02 103.672 140.047 103.697 140.068 103.727C140.089 103.756 140.103 103.79 140.11 103.826C140.117 103.862 140.117 103.898 140.109 103.934C140.101 103.969 140.086 104.003 140.064 104.032C140.043 104.062 140.016 104.086 139.984 104.104C139.844 104.204 136.533 106.558 135.29 106.816C134.369 106.875 133.446 106.739 132.582 106.416C131.886 106.173 131.156 106.041 130.419 106.024C129.385 106.279 128.392 106.677 127.469 107.207C126.554 107.727 125.575 108.125 124.557 108.391C124.391 108.416 124.224 108.428 124.057 108.428Z" fill="white"/>
<path d="M124.058 103.33C122.849 103.269 121.646 103.124 120.458 102.895C120.392 102.879 120.334 102.839 120.297 102.782C120.26 102.725 120.247 102.655 120.26 102.589C120.273 102.522 120.311 102.463 120.366 102.424C120.422 102.385 120.491 102.368 120.558 102.379C121.849 102.641 123.163 102.775 124.48 102.779C125.443 102.516 126.369 102.135 127.238 101.644C128.214 101.081 129.268 100.665 130.366 100.409C131.17 100.411 131.968 100.549 132.726 100.817C133.512 101.108 134.348 101.24 135.186 101.205C136.784 100.509 138.294 99.6274 139.686 98.5778C139.714 98.5542 139.746 98.5367 139.781 98.5264C139.816 98.5161 139.852 98.5131 139.889 98.5178C139.925 98.5224 139.959 98.5345 139.991 98.5533C140.022 98.5721 140.049 98.5972 140.07 98.627C140.091 98.6568 140.105 98.6906 140.112 98.7263C140.119 98.762 140.119 98.7988 140.111 98.8344C140.103 98.8699 140.088 98.9034 140.066 98.9328C140.045 98.9621 140.017 98.9866 139.986 99.0048C139.846 99.1048 136.535 101.459 135.292 101.718C134.371 101.776 133.449 101.64 132.585 101.318C131.889 101.072 131.159 100.939 130.421 100.925C129.386 101.179 128.393 101.578 127.47 102.109C126.556 102.629 125.577 103.027 124.559 103.292C124.393 103.317 124.226 103.33 124.058 103.33Z" fill="white"/>
<path d="M124.058 97.9422C122.85 97.8821 121.647 97.7368 120.458 97.5072C120.39 97.494 120.33 97.4541 120.291 97.3964C120.252 97.3388 120.238 97.268 120.251 97.1997C120.264 97.1314 120.304 97.0712 120.362 97.0323C120.419 96.9934 120.49 96.979 120.558 96.9922C121.85 97.2532 123.163 97.3872 124.48 97.3922C125.443 97.1288 126.369 96.7476 127.238 96.2572C128.215 95.6947 129.269 95.2786 130.366 95.0222C131.171 95.0231 131.969 95.1611 132.726 95.4302C133.513 95.7213 134.349 95.8529 135.186 95.8172C136.785 95.1221 138.295 94.2403 139.686 93.1902C139.743 93.1593 139.809 93.1504 139.872 93.1652C139.935 93.1799 139.99 93.2173 140.028 93.2702C140.065 93.3232 140.081 93.3879 140.073 93.4521C140.066 93.5163 140.035 93.5754 139.986 93.6182C139.846 93.7182 136.535 96.0722 135.292 96.3322C134.372 96.3901 133.45 96.2538 132.585 95.9322C131.89 95.6866 131.159 95.5539 130.421 95.5392C129.387 95.7935 128.394 96.1921 127.47 96.7232C126.556 97.2429 125.577 97.6406 124.559 97.9062C124.394 97.931 124.226 97.943 124.058 97.9422Z" fill="white"/>
<path d="M124.057 92.8394C122.849 92.7793 121.646 92.6346 120.457 92.4064C120.424 92.3999 120.391 92.3867 120.363 92.3677C120.334 92.3487 120.309 92.3242 120.29 92.2957C120.271 92.2671 120.257 92.235 120.25 92.2013C120.244 92.1675 120.243 92.1327 120.25 92.0989C120.256 92.0651 120.27 92.0329 120.289 92.0042C120.308 91.9754 120.332 91.9508 120.361 91.9315C120.389 91.9122 120.421 91.8987 120.455 91.8919C120.489 91.885 120.524 91.8848 120.557 91.8914C121.848 92.1536 123.162 92.2875 124.479 92.2914C125.441 92.0275 126.367 91.6463 127.236 91.1564C128.213 90.5941 129.267 90.178 130.364 89.9214C131.168 89.9222 131.966 90.0602 132.723 90.3294C133.51 90.6201 134.346 90.7523 135.184 90.7184C136.783 90.0228 138.293 89.1411 139.684 88.0914C139.712 88.0679 139.745 88.0504 139.779 88.0401C139.814 88.0297 139.851 88.0268 139.887 88.0314C139.923 88.0361 139.958 88.0482 139.989 88.067C140.02 88.0858 140.047 88.1109 140.068 88.1407C140.089 88.1705 140.104 88.2043 140.111 88.24C140.118 88.2757 140.117 88.3125 140.11 88.348C140.102 88.3836 140.087 88.4171 140.065 88.4464C140.043 88.4757 140.016 88.5003 139.984 88.5184C139.844 88.6184 136.533 90.9734 135.29 91.2324C134.37 91.2913 133.447 91.155 132.582 90.8324C131.887 90.5885 131.157 90.4559 130.419 90.4394C129.385 90.6938 128.392 91.0924 127.469 91.6234C126.554 92.1426 125.575 92.5403 124.557 92.8064C124.392 92.83 124.225 92.841 124.057 92.8394Z" fill="white"/>
<path d="M124.057 87.4518C122.848 87.3913 121.645 87.2463 120.457 87.0178C120.391 87.0023 120.333 86.9617 120.296 86.9047C120.259 86.8476 120.246 86.7785 120.259 86.7117C120.272 86.645 120.31 86.5859 120.366 86.5467C120.421 86.5076 120.49 86.4915 120.557 86.5018C121.848 86.7636 123.162 86.8976 124.479 86.9018C125.441 86.6379 126.367 86.2567 127.236 85.7668C128.212 85.2041 129.266 84.788 130.364 84.5318C131.168 84.5343 131.966 84.6719 132.724 84.9388C133.51 85.2296 134.346 85.3615 135.184 85.3268C136.782 84.6316 138.292 83.7502 139.684 82.7008C139.712 82.6773 139.744 82.6598 139.779 82.6494C139.814 82.6391 139.85 82.6362 139.887 82.6408C139.923 82.6454 139.957 82.6575 139.989 82.6764C140.02 82.6952 140.047 82.7203 140.068 82.7501C140.089 82.7798 140.103 82.8137 140.11 82.8494C140.117 82.8851 140.117 82.9219 140.109 82.9574C140.101 82.993 140.086 83.0265 140.064 83.0558C140.043 83.0852 140.015 83.1097 139.984 83.1278C139.844 83.2278 136.533 85.5818 135.29 85.8398C134.369 85.8981 133.447 85.7618 132.583 85.4398C131.886 85.1969 131.156 85.0647 130.419 85.0478C129.385 85.3025 128.392 85.7007 127.469 86.2308C126.554 86.7508 125.575 87.1489 124.557 87.4148C124.391 87.4393 124.224 87.4516 124.057 87.4518Z" fill="white"/>
<path d="M124.06 82.3512C122.851 82.2909 121.648 82.1462 120.46 81.9182C120.394 81.9027 120.336 81.8621 120.299 81.8051C120.262 81.748 120.249 81.6789 120.262 81.6121C120.275 81.5454 120.313 81.4862 120.368 81.4471C120.424 81.408 120.493 81.3919 120.56 81.4022C121.851 81.663 123.165 81.797 124.483 81.8022C125.445 81.539 126.37 81.1578 127.239 80.6672C128.215 80.1045 129.269 79.6887 130.367 79.4332C131.171 79.4357 131.968 79.5733 132.727 79.8402C133.513 80.1319 134.349 80.2638 135.187 80.2282C136.785 79.5331 138.296 78.6512 139.687 77.6012C139.715 77.5777 139.747 77.5602 139.782 77.5498C139.817 77.5395 139.853 77.5366 139.89 77.5412C139.926 77.5458 139.96 77.5579 139.992 77.5767C140.023 77.5956 140.05 77.6207 140.071 77.6504C140.091 77.6802 140.106 77.7141 140.113 77.7498C140.12 77.7855 140.12 77.8223 140.112 77.8578C140.104 77.8934 140.089 77.9269 140.067 77.9562C140.046 77.9855 140.018 78.01 139.987 78.0282C139.847 78.1282 136.536 80.4822 135.293 80.7412C134.372 80.8001 133.45 80.6638 132.586 80.3412C131.89 80.097 131.159 79.9644 130.422 79.9482C129.387 80.2025 128.394 80.601 127.471 81.1322C126.556 81.6524 125.578 82.0502 124.56 82.3152C124.394 82.3394 124.227 82.3514 124.06 82.3512Z" fill="white"/>
<path d="M72.2012 115.988L74.0292 118.096L75.0602 115.988L72.8112 115.098L72.2012 115.988Z" fill="#1B2533"/>
<path d="M64.7332 116.035C64.8442 114.917 69.4852 110.788 71.7802 111.443C74.0752 112.098 73.6352 116.66 71.7612 117.06C69.8872 117.46 64.6222 117.152 64.7332 116.035Z" fill="#1B2533"/>
<path d="M133.38 115.988L131.552 118.096L130.521 115.988L132.77 115.098L133.38 115.988Z" fill="#1B2533"/>
<path d="M140.848 116.035C140.737 114.917 136.096 110.788 133.801 111.443C131.506 112.098 131.946 116.66 133.82 117.06C135.694 117.46 140.961 117.152 140.848 116.035Z" fill="#1B2533"/>
<path d="M73.2354 118.433L82.4353 98.9456C83.1313 97.4708 84.2322 96.2242 85.6097 95.3513C86.9872 94.4784 88.5846 94.0152 90.2153 94.0156H116.173C117.863 94.0152 119.515 94.5126 120.924 95.4456C122.333 96.3785 123.435 97.7058 124.094 99.2616L132.216 118.433C109.705 120.672 96.3884 119.95 73.2354 118.433Z" fill="#F1C40F"/>
<path d="M138.507 123.352C138.154 122.608 102.687 124.545 102.687 124.545C102.687 124.545 67.1874 123.545 66.8424 123.989C65.9774 124.945 65.7664 139.376 71.0974 140.814C76.6264 142.314 80.6744 143.532 102.724 143.714C124.773 143.527 128.824 142.309 134.35 140.814C139.876 139.319 138.859 124.096 138.507 123.352Z" fill="#F39C12"/>
<path d="M77.0361 116.93L85.0471 99.9931C85.6547 98.7102 86.6138 97.626 87.8131 96.8666C89.0124 96.1072 90.4026 95.7038 91.8221 95.7031H114.443C115.914 95.7026 117.353 96.1352 118.58 96.947C119.807 97.7588 120.768 98.9138 121.343 100.268L128.418 116.93C108.527 115.915 96.9211 115.405 77.0361 116.93Z" fill="#3498DB"/>
<path d="M66.8434 123.996L73.2354 118.434H132.215L138.508 123.354C140.941 127.797 64.4444 128.58 66.8434 123.996Z" fill="#F1C40F"/>
<path d="M71.2031 140.838C71.2031 140.838 72.5031 154.99 77.2361 154.99C81.9691 154.99 81.4361 141.366 81.4361 141.366L71.2031 140.838Z" fill="#1B2533"/>
<path d="M133.382 140.838C133.382 140.838 132.082 154.99 127.347 154.99C122.612 154.99 123.147 141.366 123.147 141.366L133.382 140.838Z" fill="#1B2533"/>
<path d="M114.916 135.301H90.7314V141.496H114.916V135.301Z" fill="#E28805"/>
<path d="M114.304 135.951H91.3447V141.352H114.304V135.951Z" fill="#EFCE7B"/>
<path d="M67.8751 137.281C66.5311 138.627 67.9121 142.744 70.1041 143.339C84.9431 147.363 120.489 147.367 135.345 143.339C137.538 142.739 139.374 138.627 137.573 137.281C131.935 141.539 73.5401 141.559 67.8751 137.281Z" fill="#DBDBDB"/>
<path d="M100.785 126.164C102.354 126.305 102.356 132.835 100.785 133.333C98.3494 134.107 88.8614 131.083 87.8124 129.719C87.2364 128.969 87.1744 127.164 88.0124 126.641C88.8504 126.118 99.2154 126.024 100.785 126.164Z" fill="#2C3E50"/>
<g style="mix-blend-mode:multiply" opacity="0.3">
<g style="mix-blend-mode:multiply" opacity="0.3">
<path d="M101.383 126.627H88.0406C88.0331 126.63 88.0254 126.632 88.0176 126.634C87.8571 126.752 87.7224 126.902 87.6218 127.073C87.5212 127.245 87.4568 127.436 87.4326 127.634H101.76C101.689 127.28 101.562 126.94 101.383 126.627Z" fill="#2C3E50"/>
</g>
<g style="mix-blend-mode:multiply" opacity="0.3">
<path d="M101.895 128.422H87.3945C87.4144 128.769 87.4981 129.11 87.6415 129.427H101.957C101.952 129.084 101.933 128.744 101.895 128.422Z" fill="#2C3E50"/>
</g>
<g style="mix-blend-mode:multiply" opacity="0.3">
<path d="M101.673 132H92.7217C93.9327 132.393 95.2217 132.744 96.4217 133.007H101.194C101.418 132.706 101.58 132.364 101.673 132Z" fill="#2C3E50"/>
</g>
<g style="mix-blend-mode:multiply" opacity="0.3">
<path d="M101.946 130.211H88.4375C89.1133 130.602 89.8196 130.939 90.5495 131.217H101.838C101.89 130.884 101.926 130.548 101.946 130.211Z" fill="#2C3E50"/>
</g>
</g>
<path d="M104.864 126.164C103.295 126.305 103.293 132.835 104.864 133.333C107.3 134.107 116.788 131.083 117.837 129.719C118.413 128.969 118.475 127.164 117.637 126.641C116.799 126.118 106.433 126.024 104.864 126.164Z" fill="#2C3E50"/>
<g style="mix-blend-mode:multiply" opacity="0.3">
<g style="mix-blend-mode:multiply" opacity="0.3">
<path d="M104.266 126.627H117.609C117.616 126.63 117.624 126.632 117.632 126.634C117.792 126.752 117.927 126.901 118.028 127.073C118.128 127.245 118.193 127.436 118.217 127.634H103.89C103.961 127.28 104.088 126.941 104.266 126.627Z" fill="#2C3E50"/>
</g>
<g style="mix-blend-mode:multiply" opacity="0.3">
<path d="M103.754 128.422H118.254C118.234 128.769 118.151 129.11 118.008 129.427H103.691C103.697 129.084 103.716 128.744 103.754 128.422Z" fill="#2C3E50"/>
</g>
<g style="mix-blend-mode:multiply" opacity="0.3">
<path d="M103.976 132H112.924C111.714 132.393 110.424 132.744 109.224 133.007H104.454C104.229 132.706 104.067 132.364 103.976 132Z" fill="#2C3E50"/>
</g>
<g style="mix-blend-mode:multiply" opacity="0.3">
<path d="M103.703 130.211H117.211C116.535 130.603 115.828 130.939 115.098 131.217H103.811C103.758 130.884 103.722 130.548 103.703 130.211Z" fill="#2C3E50"/>
</g>
</g>
<path d="M88.9764 135.952C88.9764 136.268 88.8825 136.577 88.7067 136.84C88.5309 137.104 88.281 137.309 87.9887 137.43C87.6963 137.551 87.3746 137.583 87.0642 137.521C86.7539 137.459 86.4688 137.307 86.245 137.083C86.0212 136.859 85.8688 136.574 85.8071 136.264C85.7454 135.953 85.7771 135.632 85.8982 135.339C86.0193 135.047 86.2243 134.797 86.4875 134.621C86.7506 134.445 87.0599 134.352 87.3764 134.352C87.5867 134.351 87.795 134.392 87.9894 134.472C88.1839 134.552 88.3605 134.67 88.5092 134.819C88.6579 134.967 88.7758 135.144 88.8559 135.339C88.9361 135.533 88.977 135.741 88.9764 135.952Z" fill="#E74C3C"/>
<path d="M119.863 135.952C119.863 136.268 119.769 136.577 119.593 136.84C119.418 137.104 119.168 137.309 118.875 137.43C118.583 137.551 118.261 137.583 117.951 137.521C117.641 137.459 117.355 137.307 117.132 137.083C116.908 136.859 116.756 136.574 116.694 136.264C116.632 135.953 116.664 135.632 116.785 135.339C116.906 135.047 117.111 134.797 117.374 134.621C117.637 134.445 117.947 134.352 118.263 134.352C118.687 134.352 119.094 134.52 119.394 134.82C119.695 135.12 119.863 135.527 119.863 135.952Z" fill="#E74C3C"/>
<path d="M69.6494 126.693C67.8944 128.257 70.3074 131.902 72.0624 132.925C73.6464 133.847 81.1724 134.345 82.7624 132.925C84.6344 131.248 73.7554 123.034 69.6494 126.693Z" fill="#FFEA92"/>
<path d="M72.3269 128.247C70.8429 129.569 72.8819 132.647 74.3659 133.515C74.3879 133.528 74.4229 133.539 74.4469 133.552C77.3139 133.974 81.6059 133.959 82.7609 132.925C83.1229 132.601 83.0049 132.031 82.5549 131.352C80.2739 128.984 74.8219 126.023 72.3269 128.247Z" fill="#FFF5AE"/>
<path d="M135.655 126.693C137.411 128.257 134.998 131.902 133.243 132.925C131.659 133.847 124.133 134.345 122.543 132.925C120.67 131.248 131.549 123.034 135.655 126.693Z" fill="#FFEA92"/>
<path d="M132.979 128.247C134.463 129.569 132.424 132.647 130.939 133.515C130.917 133.528 130.883 133.539 130.858 133.552C127.991 133.974 123.7 133.959 122.545 132.925C122.183 132.601 122.3 132.031 122.745 131.352C125.033 128.984 130.485 126.023 132.979 128.247Z" fill="#FFF5AE"/>
<g style="mix-blend-mode:multiply" opacity="0.4">
<path d="M101.951 115.974C110.084 116.018 118.151 116.405 128.415 116.929L121.327 100.305C120.756 98.9421 119.795 97.7783 118.565 96.9598C117.335 96.1413 115.89 95.7048 114.413 95.7051H96.8008C99.3572 102.22 101.087 109.029 101.951 115.974Z" fill="#3498DB"/>
</g>
<g opacity="0.5">
<path opacity="0.5" d="M105.689 96.7251C105.696 96.791 105.689 96.8576 105.669 96.9207C105.649 96.9837 105.616 97.0418 105.571 97.0912C105.527 97.1406 105.473 97.1802 105.413 97.2074C105.353 97.2346 105.287 97.2488 105.221 97.2491H100.129C100.063 97.2488 99.9973 97.2346 99.9369 97.2074C99.8765 97.1802 99.8225 97.1406 99.7784 97.0912C99.7343 97.0418 99.7011 96.9837 99.6808 96.9207C99.6606 96.8576 99.6538 96.791 99.661 96.7251L99.776 95.7031H105.576L105.689 96.7251Z" fill="#2C3E50"/>
<path opacity="0.5" d="M103.119 96.5059H102.229V99.8799H103.119V96.5059Z" fill="#2C3E50"/>
<path opacity="0.5" d="M107.856 101.252C107.87 101.38 107.857 101.51 107.818 101.632C107.779 101.755 107.714 101.868 107.628 101.964C107.543 102.059 107.438 102.136 107.32 102.189C107.203 102.241 107.075 102.268 106.947 102.268H98.4038C98.2752 102.268 98.148 102.241 98.0306 102.189C97.9132 102.136 97.8081 102.059 97.7223 101.964C97.6366 101.868 97.572 101.755 97.5328 101.632C97.4936 101.51 97.4806 101.38 97.4948 101.252L97.6268 100.082C97.6522 99.8592 97.7589 99.6531 97.9265 99.5034C98.0942 99.3538 98.3111 99.2713 98.5359 99.2715H106.816C107.04 99.2715 107.257 99.3542 107.425 99.5038C107.592 99.6534 107.699 99.8593 107.724 100.082L107.856 101.252Z" fill="#2C3E50"/>
</g>
<path d="M173.702 114.479H157.83V65.0544C157.837 64.3307 157.556 63.6338 157.05 63.1163C156.544 62.5988 155.854 62.3029 155.13 62.2934H51.1589C50.4352 62.3029 49.7447 62.5988 49.2386 63.1163C48.7326 63.6338 48.4522 64.3307 48.4589 65.0544V113.421H32.5849V65.0544C32.5366 60.0753 34.4648 55.2803 37.9467 51.7208C41.4286 48.1613 46.1799 46.1279 51.1589 46.0664H155.128C160.107 46.1279 164.858 48.1613 168.34 51.7208C171.822 55.2803 173.75 60.0753 173.702 65.0544V114.479Z" fill="#DBDBDB"/>
<path d="M142.357 106.734L157.223 101.917V68.1621L142.357 72.9791V106.734Z" fill="#F39C12"/>
<g style="mix-blend-mode:multiply" opacity="0.3">
<path d="M153.916 69.2282L157.223 68.1562V101.915L153.916 102.987V69.2282Z" fill="#F39C12"/>
</g>
<g style="mix-blend-mode:multiply" opacity="0.3">
<path d="M146.369 102.376L142.36 103.755V102.139L146.369 100.76V102.376Z" fill="#F39C12"/>
</g>
<g style="mix-blend-mode:multiply" opacity="0.3">
<path d="M146.369 97.1883L142.36 98.5673V96.9513L146.369 95.5723V97.1883Z" fill="#F39C12"/>
</g>
<g style="mix-blend-mode:multiply" opacity="0.3">
<path d="M146.369 91.9969L142.36 93.3759V91.7599L146.369 90.3809V91.9969Z" fill="#F39C12"/>
</g>
<g style="mix-blend-mode:multiply" opacity="0.3">
<path d="M146.369 86.8085L142.36 88.1875V86.5685L146.369 85.1895V86.8085Z" fill="#F39C12"/>
</g>
<g style="mix-blend-mode:multiply" opacity="0.3">
<path d="M146.369 81.6219L142.36 83.0009V81.3849L146.369 80.0059V81.6219Z" fill="#F39C12"/>
</g>
<g style="mix-blend-mode:multiply" opacity="0.3">
<path d="M146.369 76.4265L142.36 77.8055V76.1895L146.369 74.8105V76.4265Z" fill="#F39C12"/>
</g>
<path d="M175.625 108.768H156.074V111.76H175.625V108.768Z" fill="#3E586D"/>
<path d="M174.461 66.6602H157.224V103.412H174.461V66.6602Z" fill="#F39C12"/>
<path d="M175.282 101.916H156.417V103.412H175.282V101.916Z" fill="#F1C40F"/>
<path d="M175.282 84.2891H156.417V85.7851H175.282V84.2891Z" fill="#F1C40F"/>
<path d="M175.282 66.6602H156.417V68.1562H175.282V66.6602Z" fill="#F1C40F"/>
<path d="M63.9988 106.734L49.1328 101.917V68.1621L63.9988 72.9791V106.734Z" fill="#F39C12"/>
<g style="mix-blend-mode:multiply" opacity="0.3">
<path d="M52.4398 69.2291L49.1328 68.1621V101.921L52.4398 102.993V69.2291Z" fill="#F39C12"/>
</g>
<path d="M50.2981 108.768H30.7471V111.76H50.2981V108.768Z" fill="#3E586D"/>
<path d="M49.1335 66.6602H31.8965V103.412H49.1335V66.6602Z" fill="#F39C12"/>
<path d="M49.9548 101.916H31.0898V103.412H49.9548V101.916Z" fill="#F1C40F"/>
<path d="M49.9548 84.2891H31.0898V85.7851H49.9548V84.2891Z" fill="#F1C40F"/>
<path d="M49.9548 66.6602H31.0898V68.1562H49.9548V66.6602Z" fill="#F1C40F"/>
<g style="mix-blend-mode:multiply" opacity="0.3">
<path d="M59.9893 102.376L63.9993 103.755V102.139L59.9893 100.76V102.376Z" fill="#F39C12"/>
</g>
<g style="mix-blend-mode:multiply" opacity="0.3">
<path d="M59.9893 97.1883L63.9993 98.5673V96.9513L59.9893 95.5723V97.1883Z" fill="#F39C12"/>
</g>
<g style="mix-blend-mode:multiply" opacity="0.3">
<path d="M59.9893 91.9969L63.9993 93.3759V91.7599L59.9893 90.3809V91.9969Z" fill="#F39C12"/>
</g>
<g style="mix-blend-mode:multiply" opacity="0.3">
<path d="M59.9893 86.8085L63.9993 88.1875V86.5685L59.9893 85.1895V86.8085Z" fill="#F39C12"/>
</g>
<g style="mix-blend-mode:multiply" opacity="0.3">
<path d="M59.9893 81.6219L63.9993 83.0009V81.3849L59.9893 80.0059V81.6219Z" fill="#F39C12"/>
</g>
<g style="mix-blend-mode:multiply" opacity="0.3">
<path d="M59.9893 76.4265L63.9993 77.8055V76.1895L59.9893 74.8105V76.4265Z" fill="#F39C12"/>
</g>
<path d="M51.5164 113.402H29.6084V119.617H51.5164V113.402Z" fill="#DBDBDB"/>
<path d="M53.2921 142.953H27.8301V149.647H53.2921V142.953Z" fill="#DBDBDB"/>
<path d="M44.0754 146.598C52.0653 146.598 58.5424 139.976 58.5424 131.808C58.5424 123.639 52.0653 117.018 44.0754 117.018C36.0855 117.018 29.6084 123.639 29.6084 131.808C29.6084 139.976 36.0855 146.598 44.0754 146.598Z" fill="#DBDBDB"/>
<path d="M29.607 117.018C29.607 117.018 22.54 122.146 22.54 131.218C22.54 140.29 27.83 143.836 27.83 143.836L46.224 146.602V117.022L29.607 117.018Z" fill="#DBDBDB"/>
<path d="M44.0752 143.221C50.242 143.221 55.2412 138.11 55.2412 131.806C55.2412 125.501 50.242 120.391 44.0752 120.391C37.9084 120.391 32.9092 125.501 32.9092 131.806C32.9092 138.11 37.9084 143.221 44.0752 143.221Z" fill="#3E586D"/>
<path d="M44.4096 120.66H43.7656V143.222H44.4096V120.66Z" fill="#2C3E50"/>
<path d="M41.4286 142.894L40.8086 142.717L46.7446 120.986L47.3646 121.163L41.4286 142.894Z" fill="#2C3E50"/>
<path d="M38.4258 141.631L37.8828 141.277L49.7508 122.254L50.2938 122.608L38.4258 141.631Z" fill="#2C3E50"/>
<path d="M35.7341 139.319L35.3271 138.81L52.4412 124.562L52.8481 125.073L35.7341 139.319Z" fill="#2C3E50"/>
<path d="M34.0998 136.751L33.8428 136.151L54.0748 127.135L54.3318 127.735L34.0998 136.751Z" fill="#2C3E50"/>
<path d="M33.1638 133.57L33.0898 132.916L55.0128 130.316L55.0868 130.97L33.1638 133.57Z" fill="#2C3E50"/>
<path d="M33.165 130.298L33.277 129.65L55.009 133.583L54.897 134.231L33.165 130.298Z" fill="#2C3E50"/>
<path d="M34.2227 126.874L34.5287 126.295L53.9527 137.011L53.6467 137.59L34.2227 126.874Z" fill="#2C3E50"/>
<path d="M35.9209 124.349L36.3679 123.875L52.2559 139.536L51.8089 140.01L35.9209 124.349Z" fill="#2C3E50"/>
<path d="M38.4365 122.248L38.9985 121.928L49.7385 141.639L49.1765 141.959L38.4365 122.248Z" fill="#2C3E50"/>
<path d="M40.8213 121.158L41.4413 120.982L47.3523 142.72L46.7323 142.896L40.8213 121.158Z" fill="#2C3E50"/>
<path d="M44.078 124.435C42.6132 124.403 41.1719 124.808 39.9381 125.598C38.7043 126.388 37.734 127.528 37.1509 128.873C36.5679 130.217 36.3985 131.704 36.6645 133.145C36.9305 134.586 37.6197 135.915 38.6443 136.962C39.6688 138.01 40.9822 138.728 42.4168 139.026C43.8514 139.324 45.3422 139.187 46.699 138.634C48.0557 138.081 49.2168 137.136 50.0342 135.92C50.8515 134.704 51.288 133.272 51.288 131.806C51.3091 129.873 50.5613 128.01 49.2093 126.628C47.8572 125.246 46.0115 124.457 44.078 124.435ZM44.078 138.611C42.7257 138.641 41.3951 138.267 40.2562 137.538C39.1172 136.808 38.2216 135.755 37.6836 134.514C37.1455 133.273 36.9895 131.9 37.2354 130.57C37.4813 129.24 38.118 128.013 39.0642 127.046C40.0104 126.08 41.2232 125.417 42.5477 125.142C43.8723 124.868 45.2486 124.995 46.5009 125.506C47.7532 126.017 48.8247 126.89 49.5787 128.013C50.3326 129.136 50.7349 130.459 50.734 131.811C50.7521 133.595 50.0613 135.314 48.8133 136.589C47.5652 137.864 45.8621 138.591 44.078 138.611Z" fill="#C0C2C4"/>
<path d="M44.0753 120.391C41.8068 120.341 39.5749 120.968 37.6643 122.192C35.7537 123.416 34.2511 125.182 33.3482 127.263C32.4453 129.345 32.1831 131.648 32.595 133.88C33.007 136.111 34.0744 138.169 35.661 139.791C37.2476 141.413 39.2816 142.525 41.5033 142.986C43.7249 143.448 46.0336 143.236 48.1346 142.379C50.2357 141.523 52.0338 140.059 53.2996 138.176C54.5653 136.293 55.2413 134.075 55.2413 131.806C55.2738 128.812 54.1158 125.928 52.0219 123.787C49.9279 121.646 47.0696 120.425 44.0753 120.391ZM44.0753 142.344C41.9813 142.391 39.921 141.812 38.1574 140.682C36.3938 139.552 35.0068 137.922 34.1735 136.001C33.3401 134.079 33.0982 131.953 33.4785 129.893C33.8589 127.833 34.8443 125.934 36.309 124.436C37.7736 122.939 39.6512 121.912 41.702 121.487C43.7529 121.061 45.884 121.256 47.8234 122.047C49.7629 122.838 51.4227 124.189 52.591 125.928C53.7594 127.666 54.3834 129.713 54.3833 131.807C54.4134 134.572 53.3444 137.235 51.4113 139.211C49.4782 141.187 46.8394 142.314 44.0753 142.344Z" fill="#C0C2C4"/>
<path d="M176.776 113.402H154.868V119.617H176.776V113.402Z" fill="#DBDBDB"/>
<path d="M178.553 142.953H153.091V149.647H178.553V142.953Z" fill="#DBDBDB"/>
<path d="M162.308 146.598C170.298 146.598 176.775 139.976 176.775 131.808C176.775 123.639 170.298 117.018 162.308 117.018C154.318 117.018 147.841 123.639 147.841 131.808C147.841 139.976 154.318 146.598 162.308 146.598Z" fill="#DBDBDB"/>
<path d="M176.775 117.018C176.775 117.018 183.843 122.146 183.843 131.218C183.843 140.29 178.552 143.836 178.552 143.836L160.159 146.602V117.022L176.775 117.018Z" fill="#DBDBDB"/>
<path d="M162.309 143.221C168.475 143.221 173.475 138.11 173.475 131.806C173.475 125.501 168.475 120.391 162.309 120.391C156.142 120.391 151.143 125.501 151.143 131.806C151.143 138.11 156.142 143.221 162.309 143.221Z" fill="#3E586D"/>
<path d="M162.619 120.658H161.975V143.22H162.619V120.658Z" fill="#2C3E50"/>
<path d="M164.957 142.892L165.577 142.715L159.641 120.984L159.021 121.161L164.957 142.892Z" fill="#2C3E50"/>
<path d="M167.959 141.629L168.502 141.275L156.634 122.252L156.091 122.606L167.959 141.629Z" fill="#2C3E50"/>
<path d="M170.65 139.318L171.057 138.808L153.943 124.561L153.536 125.071L170.65 139.318Z" fill="#2C3E50"/>
<path d="M172.284 136.749L172.541 136.149L152.31 127.133L152.053 127.733L172.284 136.749Z" fill="#2C3E50"/>
<path d="M173.221 133.568L173.295 132.914L151.372 130.314L151.298 130.968L173.221 133.568Z" fill="#2C3E50"/>
<path d="M173.219 130.296L173.107 129.648L151.375 133.581L151.487 134.229L173.219 130.296Z" fill="#2C3E50"/>
<path d="M172.161 126.872L171.855 126.293L152.432 137.009L152.738 137.588L172.161 126.872Z" fill="#2C3E50"/>
<path d="M170.464 124.347L170.017 123.873L154.127 139.534L154.574 140.008L170.464 124.347Z" fill="#2C3E50"/>
<path d="M167.946 122.246L167.384 121.926L156.646 141.636L157.208 141.956L167.946 122.246Z" fill="#2C3E50"/>
<path d="M165.559 121.156L164.939 120.98L159.028 142.718L159.648 142.894L165.559 121.156Z" fill="#2C3E50"/>
<path d="M155.098 131.807C155.129 133.226 155.579 134.604 156.39 135.769C157.202 136.934 158.339 137.834 159.659 138.355C160.979 138.877 162.424 138.997 163.813 138.701C165.201 138.405 166.471 137.705 167.464 136.691C168.457 135.676 169.128 134.39 169.393 132.996C169.659 131.601 169.506 130.159 168.956 128.851C168.405 127.542 167.481 126.425 166.298 125.64C165.116 124.854 163.728 124.435 162.308 124.436C160.375 124.457 158.529 125.246 157.177 126.628C155.825 128.011 155.077 129.873 155.098 131.807ZM155.652 131.807C155.68 130.496 156.094 129.223 156.843 128.147C157.591 127.071 158.641 126.24 159.859 125.757C161.078 125.275 162.413 125.164 163.695 125.436C164.977 125.709 166.15 126.355 167.067 127.291C167.984 128.228 168.603 129.415 168.849 130.702C169.094 131.99 168.954 133.321 168.446 134.53C167.938 135.738 167.084 136.769 165.992 137.495C164.901 138.22 163.619 138.607 162.308 138.607C160.524 138.587 158.821 137.859 157.573 136.584C156.324 135.309 155.634 133.591 155.652 131.807Z" fill="#C0C2C4"/>
<path d="M151.142 131.806C151.191 134.004 151.887 136.139 153.143 137.943C154.4 139.747 156.161 141.14 158.205 141.948C160.25 142.755 162.488 142.942 164.638 142.483C166.788 142.024 168.755 140.941 170.293 139.37C171.83 137.798 172.87 135.808 173.281 133.648C173.692 131.488 173.456 129.255 172.604 127.228C171.751 125.202 170.319 123.472 168.488 122.256C166.657 121.039 164.507 120.391 162.308 120.391C159.314 120.424 156.456 121.645 154.362 123.786C152.268 125.927 151.11 128.811 151.142 131.806ZM152.001 131.806C152.046 129.776 152.688 127.805 153.848 126.14C155.008 124.474 156.633 123.188 158.521 122.442C160.409 121.696 162.475 121.524 164.46 121.947C166.445 122.371 168.261 123.37 169.68 124.821C171.1 126.272 172.059 128.11 172.439 130.104C172.818 132.097 172.601 134.159 171.814 136.03C171.027 137.901 169.705 139.498 168.014 140.621C166.324 141.744 164.339 142.343 162.309 142.343C159.545 142.312 156.907 141.184 154.974 139.208C153.041 137.232 151.971 134.57 152.001 131.806Z" fill="#C0C2C4"/>
</svg>
