<svg width="40" height="40" viewBox="0 0 40 40" fill="none" xmlns="http://www.w3.org/2000/svg">
<path d="M20.0007 36.6673C29.2054 36.6673 36.6673 29.2054 36.6673 20.0007C36.6673 10.7959 29.2054 3.33398 20.0007 3.33398C10.7959 3.33398 3.33398 10.7959 3.33398 20.0007C3.33398 29.2054 10.7959 36.6673 20.0007 36.6673Z" stroke="#00BAFF" stroke-width="3.33333" stroke-linecap="round" stroke-linejoin="round"/>
<path d="M20 30C25.5228 30 30 25.5228 30 20C30 14.4772 25.5228 10 20 10C14.4772 10 10 14.4772 10 20C10 25.5228 14.4772 30 20 30Z" stroke="#45DBFF" stroke-width="3.33333" stroke-linecap="round" stroke-linejoin="round"/>
<path d="M19.9993 23.3327C21.8403 23.3327 23.3327 21.8403 23.3327 19.9993C23.3327 18.1584 21.8403 16.666 19.9993 16.666C18.1584 16.666 16.666 18.1584 16.666 19.9993C16.666 21.8403 18.1584 23.3327 19.9993 23.3327Z" stroke="#00BAFF" stroke-width="3.33333" stroke-linecap="round" stroke-linejoin="round"/>
</svg>
