<svg width="183" height="178" viewBox="0 0 183 178" fill="none" xmlns="http://www.w3.org/2000/svg">
<g clip-path="url(#clip0)">
<path d="M182.999 90.4916C182.999 90.693 182.999 90.8936 182.994 91.095C182.989 91.2965 182.988 91.497 182.985 91.6968C182.978 92.0996 182.969 92.5008 182.958 92.9028L182.937 93.5054C182.931 93.6785 182.923 93.8508 182.917 94.0247C182.917 94.0514 182.917 94.0805 182.913 94.108C182.905 94.3027 182.896 94.4967 182.888 94.6906C182.888 94.7031 182.888 94.713 182.888 94.7239C182.878 94.9194 182.867 95.1159 182.856 95.3115C182.847 95.4854 182.838 95.661 182.826 95.8366C182.826 95.8724 182.822 95.9099 182.82 95.9457C182.808 96.1346 182.796 96.3244 182.783 96.5133C182.757 96.9145 182.726 97.3148 182.699 97.7151C182.683 97.9149 182.666 98.1155 182.649 98.3152C182.632 98.515 182.613 98.7147 182.596 98.9153C182.578 99.1159 182.558 99.3123 182.538 99.5121C182.519 99.7118 182.498 99.9108 182.477 100.11C182.46 100.258 182.445 100.405 182.428 100.553C182.401 100.803 182.373 101.053 182.344 101.302C182.32 101.497 182.296 101.693 182.272 101.885C182.238 102.15 182.204 102.414 182.169 102.68C182.151 102.816 182.132 102.953 182.113 103.089C182.085 103.288 182.058 103.487 182.028 103.685C181.999 103.901 181.967 104.117 181.933 104.332C181.91 104.482 181.887 104.63 181.864 104.778C181.765 105.404 181.66 106.03 181.549 106.654C181.513 106.852 181.478 107.049 181.442 107.246C181.377 107.59 181.312 107.933 181.244 108.277C181.223 108.379 181.204 108.481 181.182 108.582C181.154 108.727 181.124 108.873 181.097 109.017C181.057 109.212 181.016 109.408 180.974 109.605C180.927 109.825 180.879 110.046 180.83 110.265C180.826 110.286 180.821 110.307 180.817 110.328C180.813 110.349 180.806 110.369 180.802 110.389C180.739 110.667 180.677 110.947 180.612 111.221L180.579 111.359C180.563 111.431 180.546 111.502 180.527 111.572C180.525 111.589 180.521 111.605 180.516 111.621C180.516 111.637 180.509 111.654 180.505 111.669C180.483 111.762 180.461 111.853 180.439 111.943C180.393 112.134 180.348 112.323 180.299 112.512C180.299 112.525 180.294 112.537 180.291 112.55C180.254 112.695 180.218 112.84 180.18 112.985C180.17 113.027 180.159 113.068 180.148 113.11C180.137 113.153 180.126 113.204 180.113 113.251L180.085 113.362C180.066 113.429 180.049 113.496 180.031 113.563C180.007 113.659 179.982 113.754 179.957 113.849L179.936 113.924C179.929 113.956 179.92 113.988 179.912 114.018C179.855 114.232 179.797 114.444 179.738 114.657C179.705 114.776 179.671 114.896 179.638 115.016C179.578 115.234 179.516 115.452 179.454 115.668C179.408 115.823 179.364 115.977 179.318 116.132C179.289 116.232 179.259 116.331 179.229 116.432C179.189 116.568 179.145 116.707 179.105 116.843C179.065 116.979 179.02 117.134 178.972 117.278C178.945 117.367 178.917 117.456 178.888 117.545C178.869 117.609 178.849 117.672 178.829 117.735C178.782 117.882 178.737 118.028 178.689 118.174C178.641 118.32 178.598 118.459 178.549 118.603C178.511 118.724 178.471 118.846 178.43 118.966C178.376 119.133 178.321 119.299 178.262 119.46L178.177 119.716C178.134 119.845 178.093 119.974 178.045 120.102C177.983 120.28 177.92 120.46 177.856 120.639C177.819 120.743 177.782 120.846 177.745 120.95C177.698 121.084 177.649 121.218 177.6 121.352C177.589 121.383 177.576 121.416 177.565 121.447L177.536 121.521C177.536 121.533 177.528 121.546 177.524 121.558C177.52 121.571 177.515 121.583 177.51 121.595C177.493 121.643 177.476 121.689 177.459 121.735C177.451 121.755 177.444 121.774 177.436 121.794C177.378 121.953 177.318 122.113 177.257 122.271C177.256 122.277 177.253 122.283 177.25 122.288C177.19 122.447 177.13 122.606 177.069 122.763C177.067 122.771 177.064 122.78 177.06 122.787C177.026 122.876 176.992 122.966 176.955 123.055C176.937 123.104 176.918 123.153 176.899 123.201C176.862 123.295 176.825 123.389 176.788 123.483C176.778 123.51 176.767 123.537 176.756 123.566C176.717 123.666 176.678 123.766 176.637 123.864C176.625 123.897 176.612 123.929 176.599 123.962C176.585 123.994 176.566 124.04 176.55 124.079C176.533 124.118 176.517 124.162 176.501 124.201C176.501 124.204 176.501 124.206 176.501 124.209C176.463 124.305 176.424 124.4 176.383 124.495C176.378 124.511 176.372 124.526 176.365 124.54C176.297 124.707 176.228 124.873 176.159 125.04C176.154 125.051 176.149 125.065 176.144 125.075C176.145 125.079 176.145 125.083 176.144 125.086V125.094L176.138 125.109C176.095 125.21 176.053 125.313 176.01 125.413C175.997 125.447 175.982 125.48 175.967 125.512C175.952 125.545 175.942 125.574 175.928 125.605L175.889 125.697L175.881 125.715C175.835 125.824 175.787 125.93 175.741 126.037C175.716 126.097 175.69 126.156 175.663 126.215C175.657 126.229 175.651 126.244 175.645 126.258C175.613 126.33 175.58 126.402 175.55 126.474C175.526 126.526 175.504 126.578 175.479 126.631L175.435 126.731L175.423 126.756L175.326 126.973C175.282 127.073 175.235 127.174 175.19 127.273L175.163 127.336C175.137 127.392 175.112 127.447 175.086 127.502C175.017 127.655 174.946 127.808 174.875 127.961C174.785 128.154 174.694 128.347 174.603 128.539C174.595 128.553 174.589 128.568 174.583 128.583C174.491 128.772 174.401 128.961 174.308 129.15C174.252 129.267 174.196 129.383 174.139 129.499C174.138 129.505 174.136 129.511 174.133 129.516L173.982 129.819C173.786 130.214 173.586 130.608 173.383 131C173.316 131.132 173.247 131.263 173.177 131.393C173.107 131.524 173.041 131.65 172.979 131.771C172.894 131.938 172.803 132.104 172.714 132.271L172.673 132.345C172.585 132.507 172.496 132.669 172.406 132.832C172.405 132.836 172.403 132.841 172.4 132.845C172.395 132.852 172.391 132.86 172.387 132.868C172.382 132.878 172.377 132.887 172.371 132.896C172.368 132.904 172.364 132.911 172.359 132.918C172.313 133.001 172.267 133.085 172.222 133.168L172.083 133.417C172.081 133.423 172.077 133.429 172.074 133.434V133.44C172.065 133.455 172.056 133.468 172.048 133.483C171.943 133.67 171.838 133.855 171.732 134.041C171.724 134.053 171.717 134.065 171.71 134.078C171.676 134.136 171.644 134.194 171.609 134.251C171.525 134.395 171.441 134.54 171.356 134.683L171.25 134.863C171.246 134.872 171.24 134.88 171.235 134.887C171.228 134.899 171.221 134.912 171.214 134.923C171.144 135.042 171.073 135.16 171.003 135.279C170.87 135.502 170.737 135.724 170.601 135.944L170.399 136.272L170.341 136.367C170.331 136.385 170.318 136.404 170.307 136.422L170.282 136.46L170.244 136.521C170.233 136.541 170.219 136.562 170.207 136.581C170.195 136.6 170.19 136.609 170.182 136.622C170.174 136.635 170.165 136.649 170.155 136.663C170.139 136.691 170.122 136.719 170.104 136.746L169.935 137.011C169.927 137.024 169.919 137.037 169.91 137.05L169.753 137.3C169.703 137.379 169.652 137.458 169.602 137.536L169.561 137.6C169.556 137.61 169.549 137.619 169.544 137.627C169.451 137.77 169.358 137.914 169.263 138.058C169.228 138.112 169.191 138.168 169.155 138.224C169.106 138.297 169.058 138.37 169.009 138.443C168.931 138.563 168.852 138.682 168.77 138.801C168.717 138.88 168.664 138.96 168.609 139.039C168.59 139.069 168.57 139.098 168.549 139.128C168.549 139.135 168.541 139.14 168.537 139.146C168.534 139.153 168.529 139.159 168.525 139.164L168.5 139.199C168.468 139.248 168.436 139.295 168.403 139.342C168.396 139.354 168.387 139.365 168.38 139.377L168.202 139.636L168.049 139.858C168.034 139.878 168.021 139.897 168.007 139.918C167.825 140.179 167.64 140.44 167.454 140.7C167.416 140.754 167.377 140.809 167.338 140.862C167.299 140.914 167.244 140.992 167.196 141.058C167.06 141.247 166.923 141.435 166.784 141.622L166.712 141.72C166.638 141.818 166.566 141.917 166.493 142.015C166.456 142.064 166.419 142.113 166.382 142.162L166.374 142.173C166.372 142.178 166.369 142.182 166.365 142.186C166.281 142.301 166.19 142.42 166.101 142.535L165.947 142.738V142.744C165.916 142.783 165.886 142.822 165.856 142.861C165.849 142.871 165.84 142.882 165.832 142.892C165.727 143.029 165.622 143.165 165.515 143.302C165.493 143.33 165.471 143.359 165.449 143.385C165.426 143.411 165.405 143.442 165.382 143.468C165.375 143.478 165.368 143.486 165.36 143.495C165.354 143.504 165.347 143.513 165.34 143.522C165.31 143.561 165.279 143.6 165.248 143.639L165.155 143.755C165.124 143.796 165.092 143.838 165.059 143.877C164.799 144.205 164.535 144.531 164.268 144.854C163.981 145.205 163.691 145.553 163.396 145.898C163.385 145.911 163.373 145.924 163.362 145.938C163.351 145.951 163.332 145.972 163.317 145.989C163.148 146.191 162.973 146.391 162.8 146.59L162.773 146.621C162.735 146.664 162.698 146.704 162.661 146.749C162.291 147.171 161.915 147.59 161.534 148.006L161.461 148.089C161.359 148.202 161.256 148.313 161.153 148.422L161.135 148.441C160.727 148.88 160.313 149.315 159.892 149.747L159.77 149.871C159.653 149.991 159.534 150.112 159.416 150.232C159.332 150.315 159.247 150.398 159.163 150.481L159.079 150.565L159.061 150.583L159.043 150.599L159.027 150.616C159.02 150.621 159.014 150.627 159.009 150.634C158.975 150.668 158.94 150.701 158.907 150.734L158.899 150.741L158.891 150.748C158.829 150.811 158.767 150.872 158.704 150.932C158.422 151.21 158.141 151.483 157.859 151.753L157.827 151.785L157.611 151.989L157.432 152.156L157.347 152.233C157.332 152.247 157.318 152.261 157.305 152.272C157.231 152.343 157.156 152.412 157.081 152.481C156.935 152.617 156.789 152.752 156.641 152.887C156.178 153.309 155.709 153.728 155.233 154.143C155.203 154.168 155.175 154.194 155.149 154.218C154.974 154.371 154.799 154.523 154.622 154.674C154.577 154.711 154.531 154.75 154.486 154.788L154.354 154.901H154.348L154.121 155.092L153.726 155.425L153.335 155.746C152.627 156.325 151.906 156.894 151.172 157.453L150.763 157.761C150.364 158.061 149.962 158.358 149.556 158.651C149.455 158.725 149.352 158.798 149.25 158.872C149.19 158.915 149.132 158.955 149.072 158.999C148.708 159.259 148.341 159.516 147.97 159.77L147.726 159.936C147.423 160.143 147.118 160.348 146.812 160.551C146.414 160.813 146.015 161.076 145.61 161.333C140.096 164.852 134.594 167.758 129.134 170.103C128.908 170.201 128.681 170.297 128.459 170.392C103.971 180.703 80.3405 179.748 60.1132 172.223C54.5565 170.148 49.2038 167.577 44.1219 164.541C40.8668 162.599 37.7241 160.479 34.7085 158.192C32.1929 156.284 29.7858 154.279 27.4874 152.177C26.0017 150.821 24.5666 149.43 23.1821 148.005C20.2771 145.027 17.5637 141.873 15.0578 138.561C10.8605 133.01 7.39012 127.173 4.75882 121.261C4.75714 121.256 4.75516 121.252 4.7529 121.248C4.75146 121.243 4.74977 121.238 4.74784 121.233C4.73434 121.2 4.70986 121.14 4.67525 121.053L4.6592 121.011C4.49881 120.605 4.16029 119.715 3.73061 118.431C3.70866 118.361 3.68503 118.29 3.66139 118.218C3.19203 116.779 2.62642 114.88 2.08108 112.628C2.05998 112.539 2.03804 112.449 2.01694 112.359C1.94659 112.067 1.87736 111.77 1.80926 111.466C1.79153 111.391 1.77465 111.315 1.75692 111.238C1.7316 111.118 1.70459 110.998 1.67757 110.876C1.67629 110.869 1.67459 110.861 1.6725 110.854C1.62776 110.647 1.58302 110.438 1.53828 110.226C1.48088 109.949 1.42348 109.669 1.36945 109.386C1.34412 109.258 1.31795 109.13 1.29347 109.001C1.2749 108.905 1.25632 108.807 1.23775 108.709C1.2023 108.522 1.16769 108.333 1.13392 108.142C1.1145 108.036 1.09425 107.929 1.07652 107.823C1.05204 107.689 1.02924 107.555 1.0056 107.421C0.884042 106.702 0.767549 105.965 0.661183 105.209C0.655273 105.159 0.647677 105.108 0.640923 105.058C0.63417 105.008 0.628263 104.974 0.622354 104.927C0.614756 104.865 0.605467 104.806 0.597869 104.746C0.590272 104.686 0.581828 104.627 0.57423 104.568C0.57423 104.545 0.567478 104.521 0.564945 104.497C0.545529 104.349 0.526119 104.198 0.507547 104.047C0.499105 103.982 0.491504 103.915 0.483063 103.848C0.458582 103.649 0.434948 103.448 0.412155 103.249C0.412155 103.228 0.412148 103.209 0.405395 103.189C0.391888 103.062 0.377538 102.935 0.364031 102.805C0.364031 102.786 0.364035 102.766 0.357281 102.747C0.350528 102.728 0.35221 102.7 0.350521 102.676C0.344612 102.618 0.33786 102.562 0.331107 102.504C0.324353 102.447 0.321828 102.408 0.317607 102.359C0.317607 102.339 0.317602 102.32 0.311692 102.301C0.306627 102.255 0.302403 102.209 0.297338 102.164C0.292273 102.119 0.288904 102.066 0.284683 102.016C0.274553 101.923 0.266106 101.831 0.257664 101.738C0.258077 101.732 0.258077 101.727 0.257664 101.722C0.251755 101.662 0.247539 101.601 0.241629 101.541C0.241629 101.494 0.233186 101.446 0.228965 101.399C0.228965 101.383 0.22896 101.367 0.223895 101.351C0.213765 101.222 0.201946 101.093 0.191816 100.964C0.181686 100.834 0.171557 100.703 0.162272 100.572C0.161589 100.566 0.161589 100.56 0.162272 100.554C0.162272 100.532 0.162278 100.508 0.158057 100.486C0.150459 100.384 0.143705 100.282 0.136107 100.179C0.12851 100.076 0.122603 99.989 0.117538 99.8924L0.0964336 99.5595C0.0964336 99.5487 0.0964336 99.5362 0.0964336 99.5246C0.0905244 99.4272 0.0854531 99.3306 0.0795439 99.2333C0.0736347 99.1359 0.0702542 99.051 0.0651892 98.9603C0.0651892 98.912 0.0651929 98.8646 0.0584395 98.8163L0.0483098 98.6248C0.0483098 98.5416 0.0415568 98.4675 0.0381801 98.3885C0.0348034 98.3094 0.0331179 98.2528 0.0305854 98.1837C0.0305854 98.1746 0.0305854 98.1646 0.0305854 98.1529C0.0305854 98.0797 0.0255129 98.0073 0.0229804 97.9332C0.0204478 97.8591 0.016229 97.7668 0.0145407 97.6835C0.0145407 97.5778 0.0077893 97.4713 0.00610095 97.3639C0.00610095 97.3423 0.00610095 97.319 0.00610095 97.2957V97.2066C0.00610095 97.1275 0.00610095 97.0485 0.00610095 96.9702C0.00610095 96.9386 0.00610095 96.907 0.00610095 96.8762C0.00610095 96.8262 0.00609683 96.7772 0.00187595 96.7272C-0.00234493 96.6773 0.00187595 96.6165 0.00187595 96.5608C0.00187595 96.4442 0.00187595 96.3269 0.00187595 96.2095C0.00187595 96.1263 0.00187595 96.0431 0.00187595 95.9548C0.00187595 95.5864 0.00385146 95.216 0.00779095 94.8437C0.00779095 94.8262 0.00779095 94.8088 0.00779095 94.7913C0.012856 94.4459 0.0213011 94.1005 0.0322754 93.7526C0.0373404 93.6103 0.0415555 93.4671 0.0474648 93.3239C0.0474648 93.2083 0.0567561 93.0917 0.0635095 92.9752C0.0635095 92.9253 0.063505 92.8753 0.0694142 92.8246C0.0862977 92.4722 0.106555 92.1196 0.130192 91.7667C0.139478 91.6227 0.149608 91.4779 0.161427 91.3322C0.166492 91.249 0.173253 91.1658 0.180006 91.0826C0.184227 91.0418 0.186759 90.9993 0.190136 90.961C0.196889 90.8678 0.204479 90.7763 0.213765 90.6831C0.246969 90.2946 0.284401 89.9062 0.326047 89.5178C0.333645 89.4529 0.340398 89.388 0.347152 89.3231C0.365723 89.1566 0.385135 88.9902 0.40624 88.817C0.417214 88.7222 0.428191 88.6273 0.440854 88.5332C0.45014 88.4591 0.460266 88.3859 0.468708 88.3118C0.498254 88.0979 0.526112 87.8832 0.553126 87.6693C0.57423 87.5253 0.595335 87.3813 0.617284 87.2373C0.62657 87.1724 0.636698 87.1092 0.646828 87.0451C0.659491 86.9618 0.67385 86.8786 0.686512 86.7954C0.708461 86.6655 0.728722 86.5365 0.75067 86.4059C0.781061 86.2294 0.812293 86.0513 0.843528 85.8749C0.864632 85.7583 0.886582 85.641 0.907686 85.5245C0.907686 85.5178 0.907686 85.5111 0.907686 85.5061C0.922037 85.4229 0.93638 85.348 0.95242 85.2689C0.965082 85.2032 0.977752 85.1374 0.991259 85.0717C0.992691 85.0599 0.994944 85.0482 0.998008 85.0367C0.998008 85.0292 0.998008 85.0218 0.998008 85.0151C1.02249 84.8886 1.04866 84.7654 1.07483 84.6364C1.08327 84.5931 1.09255 84.5532 1.10184 84.5057C1.13392 84.3501 1.16769 84.1953 1.20146 84.0396V84.0255C1.20146 84.0172 1.20145 84.0097 1.20736 84.0022C1.21327 83.9947 1.20736 84.0022 1.20736 83.9963C1.24535 83.8257 1.28334 83.6559 1.32301 83.4853C1.32724 83.4712 1.32977 83.4554 1.33314 83.4412L1.34834 83.378C1.36016 83.3297 1.37114 83.2806 1.38211 83.2315C1.38971 83.2015 1.39646 83.1715 1.40406 83.1424C1.4277 83.0425 1.45218 82.9427 1.47666 82.8436C1.52562 82.6439 1.57627 82.4458 1.62776 82.246C1.64887 82.1628 1.66913 82.0862 1.69107 82.0063C1.7012 81.9689 1.71218 81.9306 1.72231 81.8915C1.73835 81.8282 1.75608 81.7658 1.77297 81.7017C1.77803 81.6842 1.78309 81.6651 1.789 81.6484C1.80673 81.581 1.82446 81.5144 1.84387 81.447L1.88439 81.3022C1.93589 81.1241 1.98654 80.946 2.04056 80.7679C2.07771 80.6397 2.11738 80.5107 2.15622 80.3817C2.20265 80.2277 2.25077 80.0746 2.29973 79.9197C2.30733 79.8998 2.31324 79.8798 2.31999 79.8582C2.34025 79.7941 2.36135 79.73 2.38077 79.6651C2.39259 79.6301 2.40441 79.596 2.41623 79.5602C2.43142 79.5103 2.44746 79.4612 2.46434 79.412C2.47278 79.3862 2.48207 79.3588 2.4922 79.3288C2.54341 79.1723 2.59659 79.0153 2.65175 78.8577C2.71928 78.663 2.78823 78.4688 2.85858 78.2751C2.87546 78.226 2.89319 78.1786 2.91091 78.1303C2.94131 78.0471 2.97169 77.9638 3.00377 77.8806C3.02234 77.8307 3.04092 77.7799 3.06118 77.7291C3.16698 77.4489 3.27588 77.1687 3.38788 76.8885C3.38836 76.8852 3.38836 76.8818 3.38788 76.8785C3.5055 76.5872 3.62649 76.2956 3.75087 76.0038C3.83528 75.8082 3.9197 75.6126 4.00412 75.417L4.12653 75.1448C4.12653 75.1365 4.13329 75.129 4.13751 75.1207C4.17465 75.0375 4.21264 74.9543 4.25147 74.871L4.25568 74.8627C4.29029 74.7861 4.32744 74.7095 4.36205 74.633L4.37387 74.6072C4.40257 74.5489 4.42958 74.4907 4.45829 74.4307C4.45829 74.4207 4.46758 74.4116 4.4718 74.4016C4.47602 74.3916 4.48109 74.3808 4.48615 74.3708C4.49966 74.3442 4.51232 74.315 4.52667 74.2876C4.57816 74.1819 4.63135 74.0753 4.68284 73.968C4.75938 73.8115 4.83761 73.6548 4.91752 73.4977L5.06947 73.1989C5.08213 73.1773 5.09396 73.1532 5.10662 73.1307C5.14967 73.0475 5.19103 72.9642 5.23577 72.881L5.36747 72.6313C5.37065 72.627 5.3732 72.6222 5.37506 72.6171C5.45948 72.4582 5.5439 72.2992 5.6376 72.1386L5.67896 72.0637L5.72709 71.9804L5.7752 71.8972C5.78617 71.8764 5.79884 71.8556 5.80981 71.8348C5.82923 71.8015 5.84696 71.7682 5.86553 71.7349L5.93222 71.6209L6.06307 71.3962C6.07742 71.372 6.09177 71.3479 6.10528 71.3229C6.12722 71.2846 6.15002 71.248 6.17197 71.2097C6.19392 71.1715 6.2319 71.1107 6.2606 71.0608C6.31379 70.9775 6.36612 70.8851 6.41846 70.7977C6.45645 70.737 6.49445 70.6746 6.53159 70.6121C6.55438 70.5772 6.57632 70.5406 6.59743 70.5048C6.61853 70.469 6.62698 70.4582 6.64217 70.4349C6.69029 70.3516 6.74179 70.2751 6.79244 70.1943C6.84309 70.1136 6.89458 70.0329 6.94692 69.9521C6.97055 69.9155 6.99251 69.8797 7.01615 69.8439L7.20778 69.5501L7.27109 69.4536C7.31414 69.3878 7.3555 69.3221 7.40362 69.2563C7.41291 69.2413 7.42388 69.2272 7.43232 69.213C7.472 69.1556 7.50999 69.0974 7.55051 69.0391C7.56064 69.0233 7.57245 69.0083 7.58259 68.9925C7.63661 68.9093 7.69065 68.8335 7.74636 68.7536C7.77169 68.7162 7.797 68.6787 7.82317 68.6429C7.84934 68.6071 7.88311 68.5597 7.91266 68.5147C7.93123 68.4898 7.94812 68.4656 7.96584 68.4407C8.0013 68.3891 8.03844 68.3366 8.07558 68.2859C8.07645 68.2829 8.07822 68.2803 8.08065 68.2784C8.13721 68.1951 8.19462 68.1194 8.24949 68.0412C8.2613 68.0229 8.27481 68.0062 8.28663 67.9887L8.38455 67.8556L8.42254 67.8056C8.44195 67.7773 8.46138 67.7499 8.48248 67.7224L8.59644 67.5693C8.68846 67.4469 8.78048 67.3246 8.87418 67.2022L8.95268 67.1007C8.98814 67.0532 9.02444 67.0066 9.06243 66.9592C9.10042 66.9117 9.1384 66.8626 9.17724 66.8144C9.18314 66.8051 9.18963 66.7962 9.19665 66.7877C9.27431 66.687 9.35452 66.5871 9.43471 66.4881L9.50309 66.4049L9.69049 66.1743L9.93699 65.8755C9.98258 65.8206 10.0273 65.7657 10.0729 65.7091C10.0892 65.6908 10.1044 65.6724 10.1185 65.6541C10.1455 65.6233 10.1725 65.5917 10.1987 65.5601C10.278 65.4685 10.3557 65.3753 10.4351 65.2846L10.4933 65.2172L10.6621 65.0224C10.7786 64.8892 10.8951 64.7586 11.0142 64.6271C11.0386 64.5996 11.064 64.573 11.0868 64.5438C11.1467 64.4798 11.2049 64.4148 11.2632 64.3508L11.4818 64.1144L11.492 64.1011L11.5089 64.0844C11.5696 64.0195 11.6304 63.9546 11.692 63.8905C11.7089 63.8713 11.7275 63.853 11.7444 63.8356L11.9048 63.6691L12.12 63.4452C12.1915 63.3731 12.2624 63.3007 12.3328 63.228C12.3347 63.2287 12.3368 63.2287 12.3387 63.228L12.5489 63.0174C12.6257 62.9408 12.7025 62.8634 12.7819 62.786L13.0064 62.5671L13.0182 62.5555L13.1263 62.4523L13.2335 62.3491L13.464 62.131C13.6547 61.9512 13.8486 61.7723 14.0456 61.5942C14.2431 61.4161 14.4407 61.2388 14.6424 61.0623L14.6492 61.0573C14.9745 60.7738 15.3057 60.4928 15.6428 60.2142L15.918 59.9903L16.1864 59.7731C16.2818 59.6974 16.3789 59.62 16.4768 59.5434C16.6634 59.3969 16.8525 59.2513 17.0424 59.1056C17.1387 59.0332 17.2341 58.9599 17.332 58.8875L17.5498 58.7211C17.7693 58.5591 17.9913 58.3973 18.2158 58.2359C18.3154 58.1643 18.4151 58.0927 18.5164 58.0219C18.7302 57.8721 18.9463 57.7229 19.1647 57.5742C19.3133 57.4735 19.4635 57.3727 19.6129 57.2729L20.0663 56.9749L20.3871 56.7693C20.4926 56.7019 20.5981 56.6345 20.7053 56.5679C20.7053 56.5679 20.7053 56.5679 20.7095 56.5679L21.0345 56.3648L21.3638 56.1626L21.6449 55.9961L21.6964 55.9662C21.7977 55.9046 21.899 55.8446 22.0028 55.7839L22.1252 55.7123C22.2096 55.664 22.2881 55.6166 22.37 55.57C22.4826 55.504 22.5951 55.4385 22.7077 55.3736C22.8203 55.3087 22.9353 55.2437 23.053 55.1788L23.1002 55.1513L23.4008 54.9849C23.6346 54.8575 23.871 54.7294 24.1073 54.6029C24.2264 54.5388 24.3462 54.4772 24.4653 54.4139C24.5843 54.3507 24.705 54.2874 24.8266 54.2267C24.9709 54.1526 25.1136 54.0785 25.2588 54.0053L25.5593 53.8555C25.6826 53.7939 25.8058 53.7331 25.9316 53.6723C31.1337 51.1374 35.9571 47.9082 40.2657 44.0759C40.5527 43.8224 40.8341 43.5671 41.1099 43.3102C41.3913 43.0528 41.6673 42.795 41.938 42.537C42.0292 42.4538 42.1204 42.3639 42.2107 42.2765C42.7527 41.7583 43.2828 41.2342 43.8011 40.7043C44.0595 40.4391 44.3158 40.1736 44.5702 39.9078C44.8246 39.642 45.0756 39.3754 45.3232 39.1079C45.738 38.6602 46.1451 38.2104 46.5447 37.7588C46.7043 37.5798 46.8638 37.4001 47.0208 37.2186C47.2578 36.9484 47.4924 36.6771 47.7249 36.4046L48.1866 35.8603C48.3394 35.6797 48.4905 35.4974 48.6416 35.3151C48.7927 35.1329 48.9447 34.9489 49.0933 34.7658C49.2621 34.56 49.4309 34.3538 49.5998 34.1474C49.7686 33.941 49.9338 33.7352 50.0953 33.5299L50.422 33.1137C50.8289 32.5971 51.2307 32.08 51.6275 31.5623C51.825 31.3032 52.022 31.0449 52.2184 30.7874C52.4148 30.5283 52.6093 30.27 52.8017 30.0126C52.9951 29.7554 53.1875 29.4965 53.3792 29.2385C53.6673 28.8501 53.9524 28.4634 54.2343 28.0783C55.1334 26.8557 56.0147 25.6388 56.8901 24.4345C57.243 23.9484 57.5958 23.4649 57.9487 22.9838L58.5253 22.1998C58.7431 21.9051 58.9608 21.6097 59.1795 21.3175C59.2884 21.1694 59.3973 21.0221 59.5079 20.8747C70.9422 5.60372 83.2292 -5.9486 121.47 3.30824C147.195 9.53134 165.921 28.7907 175.573 52.339C175.804 52.905 176.031 53.4729 176.253 54.0427L176.448 54.5496C176.524 54.751 176.602 54.9533 176.677 55.1555C176.743 55.3295 176.807 55.5042 176.871 55.679C177.08 56.2444 177.283 56.8121 177.479 57.3819C177.545 57.5706 177.61 57.7598 177.674 57.9495C177.748 58.1643 177.821 58.3807 177.892 58.5971C177.948 58.7602 178.002 58.9239 178.054 59.0881C178.116 59.2779 178.177 59.4685 178.239 59.6591C178.361 60.0411 178.48 60.4223 178.598 60.806L178.758 61.3295C178.767 61.3645 178.779 61.3986 178.788 61.4327C178.841 61.6083 178.893 61.7823 178.944 61.9571C179 62.1502 179.055 62.3407 179.112 62.5338C179.17 62.7269 179.223 62.92 179.276 63.1164C179.325 63.2887 179.373 63.461 179.421 63.635C179.48 63.848 179.538 64.0619 179.595 64.2758C179.646 64.4698 179.698 64.6637 179.747 64.8585C179.797 65.0532 179.849 65.2471 179.898 65.4411C179.955 65.6591 180.009 65.8772 180.063 66.0961C180.105 66.2625 180.147 66.4382 180.189 66.6088C180.277 66.9733 180.363 67.3384 180.447 67.7041C180.498 67.9263 180.548 68.1469 180.597 68.3699C180.685 68.7622 180.77 69.1548 180.851 69.5476C180.892 69.744 180.935 69.9405 180.973 70.1386C181.011 70.3366 181.053 70.5306 181.091 70.7287C181.129 70.9268 181.169 71.1223 181.206 71.3204C181.243 71.5185 181.281 71.7141 181.318 71.9122C181.352 72.0953 181.386 72.2801 181.419 72.4648C181.458 72.6762 181.495 72.8874 181.531 73.0982C181.566 73.2971 181.599 73.4944 181.632 73.6942C181.637 73.7191 181.641 73.7441 181.645 73.7691C181.691 74.0529 181.738 74.3392 181.783 74.6238C181.828 74.9085 181.868 75.1939 181.913 75.4786C181.943 75.6783 181.973 75.8773 181.998 76.0762C182.023 76.2751 182.054 76.474 182.082 76.6738C182.104 76.833 182.125 76.992 182.146 77.1507C182.178 77.3912 182.208 77.6301 182.238 77.8698C182.255 78.0085 182.272 78.1472 182.288 78.2859C182.297 78.3467 182.303 78.4075 182.31 78.4682C182.31 78.4849 182.314 78.5015 182.317 78.5182C182.337 78.7013 182.358 78.8835 182.379 79.0666C182.401 79.2664 182.423 79.467 182.444 79.6667C182.464 79.8665 182.485 80.0671 182.506 80.2668C182.545 80.6663 182.583 81.0675 182.618 81.4678C182.634 81.6684 182.653 81.869 182.667 82.0696C182.693 82.3709 182.715 82.6713 182.737 82.9718C182.759 83.2722 182.779 83.5735 182.797 83.8748C182.811 84.0754 182.823 84.276 182.834 84.4766C182.846 84.6772 182.856 84.8786 182.867 85.0783C182.878 85.2781 182.885 85.4812 182.894 85.6818C182.904 85.8823 182.911 86.0829 182.919 86.2844C182.934 86.6772 182.947 87.0706 182.958 87.4645C182.963 87.6743 182.968 87.8807 182.971 88.0929C182.975 88.3052 182.979 88.4949 182.982 88.6955C182.986 88.8961 182.986 89.0975 182.988 89.2989C182.998 89.6929 183.002 90.0905 182.999 90.4916Z" fill="url(#paint0_radial)"/>
<path d="M45.2283 60.8394C45.745 67.8532 47.2735 74.7554 49.7666 81.3314C50.5845 83.4884 51.5084 85.6153 52.0472 87.8571C52.9128 91.4697 52.745 95.2448 52.3687 98.9387C52.0949 101.64 51.7433 104.532 53.0135 106.932C54.3667 109.494 57.209 110.831 59.8606 111.999C60.6008 112.324 61.3799 112.658 62.1855 112.587C63.2295 112.495 64.1163 111.72 64.6198 110.801C65.1232 109.882 65.3052 108.824 65.4677 107.798C66.2238 102.991 66.7043 98.1049 66.2556 93.2592C65.8069 88.4136 64.406 83.5838 61.6626 79.5702C59.4703 76.3692 56.5289 73.8059 53.8685 71.0165C51.2893 68.3102 49.3691 65.8706 48.076 62.4187C47.5283 60.9578 46.6097 59.4015 45.1152 58.9492C45.1594 59.6117 45.1789 60.1681 45.2283 60.8394Z" fill="#530905"/>
<path d="M58.5342 85.9253C58.5342 85.9253 64.8373 91.6648 62.009 97.1606C59.1808 102.656 65.2418 109.284 70.1722 107.91C75.1027 106.536 91.7524 97.9679 89.4082 92.7177C87.064 87.4675 76.7191 83.3426 71.8699 82.7773C67.0207 82.212 58.5342 85.9253 58.5342 85.9253Z" fill="#3A0100"/>
<path d="M90.6851 59.0729C88.2437 58.5606 85.5285 58.8009 83.5253 60.2865C80.6387 62.4258 79.9622 66.4783 80.2059 70.0626C80.9726 81.3403 89.15 91.7524 99.9224 95.1724C101.954 95.819 104.162 96.2323 106.206 95.6264C109.589 94.6283 111.647 91.074 112.203 87.5904C113.028 82.4144 111.264 77.0953 108.421 72.693C104.152 66.0844 98.5374 60.7264 90.6851 59.0729Z" fill="#3A0100"/>
<path d="M100.32 91.0267C100.238 92.0866 86.4186 108.892 79.386 104.606C72.3533 100.32 79.4655 96.9287 79.8718 94.6764C79.9919 94.0051 79.6616 93.1147 79.1351 92.2032C77.8986 90.0409 75.5879 87.7197 75.5879 87.7197L88.1976 69.291C88.323 72.0751 89.2239 74.944 90.4181 77.5779C93.1015 83.5171 97.2494 88.285 97.2494 88.285C97.2494 88.285 100.401 89.9773 100.32 91.0267Z" fill="#FED194"/>
<path d="M90.4163 77.7146C90.0489 78.3471 89.6391 78.9654 89.2557 79.5872C87.6234 82.2176 86.3356 85.0635 84.5267 87.5808C83.1134 89.5452 81.3009 91.3347 79.1351 92.3399C77.8986 90.1777 75.5879 87.8564 75.5879 87.8564L88.1976 69.4277C88.3212 72.2118 89.2221 75.0807 90.4163 77.7146Z" fill="#F59D4E"/>
<path d="M88.1961 69.4277C88.1961 69.4277 89.4079 86.3213 78.2539 90.2731C67.0999 94.2248 60.7156 89.0612 60.7156 89.0612C59.3302 88.2474 58.0499 87.2667 56.9034 86.1411C55.0944 84.3745 53.6317 82.3306 52.3457 80.1348C50.2753 76.5911 48.666 72.6482 46.8128 68.8642C44.3732 63.8772 44.7884 58.5405 45.3607 55.4649C45.4508 54.9809 45.5374 54.5551 45.631 54.193C45.8359 53.3486 46.0037 52.861 46.0037 52.861C46.0037 52.861 50.2081 49.1513 52.2273 48.9746C52.5657 48.9845 52.9015 49.0361 53.2272 49.1283C58.3961 50.3278 79.6248 58.0052 81.326 56.9011C83.1844 55.6893 89.8054 57.5477 90.7011 62.5541C90.7846 63.0155 90.833 63.4827 90.8459 63.9514C90.9519 67.9191 88.1961 69.4277 88.1961 69.4277Z" fill="#FED194"/>
<path d="M90.8459 63.9542C90.6616 63.7809 90.5217 63.5658 90.4378 63.3271C90.1362 62.6027 89.6721 61.9573 89.0815 61.4406C88.4909 60.924 87.7895 60.5499 87.0314 60.3473C86.2733 60.1447 85.4788 60.1189 84.7092 60.272C83.9396 60.4251 83.2154 60.7529 82.5926 61.2302C81.1988 62.2901 80.4215 64.0107 79.0471 65.0989C77.5173 66.309 75.4451 66.5846 73.4966 66.5033C71.5481 66.4221 69.6102 66.0317 67.667 66.0935C65.5047 66.1624 63.4025 66.7824 61.2738 67.1693C58.8603 67.6066 56.4017 67.7407 53.955 67.5686C52.7184 67.4838 51.4165 67.2841 50.489 66.4698C49.4609 65.5671 49.1305 64.1079 49.0404 62.7423C48.9362 61.1701 49.0952 59.4512 48.3338 58.0133C47.6802 56.7891 46.592 56.5488 45.6063 55.7362C45.5106 55.6603 45.4298 55.5675 45.3678 55.4624C45.1469 55.0843 45.2918 54.6445 45.638 54.1905C46.5708 52.9733 48.9592 51.6607 49.6234 51.2315C50.7917 50.4754 51.9953 49.7758 53.2342 49.1328C58.4032 50.3323 79.6318 58.0097 81.333 56.9056C83.1914 55.6938 89.8125 57.5522 90.7081 62.5586C90.7892 63.0197 90.8353 63.4862 90.8459 63.9542Z" fill="#F59D4E"/>
<path d="M122.709 95.3742C122.768 95.4608 120.51 95.4643 117.62 95.4131C112.614 95.3301 105.706 95.0934 105.655 94.8831C105.574 94.5599 108.323 91.4896 108.563 83.2451C108.803 75.0006 93.6921 72.9779 91.9944 65.8552C90.2968 58.7324 87.1646 57.805 87.1646 57.805C83.787 56.9394 81.0012 58.5116 79.1427 61.9864C77.2843 65.4612 75.5071 63.6841 69.5256 62.3909C69.0592 62.2904 68.5873 62.2172 68.1124 62.1719C67.9404 62.1554 67.7726 62.1448 67.6089 62.1401H67.5842C62.9911 61.9634 60.6293 65.0726 55.0576 65.788C48.7545 66.5953 50.2349 62.1048 49.4258 58.0629C48.6167 54.021 45.5994 56.0102 45.5994 56.0102C44.8734 52.0495 44.6314 47.1968 52.5526 39.4381C60.4738 31.6794 88.9242 31.1124 95.2272 45.0911C101.53 59.0698 108.081 51.4772 122.224 65.2157C136.367 78.9541 122.547 95.1305 122.709 95.3742Z" fill="#72120C"/>
<path d="M118.501 93.948C118.222 94.4426 117.934 94.9373 117.618 95.4125C112.612 95.3294 105.704 95.0927 105.653 94.8825C105.572 94.5592 108.321 91.489 108.561 83.2445C108.801 75 93.69 72.9773 91.9924 65.8545C90.2947 58.7318 87.1626 57.8043 87.1626 57.8043C83.7849 56.9387 80.9991 58.511 79.1407 61.9858C77.2823 65.4606 75.5051 63.6834 69.5236 62.3903C69.0572 62.2898 68.5853 62.2166 68.1104 62.1712C72.0975 62.3709 76.1517 60.8764 79.4357 58.6081C80.7288 57.7142 81.9248 56.6402 83.3893 56.0696C85.5374 55.2322 87.9999 55.6067 90.1127 56.5306C91.6913 57.195 93.096 58.2135 94.2182 59.5073C95.5449 61.0972 96.2992 63.0687 97.4263 64.8069C99.4644 67.9099 102.607 70.1207 106.217 70.9899C108.439 71.5198 110.766 71.5075 112.961 72.1311C117.75 73.4948 121.441 78.0773 121.743 83.0466C121.98 86.8871 120.39 90.5986 118.501 93.948Z" fill="#530905"/>
<path d="M64.6778 104.523C63.6997 105.142 62.8909 105.994 62.3244 107.003C61.7578 108.012 61.4514 109.147 61.4326 110.304C61.3461 114.337 55.5588 142.746 56.3467 154.761C56.3467 154.761 56.3909 165.667 53.7605 177.07C51.1301 188.474 51.524 218.858 49.4201 222.935C47.3161 227.013 45.0796 231.09 46.2632 234.51C47.4468 237.93 49.814 246.346 53.5061 246.609C57.1982 246.872 59.8198 229.774 59.8198 229.774L67.3082 190.328C67.3082 190.328 73.3834 121.226 72.516 116.055C71.6486 110.885 64.6778 104.523 64.6778 104.523Z" fill="#FED194"/>
<path d="M61.4383 159.446C60.6804 167.822 59.919 176.214 58.2814 184.462C57.5659 188.075 56.6809 191.658 56.1474 195.3C55.5097 199.651 55.3754 204.057 55.2447 208.452C55.0633 214.51 54.8808 220.567 54.6971 226.623C54.5928 230.098 54.5204 233.721 55.9937 236.869C58.4899 232.772 58.5393 227.708 59.5622 223.019C60.744 217.594 63.2719 212.575 65.2151 207.373C70.2533 193.91 71.3327 179.355 72.9968 165.078C73.6504 159.475 74.4012 153.848 74.1344 148.213C73.8677 142.578 72.511 136.859 69.2959 132.226C68.2713 130.75 65.7733 127.366 64.1446 129.765C62.8886 131.618 63.438 137.345 63.226 139.62C62.6324 146.227 62.0365 152.836 61.4383 159.446Z" fill="#F59D4E"/>
<path d="M122.798 122.952L131.661 134.258C131.661 134.258 126.584 141.711 123.865 141.184C121.146 140.658 113.255 123.648 113.518 121.192C113.781 118.737 112.198 100.515 116.226 95.7538C120.254 90.993 122.543 89.6239 122.543 89.6239C122.543 89.6239 125.275 89.5338 126.748 91.2138C126.748 91.2138 123.865 89.8005 120.27 101.106C116.675 112.412 116.06 121.012 118.166 121.888C118.755 122.155 119.416 122.217 120.044 122.065C120.539 121.927 121.064 121.938 121.554 122.095C122.043 122.253 122.476 122.551 122.798 122.952Z" fill="#F59D4E"/>
<path d="M122.621 174.076C122.621 174.076 88.1238 178.198 76.7437 175.656C65.3635 173.114 62.5565 171.709 62.5565 171.709C63.2703 169.253 63.7622 166.738 64.0263 164.194C64.3884 160.617 64.2683 156.492 62.5565 153.558C58.8732 147.244 55.1034 142.512 57.7338 136.459C60.3642 130.407 63.0829 118.308 62.1166 111.032C61.1503 103.755 63.551 101.526 66.0843 100.245C68.9461 98.8 76.9362 93.2531 77.7259 94.9101C77.7259 94.9101 75.5142 99.5544 77.7259 101.211C79.9376 102.868 91.8424 98.4927 96.5768 87.9622C96.5768 87.9622 96.6651 86.0879 98.0677 86.9023C99.2177 87.5612 115.069 87.0931 122.411 88.8296C124.029 89.2112 125.237 89.7023 125.767 90.3365C125.674 90.2782 122.314 88.2166 119.719 93.4951C117.09 98.8442 110.075 123.571 119.457 129.27C128.654 134.857 130.512 133.704 130.586 133.656C130.519 133.877 120.088 166.208 122.621 174.076Z" fill="#FF920F"/>
<path d="M122.621 174.075C122.621 174.075 89.1927 178.795 77.8126 176.253C66.4324 173.711 63.6289 172.309 63.6289 172.309C64.3436 169.853 64.8361 167.338 65.1005 164.794C65.528 164.603 65.7965 164.506 65.7965 164.506C65.7965 164.506 100.281 159.243 109.868 149.248C119.455 139.253 111.358 130.897 113.428 111.016C115.498 91.1354 122.543 89.6162 122.543 89.6162C122.543 89.6162 122.897 89.5332 123.48 89.4219C125.1 89.8052 126.306 90.3052 126.836 90.9287C126.743 90.8722 123.381 88.8089 120.786 94.0873C118.157 99.4382 111.142 124.165 120.524 129.864C129.721 135.451 131.579 134.298 131.654 134.25C131.588 134.474 120.088 166.207 122.621 174.075Z" fill="#F27204"/>
<path d="M46.0059 52.8579C46.0059 52.8579 43.9037 51.0808 39.293 58.5109C34.6823 65.941 37.4346 76.2118 43.9001 80.4957C50.3657 84.7795 51.0123 85.7494 49.1539 91.1639C47.2954 96.5783 45.2286 115.412 67.8793 113.633C67.8793 113.633 53.4342 112.583 54.646 104.5C55.8579 96.4158 57.4955 90.3036 52.7382 82.7003C47.9809 75.0971 43.4196 65.9516 46.0059 52.8579Z" fill="#72120C"/>
<path opacity="0.18" d="M71.2586 69.5394C70.3753 69.7973 69.4638 70.0905 68.8066 70.7335C67.8439 71.6787 67.6513 73.1926 67.941 74.5087C68.0753 75.1252 68.3208 75.7453 68.7996 76.1604C69.1126 76.4082 69.4734 76.5886 69.8595 76.6904C71.4847 77.1938 73.4721 76.867 74.5055 75.5138C75.0302 74.7827 75.2917 73.8953 75.2475 72.9965C75.1986 72.1031 74.9766 71.2278 74.5939 70.4191C73.9438 68.967 72.58 69.1525 71.2586 69.5394Z" fill="#FF6355"/>
<path d="M61.8623 58.4777C62.1539 58.7473 62.5013 58.9493 62.8798 59.0695C63.2542 59.1893 63.6426 59.2594 64.0352 59.2779C64.4298 59.3039 64.8254 59.3086 65.2205 59.2921L66.4183 59.2532C67.2167 59.2179 68.0082 59.1931 68.8084 59.1295C69.6086 59.0659 70.3983 59.0024 71.1773 58.884C72.7488 58.6817 74.2906 58.2933 75.7704 57.7269C76.5072 57.437 77.2201 57.0897 77.9026 56.6882C78.5911 56.2812 79.2415 55.8129 79.8458 55.2891C79.3138 55.897 78.7119 56.4401 78.0527 56.9072C77.3847 57.3721 76.675 57.7743 75.9329 58.1085C75.1894 58.4393 74.4216 58.7127 73.6364 58.9264C72.8523 59.1344 72.0565 59.2954 71.2533 59.4087C70.4513 59.5182 69.6457 59.5853 68.8402 59.6295C68.0346 59.6736 67.2291 59.6789 66.4253 59.6648C66.0243 59.6648 65.6233 59.6524 65.2205 59.6383C64.8144 59.6269 64.4092 59.5927 64.0069 59.5359C63.6009 59.4801 63.2044 59.369 62.8286 59.2055C62.4529 59.0437 62.1216 58.7941 61.8623 58.4777Z" fill="white"/>
<path d="M54.7539 48.7539C55.697 50.2176 56.8318 51.5485 58.128 52.711C59.4137 53.8662 60.8537 54.8371 62.4066 55.5958C62.7953 55.7724 63.1804 55.9773 63.5849 56.1257L64.1837 56.3677L64.7968 56.5744C65.6155 56.849 66.4526 57.0656 67.3017 57.2228C67.7257 57.3005 68.1567 57.3482 68.5843 57.41L69.2326 57.4612C69.4481 57.4771 69.6654 57.5001 69.8791 57.5001C70.3069 57.5178 70.7348 57.469 71.1475 57.3553C71.569 57.2493 71.9342 56.9864 72.1686 56.6204C72.0782 56.824 71.9436 57.005 71.7747 57.1503C71.602 57.2979 71.407 57.4171 71.197 57.5036C70.7764 57.6615 70.3333 57.7516 69.8844 57.7704C69.6618 57.7863 69.4428 57.7704 69.2202 57.7704L68.5577 57.7616C68.3369 57.751 68.1179 57.7245 67.897 57.7068C67.6762 57.6891 67.4536 57.675 67.2363 57.6361L66.581 57.5301L66.2524 57.4754L65.9291 57.3994L65.2826 57.244C65.0635 57.198 64.8568 57.1185 64.6431 57.0567L64.0089 56.8553L63.3906 56.6115C62.9719 56.4596 62.5744 56.2582 62.1717 56.0816C62.0727 56.0321 61.9703 55.9879 61.8731 55.9349L61.5834 55.7724L61.0022 55.4474C60.8079 55.3378 60.6277 55.2089 60.4404 55.0941C60.2532 54.9792 60.0642 54.8573 59.884 54.7266C59.1622 54.2122 58.4813 53.6429 57.8471 53.0237C56.5755 51.7912 55.5287 50.3463 54.7539 48.7539Z" fill="white"/>
<path d="M100.615 62.998C100.883 63.6088 101.267 64.1614 101.746 64.625C101.864 64.7416 101.991 64.8494 102.113 64.9625L102.29 65.1285C102.354 65.1833 102.422 65.2292 102.486 65.2804L102.88 65.5808L103.297 65.8493C103.435 65.9411 103.578 66.0259 103.723 66.1019C103.867 66.1778 104.009 66.2662 104.157 66.3368C104.457 66.4782 104.752 66.6265 105.062 66.7431C105.675 66.9922 106.301 67.2069 106.938 67.3862C108.215 67.7395 109.519 68.0274 110.824 68.3207C112.142 68.6075 113.44 68.9781 114.711 69.4301C115.981 69.8953 117.211 70.463 118.388 71.1277C118.977 71.4657 119.549 71.8273 120.102 72.2124C120.673 72.5967 121.193 73.0514 121.65 73.5656C122.095 74.0959 122.441 74.7013 122.674 75.3533C122.905 75.9888 123.097 76.6377 123.248 77.2965C123.55 78.6069 123.71 79.946 123.725 81.2907C123.609 79.9607 123.365 78.645 122.996 77.3619C122.819 76.7232 122.604 76.0955 122.353 75.4823C122.112 74.8804 121.769 74.3247 121.339 73.8394C120.889 73.3699 120.385 72.9549 119.839 72.6028C119.289 72.2354 118.722 71.8962 118.143 71.5729C116.984 70.9322 115.776 70.3841 114.53 69.9335C112.057 68.992 109.391 68.6086 106.818 67.7872C106.172 67.5861 105.539 67.346 104.922 67.0682C104.611 66.9339 104.314 66.7696 104.014 66.6124C103.864 66.5329 103.723 66.4358 103.578 66.351C103.431 66.266 103.29 66.1728 103.154 66.0719L102.742 65.7715L102.357 65.4412C102.293 65.3847 102.226 65.3317 102.166 65.2645L101.99 65.0879C101.871 64.966 101.751 64.8494 101.636 64.724C101.179 64.2267 100.831 63.6386 100.615 62.998Z" fill="white"/>
<path d="M111.65 64.9922C112.451 65.2112 113.253 65.4126 114.058 65.6069C114.864 65.8013 115.668 66.0062 116.466 66.2305C117.267 66.4531 118.056 66.7173 118.83 67.022C119.608 67.3232 120.355 67.6976 121.063 68.1402C121.769 68.5921 122.4 69.1525 122.932 69.8007C123.461 70.4491 123.888 71.1747 124.198 71.9524C124.506 72.7263 124.736 73.5287 124.885 74.3478C125.039 75.164 125.138 75.9872 125.219 76.8122C124.988 75.1764 124.728 73.5229 124.078 72.0036C123.758 71.2453 123.331 70.5368 122.81 69.8997C122.284 69.2684 121.663 68.7235 120.969 68.285C119.575 67.4018 118.006 66.8382 116.427 66.3648C115.636 66.1246 114.837 65.9108 114.035 65.6935C113.233 65.4762 112.438 65.2554 111.65 64.9922Z" fill="white"/>
<path d="M55.4585 77.9097C55.9177 77.6962 55.9679 76.8304 55.5706 75.9757C55.1734 75.1211 54.4791 74.6013 54.0199 74.8147C53.5607 75.0281 53.5105 75.894 53.9078 76.7487C54.305 77.6033 54.9993 78.1231 55.4585 77.9097Z" fill="#72120C"/>
<path d="M66.1929 72.273C66.6521 72.0595 66.7023 71.1937 66.305 70.339C65.9077 69.4844 65.2135 68.9645 64.7543 69.178C64.2951 69.3914 64.2449 70.2573 64.6422 71.1119C65.0394 71.9666 65.7337 72.4864 66.1929 72.273Z" fill="#72120C"/>
<path d="M60.9963 65.4831C60.8002 65.2941 60.9521 64.9426 61.1305 64.7376C61.6958 64.0823 63.2345 62.6089 64.7926 63.7855C66.0751 64.7535 65.2943 64.8737 65.077 64.7323C64.7431 64.5133 63.9641 64.0964 63.4271 64.114C62.1852 64.1564 61.445 65.9159 60.9963 65.4831Z" fill="#72120C"/>
<path d="M49.7822 73.3559C49.519 73.287 49.4819 72.9054 49.5384 72.6404C49.7151 71.7925 50.3475 69.7592 52.2819 70.033C53.8718 70.2591 53.2482 70.7396 52.9885 70.7219C52.5892 70.6937 51.7059 70.706 51.2449 70.9834C50.1796 71.6158 50.3793 73.5184 49.7822 73.3559Z" fill="#72120C"/>
<path d="M58.7199 73.9023C59.2812 74.7472 59.7682 75.6391 60.1755 76.5681C60.3928 77.0221 60.5659 77.4937 60.7585 77.9584C60.951 78.423 61.0977 78.907 61.2549 79.3946C61.3238 79.6436 61.3909 79.8874 61.451 80.1648C61.4698 80.2457 61.4834 80.3277 61.4916 80.4103V80.4774V80.511C61.4916 80.511 61.4916 80.5446 61.4916 80.5287C61.489 80.4957 61.4806 80.4634 61.4669 80.4333C61.4521 80.399 61.4318 80.3674 61.4068 80.3397C61.3911 80.3215 61.3726 80.306 61.3521 80.2937C61.3521 80.2937 61.3255 80.2831 61.3308 80.2937H61.3432C61.411 80.3167 61.4819 80.3292 61.5534 80.3308C61.6546 80.3377 61.7561 80.3377 61.8573 80.3308C62.071 80.3132 62.3007 80.2814 62.5303 80.2425C63.4926 80.0465 64.4378 79.7741 65.3568 79.4281L65.3957 79.4864C64.5699 80.0615 63.6566 80.4993 62.6911 80.7831C62.4488 80.8539 62.2021 80.9087 61.9527 80.9474C61.6981 80.995 61.437 80.995 61.1824 80.9474C61.1109 80.9358 61.0431 80.9073 60.9847 80.8643C60.9263 80.8213 60.879 80.765 60.8468 80.7C60.8316 80.6653 60.822 80.6283 60.8186 80.5905L60.8044 80.5004C60.7971 80.4409 60.7859 80.3818 60.7709 80.3238C60.7143 80.0853 60.6436 79.8468 60.5712 79.6083C60.2833 78.6544 59.9618 77.7075 59.6367 76.7642L58.6475 73.9377L58.7199 73.9023Z" fill="#F59D4E"/>
<path d="M73.4732 82.4759C71.8457 84.0017 68.7395 86.3409 64.747 86.6301C64.7219 86.6343 64.699 86.6473 64.6825 86.6668C64.666 86.6863 64.6569 86.711 64.657 86.7365C64.657 86.762 64.6661 86.7868 64.6826 86.8062C64.6992 86.8257 64.7221 86.8386 64.7473 86.8427C67.2042 86.9976 71.5525 86.6466 73.9142 82.8366C73.9537 82.7774 73.9698 82.7057 73.9593 82.6354C73.9488 82.565 73.9125 82.5011 73.8574 82.456C73.8024 82.411 73.7325 82.3881 73.6615 82.3918C73.5904 82.3955 73.5233 82.4255 73.4732 82.4759Z" fill="#F59D4E"/>
<path d="M47.4036 116.38C46.8085 117.047 46.8967 118.432 47.5765 119.012C53.4231 124.001 75.1111 142.638 75.1111 142.638L78.0078 138.897L51.5192 115.467C50.4994 114.565 48.9424 114.657 48.0357 115.672L47.4036 116.38Z" fill="#434343"/>
<path d="M126.604 140.433L117.896 121.032C114.691 117.728 119.187 92.754 126.604 90.5176C126.604 90.5176 161.148 152.757 152.657 160.449C144.166 168.141 87.1012 151.833 83.7855 150.645C82.0059 150.006 71.9995 147.724 65.3355 145.148C58.6715 142.572 58.4219 139.794 57.6109 136.407C56.7998 133.02 53.2613 126.553 55.1836 125.795C57.1058 125.037 69.0819 136.645 71.8598 138.377C74.6377 140.109 77.2166 139.488 77.2671 138.327C77.3176 137.165 71.2568 133.677 69.9911 131.909C68.7255 130.142 69.486 127.714 70.2436 128.118C71.0012 128.522 76.9106 131.048 79.5608 131.244C82.2109 131.44 90.3039 140.802 90.3039 140.802C90.3039 140.802 105.162 142.076 111.63 141.324C118.098 140.573 126.604 140.433 126.604 140.433Z" fill="#FED194"/>
<path d="M125.87 140.113C125.87 140.113 136.313 139.762 140.962 144.058C140.962 144.058 141.922 145.119 141.77 143.351C141.619 141.584 134.97 136.491 125.281 138.809L125.87 140.113Z" fill="#F59D4E"/>
</g>
<defs>
<radialGradient id="paint0_radial" cx="0" cy="0" r="1" gradientUnits="userSpaceOnUse" gradientTransform="rotate(44.901) scale(268.306 574.202)">
<stop stop-color="#004A66"/>
<stop offset="1" stop-color="#097FAA"/>
<stop offset="1" stop-color="#097FAA"/>
</radialGradient>
<clipPath id="clip0">
<rect width="183" height="178" fill="white"/>
</clipPath>
</defs>
</svg>
